<svg xmlns="http://www.w3.org/2000/svg" viewBox="0 0 400 400"><defs><style>.cls-1{fill:#c6dde5;}.cls-2{fill:#fff;}.cls-10,.cls-11,.cls-12,.cls-2,.cls-4,.cls-5,.cls-6,.cls-7,.cls-8,.cls-9{fill-rule:evenodd;}.cls-3{fill:#ddebef;}.cls-4{fill:#572213;}.cls-5{fill:#411a0e;}.cls-6{fill:#bd6951;}.cls-7{fill:#ad4325;}.cls-8{fill:#c9875d;}.cls-9{fill:#bc6935;}.cls-10{fill:#61829b;}.cls-11{fill:#396283;}.cls-12{fill:#1d2b36;}</style></defs><g id="Layer_2" data-name="Layer 2"><g id="_ÎÓÈ_1" data-name="—ÎÓÈ_1"><g id="pre-made_20" data-name="pre-made 20"><rect class="cls-1" width="400" height="400"/><polygon class="cls-2" points="169.96 188.83 126.94 199.55 173.25 193.6 105.28 226.53 174.37 202.51 138.73 228.88 179.25 205.66 129.04 262.09 183.69 213.47 160.85 251.47 189.4 214.51 164.61 285.86 196.49 220.02 189.93 263.87 202.16 218.8 206.56 294.2 210.82 221.18 221.55 264.2 215.6 217.88 248.52 285.86 224.51 216.76 250.88 252.4 227.66 211.88 284.08 262.09 235.46 207.44 273.46 230.28 236.5 201.73 307.85 226.53 242.01 194.64 285.86 201.2 240.79 188.97 316.2 184.57 243.17 180.31 286.19 169.59 239.87 175.53 307.85 142.61 238.75 166.62 274.39 140.25 233.88 163.48 284.08 107.05 229.44 155.67 252.27 117.67 223.73 154.63 248.52 83.28 216.63 149.12 223.19 105.27 210.96 150.34 206.56 74.94 202.3 147.96 191.58 104.94 197.53 151.26 164.61 83.28 188.62 152.38 162.25 116.74 185.47 157.25 129.04 107.05 177.66 161.7 139.66 138.86 176.62 167.41 105.28 142.61 171.11 174.5 127.26 167.94 172.33 180.17 96.93 184.57 169.96 188.83"/><polygon class="cls-3" points="400 272.23 0 285.71 0 400 400 400 400 272.23"/><path class="cls-4" d="M295.8,237.66c-1.87-1.2-4.49-1.54-6.58-2.17-9.32-2.79-19.57-1.57-29.08-2.49-3.43-.32-6.3-3.12-9.48-3.77-1.35-.28-2.69.56-4,.47-3.6-.24-8.42-.46-11.9-1.39-3.22-.85-5.72-3.76-9-4.72s-6.91-.52-10-1.87c-4.57-2-7.9-7.14-12.47-9.35a109.77,109.77,0,0,0-14.06-5.66c-3.24-.89-6.9-1.18-9.93-2.7-2.55-1.28-3.18-4.42-5.52-5.68-1.7-.92-4.12-.78-5.67-1.91-4.49-3.25-7.8-8.16-12.38-11.52-2.06-1.51-4.56-2-6.8-3.16s-3.81-3.68-6.1-4.89c-1.75-.94-3.92-.66-5.76-1.37-6.16-2.4-12.5-7.38-19.32-7.83-3.89-.25-15.05,7.49-17.74,10.07-1.32,1.26-1.64,3.2-2.93,4.35-1.07,1-2.68,1-3.81,2-4.06,3.35-7.89,8-11.17,12.12-1.27,1.6-.52,4.09-2,5.6-2.38,2.38-6.28,6.4-10.1,5.5-1.8-.42-3-1.25-5-.58-1.29.44-2,2.17-3.17,2.91-2.66,1.74-5.82,2.9-8.62,4.51-2.6,1.49-4.66,4.82-7.11,6.72C42,224,37.36,225,33.81,229.08s-5.65,9.21-9.63,13.13a118.13,118.13,0,0,1-13,10.92c-.93.67-5.68,2-8.74,4.24A12.13,12.13,0,0,0,0,259.79v27.55a6.19,6.19,0,0,0,1.54,1.11c1.14.49,2.51.31,3.63.88,5.5,2.76,11.76,6.61,17.87,7.87,4.72,1,10.1-.72,14.94-.55,6.49.22,12.8,2.13,19.28,2.91,3.23.39,8,.33,11-.81s5.46-3,8.71-3.35c4.25-.44,8.56.18,12.79-.08,2.19-.13,4.28-1.21,6.4-1.66,4.85-1,9.87-1.76,14.76-2.73,3.23-.65,6.8-.3,9.93-1,1.65-.4,2.93-1.75,4.58-2.24,9.11-2.69,18.21-5.77,27.52-7.79,2.15-.46,3.82.39,5.93.52,5.2.31,11.54.78,16.7.27,2.69-.27,5.24-1.57,7.88-2.08a157,157,0,0,1,17.19-2c4.84-.37,9.9,1.34,14.73.63,7.39-1.09,14.44-3.78,21.88-4.87,6.8-1,13.66-.79,20.39-1.7,5.19-.7,10.3-2.1,15.49-2.78,2-.26,3.91.25,5.91-.23,6-1.42,10.55-3.86,16-6.26,3.7-1.62,15.14-.73,15.12-6.76C310.17,251.84,298.59,239.45,295.8,237.66Z"/><path class="cls-5" d="M76.16,227.62A9.33,9.33,0,0,0,85.22,225c.88-1.1,1.26-2.78,2.58-3.46,3.41-1.77,3.65,1.8,5.62.81,2.54-1.27,4.46-3.75,6.36-5.75,1-1,2.8-1,3.93-2,.75-.64,3.22-6.46,3.51-7.67,1-4.11.42-8.78,1.81-12.84.58-1.7,1.77-3.09,2.36-4.79s.5-3.55,1.27-5.1,2.21-3.06,3.09-4.71c.66-1.26.54-3.6-.68-4.52-2.1-.55-5.4,4.53-6.53,5.19-1.76,1-2.61,2.72-4.26,3.81-2.09,1.38-4.4,1.66-6.1,3.68-1.41,1.68-2.18,3.63-3.44,5.35-1.09,1.51-2.63,2.62-3.67,4.21s-1.38,3.65-3,5c-2.65,2.2-5.24,4.76-8.14,6.63-1.88,1.21-4.1,1.4-5,3.84-.56,1.57,3.19.89,3.56,2.3.31,1.19-1.5,2.62-2,3.6s1.09,1.22.94,2.13C77.11,222.74,72.52,226.32,76.16,227.62Z"/><path class="cls-6" d="M400,259.79a26.34,26.34,0,0,0-4.92-2.47c-10.33-3.64-22.54-3.1-32.87-6.26-7.34-2.24-22.2-9.19-28.94-13.22-3.17-1.9-4.28-5.25-7-7.59-2.17-1.88-5.58-1.76-8-3.24-3.76-2.28-6.44-7.79-11.21-8.07-5.74-.34-7.35,4.83-12,6.5-5.11,1.84-11.37.68-16.42,2.81-3.53,1.48-6.37,4.63-10.27,5.24-7.88,1.22-15.48,0-23.36.75-4.83.47-9,3.25-14.19,3.41-6.67.21-14.21-1.94-20.69-.74-3.66.67-4.91,4.1-8.12,5.57-3.51,1.6-8.79-.47-12.69.92-6.41,2.28-11.23,7.32-17.76,9.57-4.55,1.57-9.82.35-14.54,1.19-3.08.55-4.51,3.65-7.42,4.47-3.45,1-7.39.63-10.82,1.69-8.11,2.51-14,8.08-21.36,11.75-3.5,1.75-7.63,1.74-11.12,3.5-3,1.52-5.27,5-8.88,5.32-3.42.26-5.79-2.83-8.79-3.75-4.29-1.31-9.11-1.21-13.39-2.73-7.56-2.67-14.54-7.4-22.47-8.8-1.56-.27-17.56,9.56-21.26,9.77-4.13.23-8.36-2-12.49-.83-2,.58-3.39,2.95-5.61,2.88C9,277.3,4.44,275.85,0,276V311c7.45.48,14.93.17,22.4.47,6.93.28,13.81-.23,20.64,0,3,.1,5.69,1.5,8.75,1.36,3.91-.18,7.46-2.09,11.35-2.36,15.72-1.11,31.87-1.68,47.7-1.35,10.22.21,20,2.81,30.08,3.47,6.41.42,14.67-3.27,22.14-3.18,18.35.2,36.25,2.91,54.82,1.62,14.87-1,26-11.3,40.61-13.87,26.24-4.63,54.16-1.87,80.6-1.14,7.73.22,15.34-1.51,23.14-1.38,9.95.18,20.2,1.57,30.07,1.38,2.57-.06,5.13-.15,7.7-.27Z"/><path class="cls-7" d="M400,254.79a33,33,0,0,0-6.78-3.64c-10.32-3.65-22.53-3.1-32.87-6.26-7.33-2.24-22.19-9.19-28.93-13.22-3.17-1.9-4.28-5.26-7-7.6-2.17-1.88-5.59-1.75-8-3.24-3.77-2.28-6.44-7.78-11.21-8.06-5.74-.34-7.35,4.82-12,6.5-5.11,1.83-11.37.68-16.42,2.8-3.53,1.49-6.38,4.64-10.27,5.24-7.88,1.23-15.48,0-23.36.76-4.84.47-9,3.25-14.19,3.41-6.67.2-14.21-1.94-20.69-.75-3.66.68-4.91,4.1-8.12,5.57-3.52,1.61-8.79-.46-12.7.93-6.4,2.28-11.22,7.31-17.75,9.57-4.55,1.57-9.82.34-14.54,1.18-3.08.55-4.51,3.66-7.42,4.48-3.45,1-7.39.62-10.82,1.68-8.12,2.52-14,8.08-21.36,11.75-3.51,1.75-7.63,1.75-11.12,3.5-3,1.53-5.27,5-8.88,5.32-3.42.27-5.8-2.83-8.79-3.74-4.29-1.31-9.11-1.22-13.4-2.73-7.55-2.68-14.53-7.41-22.46-8.8-1.56-.28-17.56,9.56-21.26,9.76-4.13.23-8.36-2-12.49-.83-2,.59-3.39,2.95-5.62,2.89-3.8-.12-7.69-1.2-11.53-1.45V305c6.84.33,13.7.08,20.54.35s13.81-.23,20.64,0c3,.11,5.69,1.51,8.76,1.37,3.91-.18,7.45-2.09,11.35-2.37C77,303.24,93.16,302.66,109,303c10.22.21,20,2.82,30.08,3.48,6.41.42,14.67-3.27,22.13-3.19,18.35.21,36.26,2.92,54.83,1.63,14.87-1,26-11.31,40.61-13.88,26.24-4.63,54.16-1.87,80.6-1.13,7.73.21,15.34-1.51,23.14-1.38,9.95.17,20.2,1.57,30.07,1.37,3.18-.06,6.37-.19,9.55-.34Z"/><path class="cls-8" d="M158.14,305.91c-1.64-1.67-1.73-4.47-3.39-5.93-2.75-2.43-88.2-.2-93,2.54-1.79,1-9.31,1.87-11.43,2.1-4.48.5-15.36-3.56-18.84-6.16-2.26-1.68-3.38-4.55-5.84-6s-5.65-.9-8.15-2.68c-1.49-1.07-1.54-3.57-2.92-4.42-2.18-1.34-4.89-1-7.15-2.24s-4.63-5.8-7.41-7.35v92.54c.43-.09.86-.19,1.3-.26,4.54-.69,8,2.94,12.37,3.27,6.33.48,13.87-1,20.14-2,4.1-.65,6.5-5,10.35-5.87,2.56-.58,5.14.85,7.75.6,3.62-.34,7.13-2.25,10.75-2.73,9-1.2,17.37-.43,26.33.21,9.52.69,18.79-3.29,28.1-4.23,2.32-.23,4.54,1.62,6.79,1,5.16-1.49,9.44-6,14.72-7.3,8.84-2.08,16.22,1,24.07-6.23,3.32-3.05,2.75-9.44,5.33-13.23,1.49-2.18,12.61-20.1,12.52-21.25C179.93,303,163.18,311,158.14,305.91Z"/><path class="cls-9" d="M158.62,305.44c-1.62-1.48-1.67-3.93-3.3-5.23-2.71-2.15-19.41-7.46-22.84-7-3,.44-6.33,2.6-9.38,1-2-1.05-2.09-3.2-3.49-4.75-6-6.64-18.41-11.62-27.48-10.57-3.37.38-25,19.89-29.85,22.22-1.8.87-9.34,1.5-11.46,1.68-4.48.37-15.3-3.31-18.75-5.63-2.22-1.49-3.3-4-5.74-5.28s-5.64-.85-8.11-2.44c-1.47-.95-1.48-3.13-2.85-3.89-2.15-1.2-4.87-.95-7.11-2.05C5.7,282.31,3.2,277.51,0,276.7v81c.28,0,.56-.1.84-.13,4.56-.54,8,2.67,12.33,3,6.31.5,13.87-.71,20.16-1.5,4.11-.52,6.58-4.28,10.44-5,2.57-.47,5.12.81,7.74.63,3.62-.25,7.16-1.87,10.79-2.25,9-.92,17.38-.14,26.32.55,9.51.72,18.84-2.62,28.17-3.32,2.32-.17,4.51,1.47,6.77.94,5.18-1.23,9.53-5.16,14.83-6.17,8.87-1.7,16.21,1.06,24.16-5.11,3.37-2.62,2.9-8.2,5.53-11.47,1.53-1.88,12.92-17.36,12.84-18.36C180.45,303.21,163.58,310,158.62,305.44Z"/><path class="cls-10" d="M400,360.32c-2.69.3-5.4.58-8.24.64-6.21.11-11.32-1.13-17.26-1.47-4.07-.23-9.63.43-13.81.56-8.53.26-20.7,4.8-29.68,4.72s-19.1-2.6-28.23-1.93c-3.45.25-6.35,1.46-9.63,2-11.52,1.95-23.44,2.65-34.78-.08-2.43-.58-19.72-.09-20.68,1.17a.64.64,0,0,0-.05.71c.59,1.52,4.1,2.09,6,3,4.65,2.2,6.84,5.83,11.41,8,2,.94,5,1,7.29,1.74,3.42,1,5.43,2.65,8.09,4.11l.9,1.06c5.47,6.21,20.59,5.75,30.46,3.65,2.12-.45,3.42-2,5.82-2.06,2.21-.09,4.12.7,6.32.73,2.41,0,3.57-1.05,5.73-1.23,2.34-.19,8.11.46,10.48.72,2.78.29,2.17,3.23,5.45,3.05,2.47-.14,5.95-3,9-3.37,4.52-.61,4,2.52,7.32,2.58,4.57.08,9.38-2.1,14.67-1.4,4.24.56,5.27,3.51,8.89,3.84,4.73.44,6.39-4,12.53-1.63,3.31,1.28,6.43,7.38,10.28,7.25a11.93,11.93,0,0,0,1.71-.21Z"/><path class="cls-11" d="M400,312.52A6,6,0,0,0,398,312c-3.85-.24-7,10.92-10.29,13.26-6.13,4.34-7.79-3.79-12.52-3-3.62.61-4.65,6-8.89,7-5.3,1.28-10.11-2.72-14.68-2.57-3.33.12-2.79,5.85-7.31,4.73-3-.75-6.51-5.91-9-6.17-3.29-.34-2.67,5-5.45,5.58-2.37.47-8.15,1.66-10.48,1.31-2.16-.32-3.33-2.3-5.74-2.25-2.19,0-4.11,1.5-6.31,1.35-2.4-.16-3.71-2.95-5.82-3.78-9.88-3.84-25-4.69-30.46,6.67l-.9,1.94c-2.67,2.69-4.67,5.65-8.09,7.54-2.31,1.27-5.3,1.45-7.29,3.17-4.57,4-6.76,10.6-11.42,14.63-1.94,1.67-5.44,2.71-6,5.49a2,2,0,0,0,0,1.31c1,2.3,18.26,3.2,20.69,2.13,11.34-5,23.26-3.71,34.78-.13,3.28,1,6.18,3.22,9.62,3.68,9.14,1.23,19.13-3.36,28.24-3.52s21.15,8.17,29.68,8.64c4.18.23,9.74,1.44,13.81,1,5.94-.62,11-2.89,17.25-2.69a50.37,50.37,0,0,1,8.59,1.24Z"/><path class="cls-12" d="M150.52,387.5c-2.59-.62-5.26-.14-7.87-.53-2.33-.34-4.14-1.92-6.43-2.24-7.82-1.09-15.63-1.75-23.39-2.63-2.93-.33-5.91.61-8.81.09-5.89-1.06-11.56-6.69-17.24-8.57-9.09-3-19.83-2.54-28.93-5.13C51.4,366.66,38.32,361,32.4,357.66c-2.8-1.56-3.77-4.31-6.16-6.23-1.91-1.54-4.91-1.44-7.06-2.66-3.32-1.87-5.67-6.38-9.86-6.61-4.5-.25-6.13,3.08-9.32,4.78V400H177.17c1.59-.7,2.59-1.6,2.63-2.76C180,391.66,155.05,388.59,150.52,387.5Z"/></g></g></g></svg>