<svg xmlns="http://www.w3.org/2000/svg" viewBox="0 0 600 600.33"><defs><style>.cls-1{fill:#39556b;}.cls-2{fill:#c6dde5;}.cls-3{fill:#fff;}.cls-3,.cls-4,.cls-5,.cls-6{fill-rule:evenodd;}.cls-4{fill:#90b9cb;}.cls-5{fill:#152b3d;}.cls-6{fill:#1d2b36;}</style></defs><g id="Layer_2" data-name="Layer 2"><g id="Layer_1-2" data-name="Layer 1"><rect class="cls-1" width="600" height="600.17"/><path class="cls-2" d="M380,174.6a3.4,3.4,0,0,0-.63,0,6.88,6.88,0,0,1-.9,0c-1.35-.08-2.52.64-2.63,1.58s.92,1.77,2.26,1.84h.33a3.12,3.12,0,0,0,2.83-.54c1.07-1,.56-1.7.44-1.89A2.26,2.26,0,0,0,380,174.6ZM378.42,65a9.41,9.41,0,0,0,3-2.23c2.37-2.32,1.61-5.54-1.69-7.2s-7.89-1.12-10.25,1.19l-.12.12-.52.31c-3.07,1.85-3.42,5.11-.78,7.26A9.64,9.64,0,0,0,378.42,65ZM287.84,69l0,.06.3.2C288.09,69.14,287.84,69,287.84,69Zm106.06,49.1c-.1,1,.91,1.77,2.26,1.85s2.52-.64,2.62-1.59a4.62,4.62,0,0,0-.16-2.68,2.79,2.79,0,0,0-3.1-1.08c-1.28.3-2,1.28-1.54,2.18C394.19,117.18,394,117.6,393.9,118.06Zm-55.7,40.32a9.78,9.78,0,0,0,9.87.37c3.14-1.8,3.61-5.05,1.05-7.25a23,23,0,0,0-2.08-1.3,4.57,4.57,0,0,0-1.71-2.68A9.66,9.66,0,0,0,335,147a5.85,5.85,0,0,0-3,3.76,4.64,4.64,0,0,0,.94,3.83C333.81,155.81,337.49,158,338.2,158.38ZM340,79.23a6.44,6.44,0,0,0,6.9.36,6.59,6.59,0,0,0,1.46-1,5.27,5.27,0,0,0,.83-1.26c1-1.77-.3-3.76-2.82-4.44s-5.09.13-6.17,1.74A2.73,2.73,0,0,0,340,79.23Zm-2.85-36.51a3.42,3.42,0,0,0,1.35-.16,12.29,12.29,0,0,0,1.09-.63,1.4,1.4,0,0,0,.26-2.43,3.21,3.21,0,0,0-3-.41,3.36,3.36,0,0,0-.63.13c-1.23.39-1.79,1.41-1.23,2.27A2.57,2.57,0,0,0,337.14,42.72Zm70.1-40.41a2.58,2.58,0,0,0,1.64-.76A1.42,1.42,0,0,0,409.61,0h-5.3a1.2,1.2,0,0,0-.17.75C404.16.92,404.68,2.63,407.24,2.31ZM508.18,98l.07,0,.17-.07c3.52-1.41,4.76-4.55,2.75-7s-6.5-3.33-10-1.93a8.67,8.67,0,0,0-2.55,1.26c-3.07,1.85-3.42,5.11-.78,7.26A9.66,9.66,0,0,0,508.18,98ZM282.05,78.12c4.7.27,6.3-1.54,7-2.22a4.08,4.08,0,0,0,1.34-3c0-.81-2.25-3.65-2.48-3.93a9.71,9.71,0,0,0-10.06-.34,4.52,4.52,0,0,0-2.52,4.37C275.34,75.68,278.24,77.9,282.05,78.12Zm212.29,64.1a8.33,8.33,0,0,0,1.41,1.47,6.43,6.43,0,0,0,6.91.36c2-1.23,2.28-3.41.52-4.84a4.31,4.31,0,0,1-.8-1.05,8.22,8.22,0,0,0-2-1.95,6.46,6.46,0,0,0-6.93.06,2.78,2.78,0,0,0,.08,4.86C494,141.46,494.06,141.86,494.34,142.22ZM562.09,78a1.32,1.32,0,0,0,.39,1.79,3.23,3.23,0,0,0,3.46.18,2.11,2.11,0,0,0,1-1.28,5.11,5.11,0,0,0-.45-2.79,2.86,2.86,0,0,0-3.17-1c-1.26.34-1.88,1.34-1.39,2.22A3.84,3.84,0,0,1,562.09,78ZM550,26.91A6.15,6.15,0,0,0,553.28,28a7.18,7.18,0,0,0,4.25-1.1c2.05-1.23,2.28-3.4.52-4.84a4.33,4.33,0,0,0-.54-.38A5.39,5.39,0,0,0,553.8,20c-2.69-.18-5.09,1.2-5.35,3.09a4.56,4.56,0,0,0,.24,2.34A3.82,3.82,0,0,0,550,26.91ZM456.24,66a6.46,6.46,0,0,0,6.72.25,2.94,2.94,0,0,0,1.63-3.18,2.72,2.72,0,0,0-.91-2.08,6.33,6.33,0,0,0-6.83-.79c-2.46,1.23-2.43,2.48-2.4,3.17S456,65.79,456.24,66Zm-41.59,92.24a9.78,9.78,0,0,0,3.41-.24,9.55,9.55,0,0,0,1.93-.86c2.16-1.14,2.59-3.3,1-4.81a6.33,6.33,0,0,0-6.27-1c-2.4.12-4.37,1.45-4.56,3.17C409.93,156.47,412,158.13,414.65,158.27ZM482.93,20.93a3.21,3.21,0,0,0,3.45.18,1.4,1.4,0,0,0,.26-2.42h0a2.45,2.45,0,0,0-2.52-1.34c-1.35.06-2.39.87-2.31,1.82a2.51,2.51,0,0,0,.13.73C482,20.08,482.07,20.23,482.93,20.93ZM456.28,66.08l0,0a1.13,1.13,0,0,1-.18-.12Zm135,266.56c-9.82,1.9-17.26,15.24-29.56,17.64-5.3,1-9-2.07-14.25-1.81-23.07,1.18-55.64,6.58-71.16,20.45l-2.52.85c-9.47-6.18-6.38-18.1-12.35-26-3.09-4.07-40.69-29.37-46.46-29.52-11.56-.3-12.77,8.68-21.19,11.66-6.52,2.32-13.43-.92-19.77,1.13-7,2.26-7.71,7.88-13.45,10.86-13.15,6.83-29.65,11.32-42.52,18.24-5.36,2.88-5.77,7.81-10.38,10.43-5.5,3.12-14.57,2.68-20.24,5.76-3.17,1.71-6.84,5.53-11.3,5.42-3.9-.1-36.27-3.66-39.53-4.59-5.22-1.49-6.53-5.12-10.9-7.22-6.3-3-28.74-8.12-35.76-8.45-7.47-.34-13.81,5.87-20.62,5.37-2.38-.17-4-2.64-6.13-3.28a265.49,265.49,0,0,0-32.52-6.91c-3.85-.6-8.32,6-11.94,4.3C107.22,351.56,93,340,83.35,336.07c-8.82-3.55-20.7-4.32-30.06-7.31-6.83-2.19-16.35-9.45-24.56-8.53-3.92.44-7.66,6.13-11.43,7.66C12.1,330,6.07,331.09,0,332.28v197.1c.5.06,1,.1,1.51.15,12,1.34,25,2.92,37.14,2.68,11.51-.23,22-2,33.58-.77l19.63,1.32c24.15,1.47,21.69-27.5,47.05-26.69,20.37.65,41.73,5.72,61.89,5.31,8.49-.17,16.12-3.64,24.53-4.27,18.67-1.41,41.71-1.79,60.53-1.93,24.93-.17,49.57,2.36,74.68,1.22,24.24-1.09,49.16-8.59,73.18-8.95,28.48-.43,59.46,6.55,88.83,6.76,21.72.15,40.34-8.89,61.59-10.36a80.3,80.3,0,0,1,14.59.58V333.81A13,13,0,0,0,591.31,332.64ZM285.89,192a2.9,2.9,0,0,0-3.21.92,4,4,0,0,0-.7,2.29,2.89,2.89,0,0,0,.91,1.89c.5.52,1.27,1,2.2,1.81a3.21,3.21,0,0,0,3.45.18,1.39,1.39,0,0,0,.26-2.42c-.42-.35-.81-.64-1.15-.9s-.68-.44-.78-.69.1-.45.33-.83C287.72,193.36,287.13,192.35,285.89,192ZM80.24,60.25a10.73,10.73,0,0,0,1.46.33,2.86,2.86,0,0,0,2-.59,1.28,1.28,0,0,0,.44-1.74,4.86,4.86,0,0,0-1-.93,3.21,3.21,0,0,0-3.45-.18,2.23,2.23,0,0,0-.44.34,2,2,0,0,0-.48.54C78.37,58.9,79,59.9,80.24,60.25ZM65.35,132.6a1.22,1.22,0,0,0,.19,1.3,2.3,2.3,0,0,0,1.2.77,3.34,3.34,0,0,0,1.71.06c.14,0,.73-.25,1.49-.46,1.26-.34,1.89-1.33,1.41-2.21A2.65,2.65,0,0,0,68.8,131a3.22,3.22,0,0,0-2,.39C65.63,132,65.38,132.52,65.35,132.6Zm79.72,70.7a4.93,4.93,0,0,0,2.34-.18c1.28-.3,2-1.27,1.55-2.17a2.62,2.62,0,0,0-2.58-1.17,3.32,3.32,0,0,0-2.79.2,1.4,1.4,0,0,0-.26,2.42A4,4,0,0,0,145.07,203.3Zm15.05-30.21c.92-.43,1.11-.7,1.24-.89a1.3,1.3,0,0,0,.26-.72,3.92,3.92,0,0,1,0-.64c.11-.94-.9-1.77-2.26-1.84s-2.52.64-2.62,1.59v.11a1.31,1.31,0,0,0,0,1.91A3.16,3.16,0,0,0,160.12,173.09ZM3.34,65.06l.31-.19.25-.07c1.24-.37,1.83-1.38,1.3-2.25A2.91,2.91,0,0,0,2,61.64a3.93,3.93,0,0,0-1.84.82c-.07,0-.09.09-.15.13v2.35A3.21,3.21,0,0,0,3.34,65.06Zm55-46.25A12.54,12.54,0,0,0,65,17.68c3.45-1.5,4.5-4.68,2.36-7.1a8.8,8.8,0,0,0-7.31-2.37,9.77,9.77,0,0,0-6.33,1.13c-3.07,1.86-3.42,5.11-.78,7.27A10,10,0,0,0,58.33,18.81ZM37.88,181.91a7.09,7.09,0,0,0,2.76-.19,18.37,18.37,0,0,0,2-.91c2.26-1,2.92-3.17,1.44-4.76A6.17,6.17,0,0,0,38,174.78a6.17,6.17,0,0,0-3.1.83c-2,1.24-2.28,3.41-.52,4.84A6.35,6.35,0,0,0,37.88,181.91Zm75.61-79.3a14.45,14.45,0,0,0,2.76-2c2.36-2.32,1.59-5.54-1.71-7.19s-7.67-1.14-10.07,1l-.56.34c-3.07,1.86-3.42,5.12-.77,7.27A9.62,9.62,0,0,0,113.49,102.61ZM261.66,26.37a3.34,3.34,0,0,0,1.64-2.08,2.55,2.55,0,0,0,.19-1.22c-.19-1.89-2.52-3.32-5.22-3.19-4.86.23-5.19,2.87-5.23,3.3,0,.22-.13,1.32,1.71,2.82A6.45,6.45,0,0,0,261.66,26.37ZM228.34,69.78c1.31-.23,2.11-1.17,1.78-2.09a5.9,5.9,0,0,0-.29-.65c.35-.87-.31-1.79-1.54-2.09a2.83,2.83,0,0,0-3.12,1c-.6,1.18-.37,1,.2,2.53A2.64,2.64,0,0,0,228.34,69.78Zm-13,62.76-.21.11-.09.06Zm-54-41.32a3.9,3.9,0,0,0,2.49-.68,1.39,1.39,0,0,0,.26-2.42,3,3,0,0,0-2.32-.56,3.64,3.64,0,0,0-.47-.14,2.74,2.74,0,0,0-3.06,1.14c-.38.86.27,1.77,1.46,2.09l-.18-.08.06,0,.14.06.06,0A5.64,5.64,0,0,0,161.34,91.22Zm100.29,44.07a1.57,1.57,0,0,0,.79,1.22,3,3,0,0,0,1.64.46,3.31,3.31,0,0,0,1.18-.18,8.66,8.66,0,0,0,1.61-.81,1.58,1.58,0,0,0,.84-1.18,3.2,3.2,0,0,1,.51-.34,1.42,1.42,0,0,0,.35-2.43,3.23,3.23,0,0,0-3.45-.24,17,17,0,0,0-2.87,2.22A1.82,1.82,0,0,0,261.63,135.29ZM159.75,90.67h-.05Zm4.7-69A14.66,14.66,0,0,1,166,20.8c2.27-1,2.93-3.15,1.47-4.75S163,14,160.73,15a23.12,23.12,0,0,0-2.66,1.42c-2,1.24-2.29,3.41-.52,4.85A6.42,6.42,0,0,0,164.45,21.65Zm50.68,111a22.88,22.88,0,0,0,2.5-2,3.74,3.74,0,0,0,.7-3.08,4.94,4.94,0,0,0-2.63-3.25,8.72,8.72,0,0,0-5.77-1.13,7.71,7.71,0,0,0-5.75,2.89c-1.51,1.84-1.28,4.22.8,5.93A9.67,9.67,0,0,0,215.13,132.65Zm-3.89.79a10.09,10.09,0,0,1-2-.07,7.25,7.25,0,0,1-1.41-.35A10,10,0,0,0,211.24,133.44Z"/><path class="cls-3" d="M268.71,198c1,3.35,3.42,6.51,5.64,9.12,1.54,1.8,2.5,3.72,4.52,5.15,2.44,1.74,5.73,2.33,8.58,2.93,2.18.47,4.38,1.63,6.63,1.67,1.91,0,3.83-.72,5.68-1.15,3.47-.81,6.81-1.27,10.18-2.56a31.43,31.43,0,0,0,7.73-5,18.67,18.67,0,0,0,2.12-3.49c.64-1.14,1.57-2.07,2.18-3.24,1.88-3.63,4.18-12.28,4.18-16.27,0-2-2.08-9-2.95-10.93-1-2.2-3-4-4.5-5.83a35.24,35.24,0,0,0-5.82-6c-7-5.09-16.93-6.27-25.07-3.66l-3.11.6c-1.45.61-2.53,1.8-3.84,2.67a41.8,41.8,0,0,0-5.26,3.6c-1.23,1.12-2.16,2.57-3.3,3.79a11.83,11.83,0,0,0-1.92,2.08,34.91,34.91,0,0,0-2.93,8.69,29.87,29.87,0,0,0-1.16,9.06c.13,1.61,1,2.94,1.48,4.46S268.29,196.57,268.71,198Z"/><path class="cls-4" d="M598.73,427.66c-13.63,7.75-26.17,14.78-31.37,16.54-4.73,1.59-24.51,2.76-30.07,3.09-11.76.69-40.14-6.1-49.18-10.36-5.85-2.75-8.66-7.39-15.08-9.72-6.62-2.4-14.78-1.57-21.25-4.5-3.88-1.75-3.9-5.76-7.5-7.16-5.64-2.2-12.78-1.74-18.65-3.78-7.59-2.62-15-13.61-25.06-12.85-22.87,1.73-25,20.74-41.77,27.54-6.59,2.68-15.06,1.75-21.3,4.42-11.6,5-14.11,13.4-29.94,14.67-7,.57-30.17-5-31.23-4.71-6.9,1.92-8.63,7.71-15.1,10.09-5,1.84-11.19.11-15.69,2.43-6.76,3.5-8,10.69-17.1,12.39-13.29,2.49-41.48-4.35-53.34-9.6-4.62-2.06-7.07-6-12.71-6.95-17.07-2.92-34.33,1.51-51.91-2.24-9-1.91-13.06-8.12-23-8.56s-18.29,20.11-27,24.42c-16.09,8-20.44-7-32.85-5.51-9.51,1.12-12.2,11.07-23.34,13a34.35,34.35,0,0,1-4.25.42v92c8.56.74,17.7,1.61,25,1.08,15.58-1.13,29-5.33,45.27-4.94,15.78.37,30,4.16,45.48,5,9,.46,17.28-2.26,26.11-2.22,19.64.09,38.26,3,58.41,2,8.27-.43,15.81-3.5,24.23-3.48,12.44,0,24.81,3.07,36.9,2.8,24.49-.55,49.36-5.21,73.41-6.78,8.61-.56,17.24,1.62,25.8.41,15.19-2.13,29.92-7.17,45.55-8.46,12-1,21,4.91,32.33,5.54,16.58.92,36.41-1.31,52.9-2.76,10.8-1,17.27-7.88,27.4-9.17,6.73-.86,13.44,1.49,20.29,1.16,9.51-.46,18.79-3.44,28.32-4.13,10.65-.77,21-.88,31.32-.67Z"/><path class="cls-1" d="M459.51,596.37c-2.48-1-9.45-1.68-10.93-3.69-.48-.64,3.38-.43,3.36-.57-.05-.71-8.91-2.65-10.14-3.91s3.28-1.55,2.84-2.15c-1.08-1.47-52.56-19.75-55.52-21.06-2.34-1,2.44-1.06,2.32-1.14-1.81-1.24-4.56-1.91-6.32-3.72-.44-.46.21-1.57-.16-2.08-.62-.84-2.31-1-2.76-1.89-.69-1.34,5.07-1.42,5.68-1.72s-4-1.91-4-2c0-.34,3-.35,2.53-1-1.94-2.63-9.1-2-11.6-4.6-1.29-1.33,3.52-1.36,3.5-1.4-.73-1-4.59-2.9-6-4.11.76.22,1.54.46,1.88.08a.33.33,0,0,0,.08-.3c.83.3,1.58.59,1.72.63,3.56,1.13,7.26.65,10.9.79.46,0,2.95.5,3.41.06,0,0-3.24-1.39-3.53-1.5-.77-.31-1.93-.71-3.18-1.19a3.75,3.75,0,0,0,2.24-.76c.44-.5-4.8-2.14-5.48-2.88s2.51.41,2.61.3-1.1-1.2-1-1.52c.37-.83,2.37.06,3-.3.48-.27.15-1.22.41-1.51.82-.92,3.39-.53,4.52-1.37,2.19-1.61-2.38-2.76-.82-3.33,2.26-.84,3.57-.77,5.61-2.28.26-.19,1.42-1.09,1.23-1.51-.68-1.51-5-.73-6-.15a1.75,1.75,0,0,1-.62.06c0,.07,0,.14-.07.24-.36.4-3.42.06-3.42-.15,0-.38,2.32-.1,3.49-.09-.16-.34-1.57-.37-1-1s2.53-.3,2.88-1.06-1.64-.61-1.37-1.22c.11-.24,1.84-.76,1.64-1.21s-1.69-.06-2.05-.45,1.33-1,1-1.37-1.25.23-1.51.31c-1.91.52-3.51,1.6-5.47,2-1.14.2-2.28.5-3.43.75,0,0-1.91.62-1.91.46,0-.58,2.65-1.64,3-2.43.22-.5-.33-.61,0-.63.65-.62,1.41-1.63,1.13-1.94s-1.29.79-1.5.91c-1.65.91-3.21,1.92-4.66,2.72-.1.06.24-2.86-1.09-2.12-.71.4-4.38,2.73-5.07,2-.21-.24,1.11-1,.41-1.36s-2.72.92-3.15.45c-.22-.25.45-.26.28-.45-.33-.37-2.2.53-2.6.6-1.12.21-5.53.34-6.16-1.06-.07-.15,4.13-.32,4.38-.6.11-.12-3.06-2.68-2.6-3.19s1.5.31,1.5.31a4.74,4.74,0,0,1-1.09-.91c-.37-.54-2-3.2-1.37-3.94.26-.3,1.72,1.27,2.19.75s-.58-1.33-.82-1.51a12.36,12.36,0,0,1-3.43-5.31c-.09-.31-.31-3.33-.27-3.33.87,0,4.69,3,5.75,1.82.49-.54-1.13-.86-.41-1.06.45-.13,4.52.25,4.52.15,0-.86-2.75-.83-2.06-1.21,1.06-.58,2.81.44,3.84.6,2.24.36,5,1.16,6.57-.6.12-.14-3.6-1.18-2.88-2,1-1.15,3.71,1.19,4.52.3.06-.07-.55-1-.55-1.21a13.15,13.15,0,0,1,2.19.15c.2,0,1.49-.91,2.06-1.06s2.23.06,2.46-.46c.51-1.13-4.23.75-3.42-.15,1-1.15,4.58-.71,6-1.51.27-.15,1.29-1.61,1.1-1.82-.6-.67-2.76,1.8-3.42,1.06-.07-.08,1.9-1.84,1.64-2.12s-2.05.46-2.05.45c0-.64,1.23-1.21,1.5-1.82s-.38-.56-.14-1.36c.12-.4,1.19-2.48.82-2.88-.15-.17-3.09,2.15-3.42,2.42a12.35,12.35,0,0,1-3,1.52,6.47,6.47,0,0,1-1.5.3s2.73-1.51,2.05-2.27c-.32-.35-1.6.35-1.92,0-.13-.15,1.09-.92.69-1.36s-2.42,1-2.61.6c-.27-.62,1.73-2.63,1.24-3.18-.93-1-3.42,2.73-4,2.12-.25-.28.25-1.39,0-1.67s-3.63,2.77-4.11,3,.42-1.2,0-1.36c-1-.38-3.61-.66-4.38-1.51-.42-.47,1.85-.39,2.05-.61s-2.15-1.76-1.91-2.28c.36-.8,2.32-.75,2.32-.75s-3.08-.37-2.46-1.06c.05-.07.21-.09.4-.08-1.32-.72-2.76-1.46-4.1-2.2-1.88-1-.82-2.88-1.78-3.94s-1.63-4.53-1.23-4.09a5.9,5.9,0,0,0,2.33-.3c.37-.42-.6-1.55-.82-1.67-1.12-.62-.09-1.1-.14-1.21a12.55,12.55,0,0,1-.82-2.58c.25-.28,2.88,1,3.28,1.06a25.54,25.54,0,0,0,4.25.3h2.19s-2.79-2.52-1.92-3.48c.66-.73,2.74.6,2.74.6s-.88-.66-.41-.45c.86.38,3,1.45,4,.91,1.21-.67-1.54-3.15-1.1-3.64.83-.91,2.49,1.19,3,.61.19-.22-1.13-1.25-1.24-1.37-1.61-1.78-1.36-2.22-3.56-3-.67-.25-2.35-1.51-1.64-1.51.32,0,1,.78,1.37.91,1.77.65,4.39-1.37,5.48-2.58.71-.79-3.47,1.15-3,.15.22-.49,1.28-.8,1.65-1.21.51-.57,2.69-4.75,2.19-5.31-.34-.37-1.74.89-2.06,1.07-1.95,1.07-3.67,3.17-5.75,3.94a22.49,22.49,0,0,1-4.16.6c.11-.48-.93-1.13-1.17-1.67s1.5-.9,1.5-.9a2.48,2.48,0,0,1-1.09-.46c-.19-.21.68-.6.41-.91-1.48-1.64-4.53,2.26-6,.61-.57-.63-.32-5.25.28-5.91.39-.44,2.49,1.33,2.87.91,0,0-1.79-1.84-1.91-2.13s.72,0,.95-.3c.44-.48-.62-1.18-.82-1.82-.05-.16-.71-3.18-.68-3.18.29,0,1.17,1.34,1.64,1.51,1.44.53,4.84,1,6-.3.6-.65-1.37-2.11-1.36-2.12s2.53.62,2-.45c-.24-.54-1.61-.61-2-.61-.11,0-1.13-.06-1-.15,2.32-1.29,5.24-.65,7.39-3,.35-.4,1.74-1.6,1.51-2.13s-4.5-.15-4.52-.15c-.28,0-4.25.65-4.25.15s.74,0,1.1-.15,4.11-1.66,3.56-2.27c-1-1.14-4.59,1.48-6.16.6a16.51,16.51,0,0,1-3.84-3.33,4.3,4.3,0,0,1-.54-1.36s1.39,1.27,2.05.91-1.72-2-1.23-2.58c.34-.38,1.51.3,1.91-.15.26-.28-1.4-1.26-1.64-1.52-.84-.93.52-1.39-.27-2.27a11.58,11.58,0,0,1-1.23-2.43c.32-.35,1.43,1.14,1.91.61.64-.7-1.8-4-1.05-3.08.62-.84-.59-3.44-.86-4-.35-.76.72-.67.27-1.67-.21-.46-1.8-2.4-1.78-2.43.28-.3,1.59,1,1.92.31s-.38-1.86-.55-2.43c-.69-2.29-.91-3.73-2.47-5.45-.62-.7-.54-2.88-.54-2.88L353,396a56.35,56.35,0,0,1-4.68,6.76c-.44.48-3,2.11-2.47,2.73.28.3,3.43-1.05,3.43-.76,0,.14-1.15,1.56-1,1.67.5.27,2.81-.39,2.33,1.21-.16.53-.95.89-1.24,1.21s.5.48.41.76c-.28.94-2.39,1.91-3.14,2.12-.39.11-3.44,1.05-3.43,1.06,1.13,1.25,4.84-1,5.75,0,.66.73-2.14,3.39-1.91,3.64.39.44,1.44-.67,1.78-.3s-.77.78-.28,1.06c1.52.84,2.59.18,2.06,2-1.1,3.64-7.09,5.45-10,5.45a7.36,7.36,0,0,1-1.64-.18.54.54,0,0,1,.13.64c-.58,1.3-3.69-.08-4.65.45-1.29.72.87,1.62.27,2.28-1,1.12-4.41-.87-5.34.15-.18.2.55,1,.69,1.21.76,1.27,3.42,2.58,3.42,2.58a14.3,14.3,0,0,1-1.5.15c-.45,0-2.7-.36-3,0-.5.56,1.63,1.06.41,1.51-.29.11-3-.08-2.6.76,1.36,3,7.51,2.12,9.86,2.12a4,4,0,0,0,2.33-.3c.36-.27,1.42-.88,1.23-.45-.62,1.37-3.15,3-3.15,3s1.23-.46,1.23,0-2.8,1-2.32,1.51,3.63-.53,4.24-.76c.43-.15,1.23-1.1,1.23-.6,0,.72-2.16,1.42-1.78,2.27.29.65,3.38-.81,3.84-1.06,1.15-.64-.26,1.23-.14,1.36.52.58,2.86-1.68,3.56-.9.49.53-1.38,2.1-1.1,2.42s1.24-.53,1.51-.61c.62-.17,4.24-2.27,4.52-2,.53.6,1.24,5.14.55,5.92a4.9,4.9,0,0,1-2.06,1.06,11.87,11.87,0,0,0-1.37.15,3.34,3.34,0,0,1-.82,1.06,29.37,29.37,0,0,1-3.29,1.36s2.21-.19,1.92.46c-.88,2-5.27-.22-6.16.76-.29.32,0,1.11-1,.75-1.36-.5-2.84-3.33-4.24-3.33-.51,0,.64,1.67.14,1.67a8.09,8.09,0,0,1-2.6-.61c-.38-.14-1.1-.89-1.1-.45s1.71.88.82,1.21c-1.21.45-3.45-.47-4.52-1.06-.23-.13-1.41-1-1.64-.76-.76.84.62,3.67-.68,4.39-.69.38-3-.2-3.43.31s-.37,1.06-1.64,1.06c-.66,0,.07,1.35-.14,1.82s-.92.49-1.62.55l-.17-.31a28.58,28.58,0,0,1-.46-3.92s-.55,1.81-.19,1.9c-.06.76-.36,2.31-.36,2.31l-.12.3a.34.34,0,0,0-.09.08s0,0,0,.07a78,78,0,0,1-3.72,8.76c-.37.65-2.53,2.87-2.06,3.71.22.41,2.86-1.43,2.86-1,0,.2-1,2.13-.8,2.27.42.38,2.35-.53,1.94,1.65-.13.73-.79,1.22-1,1.65s.42.66.35,1c-.24,1.27-2,2.6-2.64,2.89-.32.14-2.87,1.43-2.86,1.44.94,1.7,4.05-1.37,4.81,0,.55,1-1.79,4.61-1.6,5,.33.59,1.2-.92,1.48-.42s-.64,1.08-.22,1.45c1.26,1.14,2.16.25,1.71,2.68a8.31,8.31,0,0,1-1.29,3.17c-.88-.12-1.74-.19-2.29.41s0,1,.71,1.4a9.25,9.25,0,0,1-5.49,2.46,3.7,3.7,0,0,1-1.36-.26,1.18,1.18,0,0,1,.11.87c-.5,1.78-3.09-.1-3.9.62-.52.47-.37,1-.13,1.52a8.17,8.17,0,0,0-2.63.41,5.89,5.89,0,0,1-1.51.2c0-.27,0-.55-.08-.83.61-.19,1.23-.49,1-1.18a1.77,1.77,0,0,0-1.26-1c-.09-.61-.17-1.22-.27-1.82a1.14,1.14,0,0,0,.86-.44c.43-.84-.64-1.75-1.39-2.45a32.33,32.33,0,0,1-.36-7.38,18.4,18.4,0,0,0,2.46.54,4.77,4.77,0,0,0,1,.21c.14-.13-.83-1-.74-1.08.63-.31,2.41.68,3,.15.18-.18-.89-.8-.3-1.09s2.66.59,3,0c.16-.32-.32-.54-.45-.72a26.79,26.79,0,0,1-1.78-2.46c-.08-.16-.71-.76-.59-.87s1.86.88,2.15.94a9.66,9.66,0,0,0,4.08-.22c.28-.06,2.81-.6,2.67-.86s-.69-.17-.89-.22c-.91-.22-2.14.08-2.82-.58-.13-.12.43-.14.45-.14a2.32,2.32,0,0,0,1-.66c.07-.13-.18-.33-.07-.43.49-.48,2-.13,2.52-.65.18-.17-.65-.6-.52-.87s1.8-1.14,1.56-1.37a19.5,19.5,0,0,0-2,.79c-1.7.42-4.32,1.08-5.94.29-.31-.15-.92.12-1.18-.14s1.71-.05,1.48-.51a12.21,12.21,0,0,0-1.26-.43c-.1-.05-.65-.35-.37-.44,1-.33,2.27-.2,3.19-.79.27-.18.85-.69.59-.94s-1.92.07-2.22.14c-1.35.33-4.48.67-5.87.22a7.53,7.53,0,0,1-2.87-1.32,60.74,60.74,0,0,1-.16-7.91,4.78,4.78,0,0,0,1.1.62,23.15,23.15,0,0,1,2.75.58c.22.09,1.38.75,1.63.51s-1.42-.94-1-1.16,2.2.46,2.52.14-1.26-1.23-1.11-1.37,1.05-.09,1.33-.14a24.72,24.72,0,0,0,3-.73,5.62,5.62,0,0,0,2-1.16,2.83,2.83,0,0,1,.67-.36s-.79.08-1.19.08a7.68,7.68,0,0,1-2.67-.08c-.46-.22.79-.07.89-.29s-1-.87-1.11-1.08.71-.12.82-.15c.31-.07,2.11-1.19,1.93-1.37s-1.68.23-1.93.29a7.78,7.78,0,0,1-4.08-.58c-1.69-.55,1.22-.43,1.11-.65-.23-.45-1.55-.5-2-.65s-.76-.66-1-.94.68,0,.81-.29a3.68,3.68,0,0,0,.15-1.45s-1,.76-1.33.44c-.16-.16.59-.29.59-.29s-.79-.21-1.19-.29a6.49,6.49,0,0,1-1.16-.42c.06-.69.11-1.4.14-2.14.51-.13.92-.24.8-.48s-.45-.51-.76-.93c0-.27,0-.54,0-.81.57.17,1.58.54,1.27-.07-.18-.35-.78-1.16-1.28-2q0-1.1-.06-2.22c.62.2,1.53.85,1.93.45s-.7-1.88-.52-2.24,1.15.11,1.41-.15c.54-.52-1.12-1.8-1.11-1.8.15-.15.77.33,1,.14s-.8-.92-.89-1a8.92,8.92,0,0,1-1.71-2.9c-.2-.79-.36-1.89-.61-2.83-.11-2.08-.19-10.34-.19-12l-1.05,4.86c-.21.91-.58,2-.67,2.29a22.2,22.2,0,0,1-6.17,9.66c-.41.41,1.14.6.67,1.05-.28.28-5.85.46-5.22,1.69.37.73,2.64.34,2.14,1.31-.11.21-3.27,1.35-2.28,1.83,1.88.91,4.31,0,5.9-.78.67-.33.91.73,1.61.39.25-.12,1.84-1.21,2.14-.92.72.71-1.07,2.36-.4,3a.58.58,0,0,0,.18.11c-.17,1.38-.26,2.8-.31,4.25-1.39,2-4.36,2.19-6.3,2.82-.95.31.91,1.59.8,1.7-.5.49-2.88.49-3.75.91-.49.24-.39,1.17-.94,1.44-1,.47-2.26-.52-3.08-.78s-.68.26-1.47.65c-1.45.71-6.35-1.53-4.69,1.7a1.89,1.89,0,0,0,.27.38c-1.5-.73-3-1.6-3.55-2.72s.53-1.17.88-1.51c0,0-1.43-1.42-1.1-2.38s1.45-.77,2-1.3c.21-.2-1.6-1.24-.89-1.94a8.48,8.48,0,0,1,1.45-.06c-.08,0-1.16-.14-1.22-.16a20.69,20.69,0,0,1-4.43-1.35c.06-.7.13-1.41.22-2.1.37-2.9.58-5.83.68-8.78,2.09.44,4.86,1,5.52,1a30.33,30.33,0,0,0,8.86-1.29,11,11,0,0,0,1.33-.65s-4.54.25-6.65-.44a3.58,3.58,0,0,1-.88-.43c-.74-.36,1-.82.22-1.08s-1.92-.14-2.44-.64c-.7-.69,1.28-1.38,1.55-1.52,2-1,3-2,4.21-2.59l.89-.43c.6-.29,2.91-1.85,2.22-1.51s-5.48-1.17-5.77-1.73,1.22-.76,1.11-.86c-.71-.7-2.58-.4-3.54-.87-1.68-.82-.63-1.69-1.11-2.16-1.39-1.35-3.07-.52-5.85-2.23-.06-1.05-.11-2.11-.17-3.17a28.25,28.25,0,0,0,3.8-1.51c.44-.85-1.95-2.52-2.43-3.46-.38-.72,2.35-.16,1.77-1.29-.42-.82-2-.88-2.44-1.73a4.71,4.71,0,0,1,0-1.3c.05-.05.15,0,.22,0,4.34,0,.58-2.2.89-2.81.64-1.24,3.1-1.51,2.66-1.51-1.62,0-4-1.58-5.1-3v-.24c0-1.67.06-3.44.12-5.25a32.5,32.5,0,0,0,7-1.88s-2.46-2.56-1.55-3.45c.26-.25,1.95-.1,1.55-.87s-3.24-2.89-2.66-3.45c.74-.72,3-.28,2.22-1.73-.52-1-2-.79-2-2.16,0-.55,2.39.17,1.55-.65s-6.49-3-7.72-4.35a2.4,2.4,0,0,0-.23-.48V374a.06.06,0,0,0,0,0c-.09-.12-.17-.17-.25-.13s-.14-1.58-.14-1.58c-.86.47-1.14,5.15-1.63,6.12s-2.89,3.84-2.89,4.54c0,.23,2.26-.51,1.78.43-1.3,2.53-4.39.17-5.54,1.29-.13.13.33,1,.44,1.08a9.6,9.6,0,0,0,6.38,2.36c-.07,1.14-.11,2.28-.14,3.42-.72.66-1.36,1.14-1.36,1.14a6,6,0,0,1,1.34,0c0,.35,0,.7,0,1.05-1.07.4-3.13.48-3.55.89s2,1.34,1.77,1.73c-.56,1.09-5.54,2.26-5.54,2.59s2.36.69,1.55,1.08c-1.56.76-4.66-.13-3.41.49a10.62,10.62,0,0,0,3.19.81c.16,0-1.52.22-.22.86.46.23,1.4.07,1.77.43.9.88-3,2.9-3.32,3.24s1.27.49.89.87c-1.12,1.09-2,.4-2,1.94,0,.07.06.17,0,.22-.49.47-6.62,1.29-7.53,1.29h-1.55l.44.22c.78.38,4.58.57,5.1,1.08.36.35-1.47.59-1.11,1.29.58,1.13,3.91-.29,4.65.44.55.53-1.81,1.25-1.33,1.73.66.63,3.69,0,4.66.43s-.73.59-.45.86c1.1,1.07,4-.55,5.94-1.75,0,1.26,0,2.52,0,3.79-1.95,1.95-4.61,3.58-5.7,3.58a11.12,11.12,0,0,0-2.21.43s2.81-.14,3.32.86c.35.67-2.09,1.83-2.43,2.16s1.09,1.52.22,1.95c-2.57,1.25-5.33,2.38-8,3.67-.4.19-1.33-.22-1.33.22s1.53,1.1.89,1.72c-.25.25-3,.22-3.55.22-.14,0,2.84,1.43,2.22,1.73-.27.13-4.67.63-3.77,1.51,1.56,1.52,6.56-.3,7.54.65.31.3,1.22.43,4.43.43H256s-2,.45-1.56.86c.77.75,4.08-1,4.82-1.28,0,0,0,0,0,0-.52.38-1.25.86-1.05,1.06,1,1,3-.88,4.68-2.15l-.06,7.68a2.76,2.76,0,0,1-.63.73,18.16,18.16,0,0,1-3.1,1.51c-.19.07-1.71.5-1.55.65.37.37,1.67-.09,2,.22s-2.7,1.34-2.88,1.51c-.58.57,2.1,3.42-2.66,5a44.38,44.38,0,0,0-5.54,1.94,4.36,4.36,0,0,1-1.33.22s1.53.66,1.11.86c-2.48,1.21-6.26-1-8-2.16-.17-.11-.86-.67-1.11-.43-1.78,1.73,2.37,2.93,1.77,4.1-.43.85-2.31-.34-2.66,0-.56.55,2.69,1.59,2.88,1.95.32.62-2.46.45-2.88.86s2.73,1.22,2.88,1.52c.32.63-2.26,1-1.33,1.94s3.79-.19,4.65.65c.32.3-3.8,2.12-2.65,3.24.73.72,3.47-.51,4.21.21.48.48-1.67,1.78-.89,2.16,1.27.62,3.5-2,4.43-1.08s-2.86,3.91-1.55,5.19c.16.16,1.16-.92,1.33-1.08.69-.68,2.13-.57,2.88-1.3s1.61-1.79,2.44-2.59c.13-.13.42-1.09.66-.87.42.41-.47,1.83.22,2.17,1,.48,2.61-2.21,3.1-1.73s-.17,1.77.23,2.16,2.42-1.7,1.77.21a11.34,11.34,0,0,1-3.33,4.76,7.54,7.54,0,0,1-.88.64,25.8,25.8,0,0,0,3.1-1.08c.21-.1,1.35-1.06,1.55-.86.87.85-4.9,7.71-3.1,7.13a10,10,0,0,0,4.65-3v.65q0,3.15,0,6.32c-1.22.89-2.7.45-4.18,1.89-.4.39,1.06,1.12.67,1.51-.95.93-4.24.66-5.54,1.08-.66.22-.15,2.43-2,3-2.42.79-3-.49-3.76,1.08-.5,1-2.14,1.45-3.57,1.7a2.16,2.16,0,0,0-.46-.64s-.3.32-.72.8c-.72.07-1.23.08-1.23.08a5.6,5.6,0,0,1,.35.91l-.87,1c-2.12,0-5.78-2.5-6.35-3.62l-.45-.86a11.49,11.49,0,0,0,0,3c.26,1,2.22,2.16,2.22,2.16s-2.37-.5-3.1.22c-.5.48.36,1.23,1,1.89-1.52.94-4.52,2.56-6.15,1.76-1.95-.94-4.7-2-5.54-3.67-.5-1,.54-1.17.89-1.51,0,0-1.44-1.42-1.11-2.38s1.45-.76,2-1.29c.2-.2-1.61-1.25-.89-1.95a8.49,8.49,0,0,1,1.45-.05l-1.23-.16a21.13,21.13,0,0,1-4.42-1.36q.08-1,.21-2.1c.37-2.9.59-5.83.69-8.77,2.09.44,4.86,1,5.51,1a30.4,30.4,0,0,0,8.87-1.29,11,11,0,0,0,1.33-.65s-4.54.25-6.65-.43a5,5,0,0,1-.89-.43c-.73-.36,1-.83.22-1.08s-1.91-.14-2.43-.65c-.7-.68,1.27-1.38,1.55-1.51,2-1,3-2,4.21-2.6l.88-.43c.6-.29,2.91-1.85,2.22-1.51s-5.47-1.16-5.76-1.73,1.21-.76,1.11-.86c-.72-.7-2.59-.4-3.55-.87-1.67-.81-.63-1.69-1.11-2.16-1.38-1.35-3.06-.52-5.84-2.23-.06-1.05-.12-2.11-.17-3.16a29.87,29.87,0,0,0,3.8-1.52c.43-.84-2-2.52-2.44-3.46-.37-.72,2.36-.16,1.77-1.29-.42-.82-2-.88-2.43-1.73a4,4,0,0,1,0-1.3c.05-.05.14,0,.22,0,4.33,0,.57-2.2.89-2.8.63-1.25,3.1-1.52,2.65-1.52-1.61,0-4-1.58-5.09-3v-.24c0-1.66.06-3.44.11-5.25a32.89,32.89,0,0,0,7-1.87s-2.46-2.57-1.55-3.46c.25-.25,1.94-.1,1.55-.86s-3.24-2.89-2.66-3.46c.74-.72,3-.27,2.21-1.73-.51-1-2-.79-2-2.16,0-.55,2.39.17,1.55-.65s-6.48-3-7.71-4.35a3,3,0,0,0-.23-.47v-.06s0,0,0,.05-.17-.18-.25-.14-.13-1.58-.13-1.58c-.86.48-1.14,5.15-1.64,6.12s-2.88,3.84-2.88,4.54c0,.24,2.25-.5,1.77.43-1.3,2.53-4.39.18-5.54,1.3-.13.12.34,1,.45,1.08a9.62,9.62,0,0,0,6.37,2.36c-.06,1.13-.1,2.27-.13,3.42-.72.65-1.37,1.13-1.37,1.13a6.07,6.07,0,0,1,1.35,0c0,.35,0,.7,0,1.05-1.08.41-3.13.48-3.55.89s2,1.35,1.77,1.73c-.56,1.1-5.54,2.26-5.54,2.59s2.35.69,1.55,1.08c-1.56.76-4.67-.12-3.41.49a10.47,10.47,0,0,0,3.19.81c.15,0-1.53.23-.22.86.46.23,1.4.07,1.77.43.9.88-3,2.9-3.32,3.24s1.26.5.88.87c-1.12,1.09-2,.4-2,1.94,0,.07,0,.17,0,.22-.49.48-6.62,1.29-7.53,1.29h-1.55l.44.22c.77.38,4.58.58,5.09,1.08.36.35-1.46.6-1.1,1.3.58,1.13,3.91-.3,4.65.43.54.53-1.82,1.25-1.33,1.73.66.64,3.68,0,4.65.43s-.72.59-.44.86c1.09,1.07,4-.55,5.94-1.75,0,1.26,0,2.53,0,3.79-1.95,2-4.62,3.58-5.7,3.58a11.12,11.12,0,0,0-2.21.43s2.81-.13,3.32.87c.34.67-2.09,1.82-2.44,2.16s1.09,1.52.22,1.94c-2.56,1.25-5.32,2.38-8,3.67-.41.2-1.33-.22-1.33.22s1.52,1.1.88,1.73a16.4,16.4,0,0,1-3.54.21c-.15,0,2.83,1.43,2.21,1.73-.27.13-4.66.63-3.76,1.51,1.56,1.52,6.55-.3,7.53.65.31.31,1.23.43,4.43.43h1.33s-2,.46-1.55.87c.77.75,4.08-1,4.82-1.28h0c-.53.38-1.26.86-1.05,1.06,1,1,3-.87,4.68-2.15,0,2.56-.05,5.12-.07,7.68a3,3,0,0,1-.63.74,18.18,18.18,0,0,1-3.1,1.51c-.19.06-1.7.5-1.55.64.38.37,1.68-.09,2,.22s-2.71,1.34-2.89,1.51c-.57.57,2.11,3.42-2.65,5A44.87,44.87,0,0,0,201,499a4.36,4.36,0,0,1-1.33.22s1.53.66,1.11.87a5.1,5.1,0,0,1-3.69,0,4.9,4.9,0,0,0-1.09-.41,15.16,15.16,0,0,1-1.46-.7c-.17-.43,1-.91,1-.93-.78-.62-2.65-.32-3.46-1-.26-.21,1.94-.52,2.13-.54,1.27-.12,2.54-1.09,3.69-1.67a12.82,12.82,0,0,0,1.9-1.17c-.45-.36-3.19-.47-4.3-.51a2.59,2.59,0,0,0-.46,0h0s0,0,0,0a57.36,57.36,0,0,1-7.24-1.74c-.59-.22,0-1.47-.35-1.77s-3,0-3-.19c-.13-1.24,7-4.53,5.77-4.38-.55.07-7.83,1.89-7.63.95,0-.22-.66.13-.69-.09s2.64-.28,2.12-.7c-1.23-1-5.29-1.57-6.79-.65a5.36,5.36,0,0,1-3-.9,53.23,53.23,0,0,1-.34-6.64l.24-3.59c.12.12.22.23.26.26.67.54,1.12-1.16,1.21-1.27.38-.45,1.38.36,1.83-.18s-.39-1.82.44-2.33c2.59-1.6,5.81.91,8.14.68.18,0,.49.14.51.11.6-.71-1.93-1.88-1.28-2.66.18-.21.87.14,1,.23a29.72,29.72,0,0,0,7.49,2.54c1.88.42,2.08-1.24,3.35-1.8a6.36,6.36,0,0,1,2-.19s-3.21-.41-2.83-1.36,3,0,3.42-1-5.51-2.17-6.15-2.68c-1.29-1-5.6.65-7.06-1.61-.33-.5,1.85,0,1.85,0l-.54-.27c-1.66-.86-3.87-.86-5.24-2-.66-.52-4.36.4-5.43-.45-.15-.13,1.62-.32,1.82-.34a10.34,10.34,0,0,0,3.78-.86c.67-.42-.69-.3-.44-.94s4.18-.85,4.91-1.3-.64-.69-.28-1.12,1.56-.59,2.06-1.19a3.06,3.06,0,0,0,.24-1c-.32,0-1.69,1.63-1.87,1.49-.9-.72,1.09-2.79.19-3.13-1.67-.62-4,4.41-5.38,3.31-.44-.35.73-2.25.23-2.64s-2.18,1.86-2.65,2.06a31.65,31.65,0,0,1-4.5,1.85c-.09-2.46-.61-5.05-.09-7.31a11.74,11.74,0,0,0-.08-4.45l2.41.95c1.62.6.92-1.43,1.5-1.79,1.31-.81,5.39.5,6.32-.62,0,0-2-1.79-1.08-2.35s3.14.27,3.81-.53c.25-.3-3.17-1.13-3.49-1.3a12.55,12.55,0,0,1-3.07-2l-2-1.6s1.72.5,2.18-.05c.05-.06-2.82-1.73-2.56-2,.11-.13,3.51-.48,2.56-1.23-.46-.37-4.1-3.21-2-3.41.22,0,.5,0,.3-.35-.82-1.27-4.53-2.94-5.73-3.38a1.36,1.36,0,0,1-.51-.36q-.16-1.35-.3-2.67c-.12-1.09-.25-2.17-.38-3.24,0,0,0,0,0,0,.25.2.06.72.6.92,1.41.53,1.21-.93,1.58-1s4.3,3.34,4.9,1.82c.39-1-2.16-2.24-2.67-3-.35-.54,1.93-.17,1.22-1.27-1.72-2.64-6.8-4-7.28-8.63,0,0,.07-2.67-.92-.12s-2.21,5.49-3.78,6.89c.34,0,.58.15.39.37s-3.33.92-3.07,1.12c1.44,1.16,5.39-1.51,5.39-1.51l-2.18,3.33s1.6-.66,2.16-.21c.28.22-2.1,2.49-2,3,0,.17,2.11-.41,2.15-.38.46.37-2.11,1.3-1.68,1.64.81.64,2-.09,3.1-1,0,.47-.05.87-.05,1.19,0,1.05,0,2.11,0,3.17a12.36,12.36,0,0,1-3.69,3.09c-.72.32,1,.58.43.94-1.34.83-5.58,1-6.06,1.58-.23.27,1.93.42,2.07.45.33.07,1.54.57,1.43.84,0,.11,2.27.21,1.91.64-1.65,2-3.93,2.33-6.17,3.71-1.13.7-4,.23-4,.23a.62.62,0,0,1,.18.15c.59.91,3.19.15,3.61.79.13.19-2.79,1.5-3,1.77-.45.53,1.78.36,1.46,1.17s-5.07,2.51-4.94,2.61c1.34,1.07,7.63.39,8.87-.37a2.18,2.18,0,0,1,.5-.05c.32.25-1.58,1.49-1.85,1.65-1.86,1.15-5.41.81-6.8,2.47-.22.26,3.25,1,3.48,1.14.84.67-1.13,1.93-.6,2.35,1.91,1.52,7-2.9,8-3.57.13-.08.52-.62.79-.41.65.51-.66,2.9.21,3.59.48.39,2.12-2.17,2.27-2.35.93-1.11,1.42.49,1.7.16.13-.15.15,1.21.05,2.12-.18,1.88-.31,3.79-.4,5.71a10.48,10.48,0,0,1-1.34,1.84c-1.19.95-3.28,1.32-4.68,1.93-.27.12-.8.41-.8.41s1.54-.22,1.88.31-1.35,1.95-1.8,2.14c-1.4.61-3.46,2.2-5.19,1.82-1.07-.24-3.13-1-3.13-1s1.68.74,1.3,1.19-2.61-.3-3.35.16c-1.72,1.06-2.71,3.2-5.55,1.52-1-.58-2.57-1.69-3-2.82-.07-.2-.91-1.83-1.16-1.52-1.06,1.26,1.67,3.47,1.1,4.15-.74.89-4.35-.46-5,.33s1.94,1,1.05,2c-.66.78-3.41.12-3.9,1.37-.2.51,3.79-.43,3.47,1-.44,1.86-3.94,2.86-5.53,3.68a1.73,1.73,0,0,1-.26-.18c-.53-.51.33-.77-.17-1.26a6.44,6.44,0,0,1-.78-1.34c.2-.2.9.63,1.21.33s-.11-1.12-.67-1.71l0,0c-.32.31-.95-.93-.95-.93a10.59,10.59,0,0,1,1,.9c.4-.47-.37-1.91-.54-2.24s.46-.37.17-.93c-.13-.26-1.14-1.33-1.12-1.35.18-.17,1,.57,1.21.17s-.24-1-.35-1.34a6.2,6.2,0,0,0-1.55-3c-.4-.39-.35-1.6-.35-1.6l-.41,1.72a32.76,32.76,0,0,1-3,3.75c-.28.26-1.91,1.17-1.56,1.51.18.17,2.16-.58,2.16-.42s-.72.87-.6.93c.31.15,1.77-.22,1.46.67-.1.3-.59.5-.77.67s.31.27.26.43c-.18.52-1.51,1.06-2,1.17l-2.16.59c.71.69,3-.56,3.63,0,.41.41-1.35,1.88-1.21,2s.91-.37,1.12-.17-.48.44-.17.59c.95.47,1.63.1,1.29,1.1-.69,2-4.46,3-6.3,3a1.59,1.59,0,0,0-1,.25c-.37.72-2.32-.05-2.93.25-.81.4.55.9.17,1.26-.64.62-2.78-.48-3.36.09-.12.11.34.54.43.67a6.55,6.55,0,0,0,2.16,1.43s-.64.08-1,.08-1.7-.19-1.9,0,1,.6.26.85c-.19.06-1.88-.05-1.64.42.85,1.66,4.73,1.17,6.21,1.17a2.89,2.89,0,0,0,1.47-.16c.22-.15.9-.49.77-.26a6.51,6.51,0,0,1-2,1.69s.78-.26.78,0-1.77.55-1.47.84,2.29-.3,2.67-.42.78-.62.78-.34-1.36.79-1.12,1.26,2.13-.45,2.42-.59c.73-.35-.17.69-.09.76.33.32,1.81-.93,2.24-.5s-.87,1.17-.69,1.34.78-.29,1-.33c.39-.1,2.67-1.27,2.85-1.1.34.33.79,2.86.35,3.28a3.13,3.13,0,0,1-1.3.59,7.75,7.75,0,0,0-.86.09,2,2,0,0,1-.52.59,20,20,0,0,1-2.07.75s1.39-.1,1.21.26c-.56,1.08-3.33-.13-3.89.42-.18.18,0,.61-.6.42-.86-.28-1.79-1.85-2.68-1.85-.31,0,.41.92.09.92a6.13,6.13,0,0,1-1.64-.33c-.23-.08-.69-.5-.69-.26s1.08.49.52.68a4.91,4.91,0,0,1-2.85-.59c-.15-.07-.89-.57-1-.42-.48.47.39,2-.43,2.44-.43.21-1.87-.12-2.16.17s-.23.58-1,.58c-.42,0-.81.09-1.21.09h-.08v0c.59.24,1.33.65,1.2.9s-.71.29-1.2.33v.64a16.77,16.77,0,0,1,1.55.88s-.9.82-1.55,1.37v1.44a11.37,11.37,0,0,0,2.84-.28L113,498c.17.08.27.17.2.31h0a1.79,1.79,0,0,0-.37.45c-.72.61-2,1-2.53,1.5-.06.06,2.08,0,1.64.88a2,2,0,0,1-.25.37l-2.09,0h-.1v2a5.6,5.6,0,0,0,.73-.21l1.34-.08c.52.5-1.59,2.29-2.07,2.88v.2c.3.11,1.22.2,1.35.46.36.71-1.09,1.08-1.09,1.59,0,.1,2.06-.13,1.45,1.06a2.32,2.32,0,0,1-1.71,1.09v.65a1.16,1.16,0,0,1,.8.2c.41.4-.15.86-.8,1.24v87.75H459.18a33.84,33.84,0,0,0-2.41-3.1c-.12-.13-.71-.55-.47-.78.41-.39,5.69,1.72,6.68.79.28-.27-.81-.16-1.22-.23A11.89,11.89,0,0,1,459.51,596.37ZM117.34,499.69l-.16.19c-.12-.22-.14-.42,0-.56a2.16,2.16,0,0,1,.59-.29C117.88,499.17,117.39,499.62,117.34,499.69Zm6,35.34c-.3-.25-.71-.53-.71-.53s.63.06,1.44.06A3.5,3.5,0,0,0,123.33,535ZM129,523.67c.33.32-.57,1.36-.69,1.6s.24.62.09.92a4.32,4.32,0,0,1-1.73,1.44,11.32,11.32,0,0,1-1.21.42,9.38,9.38,0,0,0,1.38-.26c.7-.22,1.24-1.6,1.64-.42a6.25,6.25,0,0,1-.34,3.28c-.16.31-1.16.54-1.47.85-.14.14.25.47.09.58a1.85,1.85,0,0,1-.58.23,2.3,2.3,0,0,1-1-.46c-.62-.61,2.2-1.22,2-1.42s-1.72-.2-2.18-.35-3.55-4.91-3.81-5.66c-.55-1.62,5.51-.82,4.17-2.12a6.3,6.3,0,0,0-.55-.48c.43-.33.93-.67,1-.59s-.18.84,0,1,.58-.51.69-.51,1.2.59,1.55.26c.12-.12,1.07-2.5,1.38-2.19,1.44,1.4-1.18,3-1.81,3.62C127.47,523.56,128.92,523.6,129,523.67Zm.6-18c-.68.67-2.11.29-2.76.93-.15.15.88.17,1,.17.43,0,1.89-.35,2-.26.32.32-1.05,1.7-1.13,1.85s.66,2.25.44,2.36c-.72.35-2-.07-2.77.08-1,.21-2,.49-3.06.7-1.59-.76-4.28-.56-5.16-2.27-.36-.71,1.24-.15,1.45-.35.56-.54-1.25-1.91-1.45-2.3-.46-.89,2-.87,1.27-1.59a6.27,6.27,0,0,1-1.45-1.59c-.5-1,1.27-.54.91-1.59a6.1,6.1,0,0,0-.95-1.06l.25-.13c.16-.08,1.15-1.06,1.29-.92s-.29,1.29-.09,1.68,1.6-.12,1.9.17,1.56-1.68,1.9-1.35-1.13,1.59-.86,1.85.65-.29.77-.33c.94-.31,1.8-1.11,2.77-1.35.53-.13.2.28.43.51s.67-.94,1-.76c.17.08.24.57.35.67s1.17-1,1.55-.59-.25,1.18,0,1.43c0,0,.94-2,1-1.68C130.55,501,130.23,505,129.59,505.66Zm5.27-5.38c-.7-.35-.05-.61-.09-.68a6,6,0,0,1-.51-1.43c.15-.15,1.81.55,2.07.59a14.48,14.48,0,0,0,2,.16,3.84,3.84,0,0,0-.28.3c-.12.14.75.54.6.93-.48,1.21-3.45,1.56-4.28,2.55-.07.08,2.14,1,.61,1.71a1.25,1.25,0,0,0-.3-.77c-.63-.61-.46-1.57-1-2.69a1.24,1.24,0,0,1,0-.59s0,.77.26,1a4,4,0,0,0,1.47-.17C135.61,501,135,500.34,134.86,500.28Zm33.74,19.29c-2.19,2.79-7.47,3.92-4.79,4.51a6.32,6.32,0,0,0,4.7-1.16c0,1.48-.09,3-.13,4.44-.63.08-8.73-.32-9.64,1.16-.14.22,3.76,1.41,4.17,1.61s1.89,1.27,1.5,1.89c-.07.13-1.92.89-1.41,1.18s2.8.78,2,1.77a14.65,14.65,0,0,1-3.52,2.67,13.63,13.63,0,0,1-4.15-1.29c-.65-.38-1.34-1.86-1.82-1.3-.24.29.22,1.69,0,2.13-.38,1-2.95,1.78-5,2.09a12.38,12.38,0,0,1-2.28-1c-.39-.38,1.58.23,1.64.17s-.78-.5-.6-.84,1.49,0,1.9-.17.09-.68.26-.84c.52-.51,2.13-.3,2.85-.76,1.37-.9-1.5-1.53-.52-1.85,1.42-.46,2.25-.43,3.53-1.26.17-.11.9-.61.78-.85-.43-.83-3.14-.4-3.79-.08a1.13,1.13,0,0,1-.39,0s0,.08,0,.13a4.38,4.38,0,0,1-2.16-.09c0-.2,1.47,0,2.21,0-.11-.19-1-.21-.65-.54s1.59-.17,1.81-.59-1-.34-.86-.68c.07-.13,1.16-.42,1-.67s-1.07,0-1.29-.25.84-.53.6-.76-.79.13-1,.17c-1.2.29-2.21.89-3.45,1.09-.72.12-1.43.28-2.16.42a5.39,5.39,0,0,1-1.2.26c0-.32,1.67-.91,1.89-1.35.15-.28.09-.36,0-.35-.23.19-.44.32-.49.27s.31-.26.49-.27c.41-.35.89-.91.71-1.08s-.81.44-.94.51c-1,.5-2,1.07-2.94,1.51-.06,0,.15-1.59-.69-1.18-.45.22-2.76,1.52-3.19,1.1-.14-.14.69-.55.26-.76s-1.72.51-2,.25.28-.15.17-.25-1.38.29-1.64.34c-.7.11-3.48.18-3.88-.59,0-.09,2.6-.19,2.76-.34s-1.93-1.49-1.64-1.77.95.17.95.17a2.93,2.93,0,0,1-.69-.5c-.23-.3-1.29-1.78-.86-2.19.17-.17,1.08.71,1.38.42s-.36-.74-.52-.84a6.9,6.9,0,0,1-2.16-2.95,17.87,17.87,0,0,1-.17-1.85c.55,0,3,1.66,3.62,1,.31-.3-.71-.48-.25-.59.28-.07,2.84.14,2.84.09,0-.48-1.73-.46-1.29-.68.66-.32,1.77.25,2.42.34,1.41.2,3.13.64,4.14-.34.08-.07-2.27-.65-1.81-1.09.65-.64,2.34.66,2.85.17,0,0-.35-.58-.35-.68a9.76,9.76,0,0,1,1.38.09c.13,0,.94-.5,1.3-.59s1.4,0,1.55-.25c.32-.63-2.67.41-2.16-.09.66-.64,2.89-.4,3.8-.84.17-.08.81-.89.69-1-.38-.37-1.74,1-2.16.59,0,0,1.2-1,1-1.18s-1.3.26-1.3.25c0-.35.78-.67.95-1s-.24-.31-.08-.75c.07-.22.74-1.38.51-1.6a14.8,14.8,0,0,0-2.15,1.35,8.61,8.61,0,0,1-1.9.84,5,5,0,0,1-.95.16s1.72-.84,1.29-1.26c-.2-.19-1,.2-1.21,0s.69-.51.44-.76-1.53.57-1.64.34,1.08-1.46.77-1.76c-.58-.57-2.15,1.51-2.5,1.17-.16-.15.16-.77,0-.92s-2.29,1.53-2.59,1.68.27-.67,0-.76c-.65-.21-2.27-.36-2.76-.84-.27-.26,1.17-.21,1.29-.33s-.39-.36-.75-.67a25,25,0,0,0,5-.68c1.38-.37,4.06-1.38,4.06-1.38s-1,.51-.77.73a7.55,7.55,0,0,0,2.17-.21c2.19-.66,3.48-2.06,5.22-3.14.05,0,.75,1,1.75.65.52-.18,2.05-2.68,2.81-2.07s-2.57,4.8-1.79,5.42,2.19-1.14,3.11-.8c.44.17.54,1.18.81,1.4s3.94-1.69,3.08.52a12.42,12.42,0,0,1-4.79,5.71c-.85.43-4.16.76-4.58,1.26s1.76,1,1.52,1.66c-.16.42-5.08.76-4.15,2.21.6.92,5.45.1,6.36-.3,1.36-.59,3.05-1.23,4.53-1.75,1.12-.39,1,.92,2.06.45.83-.36,2.41-2.19,3.64-2.76C168.67,516.94,168.64,518.25,168.6,519.57Zm-28.82-22.91s.56.3.86.42l.4.16-.16.08c-.47.25-.95.5-1.38.76-.33-.4-.58-.83-.33-1.08s1.55.23,1.71.32Zm2.67-1.1c.28-.27.71-.06,1.11.15a8.06,8.06,0,0,1-.77.56C142.55,496,142.34,495.67,142.45,495.56ZM169,483.44l-.43.51a28.58,28.58,0,0,1-2.78,2.4c-.74,1.88-6.23.14-7.26,1.37a12.27,12.27,0,0,1,1.8,1.13c0,.36-4.29,1.15-4.75,1.28-2.48.75-4.06,1.93-6.44,2.76-.68.24,1.17.07.74.59-1,1.15-4.19-.27-5.5.53-.78.49,0,.75-.53,1.37h0c-.15-.12-.28-.21-.3-.24-1-1-.86-1.23-2.25-1.68-.42-.14-1.48-.84-1-.84.2,0,.65.44.86.5,1.11.37,2.76-.76,3.45-1.43.45-.43-2.18.64-1.9.09.14-.27.8-.45,1-.68s1.7-2.63,1.38-2.94-1.09.49-1.3.59c-1.23.6-2.32,1.76-3.62,2.19a6.23,6.23,0,0,1-3.37-.59c-.16-.32.95-.51.95-.51a1.74,1.74,0,0,1-.69-.25c-.12-.11.44-.33.26-.5-.93-.92-2.85,1.25-3.8.33-.36-.35-.2-2.91.18-3.28s1.57.74,1.81.51c0,0-1.13-1-1.21-1.18s.46,0,.6-.17-.39-.65-.51-1c0-.09-.45-1.77-.43-1.77.18,0,.73.75,1,.84.91.3,3.05.57,3.8-.16.37-.37-.87-1.18-.86-1.18s1.6.34,1.29-.26c-.15-.29-1-.33-1.29-.33-.07,0-.72,0-.61-.08,1.47-.72,3.3-.36,4.66-1.69.23-.22,1.1-.88.95-1.18s-2.38-.12-3.15.14c-.16.12-.32.22-.21.12a.64.64,0,0,1,.21-.12,1.49,1.49,0,0,0,.3-.22c-.17,0-2.67.36-2.67.08s.46,0,.69-.08,2.59-.92,2.24-1.26c-.65-.64-2.89.82-3.88.33a9.94,9.94,0,0,1-2.42-1.85,2.08,2.08,0,0,1-.34-.75s.88.7,1.29.5-.93-1-.81-1.38a13.39,13.39,0,0,0,3.65.5c.81-.08,5.28-1.3,5.61-1,.14.11-2.21,2.32-1.7,3.12.65,1,3-1.49,3.78-.86.35.28-2.7,2.46-2.05,3,.43.34,9.8-2.76,9.81-2.76.78.63-1.17,3.09-.65,3.51,1,.8,4.45-3.31,5.64-2.35.75.6-1.24,2.88-.85,3.19.23.18.81-.47.95-.58,2-1.62,4.36-3.71,6.74-4.76.34-.15,1.71-1.91,2-1.67s-.63,4.16-.41,4.14c.58-.06,2.26-2.31,2.89-2.73a65,65,0,0,0-.61,8.57Zm30,32.95a2.3,2.3,0,0,1,2-.6,4.55,4.55,0,0,0-.67,1.48,4.38,4.38,0,0,1-.45-.32C199.79,516.87,198.8,516.61,199,516.39Zm16.23,7.8v.19l-.19.29c-.61.76-2.28,1.89-1.78,2.87.28.55,1.4-.61,2-1.25v.55a10.2,10.2,0,0,1-1.94,3.44,1.06,1.06,0,0,0-.18.21,4.37,4.37,0,0,0-2.08,1.12c-.4.39,1.06,1.13.66,1.51-.95.93-4.24.66-5.54,1.08-.66.22-.15,2.43-2,3-2.43.79-3-.49-3.77,1.08a2.37,2.37,0,0,1-1.06,1c1-2.34-6.73,1.68-6.87,1.69a1.77,1.77,0,0,1-.5,0c-.34-.27.28-.69.42-.86,1.12-1.33-1.08-.51-1.92-.63a14,14,0,0,1-3-1.12l-.37-.73s0,.21-.05.53c-1.81-.84-3.65-1.76-4.13-1.71-.25,0-.11,1.22-1.81.34l-.44-.25a20.24,20.24,0,0,1-1.94-3.3c-.08-.21,1.66-.39.78-1.4-1-1.18-1.81-4.33-1.81-4.33s1.54,2.34,1.86,1.6c.43-1-.94-2.1-1.43-2.86l-.39-.71a2,2,0,0,1,.27.22c1.64,1.88,5.72,2.77,8.17,3.37.53.12,3.61.88,3.33-.24-.17-.65-3.39-2.11-3.47-2.2-1-1.08-5-1.53-6.46-1.94-.85-.23-3.48-3.39-4.43-2.6s-.24,2.6-1.27,3.46a2,2,0,0,1-.3.19c-.19-.48-.36-1-.53-1.44q0-4.18.06-8.39a6.06,6.06,0,0,1,1,.52c.67.79,1.57,2.53,2.48,2.87s-.35-1.94.26-2.32c.32-.19.47.17.7.26.59.22,2.26-.33,1.87.15-1.17,1.39,5.57,4.83,6.29,4,.24-.29-1.76-1.55-1.23-2.17s2.71,1.5,3.43.64c.35-.42-4.05-3.58-3.83-4.54.37-1.59,1.78-.31,2.56-1.23.15-.19-3.31-2.91-3.55-3.43-.59-1.29,1.51-.57,1.87-1.49.27-.7-1.32-2.12-.28-2.76,1.56-1,5.19,2,6.21,3.16.1.14,1,1.05.79,1.24-.31.37-1.76-.81-2.21-.28s3.28,4.26,4,4.53c0,0,5.14,3.94,6.5,4.45s4.17-.41,4.17-.41-1.57-.63-2.91-1.35c.29-.27.59-.59.67-.67.7-.68,2.14-.57,2.88-1.3l.44-.44a5.81,5.81,0,0,0,2.06-1.63c.18-.22.11-.37-.1-.47l0,0c.14-.13.43-1.09.67-.86.41.4-.47,1.82.22,2.16,1,.48,2.61-2.21,3.1-1.73s-.17,1.78.22,2.16,2.43-1.69,1.77.22A11.35,11.35,0,0,1,209.9,520a7.86,7.86,0,0,1-.89.65,26.37,26.37,0,0,0,3.11-1.08c.2-.1,1.35-1.06,1.55-.87.5.49-1.23,3-2.42,4.92-2.16.37-5.25,1.95-5.79,1.83-1.92.59-4,1.43-4.25,2.09-.36,1.12,3.39.32,4,.18,3-.63,7.92-1.6,9.95-3.5l0,0Zm46.3-12.06c0,.08,0,.15,0,.19a1.72,1.72,0,0,1-.63.34C261.11,512.49,261.31,512.31,261.52,512.13Zm-3,2.24c.12.16.15.32-.08.43a2.35,2.35,0,0,1-.87.1C257.88,514.73,258.2,514.56,258.51,514.37Zm-3.15.41a1,1,0,0,1,1.17.09,6.61,6.61,0,0,0-1.46.09A1.75,1.75,0,0,1,255.36,514.78Zm-10.1,2.43c.21-.39.51-.7.8-.7.58,0,0,.34-.8.7a2.31,2.31,0,0,0-.3,1l-.39-.69C244.81,517.41,245,517.31,245.26,517.21Zm9,11.83c-1.9.93-6.46,1.33-8,2.81-.15.14,1.11,1.18,0,1.72a14.62,14.62,0,0,1-5.1.87h-1.33s.79,1.54.22,1.73a11.51,11.51,0,0,1-3.46.32l-.83-.34c1.11-1.1,6.35-4.44,4.7-6-.28-.27-1,1-1.11,1.08a10,10,0,0,1-4,3.24c-.6.29-1.13.53-1.64.74a13.12,13.12,0,0,1-3-2c-.95-1,1.9-1.52,2.46-1.8s-1.6-1-1.7-1.16c-.45-.62,1.37-1.72,1.86-1.92s5.23-1.46,5.07-1.67c-1.07-1.47-17.41-2.07-18.26-2.65l-.18-.14c-.16-.36-.33-.72-.49-1.09q.17-1.22.36-2.34a40.6,40.6,0,0,0,.48-4.28c1.07.65,2.11,1.22,2.62,1.47s.13-2,.45-1.73c.92.91,2,3.5,2.88,2.6.34-.34,0-1.26.22-1.51s2.58,3.85,3.1,4.1c.07,0,.17.05.22,0,.57-.56-.11-3.08.45-3.89,1.12-1.65,2.49,1.27,3.76.65,1-.51-.09-1.86.44-2.38.24-.23,1.36,1.6,2.07,2.76-.6.6-1,1.06-.92,1.15.41.4,1.86.21,3.4-.13a6.12,6.12,0,0,1,.55.33c1.08.7,1.07.18,1.48-.86.55-.15,1-.3,1.42-.42.94.88,2.15,2.62,2.86,1.92.24-.23.17-.7,0-1.24a1.12,1.12,0,0,0,.76,0c.7-.23,4.13-2.89,4.21-2.81.73.71-1.48,3.93,1.32,3,1.51-.49,2-2.34,2.86-3.52a1.3,1.3,0,0,0,.1.27,15.05,15.05,0,0,0,2.54,2.74c.49.48-1.34.25-.8.78a11,11,0,0,0,3.65,1.78,11.58,11.58,0,0,0-2.59,1.62c-.38.38,2.06,1.19,1.56,2.16-.61,1.19-4,1.61-5.1,2.16S255.19,528.58,254.25,529Zm7.32,9.5a27.4,27.4,0,0,1-.32,3.24c-1.22.29-2.41.48-3.07.06a2.74,2.74,0,0,0,.73-.27c1.63-1.06.5-2.19,2.66-3.44Zm26.36-74.74a.94.94,0,0,0,.33-.55c.9,0,1.8-.05,2.2-.05.08,0-.39,2.64-.14,2.88s1.94-1.08,3.16-2c0,1,0,2,0,3a8.21,8.21,0,0,0,.06.95,2,2,0,0,1-1,.69c-.51.1-1.32.19-2,.37a5.23,5.23,0,0,1-1.53-1.58c-.47-.92,1.29-1.34,1.11-1.52-.62-.6-2.08-.38-2.66-1.51C287.26,464,287.8,463.93,287.93,463.8Zm-1.63,26.44c.15.3-.41,1.17-.27,1.31s3.78-2.49,4.29-2.74c.89-.44-.11,1.36.54,1,.34-.16,1.44-1.6,2.15-2.22.07,1.38.17,2.76.28,4.12a11.84,11.84,0,0,1-1,2.67c-.29.39-2.67,2-2.54,2.09.85.84,2.55-.93,3.8-1.4.13,1.37.27,2.68.41,3.88a15.72,15.72,0,0,1-1.8,2.23c-.24.22-1.4,1.37-1.21,1.56l.06.05c-2.82-.89-10.22-1.31-10.87-1.44-4.14-.81-6.73,1-10-2.16-.53-.52.77-.43.88-.43,1.83,0,7.23.9,8.64.21,1.65-.8-.41-2.93.67-3.45,1.48-.73,4.25.17,5.54-1.08.63-.62-3.32-1.09-2.88-2a32.15,32.15,0,0,1,2.87-2.43C286.1,490.07,286.23,490.1,286.3,490.24Zm-8.56-16.93c1.13-1.65,2.5,1.26,3.76.65,1-.51-.08-1.86.45-2.38.22-.21,1.21,1.35,1.92,2.51a29.19,29.19,0,0,0-2.52,1.79,3.21,3.21,0,0,1-2.15.26c-.14-.07-.43-.76-.67-.53a2.9,2.9,0,0,1-1,.54C277.55,475.18,277.36,473.85,277.74,473.31Zm-11.22,9.19c.79.54,1.64,1,2.13.53.18-.17-.79-2.16-1.69-4.14.12-.81.24-1.59.37-2.34a38.54,38.54,0,0,0,.47-4.29c1.07.66,2.11,1.23,2.63,1.48s.12-2,.44-1.73c.93.9,2,3.49,2.88,2.59.34-.33,0-1.25.22-1.51s2.33,3.39,3,4c-.71.38-3-.87-3.8-.46-.66.32-.18,1.33-.67,1.57s-2.92-.71-2.54.39,1.63.83,2,1.57c.2.39-1.7.74-1.21,1.69.37.72,2.06.57,2.55,1.05s-.92,1.25-.27,1.57a9.28,9.28,0,0,0,4.42-.26c.17-.09.52-.8.67-.66.48.48-.54,1.82-.27,2.35.46.9,1.59-1.19,1.88-.91s-.27,1.7,0,2c.65.64,2.45-2.58,3.35-1.7,1.23,1.21-1.69,4.76-1.61,4.83.92.9,3.7-2.53,3.88-2.35.35.34.11.89-.29,1.44a12.3,12.3,0,0,1-2.23,1.39,14.61,14.61,0,0,1-7.76,1.73h-2.21s-1.56-.64-1.56-1.3c0-.07,3.62-1.88,3.11-2.38s-2.66.44-1.73.06l-.05-.06c-1.82-1.77-5-1-6.2-3.45,0,0-.07-.13-.16-.29Q266.4,483.67,266.52,482.5Zm9,53.38c-.47.36-5.51,4.26-5.48,4.29.39.26,2.16-.07,3.38-.42.14-.1,1-.69,1.16-.57s-.39.34-1.16.57h0c-1.61,1.15-5.41,3-7.95,2.73-.05-.41-.09-.82-.12-1.24v0c-.24-2.8-.27-5.74-.25-8.54a14,14,0,0,0,3.37,1.33c1.37.44.13-1.47.67-1.3.94.31,5,2.51,6.88,2.74C275.81,535.61,275.64,535.76,275.49,535.88Zm1.18-.25a.31.31,0,0,1-.25-.17.62.62,0,0,0,.43-.16c.14-.13.59-1.32.89-1.68a10.36,10.36,0,0,1,2.87.51C279.17,534.87,277.55,535.79,276.67,535.63Zm7.31,1.06c-.7-.23-.52-1-.39-1.76a6.19,6.19,0,0,0,2.28.17C284.79,536.09,284.14,536.74,284,536.69Zm8.76-6.61a33.66,33.66,0,0,0-5.79,4.07c-.15-.84-1.4-2.14-1.23-2.3.38-.38,5.14.75,4.2-1.08a11.8,11.8,0,0,0-1.44-.45c1-.62,1.9-1.38,2.84-2,.54,0,1.09-.08,1.65-.16C292.88,528.76,292.81,529.42,292.74,530.08Zm-5.94-.34a4.56,4.56,0,0,1,.44-.31l-.4.33Zm7.66-24.52c-1.44,2-4.16,1.19-6.28,1.88a.62.62,0,0,0-.46.63,13,13,0,0,1-2.67-1.16c-.61-.59,2.48-.34,2.66-.43.91-.44.16-1.2,1.77-1.73a13.2,13.2,0,0,0,2.66-.86c0-.22-.27-.42-.74-.6.8.16,2.36,0,3.12.4Zm18.32,12.65a12.76,12.76,0,0,1-4.07,1.85c-.41.08-.24-.19-.59-.37-.69-.33-2.27.74-2.6-.21-.06-.2-.06-.77.15-.87s.93-.39.74-.58-1.61.26-1.93.36c-.71.24-2.93.61-3.26.29-.16-.15-.67.26-.89.15-.64-.31-1.42-.57-2-.92,0-.72.09-1.44.12-2.16.55,0,1.09,0,1.38,0,.09,0,1,.1,1,.07a14,14,0,0,1-.52-1.59c.27,0,.75.48,1,.07.13-.24-.43-.63-.52-.72s.18-.41.08-.51c-.64-.62-1.25-1-1.78-1.49,1.87.45,4.05.05,5.18.05.63,0,1.43.22,1.95-.41.3-.36,1.19-1.2,1-.62a13,13,0,0,1-2.63,4.13s1-.62,1,0-2.34,1.35-1.95,2.06c.49.89,3-.72,3.55-1,.36-.21,1-1.5,1-.82,0,1-1.81,1.94-1.49,3.09.25.88,2.83-1.1,3.21-1.44,1-.88-.22,1.67-.12,1.85.44.79,2.4-2.28,3-1.23A1.31,1.31,0,0,1,312.78,517.87Zm4.39,1.27c-.07,0,.22-.07.22-.07a13.66,13.66,0,0,0-1.48-.37c-.42-.05-1.22,0-1.82,0,1.08-.89,2.7-2.3,2.87-2a10.32,10.32,0,0,1,.48,2.48A.59.59,0,0,1,317.17,519.14Zm4.08-59.84s-.38.41-.9.94a18,18,0,0,0-.5-1.89A10.64,10.64,0,0,1,321.25,459.3Zm28.48,50.62c.51.57-.9,2.45-1.1,2.88s.38,1.13.14,1.67a7,7,0,0,1-2.74,2.58,16.2,16.2,0,0,1-1.92.76,14.2,14.2,0,0,0,2.19-.46c1.11-.41,2-2.89,2.61-.76a12.57,12.57,0,0,1-.55,5.91c-.25.55-1.83,1-2.33,1.52-.23.25.41.86.14,1.06-.79.58-2.86.71-3.29,1.67-.31.69,1.61.94,1.37,1.21a5.48,5.48,0,0,1-1.35,1c-2.39-1.14,1-3.11-3.67-3.62-.87-.1-1.75-.17-2.64-.23a1.12,1.12,0,0,0,0-.57c-.15-.28-.56.08-.94.52a87.52,87.52,0,0,0-11.23.28c-.09-.12-.14-.22-.08-.28s1.21.27,1.49,0c.45-.44-1.67-1.24-1.41-1.74.07-.14.8-.13,1-.21a3.91,3.91,0,0,0,1.26-2.1c0-.14-.93.28-1,.29-.38.12-2.41.9-2.82.51,0,0,1.73-1.26,1.85-1.38s-.84-.17-.89-.22c-.21-.2.84-.7.67-.87s-.72.31-.82.22,1.28-1.58.82-2c-.21-.21-.86.22-1,.29-.34.13-.68.29-1,.44a2.14,2.14,0,0,1-.16-.34c-.13-.45.6-.06.8-.41.36-.66-.52-1.61-.69-2.48,0-.22-.6-4.34-.57-4.34.25,0,1,1.83,1.37,2.07,1.21.72,4.05,1.38,5-.42.5-.89-1.15-2.87-1.14-2.89s2.12.85,1.71-.61c-.2-.73-1.34-.83-1.71-.83-.09,0-1-.08-.8-.21a6.3,6.3,0,0,1,2.33-1.22c-.25.69-.46,1.42-.06,1.2,1.66-.92,3.52-1.65,5.2-2.57a32.25,32.25,0,0,1,3-2.13c.82.91-2,4.59-1.23,5.46.46.52,2.12-2.5,2.6-2,.33.36-.29.9.27,1.21,1,.55,1.65-2.42,2.74-1.82.14.08.48,2,1,1.52.16-.17,2.38-2.21,2.6-2s-.27,1.51,0,1.82c.06.06.92-.91,1.1-.91s1.91,1.06,2.46.45c.19-.21,1.69-4.49,2.19-3.94,2.28,2.53-1.87,5.4-2.87,6.52C347.31,509.72,349.62,509.81,349.73,509.92Zm1-32.43c-1.09,1.2-3.36.53-4.39,1.67-.24.27,1.39.3,1.51.3.69,0,3-.62,3.15-.46.51.57-1.65,3.06-1.78,3.34,0,.08,1,4,.68,4.24-1.12.63-3.13-.12-4.38.16-2.31.51-4.6,1.33-7,1.66-1,.14-2.63-.66-3.56-.15s2.07,1.5,1.64,2c-1.43,1.59-3.46-3-4.24-2.58s-.61,1.71-1.37,2.13-1.92-1.22-2.33-1.22c-.57,0-.14,1.37-.54,1.82-.79.87-3.45-1.79-4.11-1.06-.49.54-.22,1.26-1,1.67a1.77,1.77,0,0,1-.49.17c-.32-.61-.6-1.18-.42-1.49.28-.52,1.26.4,1.6-.21.21-.38-1.18-1.71-1.38-2.07-.7-1.27.44-1.89-.22-3.09a22.54,22.54,0,0,1-1-3.31c.27-.48,1.2,1.56,1.61.83.53-1-1.38-8.88-1.61-9.7-.28-1,.61-.91.23-2.28-.17-.63-1.51-3.26-1.48-3.3.23-.42,1.33,1.39,1.6.41a6.63,6.63,0,0,0-.32-2.67c.85-.12,1.63-.3,2.19-.42.83-.19,2.47-.61,2.47-.61s-2.26,1.59-1.64,2.28,2.71-.48,3.28.15c.32.35-1.25,1.64-1.09,1.82.91,1,4.72-2.95,5.61-2,.21.23-.59,1.07-.69,1.21a10.71,10.71,0,0,1-3.83,2.88c-.08.05-2.44.48-2.05.91,1.47,1.63,5.92-1.46,7.12-2.12.26-.15,1.82-1.93,2-1.67.42.47-.46,2.32-.14,3s2.54-.22,3,.3,2.46-3,3-2.42c.74.82-1.8,2.85-1.37,3.33.25.29,1-.53,1.23-.6,1.49-.55,2.84-2,4.38-2.43.85-.24.32.5.69.91s1-1.69,1.64-1.36c.26.14.38,1,.55,1.21s1.85-1.74,2.46-1.06-.41,2.12,0,2.57c0,0,1.48-3.55,1.64-3C352.2,469,351.69,476.37,350.69,477.49Z"/><path class="cls-5" d="M408.22,591c-.52-.32.6-8.23-2-6.61-1.37.85-7.78,7.86-10,7.86v-.83c0-2.24-10.37-10.18-13.94-12.41-2.46-1.53-3.11-5.52-5.31-6.2a13.21,13.21,0,0,0-2,0c-1.4.87-4.2,5.5-6.17,6.73-.89.55.52-5.91,0-7s-3.1,2.76-4.43,2.76c-2.94,0-4.93,5.51-6.21,4-1.89-2.17-1.12-6.26-2.65-6.8s-5.58,3.9-8.86,2.76c-2.54-.88-.66-5.35-2.43-5.52-2.56-.26-4.58,5.74-6.43,4.22s-1.49-11.8-2.78-11.68c-3.45.33-4.47,7.61-10.48,11.35-.49.31-.9,1.59-2,1.25-1.33-.42.92-10.24-.75-10.66-1.86-.48-2.77,5.49-4.79,5.52-1.68,0-.37-10.27-1.37-11.05-1.33-1-6.55,10.59-8.86,11.82S304,558.7,302.7,557.87c-2-1.25-7.59,5.55-8.63,6.2-3.95,2.46-3.87-8.2-4.64-8.68-4-2.51-8.74,6.07-11.95,2.07-2.51-3.13,5.3-10.76,1.33-13.24-1.64-1-8.95,10.23-10.62,10.76-12,3.73-10.67-10.77-14.6-12-3.63-1.13-5.67,7.22-10.62,4.14-5.51-3.44-1.31-15.29-7-18.85-3.71-2.31-5.79,13.12-9.58,14.3-3.5,1.09-3.39-4.86-5.17-6s-3.61,5.32-5.19,4.69c-1.81-.73-4.19-8.79-5.76-9.11-.64-.13-2.14,5.52-3.1,5.52s-1.21-5.23-2.66-5.52-3.62,5.29-6,3.81c-.51-.31-1.06-7.13-2-7.12s-2.85,7.22-3.54,7.18c-1.19-.08.94-7.15-1.12-7.5-.36-.07-1.65,3.67-2.43,3.91s-1.11-2.42-2.21-2.49-2,4-3.1,4.69c-.91.54-2,.21-3.54-.74-2.3-1.43-1-9-4-9.92-3.61-1.13-7.82,7.94-12.61,5-3.06-1.91-.63-7.84-3.31-9.51-3.21-2-6.05,7.81-11.29,4.55-.69-.43-.49-3.77-1.15-4.8-.46-.72-2.59,3.06-3.1,2.49-1.46-1.61-1.35-7.07-2-7.73-.91-.93-2.29,2.85-3.55,3.73-.5.35-.8-1.85-1.33-1.8-.79.08-1.22,3.31-2.15,2.73-2.45-1.53-2.15-9-3.83-9.35-1-.22-4.11,6.47-8.11,4-2.55-1.58-1.86-9.89-3.85-10.32-.93-.21-1.72,4.53-4,5.28-.87.3-1.19-3.47-2.21-3.35-1.38.16-3,6.2-5.22,5.5-9-2.81-8.32-11.8-13.94-15.3-3.74-2.33-14.41,9.63-19.24,6.61s-3.88-14-6.64-15.71c-4.74-3-8.76,11.12-13.94,9.51-6.63-2.07-1.28-14.45-6-17.37-.76-.47-2.71.86-3.32,1.24-5.39,3.36-12.29,16.33-15.93,14.06s-3.77-11.84-9.29-5c-1.5,1.87-2.09,3.49-5.31,2.48s-2.61-10.14-7.3-8.68c-2.27.71-5.15,11.54-8,11.36V600.17H419C416.66,596.3,410.05,592.09,408.22,591Z"/><path class="cls-6" d="M598.73,516.1c-1-.28-2-.55-2.83-.81-10.48-3.33-6.59-12.34-11.83-18.72-4.22-5.14-13.14-7.06-16.62-11.29-1.8-2.2-.45-6.45-3.63-8.45A72.82,72.82,0,0,0,548,469.38c-7.49-2.38-.16-1.73-6.3-5.6-3.23-2-2.67-8.31-7-11s-3.23-3.46-5.85-8.44c-1-1.95-1.46-9.18-3.4-10.06-.62-.28-26.46-.61-27-1a7.31,7.31,0,0,0-1-.62c-.16-.08-.37,0-.53-.07-.95-.43-1.84-.92-2.76-1.34-4.72-2.14-5.74-8.19-8.82-9.59-1.58-.71-3.63-.42-5.2-1.13a17.11,17.11,0,0,0-9.11-1.87c-.71.08-5.51-.72-5.62,0-18.39,5.95-44.56-15.31-50-.32-6.22,17.12-9.15,83.88-8.93,101.67.16,13.07-10,23.57-10.49,38.5-.46,14.13,3.52,27.88,6.82,41.62h195.9Z"/><path class="cls-5" d="M454.64,342.66c-.84,1.29-.77,3-1.6,4.47-2.38,4.32-8.58,9.84-4.14,14.87,2.2,2.5,6.5-1.5,8.2,2.26,1.07,2.36-.26,4.38-1.17,6.44-.07.16.81,1.55.44,2.41-.47,1.09-1.52,1.46-2.09,2.36,0,.07.64.34.69.35a2.7,2.7,0,0,1,1.71.95c2,3,1.64,3.37,4.73,5.25a11.13,11.13,0,0,1,4,4,5.86,5.86,0,0,1,.29,1.48c.15,2.67-2,6.71-2.91,9.19-.38,1-.56,2-.93,3-.51,1.36-1.31,2.95-1.22,4.44s2.38,5.91,3.69,9c.53,1.27.2,2.32.59,2.85a1.59,1.59,0,0,0,1.52.33c-.21.41-.43.82-.66,1.19-.38.63-1.13,1.7-.87,2.48s1.12.41,1.64.36c1.34-.13,3.87-.15,4.8-1.29.54-.66,0-1.87,0-2.63,0-1,.58-2,.62-3s-.29-2.21-.28-3.33a49.9,49.9,0,0,1,2.54-14c0-.08.05-.16.07-.24,1-2.35,1.91-5,3-4.64,1.37.48,2.46,1.63,3.82,2.2a12,12,0,0,0,5.15,2.39c.82.16,1.84-.14,2.62.18a8.41,8.41,0,0,1,2.13,1.09c.09.07.46.48.53.47s.18-.61.52-.67a3.7,3.7,0,0,1,2.66,1.1s.15.17.17.16c.46-.1.68-.35,1.19-.1,1,.5,2.16,3.3,2.76,4.35,2.13,3.79,4.29,8,5.24,12.26.38,1.7-.58,3.11-1.24,4.64-1.41,3.25-2.79,6.56-4.48,9.68a12.07,12.07,0,0,1-1.17,2c-.58.7-2.23,1.13-1.46,2.29.47.7,1.43.76,2.18.89,3.6.59,3.78-.2,5.07-3.64.16-.43,0-.91.16-1.32,1.47-3.17,3.23-6.22,4.73-9.38a15.7,15.7,0,0,0,1.65-3.81c.34-1.83-.34-3.6-.55-5.41.47.61.9,1.24,1.42,1.84,1.3,1.5,2.86,2.81,4.2,4.3.81.9,2.29,1.76,2.85,2.83.93,1.77,1.06,5.66,1.27,7.69.53,5.06,1,5.33-1.79,9.63a1.53,1.53,0,0,0,.18,2.13c.69.46,2.76,1.36,3.54,1s1-1.4,1.32-2.13a14.05,14.05,0,0,0,1.68-6.39c-.1-1.72-.59-3.57-.4-5.28.21-2,1.17-3.88.7-6a19.65,19.65,0,0,0-1.55-3.48c-1.4-3.11-2.95-6.62-3.14-10.07a42,42,0,0,1,.22-8.17,12.93,12.93,0,0,1,.66-2.05l.07.74a7.79,7.79,0,0,0,3.38,4c.42.21,1.44,1.09,1.86.37a.14.14,0,0,0,0-.15,10.76,10.76,0,0,1-.86-3.66c0-.8.27-1.58.3-2.39a16.79,16.79,0,0,0-3.85-11.07,10.25,10.25,0,0,0-1.5-1.2c-1.06-1.39-2.16-2.64-3-3.56-7.45-8.5-16.45-11.41-26.29-16.26-2.79-1.37-7-2-9.15-4.33l-.06-.06c-2.11-2.48-2-6.3-3.36-9.17-1.26-2.62-3.39-4.74-4.64-7.34-.48-1,0-2.44-1.15-3.08a8.18,8.18,0,0,0-5.15-.26c-.68.29-1.14,1-1.91,1.15a1.64,1.64,0,0,1-.54,0l.61-.27a36.64,36.64,0,0,1,3.2-9,65.09,65.09,0,0,1,6-10.64c.87-.56,1.78-1.07,2.72-1.63,7.31-4.4,15.08-5.79,23-2.13,1.68.77,3.87,1.78,4.82,3.48,1.09,1.94,1.71,4.39.4,6.37-.43.66-3.91,3.14-3.05,3.93,2.68,2.45,7.47-6.89,7.53-8.76,0-.89-3.66-7-4.4-7.68s-2.15-.91-3.12-1.6c-1.76-1.25-2.56-3.12-4.72-3.88-1.25-.44-2.71,0-4-.24-.87-.18-1.72-.58-2.59-.83a35.42,35.42,0,0,1,7.79-1.7c5.44-.58,13.66,1.45,17.45,5.66a9.66,9.66,0,0,1,2,5.94c0,.26-.07,3.44.64,3.2.91-.3,2.21-3.45,2.39-4.3.24-1.14-2.15-7.53-3.06-8.49s-2.49-1.37-3.62-2.23-1.42-2.6-2.59-3.34c-1.34-.87-3-.67-4.46-1.09-1.73-.48-3.4-1.64-5.15-1.94s-3.48.41-5.29.57c-1.61.13-3.26-.32-4.89-.23-2.54.13-5.49,1.2-7.95,1.87-1.62.45-2.34,1.71-3.75,2.42s-3.1.79-4.47,1.73c-1.18.81-1.75,2.21-2.81,3.14s-2.53.85-3.42,1.77-1.16,2.15-1.93,3.1-1.79,1.18-2.45,2-.86,2.33-1.53,3.42-2,1.58-2.68,2.65c-.57.88-.42,2-.84,2.93-.34.76-1.16,1.1-1.56,1.8a30.19,30.19,0,0,0-2,5.46c-.55,1.76.11,3.82-.39,5.65S455.09,340.89,454.64,342.66Zm13.18,55.17c-.16,4.39.87,9,.28,13.34a4,4,0,0,1-.39-.47,26.88,26.88,0,0,1-2.07-5.16C465.1,403.17,466.92,400,467.82,397.83Z"/></g></g></svg>