<svg xmlns="http://www.w3.org/2000/svg" viewBox="0 0 400 400"><defs><style>.cls-1{fill:#efb28b;}.cls-2{fill:#88a1b4;}.cls-10,.cls-2,.cls-3,.cls-4,.cls-5,.cls-6,.cls-7,.cls-8{fill-rule:evenodd;}.cls-3{fill:#fff;}.cls-4{fill:#2b4a62;}.cls-5{fill:#572213;}.cls-6{fill:#ad4325;}.cls-7{fill:#bc6935;}.cls-8{fill:#1d2b36;}.cls-9{fill:#050002;}.cls-10{fill:#f9e0d1;}</style></defs><g id="Layer_2" data-name="Layer 2"><g id="_ÎÓÈ_1" data-name="—ÎÓÈ_1"><g id="pre-made_5" data-name="pre-made 5"><circle class="cls-1" cx="200" cy="200" r="200"/><path class="cls-2" d="M382.13,282.75c-43.49-16.09-102.91-26-168.43-26-77.78,0-147,14-191.11,35.67a200.08,200.08,0,0,0,359.54-9.67Z"/><path class="cls-3" d="M205.54,75.34A22.55,22.55,0,1,0,228,104.14a18.91,18.91,0,1,1-22.43-28.8Z"/><path class="cls-4" d="M62.69,323.14c4,.73,8.08-.11,12,1,6.59,1.9,13.09,6,19.86,6.88,4.16.55,8.65-.65,12.9-.32,6.84.53,13.24,3.36,20.08,4.22,3.25.42,6.6-.79,9.89-.57,6.71.43,13.1,2.85,19.68,3.87,3.63.56,7.34-.11,11,.69,3.85.85,6.83,3.51,10.54,4.61,9.36,2.78,19.4,2.63,28.89,4.58,5.11,1.05,9.65,3.78,15,3.71,3.76,0,6.52-2.52,10.05-3.3,5.74-1.29,11.75-1.3,17.42-3,2.92-.87,5.18-3.37,8.14-4.34,7.48-2.46,16.16-3.72,23.94-5.1,7.08-1.25,14.38,2.27,21.57,1.9,12.08-.62,23.95-3.91,36-5.54,3.41-.45,6.82-.1,10.18,0A200.25,200.25,0,0,0,385,276.17a16.92,16.92,0,0,0-8.11-1.83c-2.63.18-4.23,2.47-6.75,2.83-3.77.55-7.84-.8-11.42.93-2,.94-2.14,3.82-4.35,4.51-4.05,1.26-10-1.17-14.24-.78-3.4.31-6.44,2.57-9.87,2.56-4.47,0-10.67-5.29-16.59-5.56-4.33-.2-7.11,4.11-11.35,4.18-4.07.06-8.05-1.4-12-1.55-4.73-.18-9.09,1.83-13.89.5-7.58-2.11-14.39-6.84-22.17-8.75-4-1-7.88.53-11.86-.75-5.2-1.68-3.69-6.13-6.81-8.85-3.38-2.95-7.1-2.83-10.66-5-4.79-3-5.77-9.43-12.56-9.2-4.25.15-13.93,9.82-18.33,12.54-2.13,1.32-4.6.35-6.71,2-3,2.36-3.92,6.14-7.32,8.32-5.92,3.82-10.37-.7-16.28,1.48-3.33,1.23-3,5.06-5.75,6.85-3.62,2.38-9.27,1.91-13.31,3.49-2.47,1-3.44,3.51-5.74,4.61-1.73.83-3.89,0-5.69,0-2.53-.13-4.8,1.27-7.32.44-4.1-1.33-5.55-6.77-10.76-5.57-1.83.42-2.64,2.65-3.91,3.8-4,3.59-10,5.35-14.93,7.14-2,.73-4.13-.67-6.2-.51s-3.76,1.95-5.89,2c-2.33,0-4.44-1.57-6.83-1.07-4.89,1-10.41,2-15.21,3.89-2.49,1-4.7,3.17-7.25,3.84-4.33,1.13-9.48,1.28-13.79,2l-3,1.51c-10.41,4.87-1,7.1,6.45,9.94C50.75,318.32,56,321.9,62.69,323.14Z"/><path class="cls-5" d="M39.7,282.79c5-.52,10.14.21,15.16-.09,2.58-.16,5.06-1.44,7.58-2,5.74-1.21,11.68-2.08,17.48-3.24,3.83-.76,8-.35,11.76-1.23,2-.46,3.48-2.07,5.42-2.65,10.8-3.19,21.58-6.84,32.61-9.22,2.55-.56,4.53.45,7,.6,6.16.38,13.67.94,19.78.33,3.18-.32,6.2-1.86,9.33-2.47a187.56,187.56,0,0,1,20.37-2.34c5.73-.43,11.72,1.59,17.44.75,8.76-1.3,17.12-4.48,25.92-5.78,8.06-1.18,16.18-.92,24.15-2,6.16-.84,12.22-2.5,18.35-3.3,2.38-.31,4.64.29,7-.27,7.11-1.68,12.5-4.58,19-7.42,4.39-1.92,17.94-.87,17.92-8,0-3.29-13.71-18-17-20.08-2.22-1.43-5.32-1.83-7.8-2.58-11-3.31-23.18-1.86-34.45-2.94-4.06-.39-7.46-3.7-11.23-4.47-1.6-.33-3.19.66-4.78.56-4.27-.29-10-.56-14.1-1.65-3.82-1-6.77-4.45-10.69-5.6s-8.2-.61-11.85-2.22c-5.42-2.38-9.36-8.45-14.78-11.07a129.33,129.33,0,0,0-16.66-6.7c-3.84-1.06-8.17-1.4-11.75-3.2-3-1.51-3.77-5.24-6.54-6.73-2-1.08-4.88-.93-6.72-2.26-5.33-3.85-9.24-9.67-14.66-13.64-2.45-1.8-5.41-2.33-8.06-3.76s-4.52-4.35-7.23-5.79c-2.08-1.1-4.65-.78-6.82-1.62-7.3-2.84-14.81-8.74-22.9-9.27-4.6-.3-17.82,8.87-21,11.92-1.56,1.5-1.94,3.79-3.46,5.16-1.27,1.14-3.18,1.23-4.52,2.33-4.81,4-9.34,9.47-13.23,14.36-1.5,1.89-.62,4.85-2.4,6.63-2.81,2.83-7.43,7.59-12,6.52-2.14-.5-3.56-1.48-5.86-.69-1.53.53-2.4,2.57-3.75,3.45-3.16,2.07-6.9,3.43-10.22,5.34-3.08,1.77-5.51,5.72-8.42,8A30.48,30.48,0,0,1,0,196.5c0,1.17,0,2.33,0,3.5a199.23,199.23,0,0,0,20.34,88,26.55,26.55,0,0,0,9-1.21C32.89,285.43,35.85,283.18,39.7,282.79Z"/><path class="cls-6" d="M111,277.22c11-.42,22-.74,33-1.29,6.29-.31,12.42,1.28,18.71.93a205.55,205.55,0,0,0,22-2.39c3.08-.51,6-1.6,9.14-1.77,4.26-.23,8.22,1.72,12.58,1.51,6.09-.31,12.14-1.61,18.23-2,21.53-1.52,43.18-2.29,64.78-2.28,13.06,0,26.08-.17,39.14-.16,4.12,0,9.14,1.14,13.17.29,3-.62,5.72-2.23,8.62-3.1s6.2-1.54,8.48-3.41-.39-6-1.46-7.9c-1.86-3.28-4.22-5.66-6.23-8.74-2.63-4-3.18-8-7.8-10.38-9.24-4.75-15.63-12.57-24.47-17.85-3.85-2.3-8.51-1.51-12.45-3.42-1.89-.92-3.5-3-5.26-4.22-3.41-2.36-7.47-3.71-10.47-6.7-1.84-1.83-2.95-4.2-5.06-5.77-3.29-2.43-8-2.86-11-5.67s-4.47-7.07-7.94-10c-5.89-4.92-13.59-7.71-20-12-3.72-2.47-7.94-7.28-12.7-7.44s-10,4.91-13.52,7.54-7.78,4.77-10.81,7.93c-1.65,1.73-1.85,4.29-3.08,6.3-2,3.28-5,5.78-7,9-2.11,3.4-3.6,7.22-5.79,10.61-2,3.13-16,17.3-18.87,19.16-3.13,2.06-7,2.81-10,5-6.83,4.93-11.79,10.5-20,13.48-4.29,2.84-9.06,8.4-13.4,11.22-2.06,1.35-4.59,2-6.8,3.07-5,2.54-9.27,5.33-14.53,7.4-3.86,1.53-9.85,5.17-9.14,10.09C101.56,278.11,108.23,277.32,111,277.22Z"/><path class="cls-7" d="M85.91,314.77c7.63,1.51,13.66,4.7,21.8,4.16,10-.65,18.7-5.06,29.16-3.66,23.91,3.2,45.37,11.87,69.64,14,5.72.51,10.72-2.17,16.27-2.31,4.42-.11,8.22,2.69,12.42,3.66,5.94,1.38,14,1,20.11,1,17-.09,33.95-5.7,51.06-6.34,6.36-.24,11.62,3.47,17.63,3.38a196.39,196.39,0,0,0,31.9-3.37,199.11,199.11,0,0,0,40-84.63c-1.28-.63-2.28-1.14-2.81-1.43-8.81-4.81-19.6-9.09-27.66-15.14-4-3-4.66-11-11.45-10.22-7.73.86-19.39,16.61-27.66,16.58-5.09,0-9.77-3-14.6-3.44-1.78-.17-41.34.76-41.54.84-6.5,2.58-15.69,8.65-21,13.36-2.39,2.1-3.13,5.53-5.91,7.34-3.89,2.53-10.22,2.49-14.6,4.28-2.43,1-3.69,3.84-6.4,4.22-9.62,1.34-15.06-4.87-24.42-3.17-2.82.52-5,2.77-7.59,3.88-2.3,1-5.09.44-7.45,1.22-5.15,1.69-10.25,5.29-15.5,6.63-8.13,2.08-17-.42-25.24,1-3.85.67-7.33,4-11.14,3.78-9.37-.54-17.25-5.69-26.92-6S93,269,81.66,266.67c-8.21-1.67-16.84-2.05-25-4.17-2.56-.67-4.7-4.14-7.29-3.84-2.91.34-10.58,7.84-17,9-3.29.57-6.87-1.33-10-.34-2.67.84-3.86,3.85-6.86,3.9-.79,0-1.61,0-2.45,0a199.61,199.61,0,0,0,20.82,40.2c3.7.39,7.44.73,11.25.93C58.48,313,72.66,312.15,85.91,314.77Z"/><path class="cls-8" d="M24.18,237.11c-2.19-1-4.95,4.33-7.28,5.64-1.08.61-.77-8.6-2.87-2.26-1.06,3.2-2.72-14.13-6.11-15.35-1.2-.44-3.17,4.42-5.21,7.84.12.73.24,1.45.37,2.18,0,.25.09.5.14.75.09.5.18,1,.28,1.51l.15.8c.1.54.21,1.07.32,1.61l.12.61c.15.72.3,1.44.46,2.16,0,.21.09.42.14.63.11.52.23,1.05.35,1.57l.18.8.36,1.48c0,.25.11.49.17.73.18.71.35,1.42.53,2.12,0,.12.07.24.1.35.15.61.31,1.21.47,1.82l.21.75c.13.48.27,1,.4,1.45.07.25.14.51.22.77.15.54.31,1.09.48,1.64l.14.5c.21.69.42,1.39.64,2.08.06.22.14.45.21.67.15.49.31,1,.46,1.47.09.26.17.51.25.77.16.49.32,1,.49,1.46.07.22.15.44.22.67.23.68.47,1.36.71,2l.18.5q.27.79.57,1.59l.27.75c.17.46.34.92.52,1.38l.27.73c.22.58.45,1.16.67,1.73.05.11.09.22.13.33.26.67.53,1.33.8,2l.29.69.57,1.37.31.75.62,1.44.26.59.87,2c.09.19.18.38.26.58l.66,1.42c.11.25.23.49.34.74l.63,1.32.33.69c.31.64.62,1.28.94,1.92l.15.31c.28.54.55,1.09.83,1.64l.36.69.67,1.29.37.71.78,1.44c.08.17.17.33.26.49l1,1.86.35.62.74,1.3c.13.24.27.47.41.71.24.43.49.85.74,1.28l.37.62,1.09,1.82c.09.15.18.3.28.45.28.47.57.94.86,1.41l.43.68.76,1.21.43.66c.31.5.63,1,.95,1.47.08.12.16.24.23.36.39.59.78,1.17,1.18,1.75l.42.64c.27.39.54.79.82,1.18.15.23.31.45.47.68l.86,1.23.39.56,1.23,1.7.39.53.9,1.23.5.66c.28.38.57.75.86,1.13.16.21.31.42.47.62l1.22,1.57.3.38c.37.47.74.94,1.12,1.4l.5.63.89,1.09c.17.21.35.42.52.64l1,1.19.4.47,1.35,1.59c.17.18.33.37.49.56l.95,1.08.56.63,1,1.06.51.56,1.41,1.54.4.42L55,337.75l.58.6,1,1,.58.6,1.17,1.18.35.35,1.48,1.47.57.55,1,1,.62.59,1.05,1,.54.5,1.53,1.4.51.47,1.1,1,.64.56,1,.91.62.54,1.4,1.19.5.43,1.34,1.11.64.53,1.06.86.67.55,1.16.92.54.43,1.64,1.27.61.46L80,360l.7.53,1.11.81.65.48L84.14,363l.5.36,1.27.89.72.49,1.11.76.71.49,1.31.87.5.33L92,368.36l.7.44,1.16.73.75.47,1.19.74.67.41,1.77,1.06.64.37,1.24.73.78.44,1.16.66.76.43,1.52.84.68.36,1.53.82.77.41,1.19.61.8.41,1.29.66.66.33,1.86.91.73.35,1.25.59.83.39,1.23.56.77.35,1.9.85.59.25,1.43.62.82.34,1.24.52.82.34,1.44.57.6.25,2,.75.8.3,1.28.48.86.31,1.31.47.77.28,2,.68.71.24,1.39.46.87.28,1.29.41.85.27,1.65.5.77.23,1.72.5.85.24,1.32.36.88.25,1.42.37.74.19,2.06.52.78.19,1.4.33.9.21,1.36.3.84.19A201,201,0,0,0,200,400q7.62,0,15.1-.56,5.43-.4,10.8-1.1l.33,0,2.28-.31.5-.07,2.12-.32.57-.09,2.05-.34.59-.1,2-.36.59-.11,2-.39.54-.11,2.11-.43.45-.1,2.24-.49.31-.07,2.51-.59h0q7.77-1.87,15.3-4.35l.16-.05,2.31-.78.23-.08,2.23-.78.25-.09,2.22-.81.23-.09,2.26-.86.16-.06,2.36-.94h0a199.87,199.87,0,0,0,21.26-10.1h0c-1.45-.55-3.24-1.14-5.53-2.06-2.82-1.12-2.84-2.86-3.95-5.07-.48-1-11.27,4.85-13,4.51-4.21-.84-3.37-6-7.33-7.33-5.73-1.91-13.18.93-19.18-.57-6.61-1.65-5.53-9.79-10.16-10.72-.71-.14-2.7,8.38-3.2,6-.65-3.06.18-17.08-.9-16.17-1.42,1.2-4.24,15.64-5.39,15.27-1.6-.52-1.88-9-3.59-8.53s-3.8,7.66-5.53,7.37c-3-.49-2.69-10.66-3.91-13.21-.49-1-1.73,3.28-2.69,4.49-.8,1-1.32-1.11-1.8-1.35-2.25-1.13-5.38,5.81-7.18,5.84-1.41,0-1.48-7.19-3.15-5.84-1.39,1.13-3.24,9.42-5,9-2.12-.52-1.9-11.25-3.54-14.82-.94-2.05-4.51,11-5.84,10.78-1.55-.24-.87-13.6-1.88-14.61-.66-.66-4.24,2.53-5.64,1.13-.58-.58.85-5.08-.57-5.08-2.16,0-8.19,12.68-9.59,11.28-2.54-2.54-4.52-16.13-5.67-21-.83-3.51-5.94,5.68-7.3,3-1.85-3.7.67-9.48-1.7-11.85-3.11-3.11-9.23,1.48-11.28-.56-3-3-5-8.45-9.59-10.72-3.26-1.64-7.91,6.19-10.72,3.38-1.87-1.88-1-7.82-2.82-9.59-2.48-2.48-7,4.88-10.15,1.69-2.58-2.57-.93-7.79-4.52-9.59-2.7-1.35-7.15,5.83-9.59,3.39-3.16-3.16-3.31-10.08-6.2-13-2.5-2.5-3.87,6.81-6.21,5.64-1.83-.91.13-6.64-1.13-7.89-.8-.81-6,.21-7.9-1.7-.82-.82-1.13-8.46-2.82-10.15-1.06-1.07-3.61,2.65-4.68,1.42-1.35-1.55-1.13-8.93-3.39-10.72s-7.62,1.79-10.15,0-2.54-9.69-5.08-10.72c-1-.41-2.37,2.57-4,2.53-1.07,0-2.42-3.37-3.36-2.77-1.27.82-1.54,4.38-2.77,4.75-3,.91-4.5-5.29-5.1-7.54-.49-1.88-4.68,4.21-5.6,2.89C23.73,243.46,26.06,238,24.18,237.11Z"/><path class="cls-9" d="M151.43,299.09c-.41-1.48-2.88.64-3.38.61-1.55-.08.64-2.23-1-2.32-.48,0-4,0-4.12-.31-.44-1.6,1.46-6.63,1.24-6.64-2.33-.12-5,1.06-6.39,1.44a4.76,4.76,0,0,0-1.47-1.92,19,19,0,0,0,2.42-2.86c-.14-.51-1.43-.13-1.75-.49-.58-.64-1.18-2.23-2.25-2.28-1.52-.08-2.71,1.55-3.84,1.86-.1,0-.84-2.35-2.46-1.9a30.72,30.72,0,0,0-8.62,4.47c-1,.7-4.5.76-5.67,1.09-.9.24-1.47-2-2.27-1.8-3.49,1-13-3.49-15.37-1.89a4.71,4.71,0,0,0-1.2,1.1c-4.76-1.68-11.08-3.82-11.67-3.85-4.28-.23-8.92-5.88-10.51-8.24a8.73,8.73,0,0,0-3.86-2.78,19.72,19.72,0,0,1,6.35-.37c.49,0,1,.54,1.56.81-.94.16-2.35-.29-3.25.52-.69.62-.19,1.53.13,2.16.76,1.52,3.78,2.44,5.14,2.51.73,0,.58,1.1,1.28,1.24.31.06,2.3-.33,2.39,0,.18.65-3.26,1.84-.61,2.36a3,3,0,0,1,.84.17c.3.16.13.55.58.63.67.14,1.4-.21,2.08-.17s1.17,1.07,2.15.8c.53-.14,1-1,1.47-.93,1.71.09,3.4,2.12,5.23,1.61.55-.15-.12-1.35.64-1.3.38,0,.73.6,1.1.62s.86-.62,1.15-.18c.16.23,1.57,1.76,1.86,1.68s.25-.47.39-.51c.5-.14,1,.5,1.45.2s.11-1,.46-1,2.33.59,2.31.89-.69.88-.63,1.11,3.47.58,3.81.28c.12-.12.46-.86.61-.9a10.47,10.47,0,0,1,1.51.64c1.23.35,1.33,0,2.23.85.59.56.55,1.44.7,1.34,1.69-1.14,3.92-.57,5.6-1.41.54-.28-.06-1.05.34-1.16s.69.32,1,.33c.54,0,1-.62,1.43-.85s1,.44,1.29.83a.69.69,0,0,1,.11.39c.17-.39,1.06-.83,1.26-1,.47-.31,3.35-1.34,3.09-2.32-.13-.44-1.92-.3-2.2-.72s.24-1.39,0-1.79c-.13-.2-.67.05-.77.08-.37.1-.44-.66-.77-.85s-1.36-.29-1.55-.57c-.45-.66.7-1.55.48-2.33s-1.5-.32-1.89-.34-.62-.93-.79-1.18c-.37-.56-1.29.46-1.8.43s-.83-.69-1.27-.71-1.1.32-1.33,0c-1.84-2.75,2.56-1.32,2.2-2.61-.09-.35-1.09-.13-1.29-.11-.77.1-2.84.15-3.39-.46-.81-.91-1-.4-2.14-.07-.42.11-1-.91-1.46-.93-.75,0-.53.88-1,1a11.44,11.44,0,0,1-2.4.73s0,0-.08-.05c-.65-.36-2.45-.58-2.6-.74s-.31-1-.55-1.05c-.69,0-1.16.59-1.82.64a19.68,19.68,0,0,0-4,.24c-.39.1-.52-.89-.85-.9-.54,0-.93.45-1.37.58-.86.23-1.48-1.39-2.37-1.14-.37.1-.62-1.34-1.11-1.36s-1.11.64-1.46.73c-1.43.4-2.77.1-4.1.65l-1.43,1a4.29,4.29,0,0,1,1.43-1l0,0c-.44-.26-1.86.88-2.17,1.17-.56.49-2.76.49-3.53.7-.47.13-.73.58-1,1a3.72,3.72,0,0,0-1.6-1,28.14,28.14,0,0,0-6.3-.66,6.58,6.58,0,0,0-2.88.66l-.3.22a58.64,58.64,0,0,0-12.68-2.07,17.78,17.78,0,0,0,4.13-2,4,4,0,0,1,.66-.29,1.66,1.66,0,0,0,.37.14,18.91,18.91,0,0,0,2.47.05c.68,0,3.65-.76,3.38-1.73-.33-1.19-1.67-1.48-2.62-2-1.73-1-1.36-1.7-3.35-1.8-.52,0-.79-.77-1.13-1.27,1-.36,2-.64,2.62-.8s1.14-1.25,1.74-1.41c.89-.25,1.29-2.64,2-3.32a1.2,1.2,0,0,0,.58.28c.7,0,1.38-.53,2.06-.5.9.05,1.21.52,2.58.42.89-.06,1-1.4,1.62-1.58.24-.06,2.66.85,3.12.94.82.16,1.38-.4,2.14-.46.56,0,.87,1,1.25.92s.83-.63,1.13-.71,2.38,1.51,3.5,1.36.63-1.06,1.26-1.48c.34-.23,1.09.37,1.53.25s2.06-1.5,3-1.75c.45-.13.44,1.44.94,1.47a30.69,30.69,0,0,1,4.86.25c.45.09.68.73,1.13.75.7,0,2.9.32,3.41.06,1-.49,0-1-.11-1.63-.07-.25,1-.9,1.23-1.07s.11-1.54.84-2a2.84,2.84,0,0,1,1.64-.08,23,23,0,0,0,2.13,3.16c.29.33-.38,1.16.06,1.18,1.37.08,2.64-.95,4-.88,1,0,.59,1.17.72,1.66.08.28,1.24.6,1.46.72.38.22.48.88.85.9,1.18.06,2.19,1.17,2.86,1.21s2.83-.95,3.23-.36c.26.39.85-1.56,1.39-1.71.77-.22,1.52.84,2.36.61.32-.09,1.1-.71,1.34-.7.47,0,1.07.74,1.52.44.65-.44-.07-1.56.46-1.92.33-.22.91.28,1.25.19s1-.82,1.47-.94c.09,0-.15.72.21.74.61,0,1.13-.29,1.65.21.27.26.39,1.32.7,1.34.94,0,1.61-.78,2.45-1,1.14-.32,6.15,2.14,6.69-.58.33-1.71-1.16-.2-1.54-.78s-.07-1.22-.56-1.77-6.62-1.22-4-3.54c.83-.74,1.73.59,2.5.37.29-.08.34-1,.63-1.1s.58,1.37,1.07,1.23c.89-.24.55-1.69,1.21-2.13,1.57-1,4.35-.95,4.54-4.51.06-1.2-3.92.19-4.59,0-.89-.24-1.24-1.26-2.19-1.45-1.66-.33-3,.89-4,.56s-3.64-1.68-4.18-1.64-1,.88-1.52,1-.95-.84-1.44-.4a6.27,6.27,0,0,0-.55,1.35c-.44.12-1.57-1.54-2.19-1.66-2.14-.42-2.16-.53-3.37-2.33-.38-.57-1.31.13-1.77-.38-.63-.7-.64-2.55-1.76-2.77-.84-.17-1.29,1.15-1.89,1.32-.87.24-2.14-.62-3.19-.45a4.12,4.12,0,0,0-1.56.71,12.21,12.21,0,0,0-5.51-4.41,27.72,27.72,0,0,0-12.23-2.15c-3.06.08-6.53,1.77-9.59.92l-.47-.12c2.55-1.34,4.58-2.65,7.29-3.4,1.08-.3,3.55,2.18,4.65,1.88s2.33-2.23,3.33-2.5c.06,0,.37.21.43.24a17.61,17.61,0,0,0,4,2.07c1,.21,1.86-1.12,2.45-1.28.76-.21,2.1,1.49,2.9,1.27,1.76-.49,2.69-2.76,4.36-2.3s2.11,1.81,2.89,3c.17.27,9,4.46,9.41,4.58,3.71,1,5-2.47,6.84-3,1.25-.34,2.25,1.9,3.46,2,3.12.16.81-5.45.56-6.36s-5.15.16-6.09,0c-2.06-.41-3.79-3.92-6.47-4.06a41.93,41.93,0,0,1-9.16-1c-4.4-1.22-8.5-1.14-13-2-1.37-.27-1.81,1.39-3,1.32-1.6-.08-2.79-3.22-4.64-3.58-1.11-.22-7.26,2.78-8,.25a28.51,28.51,0,0,0-.77-3.44l1.54.06c.69,0,1.34,1,2,1.15,5.79,1.14,5.88,1.78,11.27.3,2.6-.72,4.46,3.15,9.27,1.82.64-.18,1.67,1.4,2.37,1.54,1.06.21,2.1-1,3-1,3.63.19,6.42,1.45,10.31,1.66,1.51.08,3.2-3.22,4.37-4,.34-.24,3.92.4,4.72-3.62.6-3.08-3.73-1.56-4.12-2.14-1.19-1.78-2.44-1.28-4.12-.82-.34.1-1.36-2-2.19-2.19-2.43-.48-5.38.31-7.73.19-1.51-.08-2.55-2.37-4-2.44s-3,.76-4.13-.44.68-3.83-2.32-4c-1.17-.06-9.33,4.1-10.28.65-.32-1.16,2.71-.12,3.06-.36a1.33,1.33,0,0,0,.48-.49c.28-.5.6-2.73.89-2.93.9-.6,2.81.23,2.92-1.77s-2-1.42-2.13-2c-.43-1.57,2.24-1.59,1-3.44-.75-1.12-4.19.69-4-2.29.13-2.48,3.15-2.24,2.28-5.38a1.78,1.78,0,0,0-1.44-.81c-.69.18-1.46,1-2,1.15-2,.55-4.78-3.07-6.22-3.15-.66,0-2,.95-2.68,0a3.87,3.87,0,0,0-1-.94,5,5,0,0,1-1.21-.88c-1.29-1.92-.93,1.21-2,1.15-2.07-.1-4.56-1.76-6.67-.35-1.3.87-1,3.07-2.83,3-.88,0-1.8-1.13-2.76-1.18-1.77-.1-3.41.56-5.22.47-.7,0-1.66-1.13-2.33-.94-4.22,1.16-2.33,3.81-3.83,3.73-1.77-.09-6.4-2.92-7.87-1.6s1.64,2.74-.74,4.34c-1.26.84-2.43-3-3.88-2.58a.63.63,0,0,0-.2.13c-.06-1.55-.1-3.14-.12-4.73a1.77,1.77,0,0,1,.91.55c.37.41.47,1.27,1.11,1.39,1.64.32,3.39-1,5.1-.92s4.21,1.74,5.74,1c2.73-1.38,1.66-4.66,0-6.46-1.28-1.43-1.79,1.63-3.2.28a12.25,12.25,0,0,1-1.26-2c.91-.69,2-1.21,3-1.86,1.45.74,3.07,2.38,4.46,2.45s2-1.75,3.8-1.65c1.57.08,3.42,2.2,5,2.63,2.54.71,4.57-1.09,7-1,.83,0,1.83,1.56,2.68,1.33,4.3-1.19,7.58.09,10.05-.59.36-.09.24-1.35.23-1.4-.32-1.15-6.94-2.65-7.42-4.4-.24-.87,2.54-.89.95-4-1.06-2.12-2.38-1.55-4.24-2.6s-1.82-3-4.56-3.73c-.86-.24-12.69,3.93-14.75,3.83-.62,0-1.49-1.27-2.31-1.31-2.35-.13-3.43,1.86-5.53,2-1.37.09-1.57-.54-3-.16-2,.54-1.9-2.32-3.78-.84,0-.52,0-1,0-1.53a5,5,0,0,0,1.42-1.12,15.91,15.91,0,0,0,1-1.78c1.83.55,5.1-.94,6.48-2.05a15.5,15.5,0,0,0,1.43-1.7,5.9,5.9,0,0,0,1-2.67c0-.2.39-.64.44-.89,1.69-1.22,2.17-3.74,4.17-4.75.77-.39,7.48,3.09,9.44,4.21.42.24.78,1.23,1.19,1.25,1.1.06,2.23-.48,3.29-.42,1.37.07,4.9,2.92,5.08-.55,0-1,.6-3.12.42-3.77-.31-1.13-2.54-1.1-2.45-2.72s5.29-.24,3-3.63c-.54-.82-1.28.21-1.48-.08-.47-.7-.58-3.23-1.76-3.29s-11.83,1.2-13.3,1.6c-.67.19-.91-3.54-2.33-3.61-3.5-.18-7.68-.48-11.63-.69a2.79,2.79,0,0,1-1.38-.55,1.56,1.56,0,0,0,.19-.14c.54-.43.71-2,.7-2.61a2,2,0,0,1,.32-.9l.27,0a7.13,7.13,0,0,0,1.79,0,8,8,0,0,0,2.37-1.27c.62-.49,1.71-.4,2.33-.9s.84-1.26,1.35-1.8.55-1.27,1-1.64a1.44,1.44,0,0,0,.16-.17c4.28.12,10.42.25,10.43.24,1.7-.85,3.81-2.32,5.65-2.93,1.47-.49,6.46,2.15,9.2,1.47,1.2-.3,2.2-4.09,1-5.23-2.64-2.64-23.9-4.07-24.69-5.65-1.36-2.72-3.55-4.18-6.07-6.7-2-2-1.72-6-2.93-8.37-.75-1.49-2.63-2.13-3.35-3.55-.93-1.88.29-3.24-2.37-3.63l.07,1.74c-2.62,2.62-2,6.59-4.39,9-1.16,1.16-10,6.28-9.21,8,.65,1.3,2.44,2,3.14,3.35.27.54-.12,4.27,1,5.44,1,1,5.24-.61,6.06,1,.47.94.54,3,.79,4.69l0,0a4.2,4.2,0,0,1-1.28.55,5.79,5.79,0,0,0-1.2.18A.27.27,0,0,1,40,123c-.22-.21-.07-.59-.29-.81s-.34-.23-.47-.36l-.18-.09a1.49,1.49,0,0,1,.47.73c0,.14-.33.41-.21.53a1.2,1.2,0,0,0,.41.19,7.87,7.87,0,0,1-2.09.44c-.27,0-1.12.29-1.07.58.07.52,1.33-.13,1.57-.16a10.44,10.44,0,0,0,3.39-.72c.24-.11.7-.48,1.12-.68-.14.85-.27,1.7-.37,2.54a7.6,7.6,0,0,1-1.37.18c-.53,0-1.14-.38-1.66-.2a7,7,0,0,0-1,.42,4.4,4.4,0,0,0-.85.4,3.64,3.64,0,0,0-.39.42,2.91,2.91,0,0,1,.74-.22,6.55,6.55,0,0,0,1.36-.4c.44-.12.74.13,1.18.13a9.46,9.46,0,0,0,1.45-.16,1.63,1.63,0,0,0,.52-.23c0,.39-.08.78-.1,1.16-.15.14-.27.36-.49.44-.49.17-1,0-1.52.14a9,9,0,0,0-3.47,1.7c-.2.2-.61.11-.86.31a10.7,10.7,0,0,0-2.29,1.87c-.57.77-.73,1.78-1.39,2.46-.08.08-.9,1-.87,1,.2.07.89-.41,1.06-.54.65-.51.82-1.24,1.4-1.83.35-.36.2-1,.74-1.23.08,0-.09.38-.13.51s-.1,1,.24,1c.88-.13.12-1.81.88-2.2.4-.2,1.09-.37,1.5-.57s.36-.83.7-1c1.21-.61,2.82-.51,3.94-1.08.17-.09.35-.15.52-.22,0,.31,0,.61,0,.92,0,2.66.83,8.05.24,11.28a1.13,1.13,0,0,1-.36.06c-.52,0-.8-1.36-1.42-1.19-1.22.33-1.91,1.46-2.94,2.14s-2.36-.34-3.37.57c-2.47,2.22-3.79,5.42-7,6.31-.29.09-1.23-.51-1.6-.53-.87,0-1.72,1.09-2.22,1.22-.88.25-2.21-1.21-3.07-1s-1.2,1.55-1.72,1.7c-1,.26-2.56.25-3.47,1.08a6.82,6.82,0,0,0-2.52,5.43c-.42.29-4.33.76-2.87,2.38,2.46,2.74,10.06-1,13.47-1.32.55.57.78,1.67,1.22,2.08.93.87,2.35.6,3.44.57a9.08,9.08,0,0,0,2.13.09,6.51,6.51,0,0,1,1.22-.58c.48,0,1.08.34,1.62.37,1.9.1,3.31,1.95,4.93.24a16.63,16.63,0,0,1,2.39-1.52l.07,0a6.72,6.72,0,0,0,1.76.35c0,4.45-.1,9.46-.26,13.72a2.28,2.28,0,0,1-1.18.21c-1.22-.24-2.12-1-3.27.05-.69.62-2.11,2-3.28,1.75-2.32-.45-3.79-1.17-6.24-.1-1.22.53-.87,2.45-1.86,2.95-1.43.71-2.61.4-3.8,1.65-.48.5-.77,2.52-1.33,2.68-1.3.36-2.13-.91-3.6.63-.54.56-.64,1.63-1.43,1.85-1.72.48-3.61-2.9-5.29-2.43-1.27.35-.58,2.44-1,2.7-1.35.9-3.38.56-4.92,1.59-.42.29-.59,1.75-1.06,1.88-.06,0-1.17.62-1.09.91s2,2,1,1.91c-.55,0-1.05-.87-1.59-.9-.36,0-1,.44-1.62,1C.08,193.39,0,196.68,0,200c0,1.08,0,2.15,0,3.23.31.08.54.14.55.21s-.78,1.29,0,1.33c1.53.08,3.82-1.05,5.2-1.43.32-.09.58,1.95,1.42,1.19,1.75-1.58.52-4.28,3-5,1.06-.29,1.67,1.58,2.51,1.62a20.72,20.72,0,0,0,7-.82c.72-.2,2.18.86,3.32.54,2-.54,2.3-3.07,4.35-3.63.57-.16,1.15-.3,1.72-.45,1.19.94,5.78,1.52,7,1.58a8.46,8.46,0,0,0,4.41-1.35c0,1,.09,2.09.13,3.1-1.54.83-2.81,3.27-3.81,4.07s-1.93-.05-3,.25-1.34,1.63-2.14,2.17-2.45.45-3.35.84c-1.45.63-1.94,2.49-3.57,3.31-2,1-3.54.68-5.42.58-.57,0-1.08.81-1.81.67s-1.36-.94-2.18-1c-1-.05-1.08,1.13-1.8,1.32a11,11,0,0,1-2.23,0c-.8.06-1.44,1-2.25,1.2s-1.87-.51-2.38-.18-.63,1.26-1,1.37c-.59.17-3.62-.48-4.11-1C1.18,213.43,1,212,.58,212a1.61,1.61,0,0,0-.22,0q.47,7.95,1.54,15.72a2.34,2.34,0,0,0,.64.12c.61,0,.79,2,.38,2.31-.18.12-.52-.14-.72-.34q1.08,7.15,2.64,14.14c.85,0,1.68-1,2.59-1.08,3.26-.23,4.13-.64,7.07-2.11.24-.13,1.41.27,1.81.24,1-.07,1.79-1.24,2.67-1.48.54-.15,1.64.13,2.39-.08,1.12-.31,1.09-1.89,1.91-2.43a30.29,30.29,0,0,0,3.25-2.07s.3-1.67.7-3a4,4,0,0,1,.94-.16c1.5.08,2-1.39,3.34-1.75,1.89-.52,4-.77,5.64-1.89a35.42,35.42,0,0,0,3-2.45c-.42,5.68-1,11.35-1.81,16.8-.64,4.44-.2,9,.13,13.63a3.86,3.86,0,0,1-1.19,1.19c-.73.37-1.48,0-2.29.37-1,.44-1.33,2-2.31,2.23s-2.15.13-3.08.65-1.39,1.63-2.34,2.11a19.42,19.42,0,0,1-2.66,1.2c-.61.17-1.62-.2-2.13.26-1,.92-1.38,2.37-2.33,3.36-1.8,1.89-4.85.95-6.56,2.74a2,2,0,0,0-.48,1.06c1,2.67,2.09,5.31,3.22,7.92a2.7,2.7,0,0,1,1.22-.16c.24.05.51.49.67.48,1-.07,1.83-.78,2.81-.91.59-.07,1,.63,1.56.37s1.19-1.12,1.77-1.29,1.42.48,2,.31c1.33-.36,2.42-1.39,3.64-2,.66-.33,2,0,3.45-.75.48-.25,1,.5,1.34.76a3.79,3.79,0,0,0,2.33,1.18c-.72,6.75-1.24,13.5-2.56,20.11a28.89,28.89,0,0,1-2.72,8.16s-.48.57-.21.84c1.79,1.79,2.27,1.19,3.35,3.35a12.09,12.09,0,0,1,.69,4.35q3.63,5.22,7.57,10.19a86.22,86.22,0,0,1,1.36-11.4c.84-3.34.59-7.89.12-12.7,2.86-.43,6.75-.61,8.14-.79,8.39-1.07,17.58.63,25.47,1.05,2.55.13,11.53,4.45,13.36,4.54.13,0,.29-.2.46-.52a2.16,2.16,0,0,1,.31,1c-.1,2-3.13,2.1-4.45,2a10,10,0,0,0-4.36.56c-.62.17-2.26-1.4-3-1.44s-.79,1.83-1.39,2c-2.21.61-5.18-.35-7.8.37a1.22,1.22,0,0,0-.74.85c-.25,4.74,9.69,3.79,11.86,3.19,1-.28,1.65,1.9,3.49,1,4.63-2.33,14,5,16.59,5.12.94,0,1.06-1.1,1.74-1.29,2-.54,6.22.82,8.33.93,1.28.07,2.07-1.27,3.22-1.21,1.35.07,2.35,1.93,3.53,2.25,6.78,1.89,11.1,3.06,18.29,2.55.81-.06,2.5,1.08,3,.94.28-.08.41-.27.62-.66,1.67-2.93-7.54-5.81-12.49-6.07-1.29-.07-4.76-2.71-5.74-3.26s-5.67-.06-6.12-1.71c-.09-.33,6.78-1,7.25-1.59a1.22,1.22,0,0,1-.27,0,11.09,11.09,0,0,1-3.33-1.48c-1.17-.48-2.2-1-2.32-1.48s1.52.87,1.53.87a4.93,4.93,0,0,0,.79.61c1.66.68,3.59,1.26,3.63,1.4s0,.06,0,.09c.84,0,1.6-1,2.16-1.16.83-.23,10.44,2.77,11.8,2.39.54-.14.08-3.72,1.32-4.56,1-.69,2.83.51,3.94.21C145,306.36,151.87,300.68,151.43,299.09Zm-105-129.48c.74-.2,1.88,2,2.8,1.79,1.35-.38,3.15-1,4.74-.78-.28.24-.55.49-.79.68-.44.35-1,.69-1.55,1-1.15-.81-3.39-.44-3.94-1.26-.23-.33-1.07-1.24-1.57-1.27a2.2,2.2,0,0,0-.36,0A6.63,6.63,0,0,1,46.48,169.61Zm7.85-19.54c-.14.5-.25,1.05-.34,1.23a11.46,11.46,0,0,1-2.94,3.61,7.58,7.58,0,0,1-3.39,1.25,5.44,5.44,0,0,0-1.11.22,4.85,4.85,0,0,1,.73-1c.82-.88.91-2.36,1.9-3.14a22.23,22.23,0,0,1,3.26-2.38A12.17,12.17,0,0,0,54.33,150.07Zm-.1-26.84c.19,0,1.38.09,3,.14a4.41,4.41,0,0,1-.43.77,24,24,0,0,1-2.14,2.14c-.71.57-1.51.27-2.25.87A6.09,6.09,0,0,1,51,128.28a8.44,8.44,0,0,1-1.48-.2c.46-.9,1-1.71,1.4-2.65a8.8,8.8,0,0,1,1.11-2A6.14,6.14,0,0,1,54.23,123.23Zm-3.27.49a5,5,0,0,0-.49.87c-.62,1.32-1.34,2.48-2,3.82-.15.33-.73.68-.72,1.13s.16,1.53-.22,2c-.18.22-.39.44-.6.66-.87-.75-1.73-1.73-2.54-2.51a15.69,15.69,0,0,0-.45-1.85,30.84,30.84,0,0,1-.13-3.23C45.38,125.3,48.45,124.37,51,123.72Zm-7.19,34c0-2.32.23-5.42.49-8.8,1.62,0,3.19,0,4.2,0a25,25,0,0,1,2.76.56A11.69,11.69,0,0,0,49,150.85c-1.83,1.47-2.33,5-4.33,6.61-.26.21-.6.73-.94,1.09C43.76,158.29,43.77,158,43.77,157.76Zm-8.2,1.09c-1.06,0-1.87-.66-2.71-.35-.31.11-.95-.7-1.26-.59-1,.36-2,.27-3,.64-.08,0-.55-.19-.68-.19-1.54,0-2.8.09-3.36-1.43a2.75,2.75,0,0,0-.35-.51c1.84.19,5.16,1.18,7,.28,1-.5.93-1.87,1.76-2.43l.21-.13a38.76,38.76,0,0,1,6.31,3.08C38.2,157.67,36.75,158.82,35.57,158.85ZM41.22,157c-1.36-.77-4.45-2.66-6.09-2.75a6.59,6.59,0,0,1-1.18-.58,25.24,25.24,0,0,0,3.2-1.53c.7-.47.84-2.42,1.7-2.66a16,16,0,0,1,2.93-.39c.14,2,.21,4.88.22,8.17A2.29,2.29,0,0,1,41.22,157Zm-5,39.79c-1.25-.06-3-.56-4.49-.82a9.22,9.22,0,0,0,1.38-.75c1.15-.77-.53-2.51.46-3.17,2-1.32,3.51-2.09,5.3-3.29a5.3,5.3,0,0,0,1.51-1.83c-.11,2.53-.07,5.36,0,8.2C39.05,196,37.72,196.85,36.21,196.77Zm-9.86,32.94a4,4,0,0,0-1.57.63,13.6,13.6,0,0,1-2.1.55c-1,.07-1.76-.88-2.8-.8s-3.05,1.61-4.9,1.51c-1.27-.06-2.47-.53-3.57-.59-.15,0-.11.07-.26,0l0,0a1.66,1.66,0,0,1,.42-1.59c1.26-1.13,3.11-.55,4.26-1.75s-.41-2.25.62-3.17c1.65-1.48,3.77.2,5.32.28.3,0,.77-.57,1-.76a3.47,3.47,0,0,1,1.52-.67c.42.87,1.67,1.14,2.27,2s3.67,1.89,5.92,2.76C30.37,229,28.29,229.82,26.35,229.71Zm13.95-6.33c-2,0-2.29,2.7-3.78,3.11a18.9,18.9,0,0,0-2.12.77c-1.9-.81-5.83-2.41-6.9-3-.59-.34-1.19-1-1.82-1.39a2,2,0,0,0,.38-.21c1.05-.7,2.1-2.63,1.78-3.81-.09-.31.87-.2,1.08-.3a5.08,5.08,0,0,0,.84-.61,7.84,7.84,0,0,0,3.49.33c1.83-.51,5.34.18,7.14.27a.55.55,0,0,0,.18,0C40.5,220.13,40.41,221.76,40.3,223.38Zm.35-6.52c-2.38.5-7.35-.18-8.94-.27l-.8,0a.92.92,0,0,0,.11-.37c.11-2-.85-1.54-2-3.2-.3-.45,0-2-.18-2.44-.25-.92,2-1.33,2.32-1.56,2.35-1.58,3.24-2.39,5.95-3.14.69-.19,2.28-1.84,3.56-3.05.07,1.84.13,3.54.13,5C40.84,210.75,40.77,213.79,40.65,216.86Zm11,51.45c-.83.23-1.56.5-2.4.73a3.43,3.43,0,0,0-.5.21c-1.47,0-2.81.05-4,.13,0-.81.08-1.61.1-2.42l.64-.46c.68.35,1.86.05,2.53.08.38,0,.67.42,1.08.3.59-.16,1.17-.71,1.79-.76a11.71,11.71,0,0,1,3.69.85c1.06.29,2-.39,3-.4C55.6,267.74,54.29,267.59,51.68,268.31Zm-6.91-29.44a.52.52,0,0,1,.18,0c.5,0,.43,1,1,1,2,.11,3-1.54,4.86.26,1.2,1.14,2.13,2.76,3.12,3.86-.32.14-.76.48-.91.52-.65.18-1.09-.5-1.68-.54s-.47.93-.79,1c-.65.18-2-1.1-2.46-1-.58.16-.87,1.1-1.45,1.26-.4.11-.69-.81-1.09-.83a4.66,4.66,0,0,0-.72,0c0-1.06,0-2.13,0-3.19C44.81,240.46,44.79,239.66,44.77,238.87Zm16.54,18.54c-1,.9-2.79,1.38-3.93,2.15a5.36,5.36,0,0,1-2.85.24,3.08,3.08,0,0,0-.16-.28c-.47-.71-1.71-1.08-2.26-1.7-.42-.47-2,.43-2.64.06s-.6-1.14-1-1.79A4.55,4.55,0,0,0,45,253.92l-.09-6.68c.35.52.67,1.06,1.21,1.21.7.19,1-.43,1.69-.6.43-.12.81,1.1.84,1.1,3,.15,2.77.88,3.33,2.93,0,.14.44-.09.65-.23,0,0,0,0,0,0,.18-.12.12-.07,0,0-.68.49.85.8,1.05,1.09.32.48.27,1.93,1.08,2s1.11-.91,1.64-1.05c.19-.06.75.76.84.9a2.07,2.07,0,0,0,1.79.7c.46,0,.48.72.94.74s1-.84,1.5-.81c.26,0,1,.39,1,.37.4-.1.83-.71,1.26-.83C62.89,255.62,62.19,256.62,61.31,257.41Zm22.41-19.28c-1,.07-1.47,1.27-2.19,1.47s-.77-.9-1.25-.92c-.68,0-1.3.78-1.79.76-.79,0-1.47-.83-2.27-.77s-.8,1.28-1,1.33c-.66.18-1.4-1.25-2.21-.52a16.74,16.74,0,0,0,.53,4.57c.26.29,2.41.44,2.41.53,0,.65-1,.56-1.08,1.17-.07,1.34.35,1.62-.85,2.22-.19.1-.5.55-.71.54s-.63-.53-.95-.54-.61.69-.83.36c-.64-1,.14-2.34-.28-3.18s-1.79-1.19-2.08-2.22c-.14-.53,2.26-1,.12-2.23-.51-.29-1,1.28-1,1.29-.67.18-1.51-.65-2.36.11-.37.34.15,1.71-.48,2.13-.44.3-1.37-1-1.89-1.07-.84,0-1.08,1-1.56,1.09s-.81-.77-1.22-.79-1,.74-1.17.59c-.36-.41-.82-1.83-1.44-1.87-1.16-.06-.32,1.36-.85,1.5-.33.09-.84-.7-1.23-.59-.54.15-.31,1-.58,1.32-.11-.74-1.33-2-1.56-2.33-.83-1.24-2.15-2.34-2.75-3.23-.24-.36-.68-1.21-1.27-1.24-1.13-.06-2,.26-3.14.2a20.23,20.23,0,0,1-2.08-.68c-.09-2-.22-4-.35-6.09.22-.37,1.1-.69,1.33-.84a7.42,7.42,0,0,1,6.77-.54c4,1.47,8.49.74,12.66,1.56,3.69.73,6.22,2.49,9.81,3.48,1.36.38,2.88.14,4.19.51,1.81.5,3.26,1.8,4.74,2.92ZM86.88,232c3.31.18,6.25-1.69,9.56-1a15.28,15.28,0,0,1,8.69,4.52,15.41,15.41,0,0,0,1.79,1.45c-.54-.11-1.13-.57-1.73-.27a17.29,17.29,0,0,0-2,1.48c-.12.08-.63,1.06-.71,1.06-.58,0-.94-.86-1.58-.89s-.51.87-1,1c-.94.26-2.2-1.42-2.31.57,0,.3-.45.5-.37.83l-.43-.39c-.26.94,1.33.77,1.19,1.45-.07.38-1,1.09-.93,1.45a30.63,30.63,0,0,1,1,2.94c-.67,0-1.29,0-1.42-.49-.08-.28.8-.71.7-1.06s-.94,0-1-.38c-.14-.5-.17-1.34-.28-1.72s-1.67.44-2,.43-.25-1.11-.45-1.41c-.41-.6-1.2-.1-1.7-.13-1.61-.08-1.59-.56-3.16-.13a5.81,5.81,0,0,1-1.13-.22c-.22-.82,2-1.13,1.88-1.64s-1.4-1-1.68-2c-.17-.6-1,.31-1.36.84a46.77,46.77,0,0,0-5.53-3.4c-.64-.36-1.93-1.33-2.58-1.15-1.58.44-3.66-.57-5.55-1.34,1.14-.58,2.4-1.41,3.73-1.15A74,74,0,0,0,86.88,232ZM52.5,197.63c1.72.34,7.61,4.2,7.9,5.24,0,.09.45,1,.84.87,1.61-.45,2.67.82,4.57.68,1.63-.12,2.31-2.41,3.87-.09.69,1,0,2.15.27,3.21,0,.14,6,5.25,7,6.05-1.12,1.73-2.55,3-3.78,4.79-.45-.27-1.2-.52-1.38-.79-1.25-1.87-4.27-2.7-5.92-4.27-3.8-3.63-9-8.4-14.37-8.68a59.78,59.78,0,0,0-6,.06,26.35,26.35,0,0,0-.28-6.56c0-.19-.07-.4-.1-.59A21,21,0,0,1,52.5,197.63Zm-8.1,16.62c.29-2,.66-4.49.91-7a3.16,3.16,0,0,0,.67.29l-.66-.41,0-.29c3.43-.85,8.81.53,12.2,1.19,3.12.62,8.76,6.31,10.61,8.64A35.54,35.54,0,0,0,71.27,220a.44.44,0,0,0-.21.36c0,.64.55,1.29.42,1.95-.24,1.2-2.47,2.08-2.17,3.15s3.17,3,5.89,4.27a7.27,7.27,0,0,0-1.93.17,9.19,9.19,0,0,0-2.73,1l-.72.36a2.58,2.58,0,0,0-1.21-.63c-6.7-.35-13.54-2.62-20.31-3A10.55,10.55,0,0,0,44.23,229c-.11-1.84-.2-3.69-.24-5.51l.1,0H44A55,55,0,0,1,44.4,214.25ZM89.78,296l-2.55-.12a10.66,10.66,0,0,1,1.8-2c.37-.25,1.41-.54,1.45-1.26.07-1.35-1.52-1.26-2.29-1.3-.61,0-1.09-.9-1.69-1.07s-1.21.14-1.83.11c-1,0-1.81-1-3.57-.88-.58,0-2.38,0-2.71.55l-.44-.17c.13-.15-.36-.14-.44-.12a17.66,17.66,0,0,1-2.84.78,2.61,2.61,0,0,1-.4,0c-.3-.05-.58-.47-.87-.49s-1,.66-1.38.78c-.77.21-1.59,0-2.41.2-.52.14-1,.67-1.5.81s-1.35-.3-1.94-.26-2.55.39-2.3,1.3c.12.44,1.5.64,1.79.7,1.6.32,3,.32,4.63.65,1.19.24,2.32,1.14,3.6,1.21,1.88.09,3.8-1,5.58-.48a14.46,14.46,0,0,1,2,.81c-10.09-.3-20.79-.44-30.49-.95a23.64,23.64,0,0,0-6.67,1c-.56-5.24-1.08-10.45-.5-14.48.41-2.92.68-5.83.87-8.75a80.6,80.6,0,0,1,11.77.54c3.8.74,13,1.13,15.61,5.05.6.91.63,1.83,1.23,2.73s14.64,8.46,15.91,8.53c3.46.18,6.87,1.56,10,.93,1.64,1.67,4.48,4.39,5,4.48,1,.21,2.86-.55,3.63.29.11.13.2.29.3.43a44.69,44.69,0,0,1-5.76.27c-1.38-.07-1.29-1.74-2.27-1.79-.77,0-1.88,1.08-2.62,1s-1.27-1-1.91-1.08C93.13,293.42,91.36,294.63,89.78,296Zm17.78,12.65c-1.78,1.19-4.06,1.12-6,1.65s-5.77-3.54-9.11-6.52a16.24,16.24,0,0,0,1.08-3.85,2.46,2.46,0,0,1-.06-.44c1.76.66,3.91,2.91,5,3,1.22.06,1.14-1.28,1.85-1.48,3.68-1,6.29,4.18,8.94,4.32l1.57.08a14,14,0,0,0-3.23,1.5C106.63,307.46,107.9,308.38,107.56,308.61ZM39.08,121.69l0,0Zm82.85,164.09s0-.07,0-.19A.32.32,0,0,0,121.93,285.78Z"/><path class="cls-8" d="M291.7,291.51h-.17l.22,0S291.74,291.51,291.7,291.51Zm-60.15-9.29,0,.42A.94.94,0,0,0,231.55,282.22Zm36.8,3.2a1,1,0,0,0,.25.08,1.5,1.5,0,0,0-.57-.23Zm23.53.33-.15-.05C291.66,285.7,291.76,285.73,291.88,285.75Zm-9.64-22.39a.21.21,0,0,0,.18.05.43.43,0,0,0,.18-.12C282.43,263.27,282.19,263.31,282.24,263.36ZM252.38,256l0,.42A.76.76,0,0,0,252.38,256Zm.08.79h0C252.52,256.56,252.54,256.5,252.46,256.75Zm54.36,13.45-.15-.05C306.6,270.15,306.7,270.18,306.82,270.2ZM231.62,283h0C231.69,282.81,231.71,282.76,231.62,283Zm32.93,8.38-.17-.05C264.32,291.33,264.46,291.37,264.55,291.38ZM336.47,267a1.56,1.56,0,0,0,.39.15,2.12,2.12,0,0,0-.91-.41Zm-13.29.08,0,.42A.76.76,0,0,0,323.18,267.06Zm-41.08,22h0a1.55,1.55,0,0,0-.26.09A2,2,0,0,0,282.1,289.07Zm-19.52,13a.9.9,0,0,0-.24,0h0C262.39,302.12,262.58,302.05,262.58,302.05Zm20.14,1.49.11,0C282.9,303.47,282.77,303.49,282.72,303.54Zm19.14-.67.14,0C301.94,302.85,301.79,302.84,301.86,302.87Zm21.4-35h0C323.33,267.66,323.35,267.6,323.26,267.85Zm2.5,23.82.43.37a1.94,1.94,0,0,0,.33.2A1.58,1.58,0,0,0,325.76,291.67ZM345.44,287c0-.08-.33-.18-.52-.19l.13.08C345.17,287,345.44,287.2,345.44,287Zm3.11-9.54h0C348.62,277.31,348.64,277.26,348.55,277.5Zm-.08-.78,0,.41C348.49,276.93,348.51,276.76,348.47,276.72Zm20.84-26.26,0,.42C369.33,250.68,369.35,250.5,369.31,250.46Zm10.45,33.1c.08-.1-.24-.09-.37-.12s-.81-.29-.91-.52.45-.09.52-.09,0-.24.12-.31.26,0,.27,0c.14-.29-.5-.54-.58-.73s.49-.07.33-.24-.24-.42-.41-.62l-.42-.42s.48.07.39,0l-.42-.46s-.38-.29-.33-.34.28.09.36,0-.36-.44-.42-.58.1-.08.09-.12a.39.39,0,0,0-.08-.1,2.2,2.2,0,0,1,1,.54c.08.08.31.2.38.05.23-.51-.57-.7-.73-.88s-.24-.08-.18-.2.34-.15.42-.18.14-.26.21-.33.15-.07.21-.13-.29.06-.35.07-.93.27-1,.13.82-.63.6-.87c-.06-.06-.25.06-.3.08-.33.09-.62.33-1,.41-.05,0-.27.16-.33.1s.22-.42.17-.54-.46.29-.35,0,.56-.8.26-1-.84.49-1.1.59c-.07,0-.33.2-.4.13s.33-.41.23-.52-.49.25-.58.29a1.89,1.89,0,0,1-.33.15c-.06-.07.09-.36-.11-.28s-.62.43-.71.33.23-.75.1-.9-.42.33-.47.36a3.6,3.6,0,0,1-1,.49c-.13.05.24-.33.24-.33s-.27.1-.28.1a1.14,1.14,0,0,1-.45.1,4.24,4.24,0,0,0-1.47.16,2,2,0,0,1-.47.07l0-.3c.19-.07.39-.17.31-.42a.57.57,0,0,0-.39-.35l-.09-.65c.13,0,.24-.07.27-.15.14-.3-.2-.62-.43-.87a13.39,13.39,0,0,1-.12-2.62,4.43,4.43,0,0,0,.78.19,1.22,1.22,0,0,0,.3.08c0-.05-.26-.37-.23-.39.2-.11.76.25.93.06s-.28-.29-.09-.39.84.21.93,0-.1-.19-.14-.26a8,8,0,0,1-.56-.87c0-.05-.22-.27-.19-.31s.59.32.68.34a2.82,2.82,0,0,0,1.29-.08c.08,0,.88-.21.84-.31s-.22-.06-.28-.07c-.29-.08-.68,0-.89-.21,0,0,.13,0,.14,0a.76.76,0,0,0,.33-.23c0-.05-.06-.12,0-.16s.63,0,.8-.23-.21-.21-.17-.3.57-.41.49-.49a6.21,6.21,0,0,0-.63.28,2.81,2.81,0,0,1-1.87.1c-.09-.05-.29,0-.37-.05s.54,0,.47-.18-.35-.12-.4-.15-.2-.12-.12-.16c.32-.11.72-.07,1-.28.08-.06.27-.24.19-.33s-.61,0-.71.05a4.08,4.08,0,0,1-1.84.08,2.34,2.34,0,0,1-.91-.47,26,26,0,0,1-.05-2.81,1.29,1.29,0,0,0,.35.22,6.87,6.87,0,0,1,.87.21c.07,0,.43.27.51.18s-.45-.33-.3-.41.69.16.79,0-.4-.44-.35-.49.33,0,.42-.05a6.12,6.12,0,0,0,.93-.26,1.75,1.75,0,0,0,.64-.41.68.68,0,0,1,.21-.12l-.38,0c-.22,0-.64.09-.84,0s.25,0,.28-.11-.31-.31-.35-.38.23,0,.26-.05.66-.43.61-.49-.53.08-.61.1a2.28,2.28,0,0,1-1.29-.2c-.53-.2.39-.16.35-.23s-.48-.18-.63-.24-.23-.23-.32-.33.21,0,.25-.1a1.59,1.59,0,0,0,0-.52s-.32.27-.42.16.19-.1.19-.1l-.38-.11a1.26,1.26,0,0,1-.36-.15c0-.24,0-.49,0-.75.16-.05.29-.09.25-.17s-.14-.18-.24-.33v-.29c.18.06.5.19.41,0s-.25-.41-.41-.7c0-.26,0-.53,0-.79.2.07.48.3.61.16s-.22-.67-.16-.79.36,0,.44-.06-.35-.63-.35-.64.24.12.31,0-.25-.32-.28-.36a3.22,3.22,0,0,1-.54-1c-.07-.28-.12-.67-.19-1,0-.73-.06-1.42-.06-2l-.23-.15c0,.14-.1.37-.16.61l0-1a7.8,7.8,0,0,1-.21.81,8,8,0,0,1-1.94,3.43c-.13.14.36.21.21.37s-1.84.16-1.64.6c.12.26.83.12.67.46,0,.08-1,.48-.71.65a2,2,0,0,0,1.85-.28c.21-.11.29.26.51.14s.58-.43.67-.32-.33.83-.12,1.06l.05,0c-.05.49-.08,1-.09,1.51-.44.71-1.38.78-2,1-.3.11.29.57.26.61s-.91.17-1.19.32-.12.41-.29.51-.71-.18-1-.28-.22.1-.47.23c-.45.25-2-.54-1.47.61.27.59,1.58.75,1.73.92s-.44.31-.34.42c.27.29,1.22-.23,1.44,0,.05.06,0,.26.16.32.28.15.88-.61,1.06-.41s-.26.46-.17.55,1.14.14,1.39.14a6.53,6.53,0,0,0,0,1c.1.11.61-.38,1-.71,0,.36,0,.71,0,1,0,.11,0,.22,0,.34a.65.65,0,0,1-.31.25c-.28.06-.82.11-1,.32s.2.2.05.28-.71-.19-1,0-.23.64-.38.88c-.31.51-1,.81-1.23,1.12a.89.89,0,0,1-.67.09c-.05,0-.14-.27-.21-.19a1.61,1.61,0,0,1-.55.28s.14.17.08.23-.95-.29-1.22-.14-.06.48-.21.56-.92-.25-.8.14.51.29.63.56-.53.26-.38.6.65.2.8.37-.29.44-.08.55a2.53,2.53,0,0,0,1.39-.09c.05,0,.16-.28.21-.23s-.17.64-.08.83.5-.42.59-.32-.09.6,0,.69.77-.91,1.05-.6-.53,1.69-.5,1.72c.28.31,1.16-.9,1.22-.84.25.28-.51,1-.51,1.16s.68-.55.8-.28c.05.11-.12.42-.08.47s1.19-.89,1.35-1,0,.49.17.37.45-.57.68-.78c0,.48.05,1,.08,1.46a4,4,0,0,1-.3.95c-.09.13-.84.69-.8.74.27.29.81-.34,1.2-.5,0,.48.08.95.13,1.38a5.44,5.44,0,0,1-.57.78c-.07.09-.44.49-.38.56s.82,0,1.11.2l0,.66c-.45.71-1.31.43-2,.67-.29.1,0,.52-.22.65s-1.12-.25-1.35,0c-.06.07,0,.41-.08.46-.41.23-1.4-1.1-1.65-.83s-.39.6-.88.6c-.24,0-.57-.51-.68-.28-.21.48-.37.18-.8.42s-.26.89-1.14.65c-.36-.1-.92-.88-1.18-.88s.11.39,0,.51-.53-.3-.67-.14.34.59.25.69c-.23.25-.92.18-1.18.47,0,0,.41.3.21.41s-1.48-.18-1.22.37a4.78,4.78,0,0,0,.8,1c.15.17-.43.09-.26.28a6.47,6.47,0,0,0,1.61.83c.12.06.54-.1.55-.09s-.87.61-1,.65-.62,0-.46.13,1.11.24,1.43.33a.72.72,0,0,0,.29,0c-.21.43-.52,1.05-.68,1.29s-1.48,1.41-1.2,1.57.88-.3,1-.13-.69.77-.69,1,1.56-.23,1.6-.18-.39.5-.23.69.56-1,.57-.95-.21.55-.23.63a9.71,9.71,0,0,1-.51,1.76c-.33.72-1.83.79-1.83.81s.2,0,.29.07a1.4,1.4,0,0,0,1-.13s.4-.19.4-.19c0,.24-.94.72-.69,1,.11.11.72-.19.52.25l0,.07c-.12-.05-.24-.1-.28-.06s0,.16,0,.21-.36.17-.52.13-.58-.27-.63-.16.33.56.07.7-1.26-.06-1.63-.16c-.07,0-.58-.19-.63-.13s.13.72,0,.95-.62-.06-.77.11c0,0,.38.29.33.41a1.2,1.2,0,0,1-.61.46c-.05,0-.42,0-.42.05s.28.14.32.15a4.89,4.89,0,0,0,1.13.21.88.88,0,0,0,.28,0s.18-.05.18,0c0,.23-.57.78-.74.82s-.27,0-.31.06.74.12.75.12-.3.3-.33.36.28.07.31.11-.23.18-.14.28.41-.06.49-.08a12.34,12.34,0,0,0,1.54-.56c.07,0,.58-.39.63-.34a.2.2,0,0,1,0,.13.39.39,0,0,0,0,.14,3.61,3.61,0,0,1-.62.94l-.23.23a1,1,0,0,0,.37-.08c.08,0,.49-.31.56-.23s-.15.3-.09.36.25-.05.33,0-.25.41-.17.5a1.86,1.86,0,0,1-.3.19c-.3.11-1.68,0-1.77.19-.22.48,1.38.35,1.25.63s-.77,0-1,.25.17.38.06.5H356a1.46,1.46,0,0,0-1,.25c-.31.17-1-.47-1.19-.25s.15.32.22.37c.55.41,2.7-.05,2.92.19s-.73.57-.9.83c-.29,0-.79.53-1,.61-.06,0-.33.21-.39.13a0,0,0,0,1,0,0,.76.76,0,0,0,.21-.32c0-.06.07-.12,0-.15a.1.1,0,0,0-.12,0c-.28-.31-1.08-.21-1.54-.06,0-.15.08-.28,0-.34s-.41.32-.46.36l-.1.06c-.13-.07-.4-.11-.26-.29s.8-.11.9-.38-.51-.21-.43-.43.58-.27.52-.43-.53,0-.65-.16.42-.34.31-.48-.4.08-.48.11c-.6.18-1.1.57-1.72.7-.36.07-.72.17-1.08.26,0,0-.6.22-.6.17,0-.21.83-.59.94-.86s.05-.24,0-.23-.22.2-.24.17.15-.16.24-.17c.21-.22.45-.58.36-.69s-.41.28-.47.32l-.76.5c-.09-.11-.2-.23-.3-.33a12.56,12.56,0,0,1-.11-2.61,5.76,5.76,0,0,0,.77.19,2.37,2.37,0,0,0,.31.08s-.27-.37-.24-.39c.2-.11.76.24.94.05s-.28-.28-.1-.38.84.21.94,0-.1-.19-.14-.26a9.15,9.15,0,0,1-.56-.87c0-.06-.23-.27-.19-.31s.59.31.68.33a2.64,2.64,0,0,0,1.28-.07c.09,0,.89-.22.84-.31s-.21-.06-.28-.08c-.28-.08-.67,0-.89-.2,0-.05.14-.05.14-.06s.29-.13.33-.23-.05-.11,0-.15.62-.05.79-.23-.2-.21-.16-.31.57-.4.49-.49a5.57,5.57,0,0,0-.63.29,2.87,2.87,0,0,1-1.87.1c-.1-.06-.29,0-.37,0s.54,0,.46-.18a3.89,3.89,0,0,0-.39-.16s-.21-.12-.12-.15c.32-.12.72-.07,1-.28.09-.06.27-.25.19-.34s-.6,0-.7.06a4.23,4.23,0,0,1-1.84.07,2.86,2.86,0,0,1-.82-.38,5.2,5.2,0,0,1,.68.06c.06,0,.47-.32.65-.38s.7,0,.77-.16c.16-.4-1.33.26-1.08-.05s1.45-.26,1.9-.54c.09-.06.41-.57.35-.65s-.87.64-1.08.38c0,0,.6-.65.51-.75s-.64.16-.64.16c0-.23.39-.43.47-.65s-.12-.2,0-.48a2.27,2.27,0,0,1,.08-.22l.51-.16a1.76,1.76,0,0,0,.63-.41,1,1,0,0,1,.21-.13l-.37,0a2.91,2.91,0,0,1-.78,0,.17.17,0,0,0,0-.07c.09,0,.21,0,.23-.05s-.32-.31-.35-.39.22,0,.25-.05.67-.42.61-.49-.53.08-.61.11a2.16,2.16,0,0,1-1.28-.21c-.53-.19.39-.15.35-.23s-.49-.18-.63-.23-.24-.23-.33-.33.22,0,.26-.11a1.52,1.52,0,0,0,.05-.51s-.32.27-.42.15.18-.1.18-.1l-.37-.1a1.9,1.9,0,0,1-.37-.15c0-.24,0-.5,0-.76.17,0,.3-.08.26-.17s-.14-.18-.24-.33v-.29c.18.07.5.2.4,0s-.25-.41-.4-.7,0-.53,0-.79c.19.07.48.3.61.16s-.22-.67-.16-.8.36,0,.44-.05-.35-.64-.35-.64.24.12.3.05-.25-.33-.28-.36a3.39,3.39,0,0,1-.54-1c-.06-.28-.11-.67-.19-1,0-.74-.06-1.42-.06-2l-.22-.16c0,.15-.11.38-.16.61l.05-1a7.14,7.14,0,0,1-.21.81,10.29,10.29,0,0,1-.56,1.47l-.17-.17c-.51-.63-.43-.79-1.12-1.07-.22-.09-.74-.54-.52-.54s.33.28.43.32c.56.23,1.38-.48,1.73-.91s-1.09.4-.95,0c.07-.17.4-.28.51-.43s.85-1.68.69-1.88-.54.31-.64.38c-.62.38-1.16,1.12-1.81,1.39a3.83,3.83,0,0,1-1.31.22l0,.05c-.18.23-.78-.16-.78-.16a4.77,4.77,0,0,0,.74.11h.07c0-.17-.3-.4-.37-.59s.47-.32.47-.32a.74.74,0,0,1-.34-.17c-.06-.07.21-.21.12-.32-.46-.58-1.42.8-1.89.22a4.05,4.05,0,0,1,.08-2.1c.13-.16.79.47.91.32s-.56-.65-.6-.75.22,0,.3-.11-.2-.42-.26-.64c0-.06-.23-1.13-.22-1.13s.37.47.52.54c.45.18,1.52.35,1.9-.11.18-.23-.44-.75-.43-.75s.8.22.64-.17c-.07-.19-.5-.21-.64-.21s-.36,0-.31-.06c.74-.45,1.65-.22,2.33-1.07.11-.14.55-.57.48-.75s-1.2-.08-1.58.09c-.08.07-.16.13-.1.07a.2.2,0,0,1,.1-.07.89.89,0,0,0,.15-.15c-.08,0-1.33.23-1.33.06s.23,0,.34-.06,1.3-.59,1.12-.8c-.32-.41-1.44.52-1.94.21a5.18,5.18,0,0,1-1.2-1.18,1.74,1.74,0,0,1-.18-.48s.44.45.65.32-.54-.73-.39-.92.48.11.61-.05-.45-.45-.52-.54c-.27-.33.16-.49-.09-.8a5.89,5.89,0,0,1-.39-.86c.11-.13.46.4.61.21s-.06-.71-.33-1.09l0,0c-.16.19-.47-.6-.47-.6a7,7,0,0,1,.49.58c.19-.3-.19-1.22-.28-1.44s.23-.23.09-.59c-.07-.16-.57-.85-.56-.86s.5.36.6.11-.11-.66-.17-.86a4.66,4.66,0,0,0-.77-1.94,2.25,2.25,0,0,1-.18-1,6.14,6.14,0,0,0-.08,1.56l-.12-.46a20.67,20.67,0,0,1-1.48,2.4c-.13.17-1,.75-.77,1s1.07-.38,1.07-.27-.36.55-.3.59.89-.14.73.43c0,.19-.29.31-.38.43s.15.17.13.27c-.09.33-.76.67-1,.75s-1.08.37-1.07.38c.35.44,1.52-.36,1.81,0s-.68,1.2-.61,1.29.46-.24.56-.11-.24.28-.08.37c.48.3.81.07.64.7-.34,1.29-2.23,1.94-3.14,1.94a1.81,1.81,0,0,1-.52-.07.2.2,0,0,1,0,.23c-.18.46-1.16,0-1.46.16s.27.58.08.81c-.32.4-1.39-.31-1.68.05,0,.07.18.35.22.43a3.4,3.4,0,0,0,1.08.92,4.4,4.4,0,0,1-.48,0c-.14,0-.85-.13-1,0s.52.38.13.54c-.09,0-.94,0-.82.27.43,1.06,2.37.75,3.11.75.23,0,.53.06.73-.11s.45-.31.39-.16a3.68,3.68,0,0,1-1,1.08s.38-.17.38,0-.88.35-.73.53,1.15-.19,1.34-.27.39-.39.39-.21-.68.51-.56.81,1.06-.29,1.2-.38c.37-.23-.08.43,0,.48.16.21.9-.59,1.12-.32s-.43.75-.34.86.39-.19.47-.21,1.33-.81,1.42-.7a3.89,3.89,0,0,1,.18,2.09,1.5,1.5,0,0,1-.65.38,3.37,3.37,0,0,0-.43.05,1.15,1.15,0,0,1-.26.38,7.82,7.82,0,0,1-1,.48s.7-.06.61.17c-.28.69-1.66-.08-1.94.26-.1.12,0,.4-.3.27s-.9-1.18-1.34-1.18c-.16,0,.2.59,0,.59A2.42,2.42,0,0,1,335,276c-.11,0-.34-.32-.34-.16s.54.31.26.43a2.09,2.09,0,0,1-1.43-.38c-.07-.05-.44-.36-.51-.27-.24.3.19,1.3-.22,1.56-.21.13-.93-.07-1.08.11s-.11.37-.51.37c-.21,0-.4.06-.61.06h-.07c.3.15.7.43.63.6s-.29.17-.51.2l-.05-.12a2.22,2.22,0,0,1-.13-.69h.06l-.06,0c0-.35,0-.68,0-.68s0,.28-.05.65a.33.33,0,0,0-.14,0c-.07,0,0,0,.14.07,0,.27,0,.58,0,.87l-.07,0v-.07l0,.1,0,0a0,0,0,0,0,0,0,28.7,28.7,0,0,1-1.17,3.1c-.12.23-.8,1-.65,1.32.07.15.9-.51.9-.36a5.61,5.61,0,0,0-.25.8c.13.13.74-.19.61.59,0,.25-.25.43-.32.58s.13.23.11.37a1.87,1.87,0,0,1-.83,1l-.91.52c.3.6,1.28-.49,1.52,0s-.57,1.63-.51,1.75.38-.32.47-.14-.2.38-.07.51c.4.41.68.09.54.95a3.11,3.11,0,0,1-.41,1.13.71.71,0,0,0-.72.14c-.16.2,0,.36.23.5a2.77,2.77,0,0,1-1.73.87,1.07,1.07,0,0,1-.43-.09.46.46,0,0,1,0,.31c-.15.63-1,0-1.22.22s-.12.35,0,.54a2.18,2.18,0,0,0-.83.14,1.63,1.63,0,0,1-.48.07c0-.1,0-.19,0-.29.19-.07.38-.18.31-.42a.53.53,0,0,0-.4-.35c0-.22-.05-.44-.08-.65a.34.34,0,0,0,.27-.16c.14-.29-.2-.62-.44-.87a13.36,13.36,0,0,1-.11-2.62,5.83,5.83,0,0,0,.77.2,2.22,2.22,0,0,0,.31.07s-.27-.36-.24-.38c.2-.11.76.24.94.05s-.28-.28-.1-.38.84.2.94,0-.1-.2-.14-.26a9.15,9.15,0,0,1-.56-.87c0-.06-.23-.27-.19-.31a6.82,6.82,0,0,1,.68.33,2.64,2.64,0,0,0,1.28-.07c.09,0,.89-.22.84-.31s-.21-.06-.28-.08c-.28-.08-.67,0-.88-.2,0-.05.13-.05.14-.06a.73.73,0,0,0,.32-.23s0-.11,0-.15.63-.05.79-.23-.2-.22-.16-.31.57-.4.49-.49a5.57,5.57,0,0,0-.63.29,2.87,2.87,0,0,1-1.87.1c-.1-.06-.29,0-.37-.05s.54,0,.46-.18-.34-.13-.39-.16-.21-.12-.12-.15c.32-.12.72-.07,1-.28.08-.07.26-.25.18-.34s-.6,0-.7.05a4.09,4.09,0,0,1-1.84.08,2.31,2.31,0,0,1-.91-.46,23.72,23.72,0,0,1-.05-2.81,1.59,1.59,0,0,0,.35.22,6.31,6.31,0,0,1,.86.2c.07,0,.44.27.52.18s-.45-.33-.31-.41.7.17.8.05-.4-.43-.35-.48.33,0,.42-.06a6.41,6.41,0,0,0,.93-.25,1.91,1.91,0,0,0,.63-.41,1,1,0,0,1,.21-.13l-.37,0a2.14,2.14,0,0,1-.84,0c-.15-.08.24,0,.28-.1s-.32-.31-.35-.39.22,0,.26-.05.66-.42.6-.49-.52.08-.6.11a2.25,2.25,0,0,1-1.29-.21c-.53-.19.39-.15.35-.23s-.49-.18-.63-.23-.24-.24-.33-.33.22,0,.26-.11a1.52,1.52,0,0,0,.05-.51s-.32.27-.42.15.18-.1.18-.1l-.37-.1a1.9,1.9,0,0,1-.37-.15c0-.24,0-.5.05-.76.16-.05.29-.09.25-.17s-.14-.18-.24-.33v-.29c.18.06.5.2.4,0s-.24-.41-.4-.71c0-.26,0-.52,0-.79.2.08.48.31.61.16s-.22-.66-.16-.79.36,0,.44-.05-.35-.64-.35-.64.24.12.3,0-.25-.33-.28-.36a3.15,3.15,0,0,1-.53-1c-.07-.28-.12-.67-.2-1,0-.74-.06-1.42-.06-2l-.22-.16c0,.15-.11.38-.16.61l.05-1a7.8,7.8,0,0,1-.21.81,8.12,8.12,0,0,1-1.94,3.43c-.13.15.36.21.21.37s-1.84.17-1.64.6c.11.26.83.12.67.47,0,.07-1,.47-.72.65a2.09,2.09,0,0,0,1.86-.28c.21-.12.29.26.51.14s.58-.43.67-.33c.23.25-.33.84-.12,1.07a.1.1,0,0,0,.05,0c-.05.49-.08,1-.1,1.51-.43.7-1.37.77-2,1-.3.11.29.56.25.6s-.9.17-1.18.32-.12.42-.29.51-.71-.18-1-.27-.22.09-.47.23c-.45.25-2-.55-1.47.6a1,1,0,0,0,.08.14,2.58,2.58,0,0,1-1.12-1c-.16-.35.17-.42.28-.54s-.45-.5-.35-.84.46-.27.63-.46-.5-.44-.28-.69a3.32,3.32,0,0,1,.46,0l-.39-.06a5.76,5.76,0,0,1-1.39-.48c0-.25,0-.49.07-.74.11-1,.18-2.07.21-3.11a17.31,17.31,0,0,0,1.74.35,8.59,8.59,0,0,0,2.79-.46,2.56,2.56,0,0,0,.42-.23,7.21,7.21,0,0,1-2.09-.15.86.86,0,0,1-.28-.16c-.24-.12.31-.29.07-.38s-.61,0-.77-.23.4-.49.49-.54c.63-.34.93-.7,1.32-.92l.28-.15c.19-.1.92-.65.7-.53a3.7,3.7,0,0,1-1.81-.62c-.11-.24.38-.27.34-.3-.22-.25-.81-.15-1.11-.31-.53-.29-.2-.6-.35-.77-.44-.48-1-.18-1.84-.79l-.06-1.12a7.72,7.72,0,0,0,1.2-.54c.14-.3-.61-.89-.77-1.23s.75-.05.56-.45-.63-.32-.76-.62a1.42,1.42,0,0,1,0-.46s0,0,.06,0c1.37,0,.19-.78.28-1,.2-.44,1-.54.84-.54a2.52,2.52,0,0,1-1.6-1.06v-.09c0-.59,0-1.22,0-1.86a9.55,9.55,0,0,0,2.2-.67s-.78-.91-.49-1.22c.08-.09.61,0,.49-.31s-1-1-.84-1.23.93-.09.7-.61c-.16-.36-.63-.28-.63-.77,0-.19.76.07.49-.23a26.85,26.85,0,0,1-2.43-1.54,1,1,0,0,0-.07-.17v0s-.06-.06-.08-.05,0-.56,0-.56c-.27.17-.36,1.83-.52,2.17a13,13,0,0,0-.91,1.61c0,.08.71-.18.56.15-.41.9-1.38.07-1.74.46,0,.05.1.35.14.39a2.82,2.82,0,0,0,2,.83c0,.41,0,.81,0,1.22-.23.23-.43.4-.43.4a1.84,1.84,0,0,1,.43,0c0,.12,0,.25,0,.37-.34.15-1,.17-1.12.32s.62.47.56.61c-.17.39-1.74.8-1.74.92s.74.25.49.38c-.5.27-1.47,0-1.08.18a3.09,3.09,0,0,0,1,.28s-.48.08-.07.31c.14.08.44,0,.56.15.28.31-.94,1-1.05,1.15s.4.18.28.31c-.36.39-.63.14-.63.69,0,0,0,.06,0,.08a10.72,10.72,0,0,1-2.37.45h-.49l.14.08c.24.14,1.44.21,1.6.38s-.46.22-.35.46c.19.4,1.24-.1,1.47.16s-.57.44-.42.61,1.16,0,1.47.15-.23.21-.14.31c.34.38,1.24-.2,1.87-.62,0,.45,0,.89,0,1.34a3.78,3.78,0,0,1-1.79,1.27,3,3,0,0,0-.7.16s.88,0,1.05.3-.66.65-.77.77.34.54.07.69c-.81.44-1.68.84-2.51,1.3-.13.07-.42-.08-.42.08s.48.39.28.61a4.41,4.41,0,0,1-1.12.08l-.2,0c.34.14,1.09.53.9.64s-1.47.22-1.19.54c.49.54,2.07-.11,2.37.23.1.1.39.15,1.4.15h.42s-.62.16-.49.31,1.28-.36,1.52-.46h0c-.17.14-.4.31-.33.38.31.34.93-.31,1.47-.76,0,.9,0,1.81,0,2.72a1.11,1.11,0,0,1-.2.26,4.9,4.9,0,0,1-1,.54c-.06,0-.53.17-.48.23s.52,0,.62.07-.85.48-.9.54.66,1.21-.84,1.76a13.69,13.69,0,0,0-1.74.69,1.3,1.3,0,0,1-.42.08s.48.23.35.31c-.79.43-2-.38-2.52-.77-.05,0-.27-.24-.34-.15-.56.61.74,1,.55,1.45s-.72-.12-.83,0,.84.56.9.69-.77.16-.9.31.86.43.9.53-.71.37-.42.69,1.2-.06,1.47.23c.1.11-1.2.76-.84,1.15s1.1-.17,1.33.08-.52.63-.28.77c.4.22,1.1-.71,1.39-.39s-.9,1.39-.48,1.84c.05.06.36-.32.42-.38.21-.24.67-.2.9-.46s.51-.64.77-.92c0-.05.13-.39.21-.31s-.15.65.07.77.82-.78,1-.61-.06.63.06.76.77-.6.56.08a4.11,4.11,0,0,1-1,1.69,3.28,3.28,0,0,1-.28.23,8.12,8.12,0,0,0,1-.39c.07,0,.43-.37.49-.3.28.3-1.54,2.73-1,2.52a3.16,3.16,0,0,0,1.46-1.07v.23c0,.75,0,1.49,0,2.24-.38.32-.85.16-1.31.67-.13.14.33.4.2.54-.29.33-1.33.23-1.74.38-.21.08-.05.86-.63,1.08-.76.28-.93-.18-1.18.38-.16.34-.68.51-1.13.6a.64.64,0,0,0-.14-.22,2.51,2.51,0,0,0-.23.28l-.39,0a1.41,1.41,0,0,1,.11.32l-.27.35a3.23,3.23,0,0,1-2-1.28l-.14-.31a4.5,4.5,0,0,0,0,1.07c.08.35.7.77.7.77s-.75-.18-1,.07.12.44.32.68c-.48.33-1.42.9-1.94.62s-1.48-.72-1.74-1.3c-.16-.35.17-.42.28-.54s-.45-.5-.35-.84.46-.27.63-.46-.51-.44-.28-.69c0,0,.4,0,.45,0l-.38-.06a5.61,5.61,0,0,1-1.39-.48c0-.25,0-.5.06-.74.12-1,.19-2.07.22-3.12a15.44,15.44,0,0,0,1.74.36,8.59,8.59,0,0,0,2.79-.46,3.69,3.69,0,0,0,.42-.23,7.29,7.29,0,0,1-2.1-.15,1.62,1.62,0,0,1-.28-.16c-.23-.13.32-.29.07-.38s-.6-.05-.76-.23.4-.49.48-.54c.64-.34.93-.7,1.33-.92l.28-.15c.19-.1.91-.66.7-.54a3.63,3.63,0,0,1-1.82-.61c-.11-.24.39-.27.35-.31-.22-.24-.81-.14-1.11-.3-.53-.29-.2-.6-.35-.77-.44-.48-1-.18-1.84-.79l-.06-1.12a8.89,8.89,0,0,0,1.2-.54c.14-.3-.62-.89-.77-1.23s.74,0,.56-.46-.63-.31-.77-.61a2.36,2.36,0,0,1,0-.46s.05,0,.07,0c1.37,0,.18-.78.28-1,.2-.44,1-.53.84-.53a2.54,2.54,0,0,1-1.61-1.07v-.08c0-.59,0-1.22,0-1.87a9.21,9.21,0,0,0,2.2-.66s-.78-.91-.49-1.23c.08-.08.61,0,.49-.3s-1-1-.84-1.23.93-.09.7-.61c-.17-.36-.63-.28-.63-.77,0-.19.75.06.49-.23a26.85,26.85,0,0,1-2.43-1.54l-.07-.17v0c0-.05-.05-.06-.07-.05s-.05-.56-.05-.56c-.27.17-.36,1.83-.51,2.17a11.84,11.84,0,0,0-.91,1.61c0,.08.71-.18.56.15-.41.9-1.38.06-1.75.46,0,.05.11.35.14.39a2.85,2.85,0,0,0,2,.83c0,.41,0,.81,0,1.22-.23.23-.43.4-.43.4a1.76,1.76,0,0,1,.42,0v.37c-.34.14-1,.17-1.12.32s.62.47.56.61c-.18.39-1.74.8-1.74.92s.74.24.48.38c-.49.27-1.47,0-1.07.17a2.88,2.88,0,0,0,1,.29c.05,0-.48.08-.07.31.15.08.44,0,.56.15.28.31-.93,1-1,1.15s.39.18.27.31c-.35.38-.62.14-.62.69,0,0,0,.06,0,.07a10.27,10.27,0,0,1-2.37.46h-.49l.14.08c.24.13,1.44.2,1.6.38s-.46.21-.35.46c.18.4,1.23-.1,1.47.16s-.57.44-.42.61,1.16,0,1.46.15-.22.21-.14.31c.35.38,1.25-.2,1.87-.62v1.34a3.84,3.84,0,0,1-1.8,1.27,3.22,3.22,0,0,0-.69.15s.88,0,1,.31-.66.65-.76.77.34.54.06.69c-.8.44-1.67.84-2.51,1.3-.12.07-.42-.08-.42.08s.49.39.28.61a4.29,4.29,0,0,1-1.11.08l-.2,0c.34.14,1.09.53.9.64s-1.47.22-1.19.54c.49.53,2.06-.11,2.37.22.1.11.39.16,1.4.16h.42s-.63.16-.49.3,1.28-.35,1.51-.45h0c-.16.14-.39.31-.33.38.32.34.94-.31,1.48-.77,0,.91,0,1.82,0,2.73a1.11,1.11,0,0,1-.2.26,6.16,6.16,0,0,1-1,.54c-.06,0-.53.17-.49.23s.53,0,.63.07-.85.48-.91.54.67,1.21-.83,1.76a12.47,12.47,0,0,0-1.75.69,1.26,1.26,0,0,1-.42.08s.49.23.35.3a1.38,1.38,0,0,1-1.16,0,1.28,1.28,0,0,0-.34-.14,5,5,0,0,1-.46-.25c-.05-.15.33-.32.32-.33-.24-.22-.83-.12-1.09-.35-.08-.07.61-.18.67-.19a3.36,3.36,0,0,0,1.16-.59,3.83,3.83,0,0,0,.6-.41c-.18-.17-1.07-.08-1.33-.15l-.27,0h.1a16.58,16.58,0,0,1-2.28-.62c-.18-.08,0-.52-.11-.63s-.95,0-1-.06c0-.44,2.22-1.61,1.82-1.56-.17,0-2.46.67-2.4.34,0-.08-.21.05-.22,0s.83-.1.67-.25a2.38,2.38,0,0,0-2.14-.23c-.06,0,.21,0,.21,0l-.26,0a1.14,1.14,0,0,1-.88-.38,20.93,20.93,0,0,1-.11-2.36l.08-1.27.08.09c.21.19.35-.41.38-.45s.43.13.58-.06-.13-.65.13-.83c.82-.57,1.83.32,2.57.24.05,0,.15.05.16,0,.19-.25-.61-.67-.41-.94.06-.08.28.05.33.08a8.71,8.71,0,0,0,2.36.9c.59.15.65-.44,1.05-.64a1.86,1.86,0,0,1,.63-.07s-1-.14-.89-.48.95,0,1.08-.35-1.74-.77-1.94-.95c-.41-.37-1.76.23-2.22-.57-.11-.18.58,0,.58,0l-.17-.09c-.52-.31-1.22-.31-1.65-.69-.21-.19-1.37.14-1.71-.17-.05,0,.51-.11.57-.12a2.83,2.83,0,0,0,1.19-.3c.22-.15-.21-.11-.13-.34s1.31-.3,1.54-.46-.2-.24-.09-.39.5-.21.65-.42a1.39,1.39,0,0,0,.08-.36c-.1,0-.53.58-.59.53-.28-.26.34-1,.06-1.11-.53-.22-1.26,1.56-1.7,1.17-.13-.12.23-.79.08-.94s-.69.66-.84.74a8.92,8.92,0,0,1-1.42.65,11.83,11.83,0,0,1,0-2.59,4.68,4.68,0,0,0,0-1.58l.76.34c.51.21.29-.51.47-.64.42-.28,1.7.18,2-.21,0,0-.62-.64-.34-.84s1,.1,1.2-.19c.08-.1-1-.4-1.1-.46a3.79,3.79,0,0,1-1-.71l-.64-.57s.55.18.69,0c0,0-.89-.62-.81-.73s1.11-.17.81-.44c-.14-.13-1.29-1.13-.64-1.21.07,0,.16,0,.1-.12a5.16,5.16,0,0,0-1.81-1.2.38.38,0,0,1-.16-.13c0-.32-.07-.63-.09-.95l-.12-1.14a0,0,0,0,1,0,0c.08.07,0,.26.19.33.44.19.38-.33.5-.34s1.35,1.18,1.54.64c.12-.36-.68-.79-.84-1.07s.61-.06.38-.45c-.54-.94-2.14-1.43-2.29-3.06h0a1.14,1.14,0,0,0-.05-.23l0,.23-.23,0a17.86,17.86,0,0,1-1.19,2.44c.11,0,.18,0,.12.13s-1.05.33-1,.4c.46.41,1.7-.54,1.7-.54l-.68,1.18s.5-.23.68-.07-.66.88-.65,1.06.67-.15.68-.13-.67.45-.53.58.64,0,1-.35c0,.16,0,.3,0,.42,0,.37,0,.75,0,1.12a4.22,4.22,0,0,1-1.16,1.1c-.23.11.32.2.13.33-.42.29-1.76.36-1.91.56s.61.15.65.16a3.22,3.22,0,0,0,.79,0c.22-.12.46-.2.42-.14a.73.73,0,0,1-.42.14.78.78,0,0,0-.34.29s.72.08.61.22c-.52.7-1.24.83-1.95,1.32-.35.25-1.26.08-1.26.08a.31.31,0,0,1,.06.06c.18.32,1,0,1.13.28,0,.07-.87.53-.94.63s.56.12.46.41-1.6.89-1.56.93c.42.38,2.4.14,2.79-.14a.86.86,0,0,1,.16,0c.1.09-.5.53-.58.58-.59.41-1.71.29-2.14.88-.07.09,1,.34,1.09.4.27.24-.35.69-.19.84.61.54,2.19-1,2.53-1.27.05,0,.17-.22.26-.14s-.21,1,.06,1.27.67-.77.72-.84c.29-.39.44.18.53.06a.56.56,0,0,0,.09-.22c0,.32,0,.65-.07,1-.06.67-.1,1.35-.13,2a3.67,3.67,0,0,1-.42.65,6.58,6.58,0,0,1-1.47.69l-.26.14s.49-.08.6.11-.43.69-.57.76c-.44.22-1.09.78-1.64.64a9.53,9.53,0,0,1-1-.35s.53.26.41.42-.82-.1-1.06.06c-.54.37-.85,1.13-1.75.54a2.43,2.43,0,0,1-.93-1c0-.07-.29-.65-.37-.55-.33.45.52,1.24.35,1.48s-1.38-.16-1.58.11.61.35.33.72-1.08,0-1.23.49c-.06.18,1.19-.15,1.09.34-.13.66-1.24,1-1.74,1.31l-.08-.06c-.17-.19.1-.28-.06-.45a3.07,3.07,0,0,1-.24-.48c.06-.07.28.22.38.12s0-.4-.21-.61h0c-.1.11-.3-.33-.3-.33s.16.15.31.32c.12-.16-.12-.67-.17-.79s.14-.13.05-.33-.35-.47-.35-.48.32.2.38.06-.07-.37-.11-.48a2.24,2.24,0,0,0-.49-1.07,1.2,1.2,0,0,1-.11-.57,3.16,3.16,0,0,0-.05.87l-.08-.26a9.67,9.67,0,0,1-.93,1.33c-.08.1-.59.42-.48.54s.67-.21.67-.15-.22.31-.19.33.56-.08.47.24c0,.1-.19.17-.25.23s.1.1.08.15-.47.38-.62.42l-.68.21c.22.25,1-.2,1.14,0s-.43.67-.38.72.29-.13.35-.06-.15.15-.05.21c.3.16.51,0,.41.38-.22.72-1.41,1.08-2,1.08a1.12,1.12,0,0,1-.32,0,.12.12,0,0,1,0,.13c-.11.26-.73,0-.92.09s.17.32.05.45-.87-.18-1.06,0c0,0,.11.19.14.23a2.09,2.09,0,0,0,.68.51l-.3,0c-.09,0-.53-.07-.6,0s.33.21.08.3c-.05,0-.59,0-.51.15.27.59,1.49.42,1.95.42a.83.83,0,0,0,.47-.06c.07,0,.28-.18.24-.09a2.14,2.14,0,0,1-.62.6s.24-.09.24,0-.56.19-.46.29.72-.1.84-.15.25-.21.25-.11-.43.28-.36.44.67-.16.76-.21-.05.25,0,.27.56-.33.7-.18-.27.42-.21.48.24-.1.29-.12.85-.45.9-.39a1.88,1.88,0,0,1,.11,1.17.94.94,0,0,1-.41.21l-.27,0a.87.87,0,0,1-.16.21,6.34,6.34,0,0,1-.65.26s.43,0,.38.09c-.18.39-1,0-1.23.15s0,.22-.19.15-.56-.65-.84-.65c-.1,0,.13.32,0,.32a1.58,1.58,0,0,1-.52-.12c-.07,0-.22-.17-.22-.09s.34.18.17.24a1.39,1.39,0,0,1-.9-.21c-.05,0-.28-.2-.33-.14s.13.72-.13.86-.59,0-.68.06-.08.21-.33.21-.25,0-.38,0h-.05c.19.09.45.25.4.34s-.49.07-.59.18.62.38.7.47a7.22,7.22,0,0,1-.68.66s-.24.15-.21.18c.26.29,1,.13,1.3.06l.21,0c.05,0,.09.06.06.11h0a.83.83,0,0,0-.12.16c-.22.22-.64.36-.79.53s.65,0,.51.31a.61.61,0,0,1-.07.14h-.66a5.92,5.92,0,0,1-1.31-.24,6.45,6.45,0,0,0-.64-.09l.53.09s-.3,0-.45,0a3,3,0,0,1-.83-.19c-.48-.26-.43-.31-.81-.73a.6.6,0,0,1-.06-.39h.11l.29,0h.09c.26,0,.56,0,.56-.12s-.19,0-.28-.05a1.31,1.31,0,0,1-.22-.12c.13,0,.29.08.35,0s-.08-.1,0-.15.67-.18.64-.22-.28-.09-.36-.12a1.22,1.22,0,0,1-.41-.38.17.17,0,0,0,.1,0v0s.06.06.08.06,0,0-.08-.06-.1-.19-.23-.3-.17-.27-.14-.31.31.05.36.06a.81.81,0,0,0,.75-.09c.07-.08-.39-.27-.64-.38a1.19,1.19,0,0,0,.14-.4s-.23.07-.29.1l-.1,0s0,0,.06,0l-.07,0,0,0a0,0,0,0,1,0,0h0a2.5,2.5,0,0,1-.25-.46s.29.11.25,0-.24-.29-.38-.49c.09-.15.17-.31.1-.39l.28.15a1.41,1.41,0,0,0,1.09-.15c.09-.1-.24-.09-.36-.13s-.82-.28-.92-.52.45-.09.53-.09,0-.23.11-.3.26,0,.28,0c.13-.3-.5-.55-.59-.74s.5-.07.34-.24-.25-.42-.42-.61l-.42-.43s.48.07.39,0l-.42-.46s-.38-.28-.33-.33.28.08.36,0c.23-.25-.35-.45-.42-.59s.11-.07.09-.12a.39.39,0,0,0-.08-.1,2.3,2.3,0,0,1,1,.54c.07.08.3.21.37.05.23-.5-.56-.7-.72-.87s-.25-.08-.19-.21.34-.15.42-.18.14-.26.21-.33.15-.06.21-.13l-.35.08c-.16,0-.92.27-1.05.13s.82-.64.61-.88c-.06-.06-.26.07-.31.08-.32.09-.62.34-1,.41,0,0-.27.16-.32.1s.21-.42.16-.53-.46.28-.35.05.57-.81.26-1-.84.5-1.1.59c-.07,0-.33.2-.4.13s.33-.41.24-.51-.5.25-.59.28a1.89,1.89,0,0,1-.33.15c-.06-.07.09-.35-.11-.28s-.61.43-.7.33.22-.75.09-.89-.42.32-.47.36a3.85,3.85,0,0,1-1,.48c-.13.05.24-.33.24-.33s-.27.1-.28.1a1.14,1.14,0,0,1-.45.1,4.52,4.52,0,0,0-1.47.16,1.55,1.55,0,0,1-.47.07l0-.29c.19-.07.39-.18.32-.42a.6.6,0,0,0-.4-.36l-.09-.64a.35.35,0,0,0,.28-.16c.13-.3-.21-.62-.44-.87a12.63,12.63,0,0,1-.11-2.62,5.46,5.46,0,0,0,.77.2,1.84,1.84,0,0,0,.3.07c.05-.05-.26-.37-.23-.38.2-.11.76.24.93.05s-.28-.28-.09-.39.84.21.93,0-.1-.19-.14-.25c-.17-.3-.42-.57-.56-.87,0-.06-.22-.27-.18-.31a6.77,6.77,0,0,1,.67.33,2.81,2.81,0,0,0,1.29-.08c.09,0,.88-.21.84-.3s-.22-.06-.28-.08c-.29-.08-.68,0-.89-.21,0,0,.13,0,.14,0a.71.71,0,0,0,.33-.23s-.06-.12,0-.15.63-.05.8-.23-.21-.22-.16-.31.56-.41.49-.49a5.37,5.37,0,0,0-.63.28,2.81,2.81,0,0,1-1.87.11c-.1-.06-.29,0-.38-.06s.54,0,.47-.17a2.56,2.56,0,0,0-.4-.16s-.2-.12-.11-.15c.31-.12.71-.07,1-.28.08-.07.27-.25.19-.34s-.61,0-.7.05a4.13,4.13,0,0,1-1.85.08,2.23,2.23,0,0,1-.9-.47,23.51,23.51,0,0,1-.05-2.8,1.79,1.79,0,0,0,.34.22,5.46,5.46,0,0,1,.87.2c.07,0,.43.27.51.18s-.45-.33-.3-.41.69.16.79,0-.39-.44-.35-.48.33,0,.42-.06a8.16,8.16,0,0,0,.94-.25,1.91,1.91,0,0,0,.63-.41.58.58,0,0,1,.21-.13l-.38,0c-.22,0-.64.09-.84,0s.25,0,.28-.1-.31-.31-.35-.39.23,0,.26-.05.66-.43.61-.49-.53.08-.61.1a2.15,2.15,0,0,1-1.28-.2c-.54-.2.38-.15.35-.23s-.49-.18-.64-.23-.23-.24-.32-.34.21,0,.25-.1a1.52,1.52,0,0,0,0-.51s-.31.27-.42.15.19-.1.19-.1a3.51,3.51,0,0,0-.38-.1,2.16,2.16,0,0,1-.36-.15c0-.25,0-.5,0-.76.16-.05.29-.09.25-.17s-.14-.18-.24-.33,0-.19,0-.29c.18.06.5.19.4,0s-.25-.41-.41-.71c0-.26,0-.52,0-.79.19.07.48.3.6.16s-.22-.66-.16-.79.36,0,.44-.05-.35-.64-.35-.64.25.11.31.05-.25-.33-.28-.36a3.39,3.39,0,0,1-.54-1c-.06-.28-.11-.67-.19-1,0-.74-.06-1.42-.06-2l-.22-.15c-.05.15-.11.37-.17.61l.06-1c-.07.32-.19.72-.21.81a8.12,8.12,0,0,1-1.94,3.43c-.14.14.35.21.21.37s-1.85.17-1.65.6c.12.26.83.12.68.47,0,.07-1,.47-.72.64a2.05,2.05,0,0,0,1.86-.27c.2-.12.28.26.5.14s.58-.43.68-.33-.34.84-.13,1.07l.06,0a14.72,14.72,0,0,0-.1,1.51c-.44.7-1.37.77-2,1-.29.11.29.56.26.6s-.91.17-1.18.32-.13.42-.3.51-.71-.18-1-.28-.21.1-.46.24c-.46.25-2-.55-1.48.6.27.59,1.58.76,1.73.92s-.44.31-.34.42c.27.3,1.22-.23,1.44,0,.05.06.05.26.17.33.27.15.88-.61,1.05-.42s-.26.46-.17.56,1.14.13,1.39.13a6.53,6.53,0,0,0,0,1c.1.12.61-.38,1-.71,0,.36,0,.72,0,1.06,0,.1,0,.22,0,.34a.68.68,0,0,1-.31.24c-.27.06-.82.11-1,.32s.19.2,0,.28-.71-.19-1,0-.23.63-.38.88c-.31.5-.94.8-1.23,1.11a.89.89,0,0,1-.67.09s-.14-.27-.21-.18a1.64,1.64,0,0,1-.55.27s.14.18.09.24-1-.29-1.23-.14-.06.47-.21.55-.92-.25-.8.14.51.3.63.56-.53.26-.38.6.65.2.8.37-.29.44-.08.56a2.62,2.62,0,0,0,1.39-.1c.06,0,.17-.28.21-.23s-.17.65-.08.84.5-.43.59-.33-.09.61,0,.7.77-.92,1.05-.61-.53,1.69-.5,1.72c.29.32,1.16-.9,1.22-.83.26.28-.51.95-.51,1.15s.68-.55.81-.27c0,.1-.13.41-.09.46s1.19-.89,1.35-1,0,.48.17.37.46-.57.68-.79c0,.49.05,1,.09,1.46a4,4,0,0,1-.31.95c-.09.13-.84.7-.8.74.27.3.81-.33,1.2-.5,0,.49.09.95.13,1.38a5.72,5.72,0,0,1-.57.79c-.07.08-.44.49-.38.55s.82,0,1.12.21l0,.66c-.45.71-1.31.42-2,.66-.29.11,0,.52-.21.65-.32.24-1.13-.24-1.35,0-.07.07,0,.41-.09.47-.41.22-1.4-1.11-1.64-.84s-.4.6-.89.6c-.24,0-.57-.51-.68-.27-.21.47-.37.18-.8.41s-.26.89-1.14.65c-.36-.1-.92-.88-1.18-.88s.11.39,0,.51-.53-.29-.67-.14.34.6.25.7-.92.17-1.18.46c0,0,.42.3.21.42s-1.47-.18-1.22.37a4.7,4.7,0,0,0,.8,1c.15.17-.43.09-.25.28a6.24,6.24,0,0,0,1.6.83c.12.07.54-.1.55-.09s-.87.61-1,.65-.61,0-.46.14,1.11.23,1.44.32a.68.68,0,0,0,.28,0,14.31,14.31,0,0,1-.68,1.29c-.16.23-1.48,1.42-1.2,1.57s.88-.29,1-.13-.69.77-.69,1,1.56-.24,1.6-.19-.39.51-.23.69.56-1,.57-.94-.2.54-.22.62a10.32,10.32,0,0,1-.52,1.76c-.33.72-1.82.79-1.82.82s.19,0,.28.06a1.4,1.4,0,0,0,1-.13l.4-.19c0,.25-.94.73-.68,1,.1.11.71-.19.51.25l0,.08c-.12-.06-.24-.11-.28-.06s0,.16,0,.2-.35.17-.52.13-.58-.26-.63-.15.33.55.07.69-1.26-.05-1.63-.15c-.07,0-.57-.2-.63-.13s.13.71,0,.95-.62-.06-.77.1.38.29.33.41a1.07,1.07,0,0,1-.61.46c-.05,0-.42,0-.42.05s.28.15.33.16a5.26,5.26,0,0,0,1.12.2.88.88,0,0,0,.28,0s.19-.05.19,0c0,.22-.58.77-.75.82s-.27,0-.31.05.74.12.75.13-.29.29-.33.36.28.07.31.1-.23.19-.14.28.41-.05.49-.08a11.79,11.79,0,0,0,1.54-.56c.07,0,.58-.38.63-.33a.17.17,0,0,1,0,.13l0,.13a3.61,3.61,0,0,1-.62.94l-.23.23a1.17,1.17,0,0,0,.37-.07c.08-.05.49-.31.56-.24s-.14.3-.09.36.26-.05.33,0-.25.41-.17.5a1.15,1.15,0,0,1-.3.19c-.3.11-1.68,0-1.77.19-.22.48,1.38.35,1.25.63s-.77,0-1,.25.17.38.06.5,0,0-.06,0a1.42,1.42,0,0,0-1,.25c-.32.17-1-.47-1.2-.25s.16.33.23.38c.55.4,2.69-.06,2.91.18s-.73.57-.9.84c-.29,0-.79.52-1,.61-.07,0-.33.2-.4.13s.33-.41.23-.52-.49.25-.58.28a1.64,1.64,0,0,1-.33.16c-.07-.08.09-.36-.12-.28s-.61.43-.7.33.23-.75.1-.9-.42.32-.47.36a3.73,3.73,0,0,1-1,.49c-.14.05.23-.33.23-.33s-.27.09-.28.1a1.09,1.09,0,0,1-.44.1,4.49,4.49,0,0,0-1.47.15,1.56,1.56,0,0,1-.48.08c0-.1,0-.2,0-.3.19-.07.39-.17.31-.42a.57.57,0,0,0-.4-.35c0-.22,0-.43-.08-.65a.36.36,0,0,0,.27-.15c.14-.3-.2-.62-.44-.87a13.39,13.39,0,0,1-.11-2.62,5.76,5.76,0,0,0,.77.19,1.42,1.42,0,0,0,.31.08s-.27-.37-.24-.39c.2-.11.76.25.94.05s-.28-.28-.1-.38.84.21.94,0-.1-.19-.14-.26a8,8,0,0,1-.56-.87c0-.05-.22-.27-.19-.31s.59.32.68.34a2.77,2.77,0,0,0,1.28-.08c.09,0,.89-.21.85-.31s-.22-.06-.29-.07c-.28-.08-.67,0-.88-.21,0,0,.13-.05.14-.05a.73.73,0,0,0,.32-.23c0-.05,0-.12,0-.16s.63,0,.79-.23-.2-.21-.16-.31.57-.4.49-.48a4.1,4.1,0,0,0-.63.28,2.81,2.81,0,0,1-1.87.1c-.1,0-.29,0-.37,0s.54,0,.47-.18-.35-.12-.4-.15-.21-.12-.12-.16c.32-.11.72-.07,1-.28.08-.06.27-.24.18-.33s-.6,0-.7.05a4.24,4.24,0,0,1-1.84.08,2.21,2.21,0,0,1-.91-.47,23.68,23.68,0,0,1-.05-2.81,1.29,1.29,0,0,0,.35.22,6.34,6.34,0,0,1,.86.21c.07,0,.44.26.52.18s-.45-.33-.31-.41.7.16.8.05-.4-.44-.35-.49.33,0,.42-.05a6.46,6.46,0,0,0,.93-.26,1.64,1.64,0,0,0,.63-.41,1,1,0,0,1,.21-.13s-.24,0-.37,0a2.14,2.14,0,0,1-.84,0c-.15-.08.25,0,.28-.1s-.32-.31-.35-.38.22,0,.26-.06.66-.42.6-.48-.52.08-.6.1a2.19,2.19,0,0,1-1.29-.21c-.53-.19.39-.15.35-.23s-.49-.17-.63-.23-.24-.23-.33-.33.22,0,.26-.1a1.59,1.59,0,0,0,.05-.52s-.32.27-.42.16.18-.1.18-.1l-.37-.11a1.43,1.43,0,0,1-.37-.15c0-.24,0-.49.05-.76.16,0,.29-.08.25-.16a3.74,3.74,0,0,0-.24-.33v-.29c.18.06.5.19.4,0s-.24-.41-.4-.7c0-.26,0-.53,0-.79.2.07.48.3.61.16s-.22-.67-.16-.8.36,0,.44-.05-.35-.64-.35-.64.24.12.3.05-.25-.32-.28-.36a3.2,3.2,0,0,1-.53-1c-.07-.29-.12-.67-.2-1,0-.74-.06-1.42-.06-2l-.22-.15c0,.14-.11.37-.16.61l.05-1a7.8,7.8,0,0,1-.21.81,8,8,0,0,1-1.94,3.43c-.13.14.36.21.21.37s-1.84.16-1.64.6c.11.26.83.12.67.46,0,.08-1,.48-.71.65a2,2,0,0,0,1.85-.28c.21-.11.29.26.51.14s.58-.43.67-.32-.33.83-.12,1.06a.1.1,0,0,0,.05,0c-.05.49-.08,1-.1,1.51-.43.71-1.37.78-2,1-.3.11.29.57.25.6-.16.18-.9.18-1.18.33s-.12.41-.29.51-.71-.19-1-.28-.22.09-.47.23c-.45.25-2-.54-1.47.6.27.6,1.57.76,1.73.93s-.44.31-.34.42c.27.29,1.22-.24,1.43,0,.06.06.05.26.17.32.28.15.88-.61,1.06-.42s-.26.46-.17.56,1.14.14,1.39.14a6.48,6.48,0,0,0,0,1c.1.11.61-.38,1-.71,0,.36,0,.71,0,1.05,0,.11,0,.22,0,.34a.72.72,0,0,1-.31.25c-.28.06-.82.1-1,.32s.2.19,0,.28-.71-.19-1-.05-.22.63-.38.88c-.3.51-.94.81-1.22,1.11a.85.85,0,0,1-.67.1s-.14-.27-.21-.19a1.61,1.61,0,0,1-.55.28s.13.17.08.23-.95-.29-1.22-.14-.06.47-.21.56-.92-.25-.8.14.51.29.63.55-.54.27-.38.61.65.2.8.37-.29.44-.08.55a2.53,2.53,0,0,0,1.39-.09s.16-.28.21-.23-.17.64-.09.83.5-.42.59-.32-.08.6,0,.69.78-.91,1.06-.6-.53,1.69-.51,1.72c.29.31,1.17-.9,1.23-.84.25.28-.51,1-.51,1.16s.68-.55.8-.28c0,.11-.13.42-.08.47s1.19-.89,1.35-1,0,.48.17.37.45-.57.67-.78l.09,1.46a4.87,4.87,0,0,1-.3.94c-.09.14-.84.7-.8.75.27.29.8-.34,1.2-.5,0,.48.08.95.13,1.37a5.72,5.72,0,0,1-.57.79c-.08.08-.44.49-.38.56s.82,0,1.11.2l0,.66c-.45.71-1.31.42-2,.67-.28.1,0,.52-.21.65s-1.12-.25-1.35,0c-.06.07,0,.4-.08.46-.41.22-1.4-1.1-1.65-.83s-.39.6-.88.6c-.24,0-.57-.51-.68-.28-.21.48-.37.18-.8.42s-.26.89-1.14.65c-.37-.1-.93-.88-1.18-.88s.11.39,0,.51-.54-.3-.68-.14.35.59.26.69-.92.18-1.18.47c0,0,.41.3.21.41s-1.48-.18-1.23.37a5.09,5.09,0,0,0,.81,1c.15.16-.43.09-.26.27a6.61,6.61,0,0,0,1.6.84c.12.06.55-.1.55-.09s-.86.6-1,.64-.62,0-.46.14,1.1.24,1.43.33a1.42,1.42,0,0,0,.59-.1s-.15.25-.08.33a1.75,1.75,0,0,0,1.18.14,5.09,5.09,0,0,0,1-.37,4.62,4.62,0,0,1,.47-.33c.14.16-.78,1.17-.89,1.25s-.5.24-.46.28a2.77,2.77,0,0,0,2.15-.14s0-.1,0,0c.25.28.78.07,1,.32s-.59.56-.34.7,1.19-.34,1.48-.56l.17-.14s-.52.77-.3,1,1.21-.26,1.44-.51l.17-.14s-.45.41-.68.6a5.24,5.24,0,0,0-.55.38c0,.16.95-.28,1.06-.33a9.83,9.83,0,0,0,1.64-1.2,7.15,7.15,0,0,0,.42-.58q-.12.78-.18,1.62c-.19.26-.36.48-.45.62s-.81.62-.33.79a1.26,1.26,0,0,0,.69.08c0,.43,0,.87,0,1.31l0,.07c-.31.67-1.29,1.11-1.85,1.51-.09.07-.65.09-.58.31,0,.07.1.11.2.15l-.36.19h0c-.41-.3-.71-.79-1.09-1.13,0,0-.32-.29-.33-.28-.18.2.1.82-.28,1s-.64-.21-.91-.21c0,0,.12.28.09.31-.16.18-.55-.13-.75,0s0,.24-.21.31l-.19.05c-.66-.15-1.32-.28-2-.39l-.2-.12c-.09,0-.24-.16-.24-.16a1.85,1.85,0,0,0,.17.23c-.51-.07-1-.13-1.58-.17-3.53-.23-6.93.27-10.46.09-1.45-.07-2.51-.69-3.89-.94-1.55-.27-3.33-.14-4.92-.25l-2.36.31c-2.79.15-5.51.52-8.3.69a33.56,33.56,0,0,0-4.26.07c-1,.18-2.24.67-2.16,1.32.31,2.46,7.69,3.17,10.94,3.84,2.77.58,6.23.26,9.13.49,3.53.27,7.14,1.24,10.65,1.68,2.71.34,5.52.11,8.24.34,3.06.26,6.36,1,9.43,1,4.17,0,7.63-1.06,11.88-1.25a10.33,10.33,0,0,0,2.36-.31l13.55-.14c15.36-.94,30.74-5.59,46.23-6.17,6.36-.24,11.62,3.47,17.63,3.38a193.56,193.56,0,0,0,30.36-3.1l1.19.17c.11-.15.23-.3.35-.44h0l.38-.49,1.39-1.74c.12-.17.26-.33.38-.5.58-.74,1.15-1.49,1.72-2.24l.21-.27h0a198.65,198.65,0,0,0,14.14-21.57,14.23,14.23,0,0,0-3.32.12c-1.37.23-.06,1.08-1.33,1.45a.58.58,0,0,1-.23,0c0-1.18,0-2.4-.09-3.61a6.34,6.34,0,0,0,1.32.32c.08,0,.31.08.38,0s0-.18,0-.2c.34-.13.85.39,1.19.43.07,0,.46.09.52,0s-.14-.24-.07-.31.56.22.65.26a3.69,3.69,0,0,1,.75.36c.2.13.36.37.57.5,1.18-2.11,2.33-4.25,3.44-6.4-.08-.32-.13-.67,0-.8s.23,0,.4.07c.35-.69.7-1.38,1-2.08a1.41,1.41,0,0,1-.49-.13c-.48-.26-.43-.31-.81-.73a.6.6,0,0,1-.06-.39h.11l.29,0h.09c.26,0,.55,0,.55-.12s-.18,0-.28-.05l-.22-.12c.14,0,.3.08.36,0s-.08-.1,0-.16.67-.17.64-.21-.28-.09-.36-.12a1.22,1.22,0,0,1-.41-.38.12.12,0,0,0,.09,0l0,0a.15.15,0,0,0,.07.06s0,0-.07-.06-.1-.19-.23-.3-.17-.28-.14-.31.31.05.36.06c.23.06.6.08.75-.09s-.39-.27-.64-.39a1.09,1.09,0,0,0,.14-.39c0-.05-.23.07-.29.1a.13.13,0,0,0-.1,0l.06,0-.07,0,0,0a0,0,0,0,1,0,0h0a2.5,2.5,0,0,1-.25-.46s.29.11.25,0-.24-.29-.38-.49c.09-.15.16-.31.09-.39l.29.15A1.38,1.38,0,0,0,379.76,283.56ZM349,290.47l.13,0-.22,0ZM261.3,289l.12.05a.24.24,0,0,0-.17.06A.18.18,0,0,1,261.3,289Zm-29.85,34.16h0l.06-.35v0c.19,0,.53,0,.61-.14,0,0-.33-.61-.44-.82s0-.18,0-.28c.19.07.47.25.56.15s-.22-.32-.26-.39-.11-.25-.19-.46.07-.5.11-.75l.06.06a2.82,2.82,0,0,0,.61.23l.26.08s-.37-.4-.24-.54.75.15.89,0-.11-.22-.05-.28c.27-.3.93.27,1.29.07.17-.09-.18-.65,0-.74s.27,0,.35.08c.36.09.72.11,1.08.18.06,0,.48.16.54.1s-.33-.44-.21-.57.3.21.39.11,0-.22,0-.28.66.21.77.23c.53.09,1.12.2,1.69.27C237.57,320,234.29,321.68,231.45,323.16Zm9.26-4.78-.38.21a1.11,1.11,0,0,1-.25-.21c.11-.11.49.14.61,0s-.09-.25-.12-.34C240.83,318.09,241.05,318.18,240.71,318.38Zm1.22-2.61a.41.41,0,0,0-.1.13c-.1.18.06.57-.06.74a3.73,3.73,0,0,1-1.08.92c-.07-.07-.12-.13-.09-.18s.25-.05.3-.08a1.42,1.42,0,0,0,.4-.74c0-.05-.29.1-.3.1s-.76.32-.89.18.54-.44.58-.49-.26-.06-.28-.07.26-.25.21-.31-.23.11-.26.07.41-.56.26-.71-.27.07-.33.1a5.75,5.75,0,0,1-1,.44c-.06,0-.36.21-.42.15s.06-.22.05-.23-.46.18-.61.1.07,0,.07,0a3.34,3.34,0,0,0-.46-.13c-.21,0-.67.06-.8-.08s.51-.55.44-.62-.41.25-.46.29a4.5,4.5,0,0,1-1.45.77c-.13,0-.08-.07-.19-.13s-.71.26-.82-.08c0-.07,0-.27.05-.31s.29-.14.23-.2-.5.09-.6.13-.93.21-1,.1-.21.09-.28.05-.45-.2-.64-.33c0-.25,0-.51,0-.76h.44s.31,0,.32,0S233,314,233,314s.24.18.3,0-.13-.23-.16-.26.05-.14,0-.18a6.86,6.86,0,0,1-.71-.72c0-.26,0-.52,0-.78.27.1.61.31.71.35s.79.4.84.33-.06-.21,0-.28.62,0,.75,0,.73.2.84.07-.42-.31-.35-.46.85.22,1,.05,0-.23.07-.28a1,1,0,0,1,.73,0c-.14.07-.37,0-.45.11s.07.23.11.25c.69.38,1.56-.05,2.23.31h.11c.22.24-.89.65-.74.82s1.3-.19,1.6-.19c.88,0,.64.57,1.08.82.08,0,.29-.07.35,0s0,.15,0,.26c-.23.14-.4.27-.32.33a1.35,1.35,0,0,0,.3.06.3.3,0,0,0,0,.1c.1.11.36.13.46.25A1.57,1.57,0,0,1,241.93,315.77Zm-.73-6.24,0,0h0c-.16,0-.93.27-1.06.13s.83-.63.61-.87c-.06-.07-.25.06-.3.08-.33.09-.62.33-1,.41-.05,0-.27.16-.33.1s.22-.42.17-.54-.46.29-.35.05.37-.55.35-.81a8.05,8.05,0,0,0,2.38.3c.06,0,.35-.3.4-.25C242.3,308.43,241.4,309.42,241.2,309.53Zm3.61-18c.05,0,.44-.35.46-.32s-.78,1.16-.89,1.25l-.33.17-.06-.13a5.12,5.12,0,0,1-.11-.62A4.55,4.55,0,0,0,244.81,291.57Zm-1,16.6a1.17,1.17,0,0,1-.2.33c-.08-.15-.16-.29-.23-.44l.26,0a2.42,2.42,0,0,0-.27,0,2.2,2.2,0,0,1-.25-.83c0-.1.44.25.45.25s.44.35.74.5l-.67.08C243.79,308.05,243.87,308.09,243.83,308.17Zm-.05-4.55.06-.08a.27.27,0,0,1,0,.19Zm.62,7c-.11-.14-.21-.26-.18-.29s.37,0,.49,0Zm.35-.3a.18.18,0,0,0,0-.06.76.76,0,0,0-.29-.3c.31-.16.8-.42.84-.36S245.11,310,244.75,310.34Zm2.47-3.32a8,8,0,0,1-2.31.83c-.06-.11-.27-.23-.17-.33.24-.26,1,.32,1-.06,0,0-.4-.47-.23-.56.45-.25,1-.25,1.32-.44s.79-.49.89-.55A1.56,1.56,0,0,1,247.22,307Zm.53-1.13c-.14,0-1-.08-.9-.37a11.83,11.83,0,0,1,1.11-.68A8.48,8.48,0,0,0,247.75,305.89Zm.8-1.79a.67.67,0,0,0-.45.39,2.42,2.42,0,0,0-1.31.4s-.46.17-.46.13c0-.59-.64,0-1.19-.32-.09-.05.28-.06.28-.06a2,2,0,0,0-.34-.06H245a3.58,3.58,0,0,0,.62-.75c.15-.23.27-.72.49-.84s.3.68.33.66.34-.64.47-.51.07.48.11.44.45-.67.73-.57c.13.05.15.81.19.77.39-.43.7-1.13,1.21-1.41.23-.12,0,.47.14.41s.28-.33.49-.41.08.15.21.1a4.25,4.25,0,0,0,.63-.41c.2-.11.26.17.38.11s.26-.31.41-.43c0,1.24.06,2.45.06,3.56C250.45,304.82,249.18,303.94,248.55,304.1Zm2.9-10.32c-.18.26-.36.48-.44.62s-.82.61-.34.79a1.16,1.16,0,0,0,.69.07q0,.66,0,1.32l0,.06c-.3.67-1.29,1.11-1.84,1.51-.09.07-.65.09-.59.31s.42.18.52.28c.28.31-.57.15-.7.05-.42-.3-.72-.79-1.1-1.12a4.28,4.28,0,0,0-.33-.29c-.18.2.1.82-.28,1s-.63-.21-.91-.21c0,0,.12.28.09.31-.16.18-.55-.13-.74,0s0,.24-.21.3a1.77,1.77,0,0,1-.84.06,6.21,6.21,0,0,1-.65-1.42l-.12-.25s.58.53.86.37-.07-.36,0-.44.51.13.51.13-.73-.63-.51-.88c0,0,.94,0,.63-.31-.13-.14-.78-.55-.63-.88s.67.29.8,0c0-.07-.9-1.1-1-1.25-.16-.35.38-.24.23-.57a3.28,3.28,0,0,0-.31-.45,3.1,3.1,0,0,0,1.87-.26s0-.11,0-.05c.26.28.79.08,1,.33s-.59.55-.34.69,1.18-.34,1.48-.55l.16-.14s-.52.76-.29,1,1.21-.27,1.43-.51a1,1,0,0,1,.17-.14s-.44.41-.67.6a4.37,4.37,0,0,0-.55.37c0,.17.95-.28,1-.32a10.41,10.41,0,0,0,1.65-1.21c.08-.06.25-.36.41-.57Q251.53,292.94,251.45,293.78Zm.89,2.77v0c.19,0,.52,0,.6-.14,0,0-.33-.6-.44-.81s0-.19.05-.28c.18.06.47.24.56.14s-.23-.31-.26-.38a4.41,4.41,0,0,1-.19-.46c0-.25.07-.5.1-.76l.06.06a2.86,2.86,0,0,0,.61.24l.26.07s-.36-.4-.23-.54.74.16.88,0-.1-.21,0-.28c.26-.29.92.27,1.28.08.18-.1-.18-.66,0-.75s.27.06.35.08a4.78,4.78,0,0,0,.74.13l.08.06a2.2,2.2,0,0,0,.39.18,1,1,0,0,1-.28.09,1,1,0,0,0-.64.21c-.15.17.47.14.39.31s-.65,0-.78.18.23.26,0,.34-.77-.13-.86,0,.77.62.89.64a4,4,0,0,0,1.39.06,3,3,0,0,1,.47-.09c.05.05-.51.42-.33.49s.89-.17,1.19-.22c.06,0,.28-.11.34-.06s-.08.22,0,.22.46-.45.53-.37a3.33,3.33,0,0,1,.25,1.64c-.13-.05-.46.2-.55.22-.65.18-1.28.52-1.94.64-.16,0-.92.33-1.07.16s.39-.62.23-.8-.39.31-.44.34,0-.26-.19-.18-.31.37-.42.25.17-.38,0-.48-.41.12-.56.18-.21.09-.25.05,0-.18-.05-.13-.41.41-.65.54c-.62.34-1.15-.07-1.54-.46Zm5-4c.05-.06.18.06.28.11a.77.77,0,0,1-.27,0C257.3,292.6,257.29,292.55,257.32,292.51Zm2.42,4.47h0s0-.08,0-.15V297Zm0,6.93c-.12.13-.35.08-.5.15a.67.67,0,0,1-.23.1,17.9,17.9,0,0,0-5.12-.06c-1.37.23-.06,1.08-1.32,1.46a.9.9,0,0,1-.24,0c0-1.19,0-2.4-.09-3.62a6.43,6.43,0,0,0,1.33.32c.07,0,.3.08.37,0s0-.18,0-.2c.34-.12.85.39,1.19.43.07,0,.46.09.52,0s-.14-.24-.07-.31.57.23.65.26a3.69,3.69,0,0,1,.75.36c.32.21.54.71,1,.54a1.83,1.83,0,0,0,.59-.46s-.12-.26-.12-.31.13,0,.19.05l.35.1.55.13-.07,0s.27.05.28.07-.24.38-.14.48S260,303.64,259.71,303.91Zm.68-14.38-.24.08c-.06,0-.37.21-.42.15s.06-.21,0-.23-.46.19-.6.11.07,0,.07,0-.31-.1-.47-.13-.67.07-.8-.08.51-.54.45-.61-.42.25-.47.28a4.32,4.32,0,0,1-1.45.77c-.13,0-.07-.07-.18-.13s-.72.26-.82-.07c0-.07,0-.28,0-.31s.3-.14.24-.21-.51.09-.61.13-.92.22-1,.1-.21.09-.28,0-.44-.2-.63-.32c0-.26,0-.51,0-.77l.43,0s.32,0,.33,0-.2-.56-.17-.56.24.17.31,0-.14-.22-.17-.25.06-.15,0-.18a8.14,8.14,0,0,1-.72-.72c0-.26,0-.52,0-.78.26.09.61.31.71.34s.78.4.84.34-.07-.21,0-.29.61,0,.74,0,.73.2.85.08-.42-.31-.35-.47.84.23,1,.06,0-.23.07-.29c.42-.23.88.16,1.31,0,.12,0-.26-.38-.12-.46s.52,0,.68,0,.4,0,.6,0c0,.12-.1.25-.08.28s.74-.2.48.09c-.11.12-.52.38-.59.52s.38.07.25.28-.53.32-.67.61c-.06.14.07.29,0,.43a1.48,1.48,0,0,1-.61.58c-.29.16-.61.15-.89.3,0,0-.27.16-.19.25s.89,0,1.06,0,.36-.16.41-.1-.27.32-.16.43.7-.09.86-.09,0,.24.19.18.61-.4.67-.33,0,.51,0,.61S260.38,289.42,260.39,289.53Zm.8,14.91h0s.06,0,.1,0Zm.56-.89c-.17.18,0,.54-.17.75l-.06.07,0,0a1.49,1.49,0,0,1-.15-.17c0-.07.14,0,.16,0s-.07-.24-.08-.28-.32-.38-.22-.49l.22.13a.36.36,0,0,0,.39,0Zm1.2-1.75c-.08.16-.45.37-.58.5v.19c.06.11.35.06.23.31s-.55.49-.77.68l.05-.06c.08-.08-.54-.61-.61-.73a.56.56,0,0,0,0-.08l.24-.15c.14-.07.39.06.51-.07s-.2-.2-.09-.26.3,0,.45-.07h0c-.09-.09.19-.33.3-.41S263,301.66,263,301.8Zm-.16-.35a1.32,1.32,0,0,1,.18-.22.5.5,0,0,0,.12-.13l-.07.06-.1,0a1.83,1.83,0,0,1-.25.15s-.14.07-.14.05a1.82,1.82,0,0,1,.39-.2l.22-.18-.05.07.11-.09.18,0A2.25,2.25,0,0,1,262.79,301.45Zm.63-.48-.2,0,.07-.05.07,0v0h0l0,0h0A.09.09,0,0,1,263.42,301Zm1.58-4.63c.12.25-.34.39-.34.57,0,0,.65-.05.46.37s-.89.35-1.15.63.66-.16.86.06-.09.34-.33.49l-.05,0-.07,0-.32-.15s.16.12.19.2l-.11.05c0-.05.06-.1,0-.15s-.39-.08-.66-.07c.09-.31.34-.7.24-.81s-.42.28-.46.31a2.08,2.08,0,0,1-.57.24l-.22-.06c-.07,0,.05-.08,0-.12a1.72,1.72,0,0,0-.52-.12c-.05,0-.18,0-.18,0h.2s-.26-.11-.28-.12a2,2,0,0,1-.5-.21.48.48,0,0,1-.06-.11c.06-.06.11-.13.16-.19l-.21.05c-.13-.35-.27-.93-.12-1.1s.64.19.75.22l.37.09s-.37-.18-.28-.28.57.13.75,0-.16-.24-.11-.3.58,0,.72,0c.42,0,.53-.19.75-.31.07,0,.34,0,.39,0s-.69-.24-.58-.3.58,0,.8,0l.29-.09.42,0c.17.19-.62.91-.69,1.06S265,296.23,265,296.34Zm2.05-2.5-.05.06a.15.15,0,0,1,0-.19s.12-.07.19-.11S267.07,293.81,267.05,293.84Zm1.88,12.53-.22-.18s.2,0,.46,0A1,1,0,0,0,268.93,306.37Zm1.79-4c.1.12-.18.49-.22.57s.07.22,0,.33a1.41,1.41,0,0,1-.55.51c-.12.06-.38.15-.38.15a3,3,0,0,0,.44-.09c.22-.08.39-.57.51-.15a2.27,2.27,0,0,1-.11,1.16c0,.11-.36.19-.46.3s.08.17,0,.21a.61.61,0,0,1-.18.08.8.8,0,0,1-.32-.16c-.2-.22.69-.44.63-.51s-.54-.07-.69-.12a10.88,10.88,0,0,1-1.19-2c-.18-.57,1.73-.29,1.31-.75l-.18-.17c.14-.12.3-.24.32-.21s0,.3,0,.36.18-.18.22-.18.38.21.49.09.33-.89.43-.78c.45.5-.37,1.06-.57,1.28C270.24,302.3,270.7,302.32,270.72,302.34Zm.19-6.38c-.22.23-.67.1-.87.32-.05.06.27.06.3.06s.59-.12.62-.09-.33.61-.35.66.21.8.13.84-.62,0-.87,0l-1,.24c-.5-.27-1.35-.19-1.62-.8-.12-.25.38-.05.45-.13s-.39-.67-.45-.81c-.15-.32.63-.31.39-.57a2.06,2.06,0,0,1-.45-.56c-.16-.35.4-.19.28-.56a1.49,1.49,0,0,0-.3-.38l.08,0s.36-.38.41-.33-.09.45,0,.59.51,0,.6.06.49-.59.6-.47-.36.56-.27.65.2-.1.24-.12c.3-.1.57-.39.87-.47s.06.09.14.17.21-.33.32-.26.08.2.11.24.37-.35.49-.21-.08.41,0,.5.3-.7.33-.59A4.36,4.36,0,0,1,270.91,296Zm1.65-1.91c-.22-.13,0-.22,0-.24a3,3,0,0,1-.17-.51c.05-.05.58.19.66.21a6.12,6.12,0,0,0,.63.06l-.09.1c0,.05.24.19.19.33-.15.43-1.09.55-1.35.9,0,0,.68.35.2.61a.49.49,0,0,0-.1-.27c-.2-.22-.14-.56-.33-1a.64.64,0,0,1,0-.2s0,.27.09.35a1,1,0,0,0,.46-.06C272.8,294.29,272.61,294.07,272.56,294.05Zm10.63,6.84c-.69,1-2.35,1.39-1.51,1.6a1.84,1.84,0,0,0,1.48-.41c0,.52,0,1.05,0,1.57-.2,0-.35,0-.4,0s0,0,0-.06c-.65.18-2.35,0-2.64.53a10.17,10.17,0,0,0,1.32.57c.12.06.59.45.47.67,0,0-.6.31-.45.42s.89.27.64.62a4.67,4.67,0,0,1-1.11.95,4.18,4.18,0,0,1-1.31-.46c-.2-.13-.42-.66-.57-.46s.07.6,0,.76c-.12.34-.93.63-1.57.74a3.81,3.81,0,0,1-.72-.34c-.12-.14.5.08.52.06s-.24-.18-.19-.3.47,0,.6-.06,0-.24.08-.3.67-.1.9-.27c.43-.32-.47-.54-.17-.65a3.87,3.87,0,0,0,1.12-.45s.28-.22.24-.3c-.13-.3-1-.14-1.19,0h-.13s0,0,0,.05a1.27,1.27,0,0,1-.68,0c0-.07.46,0,.69,0,0-.06-.31-.07-.2-.19s.5-.06.57-.21-.32-.12-.27-.24.37-.15.33-.24-.34,0-.41-.09.26-.18.19-.26-.25,0-.3.06c-.38.1-.7.31-1.09.38l-.68.15a1.75,1.75,0,0,1-.38.09c0-.11.53-.32.6-.48s0-.12,0-.12-.14.11-.15.09a.27.27,0,0,1,.15-.09c.13-.12.28-.32.23-.38s-.26.15-.3.18c-.33.18-.64.38-.93.53,0,0,.05-.56-.21-.41s-.87.53-1,.38.22-.19.08-.27-.54.19-.62.09.09-.05.05-.09-.43.11-.51.12-1.1.07-1.23-.2c0,0,.82-.07.87-.12s-.6-.53-.51-.63.3.06.3.06a.85.85,0,0,1-.22-.18c-.08-.11-.41-.63-.27-.78s.34.25.43.15-.11-.26-.16-.3a2.42,2.42,0,0,1-.68-1c0-.06-.06-.66-.06-.66.18,0,.94.59,1.15.36s-.23-.17-.09-.21.9.05.9,0c0-.17-.54-.16-.41-.24s.56.09.76.12c.45.07,1,.23,1.31-.12,0,0-.72-.23-.57-.38s.73.23.89.05c0,0-.1-.2-.1-.23a2.17,2.17,0,0,1,.43,0s.3-.18.41-.21.44,0,.49-.09-.84.14-.68,0,.91-.14,1.19-.3c.06,0,.26-.32.22-.36s-.55.36-.68.21.38-.36.33-.42-.41.09-.41.09.25-.24.3-.36-.08-.11,0-.27.24-.48.17-.56a3.58,3.58,0,0,0-.68.48,2.75,2.75,0,0,1-.6.29,1,1,0,0,1-.3.06s.54-.3.41-.44-.32.07-.38,0,.21-.18.13-.27-.48.2-.51.12.34-.52.24-.63-.68.54-.79.42.05-.28,0-.33-.72.54-.81.6.08-.24,0-.27-.72-.13-.87-.3.36-.08.4-.12-.12-.13-.23-.24a6.93,6.93,0,0,0,1.57-.24c.43-.13,1.28-.49,1.28-.49s-.33.18-.24.26a2,2,0,0,0,.68-.07,6.76,6.76,0,0,0,1.64-1.11s.24.35.55.23.65-1,.89-.74-.81,1.7-.57,1.92.69-.4,1-.28c.14.06.17.42.26.49s1.24-.59,1,.19a4.29,4.29,0,0,1-1.51,2c-.27.16-1.31.28-1.44.45s.55.37.48.59-1.6.27-1.31.78c.19.33,1.72,0,2-.1.43-.21,1-.44,1.43-.62s.31.32.65.16.76-.78,1.14-1Zm-9.08-8.13a2.63,2.63,0,0,0,.28.15l.12.06-.05,0a3.12,3.12,0,0,0-.43.27c-.11-.14-.19-.3-.11-.39s.49.09.54.12Zm.85-.39c.08-.09.22,0,.34.06l-.24.2C275,292.51,274.92,292.41,275,292.37Zm8.37-4.3-.14.18a2.51,2.51,0,0,1-1.09.82c.12,0,.24,0,.21,0-.23.66-2,0-2.28.48,0,0,.56.33.56.4s-1.35.41-1.49.46c-.78.26-1.28.68-2,1-.21.08.37,0,.23.2-.3.41-1.32-.09-1.73.19-.24.18,0,.27-.16.49h0l-.1-.08c-.32-.36-.27-.44-.71-.6-.13-.05-.46-.3-.32-.3s.2.16.27.18c.35.13.87-.27,1.09-.51s-.69.23-.6,0,.25-.16.32-.24.54-.93.44-1-.35.17-.41.21a10.37,10.37,0,0,1-1.14.77,2.53,2.53,0,0,1-.83.12,0,0,0,0,1,0,0c-.12.13-.49-.09-.49-.09a3.49,3.49,0,0,0,.46.06h0c0-.09-.18-.22-.23-.33s.3-.18.3-.18a.49.49,0,0,1-.22-.08c0-.05.14-.12.08-.18-.29-.33-.9.44-1.19.12a2,2,0,0,1,0-1.17c.08-.08.5.26.57.18s-.35-.36-.38-.42.14,0,.19-.06-.12-.23-.16-.36-.14-.62-.14-.62.24.26.33.3c.28.1,1,.2,1.19-.06s-.27-.42-.27-.42.51.12.41-.09-.32-.12-.41-.12-.22,0-.19,0c.46-.25,1-.13,1.47-.6.07-.07.35-.31.3-.41s-.75-.05-1,0c-.05.05-.1.08-.07,0l.07,0,.09-.07c-.05,0-.84.12-.84,0s.15,0,.22,0,.81-.33.7-.45-.91.29-1.22.12a3.31,3.31,0,0,1-.76-.66.93.93,0,0,1-.11-.27s.28.25.41.18-.29-.37-.26-.49a3.83,3.83,0,0,0,1.15.18,12.81,12.81,0,0,1,1.77-.37s-.7.82-.54,1.11.95-.53,1.19-.31-.85.88-.64,1.06a23.27,23.27,0,0,0,3.09-1c.24.22-.37,1.1-.21,1.24.32.29,1.4-1.17,1.78-.83s-.39,1-.27,1.13.26-.17.3-.2a10.57,10.57,0,0,1,2.12-1.69c.11-.05.54-.68.64-.59s-.2,1.47-.13,1.46.71-.81.91-1a25.72,25.72,0,0,0-.2,3Zm9.43,11.69a.68.68,0,0,1,.64-.21,1.62,1.62,0,0,0-.22.52L293,300S292.7,299.84,292.76,299.76Zm5.11,2.84-.06.1c-.19.27-.72.67-.56,1,.09.19.44-.22.62-.45v.2a3.68,3.68,0,0,1-.61,1.22l-.05.07a1.38,1.38,0,0,0-.66.4c-.12.14.34.4.21.54-.3.33-1.33.23-1.74.38-.21.08-.05.86-.63,1.07-.77.28-.93-.17-1.19.39a.8.8,0,0,1-.33.33c.3-.83-2.12.6-2.16.61s-.15,0-.16,0,.09-.24.13-.3c.35-.48-.34-.18-.6-.23a3.91,3.91,0,0,1-.94-.39l-.12-.26s0,.07,0,.19a5.75,5.75,0,0,0-1.3-.61c-.08,0,0,.43-.57.12l-.14-.09a7.62,7.62,0,0,1-.61-1.17c0-.08.52-.14.25-.5a5.2,5.2,0,0,1-.57-1.53s.48.83.58.56-.29-.74-.45-1l-.12-.25a.15.15,0,0,1-.06-.11s0,0,.06.11l.09.08a5.26,5.26,0,0,0,2.57,1.19c.16,0,1.14.31,1-.08-.06-.23-.6-.52-1.1-.72-.14,0-1-.26-.76-.24a3.32,3.32,0,0,1,.76.24s0,0,0-.06c-.31-.39-1.58-.55-2-.69-.27-.09-1.09-1.2-1.39-.92s-.08.92-.4,1.22l-.1.07c-.06-.17-.11-.34-.17-.51,0-1,0-2,0-3a1.91,1.91,0,0,1,.33.19c.21.28.49.9.78,1s-.11-.69.08-.83.15.06.22.09.72-.11.59.06c-.37.49,1.76,1.71,2,1.41.08-.11-.55-.55-.38-.77s.85.53,1.07.22c.12-.15-1.27-1.26-1.2-1.61.12-.56.56-.1.81-.43,0-.07-1.05-1-1.12-1.22-.19-.46.47-.2.59-.53s-.42-.75-.09-1c.49-.34,1.63.7,1.95,1.13,0,0,.3.37.25.43s-.55-.28-.69-.09,1,1.51,1.25,1.6l.05,0a.52.52,0,0,1-.06-.19s.05,0,.09.08,0,.13,0,.11a5.38,5.38,0,0,0,2,1.56,2.65,2.65,0,0,0,1.32-.15,8.66,8.66,0,0,1-.92-.48l.21-.23c.22-.24.68-.2.91-.46l.14-.16a2,2,0,0,0,.65-.58.11.11,0,0,0,0-.17h0s.13-.39.21-.31-.15.65.07.77.82-.79,1-.61-.05.63.07.76.77-.6.56.08a4,4,0,0,1-1.05,1.68,2.19,2.19,0,0,1-.28.23,7.45,7.45,0,0,0,1-.38c.07,0,.43-.38.49-.31s-.39,1.07-.76,1.75a4.56,4.56,0,0,0-1.83.59s0,.05,0,.06a6.5,6.5,0,0,1,.93-.26c.28,0-.75.3-.93.26-.6.21-1.26.51-1.33.74-.12.4,1.06.11,1.27.06a7.17,7.17,0,0,0,3.13-1.24h0Zm14.58-4.35a.08.08,0,0,1,0,.07.56.56,0,0,1-.2.12Zm-.95.79c0,.06.05.12,0,.16a.69.69,0,0,1-.28,0Zm-1,.15a.3.3,0,0,1,.37,0,2.13,2.13,0,0,0-.46,0Zm-3.18.86c.06-.14.16-.25.25-.25s0,.12-.25.25a.93.93,0,0,0-.1.35l-.12-.24Zm2.83,4.2c-.6.33-2,.47-2.51,1,0,.06.35.42,0,.62a4.19,4.19,0,0,1-1.61.3h-.42s.25.55.07.62a3,3,0,0,1-1.09.11l-.26-.12c.35-.39,2-1.57,1.48-2.14-.08-.1-.32.34-.35.38a3.29,3.29,0,0,1-1.25,1.15l-.52.26a4.35,4.35,0,0,1-.94-.71c-.3-.35.6-.54.77-.64s-.5-.37-.53-.41c-.14-.22.43-.61.58-.68a11.64,11.64,0,0,0,1.6-.6c-.34-.52-2.39-.31-3.18-.48,0,0,0,0,0,.07-.25.26-2.3-.32-2.57-.53a.12.12,0,0,1-.05-.05c-.06-.12-.11-.25-.16-.38,0-.29.07-.57.11-.83a12.82,12.82,0,0,0,.15-1.52c.34.23.67.43.83.52s0-.72.14-.61c.29.32.62,1.24.91.92.1-.12,0-.45.07-.54s.81,1.37,1,1.46.06,0,.07,0c.18-.2,0-1.09.14-1.38.36-.59.79.45,1.19.23s0-.66.14-.85.43.57.65,1c-.19.22-.32.38-.29.41s.59.08,1.07-.05l.17.12c.34.25.34.06.47-.3l.45-.15c.29.31.67.93.9.68.07-.08.05-.25,0-.44a.29.29,0,0,0,.24,0c.22-.08,1.3-1,1.32-1,.23.25-.46,1.4.42,1.07.48-.17.62-.83.9-1.24a.46.46,0,0,1,0,.09,5,5,0,0,0,.8,1c.16.17-.42.09-.25.28a3.33,3.33,0,0,0,1.15.63,3.57,3.57,0,0,0-.81.58c-.13.13.64.42.48.76s-1.24.57-1.6.77S310.45,304.09,310.16,304.25Zm2.3,3.37a10.1,10.1,0,0,1-.1,1.15c-.38.1-.76.17-1,0a.76.76,0,0,0,.22-.1c.52-.37.16-.77.84-1.22Zm8.3-26.51a.4.4,0,0,0,.11-.2c.28,0,.57,0,.69,0a5.46,5.46,0,0,0,0,1c.1.11.61-.39,1-.72,0,.36,0,.72,0,1.06a2.06,2.06,0,0,0,0,.34.65.65,0,0,1-.32.24c-.16,0-.41.07-.63.13a1.76,1.76,0,0,1-.49-.56c-.15-.33.41-.47.35-.54s-.65-.13-.84-.53C320.55,281.18,320.72,281.15,320.76,281.11Zm-.51,9.38c.05.1-.13.41-.08.46s1.19-.88,1.35-1,0,.48.17.37.45-.57.67-.79l.09,1.46a4.81,4.81,0,0,1-.3,1c-.09.14-.84.7-.8.74.27.3.8-.33,1.2-.5,0,.49.08,1,.13,1.38a5.72,5.72,0,0,1-.57.79c-.08.08-.44.49-.38.56h0a24.93,24.93,0,0,0-3.43-.51c-1.3-.29-2.11.36-3.14-.77-.16-.18.25-.15.28-.15.58,0,2.28.32,2.72.08s-.13-1,.21-1.23,1.34.06,1.75-.38c.2-.22-1.05-.39-.91-.69a10.32,10.32,0,0,1,.9-.86A.09.09,0,0,1,320.25,290.49Zm-2.75,15.39a4.17,4.17,0,0,1-.26.37c-.05-.09-.09-.18,0-.24A.41.41,0,0,1,317.5,305.88Zm.05-21.4c.36-.59.79.45,1.19.23s0-.66.14-.84.38.48.6.89a9.07,9.07,0,0,0-.79.63.89.89,0,0,1-.67.09s-.14-.26-.22-.18a.91.91,0,0,1-.31.19A3.1,3.1,0,0,1,317.55,284.48ZM314,287.74c.25.19.52.36.67.19a7,7,0,0,0-.53-1.47c0-.29.08-.57.12-.83.07-.5.12-1,.15-1.52.33.23.66.43.82.52s0-.72.14-.61c.29.32.62,1.24.91.92.11-.12,0-.45.07-.54s.73,1.21.94,1.43c-.22.13-.93-.31-1.19-.16s-.06.47-.21.55-.92-.25-.81.14.52.3.64.56-.54.26-.38.6.64.2.8.37-.29.45-.09.56a2.76,2.76,0,0,0,1.4-.09s.16-.29.21-.24-.17.65-.09.84.5-.43.59-.33-.08.61,0,.7.78-.92,1.06-.6-.53,1.68-.51,1.71c.29.32,1.17-.9,1.23-.83s0,.31-.1.51a3.82,3.82,0,0,1-.7.49,4.16,4.16,0,0,1-2.44.61H316s-.49-.22-.49-.46c0,0,1.14-.66,1-.84s-.84.15-.55,0v0c-.57-.63-1.56-.37-1.95-1.23,0,0,0,0-.05-.1C314,288.3,314,288,314,287.74Zm2.83,18.94c-.15.12-1.74,1.51-1.73,1.52a2.22,2.22,0,0,0,1.07-.15s.31-.25.36-.2-.12.12-.36.2h0a4.33,4.33,0,0,1-2.51,1c0-.15,0-.29,0-.44h0c-.08-1-.08-2-.08-3a4.16,4.16,0,0,0,1.06.47c.43.16,0-.52.21-.46a12.51,12.51,0,0,0,2.17,1Zm.37-.09c-.05,0-.07,0-.08-.06a.26.26,0,0,0,.14-.06c0-.05,0-.12,0-.2s.21-.27.3-.4a2.9,2.9,0,0,1,.91.19C318,306.32,317.5,306.64,317.22,306.59Zm2.3.37c-.22-.08-.16-.35-.12-.62a1.86,1.86,0,0,0,.72.06C319.77,306.75,319.57,307,319.52,307Zm2.76-2.34a11,11,0,0,0-1.83,1.44c0-.3-.44-.76-.38-.82s1.62.27,1.32-.38a3.2,3.2,0,0,0-.45-.16c.3-.22.59-.48.89-.72a4.6,4.6,0,0,0,.52-.06C322.32,304.15,322.3,304.38,322.28,304.62Zm-1.87-.12.14-.11-.13.11Zm2.41-8.7c-.45.71-1.31.42-2,.66a.22.22,0,0,0-.14.23,3.82,3.82,0,0,1-.84-.41c-.19-.21.78-.12.83-.15.29-.16.05-.43.56-.62a3.9,3.9,0,0,0,.84-.3c0-.08-.09-.15-.23-.21a3.63,3.63,0,0,1,1,.14Zm5.77,4.49a3.69,3.69,0,0,1-1.28.65c-.13,0-.08-.07-.19-.13s-.71.26-.82-.07c0-.07,0-.27.05-.31s.29-.14.23-.21-.51.1-.6.13-.93.22-1,.1-.21.09-.28.06-.45-.21-.64-.33c0-.25,0-.51,0-.77l.43,0s.32,0,.33,0a4.33,4.33,0,0,1-.16-.56c.08,0,.24.17.3,0s-.13-.22-.16-.25.05-.15,0-.18c-.2-.22-.39-.35-.56-.53a5.6,5.6,0,0,0,1.63,0c.2,0,.45.07.62-.15s.37-.43.32-.22a4.61,4.61,0,0,1-.83,1.47s.33-.22.33,0-.74.47-.62.73,1-.26,1.12-.37.33-.53.33-.29-.57.69-.47,1.1.89-.39,1-.51c.3-.31-.07.59,0,.65.14.28.75-.81.94-.44A.54.54,0,0,1,328.59,300.29Zm1.38.45s.07,0,.07,0-.31-.1-.47-.13-.38,0-.57,0c.34-.32.85-.82.91-.71a4.77,4.77,0,0,1,.15.88Zm.27-22h0c0,.13,0,.24,0,.35Zm1,.74s-.12.15-.29.33a5,5,0,0,0-.16-.67A4.06,4.06,0,0,1,331.26,279.51Zm9.35,16.32c-.15,0-.27,0-.22.18a.32.32,0,0,0,.09.15,7.6,7.6,0,0,1-1,1.15c-.07.09.66.12.69.16.17.2-.28.86-.34,1s.12.4,0,.59a2.39,2.39,0,0,1-.86.92,5.27,5.27,0,0,1-.6.26,4.1,4.1,0,0,0,.68-.16c.35-.14.62-1,.82-.27a4.75,4.75,0,0,1-.17,2.1c-.08.19-.57.34-.73.54s.13.3,0,.37c-.25.21-.9.26-1,.6s.5.33.43.43a2.16,2.16,0,0,1-.43.36c-.75-.41.3-1.11-1.15-1.29-.28,0-.55-.06-.83-.08a.56.56,0,0,0,0-.21c-.05-.09-.17,0-.3.19a24.41,24.41,0,0,0-3.53.1s-.05-.08,0-.1.38.1.47,0-.52-.44-.44-.62.25,0,.3-.07a1.45,1.45,0,0,0,.4-.75s-.3.1-.31.11-.76.32-.88.18.54-.45.58-.49-.26-.06-.28-.08.26-.25.21-.31-.23.11-.26.08.4-.56.26-.72-.27.08-.33.1l-.32.16-.05-.12c0-.16.19,0,.26-.15s-.17-.56-.22-.87c0-.08-.19-1.54-.18-1.54s.31.65.43.73c.38.26,1.28.49,1.59-.15.15-.31-.36-1-.36-1s.67.3.54-.22c-.06-.26-.42-.29-.54-.29s-.3,0-.25-.08a2,2,0,0,1,.73-.43c-.08.25-.14.5,0,.43.52-.33,1.11-.59,1.64-.92a9.89,9.89,0,0,1,.95-.75c.26.32-.64,1.63-.39,1.93s.67-.88.82-.69-.09.31.08.43c.32.19.52-.87.87-.65,0,0,.15.72.3.54s.75-.79.82-.7-.09.54,0,.64.29-.32.34-.32.61.38.78.16c.06-.07.53-1.59.69-1.39A.86.86,0,0,1,340.61,295.83Zm-.09-9.87c-.34.43-1,.19-1.38.59-.07.1.44.11.48.11.22,0,.94-.22,1-.16s-.52,1.08-.56,1.18a7.43,7.43,0,0,1,.22,1.51c-.36.22-1-.05-1.38.05-.73.18-1.45.48-2.2.59-.33.05-.83-.23-1.12-.05s.65.53.51.7c-.45.56-1.09-1.07-1.33-.92s-.2.61-.43.76-.61-.43-.74-.43,0,.48-.17.64c-.25.31-1.08-.63-1.29-.37s-.07.44-.3.59a.44.44,0,0,1-.16.06c-.1-.22-.19-.42-.13-.53s.4.14.5-.08-.37-.6-.43-.73c-.22-.45.14-.67-.07-1.1a8.54,8.54,0,0,1-.33-1.17c.09-.17.38.55.51.3s0-1-.28-1.49v0c-.13.27-.4-.8-.4-.8a7.78,7.78,0,0,1,.41.78,5,5,0,0,0-.23-2c-.09-.36.19-.32.08-.8-.06-.23-.48-1.16-.47-1.17s.42.49.5.14a2.51,2.51,0,0,0-.1-1,5.31,5.31,0,0,0,.69-.15l.78-.21s-.71.56-.52.81.86-.17,1,0-.4.58-.35.64c.29.36,1.49-1,1.77-.69.07.08-.19.38-.22.43a3.5,3.5,0,0,1-1.2,1s-.77.17-.65.32c.46.58,1.86-.52,2.24-.75.08-.06.58-.68.65-.59s-.15.82-.05,1.07.8-.08.95.11.78-1.08,1-.86-.57,1-.43,1.18.32-.19.39-.21c.47-.2.89-.71,1.38-.86.27-.09.1.17.21.32s.34-.6.52-.49.12.37.17.43.59-.61.78-.37-.13.75,0,.91.47-1.26.52-1.07A8.84,8.84,0,0,1,340.52,286Zm6.43-6.45c.15-.19.4,0,.61.13-.1.18-.21.37-.32.54C347.08,279.89,346.87,279.6,347,279.51Zm-4.4,14.73c.22,0,1,.66,1.5.73L344,295a.87.87,0,0,1-.68.09s-.13-.26-.21-.18a1.41,1.41,0,0,1-.48.26C342.58,294.86,342.54,294.24,342.55,294.24Zm2,4.14c.31.34-.23,1.24-.44,1.58-.26-.29-.59-.66-.5-.77s.47.11.47.11a1.53,1.53,0,0,1-.35-.33l0,0C344,298.72,344.32,298.15,344.53,298.38Zm-.3-3.87h.41l-.29.22C344.27,294.63,344.08,294.56,344.23,294.51Zm-.73,4.06-.12-.25s.07-.06.09,0A.35.35,0,0,1,343.5,298.57Zm-.86-3.15s0,0,0-.06a.2.2,0,0,1,0,.07Zm5.08,5.34c-.43.27-1,.6-1.16.42s.35-.35.13-.49-.86.33-1,.17.14-.1.08-.17-.69.19-.82.22c-.35.07-1.74.12-1.94-.38,0,0,1.31-.11,1.38-.21s0-.09-.15-.2c.37-.14.95-.91,1-.86.26.28-.5.95-.5,1.16s.67-.56.8-.28c0,.1-.13.41-.08.46s1.18-.88,1.35-1,0,.48.16.37.46-.57.68-.79l.09,1.46S347.73,300.73,347.72,300.76ZM345,294.13l.06,0-.08.09S345,294.16,345,294.13Zm2.72-10.07.06,0c-.05.49-.08,1-.1,1.51-.44.71-1.37.77-2,1-.3.11.29.56.25.6s-.81.18-1.12.3c.13-.27.73-.26.73-.26s-1-.13-.78-.37c0,0,.07,0,.13,0l-1.29-.78c-.6-.37-.26-1-.56-1.4s-.23-1-.52-1.72a1.09,1.09,0,0,1,0-.37,1.44,1.44,0,0,0,.13.64,1.52,1.52,0,0,0,.73-.11c.12-.14-.19-.54-.26-.59-.35-.22,0-.39,0-.43a5.06,5.06,0,0,1-.26-.91c.08-.1.91.35,1,.37a6.7,6.7,0,0,0,1.33.11h.69s-.87-.89-.6-1.24.86.22.86.22l-.56-.43s.28.19.43.27a4.51,4.51,0,0,0,.74.32c-.15.19-.3.38-.48.57s.36.21.21.37-1.84.17-1.64.61c.11.25.83.12.67.46,0,.07-1,.48-.72.65a2.09,2.09,0,0,0,1.86-.28c.21-.12.29.26.51.14s.58-.43.67-.33S347.52,283.83,347.73,284.06Zm4.83,18.64-.29.16-.4,0,.07-.08s-.1,0-.18.06-.16,0-.16-.06S352.17,302.68,352.56,302.7ZM352,315.8a2.81,2.81,0,0,1-.62-.52c-.14-.16.06-.56-.05-.74s-.5-.32-.72-.49c.32,0,.8.32,1.09.16s-.19-.66,0-.74.27,0,.35.07a9.73,9.73,0,0,0,1.08.18c.06,0,.48.17.53.11s-.32-.44-.21-.57.31.21.4.1,0-.22,0-.28.66.21.77.23c.53.1,1.12.21,1.69.28Zm5.65-2.92-.38.21a1.11,1.11,0,0,1-.25-.21c.1-.12.49.13.61,0s-.09-.25-.12-.34C357.76,312.58,358,312.67,357.64,312.88Zm1.22-2.62a.76.76,0,0,0-.11.14c-.1.18.07.57-.05.74a3.77,3.77,0,0,1-1.09.92c-.06-.07-.11-.13-.08-.18s.25-.05.3-.08a1.46,1.46,0,0,0,.4-.74c0-.06-.3.09-.31.1s-.76.32-.88.18.54-.45.58-.49-.27-.06-.28-.08.26-.25.21-.3-.23.1-.26.07.4-.56.26-.72-.27.08-.33.11a5,5,0,0,1-1,.43c-.06,0-.36.22-.42.16s.06-.22.05-.23-.46.18-.61.1.07,0,.07,0-.31-.1-.47-.13-.66.07-.79-.07.5-.55.44-.62-.42.25-.46.28a4.41,4.41,0,0,1-1.45.77c-.13,0-.08-.06-.19-.12s-.72.25-.82-.08c0-.07,0-.27.05-.31s.29-.14.23-.21-.51.1-.6.13-.93.22-1,.11-.21.09-.28.05-.45-.2-.64-.33c0-.25,0-.51,0-.76h.43s.32,0,.33,0l0-.07c.61,0,1.23,0,1.84,0,.14,0,.92.18,1.07,0,0,0-1-.49-1.11-.53l-1-.42a1.08,1.08,0,0,0,.7-.28c.13-.15-1.23-.65-1.63-.94l.15.08c.09,0,.78.39.84.33s-.07-.21,0-.28.61,0,.75,0,.73.2.84.08-.42-.31-.35-.46.85.22,1,.05,0-.23.07-.28a1,1,0,0,1,.74,0c-.15.07-.37,0-.45.11s.07.22.11.25c.69.37,1.56-.06,2.23.31H356c.22.24-.89.65-.74.82s1.3-.19,1.6-.19c.88,0,.64.57,1.08.81.07,0,.29-.06.35,0a.43.43,0,0,1,0,.27c-.23.13-.4.27-.32.32a.86.86,0,0,0,.3.07.19.19,0,0,0,0,.09c.1.11.35.14.46.26A1.49,1.49,0,0,1,358.86,310.26Zm-.74-6.23h-.06c-.15,0-.92.27-1.05.13s.82-.64.61-.87c-.06-.07-.25.06-.3.07-.33.09-.62.34-1,.41-.05,0-.28.16-.33.11s.22-.43.16-.54-.45.29-.35.05.38-.56.36-.82a8.11,8.11,0,0,0,2.38.31c.06,0,.35-.31.4-.25C359.23,302.92,358.33,303.91,358.12,304Zm3.61-18a4.62,4.62,0,0,1,.47-.33c.14.17-.78,1.17-.89,1.26l-.33.17-.06-.14a4.37,4.37,0,0,1-.12-.61A4.34,4.34,0,0,0,361.73,286.07Zm-1,16.6a1.17,1.17,0,0,1-.2.33l-.23-.44.26,0a1.21,1.21,0,0,0-.27,0,2.3,2.3,0,0,1-.26-.83c0-.1.45.24.46.25s.44.34.74.49l-.67.09C360.72,302.55,360.79,302.58,360.76,302.67Zm-.05-4.55.06-.08s0,.09,0,.19Zm.62,7c-.11-.14-.21-.27-.18-.3s.37.05.48,0Zm.35-.3a.14.14,0,0,0,0-.06.76.76,0,0,0-.28-.31,2.88,2.88,0,0,1,.84-.36C362.32,304.24,362,304.52,361.68,304.84Zm2.47-3.33a8.19,8.19,0,0,1-2.31.84c-.06-.11-.27-.23-.18-.33.25-.27,1,.31,1-.06,0,0-.4-.47-.23-.57.45-.24,1-.25,1.32-.43s.79-.49.89-.56C364.58,300.9,364.46,301.34,364.15,301.51Zm.52-1.12c-.13,0-1-.08-.89-.38,0-.06.69-.42,1.11-.68A10.42,10.42,0,0,0,364.67,300.39Zm.81-1.79a.71.71,0,0,0-.46.39,2.38,2.38,0,0,0-1.3.4s-.46.17-.46.12c0-.58-.64,0-1.2-.31-.08-.05.29-.06.29-.06a1.72,1.72,0,0,0-.34-.07h-.12a3.35,3.35,0,0,0,.63-.75c.14-.23.27-.72.49-.85s.29.69.33.67.34-.65.47-.51.07.48.11.43.45-.66.73-.56.15.81.18.77c.39-.43.71-1.13,1.22-1.41.23-.13,0,.46.14.41s.28-.34.49-.41.08.15.21.1a6.16,6.16,0,0,0,.63-.41c.2-.11.25.17.37.1s.27-.31.42-.42c0,1.24.06,2.44.06,3.56C367.38,299.31,366.11,298.43,365.48,298.6Zm2.9-10.33c-.18.26-.36.49-.44.63s-.82.61-.34.78a1.18,1.18,0,0,0,.69.08c0,.43,0,.87,0,1.32l0,.06c-.31.67-1.29,1.11-1.84,1.51-.1.07-.66.09-.59.31s.42.17.52.28c.28.31-.58.15-.71.05-.41-.3-.71-.79-1.09-1.13,0,0-.32-.29-.33-.28-.18.2.1.82-.28,1s-.63-.21-.91-.21c0,0,.12.28.09.31-.16.18-.55-.13-.75,0s0,.24-.21.31a1.86,1.86,0,0,1-.83.06,6,6,0,0,1-.65-1.42l-.12-.26s.58.53.86.38-.07-.37,0-.44.51.13.51.13-.74-.63-.51-.88c0,0,.94,0,.63-.31-.13-.14-.78-.55-.63-.88s.67.28.8,0c0-.07-.9-1.1-1-1.26-.16-.34.38-.23.23-.56a3.28,3.28,0,0,0-.31-.45,3.17,3.17,0,0,0,1.87-.27s0-.1,0,0c.26.28.79.07,1,.32s-.59.56-.33.7,1.18-.34,1.47-.56l.17-.14s-.52.77-.29,1,1.2-.26,1.43-.51l.17-.14s-.44.42-.68.61a3.91,3.91,0,0,0-.54.37c0,.17.94-.28,1.05-.33a10.34,10.34,0,0,0,1.65-1.2c.08-.06.25-.37.41-.57C368.48,287.17,368.42,287.72,368.38,288.27Zm7.74,3c-.65.18-1.28.52-1.94.64-.17,0-.92.33-1.08.16s.39-.63.24-.8-.39.3-.45.33,0-.26-.18-.18-.32.38-.42.26.17-.38,0-.49-.41.13-.56.18-.21.1-.25.05,0-.17-.05-.12-.41.4-.66.54c-.61.33-1.14-.07-1.53-.46l.06-.35v0c.19,0,.52,0,.6-.14,0,0-.33-.61-.44-.82s0-.18.05-.28c.18.07.47.25.55.15s-.22-.31-.25-.38-.12-.26-.2-.47.07-.5.11-.75l.06.06a2.82,2.82,0,0,0,.61.23l.26.08s-.36-.4-.24-.54.75.16.89,0-.1-.22,0-.28c.27-.3.93.27,1.29.07.18-.09-.18-.65,0-.74s.26.06.35.08a6.21,6.21,0,0,0,.73.13l.08.05a2.08,2.08,0,0,0,.39.19.91.91,0,0,1-.27.09,1,1,0,0,0-.64.21c-.16.17.46.13.38.31s-.64,0-.77.18.22.25,0,.34-.77-.14-.87,0,.78.61.89.64a4.33,4.33,0,0,0,1.39.06,3.31,3.31,0,0,1,.48-.09c0,.05-.52.42-.34.49s.9-.18,1.2-.22c.06,0,.28-.12.33-.06s-.08.21.06.21.46-.44.53-.36a3.31,3.31,0,0,1,.25,1.63C376.54,291,376.21,291.26,376.12,291.29ZM374.25,287c.05-.06.18.06.28.1a.86.86,0,0,1-.27.05C374.23,287.1,374.21,287,374.25,287Zm2.4,4.46s0-.09,0-.15v.16Zm.67-7.44-.24.08c-.07,0-.37.21-.43.15s.06-.22.05-.23-.46.18-.61.1.07,0,.07,0a3,3,0,0,0-.46-.13c-.2,0-.67.06-.8-.08s.51-.55.45-.61-.42.25-.47.28a4.5,4.5,0,0,1-1.45.77c-.13,0-.08-.07-.19-.13s-.71.26-.81-.08c0-.07,0-.27,0-.31s.3-.14.24-.2-.51.09-.61.13-.93.21-1,.1-.21.09-.28,0-.45-.2-.64-.32c0-.26,0-.51,0-.77h.44l.32,0s-.19-.57-.16-.57.24.18.3,0-.13-.22-.16-.26.05-.14,0-.18a7.92,7.92,0,0,1-.71-.71c0-.26,0-.53,0-.79.26.1.61.31.7.35s.79.4.85.33-.07-.21,0-.28.61,0,.74,0,.73.2.84.07-.42-.31-.35-.46.85.22,1,0,0-.23.07-.28c.42-.23.88.16,1.31,0,.12,0-.26-.38-.12-.46s.52,0,.68,0a4.12,4.12,0,0,0,.6,0c-.06.13-.11.26-.08.29s.74-.2.47.09c-.1.12-.51.38-.58.52s.38.07.25.27-.53.32-.67.62c-.06.14.07.28,0,.42a1.37,1.37,0,0,1-.61.58c-.29.16-.62.16-.89.31,0,0-.27.16-.19.24s.88,0,1.05,0,.36-.15.42-.09-.27.32-.17.43.7-.09.87-.09,0,.24.19.18.61-.4.67-.34a2.57,2.57,0,0,1,0,.62C377.31,283.81,377.31,283.91,377.32,284Zm.85-.43a.27.27,0,0,1,.06-.1l.12.05A.33.33,0,0,0,378.17,283.6Zm-8.79-32.36h0C369.45,251.05,369.47,251,369.38,251.24Z"/><path class="cls-10" d="M288.69,125.48c3.55.06,7.22,1.38,10.75,1.74,2.72.27,5.51-.5,8.24-.41,3.08.1,6.42,1.06,9.48.69,4.16-.51,7.54-2.88,11.76-3.76,6.9-1.42.37-5.53-2.32-6.62-5.35-2.16-8.82-1.53-14.25-2.29-2.74-.39-4.92-1.6-7.8-1.58-3.53,0-6.89,1.34-10.43,1.47-1.45,0-2.55-1-3.94-1.23-1.57-.3-3.34.15-4.92.16l-2.34.85c-2.77.62-5.46,1.62-8.23,2.29-1.47.35-2.83,0-4.25.65-.95.45-2.19,1.51-2.07,2.67.48,4.43,7.89,4.82,11.18,5.63C282.36,126.44,285.78,125.43,288.69,125.48Z"/><path class="cls-10" d="M62.77,86.74l3.41-.83c4.19,1.3,8.74.59,13,.73,10.37.34,20.73-.32,31.09-.29,4.08,0,12.26,1.72,15-2.37,1.49-2.23-3.52-4.37-4.56-5.77-.91-1.22-1.2-2.72-2.2-3.92-2.34-2.77-6.31-1.82-9.55-2.24-6.37-.82-9.81-6.85-16.23-8.08a16.36,16.36,0,0,0-9.52,1.93c-.84.54-1.35,1.41-2.29,1.83-1.66.75-3.53.84-5.16,1.74s-2.74,2.43-4.56,3.12c-3.64,1.39-7.79.67-11.44,2.13-1.51.6-2.6,1.91-3.9,2.82s-9.16,5-9.2,5.33C46.16,87.73,60,86.78,62.77,86.74Z"/></g></g></g></svg>