<svg xmlns="http://www.w3.org/2000/svg" viewBox="0 0 601 598.65"><defs><style>.cls-1{fill:#e6efec}.cls-2{fill:#73a1c6}.cls-11,.cls-12,.cls-14,.cls-2,.cls-3,.cls-4,.cls-5,.cls-7,.cls-8,.cls-9{fill-rule:evenodd}.cls-3{fill:#90b9cb}.cls-4{fill:#fff}.cls-5{fill:#39556b}.cls-6{fill:#ad4325}.cls-7{fill:#1d2b36}.cls-8{fill:#ce954c}.cls-9{fill:#bc6935}.cls-10,.cls-12{fill:#572213}.cls-11{fill:#411a0e}.cls-13,.cls-14{fill:#2b1109}</style></defs><g id="Layer_2" data-name="Layer 2"><g id="Layer_1-2" data-name="Layer 1"><rect width="601" height="598.65" class="cls-1"/><path d="M511.18,384.74c1.84-8.79,5.23-17,4.43-26.15-1.11-12.76-8.5-24.44-9.72-37.47-.72-7.79,4-15.09,1.38-22.59-3.34-9.56-13.88-19.61-15.6-26.87-1.91-8-5.23-17.56-5.38-25.82-.12-6,4.76-8.75,2-15.52-1.1-2.69-3.9-4.46-5-7-3.81-8.86-7.15-17.54-13-25.73-1.84-2.56-5.47-3.82-7.5-6.34-3.66-4.55-6.69-14.49-7.9-19.92-2.27-10.26,10.93-19.4,12.53-29.12,2.32-14-15.7-24.66-9.21-37.31A14.64,14.64,0,0,0,455,107.1c-13.43,12.66-21.88,28.35-35.93,40.94-6.19,5.54-27.95,13.13-37.35,19.17-10.9,7-25,14.28-34.69,22-15.06,12-26.39,28.12-43.26,39.21C272.41,249,239,266.63,206.22,285.2c-9.48,5.38-17.06,13.65-26.61,18.63-13.36,7-28.59,8.18-42,13.8-10.17,4.28-18.85,10.16-28.14,15.45v80.48c14.16,1.78,28,5.42,42.37,7.49,34.61,5,66.7,10.66,100.52,18.59,45.31,10.63,119,23.32,166.35,21.3,9.6-.41,17-4.85,26.15-6.66,20.38-4,42.27-7.26,63-10.56Q518.8,442,530,440.54C509.36,427.39,506.56,406.86,511.18,384.74Z" class="cls-2"/><path d="M601,262.29c-7.46-2-14.92-4.34-19.77-9.61-7.24-7.86-15.78-39.5-23.42-49-6.34-7.92-15.36-20.08-23.27-26.74-11.21-9.46-26.5-16.24-34.66-28.47-5.94-8.91-21.65-42.77-35.12-44.81a10.93,10.93,0,0,0-6.61,1.23c-6.49,12.65,11.53,23.3,9.21,37.31-1.6,9.72-14.8,18.86-12.53,29.12,1.21,5.43,4.24,15.37,7.9,19.92,2,2.52,5.66,3.78,7.5,6.34,5.9,8.19,9.24,16.87,13,25.73,1.11,2.59,3.91,4.36,5,7,2.76,6.77-2.12,9.5-2,15.52.15,8.26,3.47,17.78,5.38,25.82,1.72,7.26,12.26,17.31,15.6,26.87,2.63,7.5-2.1,14.8-1.38,22.59,1.22,13,8.61,24.71,9.72,37.47.8,9.11-2.59,17.36-4.43,26.15-4.62,22.12-1.82,42.65,18.85,55.8,23.16-3,47.09-5.16,71-6.5Z" class="cls-3"/><path d="M511.42,172.87a12.62,12.62,0,0,1,5,4c2.32,2.93,4.06,6.18,6.67,9,2.3,2.43,3.24-2.05,6.23-.37,2.22,1.25,7.79,3.68,9.15,4.62s5.86,5,10.27,7.73c-6.33-9.17-12.92-18.24-19.21-27.28-3.78-5.44-6.23-11.56-10.44-16.75-5.23-6.47-12.45-11-18-17.16-3-3.29-4.36-7.47-6.92-11-2.38-3.24-5.61-5.83-8.23-8.91-4.76-5.59-18.34-37.4-23.67-38.17-3-.43-9.49,16.93-18.74,27.74-8.11,9.47-15.17,19.83-24.69,28.4-4.32,3.88-9.65,6.75-13.86,10.78-6.27,6-8.48,11.18-16.47,16.86l-1.33,2c6.65-1.29,4,6,9.7,8.47a1.84,1.84,0,0,0,.25.09c1.93.44,3.86-.36,5.86.32s4,2.6,6.26,2.74c2.92.19,4.27-2.78,7.19-1,5.83,3.59,13,17,17.7,18.79,1.49.56,3.88-5.17,7.08-5.28,2.66-.09,5.09,1.66,7.72,1.92,2.26.22,4.1-1.15,6.29-1.13,1.59,0,3.45,2.24,5,1.23,1.85-1.2,3.42-13.35,7.8-11.24,2.76,1.33,8.11,14.78,7.6,17.67s-3.76,4.74-3.23,7.91c1.39,8.33,8.11,1.61,11.52,5.13,1.77,1.83,15.47,16.5,16.83,16.7s2.72-1.21,3.88-1.69c1.36-.56,3-.46,3.82-1.75,1-1.52-7.06-10.22-1.28-10.18,3,0,5.65,5.45,7.06,7.17,1.79,2.19,6.35,3.76,8.91,5.33.52.32,2,1.44,2.6.69,1.54-1.85-1-7.64-1.26-9.8-1.25-11.35-5.92-21.65-10-32.4-1.41-3.73-3.05-7.38-4.79-11,0-.1-.35-.55-.3-.64C509.56,172.09,511.34,172.83,511.42,172.87Z" class="cls-4"/><path d="M376.52,400.38c-2.15-.6-2.17-1.52-3-2.7-.37-.52-8.6,2.58-9.9,2.4-3.21-.45-2.58-3.2-5.6-3.9-4.37-1-10.05.49-14.63-.3-5-.88-4.22-5.21-7.75-5.71-.54-.07-2.06,4.46-2.44,3.2-.5-1.63.14-9.09-.69-8.6-1.08.63-3.23,8.32-4.11,8.12-1.22-.28-1.43-4.8-2.74-4.54s-2.9,4.08-4.22,3.92c-2.25-.26-2.05-5.67-3-7-.39-.56-1.33,1.74-2.06,2.39s-1-.6-1.37-.72c-1.72-.6-4.11,3.09-5.48,3.1-1.08,0-1.13-3.82-2.4-3.1-1.06.6-2.48,5-3.81,4.78-1.61-.28-1.45-6-2.7-7.89-.72-1.09-3.44,5.85-4.45,5.74-1.19-.13-.67-7.24-1.44-7.78-.5-.35-3.24,1.35-4.3.6-.44-.3.65-2.7-.43-2.7-1.65,0-6.25,6.75-7.32,6-1.94-1.35-3.45-8.57-4.33-11.17-.63-1.87-4.53,3-5.57,1.57-1.41-2,.52-5-1.29-6.3-2.38-1.66-7.05.79-8.61-.3-2.28-1.59-3.84-4.49-7.31-5.7-2.49-.87-6,3.29-8.18,1.8-1.43-1-.81-4.16-2.15-5.1-1.9-1.33-5.32,2.59-7.75.9-2-1.37-.7-4.15-3.44-5.1-2.06-.72-5.46,3.09-7.32,1.8-2.41-1.68-2.52-5.36-4.73-6.91-1.91-1.33-3,3.63-4.74,3-1.39-.48.1-3.53-.86-4.2-.61-.42-4.57.12-6-.9-.63-.43-.86-4.5-2.15-5.4-.82-.56-2.76,1.41-3.58.76-1-.83-.86-4.75-2.58-5.7s-5.81.95-7.75,0-1.93-5.15-3.87-5.71c-.77-.21-1.81,1.37-3.08,1.35-.81,0-1.84-1.79-2.56-1.47-1,.43-1.17,2.32-2.11,2.53-2.26.48-3.43-2.82-3.89-4-.38-1-3.57,2.23-4.27,1.53-1.65-1.65.13-4.55-1.31-5-1.67-.55-3.77,2.31-5.55,3-.83.33-.59-4.57-2.19-1.2-.81,1.7-2.08-7.51-4.66-8.16-1.24-.32-3.55,4.52-5.62,5.64-.95.52-1.15-3-1.95-3.38-1.08-.48-2.69,2.06-3.27,2-1.94-.19.22-5.5-.86-5.4s-3.7,5.43-5.59,6c-.69.21-1.15-1.68-1.8-2.14s-1.27,1.73-2,1.73-1.27-2.2-1.95-2.17-.28,3.39-2.11,3.36-1.88-5.94-3.24-5.4c-2,.79-3.18,6.83-4.41,6.72-2.87-.25-3.73-5.7-5.17-5.4s-2.29,6.55-3.44,7.2-2.12-3.57-3.44-3.3-3,5.11-4.51,5-3.2-6.48-4.53-5.86-1.65,8.15-3.44,9.61c-.86.69-2.91-4.06-4.36-4.55-.74-.24-.71,5.57-2,5.58s-2-2.49-2.41-2.39c-2,.5-2.12,4.93-3.31,4.36s-2.08-8.46-3.88-7.81-5,9.86-6.88,11.71c-.84.83-3.15-1.23-4.31-.6s-2.29,4.35-3.44,4.8-2.29-2.4-3.44-2.1-2.44,4.3-3.45,3.9-1.72-6.7-2.58-6.3-1.43,7.5-2.58,8.7c-.89.93-3.07-2.22-4.3-1.5s-2.23,6.05-3.45,6-2.51-7.4-3.87-6.3c-.44.36-.49,7.87-1.18,8.31-.52.33-1.71-6.66-2.06-5.25-.61,2.48-.38,9.28-1.06,9.84-1.58,1.3-3.63-6.25-5.17-5.1s-2.32,11-4.05,12c-.68.38-1.11-4.06-1.71-5.73-.45-1.26-1.91,3.54-2.74,3.58s-1.11-4.64-1.83-4.13c-1.22.87-2.11,9.68-4,11.78-.84.93-2.56-5.8-3.43-4.3s0,9.54-1.48,10.07c-2.55.89-3.23-2.25-4.3-3s-2.68,2.64-4.31,1.5-1-4.69-3-5.4c-.85-.3-1.42,4.42-2.32,3.75s-2.38-6.89-3.08-6.45,0,5.51-1.06,4.8-1.11-7.12-1.68-8.62c-.19-.5-.5-.25-.85.24v47.38c89.81-4.94,180.74-6.87,270.65-2.39,27.63,1.38,54.94,3.43,82.63,1.5,6.31-.44,29-2.18,33.57-5.4.36-.25-.73-1.42-.86-1.8C384.28,401.61,383,402.2,376.52,400.38Z" class="cls-5"/><rect width="600.79" height="174.7" x=".21" y="423.95" class="cls-6"/><path d="M601,361.49a12.31,12.31,0,0,1-6.12-.33c-3-1.06-3-3.22-5-4.78-8.67-6.68-26.54-11.69-39.62-10.64-4.86.4-36.05,20-43.05,22.35-2.59.87-13.47,1.51-16.52,1.69-6.47.38-22.07-3.33-27-5.66-3.21-1.5-4.76-4-8.29-5.31s-8.12-.86-11.68-2.45c-2.13-1-2.15-3.15-4.12-3.92-3.11-1.2-7-.95-10.26-2.06-4.16-1.43-8.23-7.44-13.77-7-12.58.94-13.76,11.33-23,15-3.62,1.46-8.28,1-11.71,2.42-6.38,2.71-7.76,7.32-16.46,8-3.85.31-16.58-2.74-17.17-2.57-3.79,1.05-4.74,4.21-8.3,5.51-2.75,1-6.15.06-8.62,1.33-3.72,1.91-4.42,5.84-9.4,6.76-7.3,1.36-22.8-2.37-29.32-5.24-2.54-1.12-3.89-3.27-7-3.8-9.38-1.59-18.87.83-28.54-1.22-4.93-1-7.17-4.44-12.66-4.67s-10.06,11-14.84,13.34c-8.84,4.36-11.24-3.82-18.06-3-5.23.62-6.7,6.05-12.83,7.08-7.63,1.29-14.57-2.73-21.16-2.58-4.81.12-4,5.88-10.54,4.76-4.36-.75-9.39-5.95-12.94-6.21-4.74-.34-3.85,5.07-7.86,5.62-3.42.47-11.75,1.67-15.12,1.32-3.11-.33-4.79-2.32-8.26-2.27-3.17,0-5.93,1.5-9.11,1.35-3.46-.16-5.34-3-8.39-3.79-14.24-3.87-36-4.72-43.93,6.71L59,389.19c-3.84,2.7-6.74,5.68-11.67,7.58C44,398,39.7,398.22,36.83,400c-6.59,4-9.75,10.65-16.46,14.7-2.8,1.68-7.85,2.73-8.71,5.52a1.5,1.5,0,0,0,.07,1.32c1.39,2.31,26.33,3.22,29.84,2.14,16.35-5,33.54-3.73,50.15-.13,4.73,1,8.91,3.24,13.88,3.71,13.17,1.23,27.58-3.38,40.72-3.54,13-.16,30.5,8.2,42.8,8.68,6,.23,14,1.45,19.91,1,8.57-.62,15.93-2.91,24.89-2.7,8.67.2,16.5,2.27,25,2.7,4.94.26,9.5-1.23,14.35-1.21,10.8.05,21,1.64,32.11,1.07,4.55-.23,8.69-1.91,13.32-1.9,6.84,0,13.64,1.68,20.28,1.53,13.46-.3,27.14-2.85,40.35-3.7,4.74-.31,9.48.88,14.19.23,8.35-1.17,16.45-3.92,25-4.63,6.57-.54,11.54,2.68,17.77,3,9.11.5,20-.72,29.08-1.51,5.93-.52,9.49-4.3,15.06-5,3.7-.47,7.39.82,11.15.64,5.23-.25,10.33-1.88,15.57-2.26,12.93-.93,25.06-.14,38,.54,13.72.73,27.17-2.63,40.62-3.33,3.34-.17,6.51,1.48,9.76.94a39.75,39.75,0,0,0,5.47-1.36Z" class="cls-7"/><path d="M601,405.25c-7.77-1.59-15.28-3.68-22.94-5.51-2.28-.54-4.37-2.42-6.69-2.6-3.6-.29-9.59,1.41-13,.22l-.18-.07c-2.45-1.32-2.36-7.78-5.17-7.74-2.66,0-4.65,7.34-8,8.3-1.29.37-2.77-1.25-4.21-1.23-2.17,0-5.93-.5-7.76-.29-2.24.26-3.7,2.42-6.18,2.53-1.62.08-2.9-1.24-4.61-.82-2.28.55-4,2.32-6.09,3.17-7.26,2.94-18.23,7.72-25.59,9.78-8.52,2.39-18.39.11-26.92.34-2.59.08-4.93,1.4-7.56,1.49-7.27.24-13.83-6.2-21-7-4-.43-6.73,2.08-10.9,1.49-8.49-1.2-16.94-7.14-25.84-7.18-4.46,0-6.76,2.27-10.73,3-3.07.54-6.05-1.29-9.14-1.18-4.16.16-7.12,2.49-11.44,2.39-3-.06-7.45.28-10.33-.35-4.41-1-5.17-4.17-10.82-3.92-15.9.71-20.26,12.44-31.38,17.95-4,2-12.13-.08-16.73.42-3.41.37-5.64,3.1-9.2,2.73-8.24-.85-13-5.39-20.74-6.59-3.54-.54-7.62.32-10.94-.86-3-1.07-4.1-4.6-7.4-5.29-5.25-1.09-3.93,1.57-7,3-1.33.6-6.53.12-8.2,0-4.7-.33-13,.23-17.08-1.8-3.43-1.72-4.62-4.94-8.88-5.72-3.69-.68-4.88,1.49-7.65,1.62-4,.19-9-1-13-1.59-11.39-1.67-24.69-8-36.24-7.34-10.81.61-14.73,3.64-24,6.22-2.35.65-5.06.4-7.31,1.2-3.45,1.23-6.1,3.49-9.82,4.56-5.23,1.51-11.25,1.43-16.42,3-3,.92-4.59,3.63-7.63,4.19-5.28,1-8.55-3.26-12.92-2.55a70.12,70.12,0,0,0-17.94,5.91c-2,1.07-3.3,3-5.63,3.79-3.89,1.32-8.26.88-12.05,1.95-3.07.87-4.62,3.8-7.45,5.07-5.69,2.54-11.67,1.37-17,5.24l-.62,1C9.28,438.8.39,443.68,0,447.71c-.24,2.53,15.05,9.08,18.61,10,8.78,2.35,17-1.92,25.81-1.9,4.94,0,12-.07,16.8.57,2.23.31,3.82,1.6,6.24,1.71,5.46.26,10.84-.93,16.34-.41,7.57.71,25,5.68,31.4,5.34,9.65-.5,20.42-2.86,30.08-2.16,6.39.47,12.73,3.85,19.06,3.69,3.55-.09,6.66-1.79,10.12-2.14,3.87-.4,7.15,1.36,11,.91,8.6-1,17.11-4.14,25.88-4.08,5.74.05,10.43,2.82,16,3,8.11.21,16.21-3.27,24.56-2.69,6.48.46,11,4,18.08,3.49,8.27-.64,16.43-3,24.68-3.54,7.2-.47,15.26.54,22.33-.78,9.17-1.72,19-4.52,28.48-5,9.71-.52,20.07,2.74,29.54,1.62,8.54-1,14.46-3.92,22.55-5.72,9.91-2.19,34.07-5,44.32-5.41,7.77-.3,14.11,2.13,21.4,3.16,8.22,1.17,17.06.89,25.34,1.7,21.51,2.13,21.12-5.76,37.83-10.18,4-1.05,9.47-.31,13.09-2.08,6.84-3.33,13.82-8.34,21.36-10.45,10.8-3,24,.59,33.9-3.84a39.93,39.93,0,0,1,6.24-1.79Z" class="cls-8"/><path d="M585.51,461.71l-.59-1c-5.12-3.91-10.89-2.73-16.38-5.3-2.73-1.28-4.23-4.24-7.19-5.12-3.65-1.09-7.87-.64-11.62-2-2.25-.79-3.46-2.75-5.43-3.83a65.46,65.46,0,0,0-17.31-6c-4.21-.71-7.36,3.56-12.45,2.58-2.94-.57-4.47-3.3-7.37-4.23-5-1.6-10.79-1.52-15.84-3.05-3.59-1.08-6.15-3.36-9.47-4.61-2.17-.81-4.79-.55-7.05-1.21-8.91-2.61-12.7-5.67-23.13-6.29-11.14-.65-24,5.73-34.95,7.42-3.83.59-8.68,1.8-12.56,1.61-2.67-.13-3.81-2.33-7.38-1.64-4.11.79-5.25,4.05-8.56,5.78-3.92,2.06-11.94,1.49-16.47,1.83-1.61.12-6.64.61-7.92,0-2.94-1.4-1.67-4.09-6.73-3-3.18.69-4.24,4.26-7.13,5.34-3.21,1.19-7.15.32-10.57.88-7.47,1.2-12.05,5.79-20,6.66-3.44.37-5.59-2.39-8.87-2.77-4.44-.5-12.24,1.61-16.14-.42-10.73-5.57-14.94-17.44-30.28-18.15-5.45-.25-6.17,3-10.43,4-2.78.63-7.08.29-10,.36-4.17.1-7-2.26-11-2.42-3-.11-5.85,1.74-8.8,1.19-3.83-.7-6-3-10.36-3-8.58,0-16.74,6.05-24.92,7.26-4,.6-6.66-1.94-10.52-1.5-6.92.78-13.25,7.29-20.26,7.05-2.53-.09-4.79-1.43-7.29-1.5-8.23-.24-17.75,2.07-26-.35-7.1-2.09-17.68-6.92-24.68-9.89-2-.86-3.67-2.65-5.88-3.21-1.64-.41-2.88.92-4.44.84-2.4-.12-3.8-2.3-6-2.56-1.77-.21-5.39.33-7.48.29-1.39,0-2.82,1.61-4.07,1.24-3.24-1-5.17-8.36-7.73-8.39s-2.62,6.49-5,7.83l-.18.07c-3.28,1.2-9.06-.52-12.54-.23-2.23.19-4.25,2.08-6.45,2.64-8.74,2.18-17.26,4.79-26.25,6.43-3.57.64-7.63-.71-11,.34-.87.26-1.85.55-2.86.89v9.32c7.87,2.29,20.24,4.25,24.05,6,9.57,4.48,22.28.84,32.7,3.89,7.27,2.12,14,7.19,20.6,10.56,3.49,1.79,8.8,1,12.63,2.1,16.12,4.47,15.74,12.45,36.49,10.3,8-.82,16.52-.54,24.44-1.72,7-1,13.15-3.5,20.65-3.2,9.89.4,33.19,3.26,42.75,5.48,7.81,1.81,13.51,4.76,21.75,5.78,9.14,1.13,19.14-2.16,28.5-1.64,9.14.52,18.63,3.35,27.48,5.08,6.81,1.34,14.59.31,21.53.79,8,.55,15.83,2.93,23.81,3.58,6.83.55,11.19-3.06,17.44-3.52,8.06-.6,15.87,2.92,23.69,2.71,5.35-.14,9.87-2.95,15.41-3,8.46-.07,16.67,3.12,25,4.12,3.7.45,6.86-1.33,10.6-.92,3.34.36,6.33,2.07,9.76,2.16,6.1.16,12.22-3.26,18.39-3.73,9.32-.71,19.71,1.68,29,2.19,6.22.34,23-4.69,30.29-5.41,5.3-.52,10.5.68,15.77.42,2.32-.11,3.86-1.42,6-1.73,4.59-.65,11.44-.56,16.21-.57,8.45,0,16.43,4.29,24.89,1.91,3.44-1,18.19-7.59,18-10.15C597.4,469.32,588.83,464.38,585.51,461.71Z" class="cls-9"/><path d="M601,598.65V497.92h-7.49c-.06-.42-.11-.79-.14-1.08a30,30,0,0,0-.44-4c-.62-1.73-2.6,2.41-3.43,1.77-1.24-1-.26-4.3-.94-4.13s-.35,4.42-3.14,5.12c-2.2.55-1.11-3.36-2-3.71s-2.41,2-3.21,1.61c-.33-.18,0-1.94-.29-2.08-.55-.22-1.21,1.62-1.31,1.32-.19-.56,0-3.44-.73-3.4-.95.05-2.28,3.78-2.87,4.4-.09.09-.57.41-.75.26-1.29-1,.55-5.11-.46-5.14-1.41-.05-2.8,4.91-3.7,4.92-1.82,0-1.2-1.62-2.48-1.64-.86,0-.48,1.88-1.82,2-.73.08-2.73-.95-3.13-1.11-.89-.36-1.53,1.2-2.24.64-.43-.33-.27-1-1.05-1.07-.44,0-2.13,2.95-2.63,2.56-.68-.53-1.67-4.61-1.85-4.69-1.15-.46-3,3.68-3.47,4.21-1.2,1.26-1.68-2.28-2.87-1.64-.18.09-2,2-2.29,1.8a6.08,6.08,0,0,1-1.67-2.58c-.09-.26-.13-2.19-.66-2.06-2.22.56-1.53,4.5-3.71,5-1.35.34-2.1-1.92-2.38-1.77s-1.08,2.12-2,1.74c-1.84-.75-1-3.39-1.25-4.65,0-.06,0-.7-.14-.71-1.16-.07-1.49,4.93-2.53,5.2-.82.2-.61-1.25-.87-1.45-.71-.55-1.62,2.32-1.86,2.14-1.55-1.21-.15-4.66-.77-4.7s-1,4-2.91,4.47-2.13-1.74-2.68-2.17c-.73-.58-2.28,2.66-2.61,2.4-.6-.47-1-3.37-1.54-3.42-.93-.09-2,3-3.22,3.29s-1.86-2.78-2-3.3c0-.07,0-.14-.23-.09-1.76.44-.42,2.7-1.81,3.45-.85.46-1.45-2.48-2.21-2.07-.53.28-1.38,2.94-2.06,2.67-2.31-.93-1.74-7.1-3.16-8.21a13.39,13.39,0,0,0-1.89,2.29,18.77,18.77,0,0,0-1.48,7.53h-11a40.64,40.64,0,0,0-1.77-9.47c-.9-2-3.08-3.27-3.08-1.18,0,.24-1,.52-1.24.16-2-2.63,1.07-7.68-2-9.66a.55.55,0,0,0-.75.32c0,2.13-1.49,3.91-1.49,5.8,0,.24-.63,1.36-1.24,1-1.5-1-.43-3.17-2-4.18-1-.65-1.71,1.16-2.48.16-1.5-1.95,1.55-6.58-2-7.72-.12,0-1.09,4.28-2,3.7s-.92-2.21-2-2.9-1.85,1.71-2.48.48c-.78-1.51.7-5.48-1.74-6.27-.42-.14-.94,2.86-1.24,3.06-.64.41-.7-2.37-.7-2.57,0-2.13-3.1,1.35-3.32,1.07-2.06-2.68-1.85-6.67-5.3-8.9-.24-.16-.75,1.78-.75,2.09a6.17,6.17,0,0,1-2.23,4.66c-1,.64-2.13-4.92-2.73-5.31-1.19-.77-1.39,4.59-2.35,4-4.55-2.95-2.2-10.06-4.87-10.47-1.89-.3-.82,5.63-4.31,7.89-1.15.75-2.32-4.05-3.23-4.34-1.75-.57-1.49,3-2.73,3.38s-1.42-.24-2-1c-2.06-2.67-2.15,1.08-3.47,1.93s-3.94-4.16-6-5.47c-.23-.14-1-.66-1.24-.48-1.76,1.14.25,5.95-2.24,6.76-1.93.63-3.44-4.85-5.21-3.7-1,.67-.73,5-2.48,6.11s-5.8-3.48-7.2-2.57c-2.1,1.36-1.84,4.86-5.21,5.95-.85.27-1.44-2.08-2-2.14s-.5,1.42-.83,1.31c-.84-.3-1.14-2.14-1.49-2.06-.74.17-.48,3.4-1.44,4-1.49,1-2.66-1.64-3-1.55-.63.14-.52,3-1.43,3.64-.35.22-.51-1-.81-1.06s-.31.83-.5.69c-.47-.34-1-1.81-1.32-1.45s-.2,2.39-.75,3c-.19.22-1-1.25-1.16-1s-.17,1.69-.43,1.86c-2,1.27-3-2.55-4.22-1.77-1,.65-.09,3-1.24,3.7-1.79,1.16-3.37-2.37-4.72-1.93-1.12.36-.63,3.31-1.49,3.86-.57.37-1,.5-1.32.29s-.76-1.85-1.16-1.83-.54,1.06-.83,1-.77-1.54-.91-1.52c-.77.14,0,2.89-.42,2.92-.26,0-1-2.79-1.32-2.8s-.55,2.65-.74,2.78c-.89.57-1.7-1.6-2.24-1.49s-.64,2.15-1,2.15-.92-2.2-1.16-2.15c-.58.13-1.47,3.27-2.15,3.55s-1.24-2.3-1.94-1.83-.63,2.76-1.94,2.34-2.19-6.46-3.58-5.56c-2.13,1.38-.56,6-2.62,7.33-1.85,1.2-2.62-2-4-1.61s-1,6.12-5.46,4.67c-.62-.2-3.35-4.58-4-4.19-1.48,1,1.44,3.94.5,5.15-1.2,1.56-3-1.78-4.47-.8-.29.19-.26,4.34-1.74,3.38-.39-.25-2.48-2.9-3.23-2.42-.49.33-.66,5.4-1.55,4.9s-2.81-5-3.31-4.59.12,4.3-.51,4.29-1.1-2.33-1.79-2.15.21,4-.28,4.15-.56-.36-.75-.48c-2.25-1.46-2.63-4.29-3.92-4.42-.48-.05-.37,4-1,4.54s-1.45-1.74-2.4-1.64c-.67.07,0,1.81-.91,2.15a2.57,2.57,0,0,1-2.05-.52,11.67,11.67,0,0,0-.29-2.11c-.62-1.73-2.6,2.41-3.43,1.77-1.25-1-.27-4.3-.95-4.13-.49.11-.46,2.32-1.42,3.83a.14.14,0,0,0-.15.09,1.57,1.57,0,0,0,0,.16,2.66,2.66,0,0,1-1.38,1,4.93,4.93,0,0,0-.9-1,4.59,4.59,0,0,0-.67,0c-.21-1-.06-2.41-.55-2.62-.87-.35-2.41,2-3.21,1.61-.34-.18,0-1.94-.29-2.08-.56-.22-1.22,1.62-1.32,1.32-.19-.56,0-3.44-.73-3.4-.94.05-2.27,3.78-2.86,4.4-.1.09-.57.41-.76.26-1.28-1,.55-5.11-.46-5.14-1.4-.05-2.79,4.91-3.69,4.92-1.83,0-1.21-1.62-2.49-1.64-.85,0-.47,1.88-1.81,2-.73.08-2.74-.95-3.13-1.11-.9-.36-1.54,1.2-2.25.64-.42-.33-.27-1-1-1.07-.44,0-2.13,2.95-2.64,2.56-.67-.53-1.66-4.61-1.84-4.69-1.15-.46-3,3.68-3.47,4.21-1.21,1.26-1.69-2.28-2.88-1.64-.18.09-2,2-2.29,1.8a6,6,0,0,1-1.66-2.58c-.09-.26-.13-2.19-.66-2.06-2.22.56-1.54,4.5-3.71,5-1.35.34-2.11-1.92-2.38-1.77s-1.08,2.12-2,1.74c-1.84-.75-.95-3.39-1.25-4.65,0-.06,0-.7-.14-.71-1.16-.07-1.49,4.93-2.54,5.2-.81.2-.61-1.25-.87-1.45-.7-.55-1.62,2.32-1.86,2.14-1.54-1.21-.15-4.66-.76-4.7s-1,4-2.91,4.47-2.13-1.74-2.68-2.17c-.74-.58-2.28,2.66-2.61,2.4-.6-.47-1-3.37-1.54-3.42-.94-.09-2,3-3.23,3.29a.59.59,0,0,1-.39,0,24.49,24.49,0,0,0-.4-3.63c-.29-.79-.85-.35-1.46.29h0a1.2,1.2,0,0,0-1,1.05c-.39.38-.74.62-1,.43-1.25-1-.27-4.3-1-4.13s-.34,4.42-3.14,5.12c-2.2.56-1.1-3.35-2-3.7a.44.44,0,0,0-.2,0c-.23-1.33-.48-2.49-1-2.92a13.38,13.38,0,0,0-1.88,2.29c-.09.16-.17.36-.25.54,0-.2,0-.34-.14-.38-.55-.22-1.21,1.62-1.31,1.33-.19-.56,0-3.45-.73-3.41-1,0-2.27,3.78-2.87,4.4-.09.1-.56.41-.75.26-1.29-1,.55-5.11-.46-5.14-1.41,0-2.79,4.91-3.69,4.93-1.83,0-1.21-1.63-2.49-1.64-.85,0-.48,1.87-1.82,2-.73.08-2.73-.95-3.13-1.11-.89-.36-1.53,1.2-2.24.64-.43-.33-.27-1-1-1.07-.45,0-2.13,3-2.64,2.56-.67-.53-1.66-4.61-1.84-4.68-1.15-.47-3,3.67-3.47,4.2-1.21,1.26-1.69-2.28-2.88-1.64-.18.1-2,2-2.29,1.8a6,6,0,0,1-1.66-2.58c-.09-.25-.14-2.19-.66-2.06-2.23.56-1.54,4.5-3.72,5.05-1.34.34-2.1-1.92-2.37-1.77s-1.09,2.12-2.05,1.74c-1.83-.74-.95-3.39-1.24-4.65,0-.06-.05-.7-.14-.71-1.17-.07-1.49,4.94-2.54,5.2-.81.2-.61-1.25-.87-1.45-.7-.55-1.62,2.32-1.86,2.14-1.55-1.21-.15-4.66-.76-4.7s-1,4-2.91,4.48S155.5,493,155,492.52c-.74-.58-2.28,2.66-2.62,2.4-.59-.46-1-3.37-1.54-3.42-.93-.09-2,3-3.22,3.29s-1.85-2.78-2-3.3c0-.07-.05-.14-.23-.09-1.76.44-.41,2.7-1.81,3.45-.85.46-1.44-2.48-2.21-2.07-.52.29-1.38,2.94-2.06,2.67-2.31-.93-1.74-7.09-3.16-8.21a13.79,13.79,0,0,0-1.88,2.29,17.73,17.73,0,0,0-1.47,6.83H.21v100.2H98v2.09Z" class="cls-10"/><path d="M280.26,109.93c0-13.56-12.92-24.58-28.83-24.58a33,33,0,0,0-11.15,1.91l1.17,0c19,0,34.38,13.14,34.38,29.31a25.13,25.13,0,0,1-1.35,8.14A22.2,22.2,0,0,0,280.26,109.93Z" class="cls-4"/><path d="M601,587c-.1,0-.18-.08-.29-.11-3.72-.91-8.57.45-12.47-.27-4.3-.78-3.6-4.65-6.61-5.09-.46-.07-1.76,4-2.09,2.85-.42-1.45.12-8.12-.58-7.69-.93.57-2.76,7.44-3.51,7.27-1-.25-1.22-4.29-2.33-4.06s-2.48,3.64-3.6,3.5c-1.92-.23-1.75-5.07-2.54-6.28-.33-.5-1.13,1.56-1.75,2.14s-.87-.53-1.17-.64c-1.47-.54-3.51,2.76-4.68,2.77-.92,0-1-3.41-2-2.77-.91.53-2.12,4.47-3.25,4.27-1.38-.25-1.24-5.35-2.3-7.05-.62-1-2.94,5.23-3.8,5.13s-.57-6.47-1.23-6.95c-.42-.31-2.76,1.2-3.67.53-.37-.27.56-2.41-.36-2.41-1.41,0-5.33,6-6.24,5.36-1.66-1.2-3-7.66-3.7-10-.53-1.67-3.86,2.7-4.75,1.41-1.2-1.76.44-4.51-1.1-5.63-2-1.48-6,.7-7.34-.27-1.94-1.42-3.28-4-6.24-5.1-2.12-.77-5.15,3-7,1.61-1.22-.89-.69-3.72-1.84-4.56-1.61-1.18-4.53,2.32-6.6.81-1.67-1.23-.6-3.71-2.94-4.56-1.76-.65-4.65,2.77-6.24,1.61-2-1.51-2.15-4.8-4-6.17-1.63-1.19-2.52,3.23-4,2.68-1.19-.44.08-3.16-.74-3.76-.52-.38-3.9.1-5.13-.8-.54-.39-.74-4-1.84-4.83-.69-.51-2.35,1.26-3.05.68-.87-.74-.73-4.25-2.2-5.1s-5,.85-6.61,0-1.65-4.61-3.3-5.1c-.66-.19-1.54,1.22-2.62,1.21-.7,0-1.58-1.61-2.19-1.32-.82.39-1,2.08-1.8,2.26-1.92.43-2.93-2.52-3.31-3.59-.33-.89-3.05,2-3.65,1.38-1.41-1.48.11-4.07-1.11-4.5-1.43-.49-3.22,2.06-4.74,2.69-.7.29-.5-4.09-1.87-1.08-.69,1.52-1.77-6.72-4-7.3-1.06-.28-3,4-4.79,5-.81.46-1-2.7-1.67-3-.92-.43-2.29,1.84-2.78,1.79-1.66-.17.18-4.92-.73-4.83s-3.17,4.85-4.78,5.36c-.58.19-1-1.5-1.53-1.92s-1.08,1.55-1.69,1.55-1.08-2-1.66-1.94-.24,3-1.8,3-1.6-5.31-2.77-4.83c-1.69.71-2.71,6.11-3.76,6-2.44-.22-3.18-5.1-4.4-4.83s-2,5.86-2.94,6.44-1.8-3.2-2.93-3-2.56,4.56-3.84,4.43-2.74-5.79-3.87-5.24-1.41,7.29-2.94,8.59c-.72.61-2.47-3.63-3.71-4.07-.63-.21-.61,5-1.68,5s-1.7-2.23-2.06-2.13c-1.71.44-1.8,4.4-2.82,3.89s-1.78-7.56-3.31-7-4.28,8.8-5.87,10.46c-.72.74-2.69-1.1-3.67-.54s-2,3.89-2.94,4.29-1.95-2.14-2.93-1.88-2.08,3.85-2.94,3.49-1.47-6-2.2-5.63-1.22,6.7-2.2,7.78c-.76.83-2.62-2-3.67-1.34s-1.9,5.41-2.94,5.36-2.14-6.62-3.3-5.63c-.38.32-.42,7-1,7.43s-1.46-6-1.75-4.7c-.53,2.22-.33,8.3-.91,8.8-1.35,1.16-3.1-5.58-4.41-4.56s-2,9.86-3.45,10.71c-.58.34-.95-3.63-1.46-5.12-.39-1.13-1.63,3.16-2.34,3.2s-.94-4.15-1.56-3.69c-1,.78-1.79,8.65-3.41,10.52-.71.83-2.17-5.17-2.92-3.84s0,8.53-1.26,9c-2.17.79-2.75-2-3.67-2.69s-2.28,2.36-3.67,1.34-.82-4.19-2.57-4.82c-.72-.27-1.21,3.95-2,3.35s-2-6.16-2.63-5.76,0,4.92-.89,4.28-1-6.36-1.44-7.7c-.38-1-1.3,1.57-2.05,2.13-.38.29-.42-1.22-.92-1.4-1.38-.5-2.16,5.66-4,4.29-3.68-2.7-.66-9.9-5.13-11.53-1.48-.54-3.59,5-4.41,5.63-.36.26-1.6-.1-1.83-.27-1.83-1.33-4.12-5.48-5.88-4.83-2.39.89-4.58,3.11-5.84.85-.49-.88-.66-2.82-1.86-3.26-1.57-.57-2.44,3.54-3.4,2.84-.31-.24-1.57-5.21-2.34-6s-1.17,4.6-1.75,5.34c-.4.5-1-3.66-1.32-3.54-1,.37-3.72,5.06-5.14,4-2.63-1.92-2.2-7.37-5.51-8.58-4.14-1.51-3.06,11.85-6.6,13.14-1.46.54-4.44-6.14-5.14-5.63-2.74,2-.53,7.1-2.94,8.85-1.28.94-3.45-2.62-4-2.41-.9.32-1.24,4.91-2.94,4.29-1-.38-2.34-7.41-2.93-7-3,2.19,1.31,9.23-1.84,11.54-1.68,1.23-1.34-3.31-3.67-1.61-.38.27-.67,6.21-2.2,5.1-3.54-2.59.57-9.51-2.94-12.07-.47-.35-1.39.21-1.47.26-4.21,3.08,1.32,14-4.4,16.1-2.35.85-3.31-4.29-4-3.76-.47.34-2.14,6.22-3.3,5.37-.57-.42-2.57-11-4-9.93-4.27,3.12,3.57,12.95-.73,16.1-1.48,1.07-4.78-7-7.34-5.1-1.53,1.11-2.36,8.69-2.3,11.51,0,1.91,2.66,5.39,2.66,5.39a7,7,0,0,1,.5,2.15H601Z" class="cls-11"/><path d="M76.4,473.48c-1.1,0-1.34.65-1.74,1-2,1.71-4.71-2-8.11-3.45-3-1.27-5.67,3.54-8.68,1-1.07-.91,1.48-6.19,1.74-6.42,1.51-1.29-1.83-3.86-.58-4.93,2.38-2,10.44,5.41,13.32,3,1.37-1.17,2.1-3.77,3.47-4.94.4-.33-14.2-10.62-15.64-11.84s-5.63-10.5-3.47-12.34c1.43-1.22,4.73,3.37,6.37,2,.46-.39,2.27-2.55,1.74-3.45-1-1.69-17.31-13.88-12.16-18.27.06-.05,17.92,5,20.84,2.47,6.13-5.23-8.1-5.92-11-8.39-5.85-5,3.94-10.67-4.63-14.32l-2.32-1s16.57-.2,13.32-3c-2-1.67-20.47,1.85-12.74-11.35,1.65-2.8,12.16-10.29,12.16-13.33,0-.3.23-1.78,0-2-2.31-2-16.43,3.07-18.52-.49-.61-1,2.08-4.06,2.89-5.44C54,355.65,47,354.38,48,352.55c2.76-4.72,14.85-8.23,18.52-11.36.28-.23,1.08-4,.58-4.44-2.47-2.11-17.36,5.26-17.36-.49,0-1.83,14-4.32,10.41-7.41-2-1.72-6.14-.79-8.68-3-1.11-.95,2.74-1.84,2.9-2,.94-.81,5.69-7.49,3.47-9.38-1.47-1.26-7.87-2-5.79-2s-1.74-1.47-.58-2.47c2.09-1.77,17.36-6.91,15-10.86-.59-1-13.94.95-16.78-1.48-.58-.49,1.46-3.72,1.73-3.95,2-1.74-1.51-6.6,0-7.89,3.66-3.12,9.56-6.67,13.32-9.87.22-.19,2.13-2.63,1.16-3.46-1.76-1.5-16.7,5.51-23.16,0-1-.81,1.61-2.47,2.31-2.47,2.87,0,7.25-5.31,9.85-6.42.62-.26,8.54-5.55,6.94-6.91-3.46-2.95-15.21,3.32-19.68-.49S47.13,241.21,43.4,238c-8.3-7.08,8.83-22.09,5.79-24.69-2-1.68-7.76,3.27-10.43,1-3.31-2.82,1.58-9.51-1.74-12.34-5.91-5,3-25.17-8.1-25.17l-1.69-2.9s-2,24.3-8.15,29.55c-4.31,3.67,8.49,11.52,4.05,15.3-2.17,1.86-9-4.4-10.42-2-3.31,5.65,9.91,11.79,7,14.31-4.2,3.59-10.47-4.4-13.32-2-2.66,2.27,18.93,10,12.74,15.3-4.33,3.7-13.74-2.6-16.21-.49-2.95,2.51,14.36,9.57,11.58,14.32-3.63,6.18-9.63.69-14.45-2.44v16.5c1.64,1.37,2.75,2.42,2.29,3.21a4.42,4.42,0,0,1-2.29.63V598.65H61.18c-2.13-1.13-4-2-4.47-2.75C50.53,585.36,53,584.31,43.4,576.16c-.63-.53,9.4-.13,9.84-.5,1.85-1.58,2.31-6.41,2.31-6.41s8.83.74,10.43-2c1.29-2.21-14.39-7.47-13.32-8.39,2.39-2,21-10.77,12.16-18.26-.14-.12-.39,0-.58,0-.77,0-34.61-8.51-26.06-15.8,1-.82,3.09,1.32,4.06.49,1.74-1.48,2.46-4.07,4-5.43.27-.23.77,0,1.16,0,4.07,0,21.46,7.83,26.05,0,5.93-10.1-7-7.92-10.42-10.86-2.61-2.22-2.47-6.91-6.37-6.91-.85,0-5.09-1.08-3.47-2.46,3.39-2.9,9.19-.93,9.84-1.49,2-1.67-3.36-3.05-1.74-4.44,3.26-2.77,9.23,4.48,13.9.49s7.28-16.5,2.32-20.73C77.28,473.25,76.78,473.48,76.4,473.48Z" class="cls-12"/><path d="M202.4,489c.85,1.34,2.88,1,3.91,1.81.63.5.62,1.88,1,2.45s-3.48,1.11-2.61,1.8c.35.27,6.47,1.85,7.33,2.19s1.16,2.82,3.09,2.06c.1,0,.48-.26.65-.13.58.46-1.5,2,.65,2.84s6,2.32,8.95,2.32a2,2,0,0,1,.49,0c.26.2.82,1,1.3,1.15,2.73,1.08,5.76-.43,7-1.41.4-.32,2.54.26,2.93.26a46.28,46.28,0,0,0,9.44-2.07c2.11-.83,8.36,2.45,9.44,2.45.77,0,.78-1.14,1.47-1.42,3.11-1.23,3.47-1,5-3.47.71-1.12-3.42-2.58-3.42-2.58s2.45-.39,2.93-1.16c.83-1.31-2.11-.84-2.11-1.93,0-.57,1.65-1.52,1-2.58-.11-.16-9.58-3.27-8.31-5.28.21-.32,6.12-.75,6.35-1.29.7-1.66-1.89-.72-1.95-.77-.57-.45-.3-1.27-.65-1.55-.9-.71-4-.45-5-1.29a13.71,13.71,0,0,1-3.42-3.09s-.12-.17-.05-.08c.24.08.54.17.71.21a9.77,9.77,0,0,0,1.95,0c1.34,0,2.68,1.22,4.07.13.36-.29-.94-.36-1.3-.65-.93-.73-1.88-2.77-3.1-3.73-.87-.69-3.09-.52-3.09-1.55,0-.27-.75-.95-.65-1s.55.09.65.13c1.32.52,4.89.9,6.19.39.64-.26,1.83.56,1.95.51s.35-.94.49-1.16c.72-1.14-10.58-6.77-10.58-7.21,0-1.42,3.38,1.57,6.67-1,.1-.08,0-.66,0-.78,0-1.51-2.94-2.21-3.25-2.7-1.74-2.75-1.06-3-3.75-5.16-.17-.14,2.65,0,2.77-.13.52-.41.65-1.67.65-1.67s2.48.19,2.93-.52-4-1.95-3.74-2.19c.67-.53,5.88-2.81,3.41-4.76,0,0-.1,0-.16,0-.22,0-9.73-2.22-7.32-4.13.27-.21.86.35,1.14.13.48-.38.69-1.06,1.14-1.41.07-.07.21,0,.32,0,1.15,0,6,2,7.33,0,1.66-2.64-2-2.07-2.93-2.84-.74-.58-.7-1.8-1.79-1.8-.25,0-1.44-.29-1-.65.95-.75,2.58-.24,2.77-.38.55-.44-.95-.8-.49-1.16.91-.73,2.59,1.17,3.9.13s2.05-4.31.66-5.41c-.08-.07-.22,0-.33,0a.6.6,0,0,0-.49.25c-.56.45-1.32-.52-2.28-.9s-1.59.93-2.44.26c-.3-.24.42-1.62.49-1.68.42-.33-.52-1-.16-1.28.67-.54,2.93,1.41,3.74.77.39-.31.59-1,1-1.29.11-.09-4-2.77-4.4-3.09s-1.58-2.74-1-3.22c.4-.32,1.33.88,1.79.51.12-.1.63-.66.48-.9-.27-.44-4.86-3.62-3.41-4.77,0,0,5,1.3,5.86.65,1.72-1.37-2.28-1.55-3.1-2.19-1.64-1.31,1.11-2.79-1.3-3.74l-.65-.26s4.66-.05,3.74-.77c-.55-.44-5.75.48-3.58-3,.46-.73,3.42-2.69,3.42-3.48,0-.08.06-.47,0-.52-.65-.51-4.62.81-5.21-.13-.17-.27.59-1.05.82-1.41.38-.61-1.61-.94-1.31-1.42.78-1.23,4.18-2.15,5.21-3,.08-.06.3-1.05.17-1.16-.7-.55-4.89,1.37-4.89-.13,0-.48,4-1.13,2.93-1.93-.57-.46-1.72-.21-2.44-.78-.31-.24.77-.48.81-.51.27-.21,1.61-2,1-2.45-.41-.33-2.21-.52-1.63-.52s-.49-.38-.16-.64c.59-.46,4.88-1.81,4.23-2.83-.16-.27-3.92.24-4.72-.39-.16-.13.42-1,.49-1,.58-.46-.43-1.73,0-2.06,1-.82,2.69-1.74,3.74-2.58.07-.05.6-.69.33-.9-.49-.39-4.7,1.44-6.51,0-.27-.21.45-.65.65-.65.8,0,2-1.38,2.77-1.67.17-.07,2.4-1.45,2-1.81-1-.77-4.28.87-5.53-.12s1.37-3.94.32-4.77c-2.33-1.85,2.48-5.77,1.63-6.44-.56-.44-2.18.85-2.93.26-.93-.74.44-2.49-.49-3.23-1.66-1.31.85-6.57-2.28-6.57l-.47-.75s-.56,6.34-2.29,7.71c-1.21,1,2.38,3,1.13,4-.61.49-2.52-1.14-2.92-.51-.94,1.47,2.78,3.08,2,3.74-1.18.93-2.94-1.15-3.75-.52s5.33,2.62,3.59,4c-1.22,1-3.87-.67-4.56-.12s4,2.49,3.25,3.73c-1.59,2.53-4.82-2.41-5.86-.77-1.93,3.07,2.9,4.56,2.45,5.28a1.84,1.84,0,0,1-1.14.13c-.14-.11-1.7-.85-2-.64s.08.83-.16,1c-.6.47-2.55-.18-3.09.25-.92.73,2.07,1.88,1.62,2.58-.63,1-1.12,3.49-.48,4a3.06,3.06,0,0,1,.32.52c-.14.11-2.4.29-1.46,1,.43.34,2,0,2.28.39.08.13.54.73.32.9-.45.35-3.56.54-2.77,1.8.18.28,5.79,2.25,3.91,3.74-1.12.89-7.47-3.49-8.63-2.58-1.53,1.22,1.22,1.35,2,1.93l.32.26h-.65c-.68,0-3.61.5-2.44,1.42.69.55,8.21,1.7,7.65,2.58-1.4,2.21-11.37,3.13-10.09,5.15.16.26,7.27.47,8.46,1.42,1.77,1.39-1.35,2.14-1.79,2.83-.31.49.53.58.33.9-2,3.19,1.72,3.6-.33,6.83-.37.59-3.9,0-5,1.81-.35.55,1,1.11,1.3,1.54.69,1.1-.37,2.89.32,4,.38.6,3.66.52,2.93,1.67-1.13,1.79-3.06,1.4-4.23,2.32-1.58,1.25,1.42,2.9,1,3.61-.33.51-2.08,1.25-2.44,1.54s.33.78.49.91c.36.28-2.71,2.86-3.1,3.47-.67,1.07,1.68.94,2.12,1.29s-.16,1.49.32,1.68c.76.3,3.15-.31,3.59.38s-1.52,1.85-1.8,2.07c-.45.36.54,1.08.33,1.41-.11.17-1.45,1.79-1.63,1.93-1.21,1,2.29,1.17,2.44,1.29.63.5-1.13.77-1.3.91-.53.41.27,1.46,0,1.67s-1.19.3-1.46.52c-.53.41-.6,1.84-1,2.44-.56.89-4.55,3.35-5.86,3.87-2,.77-7.75.55-8,.9-.85,1.34,1.45,1,1.95,1.42s.13,2.53.49,3.09,1.64-.25,1.95,0-1,1.35,2.12,2.58a2,2,0,0,0,1.14-.13c2.3-1.83,4.75,1,6.18,1,.56,0,2.33.73,1.47,1.42-1.42,1.12-4.55.89-5,1.28-2.64,2.09-4.3,4.18-7,6.32-1,.8-6.65,2.08-5.05,3.35.91.72,17,.44,17.42.77.23.18-.1,1-.16,1-1.33,1-7.07,1.31-9.12.77-.19-.05-.46-.3-.65,0s.24,1,0,1.42-1.82.16-2.28.52a5.59,5.59,0,0,0-.65,3.09c.75,1.18,8.71-.77,6.68,2.45C212.53,486.22,200.82,486.48,202.4,489Z" class="cls-12"/><path d="M601,598.65V381.26c-1-1.86-2.09-3.79-2.06-3.83.3-.47,1.19.38,2.06,1V367.73c-1-4.7-1.73-8.22-4.29-12.25-1.27-2-1.11-8.34-1.11-8.34s-2,4.83-1.34,8.95c-3.12,6.61-5.6,13.4-9.52,19.58-.88,1.39-6.14,6.12-5,7.91.56.87,7-3.05,7-2.2,0,.42-2.33,4.53-2,4.83,1,.8,5.72-1.13,4.73,3.51-.32,1.55-1.92,2.59-2.5,3.52-.39.6,1,1.38.83,2.19-.57,2.72-4.86,5.54-6.4,6.15-.79.31-7,3.05-7,3.07,2.28,3.6,9.84-2.92,11.69,0,1.35,2.12-4.36,9.81-3.9,10.54.81,1.26,2.95-1.95,3.62-.88.53.83-1.55,2.29-.55,3.07,3.08,2.43,5.27.54,4.17,5.71-2.22,10.54-22.34,13.85-23.38,17.12-1.2,3.79-7.51-.22-9.47,1.32-2.62,2.07,1.76,4.69.56,6.59-2.06,3.24-9-2.53-10.86.44-.37.58,1.11,2.85,1.39,3.51,1.56,3.68,7,7.46,7,7.46a20.66,20.66,0,0,1-3.06.44c-.9,0-5.48-1-6.13,0-1,1.63,3.32,3.09.84,4.39-.61.32-6.06-.25-5.29,2.2,2.75,8.67,15.27,6.15,20,6.15,1.53,0,3.47.45,4.74-.88.73-.77,2.9-2.56,2.5-1.32-1.26,4-6.4,8.78-6.4,8.78s2.51-1.32,2.51,0-5.7,2.87-4.73,4.39c1.19,1.89,7.38-1.54,8.62-2.2.87-.45,2.51-3.19,2.51-1.75,0,2.08-4.4,4.13-3.62,6.59.59,1.86,6.87-2.34,7.8-3.08,2.35-1.85-.53,3.56-.28,3.95,1.06,1.68,5.82-4.86,7.24-2.63,1,1.56-2.81,6.11-2.23,7s2.52-1.54,3.06-1.75c1.26-.5,8.62-6.6,9.19-5.71,1.09,1.72,2.53,14.89,1.11,17.12-.45.72-3,3.08-4.17,3.08a17.29,17.29,0,0,0-2.79.44s-.9,2.47-1.67,3.07a51.1,51.1,0,0,1-6.68,3.95s4.49-.56,3.9,1.32c-1.79,5.64-10.73-.64-12.53,2.19-.6,1,0,3.22-1.95,2.2-2.77-1.46-5.78-9.66-8.63-9.66-1,0,1.3,4.83.28,4.83a12.75,12.75,0,0,1-5.29-1.76c-.76-.39-2.23-2.57-2.23-1.32s3.48,2.57,1.67,3.52c-2.47,1.29-7-1.36-9.19-3.08-.46-.36-2.87-2.93-3.34-2.19-1.55,2.45,1.26,10.64-1.39,12.73-1.4,1.1-6-.6-7,.88-1.06,1.66-.75,3.07-3.34,3.07-1.35,0-2.59.44-3.9.44-.13,0,4,3.48,3.62,4.83-.73,2.31-5.08,1-6.13,2.64-.34.54,6.4,5.69,7.24,7,0,.07-6.29,9.13-7,9.66-.37.3-2.5,2.2-2.22,2.63,2.7,4.27,10,1.95,13.36.88,1.68-.53,5-1.75,5-1.75s-4.6,4.59-3.34,6.58,5.52-1.39,6.69.44c.65,1-2.55,4.77-2.24,5.27,1.86,2.92,9.62-8.54,11.42-5.71.44.69-1.21,3.13-1.39,3.51-1.85,3.89-5.27,6.36-7.79,8.35-.18.14-5,1.39-4.18,2.63,3,4.73,12-4.22,14.47-6.14.54-.43,3.71-5.57,4.18-4.84.86,1.37-.93,6.73-.28,8.78.56,1.78,5.16-.64,6.13.88,1.07,1.69,5-8.77,6.12-7,1.51,2.37-3.66,8.27-2.78,9.66.52.82,2.09-1.54,2.5-1.76,3-1.59,5.79-5.79,8.91-7,1.73-.69.65,1.45,1.4,2.63s2.15-4.89,3.34-4c.53.42.77,3,1.11,3.51.51.81,3.76-5,5-3.07s-.82,6.16,0,7.46c0,0,3-10.3,3.34-8.78,1.13,5.33.11,26.62-1.95,29.86-2.21,3.48-6.81,1.52-8.9,4.83-.51.79,2.81.88,3.06.88,1.39,0,6.09-1.82,6.4-1.32a2.94,2.94,0,0,1-.1,2.13Z" class="cls-13"/><path d="M456.84,589.07a5.85,5.85,0,0,0,.57-.7c-.33,0-5.11,1.11-5.11.26s.89-.09,1.32-.26,4.95-2.84,4.28-3.89c-1.23-2-5.51,2.53-7.41,1a24.62,24.62,0,0,1-4.6-5.71,8.9,8.9,0,0,1-.66-2.34s1.67,2.18,2.47,1.56-2.07-3.49-1.49-4.42c.42-.65,1.82.52,2.31-.25.3-.48-1.69-2.15-2-2.6-1-1.6.63-2.38-.33-3.89a26.94,26.94,0,0,1-1.48-4.16c.39-.61,1.73,2,2.31,1,.76-1.2-.22-3.46-1.28-5.28.76-1.45-.7-5.88-1-6.92-.41-1.3.88-1.14.33-2.86-.25-.79-2.17-4.1-2.14-4.15.34-.53,1.92,1.75,2.31.52.34-1.08-.46-3.18-.66-4.15-.83-3.92-1.09-6.4-3-9.35-.76-1.19-.66-4.93-.66-4.93a11.69,11.69,0,0,0-.8,5.29c-1.84,3.91-3.31,7.92-5.62,11.58-.52.82-3.64,3.62-3,4.68.33.51,4.12-1.8,4.12-1.3,0,.25-1.38,2.67-1.15,2.85.6.48,3.38-.67,2.79,2.08-.19.91-1.13,1.53-1.48,2.08-.22.35.6.82.5,1.29-.34,1.61-2.88,3.28-3.79,3.64-.46.18-4.12,1.8-4.12,1.82,1.36,2.13,5.82-1.73,6.92,0,.79,1.25-2.58,5.8-2.31,6.23.48.74,1.74-1.15,2.14-.52s-.91,1.35-.32,1.81c1.82,1.44,3.11.32,2.46,3.38-1.31,6.23-13.21,8.18-13.82,10.12-.71,2.24-4.44-.13-5.6.78-1.55,1.22,1,2.77.33,3.9-1.22,1.91-5.31-1.5-6.42.25-.22.35.66,1.69.82,2.08.92,2.18,4.12,4.42,4.12,4.42a12.77,12.77,0,0,1-1.81.25c-.54,0-3.24-.6-3.63,0-.6,1,2,1.83.5,2.6-.36.19-3.59-.15-3.13,1.3.05.15.12.27.17.41H455.7c-.39-.81-1.89-.93-2.41-.93-.12,0-1.35-.1-1.15-.26,2.8-2.21,6.3-1.11,8.89-5.19.43-.67,2.1-2.73,1.81-3.64S456.64,589.18,456.84,589.07Z" class="cls-13"/><path d="M417.53,580.68c-.73-1.25-2.58-1.8-3.32-3-.55-.93,1.49-1.35,1.28-1.53-.72-.61-2.41-.39-3.07-1.52-.26-.45.36-.53.51-.66,1.22-1-1-1.2-.26-2.4,1-1.64,7-7.34,4.09-9.81,0,0-4.1,4.15-4.85,4.58-1,.57-1.48,1.87-2.56,2.18-.92.26-2.05-1.74-2.05-1.74s-5.6,3.49-8.18,2.39c-2.24-1-5.42-2-6.39-3.7-.58-1,.62-1.18,1-1.53,0,0-1.66-1.43-1.28-2.4s1.68-.77,2.3-1.3c.24-.21-1.85-1.26-1-2a11.26,11.26,0,0,1,1.67-.05L394,558a26.73,26.73,0,0,1-5.11-1.37c.06-.71.14-1.42.25-2.12a84.26,84.26,0,0,0,.79-8.86c2.41.44,5.61,1,6.37,1a39.59,39.59,0,0,0,10.23-1.31,11.83,11.83,0,0,0,1.53-.65s-5.24.25-7.67-.44a5,5,0,0,1-1-.44c-.86-.36,1.16-.83.25-1.09-.75-.21-2.21-.14-2.81-.65-.81-.69,1.47-1.39,1.79-1.53,2.32-1,3.41-2,4.86-2.61l1-.44c.69-.29,3.36-1.87,2.56-1.52s-6.32-1.18-6.65-1.75,1.4-.77,1.28-.87c-.83-.7-3-.4-4.09-.87-1.93-.83-.73-1.71-1.28-2.18-1.6-1.37-3.54-.53-6.75-2.25-.07-1.07-.13-2.13-.2-3.2a36.45,36.45,0,0,0,4.39-1.53c.5-.85-2.26-2.54-2.81-3.49-.43-.73,2.71-.16,2-1.3-.48-.83-2.3-.89-2.81-1.75a3.84,3.84,0,0,1,0-1.31c.06,0,.17,0,.26,0,5,0,.66-2.22,1-2.83.74-1.26,3.58-1.53,3.07-1.53-1.87,0-4.58-1.59-5.88-3v-.24c0-1.68.06-3.47.13-5.3a42,42,0,0,0,8.05-1.89s-2.84-2.59-1.79-3.49c.3-.25,2.24-.1,1.79-.87s-3.74-2.92-3.07-3.49c.85-.73,3.42-.28,2.56-1.75-.6-1-2.3-.79-2.3-2.18,0-.55,2.76.18,1.79-.65s-7.49-3-8.91-4.39a2.3,2.3,0,0,0-.26-.48v-.05s0,0,0,0-.19-.17-.29-.13-.15-1.6-.15-1.6c-1,.48-1.32,5.2-1.89,6.17s-3.32,3.88-3.32,4.58c0,.24,2.59-.5,2,.44-1.5,2.56-5.07.18-6.39,1.31-.16.13.38,1,.51,1.09a12.07,12.07,0,0,0,7.36,2.38c-.08,1.15-.13,2.3-.16,3.45a18.26,18.26,0,0,1-1.58,1.14,7.62,7.62,0,0,1,1.56,0c0,.35,0,.7,0,1.05-1.25.41-3.62.49-4.1.91s2.27,1.35,2,1.74c-.64,1.1-6.39,2.28-6.39,2.62s2.72.69,1.79,1.09c-1.8.76-5.39-.13-3.94.49a13.78,13.78,0,0,0,3.69.81c.17,0-1.77.23-.26.88.53.22,1.61.06,2,.43,1,.89-3.42,2.92-3.83,3.27s1.46.5,1,.88c-1.29,1.1-2.3.4-2.3,2,0,.07.06.16,0,.22-.57.48-7.64,1.3-8.69,1.3h-1.79l.51.22c.89.38,5.28.58,5.88,1.09.42.35-1.69.6-1.28,1.31.67,1.14,4.51-.3,5.37.43.63.54-2.09,1.27-1.53,1.75.75.65,4.25,0,5.37.44s-.84.59-.51.87c1.26,1.07,4.56-.56,6.85-1.77l0,3.82c-2.25,2-5.32,3.62-6.57,3.62a14.66,14.66,0,0,0-2.56.43s3.25-.14,3.84.87c.4.68-2.41,1.84-2.81,2.18s1.26,1.54.25,2c-3,1.26-6.14,2.4-9.2,3.7-.47.2-1.54-.22-1.54.22s1.76,1.12,1,1.74c-.29.25-3.49.22-4.1.22a6.23,6.23,0,0,1-.73-.07c1.24.4,4,1.51,3.29,1.82-.31.13-5.39.64-4.35,1.52,1.8,1.54,7.57-.3,8.7.66.36.3,1.41.43,5.11.43h1.54s-2.28.46-1.79.88c.88.75,4.7-1,5.56-1.3,0,0,0,0,0,0-.61.38-1.45.87-1.22,1.07,1.15,1,3.43-.89,5.41-2.18,0,2.59-.05,5.18-.08,7.76a3.36,3.36,0,0,1-.72.74,22.92,22.92,0,0,1-3.58,1.52c-.22.07-2,.51-1.79.66.43.37,1.93-.1,2.3.22s-3.12,1.35-3.33,1.52c-.67.58,2.43,3.46-3.06,5a55.71,55.71,0,0,0-6.4,2,5.71,5.71,0,0,1-1.53.22s1.77.66,1.28.87c-2.87,1.22-7.23-1.06-9.21-2.18-.19-.11-1-.68-1.28-.44-2.05,1.75,2.74,3,2.05,4.15-.5.85-2.67-.35-3.07,0-.65.55,3.11,1.59,3.32,2,.37.62-2.83.45-3.32.87s3.15,1.23,3.32,1.53c.38.64-2.61,1-1.53,2s4.37-.2,5.37.65c.36.31-4.39,2.15-3.07,3.27.85.73,4-.51,4.86.22.56.48-1.92,1.8-1,2.18,1.46.63,4-2,5.11-1.09s-3.3,3.94-1.79,5.23c.19.16,1.34-.92,1.53-1.09.81-.68,2.47-.57,3.33-1.31s1.86-1.8,2.81-2.61c.16-.13.5-1.1.77-.87.48.41-.54,1.84.25,2.18,1.15.48,3-2.23,3.58-1.75s-.19,1.8.26,2.18,2.8-1.71,2.05.22a11.69,11.69,0,0,1-3.84,4.8,9.27,9.27,0,0,1-1,.65,32.09,32.09,0,0,0,3.58-1.09c.23-.1,1.56-1.07,1.79-.87,1,.85-5.66,7.79-3.58,7.19a11.74,11.74,0,0,0,5.37-3.06v.67c0,2.12,0,4.24,0,6.37-1.41.9-3.12.46-4.82,1.91-.17.14-.05.33.14.53h15.71c-2.14-1.33-5.32-.89-6.65-3.15l-.17-.28q.12-1.25.27-2.43c.91.54,1.89,1,2.46.53.2-.16-.91-2.17-1.95-4.18.13-.81.27-1.6.42-2.36a34.7,34.7,0,0,0,.55-4.32c1.23.66,2.43,1.24,3,1.49s.14-2.06.51-1.75c1.07.91,2.26,3.53,3.32,2.62.4-.33,0-1.27.26-1.52s3,3.88,3.58,4.14a.3.3,0,0,0,.26,0c.65-.56-.13-3.11.51-3.93,1.3-1.66,2.88,1.28,4.34.66,1.2-.51-.1-1.88.51-2.4.4-.34,3,3.7,3.07,3.7.34,0,.61-.81,2.82.44,1.48.85,1.19-.07,2-1.52s3.36,3.23,4.61,2.18c.83-.71-1.59-3.44-1.8-4.15C416.42,581.23,418,581.43,417.53,580.68Z" class="cls-14"/><path d="M412.93,596.59c-.32-.26-1.19,1-1.28,1.1a9,9,0,0,1-.89,1h1.9C413.31,597.87,413.56,597.14,412.93,596.59Z" class="cls-14"/><path d="M551.4,553c-.73-1.25-2.59-1.8-3.33-3-.54-.93,1.49-1.35,1.28-1.53-.71-.61-2.4-.39-3.07-1.53-.26-.44.36-.52.51-.65,1.22-1-1-1.2-.25-2.4,1-1.64,7-7.34,4.09-9.81,0,0-4.11,4.15-4.86,4.58-1,.56-1.48,1.87-2.56,2.18-.91.26-2-1.74-2-1.74s-5.61,3.49-8.19,2.39c-2.24-.95-5.42-2-6.39-3.7-.58-1,.62-1.18,1-1.53,0,0-1.66-1.43-1.28-2.4s1.67-.77,2.3-1.31c.24-.2-1.85-1.25-1-2a12.65,12.65,0,0,1,1.67-.06c-.09,0-1.34-.14-1.42-.16a25.7,25.7,0,0,1-5.1-1.37c.06-.7.14-1.41.24-2.11a81.9,81.9,0,0,0,.79-8.86c2.42.44,5.61,1,6.37,1a39.59,39.59,0,0,0,10.23-1.31,11.75,11.75,0,0,0,1.54-.66s-5.25.26-7.68-.43a5.25,5.25,0,0,1-1-.44c-.85-.36,1.17-.83.26-1.09s-2.21-.14-2.82-.65c-.8-.69,1.47-1.39,1.79-1.53,2.32-1,3.41-2,4.86-2.61l1-.44c.69-.29,3.35-1.87,2.55-1.52s-6.31-1.18-6.65-1.75,1.4-.77,1.28-.87c-.82-.7-3-.4-4.09-.87-1.93-.83-.72-1.71-1.28-2.18-1.6-1.37-3.54-.53-6.75-2.25-.06-1.07-.13-2.14-.19-3.2a37.16,37.16,0,0,0,4.39-1.53c.49-.85-2.26-2.54-2.82-3.49-.43-.73,2.72-.16,2.05-1.31-.49-.82-2.31-.88-2.81-1.74a3.6,3.6,0,0,1,0-1.31c.05-.05.17,0,.25,0,5,0,.66-2.22,1-2.83.74-1.26,3.58-1.53,3.07-1.53-1.87,0-4.58-1.59-5.88-3v-.24c0-1.68.07-3.47.13-5.3a41.75,41.75,0,0,0,8-1.89s-2.84-2.6-1.79-3.49c.3-.26,2.25-.1,1.79-.87s-3.74-2.92-3.06-3.49c.85-.73,3.41-.28,2.55-1.75-.59-1-2.3-.79-2.3-2.18,0-.55,2.76.18,1.79-.65s-7.48-3-8.9-4.39a2,2,0,0,0-.27-.48v-.06a.09.09,0,0,0,0,.05c-.1-.12-.2-.17-.29-.13s-.16-1.61-.16-1.61c-1,.49-1.31,5.2-1.89,6.18s-3.32,3.88-3.32,4.58c0,.24,2.6-.5,2,.44-1.49,2.56-5.06.17-6.39,1.31-.15.13.39,1,.51,1.09a12.1,12.1,0,0,0,7.36,2.38c-.07,1.14-.12,2.3-.15,3.45-.84.66-1.58,1.14-1.58,1.14a8,8,0,0,1,1.55,0c0,.35,0,.71,0,1.06-1.24.41-3.61.49-4.1.9s2.27,1.36,2.05,1.75c-.65,1.1-6.4,2.28-6.4,2.61,0,.48,2.72.7,1.8,1.1-1.81.76-5.4-.13-3.95.48a13.41,13.41,0,0,0,3.69.82c.17,0-1.76.23-.26.87.54.23,1.62.07,2,.44,1,.88-3.43,2.92-3.84,3.27s1.47.5,1,.87c-1.3,1.11-2.3.41-2.3,2,0,.08.06.17,0,.22-.57.48-7.65,1.31-8.7,1.31h-1.79l.51.22c.9.38,5.29.58,5.88,1.09.42.35-1.69.6-1.28,1.31.67,1.14,4.52-.3,5.38.43.62.54-2.1,1.27-1.54,1.75.76.64,4.26,0,5.37.43s-.83.6-.51.88c1.26,1.07,4.57-.56,6.85-1.77,0,1.27,0,2.55,0,3.82-2.25,2-5.33,3.61-6.57,3.61a14.17,14.17,0,0,0-2.56.44s3.24-.14,3.83.87c.4.68-2.41,1.84-2.81,2.18s1.26,1.54.26,2c-3,1.27-6.15,2.41-9.21,3.71-.46.2-1.53-.22-1.53.22s1.76,1.11,1,1.74c-.29.25-3.49.22-4.09.22a5.86,5.86,0,0,1-.73-.07c1.24.4,4,1.51,3.28,1.81-.31.14-5.38.64-4.34,1.53,1.8,1.54,7.57-.3,8.69.66.36.3,1.42.43,5.12.43H510s-2.28.46-1.79.87c.89.76,4.7-1,5.56-1.29,0,0,0,0,0,0-.6.38-1.44.87-1.21,1.07,1.15,1,3.43-.89,5.4-2.18,0,2.59,0,5.17-.07,7.76a3.15,3.15,0,0,1-.73.74,22.13,22.13,0,0,1-3.58,1.52c-.22.07-2,.51-1.79.66.43.37,1.93-.1,2.3.22s-3.12,1.35-3.32,1.52c-.67.57,2.42,3.46-3.07,5a53.64,53.64,0,0,0-6.39,2,5.81,5.81,0,0,1-1.54.22s1.77.66,1.28.87c-2.86,1.22-7.23-1.06-9.21-2.18-.19-.11-1-.68-1.27-.44-2.06,1.75,2.73,3,2,4.14-.5.86-2.66-.34-3.07,0-.64.56,3.11,1.6,3.33,2,.36.62-2.84.45-3.33.87s3.15,1.22,3.33,1.53c.37.63-2.61,1-1.54,2s4.38-.2,5.37.65c.37.31-4.38,2.15-3.06,3.27.85.73,4-.51,4.85.22.56.48-1.91,1.8-1,2.18,1.47.63,4-2,5.11-1.09s-3.3,3.94-1.78,5.23c.18.16,1.33-.92,1.53-1.09.8-.68,2.47-.57,3.32-1.31s1.87-1.8,2.82-2.61c.15-.14.49-1.11.76-.87.48.41-.54,1.84.26,2.18,1.14.48,3-2.23,3.58-1.75s-.2,1.79.25,2.18,2.81-1.71,2.05.22a11.58,11.58,0,0,1-3.83,4.8,10.13,10.13,0,0,1-1,.65,33.77,33.77,0,0,0,3.58-1.09c.24-.1,1.56-1.07,1.79-.87,1,.85-5.66,7.78-3.58,7.19a11.69,11.69,0,0,0,5.37-3.06v.67q0,3.18,0,6.37c-1.41.9-3.12.46-4.82,1.91-.46.39,1.23,1.13.77,1.52-1.1.94-4.89.67-6.39,1.1-.76.21-.18,2.44-2.3,3.05-2.81.79-3.42-.5-4.35,1.09-1.09,1.85-6.9,2-6.9,2s.87,1.48.25,1.74c-2.12.91-7.43-2.2-8.18-3.48l-.51-.88a10.19,10.19,0,0,0,0,3.06c.29,1,2.55,2.18,2.55,2.18s-2.73-.51-3.58.21,2.55,2.41,1.79,3.06c-.25.21-5.47,1.22-5.37,1.3s5,1.36,3.07,2.18c-1.41.61-3.9-.38-5.11.66-.3.25,6.15.68,6.39,1.09.47.81-5.53,3.4-5.88,3.71s1.71.63,1.79.65c4.23.9,8.15-2.4,11.76-2.4.62,0-.59.94-1,1.31a12.13,12.13,0,0,0-2.56,2.61c-.62,1.07,3.37-.3,2.3,1.53a6.17,6.17,0,0,1-.93,1H508a3,3,0,0,1,1.17-1c1.23-.52,1.42.6,2.31.22a24.4,24.4,0,0,0,5.41-3.36c0,1.37-.08,2.74-.13,4.11h3.69c0-1.5,0-3,0-4.58a8.09,8.09,0,0,0,2.23,1c5.4,1.16,6.41-1.15,12.78.66a5,5,0,0,0,2.56.22c.86-.37-3.08-1.31-2.3-1.53,3.37-1,11.56,2.57,14.83-.22.87-.74-5.11-1.37-5.11-2s3.58.17,3.58,0c0-1.3-4.83-2.15-5.63-2.83s2.86-.35,3.07-.44c1-.45.18-1.21,2-1.74.32-.09,3.07-.66,3.07-.88,0-1.39-12.87-2-13.81-2.18-4.77-.81-7.75,1-11.5-2.18-.61-.52.89-.43,1-.43,2.11,0,8.35.91,10,.22,1.91-.82-.48-3,.77-3.49,1.72-.73,4.91.17,6.39-1.09.73-.62-3.83-1.1-3.32-2s7.68-4.57,5.62-6.33c-.31-.26-1.18,1-1.27,1.09a11.4,11.4,0,0,1-4.61,3.27A18.79,18.79,0,0,1,532,575H529.4s-1.78-.64-1.78-1.31c0-.07,4.16-1.9,3.58-2.4s-3.06.44-2,.06l-.05-.06c-2.11-1.79-5.73-1-7.16-3.49l-.18-.28q.13-1.24.27-2.43c.91.54,1.89,1,2.47.53.19-.17-.92-2.17-2-4.18.14-.81.28-1.6.42-2.36a33.13,33.13,0,0,0,.55-4.32c1.24.66,2.44,1.23,3,1.49s.15-2.06.51-1.75c1.07.91,2.26,3.53,3.33,2.62.39-.34,0-1.27.25-1.53s3,3.89,3.58,4.15a.3.3,0,0,0,.26,0c.66-.56-.13-3.11.51-3.93,1.3-1.66,2.88,1.28,4.35.66,1.2-.51-.11-1.88.51-2.4.39-.34,3,3.7,3.07,3.7.33,0,.6-.81,2.81.44,1.49.84,1.19-.07,2.05-1.53s3.36,3.24,4.6,2.18c.83-.71-1.58-3.43-1.79-4.14C550.28,553.54,551.84,553.74,551.4,553Z" class="cls-14"/><path d="M2.51,503.35c-.43-.36-1.52,0-2.51.26v.82a1.48,1.48,0,0,0,.29,0C.58,504.37,2.85,503.64,2.51,503.35Zm-2.4,4.21c.07-.05,1.59.3,1.29-.21-.15-.26-1-.29-1.29-.29H0v1.88a1.86,1.86,0,0,0,1-.35C1.34,508.27.11,507.57.11,507.56Zm303.22,89.95c-1.07-1.27-52-17.08-54.89-18.2-2.33-.9,2.4-.92,2.28-1-1.78-1.07-4.5-1.65-6.24-3.21-.44-.4.21-1.37-.16-1.81-.62-.73-2.28-.87-2.73-1.63-.68-1.16,5-1.23,5.61-1.49.75-.32-3.91-1.65-3.92-1.69,0-.3,3-.31,2.5-.87-1.92-2.27-9-1.74-11.47-4-1.27-1.14,3.49-1.17,3.46-1.2-.72-.86-4.53-2.51-5.92-3.56.75.19,1.53.4,1.86.07a.26.26,0,0,0,.08-.26l1.71.55c3.51,1,7.17.56,10.76.68.46,0,2.92.43,3.38.05,0,0-3.21-1.2-3.49-1.3-.76-.26-1.91-.61-3.15-1a4.05,4.05,0,0,0,2.22-.66c.44-.43-4.75-1.85-5.41-2.5s2.47.36,2.57.27-1.09-1-.95-1.31c.37-.72,2.34,0,3-.27.47-.23.14-1,.4-1.31.82-.79,3.35-.45,4.47-1.17,2.16-1.4-2.35-2.39-.81-2.89,2.24-.72,3.53-.66,5.55-2,.26-.17,1.41-1,1.22-1.31-.68-1.31-4.94-.63-6-.14a1.68,1.68,0,0,1-.61.06c0,.06,0,.12-.07.21-.36.35-3.38.05-3.38-.13s2.3-.09,3.45-.08c-.16-.29-1.55-.32-1-.84s2.5-.26,2.84-.92-1.62-.53-1.35-1.05c.1-.2,1.82-.66,1.62-1s-1.68-.05-2-.39,1.31-.83.95-1.18-1.24.2-1.49.26c-1.9.46-3.48,1.39-5.42,1.71-1.12.18-2.25.43-3.38.65a9.78,9.78,0,0,1-1.9.4c0-.5,2.63-1.42,3-2.1.23-.43-.32-.53,0-.55.64-.54,1.4-1.41,1.13-1.68s-1.28.69-1.49.79c-1.64.79-3.18,1.66-4.61,2.36-.1,0,.24-2.48-1.08-1.84-.7.34-4.33,2.36-5,1.71-.21-.21,1.1-.85.41-1.18s-2.69.79-3.11.39c-.23-.22.43-.23.27-.39-.33-.32-2.18.46-2.58.52-1.1.18-5.46.29-6.09-.92-.06-.13,4.09-.28,4.33-.52s-3-2.31-2.57-2.75,1.49.26,1.49.26a4.6,4.6,0,0,1-1.08-.79c-.36-.47-2-2.76-1.35-3.4.26-.26,1.7,1.1,2.16.65s-.57-1.15-.81-1.31a10.74,10.74,0,0,1-3.39-4.59c-.09-.27-.3-2.88-.27-2.88.86,0,4.64,2.59,5.69,1.57.48-.46-1.11-.74-.41-.91.45-.11,4.47.21,4.47.13,0-.75-2.72-.72-2-1,1-.5,2.78.38,3.79.52,2.21.31,4.92,1,6.5-.52.12-.12-3.56-1-2.85-1.71,1-1,3.67,1,4.47.27.06-.06-.54-.9-.54-1a15.34,15.34,0,0,1,2.17.13c.19,0,1.47-.78,2-.92s2.2.06,2.43-.39c.51-1-4.18.64-3.38-.13,1-1,4.53-.62,6-1.31.27-.13,1.28-1.39,1.09-1.57-.59-.58-2.73,1.55-3.39.91-.06-.06,1.88-1.59,1.63-1.83s-2,.4-2,.39c0-.55,1.22-1.05,1.49-1.57s-.38-.48-.14-1.18c.12-.35,1.18-2.14.81-2.49-.15-.15-3.06,1.86-3.38,2.1a13.52,13.52,0,0,1-3,1.31,7.45,7.45,0,0,1-1.49.26s2.71-1.31,2-2c-.31-.3-1.58.31-1.89,0-.13-.12,1.07-.79.67-1.18s-2.39.88-2.57.53c-.27-.54,1.71-2.28,1.22-2.75-.91-.89-3.38,2.36-3.93,1.83-.24-.24.25-1.2,0-1.44s-3.58,2.39-4.06,2.62.42-1,0-1.18c-1-.33-3.56-.57-4.33-1.31-.41-.4,1.84-.33,2-.52s-2.12-1.52-1.89-2c.36-.69,2.3-.66,2.3-.66s-3.05-.32-2.44-.91a.59.59,0,0,1,.4-.07c-1.3-.62-2.73-1.26-4-1.9-1.87-.9-.82-2.49-1.76-3.41s-1.61-3.92-1.22-3.53a6.55,6.55,0,0,0,2.3-.27c.37-.36-.59-1.33-.81-1.44-1.1-.53-.08-.95-.14-1.05a10.75,10.75,0,0,1-.81-2.22c.25-.24,2.85.85,3.25.92a29.88,29.88,0,0,0,4.2.26h2.16s-2.75-2.19-1.89-3c.65-.63,2.7.53,2.7.53s-.87-.58-.4-.4c.85.33,3,1.26,3.92.79,1.2-.58-1.52-2.72-1.08-3.15.81-.78,2.46,1,3,.53.19-.19-1.11-1.08-1.22-1.18-1.6-1.55-1.35-1.92-3.52-2.62-.67-.22-2.33-1.31-1.62-1.31.31,0,1,.68,1.35.78,1.75.57,4.34-1.18,5.42-2.22.7-.68-3.43,1-3,.13.21-.42,1.25-.69,1.62-1s2.67-4.11,2.17-4.59c-.34-.32-1.72.77-2,.92-1.93.93-3.64,2.75-5.69,3.41a25.66,25.66,0,0,1-4.11.52c.11-.41-.93-1-1.17-1.44s1.49-.79,1.49-.79a2.6,2.6,0,0,1-1.08-.39c-.19-.18.68-.52.4-.79-1.46-1.41-4.47,2-6,.53-.56-.55-.32-4.54.27-5.11.39-.38,2.47,1.15,2.84.78,0,0-1.77-1.58-1.89-1.83s.71,0,.94-.26c.43-.42-.62-1-.81-1.57,0-.15-.7-2.76-.67-2.76.29,0,1.15,1.16,1.62,1.31,1.42.46,4.78.88,6-.26.58-.57-1.37-1.82-1.36-1.83s2.51.53,2-.4c-.24-.46-1.59-.52-2-.52-.1,0-1.11-.05-.95-.13,2.3-1.11,5.18-.56,7.31-2.62.35-.34,1.73-1.38,1.49-1.84s-4.44-.13-4.46-.13c-.28,0-4.2.56-4.2.13s.73,0,1.08-.13,4.07-1.43,3.52-2c-1-1-4.53,1.27-6.09.52a16,16,0,0,1-3.79-2.88,3.5,3.5,0,0,1-.54-1.18s1.38,1.1,2,.78-1.7-1.76-1.22-2.22,1.49.26,1.9-.14c.25-.24-1.39-1.08-1.63-1.3-.83-.81.52-1.21-.27-2a10.36,10.36,0,0,1-1.22-2.1c.32-.31,1.42,1,1.9.53.63-.61-1.78-3.44-1-2.66.62-.73-.57-3-.85-3.5s.72-.58.27-1.44c-.2-.4-1.78-2.08-1.75-2.1.27-.27,1.57.88,1.89.26s-.37-1.6-.54-2.09c-.68-2-.9-3.23-2.44-4.72-.62-.6-.54-2.49-.54-2.49l-.65,2.67a48,48,0,0,1-4.63,5.84c-.43.42-3,1.83-2.44,2.36.28.27,3.39-.9,3.39-.65s-1.14,1.35-1,1.44c.5.24,2.78-.34,2.3,1.05-.16.46-.93.77-1.22,1.05s.49.41.41.65c-.28.81-2.36,1.66-3.11,1.84-.38.09-3.39.91-3.39.91,1.11,1.08,4.79-.87,5.69,0,.65.64-2.12,2.93-1.9,3.15.39.38,1.43-.58,1.76-.26s-.75.68-.27.91c1.5.73,2.56.16,2,1.71-1.08,3.14-7,4.72-9.88,4.72a7.81,7.81,0,0,1-1.62-.17.45.45,0,0,1,.13.56c-.58,1.13-3.65-.07-4.6.39-1.28.62.86,1.4.27,2-1,1-4.36-.76-5.28.13-.18.17.54.85.68,1.05.75,1.1,3.38,2.22,3.38,2.22s-1,.14-1.49.14-2.66-.31-3,0c-.5.48,1.62.92.41,1.31-.29.09-2.95-.08-2.57.65,1.34,2.59,7.42,1.84,9.75,1.84a4.42,4.42,0,0,0,2.3-.27c.35-.23,1.41-.76,1.21-.39C199.53,468.54,197,470,197,470s1.22-.39,1.22,0-2.77.86-2.3,1.31,3.59-.46,4.19-.65c.43-.14,1.22-1,1.22-.53,0,.63-2.13,1.24-1.76,2,.29.56,3.34-.7,3.79-.92,1.15-.55-.25,1.06-.13,1.18.52.5,2.83-1.45,3.52-.79.48.47-1.37,1.83-1.09,2.1s1.23-.46,1.49-.52c.62-.15,4.19-2,4.47-1.71.53.52,1.23,4.45.54,5.11a4.9,4.9,0,0,1-2,.92,13.35,13.35,0,0,0-1.35.13,3,3,0,0,1-.81.92,32.51,32.51,0,0,1-3.25,1.18s2.18-.17,1.89.39c-.87,1.69-5.21-.19-6.09.66-.29.28,0,1-1,.65-1.34-.43-2.81-2.88-4.19-2.88-.5,0,.63,1.44.13,1.44a9,9,0,0,1-2.57-.52c-.36-.12-1.08-.77-1.08-.4s1.69.77.81,1.05c-1.2.39-3.41-.4-4.47-.92-.22-.1-1.39-.87-1.62-.65-.76.73.61,3.18-.68,3.8-.68.33-2.93-.18-3.38.26s-.37.92-1.63.92c-.65,0,.08,1.17-.13,1.57s-.91.43-1.61.48c-.05-.09-.11-.18-.17-.27a22.54,22.54,0,0,1-.45-3.39s-.54,1.57-.18,1.65c-.06.65-.36,2-.36,2l-.13.26-.08.07s0,0,0,.06a63.7,63.7,0,0,1-3.68,7.57c-.36.57-2.5,2.49-2,3.22.23.35,2.83-1.24,2.83-.9,0,.18-.95,1.84-.79,2,.41.32,2.32-.46,1.92,1.42-.13.63-.78,1.06-1,1.43s.41.56.34.9c-.23,1.1-2,2.25-2.6,2.49-.32.13-2.84,1.24-2.83,1.25.93,1.47,4-1.18,4.75,0,.55.87-1.77,4-1.58,4.29.33.51,1.19-.79,1.47-.36s-.63.93-.23,1.25c1.26,1,2.15.22,1.7,2.32a6.79,6.79,0,0,1-1.28,2.74,2.67,2.67,0,0,0-2.26.36c-.5.48,0,.86.7,1.2a9.82,9.82,0,0,1-5.42,2.13,4.45,4.45,0,0,1-1.36-.22.83.83,0,0,1,.11.75c-.48,1.54-3.05-.09-3.84.54-.52.4-.37.86-.14,1.31a9.16,9.16,0,0,0-2.59.35,6.59,6.59,0,0,1-1.5.18c0-.24-.05-.48-.08-.72.6-.17,1.22-.43,1-1s-.71-.7-1.25-.86c-.08-.54-.17-1.06-.26-1.58a1.17,1.17,0,0,0,.85-.38c.42-.73-.64-1.51-1.38-2.12A24.64,24.64,0,0,1,157,509a21.22,21.22,0,0,0,2.43.47,5.24,5.24,0,0,0,.95.18c.14-.11-.83-.89-.73-.93.62-.27,2.38.59,2.93.12.18-.15-.87-.69-.29-.94s2.63.51,2.93,0c.16-.28-.31-.46-.44-.62a22.82,22.82,0,0,1-1.76-2.13c-.08-.13-.7-.65-.59-.75s1.84.76,2.13.81a10.89,10.89,0,0,0,4-.18c.28-.06,2.78-.52,2.65-.76s-.69-.14-.89-.18c-.89-.19-2.11.07-2.78-.5-.13-.11.42-.12.44-.13a2.41,2.41,0,0,0,1-.56c.07-.11-.18-.29-.07-.38.49-.41,2-.11,2.49-.56.18-.15-.64-.52-.51-.75s1.78-1,1.54-1.19a19,19,0,0,0-2,.69c-1.67.36-4.27.93-5.87.25-.31-.13-.91.1-1.17-.12s1.7-.05,1.47-.44a12.75,12.75,0,0,0-1.25-.38c-.09,0-.64-.3-.37-.37,1-.29,2.25-.18,3.16-.69.26-.15.84-.6.58-.81s-1.9.06-2.2.12a16.56,16.56,0,0,1-5.79.19,8.08,8.08,0,0,1-2.84-1.14,45.43,45.43,0,0,1-.16-6.84,5,5,0,0,0,1.09.54,22.66,22.66,0,0,1,2.71.5c.22.08,1.37.65,1.62.44s-1.41-.81-1-1,2.18.4,2.5.13-1.24-1.07-1.1-1.19,1-.08,1.32-.12a27.33,27.33,0,0,0,2.93-.63,5.87,5.87,0,0,0,2-1,2.84,2.84,0,0,1,.66-.31s-.78.06-1.17.06a8.6,8.6,0,0,1-2.64-.06c-.46-.2.77-.07.88-.25s-1-.76-1.1-.94.7-.1.81-.13c.3-.06,2.08-1,1.9-1.18s-1.65.19-1.9.25a8.78,8.78,0,0,1-4-.5c-1.66-.48,1.21-.38,1.1-.57-.22-.38-1.53-.43-2-.56s-.74-.57-1-.81.67,0,.8-.25a2.91,2.91,0,0,0,.15-1.25s-1,.65-1.32.37c-.16-.13.58-.25.58-.25s-.77-.18-1.17-.25a6,6,0,0,1-1.15-.36c.06-.59.11-1.21.14-1.85.5-.11.91-.21.79-.41s-.44-.45-.75-.81c0-.23,0-.46,0-.7.56.15,1.56.47,1.26-.06-.19-.31-.78-1-1.27-1.72,0-.63,0-1.28-.06-1.92.61.17,1.51.73,1.91.39s-.7-1.63-.51-1.94,1.13.1,1.39-.12c.53-.46-1.11-1.56-1.1-1.57s.76.29,1,.13-.79-.8-.88-.88a7.53,7.53,0,0,1-1.69-2.5c-.2-.69-.36-1.63-.6-2.45-.11-1.8-.19-8.94-.19-10.35l-1,4.2a20.74,20.74,0,0,1-.67,2,19.11,19.11,0,0,1-6.09,8.36c-.41.35,1.12.51.66.9-.28.24-5.79.4-5.16,1.47.37.63,2.61.29,2.12,1.13-.11.18-3.24,1.16-2.26,1.58,1.86.79,4.26,0,5.83-.68.66-.28.91.63,1.59.34.25-.1,1.83-1,2.12-.79.72.61-1.05,2-.4,2.6a.38.38,0,0,0,.18.09c-.16,1.2-.26,2.43-.31,3.68-1.37,1.73-4.3,1.89-6.22,2.44-.94.27.9,1.38.79,1.47-.5.43-2.85.42-3.71.79-.49.21-.38,1-.92,1.24-.95.41-2.24-.45-3.05-.68s-.68.23-1.46.57c-1.43.61-6.27-1.32-4.64,1.47a2,2,0,0,0,.27.33c-1.48-.64-2.94-1.39-3.51-2.36s.53-1,.88-1.3c0,0-1.42-1.23-1.1-2.06s1.44-.66,2-1.12c.21-.17-1.58-1.08-.87-1.68a9.38,9.38,0,0,1,1.43-.05c-.08,0-1.15-.12-1.21-.14A22.41,22.41,0,0,1,127.8,477c.06-.61.13-1.21.21-1.82a70.67,70.67,0,0,0,.68-7.58c2.07.38,4.81.86,5.46.86a34,34,0,0,0,8.76-1.12,10.37,10.37,0,0,0,1.31-.56,28.92,28.92,0,0,1-6.57-.37,4.47,4.47,0,0,1-.87-.38c-.73-.31,1-.71.22-.93s-1.9-.12-2.41-.56c-.69-.59,1.26-1.19,1.53-1.31,2-.84,2.92-1.71,4.16-2.24l.88-.37c.59-.25,2.87-1.6,2.19-1.31s-5.41-1-5.7-1.49,1.2-.66,1.1-.75c-.71-.6-2.56-.34-3.51-.75-1.65-.7-.62-1.46-1.09-1.87-1.37-1.17-3-.45-5.78-1.92-.06-.92-.12-1.83-.17-2.74a32.62,32.62,0,0,0,3.76-1.31c.43-.73-1.94-2.18-2.41-3-.37-.63,2.32-.14,1.75-1.12-.42-.71-2-.76-2.41-1.5a3.51,3.51,0,0,1,0-1.12c.05,0,.15,0,.22,0,4.28,0,.57-1.9.88-2.42.63-1.08,3.06-1.31,2.62-1.31a8.38,8.38,0,0,1-5-2.6v-.2c0-1.44,0-3,.11-4.55a35.76,35.76,0,0,0,6.9-1.62s-2.44-2.22-1.54-3c.26-.22,1.93-.09,1.54-.75s-3.21-2.5-2.63-3,2.93-.24,2.19-1.49c-.51-.87-2-.69-2-1.87,0-.47,2.36.15,1.53-.56s-6.41-2.6-7.63-3.76a2,2,0,0,0-.22-.42v0s0,0,0,0-.17-.15-.25-.12-.13-1.37-.13-1.37c-.85.41-1.13,4.46-1.62,5.29S121,421.37,121,422c0,.2,2.23-.44,1.76.37-1.29,2.19-4.34.15-5.48,1.12-.13.11.33.84.44.94a10.34,10.34,0,0,0,6.3,2c-.06,1-.11,2-.13,2.95-.72.57-1.35,1-1.35,1a6.6,6.6,0,0,1,1.33,0c0,.3,0,.61,0,.91-1.07.35-3.1.42-3.51.77s1.94,1.16,1.75,1.5c-.56.94-5.48,1.95-5.48,2.24s2.33.59,1.54.93c-1.55.66-4.62-.11-3.38.42a11.55,11.55,0,0,0,3.16.7c.15,0-1.51.2-.22.75.45.19,1.38.06,1.75.37.89.76-2.94,2.51-3.28,2.8s1.25.43.87.75c-1.11.95-2,.35-2,1.68,0,.06,0,.15,0,.19-.48.41-6.55,1.12-7.45,1.12h-1.53l.44.19c.77.32,4.52.49,5,.93.36.3-1.45.51-1.09,1.12.57,1,3.86-.25,4.6.37.54.46-1.8,1.09-1.31,1.5.64.55,3.64,0,4.59.37s-.71.51-.43.75c1.08.92,3.91-.48,5.87-1.52,0,1.09,0,2.19,0,3.28-1.93,1.69-4.56,3.09-5.63,3.09A12.07,12.07,0,0,0,116,456s2.77-.12,3.28.74c.34.59-2.07,1.58-2.41,1.87s1.08,1.32.22,1.68c-2.54,1.09-5.26,2.06-7.89,3.18-.39.17-1.31-.19-1.31.19s1.51.95.88,1.49a18.35,18.35,0,0,1-3.51.19c-.14,0,2.8,1.23,2.19,1.49-.26.11-4.61.55-3.72,1.31,1.54,1.31,6.48-.26,7.45.56.31.26,1.21.37,4.38.37h1.31s-2,.39-1.53.75c.76.65,4-.87,4.76-1.11,0,0,0,0,0,0-.52.32-1.24.74-1,.91,1,.84,2.94-.75,4.63-1.86l-.06,6.65a3,3,0,0,1-.62.63,20.69,20.69,0,0,1-3.07,1.31c-.19.05-1.69.43-1.54.56.38.31,1.66-.09,2,.18s-2.67,1.16-2.85,1.31c-.57.49,2.08,3-2.63,4.3a47.48,47.48,0,0,0-5.48,1.68,4.81,4.81,0,0,1-1.31.18s1.51.57,1.09.75c-2.45,1.05-6.19-.91-7.88-1.87-.17-.09-.85-.58-1.1-.37-1.75,1.5,2.35,2.53,1.76,3.55-.43.73-2.29-.3-2.63,0-.56.47,2.66,1.37,2.85,1.68.31.53-2.44.39-2.85.74s2.69,1.06,2.85,1.31c.31.55-2.24.9-1.32,1.68s3.75-.16,4.6.56c.31.27-3.76,1.84-2.63,2.81.73.62,3.43-.44,4.17.18.47.41-1.65,1.54-.88,1.87,1.26.54,3.46-1.72,4.38-.93s-2.83,3.37-1.53,4.48c.16.14,1.14-.79,1.31-.94.69-.58,2.11-.49,2.85-1.12s1.6-1.54,2.41-2.24c.13-.11.42-.94.66-.74.41.35-.47,1.57.21,1.86,1,.42,2.58-1.91,3.07-1.49s-.17,1.53.22,1.87,2.4-1.47,1.75.18a9.94,9.94,0,0,1-3.28,4.11,7.43,7.43,0,0,1-.88.56,29,29,0,0,0,3.07-.93c.2-.09,1.33-.92,1.53-.75.86.73-4.85,6.67-3.07,6.17a10.05,10.05,0,0,0,4.6-2.63v.57q0,2.73,0,5.46c-1.21.77-2.67.4-4.13,1.64-.39.33,1,1,.66,1.3-.94.81-4.2.57-5.48.94-.65.18-.15,2.1-2,2.61-2.4.69-2.93-.42-3.72.94-.49.83-2.11,1.26-3.53,1.47a1.83,1.83,0,0,0-.46-.55l-.71.68c-.71.07-1.22.08-1.22.08a3.82,3.82,0,0,1,.35.79l-.86.84c-2.09,0-5.71-2.16-6.28-3.13l-.44-.74a9,9,0,0,0,0,2.61c.25.86,2.19,1.87,2.19,1.87s-2.34-.43-3.06.19c-.5.42.36,1.06,1,1.63-1.5.82-4.48,2.21-6.08,1.53-1.93-.82-4.65-1.76-5.48-3.18-.49-.85.53-1,.88-1.31,0,0-1.42-1.22-1.1-2s1.44-.66,2-1.12c.2-.17-1.59-1.08-.88-1.68a9.38,9.38,0,0,1,1.43,0l-1.21-.14a22.1,22.1,0,0,1-4.37-1.17c0-.61.12-1.22.21-1.82a73.58,73.58,0,0,0,.67-7.58c2.07.38,4.81.86,5.46.86A34,34,0,0,0,96,505.25a10.06,10.06,0,0,0,1.32-.56,28.6,28.6,0,0,1-6.58-.38,4,4,0,0,1-.87-.37c-.73-.31,1-.71.22-.93s-1.9-.12-2.41-.56c-.69-.59,1.26-1.19,1.53-1.31,2-.85,2.92-1.71,4.16-2.24l.88-.37c.59-.26,2.87-1.6,2.19-1.31s-5.41-1-5.7-1.5,1.2-.65,1.1-.74c-.71-.61-2.56-.35-3.51-.75-1.65-.71-.62-1.46-1.09-1.87-1.37-1.17-3-.45-5.78-1.93-.06-.91-.11-1.82-.17-2.73A32.62,32.62,0,0,0,85,486.39c.43-.73-1.93-2.18-2.41-3-.37-.63,2.33-.14,1.75-1.12-.41-.71-2-.76-2.41-1.5a3.51,3.51,0,0,1,0-1.12s.15,0,.22,0c4.28,0,.57-1.9.88-2.43.63-1.07,3.06-1.3,2.63-1.3a8.38,8.38,0,0,1-5-2.6v-.2c0-1.45,0-3,.11-4.55a35.76,35.76,0,0,0,6.9-1.62s-2.44-2.22-1.54-3c.26-.21,1.93-.08,1.54-.74s-3.21-2.5-2.63-3,2.93-.24,2.19-1.5c-.51-.87-2-.68-2-1.86,0-.48,2.36.15,1.53-.56s-6.41-2.6-7.63-3.77a2.17,2.17,0,0,0-.22-.41v0s0,0,0,0-.16-.15-.24-.12-.14-1.37-.14-1.37c-.85.41-1.12,4.45-1.62,5.29s-2.84,3.33-2.84,3.93c0,.2,2.22-.44,1.75.37-1.29,2.19-4.34.15-5.48,1.12-.13.11.33.84.44.93a10.21,10.21,0,0,0,6.3,2c-.06,1-.1,2-.13,3-.71.57-1.35,1-1.35,1a6.6,6.6,0,0,1,1.33,0c0,.3,0,.6,0,.91-1.06.35-3.1.42-3.51.77s1.95,1.16,1.75,1.49c-.55.95-5.48,2-5.48,2.25s2.33.59,1.54.93c-1.55.66-4.62-.11-3.38.42a11.55,11.55,0,0,0,3.16.7c.15,0-1.51.2-.22.75.46.19,1.38.06,1.75.37.89.76-2.93,2.5-3.28,2.8s1.25.43.87.75c-1.1.94-2,.35-2,1.68,0,.06,0,.14,0,.19-.48.41-6.55,1.12-7.45,1.12H59.19l.44.18c.77.33,4.52.5,5,.94.35.3-1.45.51-1.1,1.12.57,1,3.87-.25,4.6.37.54.46-1.8,1.09-1.31,1.5.65.55,3.64,0,4.6.37s-.72.51-.44.75c1.08.92,3.91-.48,5.87-1.52,0,1.09,0,2.18,0,3.28-1.93,1.69-4.56,3.09-5.63,3.09a12.07,12.07,0,0,0-2.19.38s2.78-.12,3.28.74c.34.58-2.06,1.58-2.41,1.87s1.08,1.31.22,1.68c-2.53,1.08-5.26,2.06-7.88,3.18-.4.17-1.32-.2-1.32.18s1.51,1,.88,1.5a18.4,18.4,0,0,1-3.51.18c-.14,0,2.8,1.24,2.19,1.5-.26.11-4.61.55-3.72,1.31,1.54,1.31,6.48-.27,7.45.56.31.26,1.21.37,4.38.37h1.31s-2,.39-1.53.75c.76.64,4-.87,4.76-1.11h0c-.52.33-1.24.75-1,.92,1,.84,2.94-.76,4.63-1.86l-.06,6.64a2.9,2.9,0,0,1-.62.64,19.26,19.26,0,0,1-3.07,1.3c-.19.06-1.69.43-1.53.56.37.32,1.65-.08,2,.19s-2.67,1.16-2.85,1.31c-.57.49,2.08,3-2.63,4.29a50.88,50.88,0,0,0-5.47,1.68,5.05,5.05,0,0,1-1.32.19s1.51.57,1.1.75a5.69,5.69,0,0,1-3.65,0,5.06,5.06,0,0,0-1.08-.35,14.48,14.48,0,0,1-1.44-.61c-.16-.37,1-.78,1-.8-.77-.53-2.62-.28-3.43-.84-.25-.18,1.92-.45,2.11-.46a12.6,12.6,0,0,0,3.65-1.45,13.5,13.5,0,0,0,1.88-1c-.45-.31-3.16-.4-4.25-.44a2.56,2.56,0,0,0-.46,0,66.44,66.44,0,0,1-7.16-1.5c-.57-.19,0-1.27-.34-1.53s-3,0-3-.17c-.13-1.07,6.94-3.92,5.7-3.79-.55.06-7.74,1.64-7.55.83,0-.19-.65.11-.67-.09s2.61-.24,2.09-.6c-1.21-.84-5.23-1.36-6.72-.56A5.8,5.8,0,0,1,36,509a41.3,41.3,0,0,1-.34-5.74l.24-3.1.26.22c.67.47,1.1-1,1.2-1.09.37-.39,1.36.31,1.81-.16s-.39-1.58.42-2c2.57-1.38,5.75.79,8,.59a3.7,3.7,0,0,1,.51.1c.6-.62-1.91-1.63-1.26-2.3.17-.18.86.12,1,.19a32,32,0,0,0,7.4,2.21c1.86.35,2.06-1.08,3.31-1.56a7,7,0,0,1,2-.17s-3.16-.35-2.79-1.18,3,0,3.39-.85-5.45-1.87-6.09-2.32c-1.28-.89-5.53.57-7-1.39-.33-.44,1.83,0,1.83,0l-.53-.24c-1.65-.75-3.83-.74-5.19-1.68-.65-.46-4.3.34-5.36-.4-.16-.1,1.6-.27,1.79-.29a11.41,11.41,0,0,0,3.74-.74c.67-.36-.68-.27-.43-.82s4.13-.73,4.86-1.12-.64-.6-.28-1,1.54-.51,2-1a2.56,2.56,0,0,0,.23-.87c-.32,0-1.67,1.41-1.85,1.29-.89-.62,1.08-2.42.18-2.71-1.65-.54-4,3.81-5.31,2.86-.44-.3.72-1.94.23-2.28s-2.16,1.6-2.62,1.78a33.28,33.28,0,0,1-4.46,1.6c-.08-2.13-.6-4.36-.08-6.32a8.81,8.81,0,0,0-.08-3.85l2.38.82c1.6.52.92-1.24,1.48-1.54,1.3-.7,5.33.43,6.26-.54,0,0-2-1.55-1.07-2s3.1.23,3.77-.46c.24-.26-3.14-1-3.46-1.12a12.84,12.84,0,0,1-3-1.73l-2-1.39s1.7.43,2.16,0c0-.05-2.8-1.5-2.54-1.77.11-.12,3.47-.41,2.54-1.06-.46-.32-4.06-2.78-2-2.95.22,0,.49-.05.29-.31-.8-1.09-4.47-2.53-5.66-2.92a1.52,1.52,0,0,1-.51-.31q-.15-1.17-.3-2.31c-.1-1-.24-1.87-.37-2.8h.05c.24.18,0,.63.59.8,1.39.45,1.2-.81,1.56-.84s4.25,2.89,4.84,1.57c.39-.88-2.13-1.93-2.63-2.61-.35-.47,1.9-.15,1.2-1.09-1.7-2.29-6.73-3.48-7.2-7.47,0,0,.07-2.3-.91-.1s-2.19,4.74-3.74,6c.34,0,.58.13.39.32s-3.29.79-3,1c1.43,1,5.33-1.31,5.33-1.31l-2.15,2.88s1.58-.57,2.14-.19c.27.19-2.08,2.16-2,2.59a14.55,14.55,0,0,0,2.12-.33c.46.32-2.08,1.12-1.66,1.42.8.56,2-.08,3.07-.85,0,.4,0,.75-.06,1,0,.91,0,1.83,0,2.74A12.29,12.29,0,0,1,29,460.33c-.72.27,1,.5.43.81-1.33.71-5.52.87-6,1.36-.23.24,1.9.37,2,.39.33.07,1.52.49,1.41.73s2.24.18,1.9.55c-1.64,1.7-3.89,2-6.11,3.21-1.12.61-4,.2-4,.2a.78.78,0,0,1,.19.13c.58.78,3.15.13,3.57.68.12.17-2.76,1.3-3,1.53-.44.46,1.76.31,1.45,1s-5,2.18-4.89,2.26c1.32.93,7.54.34,8.77-.32a2.07,2.07,0,0,1,.49,0c.32.22-1.56,1.28-1.82,1.43-1.85,1-5.36.7-6.73,2.13-.22.23,3.22.83,3.44,1,.83.58-1.12,1.67-.6,2,1.89,1.32,6.88-2.51,8-3.09.13-.07.52-.54.79-.35.64.44-.66,2.5.2,3.1.48.34,2.1-1.88,2.25-2,.92-.95,1.41.43,1.68.15s.14,1,0,1.83c-.18,1.62-.31,3.27-.39,4.94a9.79,9.79,0,0,1-1.33,1.59c-1.18.82-3.24,1.14-4.63,1.67-.27.1-.79.35-.79.35s1.53-.19,1.86.27-1.34,1.68-1.78,1.85c-1.38.53-3.42,1.9-5.13,1.57-1.06-.2-3.09-.87-3.09-.87s1.65.64,1.28,1-2.58-.25-3.31.15c-1.71.92-2.68,2.76-5.49,1.31-1-.5-2.54-1.46-2.95-2.44-.07-.17-.9-1.58-1.15-1.32-1,1.1,1.65,3,1.08,3.6-.73.76-4.3-.4-4.95.28s1.92.83,1,1.75c-.43.45-1.77.35-2.77.55v.77c1.08,0,2.54-.05,2.34.7S1.13,498.19,0,498.69v2.37H0c.8-.07,5.22-1.12,5.55-.9.13.1-2.19,2-1.68,2.69.64.87,3-1.28,3.73-.74.35.24-2.66,2.13-2,2.58.42.29,9.69-2.39,9.69-2.38.78.54-1.15,2.67-.64,3,1,.69,4.4-2.86,5.58-2,.74.52-1.22,2.5-.84,2.77.22.15.8-.42.94-.51A33.34,33.34,0,0,1,27,501.45c.34-.13,1.7-1.66,2-1.45s-.62,3.6-.41,3.58c.58-.05,2.24-2,2.86-2.36a48.71,48.71,0,0,0-.6,7.41v.16l-.43.45a26.46,26.46,0,0,1-2.75,2.07c-.72,1.63-6.15.12-7.17,1.18a12.64,12.64,0,0,1,1.77,1c0,.32-4.23,1-4.68,1.11-2.46.64-4,1.67-6.37,2.39-.68.21,1.15.06.72.5-1,1-4.14-.23-5.43.47-.77.41,0,.64-.53,1.17H6l-.3-.21c-1-.85-.85-1.06-2.22-1.45-.42-.12-1.46-.73-1-.73.2,0,.65.38.85.44,1.11.31,2.74-.66,3.42-1.24.44-.38-2.16.55-1.88.07.14-.23.79-.38,1-.58s1.68-2.28,1.37-2.54-1.08.42-1.28.51c-1.22.51-2.3,1.52-3.59,1.89A6.88,6.88,0,0,1,0,515.11v7l.49,0a2.38,2.38,0,0,0-.28.26c-.12.12.74.47.59.8a1.64,1.64,0,0,1-.8.69v15.65c.84,0,2,.1,2,.07,0-.41-1.71-.4-1.28-.58.66-.28,1.75.21,2.39.29,1.4.17,3.1.55,4.1-.29.07-.07-2.24-.57-1.79-1,.64-.55,2.31.58,2.81.15,0,0-.34-.5-.34-.59a11.35,11.35,0,0,1,1.37.08c.12,0,.92-.44,1.28-.51s1.39,0,1.53-.22c.32-.54-2.63.36-2.13-.07.65-.56,2.85-.35,3.75-.73.17-.07.8-.77.69-.87-.38-.32-1.72.86-2.14.51,0,0,1.19-.89,1-1s-1.28.22-1.28.21c0-.3.77-.58.94-.87s-.24-.27-.09-.65c.07-.19.74-1.19.51-1.38a14.85,14.85,0,0,0-2.13,1.16,8.81,8.81,0,0,1-1.88.73,5.07,5.07,0,0,1-.94.14s1.71-.72,1.28-1.09c-.2-.17-1,.17-1.19,0s.68-.44.42-.65-1.5.48-1.62.29,1.08-1.27.77-1.53c-.57-.49-2.13,1.31-2.47,1-.16-.14.15-.67,0-.8S3.32,532.76,3,532.88s.26-.58,0-.65c-.64-.18-2.25-.32-2.73-.73-.27-.22,1.15-.18,1.28-.29s-.39-.31-.75-.57a28.43,28.43,0,0,0,4.93-.59c1.37-.32,4-1.2,4-1.2s-1,.44-.76.63a8.08,8.08,0,0,0,2.14-.18c2.17-.57,3.44-1.78,5.17-2.71a1.85,1.85,0,0,0,1.72.56c.52-.15,2-2.32,2.78-1.79s-2.54,4.15-1.77,4.68,2.17-1,3.08-.68c.43.14.53,1,.8,1.2s3.9-1.45,3.05.45A11.2,11.2,0,0,1,21.24,536c-.84.37-4.11.66-4.53,1.1s1.74.89,1.5,1.43c-.16.36-5,.66-4.1,1.9.59.8,5.39.1,6.29-.25,1.35-.51,3-1.07,4.47-1.51,1.11-.34,1,.79,2.05.39.81-.31,2.37-1.9,3.59-2.39,0,1.14-.07,2.27-.1,3.41-2.17,2.41-7.39,3.39-4.74,3.9a6.91,6.91,0,0,0,4.64-1l-.12,3.84c-.62.06-8.64-.28-9.54,1-.13.19,3.73,1.22,4.13,1.4s1.87,1.09,1.49,1.63c-.08.11-1.9.77-1.41,1s2.78.67,2,1.53a14.22,14.22,0,0,1-3.47,2.3,14.52,14.52,0,0,1-4.11-1.11c-.64-.33-1.33-1.61-1.8-1.12-.24.25.22,1.46.05,1.84-.38.85-2.91,1.54-4.92,1.8a12.79,12.79,0,0,1-2.24-.82c-.39-.33,1.56.19,1.62.14s-.77-.43-.6-.73,1.48,0,1.88-.14.09-.59.25-.73c.52-.44,2.11-.25,2.82-.65,1.36-.78-1.48-1.33-.51-1.6a12.9,12.9,0,0,0,3.49-1.09c.17-.1.89-.53.77-.73-.42-.73-3.11-.35-3.75-.08a1.1,1.1,0,0,1-.38,0s0,.06,0,.11a5,5,0,0,1-2.13-.07c0-.18,1.45-.05,2.18,0-.11-.17-1-.18-.65-.47s1.58-.14,1.8-.51-1-.29-.86-.58c.07-.12,1.15-.37,1-.59s-1.06,0-1.28-.21.82-.46.6-.66-.79.11-.94.15c-1.2.25-2.19.77-3.42.94-.71.1-1.42.25-2.13.37a6.58,6.58,0,0,1-1.2.21c0-.27,1.66-.78,1.88-1.16s.09-.31,0-.3-.44.27-.49.23a1,1,0,0,1,.49-.23c.4-.3.88-.79.7-.94s-.8.38-.93.44c-1,.44-2,.93-2.91,1.31-.06,0,.16-1.37-.68-1-.44.19-2.73,1.31-3.16,1-.13-.12.69-.47.26-.66s-1.7.45-2,.22.27-.13.17-.22-1.37.26-1.62.29-.37,0-.63,0v50.37H300.52C301.27,598.1,303.65,597.89,303.33,597.51ZM3,520.8c-.47.21-.94.43-1.37.65-.33-.34-.57-.72-.32-.94s1.52.21,1.69.29l-1.09-.58s.56.27.85.37l.4.13Zm1.88-.91c-.24-.28-.44-.52-.33-.61.28-.24.7,0,1.09.12A6.66,6.66,0,0,1,4.88,519.89Zm55.57,17.39a2.49,2.49,0,0,1,2-.51,3.77,3.77,0,0,0-.67,1.28l-.44-.28C61.24,537.7,60.26,537.48,60.45,537.28Zm16,6.92-.18.24c-.6.66-2.26,1.63-1.76,2.49.28.47,1.39-.54,1.94-1.08v.47a8.58,8.58,0,0,1-1.91,3,1,1,0,0,0-.18.17,4.56,4.56,0,0,0-2.06,1c-.39.33,1,1,.66,1.3-.94.8-4.19.57-5.48.94-.65.18-.15,2.09-2,2.61-2.4.68-2.93-.42-3.72.94a2.29,2.29,0,0,1-1,.81c.95-2-6.66,1.46-6.8,1.47a1.65,1.65,0,0,1-.49,0c-.34-.23.28-.6.41-.74,1.11-1.15-1.06-.44-1.89-.55a14.94,14.94,0,0,1-3-1l-.37-.62-.05.45a21.7,21.7,0,0,0-4.08-1.48c-.25,0-.11,1.06-1.79.3l-.43-.21a16.63,16.63,0,0,1-1.92-2.86c-.08-.19,1.64-.34.77-1.21a11.11,11.11,0,0,1-1.79-3.74s1.52,2,1.84,1.37c.43-.85-.93-1.81-1.41-2.46,0-.05-.49-.78-.39-.62a1.85,1.85,0,0,1,.27.19c1.62,1.62,5.65,2.4,8.08,2.91.52.11,3.57.76,3.29-.2-.17-.57-3.35-1.82-3.43-1.9-.94-.94-4.94-1.33-6.39-1.68-.84-.2-3.44-2.93-4.38-2.25s-.24,2.25-1.25,3a2,2,0,0,1-.3.16c-.19-.41-.36-.82-.52-1.24l.06-7.25a7.46,7.46,0,0,1,1,.44c.66.69,1.55,2.2,2.45,2.49s-.34-1.68.26-2c.31-.16.47.15.7.23.57.18,2.23-.29,1.84.12-1.16,1.21,5.51,4.18,6.22,3.44.24-.25-1.74-1.34-1.22-1.88s2.68,1.3,3.39.56c.36-.37-4-3.1-3.78-3.93.36-1.37,1.76-.26,2.53-1.07.15-.15-3.27-2.51-3.51-3-.58-1.12,1.49-.5,1.85-1.3.27-.6-1.31-1.83-.28-2.38,1.54-.83,5.13,1.69,6.14,2.73.1.12.94.91.79,1.07-.31.32-1.75-.7-2.19-.24S54.3,536,55,536.19c.05,0,5.09,3.4,6.43,3.84s4.12-.35,4.12-.35-1.55-.55-2.87-1.17c.28-.23.58-.5.66-.58.69-.58,2.11-.49,2.85-1.12l.43-.38a5.74,5.74,0,0,0,2-1.41c.18-.19.1-.32-.1-.41l0,0c.13-.11.42-.94.66-.75.41.35-.47,1.58.22,1.87,1,.42,2.57-1.91,3.06-1.49s-.17,1.53.22,1.87,2.4-1.47,1.75.18a9.94,9.94,0,0,1-3.28,4.11,7.43,7.43,0,0,1-.88.56,29,29,0,0,0,3.07-.93c.2-.09,1.33-.92,1.53-.75.5.42-1.21,2.6-2.39,4.25-2.13.32-5.19,1.69-5.73,1.58-1.89.51-4,1.24-4.19,1.81-.36,1,3.35.27,4,.15,2.94-.54,7.83-1.37,9.83-3l0,0Zm45.78-10.6c0,.07,0,.13,0,.16a1.74,1.74,0,0,1-.61.3Zm-3,1.93c.12.15.15.29-.08.38a2.42,2.42,0,0,1-.86.08C118.68,535.85,119,535.7,119.3,535.53Zm-3.11.36a1.14,1.14,0,0,1,1.15.08,8,8,0,0,0-1.44.07Zm-10,2.1a1.09,1.09,0,0,1,.79-.6c.57,0,0,.29-.79.6a1.82,1.82,0,0,0-.3.85c-.12-.2-.25-.4-.38-.6Zm8.89,10.23c-1.88.8-6.39,1.15-7.89,2.43-.14.12,1.11,1,0,1.49a16.21,16.21,0,0,1-5,.75h-1.32s.78,1.33.22,1.49a13.34,13.34,0,0,1-3.42.29l-.82-.31c1.09-.94,6.27-3.83,4.64-5.22-.27-.23-1,.83-1.1.93a9.75,9.75,0,0,1-3.94,2.8c-.59.25-1.12.46-1.62.64a13.51,13.51,0,0,1-3-1.74c-.94-.84,1.88-1.31,2.44-1.55s-1.59-.9-1.68-1c-.45-.53,1.35-1.48,1.83-1.65s5.18-1.27,5-1.45c-1.07-1.27-17.21-1.79-18.06-2.29l-.17-.12-.49-.94c.11-.7.23-1.38.36-2a30.67,30.67,0,0,0,.47-3.7c1.05.57,2.08,1.06,2.59,1.28s.13-1.77.44-1.5c.91.78,1.93,3,2.85,2.24.34-.29,0-1.09.22-1.3s2.55,3.33,3.06,3.54c.07,0,.17.05.22,0,.57-.48-.11-2.66.44-3.36,1.12-1.42,2.47,1.1,3.73.56,1-.43-.09-1.6.43-2,.24-.2,1.35,1.38,2,2.38-.59.52-1,.92-.91,1,.4.34,1.84.18,3.35-.12a6,6,0,0,1,.55.29c1.07.6,1.06.15,1.46-.74.55-.14,1-.26,1.41-.37.93.77,2.13,2.26,2.83,1.67.24-.21.16-.61-.05-1.07a1.24,1.24,0,0,0,.75,0c.7-.2,4.08-2.49,4.16-2.43.72.62-1.46,3.41,1.31,2.62,1.49-.43,2-2,2.83-3a.64.64,0,0,0,.09.22,13.94,13.94,0,0,0,2.52,2.38c.48.41-1.33.22-.8.67a11.54,11.54,0,0,0,3.62,1.54,11.81,11.81,0,0,0-2.56,1.4c-.39.33,2,1,1.53,1.87-.6,1-3.91,1.38-5,1.87S116,547.83,115.09,548.22Zm7.23,8.22a20,20,0,0,1-.31,2.79,5.08,5.08,0,0,1-3,.06,2.74,2.74,0,0,0,.72-.24c1.61-.91.5-1.89,2.63-3Zm26.07-64.62a.78.78,0,0,0,.32-.48c.89,0,1.79,0,2.17,0,.08,0-.37,2.27-.13,2.48s1.91-.93,3.12-1.73c0,.88,0,1.74,0,2.57a6.12,6.12,0,0,0,.06.83,2.08,2.08,0,0,1-1,.59c-.5.09-1.31.17-2,.32a4.7,4.7,0,0,1-1.52-1.37c-.47-.79,1.28-1.15,1.1-1.31-.61-.52-2.06-.33-2.63-1.3C147.73,492,148.26,491.93,148.39,491.82Zm-1.61,22.86c.15.25-.41,1-.27,1.13s3.74-2.16,4.24-2.37c.88-.38-.11,1.17.53.9.34-.14,1.43-1.39,2.13-1.92.07,1.19.17,2.39.28,3.56a10.19,10.19,0,0,1-.95,2.31c-.29.33-2.65,1.7-2.52,1.81.85.72,2.53-.81,3.76-1.21.13,1.18.27,2.31.41,3.35a13.33,13.33,0,0,1-1.79,1.92c-.23.2-1.38,1.2-1.19,1.36l.07,0c-2.8-.77-10.11-1.14-10.76-1.25-4.09-.69-6.65.87-9.86-1.86-.52-.45.77-.38.88-.38,1.81,0,7.15.78,8.54.19,1.63-.7-.41-2.53.66-3,1.47-.63,4.2.15,5.48-.93.62-.54-3.29-.94-2.85-1.68a28,28,0,0,1,2.84-2.11A.32.32,0,0,1,146.78,514.68ZM138.31,500c1.11-1.42,2.47,1.1,3.72.57,1-.44-.09-1.61.44-2.06.22-.18,1.2,1.17,1.9,2.17-.92.6-1.93,1.06-2.49,1.55a3.53,3.53,0,0,1-2.12.22c-.14-.06-.43-.65-.67-.45a3.44,3.44,0,0,1-1,.47C138.13,501.65,137.94,500.51,138.31,500Zm-11.09,8c.78.47,1.62.88,2.11.46.17-.14-.79-1.87-1.67-3.58.11-.7.23-1.38.35-2a30.85,30.85,0,0,0,.48-3.71c1,.57,2.08,1.06,2.59,1.28s.13-1.76.44-1.5c.91.78,1.93,3,2.85,2.24.34-.28,0-1.08.22-1.3s2.3,2.93,3,3.48c-.7.33-2.94-.75-3.76-.4-.65.28-.17,1.15-.66,1.36s-2.89-.62-2.51.34,1.61.72,2,1.35c.2.34-1.67.64-1.19,1.47.36.62,2,.49,2.52.9s-.91,1.08-.27,1.36a10.34,10.34,0,0,0,4.37-.23c.17-.07.52-.68.67-.56.48.41-.54,1.57-.27,2,.45.78,1.57-1,1.86-.79s-.27,1.47,0,1.69c.64.56,2.42-2.22,3.31-1.46,1.22,1-1.67,4.11-1.59,4.18.9.77,3.65-2.2,3.84-2,.34.3.1.77-.29,1.25a12.61,12.61,0,0,1-2.21,1.2,16.26,16.26,0,0,1-7.67,1.49h-2.19s-1.53-.55-1.53-1.12c0-.06,3.57-1.63,3.06-2.06s-2.62.38-1.71.05l0-.05c-1.8-1.53-4.91-.89-6.13-3l-.16-.25C127.06,509.35,127.14,508.66,127.22,508Zm8.86,46.16c-.45.31-5.44,3.68-5.41,3.7.38.23,2.14-.05,3.34-.36.13-.08,1-.6,1.15-.49s-.39.3-1.15.49h0c-1.59,1-5.35,2.62-7.86,2.36,0-.35-.09-.71-.12-1.07v0a67.5,67.5,0,0,1-.25-7.39,14.75,14.75,0,0,0,3.33,1.16c1.35.38.12-1.28.66-1.13.92.27,4.92,2.17,6.8,2.37C136.4,553.9,136.24,554,136.08,554.14Zm1.17-.22c-.14,0-.22-.08-.24-.14a.77.77,0,0,0,.42-.14c.14-.12.58-1.15.88-1.46a11.81,11.81,0,0,1,2.84.44C139.72,553.27,138.12,554.06,137.25,553.92Zm7.23.91c-.7-.19-.52-.85-.39-1.51a7,7,0,0,0,2.26.14C145.28,554.31,144.64,554.88,144.48,554.83Zm8.66-5.71a34.56,34.56,0,0,0-5.73,3.52c-.14-.73-1.38-1.85-1.21-2,.37-.32,5.09.65,4.16-.94a12.7,12.7,0,0,0-1.43-.38c1-.54,1.88-1.19,2.8-1.77.54,0,1.09-.07,1.64-.13C153.28,548,153.21,548.55,153.14,549.12Zm-5.87-.3c.18-.12.43-.26.43-.26l-.39.28Zm7.57-21.2c-1.42,1.73-4.11,1-6.21,1.63a.55.55,0,0,0-.46.55,14.39,14.39,0,0,1-2.63-1c-.6-.52,2.45-.3,2.63-.38.9-.38.16-1,1.75-1.49a14.62,14.62,0,0,0,2.63-.75c0-.19-.27-.36-.73-.51a15.23,15.23,0,0,1,3.09.34ZM173,538.56a13.42,13.42,0,0,1-4,1.6c-.41.07-.24-.16-.58-.31-.68-.29-2.25.63-2.57-.19-.07-.17-.06-.66.15-.75s.92-.34.73-.5-1.6.22-1.91.31c-.71.2-2.9.53-3.22.25-.16-.13-.66.22-.88.13-.63-.27-1.41-.49-2-.79l.12-1.87c.54,0,1.07,0,1.36,0,.09,0,1,.09,1,.06s-.62-1.37-.51-1.37.74.42.95.06-.43-.55-.51-.63.16-.35.07-.43c-.63-.54-1.23-.86-1.76-1.29a23.24,23.24,0,0,0,5.13,0c.61,0,1.4.19,1.92-.36.3-.31,1.18-1,1-.53a11.2,11.2,0,0,1-2.61,3.57s1-.54,1,0-2.31,1.17-1.92,1.78c.49.77,3-.62,3.51-.89.35-.18,1-1.3,1-.71,0,.84-1.79,1.68-1.47,2.67.24.77,2.79-1,3.17-1.24.95-.76-.22,1.44-.12,1.6.44.68,2.37-2,3-1.07A1,1,0,0,1,173,538.56Zm4.35,1.1c-.07,0,.22-.06.22-.06a14.83,14.83,0,0,0-1.47-.32c-.42,0-1.2,0-1.8,0,1.07-.77,2.67-2,2.84-1.73a7.64,7.64,0,0,1,.47,2.14A.53.53,0,0,1,177.3,539.66Zm4-51.74s-.38.36-.89.81c-.14-.56-.3-1.1-.49-1.63A11.06,11.06,0,0,1,181.33,487.92Zm28.16,43.77c.5.5-.89,2.11-1.09,2.49s.38,1,.14,1.44a6.61,6.61,0,0,1-2.71,2.23,16.52,16.52,0,0,1-1.89.66,16.37,16.37,0,0,0,2.16-.39c1.1-.36,1.94-2.51,2.57-.66a9.49,9.49,0,0,1-.54,5.11c-.24.47-1.81.84-2.3,1.31-.22.22.4.75.14.92-.79.5-2.83.61-3.25,1.44-.31.6,1.59.82,1.35,1a5.53,5.53,0,0,1-1.34.87c-2.35-1,.94-2.69-3.62-3.13-.87-.09-1.74-.15-2.61-.2a.94.94,0,0,0-.05-.49c-.15-.24-.55.07-.93.45a97.91,97.91,0,0,0-11.11.24c-.08-.1-.14-.19-.07-.24s1.19.23,1.46,0c.45-.38-1.64-1.07-1.39-1.5.08-.13.79-.12,1-.19a3.38,3.38,0,0,0,1.25-1.81c0-.13-.92.24-1,.25-.37.1-2.39.78-2.79.43,0,0,1.71-1.08,1.83-1.18s-.83-.15-.87-.19c-.22-.18.82-.61.65-.75s-.71.26-.8.18,1.26-1.36.8-1.75c-.21-.18-.85.19-1,.25-.34.12-.67.25-1,.39a2,2,0,0,1-.15-.3c-.13-.39.6,0,.79-.35.36-.57-.52-1.39-.68-2.15,0-.19-.59-3.75-.57-3.75.25,0,1,1.59,1.36,1.79,1.19.63,4,1.19,5-.36.49-.77-1.14-2.48-1.13-2.5s2.1.74,1.7-.53c-.2-.63-1.33-.72-1.7-.72-.09,0-.93-.06-.79-.17a6.56,6.56,0,0,1,2.3-1.06c-.24.6-.45,1.23-.06,1,1.65-.8,3.49-1.43,5.15-2.23a29.19,29.19,0,0,1,3-1.83c.81.78-2,4-1.22,4.71.46.45,2.1-2.16,2.57-1.7s-.29.78.27,1.05c1,.47,1.62-2.1,2.71-1.57.13.06.47,1.76.94,1.31.16-.15,2.36-1.92,2.58-1.71s-.27,1.31,0,1.58c.05,0,.91-.79,1.08-.79.33,0,1.89.92,2.44.39.18-.18,1.67-3.88,2.16-3.4,2.26,2.18-1.85,4.67-2.84,5.63C207.09,531.52,209.38,531.59,209.49,531.69Zm.94-28c-1.07,1-3.31.46-4.33,1.44-.24.24,1.37.26,1.49.26.68,0,3-.54,3.11-.39.51.49-1.63,2.64-1.76,2.88,0,.08,1,3.5.68,3.67-1.11.54-3.1-.1-4.33.13-2.29.45-4.55,1.16-6.9,1.45-1,.12-2.61-.58-3.52-.14s2,1.3,1.62,1.71c-1.42,1.37-3.43-2.6-4.2-2.23s-.6,1.47-1.35,1.83-1.9-1-2.3-1c-.57,0-.14,1.18-.54,1.57-.78.75-3.41-1.55-4.06-.92-.48.47-.22,1.09-.95,1.44a1.66,1.66,0,0,1-.49.15c-.32-.52-.59-1-.42-1.29.29-.45,1.25.35,1.59-.18.21-.33-1.16-1.48-1.36-1.79-.7-1.09.43-1.63-.23-2.67a18.16,18.16,0,0,1-1-2.86c.27-.42,1.19,1.35,1.59.72.52-.83-1.36-7.68-1.59-8.39-.28-.9.61-.79.23-2-.17-.54-1.49-2.82-1.47-2.85.23-.37,1.32,1.2,1.59.35a5,5,0,0,0-.32-2.31c.84-.1,1.61-.26,2.17-.36.82-.16,2.44-.53,2.44-.53s-2.24,1.37-1.63,2,2.69-.42,3.25.13c.32.31-1.24,1.42-1.08,1.57.9.87,4.67-2.55,5.55-1.7.21.2-.59.93-.68,1.05a10.82,10.82,0,0,1-3.79,2.49c-.08,0-2.41.41-2,.78,1.46,1.41,5.85-1.26,7-1.83.26-.13,1.8-1.66,2-1.44.42.4-.45,2-.13,2.62s2.5-.2,3,.26,2.44-2.62,3-2.1c.73.71-1.78,2.47-1.35,2.89.25.24,1-.46,1.21-.53,1.48-.47,2.82-1.73,4.34-2.1.84-.2.31.44.67.79s1-1.46,1.63-1.18c.25.13.37.89.54,1.05s1.83-1.51,2.44-.92-.41,1.84,0,2.23c0,0,1.46-3.07,1.62-2.62C211.93,496.33,211.43,502.69,210.43,503.65Zm-205.36.86c-.15-.25-2.36-.11-3.12.12-.16.1-.32.19-.21.1a.51.51,0,0,1,.21-.1l.3-.19c-.13,0-1.54.17-2.25.16v2.22c1.36-.4,2.93-.27,4.13-1.29C4.35,505.34,5.21,504.76,5.07,504.51Z" class="cls-13"/></g></g></svg>