<?xml version="1.0" encoding="utf-8"?>
<!-- Generator: Adobe Illustrator 24.1.2, SVG Export Plug-In . SVG Version: 6.00 Build 0)  -->
<svg version="1.1" id="Layer_1" xmlns="http://www.w3.org/2000/svg" xmlns:xlink="http://www.w3.org/1999/xlink" x="0px" y="0px"
	 viewBox="0 0 600 600" style="enable-background:new 0 0 600 600;" xml:space="preserve">
<style type="text/css">
	.st0{fill:#EED7A4;}
	.st1{fill-rule:evenodd;clip-rule:evenodd;fill:#E2BD68;}
	.st2{fill-rule:evenodd;clip-rule:evenodd;fill:#E6EFEC;}
	.st3{fill-rule:evenodd;clip-rule:evenodd;fill:#CE954C;}
	.st4{fill-rule:evenodd;clip-rule:evenodd;fill:#C6DDE5;}
	.st5{fill-rule:evenodd;clip-rule:evenodd;fill:#BC6935;}
	.st6{fill-rule:evenodd;clip-rule:evenodd;fill:#90B9CB;}
	.st7{fill-rule:evenodd;clip-rule:evenodd;fill:#FFFFFF;}
	.st8{fill-rule:evenodd;clip-rule:evenodd;fill:#3E1919;}
	.st9{fill:#572213;}
	.st10{fill-rule:evenodd;clip-rule:evenodd;fill:#572213;}
</style>
<rect class="st0" width="601.2" height="601.4"/>
<g>
	<path class="st1" d="M579,254.4c-10.7-0.6-16.4-12.1-29.1-9.3c-4.8,1-8.3,5.2-11.5,7.6c-3.9,2.9-10.3,4.7-13.6,7.7
		c-12.2,11.2-6.3,19.7-31.7,22.8c-7.6,0.9-14.7-2.8-22.1-3.6c-5.8-0.6-11.5,1.3-17.4,1.3c-11.1-0.1-20.9-5-32.2-1.9
		c-16.3,4.4-20.5,20.5-31,29.3c-10.6,8.8-24.8,4.6-36.5,10.5c-11,5.6-11.9,18.7-24,24c-10.6,4.6-22.3-1.2-33.4-0.9
		c-10.1,0.2-13.7,6.6-22.7,8c-12.9,2.1-26.5-1.6-39.7,0.7c-14.7,2.6-16.3,13.2-27.4,18.6c-6.4,3.2-15,0.2-22.3,1.6
		c-9.4,1.8-17.1,8.7-29.8,11.1c-5.8,1.1-43.9,0-50.2-1.9c-8.8-2.5-19.7-8.3-29.4-8.1c-10.2,0.2-18.5,5.4-28.4,6.7
		c-14.5,1.9-29.5-1.1-44.2,0.8c-0.8,0.1-1.7,0.2-2.5,0.4v114.5h600.1v-35.7v-205C593.4,252.4,586.1,254.8,579,254.4z"/>
	<path class="st2" d="M233.9,449.3c3.2,1.2,11.7,0,15.3,0.1c2.6,0.1,5.1,2.2,7.7,2.2c5,0.2,12.3,0.1,17.4,0c6.2-0.2,11.5,0.9,17.7,1
		c8.3,0.1,15.3-2.2,23.6-2.1c0.9,0,7.9,0.4,7.5-1c-0.2-0.6-6.7-1.2-7.7-1.3c-4.5-0.6-9.2-0.6-13.8-0.9c-1.8-0.1-3.5-0.7-5.3-0.9
		c-2.1-0.2-4.5,0.2-6.5-0.6c-4.7-1.8-6.1-3.9-9.9-6.2c-2.1-1.3-4.6-2.3-6.6-3.6c-2.1-1.5-3.5-3.2-5.8-4.6c-2-1.2-4.8-1.6-6.7-3
		c-2.6-1.9-4.4-4.5-7-6.4c-1.6-1.2-3.7-2.1-5.3-3.3c-2.6-1.8-4.7-4-7.7-5.7c-2.1-1.2-5.1-1.4-7.1-2.9c-4.4-3.3-4.2-8-6.4-12
		c-1.1-1.9-2.8-3.7-3.7-5.6c-1.5-3.1-2.6-5.9-5.2-8.6c-2.1-2.2-5.2-3.8-7.5-6c-3.2-3-2.1-7.1-8.9-7.7c-0.8,2.9-0.7,7.1,1.4,9.8
		c0.9,1.1,2.4,1.9,3.3,3c1.9,2.7,2.7,5.8,4.2,8.6c0.7,1.4,2.5,2.2,3.1,3.7c1.3,3,1.6,6,2.5,9.1c0.4,1.4,1.7,2.5,1.9,4
		c0.4,3.9-0.9,8.4,1.6,12.1c2.1,3.1,9.6,3.8,11.8,7.8c1.9,3.4,0.4,7.7,0.5,11.2c0,1.6,1.3,2.9,1.5,4.5
		C234.2,445.7,230.5,448,233.9,449.3z"/>
</g>
<path class="st3" d="M601.2,433.7c-12.5-3.6-22.1-11.8-35.5-12.8c-13.6-1.1-20.6,7.2-32.6,9.2c-11.9,1.9-26-3.3-38.6-2.6
	c-10.8,0.6-18.5,7.4-29.2,8.2c-14.2,1.1-24.2-9.7-38.7-10c-11.3-0.3-19.8,4.4-30.4,5.8c-7.3,0.9-15.2-2.1-22.7-2.1
	c-9.9,0-19.2,3-28.9,2.9c-10.6-0.1-17.3-7.7-27.2-9.6c-10.6-2-20.6,1.7-30.7,0.4c-11.1-1.5-20.8-6.4-31.3-9.2
	c-9.9-2.6-21.8-3.1-32.2-3.7c-30.7-1.6-36.1,17-56.5,17c-11.1,0-21.8-2.8-32.9-2.2c-9.2,0.5-17.7,4.7-26.9,4.4
	c-10.4-0.4-17.6-5.9-28.6-4.7c-10,1.1-14.2,8.3-23,11.1c-7.8,2.5-17.8-2.3-26.2-1.5c-7.1,0.7-10.9,5.9-17.7,6.5
	c-4.7,0.4-8-1.4-11.2-3.3v150h601.2V433.7z"/>
<path class="st4" d="M291.3,435c0.6-1.8,10-10.7,2.3-10.2c-11.3,2.2-14.3,10.2-18.6,19.6c-3.6,7.9-5.2,16-7.8,24.2
	c-1.8,5.6-4.5,10.9-6,16.5c-1.6,5.9-1.3,11.7-4.4,17.1c-3.3,5.8-9.4,11-15.9,13c-2.7,0.8-6.7,0.6-8.7,2.8c-0.1,0.1,5.8,1,6.3,1
	c4,0.1,8.3,0,12.3-0.4c8-0.7,27.3,2.6,33.4-1.9c4.3-3.1,1-11.5,0-15.3c-1-3.8-2.2-8.5-1.7-12.4c0.2-2.1,1.6-3.9,1.5-6.1
	c-0.1-5.9-0.4-12-0.3-18C283.7,456.2,288.5,443.7,291.3,435z"/>
<path class="st5" d="M601.2,478.8c-1.4-0.4-2.8-0.7-4.4-0.8c-33.4-2.8-46.8,32.1-77.1,38.6c-20.4,4.4-36.7-10.4-57.7-9.4
	c-6.8,0.3-11,4.5-17.5,5.1c-9.8,1-20.3-1.5-29.6,1.7c-5.1,1.7-5.5,6.9-11.3,8.2c-10.5,2.3-25.9-2.1-36.9-1.4
	c-8.8,0.6-16.7,4.7-25.6,4.7c-11.6,0-27.6-9.6-43-10.1c-11.2-0.4-18.4,7.5-29.4,7.6c-10.5,0.1-20.8-2.5-31.2-2.8
	c-12.2-0.3-23.5,3.3-36,0.9c-19.6-3.8-37.3-12.4-57.4-15.9c-10.3-1.8-20.4,1-30.7-1.4c-13.5-3-9.6-11.1-17.6-16
	c-8.8-5.3-18.4-5.1-27.6-9.1c-12.4-5.4-14.9-17.1-32.5-16.7c-8.1,0.2-23.6,9.6-35.8,16.6v123h523.5c10.8-0.7,21.6-1.5,32.4-2.6
	c15.1-1.4,30.2-3.7,45.4-5.4V478.8z"/>
<rect x="478.1" y="579" class="st5" width="123.2" height="22.4"/>
<path class="st6" d="M315.1,537.3c0.5,3.1,6.2,1.6,6.6,4.9c0.3,1.9-2.3,3.5-2.7,5.2c-0.2,0.7,0.7,1.5,0.9,2.2c0.1,0.4,0.4,4.6,0.3,5
	c-0.2,1.4-2.4,2.4-2.2,3.7c0.1,0.7,4,4,4.5,6.8c0.4,2.3-4.6,5.5-5.9,7.6c-0.5,0.8-1.6,2.6-0.7,3.4c1.6,1.5,9.9,1,12.1,0.9
	c5.1-0.2,10.3,0,15.3-0.5c5.6-0.5,11-1.4,16.6-1.5c7.9-0.1,16.3-2.1,24.2-0.5c1.4,0.3,6.7,2,7.1-0.2c0.2-1.2-2.4-2.3-3.2-2.7
	c-2.6-1.3-10.3-3-11.2-5.8c-0.4-1.2,1-2.5,0.4-3.6c-1.9-3.5-12.3-5.2-15.9-6.8c-3-1.3-1.4-2.9-3.3-3.8c-3.7-1.7-7.7-2.8-11.5-4.2
	c-1.3-0.5-2.4-1.3-3.7-1.8c-1.6-0.6-3.4-0.8-4.9-1.7c-4.2-2.5,6.3-4.5,4.2-7.6c-1-1.5-3.4-2.1-5-2.7c-4.6-1.6-9.7-1.9-14.1-4.1
	c-2.9-1.4-0.5-3.3-1.6-5.3c-0.8-1.5-3-1.8-4.3-2.7l0.1,0.9c0.1,1.8-1.4,3.3-1.3,4.9c0.1,1.4,1.8,2.5,1.4,4.2
	C317.1,532.5,314.9,536,315.1,537.3z"/>
<path class="st7" d="M434.9,154.3c1,3.4,3.5,6.5,5.8,9.1c1.6,1.8,2.6,3.7,4.6,5.2c2.5,1.7,5.9,2.3,8.8,2.9c2.2,0.5,4.5,1.6,6.8,1.7
	c2,0,3.9-0.7,5.8-1.2c3.6-0.8,7-1.3,10.4-2.6c1.9-0.7,6.6-3.6,7.9-5c0.9-1,1.5-2.4,2.2-3.5c0.7-1.1,1.6-2.1,2.2-3.3
	c1.9-3.6,4.3-12.3,4.3-16.3c0-2.1-2.1-9-3-11c-1-2.2-3-4-4.6-5.8c-1.8-2.1-3.7-4.3-6-6c-7.2-5.1-17.4-6.3-25.7-3.7l-3.2,0.6
	c-1.5,0.6-2.6,1.8-3.9,2.7c-1.8,1.2-3.8,2.1-5.4,3.6c-1.3,1.1-2.2,2.6-3.4,3.8c-0.7,0.7-1.5,1.3-2,2.1c-1.5,2.6-2.3,5.8-3,8.7
	c-0.7,2.8-1.4,6.1-1.2,9.1c0.1,1.6,1.1,2.9,1.5,4.5C434.3,151.4,434.4,152.9,434.9,154.3z"/>
<path class="st6" d="M601.2,555.3c-9.5,1.1-19,2.8-27.8,3.4c-9.2,0.6-17.4-2.1-26.3-2c-8.3,0.1-16.3,2.5-24.6,2.9
	c-8.8,0.4-18.1-1.2-26.8-0.2c-6,0.7-11.2,2.5-17.4,2.7c-43.2,1.3-87-0.4-129.9,2.4c-34.3,2.2-68.7,7.7-103.1,9.1
	c-24.6,1-49.5,0.6-74,1.3c-7.4,0.2-14.6,2.1-22,2.2c-12.5,0.1-25.4-1.5-38-1.7c-11.3-0.1-23.2,1-34.5,0.4c-7-0.4-13.8-2.4-20.8-2.5
	c-6-0.1-12,1-18.1,0.7c-10.7-0.6-25.4-2.5-39.1-3.8v31.2h602.2V555.3z"/>
<path class="st8" d="M601.2,570c-0.5,2.9-1,6-1.1,6.3c-0.9-0.9-0.2-11.3-1-12.3c0.1-17,0.1-35-0.3-53.4c0.8,0.6,1.6,1.3,2.4,2.1
	v-5.2c-0.8-0.8-1.6-1.6-2.5-2.4l0-0.2c-0.1-2.5-0.1-5-0.2-7.6l0-0.1c1,0.5,1.9,1.2,2.7,1.9v-2.9c0,0-0.1-0.1-0.1-0.1
	c-0.8-0.9-1.8-1.7-2.8-2.4l0-0.1c-0.1-3.5-0.3-7-0.4-10.6c-0.2-5.2-0.5-10.4-0.8-15.7c-0.5-7.8-1-15.6-1.7-23.5
	c-0.3-3.5-0.6-7-1-10.5l0-0.1c2.2-1.6,4.4-3.3,6.7-5v-6c-2.5,2-4.9,4.1-7.2,6.2c-0.3-3-0.6-5.9-1-8.9c0.7,0,1.4-0.3,1.9-0.8
	c2.3-1.8,4.3-3.5,6.3-5.1v-8.9c-2.7,2.4-5.7,5-9.1,7.9c-0.3-2.4-0.6-4.8-1-7.1c3.7-2.9,6.9-6.2,10-9.7v-10.4
	c-3.6,4.2-7,8.6-11.1,12.4l0-0.1c-0.2-1.1-0.3-2.2-0.5-3.4l0-0.1c2.1-4.4,4.4-8.4,7.2-12.1c1.4-1.8,2.9-3.6,4.5-5.2v-9.6
	c-3.9,3.4-7.3,7-10.1,10.9c-1.2,1.7-2.3,3.4-3.4,5.2c-0.1-0.8-0.3-1.6-0.4-2.3l0,0c3.5-6.2,8.2-12.7,13.9-18V354
	c-0.1,0.1-0.2,0.1-0.3,0.2c-6.2,4.7-11.4,10.9-15.6,17.3c-0.2-1-0.4-2.1-0.7-3.1c0.4-0.4,0.6-0.9,0.7-1.5
	c1.5-7.7,5.5-12.9,10.5-16.9c1.6-1.3,3.4-2.4,5.3-3.5v-8c-3.5,1.8-6.8,3.8-9.8,6.2c-3.9,3.1-7.2,6.9-9.5,11.7
	c-0.1-0.3-0.1-0.5-0.2-0.8c-0.2-0.7-0.3-1.3-0.5-2c0.5-0.2,1-0.6,1.3-1.1c3.6-6.2,8.7-11,14.4-15.2c1.4-1,2.8-1.9,4.3-2.9v-7.8
	c-1.2,0.7-2.4,1.4-3.6,2.1c-3.3,2.1-6.4,4.6-9.2,7.3c-3.5,3.4-6.4,7.3-8.8,11.6c-0.3-1.2-0.7-2.5-1-3.7c0.1-0.1,0.1-0.2,0.2-0.3
	c2.5-4.2,5.2-7.4,8.1-10.2c3.3-3.3,6.9-5.8,10.4-8.4c1.3-0.9,2.5-1.9,3.8-2.8v-8.6c-3,2.5-5.9,4.7-8.9,7.1c-3.5,2.8-6.9,5.7-10,9.3
	c-1.9,2.2-3.7,4.7-5.4,7.6c-0.2-0.8-0.5-1.6-0.7-2.4c0.4-0.2,0.7-0.6,0.9-1c2.9-6.2,6.4-10.5,10.4-13.9c2-1.7,4.1-3.1,6.3-4.4
	c0.9-0.5,1.8-1,2.7-1.6c0.6-0.3,1.2-0.7,1.9-1.1c0.9-0.5,1.8-1,2.8-1.6v-4.7c-0.9,0.1-1.7,0.2-2.6,0.4c-2.1,0.4-4.1,1-6,1.8
	c-2,0.8-3.9,1.9-5.6,3.1c-2.8,1.9-5.3,4.3-7.4,7.1c-2.1,2.7-3.8,5.8-5.4,9.5c-0.3-1.1-0.7-2.1-1-3.1c-0.4-1.1-0.7-2.2-1.1-3.3
	c0.9-1.4,1.9-2.6,2.9-3.9c2.9-3.4,6.1-6.5,9-10.1c1.3-1.8,2.6-3.5,3.7-5.4c1.1-1.9,2.1-3.8,2.9-5.8c1-2.4,1.7-4.8,2.4-7.3
	c1-3.7,1.6-7.3,2.2-11.2c-1.1,2.4-2.2,4.8-3.4,7.1c-1.2,2.3-2.4,4.6-3.6,6.9c-1,1.8-2,3.5-3.1,5.3c-1.5,2.6-3,5.2-4.9,7.6
	c-2.6,3.7-5.6,7-8.1,10.6c-0.5,0.7-0.9,1.3-1.3,2c-0.6-1.5-1.1-3.1-1.7-4.6c3.7-3.3,7.3-7.3,10.3-11.8c1.9-2.9,3.6-6.1,5-9.3
	c0.6-1.3,1.1-2.6,1.5-4c0.6-2,1.1-4.1,1.4-6.2c0.3-2.1,0.5-4.2,0.6-6.3c0.1-3.2-0.2-6.3-0.9-9.3c-0.1,2.5-0.6,5-1.2,7.5
	c-0.6,2.4-1.3,4.8-2.2,7.2c-0.7,1.9-1.4,3.7-2.2,5.5c-0.5,1.2-1,2.4-1.6,3.6c-1.3,3-2.8,6-4.4,8.9c-2.3,4-4.8,7.7-7.6,10.9
	c-0.4-1-0.8-1.9-1.1-2.9c0.6-2.4,1.3-5.3,2-8.4c0.6-2.2,1.2-4.5,1.9-6.7c0.6-1.8,1.2-3.6,1.8-5.4c0.7-1.8,1.4-3.5,2.2-5
	c2.1-3.7,4.9-6.3,9.5-6.7c-4.1-0.9-7.5,0.2-10.5,2.6c-1.9,1.5-3.4,3.4-4.8,5.7c-0.6,1.1-1.2,2.3-1.7,3.6c0.2-0.8,0.4-1.6,0.6-2.4
	c0.4-1.5,0.8-2.9,1.2-4.3c0.4-1.5,0.8-2.9,1.2-4.2c1.2-3.3,2.8-5.9,5.9-7.1c-3.1,0-5.6,1.4-7.8,3.7c-1.3,1.3-2.4,3-3.3,4.9
	c-0.6,1.3-1.1,2.6-1.5,4c-0.4,1.3-0.7,2.7-0.9,4.1c-0.6,3.7-0.7,7.3-1,10.1c-1.2-2.6-2.4-5.1-3.7-7.6c0.4-1.9,0.9-4.2,1.3-6.6
	c0.4-1.9,0.8-3.9,1.3-5.8c0.4-1.6,0.8-3.2,1.3-4.7c0.5-1.6,1-3.1,1.8-4.4c1.7-3,4.1-5.3,8.2-5.8c-4.2-0.4-7.3,1.2-9.8,3.8
	c-1,1.1-1.9,2.4-2.7,3.9c-0.6,1.1-1,2.2-1.4,3.4c-0.5,1.7-0.9,3.5-1.2,5.2c-0.4,2.5-0.5,5-0.7,7.3c-0.3-0.6-0.6-1.2-1-1.8
	c-0.4-0.7-0.8-1.4-1.2-2.1c0.4,0,0.7-0.3,0.8-0.8c0.5-2.2,1-5,1.6-7.9c0.3-1.7,0.7-3.4,1.1-5.1c0.3-1.4,0.7-2.8,1.1-4.1
	c0.4-1.4,0.8-2.7,1.4-4c1.3-2.9,3.2-5.2,6.4-6.3c-3,0.2-5.3,1.5-7.3,3.5c-1.3,1.3-2.3,2.8-3.2,4.5c-0.5,1-0.9,2-1.2,3
	c-0.5,1.5-0.8,3.1-1,4.7c-0.6,3.9-0.5,7.8-0.7,10.9c-0.8-1.4-1.5-2.7-2.3-4c0.2-0.2,0.3-0.4,0.3-0.7c0.2-2.7,0.9-7.1,1.2-12
	c0.1-1.6,0.2-3.2,0.2-4.9c0-1.1-0.1-2.2-0.2-3.3c-0.2-1.9-0.4-3.7-0.7-5.4c-0.7-3.5-1.6-6.2-2.7-7.8c0.3,0.8,0.5,1.9,0.6,3.3
	c0.2,2.5-0.1,5.6-0.3,9c-0.1,1.9-0.2,4-0.3,6c-0.1,2.1,0,4.1,0,6c0,2.7,0.1,5.2,0.2,7.1c-0.5-0.8-0.9-1.5-1.4-2.3
	c0.3-2.8,0.6-5.9,0.4-9.1c-0.1-2.2-0.3-4.4-0.8-6.5c-0.5-2.2-1.3-4.2-2.3-6.2c-1.5-3-3.5-5.6-6-7.8c1.8,2.6,2.8,5.5,3.6,8.6
	c0.4,1.4,0.6,2.8,0.9,4.2c0.3,1.4,0.5,2.8,0.8,4.2c0.3,1.7,0.6,3.4,0.8,5.1c0.2,1.4,0.3,2.7,0.5,4c-1.2-1.8-2.5-3.7-3.7-5.4
	c0,0,0,0,0-0.1c-0.2-3.5-0.9-6.7-2.1-9.6c-0.8-2.1-1.9-4-3.1-5.8c-1.3-1.8-2.7-3.4-4.3-4.9c-2.3-2.2-4.8-4.2-7.5-6.3
	c1.6,2.2,3.1,4.4,4.6,6.6c1,1.5,1.9,3,2.9,4.4c0.8,1.2,1.6,2.4,2.3,3.6c0.7,1.2,1.5,2.4,2.1,3.7c0.5,1,1,2,1.5,3.1
	c-0.4-0.7-0.8-1.4-1.2-2.1c-0.9-1.3-1.8-2.6-2.8-3.8c-0.8-0.9-1.6-1.7-2.4-2.5c-0.9-0.8-1.8-1.5-2.7-2.2c-0.1-0.1-0.2-0.1-0.3-0.2
	c-0.1-0.1-0.2-0.2-0.3-0.3c0.1,0.1,0.1,0.2,0.2,0.2c-2.7-2-5.4-3.7-8.1-5.9c1.6,2.3,3.3,4.5,5.1,6.6c1.2,1.4,2.4,2.8,3.6,4.1
	c0.8,0.9,1.7,1.7,2.5,2.6c1.2,1.3,2.4,2.5,3.6,3.9c0.6,0.8,1.3,1.6,1.9,2.4c-2.8-2.4-6.1-4.3-9.7-5.5c-3.1-1.1-6.4-1.7-9.6-1.6
	c-3.4,0.1-6.6,0.8-9.5,2.2c-4.1,2-7.5,5.3-9.5,10.2c1.8-2.7,4-4.7,6.5-6.1c2.5-1.5,5.3-2.3,8.2-2.7c1.4-0.2,2.8-0.2,4.1-0.2
	c2.1,0,4.2,0.2,6.2,0.6c4.7,0.9,9.2,2.7,12.9,5.3c-2.4-0.6-5.2-0.9-8.1-0.7c-2.4,0.2-4.9,0.6-7.3,1.5c-2.4,0.8-4.6,2-6.5,3.5
	c-3.2,2.3-5.5,5.2-6.5,8.5c1.2-1.9,2.9-3.4,4.9-4.7c1.8-1.2,3.9-2.1,6.1-2.9c1-0.4,2-0.7,3.1-1c1.5-0.5,3.1-0.9,4.7-1.2
	c4.4-0.9,8.6-1.2,12-0.3c0.5,0.2,1-0.1,1.1-0.5c0.2-0.4,0-0.9-0.5-1.1c0.1-0.2,0.2-0.5,0.1-0.7c0.1,0,0.2-0.1,0.3-0.2
	c0,0.1,0,0.2,0.1,0.2c0.1,0.4,0.4,0.7,0.9,0.7c1.4,2.2,2.7,4.4,4,6.7c-2.3-0.6-4.8-0.5-7.4,0.2c-1.8,0.5-3.6,1.2-5.3,2.2
	c-1.6,1-3.1,2.2-4.4,3.6c-2.2,2.2-3.8,4.6-4.8,6.8c1.8-2,4.6-3.8,7.8-5.6c0.9-0.5,1.8-1,2.7-1.5c0.9-0.5,1.8-1,2.7-1.4
	c1.2-0.6,2.5-1.2,3.7-1.5c2-0.6,4-1,5.8-0.6c0.1,0,0.1,0,0.2,0c0.1,0.1,0.2,0.2,0.3,0.3c2.1,3.8,4.1,7.7,6,11.8
	c-3.9-0.8-7.7-0.1-11.3,1.4c-1.6,0.6-3.2,1.4-4.7,2.3c-1.5,0.8-2.9,1.7-4.3,2.7c-1.7,1.1-3.3,2.2-5.1,3.1c-2.7,1.4-5.4,2.5-8.5,2.7
	c3.9,0.7,7.6,0,11.1-1.3c2-0.7,3.9-1.6,5.7-2.6c1.2-0.6,2.4-1.3,3.5-2c1.7-1,3.4-2,5.2-2.8c2.6-1.2,5.3-2,8.3-1.8
	c0.3,0,0.6-0.1,0.8-0.3c0.5,1,1,2.1,1.4,3.1c-4.1-0.6-8-0.3-11.7,0.9c-2.7,0.9-5.2,2.1-7.5,3.8c-2.2,1.6-4.2,3.6-6,5.7
	c-2.7,3.2-4.7,6.7-6.5,10.2c2.9-3.5,6.4-6.9,10.2-9.9c1.2-1,2.5-1.9,3.7-2.7c1.3-0.9,2.5-1.7,3.9-2.4c1.8-1,3.6-1.8,5.5-2.4
	c2.8-0.9,5.8-1.4,9.1-1.2c0.1,0,0.1,0,0.2,0c0.1,0.3,0.3,0.6,0.4,0.9c0,0.3,0.1,0.5,0.3,0.7c0.4,0.9,0.8,1.8,1.2,2.7l0,0
	c-4.2,0.2-7.6,0.7-10.6,1.9c-2.4,0.9-4.5,2.2-6.3,3.7c-1.8,1.6-3.2,3.5-4.5,5.6c-1.6,2.8-2.9,5.9-4.2,9.5c2.1-3.1,4.2-5.6,6.3-8
	c1.5-1.7,3-3.1,4.7-4.4c1.6-1.3,3.3-2.4,5.3-3.4c2.6-1.3,5.7-2.4,9.5-3c0.2,0,0.3-0.1,0.5-0.2c1.2,3,2.4,6,3.6,9.1
	c-2.8-0.7-5.5-0.6-8-0.1c-2.7,0.6-5.3,1.6-7.8,3c-2.3,1.3-4.5,2.8-6.7,4.4c-2.5,1.9-4.9,3.8-7.5,5.3c-3.9,2.3-8,3.8-13.1,2.7
	c3.5,1.6,6.8,1.8,10,1.2c3.7-0.6,7.2-2.3,10.7-4.3c1.4-0.8,2.7-1.7,4-2.6c2.5-1.8,5-3.6,7.6-5c3.5-1.9,7.2-3.2,11.6-2.5
	c0.3,0.9,0.7,1.8,1,2.7c0,0.1,0.1,0.3,0.1,0.4c0.2,0.7,0.5,1.3,0.7,2c-3.9-0.5-7.6,0.4-11.2,2c-2,0.9-3.9,2-5.7,3.2
	c-1.7,1.2-3.4,2.5-5,3.9c-1.9,1.7-3.7,3.4-5.5,5.1c-2.9,2.7-5.8,5.1-8.9,6.6c4-0.9,8-2.9,12-5.4c2.4-1.5,4.8-3.1,7.1-4.8
	c1.9-1.4,3.7-2.8,5.6-4c1.9-1.3,3.9-2.4,5.9-3.2c2.1-0.8,4.2-1.3,6.4-1.3c0.7,2,1.3,4.1,2,6.1c-2.6-0.6-5.9-0.5-9.3,0.2
	c-1.7,0.3-3.4,0.8-5.1,1.4c-2.8,1-5.6,2.3-7.9,3.8c-3.1,2-5.4,4.3-6.6,6.2c-0.2,0.4-0.4,0.7-0.6,1.1c-0.2,0-0.3,0.1-0.5,0.1
	c-6.9,1.6-12.4,3.7-14.2,6.1c2-1.8,7.1-2.6,13.4-3c-0.3,0.8-0.5,1.7-0.7,2.6c-0.6,2.5-0.9,5-1,7.4c-1.5,0.9-2.9,1.8-4.2,2.9
	c-2.9,2.3-5.1,4.9-6.4,7.8c2.5-3,6.4-5.1,10.9-6.8c2.6-1,5.3-1.7,8.2-2.3c1.6-0.4,3.3-0.7,5-1c2.5-0.5,5.1-1,7.6-1.3
	c2.6-0.3,5.2-0.6,7.7-0.6c4.1-0.1,7.9,0.1,11,0.9c0.4,1.7,0.8,3.3,1.2,5c-4.5-0.8-8.8-1.1-13.1-0.9c-3.8,0.2-7.6,0.9-11.2,2
	c-1.8,0.6-3.6,1.3-5.3,2.1c-1.7,0.8-3.3,1.8-4.9,2.8c-1.8,1.2-3.6,2.6-5.3,4c-2.5,2.1-4.7,4.5-6.9,7c2.8-1.9,5.6-3.4,8.4-4.8
	c1.9-1,3.8-1.8,5.8-2.6c1.6-0.7,3.3-1.2,4.9-1.8c1.6-0.6,3.3-1.1,4.9-1.6c1.6-0.5,3.3-1,5-1.3c2.5-0.6,5-1.1,7.7-1.3
	c3.5-0.4,7-0.6,10.7-0.4c0.2,0.8,0.3,1.5,0.5,2.3c0.6,2.6,1.1,5.3,1.6,7.9c-3.2-0.9-7.2-1.7-11.5-2.1c-3.5-0.4-7.1-0.5-10.6-0.3
	c-2.5,0.1-4.9,0.4-7.1,0.9c-4.3,1-7.9,2.5-10.2,4.4c-0.8,0.7-1.4,1.4-2,2.2c-2.1,2.8-3.3,6.4-5.8,8.9c3-1.8,5.2-4.8,7.9-7
	c0.6-0.5,1.2-0.9,1.9-1.3c1.2-0.7,2.8-1,4.5-1.4c1.5-0.3,3.2-0.5,5-0.7c1.3-0.1,2.7-0.2,4.1-0.4c2-0.2,4.1-0.3,6.2-0.4
	c2.8-0.1,5.7-0.2,8.4-0.1c3.8,0.1,7.3,0.3,10,0.8c0.4,2,0.7,3.9,1.1,5.9c-4.1-1.8-8-2.8-11.6-3.2c-4.1-0.5-7.9-0.2-11.6,0.6
	c-2.8,0.6-5.5,1.5-8.2,2.7c-2.5,1.1-4.9,2.5-7.4,3.9c-3.4,2.1-6.7,4.4-10.3,6.6c-3.3,2.1-6.7,4.3-10.5,6.2c4.2-1.1,8-2.3,11.8-3.8
	c3.9-1.6,7.6-3.2,11.3-4.8c2.5-1.1,4.9-2.1,7.3-3.1c2.4-1,4.8-1.8,7.3-2.5c3.2-0.8,6.4-1.3,10-1.3c3.9,0.1,8,0.8,12.6,2.3
	c0.2,1.4,0.5,2.8,0.7,4.2c-3.3-0.3-6.6-0.1-10,0.6c-2.7,0.5-5.3,1.3-8,2.2c-1.2,0.4-2.4,0.9-3.5,1.4c-1.8-0.5-3.7-0.9-5.4-1.1
	c-2.7-0.4-5.3-0.6-7.6-0.4c-3.2,0.2-6,1.1-7.9,2.6c-1.6,1.3-3.1,2.8-4.5,4.5c-1.7,2.1-3.2,4.3-4.8,6.6c-2.7,0.2-5.3-0.1-7.9-1.2
	c2.2,1.5,4.4,2.4,6.8,2.8c-0.8,1.1-1.5,2.1-2.3,3.2c1.1-0.9,2.3-1.9,3.4-3c1.3,0.2,2.6,0.3,3.9,0.3c2.7,0,5.5-0.5,8.3-1.2
	c3-0.8,6-1.8,9.1-3c2.8-1.2,5.7-2.5,8.5-3.9c0.3-0.1,0.6-0.3,0.9-0.4c3,0.7,6,1.4,9,2.1c5.3,1.3,10.3,2.5,14.2,3.1
	c0.1,0.2,0.2,0.3,0.4,0.4l0,0c0.2,1.1,0.3,2.1,0.5,3.2l0,0.2c-5.4-0.9-10.4-1.2-15-0.8c-4.8,0.4-9.2,1.6-13.1,3.6
	c-2,1-4,2.3-5.7,3.8c-0.8,0.7-1.6,1.5-2.4,2.3c-1.5-3.2-3.4-6.1-5.8-8.7c1.6,3.1,2.6,6.4,3.2,9.9c0.1,0.6,0.2,1.1,0.2,1.7
	c-0.8,1.1-1.6,2.3-2.3,3.6c-0.9-2.3-2-4.5-3.1-6c-1.2-1.5-2.5-2.4-3.7-2.4c-1.1,0-2.7,0.6-3.7,2.8c-1.5-1.2-3-1.7-4.5-1.6
	c-1.8,0.2-3.7,1.1-5,3c-0.3,0.4-0.5,0.8-0.7,1.3c-0.1-1.2-0.3-3.4-0.2-5.5c0.1-1.3,0.2-2.6,0.6-3.6c0.6-1.2,1.5-1.9,3.2-1.6
	c-1.8-1.2-3.3-0.6-4.5,0.6c-2.4,2.4-3.5,8-4,10c-0.1,0.5-0.2,1-0.2,1.4c-0.3-1.3-0.6-2.5-0.8-3.8c-0.4-1.7-0.7-3.3-1-5
	c-0.7-3.8-1.1-7.2-0.8-10.6c-1.7,3.9-2.7,8.1-3.2,12.9c-0.3,2.9-0.3,5.8-0.1,8.9c0.1,1.7,0.4,3.5,0.6,5.2c0.4,2.6,1,5.1,1.6,7.7
	c0.5,2,1,3.9,1.5,5.9c-1-0.9-2.2-1.7-3.5-2.3c-0.4-1.5-0.8-3.2-1.2-4.8c-0.7-3.2-1.3-6.5-1.9-9.8c-0.4-2.3-0.7-4.5-1-6.6
	c-0.3-1.9-0.5-3.8-0.7-5.5c-0.3-2.1-0.5-3.9-0.6-5.4c-0.1-1.1-0.4-4.2-0.4-7.5c0-2.7,0.1-5.4,0.8-7.2c0.7-1.9,2.1-2.6,4.6-0.9
	c-2.6-3.1-4.7-2.2-6.3,0c-1.6,2.1-2.6,5.8-3.3,9.2c-0.6,2.8-0.8,5.3-0.9,6.2c-0.2,1.7-0.3,3.7-0.3,6c0,1.2,0.1,2.5,0.2,3.9
	c0.2,2.7,0.7,5.7,1.3,8.7c0.4,1.9,0.8,3.8,1.3,5.7c0.5,2,1.1,3.9,1.7,5.8c-1.6-0.3-3.2-0.5-4.9-0.6c-1.4-4.9-2.5-9.9-3.4-15
	c-0.5-3.1-0.9-6.2-1.2-9.4c-0.2-1.6-0.3-3.1-0.4-4.7c-0.1-1.6-0.3-3.1-0.3-4.7c-0.1-1.8-1-8.6-0.5-12.5c0.3-2.2,1-3.4,2.8-1.7
	c-0.7-1-1.3-1.3-1.9-1.3c-0.9,0-1.6,1.1-2.2,2.8c-1.4,3.8-1.9,10.8-2.1,12.6c-0.3,2.7-0.5,5.3-0.4,8c0.1,2.7,0.4,5.3,0.9,8
	c0.6,3.1,1.4,6.2,2.4,9.3c0.9,2.9,2,5.8,3.3,8.6c-1.2,0-2.4,0.1-3.6,0.2c-0.6-4.6-2.6-10.6-5.7-16.5c-2-3.8-4.4-7.6-7.1-10.9
	c-2-2.4-4.2-4.5-6.4-6.2c-4.3-3.2-8.7-5.1-12.8-4.9c-1.7,0.1-3.3,0.6-4.8,1.4c-2.1,1.1-3.9,2.7-5.7,4c2-0.9,4.1-2,6.3-2.7
	c1.4-0.4,2.7-0.6,4.1-0.4c2.9,0.4,5.7,2.1,8.5,4.5c1.2,1,2.4,2.2,3.6,3.5c1.1,1.2,2.2,2.5,3.3,3.8c1.3,1.6,2.5,3.2,3.7,4.9
	c1.8,2.5,3.5,5.2,5,7.8c2.4,4.1,4.2,8.1,5.2,11.4c-1.2-0.4-2.5-0.9-3.7-1.3c-1.5-5.5-4.4-10.5-8.3-14.6c-2.8-2.9-6-5.4-9.6-7.3
	c-2.1-1.2-4.3-2.2-6.7-2.9c-1.5-0.5-3.1-0.9-4.7-1.2c-2.3-0.4-4.6-0.7-7-0.7c-0.3-0.2-0.6-0.3-0.9-0.5c-3.2-1.6-6.4-2.8-9.4-3.5
	c-5.8-1.4-11-1.1-14.5,1.9c4.6-2.4,10.4-0.8,16.6,2.6c0.1,0.1,0.2,0.1,0.3,0.2c-1,0.2-2,0.4-3,0.6c-0.4,0.1-0.8,0.2-1.3,0.3
	c-1.5-0.6-3.1-1.1-4.7-1.5c-1.8-0.4-3.7-0.7-5.5-0.7c-0.7-0.4-1.4-0.8-2.1-1.2c-3.2-1.5-6.2-2.1-8.7-1.4c-1.3,0.4-2.6,1.2-3.7,2.5
	c-1.9,2.1-3.4,5-4.7,7c-1.2,0.2-2.3,0.5-3.4,0.9c-2.8,1.2-5.2,3.1-6.9,6.1c-0.2,0.1-0.4,0.2-0.6,0.3c-1.8,0.8-3.6,2-5.4,3.6
	c-1,1-2.3,2.1-3.4,3.4c-0.8,0.9-1.4,1.8-1.8,2.7c0.6-0.7,1.5-1.3,2.5-1.9c1.4-0.9,3-1.6,4.2-2.2c2.2-1.2,4.2-1.8,6.1-2
	c1-0.1,2-0.1,3,0c1,0.1,2,0.3,3,0.5c1.2,0.3,2.4,0.7,3.6,1.2c1.8,0.8,3.6,1.7,5.5,2.7c1.5,0.8,3,1.6,4.6,2.4
	c-0.5,0.2-1.1,0.4-1.5,0.8c-0.8,0.6-1.6,1.4-2.3,2.4c-0.7,0.3-1.4,0.7-2.1,1c-4.6-1.8-8.4-2.9-11.9-3.4c-3.4-0.4-6.5-0.2-9.4,0.6
	c-1.5,0.4-2.9,1.1-4.3,1.9c-1.3,0.8-2.5,1.6-3.7,2.7c-1.3,1.1-2.5,2.3-3.7,3.8c-1.6,1.8-3.1,3.8-4.7,6.2c4-3,7.5-5.2,10.7-6.9
	c1.2-0.7,2.4-1.2,3.6-1.7c1.2-0.5,2.4-0.9,3.6-1.2c1.2-0.3,2.4-0.6,3.7-0.7c1.8-0.2,3.8-0.3,5.9-0.1c0.3,0,0.6,0,1,0.1
	c-1.5,1-2.9,2.5-4.1,4.4c-0.5,0.7-0.9,1.5-1.2,2.3c-4,0.3-7.8,0.8-11.3,1.9c-3.2,1-6.2,2.3-8.9,4.1c-1.4,0.9-2.6,2-3.7,3.2
	c-1.1,1.2-2.1,2.5-3,3.9c-1,1.6-1.9,3.2-2.6,5.1c-1,2.4-1.6,5.1-2.2,8c2.3-4.5,4.9-8,7.8-10.9c1-1,2.1-1.9,3.2-2.8
	c1.1-0.9,2.2-1.7,3.4-2.5c1.2-0.8,2.4-1.5,3.6-2.2c1.9-1,3.8-1.9,5.9-2.6c0.1,0,0.2-0.1,0.3-0.1c-1.1,1.4-1.9,2.9-2.5,4.4
	c-0.4,1.3-0.7,2.6-0.8,4c-4.5,1.8-8.3,4.1-11.5,6.9c-2.7,2.3-4.9,5-6.9,7.9c-0.9,1.4-1.8,2.9-2.5,4.5c-0.7,1.5-1.3,3.1-1.9,4.7
	c-0.7,1.9-1.3,3.8-1.9,5.7c-0.8,2.9-1.5,5.7-2.3,8.7c1.6-2.6,3.1-5.2,4.6-7.7c1.5-2.6,3-5.1,4.6-7.6c1-1.6,2.1-3.2,3.2-4.8
	c1.1-1.6,2.1-3.1,3.3-4.6c1.5-2,3.2-3.9,5-5.6c1.8-1.7,3.8-3.2,6-4.6c-0.2,0.3-0.4,0.5-0.5,0.8c-0.3,0.1-0.6,0.3-0.8,0.6
	c-2.1,3.4-3.9,6.8-5.4,10.4c-1,2.4-1.9,4.8-2.7,7.2c-0.6,1.8-1.2,3.6-1.7,5.5c-0.5,1.8-0.9,3.7-1.3,5.5c-0.6,2.8-1.2,5.5-2,8.2
	c-0.7,2.8-1.5,5.4-2.6,8.1c2.5-3.1,4.5-6.3,6.3-9.8c1.2-2.3,2.2-4.6,3.2-7.1c0.6-1.4,1-2.9,1.5-4.3c0.6-2.1,1.2-4.3,1.8-6.4
	c0.1,0.6,0.1,1.2,0.2,1.9c0.3,2.2,0.7,4.4,1,6.7c0.3,2.3,0.6,4.5,0.5,6.7c1.2-2.9,1.9-5.8,2.4-9c0.3-2,0.5-4,0.6-6.1
	c0.1-1.2,0.1-2.5,0.1-3.7c0-1.2,0-2.4,0.1-3.6c0.1-2.2,0.3-4.4,0.8-6.6c0.2,0.8,0.5,1.5,0.8,2.3c0.6,1.6,1.3,3.1,2,4.6
	c1.1,2.4,2.1,4.6,2.8,6.9l0.8,2.7l0.1-2.8c0-2.4-0.3-4.8-0.7-7.4c-0.4-2.4-0.8-4.7-1.2-7.1c-0.3-1.5-0.5-3-0.6-4.5
	c-0.1-1.4-0.2-2.8-0.1-4.2c0,0,0-0.1,0-0.1c1.1-1.5,2.2-2.8,3.4-4.2c-0.1,0.8-0.1,1.7-0.1,2.5c0,2.1,0.1,4.1,0.4,6
	c0.6,3.9,1.7,6.9,3,8.4c-0.8-1.9-0.6-5.6,0.1-9.8c0.3-2.1,0.8-4.2,1.3-6.3c0.3-1.4,0.7-2.8,1-4.1c0.1-0.4,0.2-0.7,0.3-1.1
	c0.3-0.1,0.5-0.3,0.7-0.5c0.3-0.4,0.2-0.9-0.1-1.3c2.8-2.2,5.8-4.1,8.9-5.7c0.2,0.1,0.5,0.2,0.7,0.1c0,0.1,0,0.1-0.1,0.2
	c-1.1,3.2-2.1,6.5-2.8,9.9c-0.3,1.5-0.6,3.1-0.8,4.7c-0.2,1.6-0.4,3.1-0.6,4.7c-0.2,1.9-0.4,3.7-0.7,5.6c-0.4,2.8-0.8,5.6-1.4,8.4
	c2.2-4.1,4-8.2,5.6-12.5c0.7-1.9,1.3-3.9,1.9-5.8c0.4-1.3,0.7-2.6,1-3.9c0.7-3.2,1.3-6.5,2.1-9.7c0.3-1.2,0.7-2.9,1.3-4.3
	c1.6-0.6,3.3-1.2,5-1.6c0.2,0.1,0.4,0.1,0.6,0.1c-0.9,1.3-1.8,2.8-2.6,4.5c-0.7,1.3-1.3,2.8-1.7,4.3c-0.5,1.4-0.8,2.9-1.1,4.4
	c-0.4,2.4-0.7,4.6-0.8,6.7c-0.2,2.8-0.2,5.1-0.3,6.7c0.8-2,2.2-5,3.7-8.6c0.8-1.8,1.6-3.7,2.4-5.6c0.5-1.2,1-2.5,1.4-3.7
	c0.7-1.9,1.4-3.8,2.2-5.4c1-2,1.9-3.8,3.2-4.8c0,0,0.1-0.1,0.1-0.1c0.9-0.2,1.8-0.3,2.7-0.4c0.4-0.1,0.9-0.1,1.3-0.2
	c-0.7,0.9-1.3,1.7-1.6,2.3c-1.4,2.5-2.7,5.1-3.8,7.7c-0.7,1.8-1.4,3.5-2,5.4c-0.8,2.7-1.4,5.5-1.9,8.3c-0.8,4.2-1.2,8.4-1.5,12.7
	c1.5-4,3.1-7.8,4.8-11.7c1.1-2.6,2.2-5.1,3.3-7.7c0.7-1.7,1.4-3.4,2-5.1c0.4-1.1,0.8-2.1,1.2-3.1c-0.1,0.4-0.3,0.8-0.4,1.3
	c-0.8,3-1.4,6.1-1.8,9.2c-0.6,4.6-0.8,9.2-1,13.8c1.3-4.4,2.6-8.7,4.1-13.1c1-2.9,2-5.6,3.1-8.4c0.7-1.8,1.5-3.6,2.4-5.4
	c1.1-2.2,2.2-4.5,3.6-6.6c5.2,0,10.4,0.5,15.6,1.4c-1.4,1.2-2.5,2.2-3,2.8c-2,2.7-4,5.4-5.7,8.4c-1.1,1.9-2.2,3.9-3.1,5.9
	c-1.4,3-2.6,6.1-3.7,9.3c-1.7,4.8-3.1,9.6-4.6,14.2c2.3-3.8,4.6-7.6,6.9-11.6c1.5-2.6,3-5.1,4.5-7.7c1-1.7,2-3.4,2.9-5.1
	c1.4-2.6,2.9-5.1,4.4-7.6c0.7-1.2,1.4-2.3,2.1-3.4c0.5-0.8,2.2-2.8,4.2-4.5c1.9,0.4,3.8,0.8,5.7,1.3c-1.3,0.9-2.5,1.8-3.4,2.8
	c-2.4,2.5-4.8,5.2-6.9,8.2c-1.4,1.9-2.6,3.9-3.8,6c-1.7,3.1-3.2,6.3-4.5,9.5c-2.1,5-3.8,10-5.4,14.7c1.9-3,3.8-6.1,5.9-9.2
	c1.3-2,2.6-4,4-6.1c1.1-1.7,2.2-3.3,3.3-5c1.1-1.7,2.2-3.3,3.3-4.9c2.4-3.6,4.8-7.1,7.5-10.2c1.3-1.5,3.1-3.3,5.1-4.3
	c1.4,0.4,2.8,0.8,4.2,1.3c0.1,0,0.1,0,0.2,0.1c-0.3,0.1-0.7,0.3-1,0.4c-3.4,1.6-6.6,3.7-9.3,6.5c-2.5,2.6-4.7,5.5-6.4,8.8
	c-2.5,4.6-4.3,9.7-5.4,14.8c-1.1,5.3-1.5,10.6-1.3,15.3c0.7-4.6,2.2-9.5,4.3-14.4c1.3-3,2.8-6,4.5-8.8c2.1-3.5,4.6-6.7,7.3-9.5
	c2.7-2.8,5.7-5.3,9.2-6.8c2.2-1,5.1-1.9,8.3-2.6c1.8,0.7,3.5,1.5,5.3,2.3c-1.7,0.9-3.4,1.9-4.9,3c-3.1,2.3-6.4,5.8-9.1,10.1
	c-2.2,3.5-4.1,7.5-5.7,11.7c-1.2,3.3-2.2,6.6-2.9,9.8c-1.2,5.7-1.7,11-1.1,15.1c0.3-3.4,1.5-7.5,3.3-11.9c1.5-3.6,3.3-7.3,5.4-11
	c2-3.6,4.3-7,6.5-10.2c2.5-3.5,5-6.6,7.7-8.5c2.4-1.8,5.1-3.5,7.9-4.8c0.5,0.2,0.9,0.5,1.4,0.7c-1.2,1.3-2.4,2.8-3.4,4.6
	c-1.7,3-3.1,6.6-4.2,10.4c-1.2,4.3-2.1,8.9-2.8,13.3c-0.8,5.2-1.2,9.9-1.6,13.3c1.1-3.3,2.6-7.7,4.4-12.6c1.5-4,3.1-8.3,4.9-12.2
	c1.2-2.7,2.6-5.3,3.9-7.5c1.5-2.5,3-4.6,4.7-5.8c2.9,1.8,5.7,3.7,8.5,5.8c-1.1,0.9-2.2,1.8-3.1,2.9c-2.1,2.2-3.9,4.6-5.4,7.2
	c-2.2,3.8-4,7.8-5.5,11.9c-1.5,4.2-2.6,8.3-3.7,12.3c2-3.6,4.2-7.2,6.6-11c2.2-3.5,4.6-6.9,7.3-10.1c1.7-2.1,3.5-4,5.5-5.9
	c1.2-1.1,2.4-2.2,3.7-3.2c2.2,1.9,4.3,3.9,6.5,5.9c-2,1.4-3.8,3.2-4.9,4.8c-2.3,3.7-4.5,7.5-6.5,11.6c-0.6,1.3-1.2,2.7-1.7,4.1
	c-0.5,1.4-1,2.8-1.4,4.2c-1.1,3.6-1.9,7.1-2.6,10.7c-0.7,3.7-1.1,7.3-1.4,10.9c1.6-3.9,3.5-7.8,5.5-11.8c1.3-2.7,2.7-5.3,4.1-8.1
	c0.9-1.8,1.8-3.5,2.7-5.3c1.1-2.2,2.1-4.5,3.2-6.7c1.1-2.3,2.2-4.5,3.4-6.6c0.7-1.3,1.9-2.8,3.4-3.9c3.5,3.7,6.8,7.7,10,11.8
	c-0.4,0.8-0.7,1.5-1,2.3c-0.9,2.4-1.3,4.8-1.2,6.8c0.2,2.6,0.7,4.9,1.6,6.9c-0.7,1.5-1.5,2.9-2.4,4.3c-0.5,0.9-1.1,1.7-1.7,2.5
	c-2.8,0.5-5.4,1.4-7.4,2.2c-4,1.7-7.3,4.1-10,6.9c-1.9,2-3.4,4.2-4.7,6.6c-1.8,3.4-3,7.2-3.7,11.1c-1,5.7-1,11.5-0.4,17
	c0.4-3.8,1.1-7.6,2.1-11.4c1-3.7,2.3-7.2,4-10.6c1.3-2.6,2.9-5.1,4.7-7.4c2.6-3.3,5.8-6.2,9.9-8.2c0.4-0.2,0.9-0.4,1.3-0.7
	c-1.6,2-3.1,4.1-4.6,6.2c-2.1,3-4.1,6-5.6,9.3c1.8-2.4,3.9-4.7,6.1-6.8c-0.8,1.5-1.4,3.1-1.9,4.9c-0.6,1.9-1,4-1.3,6.1
	c-0.2,2-0.3,4.1-0.2,6.1c0.1,3.2,0.5,6.3,1,9c0.7,3.6,1.6,6.6,2.5,8.7c-0.4-2.8-0.2-7.3,0.3-12.3c0.2-2.6,0.6-5.3,1-8
	c0.3-1.8,0.5-3.5,0.9-5.2c0.5-2.7,1.1-5.2,2-7.5c0.5-1.2,1-2.3,1.6-3.4c0,0.1-0.1,0.2-0.1,0.3c-0.7,1.8-1.3,3.7-1.7,5.8
	c-0.3,1.9-0.5,3.9-0.5,5.9c0,1.9,0.1,3.7,0.3,5.5c-0.1,1.8-0.2,3.5-0.2,5.1c0,3.8,0.3,7.1,0.6,9.3c0.2-1.6,0.6-3.8,1.2-6.2
	c0.3,1.2,0.7,2.3,1,3.3c-0.1-2.3,0.1-5.2,0.3-8.4c0-0.1,0-0.2,0-0.3c0.1-0.3,0.2-0.6,0.2-0.9c0.7-2.6,1.6-5.3,2.5-8.1
	c0.6-1.8,1.2-3.5,1.8-5.2c1-2.7,2-5.2,3.4-7.3c-0.7,1.5-1.1,3.1-1.4,4.7c-0.1,0.6-0.2,1.2-0.2,1.8c-1.2,5.5-1.8,11-2.3,13.8
	c0.6-2.1,1.3-5.7,2.4-9.6c0.1,1.2,0.4,2.5,0.7,3.7c0.4,1.4,0.8,2.8,1.3,4.1c0.1,1.6,0.4,3.2,0.7,4.8c0.7,3.1,1.6,6.1,2.6,8.9
	c0.4,1,0.8,2,1.2,3c-0.1,0.2-0.2,0.3-0.3,0.5c-2.7,3.9-7.1,6.6-9,10.9c1.7-2.3,4.2-3.7,6.7-5.3c1.4-0.9,2.8-1.9,4.1-2.9
	c0.4,0.8,0.8,1.5,1.1,2.3c-0.2-0.9-0.4-1.8-0.5-2.8c0,0,0.1-0.1,0.1-0.1c0.2-0.1,0.3-0.3,0.4-0.4c0,0.2,0,0.4,0,0.6
	c0.2,2.3,0.4,4.5,0.8,6.6c0.7,3.7,1.7,6.9,2.9,9.4c-0.5-2.6-0.6-5.9-0.4-9.6c0.1-3,0.5-6.2,0.9-9.4c0.3-2,0.6-4.1,1-6.2
	c0.4-2.1,0.7-4.1,1.2-6.1c0.6-2.8,1.4-5.4,2.4-7.8c1.4-3.4,3.2-6.3,5.6-8.2c0.9,2.1,1.6,4.1,2,6.1c1.2,4.7,2.3,9.5,3.4,14.3
	c1.1,4.8,2.2,9.5,3.3,14.3c3.3,14.3,6.5,28.7,9.8,43c0.3,1.4,0.7,2.8,1,4.2h13.4V570z M563.8,301.5c-0.2-0.5-0.4-1-0.6-1.5
	c0.4-0.1,0.7-0.3,0.9-0.6C564,300.1,563.9,300.8,563.8,301.5z M546.2,329.7c1.6-1,3.3-1.9,5.1-2.8c1.7-0.9,3.5-1.7,5.3-2.3
	c3.9-1.5,7.7-2.3,10.6-1.7c0.4,1.5,0.9,2.9,1.3,4.4c0.6,2.2,1.2,4.4,1.8,6.6c-3-0.9-7.8-1.7-13.3-2c-3.3-0.2-6.9-0.2-10.4,0
	c-1.4,0.1-2.8,0.2-4.1,0.4c-0.1,0-0.2,0-0.3,0C543.3,331.5,544.7,330.6,546.2,329.7z M557.8,340.5c-3.8,0-7.7,0.3-11.5,1.2
	c-1.9,0.4-3.8,1-5.6,1.6c-1.9,0.7-3.6,1.5-5.3,2.4c-0.3,0.1-0.5,0.3-0.8,0.4c0.7-2.1,1.4-4.2,2.3-6.2c0.5-1.2,1.1-2.4,1.8-3.4
	c2.1-0.1,4.3-0.1,6.5-0.2c1.9-0.1,3.8-0.2,5.7-0.3c3-0.1,5.8-0.3,8.5-0.3c5-0.1,9.2-0.1,11.5,0.5c0.6,2.2,1.2,4.5,1.7,6.8
	C568.5,341.3,563.3,340.5,557.8,340.5z M550.3,390.2c-1.6,0.8-3.2,1.6-4.7,2.3c-3.2,1.6-6.3,3.1-9.4,4.2c-1.7,0.6-3.3,1-5,1.3
	c1.5-1.4,3.1-2.8,4.7-4.2c1.5-1.2,3-2.3,4.7-3.2c1.5-0.8,3.4-0.9,5.6-0.9C547.6,389.8,548.9,390,550.3,390.2L550.3,390.2z
	 M582.6,393.9c-3.5-1-7.9-2.7-12.6-4.3c-1-0.3-1.9-0.7-2.9-1c0.5-0.2,1.1-0.4,1.6-0.6c4.2-1.6,8.4-2.7,12.6-2.6
	c0.1,0.5,0.2,0.9,0.2,1.4C581.9,389.1,582.2,391.4,582.6,393.9L582.6,393.9z M394.9,445.3c0.2-0.4,0.5-0.7,0.8-1
	c0.3-0.3,0.6-0.7,1-1C396,444,395.5,444.6,394.9,445.3z M413.4,404.3c1.2-0.9,2.5-1.7,3.7-1.8c0.9-0.1,1.8,0.1,2.7,0.5
	c-3.3,1-6.4,2.8-9.5,5.6c-0.2,0-0.4,0-0.6,0c-0.5,0-0.9,0.1-1.4,0.1C409.8,407.5,411.5,405.7,413.4,404.3z M424.4,426.1
	c-3.2-2.2-6.2-4.8-9.4-6.9c-2.7-1.8-5.5-3.2-8.3-3.9c-1.6-0.4-3.3-0.6-4.9-0.4c-0.8,0.1-1.6,0.2-2.4,0.4c1.4-1.1,2.9-1.8,4.5-2.3
	c2.5-0.7,5-0.5,7.7,0.1c1.2,0.3,2.4,0.6,3.6,1c1.8,0.6,3.6,1.3,5.3,2.2c2.7,1.4,5.1,3,7.1,5c1.1,1.1,2,2.1,2.8,3.3
	C428.4,425,426.4,425.5,424.4,426.1z M440.6,423c-0.2,0.1-0.5,0.2-0.7,0.3c-2.3,0.2-4.6,0.5-6.8,0.9c-1.4-3.7-4.2-7.3-7.9-10.1
	c-2.5-1.9-5.3-3.5-8.3-4.4c-0.9-0.3-1.9-0.5-2.8-0.7c-1.1-0.2-2.3-0.3-3.4-0.3c3.4-1.9,6.8-2.8,10-3.1c1.1-0.1,2.1-0.1,3.2-0.1
	c0.6,0.4,1.2,0.9,1.8,1.4c0.9,0.7,1.8,1.5,2.7,2.3c2.1,1.9,4.3,4,6.2,6.1c2.5,2.8,4.8,5.5,6.3,7.8
	C440.8,422.9,440.7,422.9,440.6,423z M443.7,421.9c-1.2-2.7-3.2-6.1-5.6-9.4c-1.1-1.5-2.3-3-3.5-4.3c0.7,0.3,1.3,0.6,2,0.9
	c2.4,1.1,4.8,2.4,7.1,3.9c1.7,1.1,3.4,2.3,5.1,3.5c1.1,0.8,2.3,1.7,3.3,2.6C449.2,418.8,446.2,419.9,443.7,421.9z M450.4,422.9
	c0.6-0.2,1.3-0.3,1.9-0.3c0.8,0,1.6,0.1,2.3,0.5C453.3,423,451.9,423,450.4,422.9z M468.4,424.5c-0.3,0-0.6,0.1-0.9,0.2
	c-2-0.4-4-0.7-6.1-0.9c-2.9-3.4-6.3-7.2-10-10.5c-1.6-1.5-3.3-2.9-5.1-4.1c-1.8-1.3-3.6-2.5-5.5-3.5c1.7,0,3.4,0,5.1,0.2
	c0.1,0,0.2,0,0.3,0c0.7,0.5,1.4,0.9,2.2,1.4c2.2,1.5,4.5,3,6.7,4.7c2.7,2,5.3,4.1,7.7,6.1c2.6,2.3,5,4.5,6.8,6.5
	C469.2,424.5,468.8,424.5,468.4,424.5z M482.1,428.1c-2.6-0.8-5.2-1.4-7.8-2c-1.7-3.1-4.6-7-8.4-11c-1.5-1.5-3.1-3.1-4.8-4.6
	c-0.6-0.6-1.3-1.1-1.9-1.6c0.2,0.1,0.5,0.2,0.7,0.3c2,0.8,4,1.6,6,2.6c3.2,1.7,6.3,3.7,8.9,6c3.4,3,6.2,6.5,8.1,10.6
	C482.6,428.2,482.3,428.2,482.1,428.1z M526.2,448.7c-0.2-1.4-0.3-2.9-0.5-4.3c0.6,0.3,1.2,0.6,1.7,0.9c1,0.7,1.9,1.5,2.6,2.5
	C528.8,447.9,527.5,448.2,526.2,448.7z M531.7,455.3c-0.5-0.4-0.9-0.8-1.4-1.2c0.5-0.1,1-0.2,1.5-0.2
	C531.7,454.4,531.7,454.8,531.7,455.3z M530.9,440.8c-1.7-1.4-3.8-2.4-6-3c-0.1-0.4-0.1-0.8-0.2-1.2c-0.4-2.9-0.8-5.8-1.2-8.7
	c-0.3-2.4-0.5-4.7-0.8-7.1c-0.1-1.1-0.3-2.2-0.4-3.4c1.1-2.1,2.5-3.5,3.9-4.2c0.8-0.4,1.7-0.1,2.4,0.5c0.4,0.4,0.7,1,1,1.7
	c0.4,0.9,0.7,2.1,0.9,3.5c0.1,0.8,0.2,1.5,0.3,2.3c0,0.9-0.1,1.7-0.2,2.5c0.1-0.3,0.2-0.6,0.3-0.9l0,0.1c0.2,1.3,0.3,2.6,0.5,4
	c0.4,4,0.6,8.1,0.7,12.2c0,1,0,1.9,0,2.9C531.8,441.5,531.3,441.1,530.9,440.8z M538.9,427.7c0.1,0.8,0.2,1.5,0.2,2.3
	c-0.2,0-0.4,0-0.6,0c0-0.5-0.1-1-0.1-1.6C538.5,428.2,538.7,428,538.9,427.7z M535.6,411.6c0.1-0.1,0.3-0.1,0.3-0.1
	S535.7,411.5,535.6,411.6L535.6,411.6z M535.3,411.6C535.3,411.6,535.4,411.6,535.3,411.6C535.4,411.6,535.4,411.6,535.3,411.6
	C535.3,411.7,535.3,411.7,535.3,411.6z M534.5,412.9c0.3-0.5,0.7-0.9,1-1.2c0,0.1,0.1,0.2,0.1,0.2c0.3,0.4,0.5,1,0.7,1.7
	c0.8,2.1,1.2,5,1.7,7.5c0.3,2,0.6,3.7,0.7,4.6c-0.1,0.4-0.2,0.8-0.4,1.3c-0.1-0.9-0.2-1.7-0.3-2.6c-0.3-2.4-0.9-4.7-1.6-6.9
	c-0.6-1.7-1.3-3.1-2-4.3C534.4,413.1,534.4,413,534.5,412.9z M537.8,460.7c-0.2,0-0.4,0-0.6,0c-0.4-0.4-0.7-0.7-1.1-1.1
	c0.4-1.3,0.7-2.5,0.8-3.7c0.3,0.2,0.5,0.5,0.7,0.7c0.2,0.3,0.4,0.5,0.6,0.8C538.1,458.5,538,459.6,537.8,460.7z M539.3,446
	c-0.1,1.4-0.1,2.8-0.3,4.2c-0.6-0.4-1.2-0.8-1.8-1.1c0.1-0.5,0.1-0.9,0.2-1.4c0.6-4.2,1-8.6,1.1-12.9c0-1.2,0-2.4,0-3.6
	c0.2,0.1,0.5,0.2,0.7,0.2c0.1,1.5,0.1,3,0.2,4.6C539.5,439.3,539.5,442.6,539.3,446z M585.8,417.8c0.4,3.1,0.7,6.3,1,9.4
	c-3.2-1.2-5.9-1.4-8.6-1c-3.5,0.5-6.8,2.1-10.5,3.5c-1.7,0.6-3.4,1.2-5.4,1.6c-1.1,0.2-2.3,0.4-3.6,0.5c-1,0.1-2,0.2-2.9,0.1
	c0.1-0.1,0.1-0.1,0.2-0.2c1-1.1,2.1-2.1,3.3-3.2c1.1-1,2.3-2.1,3.6-3.1c1.7-1.5,3.2-3.2,4.9-4.6c0.9-0.7,1.7-1.4,2.8-1.9
	c2.6-1,5.7-1.5,8.8-1.6C581.6,417.4,583.7,417.5,585.8,417.8z M553.7,412.4c1.6-1.1,3.2-2,4.9-2.8c2.5-1.2,5.2-2.2,8-2.9
	c1.8-0.4,3.8-0.8,5.8-1c3.7-0.4,7.6-0.5,11.8-0.3c0.4,2.7,0.7,5.3,1,8c-1.8-0.4-3.7-0.7-5.7-0.9c-3.8-0.3-7.7,0-11,1
	c-1.4,0.4-2.7,1.1-3.8,1.9c-2.2,1.5-4,3.5-6.2,5.2c-1.9,1.6-3.7,3.1-5.1,4.8c-0.8,0.9-1.5,1.8-2.1,2.7c0-0.1,0-0.1,0-0.2
	c-0.1-4-0.7-7.9-1.6-11.6c-0.1-0.3-0.2-0.6-0.2-0.8C550.8,414.3,552.2,413.3,553.7,412.4z M544.2,420.7c0.4-0.4,0.8-0.9,1.2-1.3
	c0,0.5,0,1.1,0,1.6c0,1.3-0.1,2.5-0.2,3.8C545,424,544.7,422.5,544.2,420.7z M542.1,507.2c-0.6,0.1-1.2,0.2-1.7,0.4
	c0.8-0.8,1.6-1.6,2.4-2.5c0.9-0.2,1.8-0.3,2.8-0.3c0,0,0.1,0,0.1,0C544.4,505.4,543.2,506.2,542.1,507.2z M545.7,501.5
	c0.3-0.4,0.6-0.8,0.9-1.3c0-0.1,0.1-0.1,0.1-0.2c0.4,0.6,0.9,1.2,1.3,1.8C547.3,501.7,546.5,501.6,545.7,501.5z M548.7,496.5
	c0.3-0.6,0.5-1.2,0.8-1.8c0,0.4,0,0.7,0,1.1c0.1,1.1,0.2,2.1,0.4,3.1c0,0.1,0,0.1,0,0.2C549.4,498.2,549,497.3,548.7,496.5z
	 M548.2,473.3c-1.1-1.4-2.2-2.8-3.4-4.2c0.6-3.6,1.5-7.6,2.4-11.7c0.8-3.9,1.7-8,2.5-12.2c1.1,1.8,2.7,3.6,5,5.4
	c-3.1-4.4-3.8-8.1-3.1-11.6c0.2-0.7,0.4-1.4,0.7-2.1c2.2,0.7,4.4,1.1,6.6,1.2c2,0,3.8-0.2,5.5-0.5c2.8-0.6,5.3-1.6,7.5-2.7
	c1.8-0.9,3.5-1.8,5.3-2.5c1.5-0.6,3.1-1.1,4.9-1.1c1.6,0,3.3,0.3,5.2,1l0,0c0.3,3.3,0.6,6.7,0.9,10c0.6,7.5,1.2,15,1.7,22.5
	c0.5,8.4,0.9,16.8,1.3,25.2l0,0.1c-0.2,0-0.3-0.1-0.5-0.1c-0.2,0-0.3-0.1-0.5-0.1c-0.7-1.4-1.6-2.5-2.7-3.4c-1.4-1.1-3.1-1.6-5-1.8
	c-1.4-0.2-2.8-0.1-4.3,0.2l0,0c-1.4-2.3-3-3.6-4.7-4.2c-1.2-0.5-2.4-0.5-3.6-0.3c-1,0.1-1.9,0.5-2.9,0.9c-1,0.5-2,1.1-3,2
	c-1,0.8-1.9,1.8-2.7,2.9c-0.7,0.9-1.4,2-2,3.1c-0.9-1.4-1.8-2.9-2.8-4.3c0.8-1,1.9-1.6,3.7-1.6c-1.9-0.8-3.5-0.8-4.9-0.2
	c-1.4-2-2.8-4-4.2-5.9c0.3-0.5,0.6-1,0.9-1.5c0.9-1.3,1.9-2.6,3-3.6c3.3-3.2,7.2-4.8,11.6-2.5c-4.2-3.7-9.2-2.9-13.7-0.1
	C551.1,470.4,549.6,471.8,548.2,473.3z M573.9,491.7C573.9,491.7,573.9,491.7,573.9,491.7c0.6-0.3,1.1-0.6,1.7-0.9
	c1.2-0.6,2.4-1.1,3.6-1.5c2.7-0.9,5.2-1,7.3,0c-0.5,0-1-0.1-1.5-0.1C581,489.2,577.1,490,573.9,491.7
	C573.9,491.7,573.9,491.7,573.9,491.7C573.9,491.7,573.9,491.7,573.9,491.7z M573.4,486.4c-2.1,1-4.2,2.4-6,4.1
	c-1.3,1.2-2.6,2.5-3.6,4c-0.2,0.3-0.5,0.7-0.7,1c-0.3-0.5-0.6-1-0.9-1.5c0.5-0.8,1-1.6,1.5-2.5c0.9-1.4,1.9-2.8,2.8-4
	c1-1.3,2-2.5,3.1-3.3c2.3-1.6,4.9-1.7,8.1,0.8C576.2,485.2,574.8,485.7,573.4,486.4z M559.8,502.4c-0.1,0.4-0.2,0.8-0.3,1.3
	c-0.7-0.3-1.5-0.6-2.1-0.7c0.3-0.8,0.8-1.7,1.2-2.6C559,501,559.4,501.7,559.8,502.4z M556.1,496.3c-0.8,2.5-1.4,4.8-1.7,6.6
	c-0.1,0-0.2,0-0.3,0.1c-0.1-1.2,0-2.8,0-4.4c0-1.4,0.2-2.8,0.3-4.3c0-0.2,0-0.5,0.1-0.7C555,494.5,555.6,495.4,556.1,496.3z
	 M550.4,514.2c0.9-2.9,2.5-5.4,5.6-7c0.3-0.1,0.5-0.4,0.7-0.6c0.2,0,0.4,0,0.6,0.1c0.3,0.1,0.6,0,0.9-0.1c0.5,0.2,0.9,0.5,1.4,0.9
	C555.5,508.6,552.5,511,550.4,514.2z M554.9,522.8c-0.8,2.4-1.2,4.9-1.4,7.5c-0.2,2.4-0.2,4.8-0.2,7.1c0,1.5,0,3-0.2,4.5
	c-0.1,1.3-0.3,2.5-0.6,3.6c0-0.3-0.1-0.6-0.1-0.8c-0.4-2.9-0.6-5.8-0.7-8.9c-0.1-2-0.1-3.9-0.1-5.8c0-1.9,0-3.8,0.2-5.7
	c0.3-2.6,0.7-5,1.7-7.1c1.4-3.3,3.7-6,7.5-7.6c0.2-0.1,0.4-0.2,0.6-0.4c0.9,0.9,1.8,2,2.6,3.1C558.9,514.7,556.3,518.5,554.9,522.8z
	 M558.7,526.3c0.2-2,0.7-3.9,1.5-5.7c1.1-2.3,2.7-4.3,5.4-6.1c0.2,0.4,0.5,0.8,0.7,1.2c0.3,0.5,0.5,0.9,0.7,1.4
	C563.7,519,560.9,522.2,558.7,526.3z M566.2,501.2c-0.4-0.7-0.7-1.4-1.1-2.1c1.5-1.9,3.3-3.6,5.3-5.2c0.3-0.2,0.6-0.4,0.9-0.6
	C568.7,495.4,566.8,498,566.2,501.2z M570.2,508.8c-0.5-1-1-2-1.5-3c0,0,0-0.1,0-0.1c-0.1-5.1,3-8.3,7.2-10.1
	c2.7-1.1,5.8-1.5,9.1-1.5c1.6,0,3.1,0.1,4.7,0.3c0.3,0.1,0.7,0.1,1,0.2c0.2,0.6,0.4,1.2,0.6,1.9c0-0.6,0-1.2,0-1.8l0,0l0,0.3
	c0.1,2.3,0.2,4.6,0.2,7l0,0.3c-2.9-0.5-6.2-0.5-9.3,0C577,503.1,572.4,505.3,570.2,508.8z M590.3,564.9c-3.7-15.5-9-31.4-15.7-46.6
	c-1-2.2-2-4.4-3-6.6c1.3-2.8,4.6-4.1,8.4-4.8c3.3-0.6,6.9-0.5,10.1,0c0.6,0.1,1.1,0.2,1.6,0.3l0,0.2c0.3,9.7,0.4,19.3,0.5,29
	c0.1,8.9,0.1,17.8,0.1,26.8l0.3,10C592.1,573.9,591.1,564.7,590.3,564.9z"/>
<path class="st9" d="M3.1,155.3c-1.1,0-2-0.1-3.1,0c0,0,0,0,0,0v3.1c0.3-0.3,0.7-0.6,1-0.9C1.8,156.7,2.4,156,3.1,155.3z M177,160.2
	c1.3,0.3,2.5,0.7,3.7,1.3c1.3,0.5,2.5,1.1,3.8,1.8c1.9,1.1,3.8,2.2,5.7,3.3c2,1.3,4,2.4,5.9,3.5c-1.4-1.7-2.7-3.5-4.2-5.3
	c-1.5-1.8-3.1-3.4-4.8-4.9c-1.2-1.1-2.5-2-3.9-2.8c-1.5-0.9-3-1.5-4.6-2.1c-2.2-0.7-4.9-0.9-7.7-0.9c-5.5,0.1-11.8,1.3-16.3,1.7
	c-7.7,0.8-15.4,1.9-23,3.2c7.8-1.7,15.6-2.9,23.5-4.2c4.1-0.7,10.4-1.2,16.5-1.3c3.4-0.1,6.8,0,9.9,0.3c2.4,0.2,4.5,0.4,6.2,0.9
	c1.2,0.3,2.5,0.7,3.6,1.3c0.9,0.4,1.7,0.8,2.6,1.3c2.1,1.1,4.1,2.2,6.1,3.2c-1.9-2-3.7-4.2-5.8-6.2c-1.5-1.4-3.2-2.5-4.9-3.5
	c-1.6-0.8-3.5-1.4-5.6-1.9c-2.6-0.6-5.5-0.8-8.5-1c-7.6-0.4-15.9,0.2-21,1c-5.2,0.8-10.4,1.6-15.5,2.5c3.5-1.2,6.8-2.4,9.9-3.5
	c4.7-1.6,10.4-3.8,16-5.1c3.6-0.9,7.2-1.5,10.4-1.2c1.6,0,3.2,0.4,4.8,0.9c0.7,0.2,1.4,0.4,2.1,0.7c1.5,0.5,2.9,1.2,4.3,1.8
	c2.3,1,4.5,1.9,6.7,2.7c-1.8-1.5-3.4-3.2-5.3-4.9c-1.3-1.1-2.6-2.1-3.9-3c-1.7-1.2-3.5-2.1-5.4-2.7c-0.9-0.3-1.8-0.5-2.7-0.6
	c-3.8-0.5-8.1-0.1-12.3,0.8c-5.9,1.2-11.9,3.4-16.7,5c-8.2,2.8-18.1,6.1-27.6,10.1l0,0c4.7-3.2,13-8.9,21-13.3
	c5.4-3,10.5-5.6,14.4-6.2c1.1-0.2,2.2-0.3,3.4-0.3c1.4,0,2.9-0.1,4.4,0c1.6,0,3.1,0.1,4.7,0.1c2.3,0,4.4-0.1,6.4-0.2
	c-1.8-0.7-3.5-1.5-5.5-2.3c-1.9-0.7-3.8-1.4-5.7-1.9c-1.1-0.3-2.2-0.5-3.2-0.7c-1.8-0.3-3.6-0.3-5.2-0.1c-4.4,0.5-10.5,3-16.7,6.3
	c-8.2,4.4-16.7,10.2-21.6,13.5c-0.2,0.1-0.3,0.2-0.5,0.3c2.6-3.7,5.3-7.4,7.9-11.1c1.3-2,2.5-4,3.7-6c0.9-1.6,2-3.2,2.6-5
	c0.5-1.4,0.9-2.8,0.8-4.2c-0.1-1.1-0.2-2-0.8-3c-0.7-1.1-1.5-2-3.1-2.8c0.7,1.6,0.6,2.8,0.3,4.1c-0.1,0.6-0.5,1-0.7,1.5
	c-0.2,0.5-0.6,1-0.9,1.5c-0.3,0.5-0.6,0.9-0.9,1.4c-0.8,1.2-1.6,2.4-2.4,3.6c-1.7,2.7-3.5,5.2-5.4,7.8c-0.3,0.4-0.5,0.7-0.8,1.1
	c0.8-3.3,1.5-6.6,2.1-9.8c0.4-2.3,1.1-4.6,1.3-6.8c0.1-0.7,0.1-1.4,0.1-2.1c-0.1-1.4-0.3-2.6-0.9-3.6c-0.9-1.4-2.1-2.7-4.4-2.7
	c-1.2,0-2.4,0.1-4.2,0.7c1.2,0.4,2.1,0.8,2.9,1.2c0.9,0.5,1.4,1,1.7,1.7c0.1,0.2,0,0.5,0.1,0.7c0.1,0.5-0.1,0.9-0.2,1.4
	c-0.1,0.6-0.3,1.2-0.4,1.8c-0.5,2-1.2,4.3-1.8,6.5c-1.1,4.8-2.3,10-4,15c1.5-8.7,1.6-17.7-0.3-24.3c-0.4-1.4-1.1-3-2.3-4.6
	c-0.9-1.2-1.9-2.5-3.1-3.6c-1.2-1.1-2.5-2.1-3.8-2.9c-1.6-1-3-1.5-4.4-1.9c0.9,0.9,1.6,2.1,2.4,3.6c0.5,0.8,0.9,1.5,1.4,2.4
	c0.7,1.2,1.2,2.4,1.9,3.6c1,1.8,1.9,3.6,2.2,5c0.7,2.5,0.9,5.4,0.9,8.5c0,4.2-0.4,8.8-1.2,13.3c-0.2,1-0.4,2-0.6,3
	c-0.3-2.9-0.7-5.9-1.1-9c-0.5-3.7-0.7-6.8-1.3-9.5c-0.5-2.4-1.2-4.6-2.4-6.6c-0.5-0.8-1.1-1.6-1.8-2.3c-1-0.9-2-1.8-3.4-2.5
	c-1.3-0.7-2.5-1.2-4.2-1.8c0.9,1.3,1.5,2.3,2.2,3.4c0.7,1.2,1.2,2.2,1.7,3.3c0.3,0.6,0.5,1.1,0.7,1.7c0.3,0.8,0.6,1.7,0.8,2.5
	c0.9,3.4,1.1,7.1,1.5,12.3c0.4,4,1,7.9,1.2,11.8c-0.8-2-1.8-3.9-2.9-5.8c-1.8-3-3.9-5.9-6.3-8.4c-1.1-1.1-2.2-2.2-3.3-3.1
	c-0.4-0.3-0.9-0.7-1.3-1c-0.7-0.5-1.4-0.8-2.2-1.2c-1.1-0.4-2-0.8-3-1c-1.2-0.3-2.1-0.3-3.2-0.3c0.9,0.8,1.5,1.7,2.3,2.7
	c0.5,0.7,1,1.3,1.5,2c0.5,0.6,1,1.3,1.5,1.9c1.2,1.4,2.4,2.8,3.6,4.3c1.9,2.4,3.7,5.1,5.3,7.9c-1.3-1-2.7-1.9-4.1-2.7
	c-1.2-0.7-2.3-1.3-3.5-1.8c-0.5-0.2-0.9-0.4-1.3-0.5c-0.8-0.2-1.4-0.4-2.1-0.4c-1-0.1-1.9-0.2-2.8-0.2c-1.2,0.1-1.9,0.2-2.8,0.5
	c0.9,0.5,1.5,1.1,2.5,2c0.6,0.5,1,0.9,1.7,1.5c0.5,0.4,1.1,0.9,1.7,1.3c1.3,0.9,2.7,1.8,4.1,2.8c3,2.2,6.1,4.7,8.7,7.4
	c0.9,0.9,1.7,1.8,2.4,2.8c0.1,1.4,0.1,2.7-0.1,3.9c-3.5-1.1-7.6-1-11.7,0c-3.4,0.8-6.9,2.3-10.1,4.1c-1.7,1-3.3,2-4.7,3.2
	c-0.4,0.3-0.7,0.6-1.1,1c-0.4,0.5-0.9,0.9-1.2,1.4c-0.6,0.9-1,1.6-1.4,2.4c-0.4,1-0.6,1.7-0.8,2.6c-2.1,0.8-4.1,1.7-6.2,2.6
	c-4.8,2.1-9.5,4.3-14.2,6.3c-3.6,1.5-7.4,2.7-11,4.2c1.8-1.4,3.9-3,6.2-4.5c4-2.8,8.5-5.8,12.9-8.6c3.1-1.9,6.1-3.8,8.8-5.4
	c0.6-0.4,1.3-0.8,1.9-1.2c0.6-0.4,1.2-0.9,1.8-1.3c1-0.7,1.9-1.4,2.7-2c1.1-0.8,1.9-1.5,2.7-2c-1,0.2-2.1,0.4-3.4,0.7
	c-1.1,0.3-2.2,0.7-3.5,1.2c-0.5,0.2-1,0.4-1.4,0.6c-0.8,0.3-1.5,0.7-2.3,1.1c-2.8,1.4-5.8,3.2-8.9,5.1c-4.6,2.8-9.3,5.8-13.4,8.7
	c-2.7,1.9-5.1,3.7-7.2,5.3c1.2-2.4,2.8-5,4.5-7.7c2.6-3.9,5.5-7.9,8.5-11.7c2.1-2.6,4.2-5.2,6.1-7.5c0.4-0.6,0.9-1.1,1.3-1.6
	c0.4-0.6,0.8-1.1,1.2-1.7c0.6-0.9,1.2-1.8,1.7-2.6c0.2-0.3,0.4-0.6,0.6-0.9c0.7,0.4,1.4,0.8,2.2,1.3c-0.4-1.2-0.7-2.1-1.1-3.3
	c-0.4-1.2-0.8-2.2-1.4-3.3c-0.2-0.5-0.5-0.9-0.7-1.4c-0.4-0.7-0.9-1.3-1.3-1.9c-0.8-0.9-1.7-1.8-2.6-2.6c-4.3-3.5-10.6-7-17.3-9.4
	c-2-0.7-4.1-1.4-6.1-1.9c3.8,0.2,7.6,0.7,11.4,1.6c3.7,0.8,7.3,2,10.6,3.5c1.5,0.6,2.9,1.3,4.3,2.1c0.5,0.3,1,0.5,1.5,0.8
	c0.8,0.4,1.6,0.7,2.4,1.1c1,0.5,2,0.9,3,1.4c1.1,0.5,2.1,0.9,3.2,1.5c-0.5-1.2-1-2.3-1.7-3.4c-0.7-1.2-1.5-2.2-2.4-3.2
	c-0.4-0.4-0.8-0.8-1.2-1.2c-0.7-0.6-1.5-1.2-2.2-1.8c-3.1-2.1-6.6-3.7-10.3-5c-5.4-1.9-11.1-3-16.8-3.4c3-0.8,6.1-1.4,9.2-1.8
	c3.8-0.5,7.6-0.7,11.2-0.6c1.6,0.1,3.2,0.2,4.8,0.3c0.6,0.1,1.1,0.1,1.7,0.1c0.9,0.1,1.7,0.1,2.6,0.1c1.2,0.1,2.2,0.1,3.3,0.2
	c1.3,0.1,2.3,0.1,3.5,0.3c-0.9-1-1.7-1.8-2.8-2.6c-1.1-0.8-2.2-1.4-3.5-2.1c-0.5-0.3-1-0.5-1.6-0.7c-0.9-0.3-1.8-0.6-2.8-0.8
	c-3.6-0.8-7.4-1-11.3-0.9c-4.7,0.1-9.5,0.8-14,1.8c-0.1,0-0.2,0-0.2,0.1c3.8-1.9,8.1-3.5,12.3-4.8c3.3-1,6.6-1.9,9.8-2.7
	c0.7-0.2,1.4-0.4,2.1-0.7c0.7-0.3,1.4-0.5,2.1-0.8c1.1-0.5,2.1-0.9,3.1-1.4c1.2-0.6,2.1-1.1,3.1-1.7c-1.3-0.3-2.5-0.5-4-0.7
	c-1.2-0.2-2.3-0.2-3.6-0.3c-0.8,0-1.6,0-2.4,0.1c-2.2,0.2-4.4,0.6-6.7,1.1c-4,0.8-8,2-11.8,3.4c0.2-0.2,0.3-0.4,0.4-0.6
	c2.6-3.5,5.3-6.9,7.9-10.1c1.2-1.4,2.4-2.8,3.5-4.1c0.4-0.5,0.8-1,1.2-1.5c0.6-0.8,1.2-1.6,1.8-2.3c0.8-1.1,1.5-2,2.2-2.9
	c0.9-1.1,1.6-2.1,2.5-2.9c-1.2,0.2-2.4,0.5-3.9,1.1c-1.7,0.7-3.4,1.6-5.2,2.9c-1,0.7-2,1.5-3,2.4c-1.4,1.2-2.7,2.6-4,4.1
	c-3.8,4.1-7.5,8.9-11,13.7c-0.8,1-1.5,2.1-2.2,3.1c0.7-2.2,1.3-4.1,1.6-5.5c1.3-6.3,1.6-12.6,1.4-19c0-1.9-0.1-3.7-0.3-5.6
	c-0.1-1.2-0.3-2.4-0.5-3.7c-0.3-1.6-0.6-3-0.9-4.6c-0.4-1.6-0.8-3-1.2-4.6c-0.5,1.5-1,2.8-1.5,4.4c-0.4,1.3-0.6,2.6-0.9,4
	c-0.2,0.9-0.3,1.8-0.4,2.7C14.1,80.5,14,81.2,14,82c-0.1,1.8-0.1,3.6-0.2,5.4c-0.1,3.8-0.2,7.6-0.7,11.3c0-5.2-1-10.4-2.6-15.5
	C10,81.5,9.4,79.7,8.6,78c-0.5-1.1-1-2.3-1.6-3.3c-0.8-1.4-1.6-2.7-2.5-4c-1-1.4-1.9-2.5-2.9-3.8c0.1,1.5,0.1,2.8,0.3,4.2
	C2,72.6,2.2,74,2.5,75.5c0.1,0.6,0.2,1.2,0.4,1.8c0.2,1,0.5,2,0.7,2.9c1.1,3.8,2.2,7.6,2.7,11.4c0.4,2.5,0.6,5,0.5,7.4
	c-1.3-3.4-2.9-6.7-4.8-9.9C1.4,88,0.7,86.9,0,85.7v65c0.3-0.1,0.5-0.3,0.9-0.5c0.7-0.4,1.1-0.8,1.6-1.4c0.4-0.4,0.6-0.8,0.9-1.3
	c0.4-0.7,0.5-1.4,0.8-2.2c0.5-1.9,0.8-3.8,1-5.8c0.1,0.1,0.2,0.3,0.2,0.4c0.1,0.1,0.1,0.2,0.2,0.3c3,7.6,4.4,16,4.6,24.5
	c0.2,5.7-0.1,11.6-0.7,17.3c-3.1-0.4-6.3-0.7-9.5-0.8v6.1c0,0,0,0,0,0c0,0,0,0,0,0v6.2c0.2,0,0.4,0,0.6-0.1
	c-0.2,0.1-0.4,0.2-0.6,0.3v7.1c0.1,0,0.1-0.1,0.2-0.1C0.1,201,0.1,201,0,201.1v8.4c1-0.9,2-1.8,3-2.7c1-0.8,1.9-1.7,2.9-2.5
	c-0.2,1.1-0.4,2.1-0.7,3.1c-1.9,3.3-3.6,6.6-5.2,10.1v88.9c1.3-5.8,2.1-11.6,2.3-17.5c0.2,2.5,0.6,5.1,0.9,7.7
	c0.3,2.5,0.5,5,0.7,7.5c0,0.5,0.1,1,0.2,1.6c0.1,0.6,0.2,1,0.3,1.6c0.2,0.9,0.3,1.6,0.5,2.5c0.2,1,0.4,1.7,0.5,2.7
	c0.7-0.7,1.2-1.2,1.8-2.1c0.5-0.8,0.9-1.5,1.3-2.4c0.3-0.7,0.5-1.3,0.7-2c0.1-0.4,0.2-0.9,0.2-1.4c0.3-2.2,0.2-4.4,0.1-6.7
	c-0.2-3.2-0.6-6.5-0.8-9.6c-0.2-2.6-0.4-5.2-0.2-7.4c0.1-1,0.2-1.9,0.4-2.7c0.4,0,0.7-0.1,1-0.3c2.9,3.8,4.8,8.1,5.9,12.5
	c0.6,2.4,0.8,4.9,0.9,7.4c0,1.1,0,2.1-0.1,3.2c0,0.4,0,0.8,0,1.2c0,0.6,0.1,1.2,0.1,1.8c0,0.8,0.1,1.5,0.2,2.4
	c0,0.3,0.1,0.7,0.1,0.9c-1.7,2.3-3.4,4.6-5.2,6.8c-3.9,4.7-7.7,9.3-11.6,13.9v9.6c5.6-6.5,11.1-13.1,16.5-19.7
	c7.4-8.9,13.3-18.7,19.3-28.3c-0.2,0.7-0.4,1.4-0.5,2.2c-0.2,1.1-0.4,2-0.6,3.1c-0.2,1.1-0.2,2.1-0.3,3.2c0.9-0.9,1.7-1.5,2.6-2.4
	c0.9-0.9,1.6-1.7,2.4-2.7c0.3-0.4,0.6-0.8,0.9-1.2c0.5-0.7,0.9-1.4,1.3-2.1c1.7-2.9,3-5.9,4.3-8.9c1.8-4,3.4-8.1,4.8-12.3
	c0.2-0.2,0.4-0.5,0.6-0.7c0,0.5,0.1,0.9,0.1,1.4c0.3,5.1,0.4,10.7,0.4,16.1c0,3.8-0.2,7.4-0.2,10.8c0,0.8,0,1.6,0,2.3
	c0,0.8,0.1,1.6,0.2,2.3c0.1,1.3,0.2,2.4,0.3,3.5c0.2,1.5,0.3,2.6,0.3,3.6c0.7-0.9,1.4-1.9,2.1-3.2c0.6-1.1,1-2.3,1.5-3.7
	c0.2-0.5,0.3-1,0.5-1.6c0.2-0.9,0.4-1.8,0.6-2.7c0.5-3.3,0.7-7,0.9-10.9c0.1-3.3,0.2-6.7,0.1-10c0.8,4.1,1.4,8.1,2,12.1
	c0.3,2.2,0.5,4.4,0.8,6.5c0.1,0.8,0.3,1.5,0.4,2.2c0.3,1.2,0.5,2.2,0.8,3.4c0.4,1.4,0.8,2.5,1.1,3.9c0.5-1.1,1-2,1.4-3.1
	c0.6-1.6,1-3.1,1.3-4.9c0.2-1.1,0.2-2.2,0.3-3.3c0-1.6-0.1-3.2-0.2-4.9c-0.3-4.5-1-9.1-1.8-13.7l0.1,0.1c1.6,3.6,3.1,7.3,4.5,11
	c0.6,1.6,1.1,3.2,1.7,4.8c0.2,0.6,0.4,1.1,0.6,1.7c0.3,0.9,0.7,1.7,1.1,2.5c0.5,1.1,1,2.1,1.5,3.2c0.6,1.1,1.1,2.1,1.6,3.2
	c0.3-1.3,0.5-2.3,0.7-3.6c0.2-1.8,0.2-3.6,0.1-5.4c-0.1-1.2-0.3-2.4-0.5-3.5c-0.3-1.7-0.9-3.4-1.4-5.1c-0.7-2.3-1.6-4.7-2.5-7
	c0.1,0.1,0.2,0.2,0.3,0.3c2.3,2.6,4.6,5.1,7,7.5c2.4,2.4,4.7,4.8,7.1,7.2c0.6,0.6,1.3,1.2,2,1.8c0.7,0.6,1.4,1.1,2.1,1.7
	c1.1,0.9,2.2,1.6,3.3,2.4c1.2,0.8,2.3,1.5,3.5,2.3c-0.6-1.4-1-2.6-1.6-3.9c-0.7-1.3-1.3-2.5-2.1-3.8c-0.3-0.5-0.7-1-1-1.5
	c-0.6-0.8-1.1-1.5-1.7-2.3c-0.9-1.1-1.9-2.2-2.8-3.2c-3.6-4.1-7.4-8-10.9-12.2c-0.5-0.6-1.1-1.2-1.6-1.9c3.1,2.1,6.2,4,9.4,5.8
	c4.5,2.6,9.1,4.9,13.8,7c2,0.9,4.1,1.8,6.1,2.5c0.7,0.3,1.5,0.5,2.2,0.8c1.2,0.3,2.3,0.6,3.5,0.9c1.5,0.3,2.9,0.6,4.4,0.8
	c1.6,0.2,3,0.3,4.5,0.5c-1.5-1-2.9-2-4.4-3c-1.3-0.9-2.6-1.7-4-2.5c-0.9-0.5-1.8-1-2.7-1.5c-2.7-1.4-5.4-2.7-8.1-4
	c-6.2-3.2-12.3-6.5-18.2-10.3c-3.2-2.1-6.3-4.2-9.3-6.5c5.9,2.5,11.9,4.8,17.6,7.3c7.1,3,14.1,6.3,21.2,9.1c3.1,1.2,6.2,2.4,9.4,3.4
	c1.1,0.3,2.2,0.6,3.4,0.8c1.7,0.4,3.4,0.7,5.2,0.9c2,0.2,3.8,0.3,5.8,0.4c-1.7-0.9-3.3-1.9-5-2.8c-1.5-0.8-3-1.6-4.5-2.4
	c-1-0.5-2-1-3-1.5c-0.9-0.4-1.8-0.8-2.7-1.2c-2.1-0.9-4.2-1.8-6.3-2.8c-5.5-2.5-11-5-16.5-7.5c5.1,1,10.3,1.9,15.5,2.6
	c2.4,0.3,4.8,0.7,7.1,0.9c0.9,0.1,1.7,0.2,2.6,0.2c1.3,0.1,2.6,0.1,3.9,0.1c1.7,0,3.2,0,4.9-0.1c1.7-0.1,3.2-0.3,4.9-0.4
	c-1.6-0.6-3.1-1.3-4.8-1.9c-1.6-0.6-3.2-1.1-4.8-1.6c-0.4-0.1-0.8-0.2-1.2-0.4c0.9,0.1,1.9,0.3,2.8,0.3c2,0.2,3.9,0.3,5.9,0.4
	c2.3,0,4.4-0.1,6.6-0.2c-2.1-0.8-4-1.6-6.1-2.4c-1.8-0.7-3.6-1.4-5.5-2c-1.2-0.4-2.4-0.8-3.7-1.2c-3.1-0.9-6.2-1.7-9.3-2.6
	c-4.7-1.2-9.5-2.3-14.3-3.3c-0.8-0.2-1.7-0.3-2.5-0.5c3.4,0.2,6.8,0.3,10.1,0.5c4.7,0.2,9.3,0.6,13.9,0.9c1.9,0.1,3.7,0.2,5.6,0.2
	c1.3,0,2.5,0,3.8,0c1.3,0,2.5-0.1,3.8-0.3c1.9-0.2,3.8-0.4,5.7-0.8c2.1-0.4,4.1-0.9,6.2-1.5c-2.1-0.3-4.1-0.6-6.2-1
	c-1.9-0.3-3.7-0.6-5.5-0.8c-1.2-0.2-2.4-0.4-3.7-0.5c-1.2-0.2-2.4-0.3-3.7-0.4c-1.8-0.2-3.7-0.3-5.5-0.5c-1.5-0.1-3-0.3-4.5-0.4
	c2.4-0.5,4.6-1.2,6.7-2c1.6-0.7,3.1-1.4,4.4-2.2c1.8-1.2,3.4-2.5,4.7-4c1.4-1.6,2.3-3.3,3-5.2c-1.2,1.1-2.6,1.9-4.1,2.7
	c-1.4,0.8-2.9,1.4-4.5,2c-0.6,0.2-1.3,0.5-2,0.7c-1.1,0.4-2.2,0.7-3.3,1c-3,0.9-6.2,1.6-9.5,2.1c2.9-1,5.5-2.2,7.9-3.6
	c1.1-0.7,2.2-1.4,3.1-2.2c0.6-0.5,1.2-1,1.7-1.6c1.3-1.4,2.3-2.8,3.1-4.4c0.7-1.6,1.1-3.1,1.3-4.8c-0.9,1.3-2,2.3-3.3,3.3
	c-1.2,1-2.4,1.7-3.9,2.5c-0.6,0.3-1.1,0.6-1.7,0.9c-0.9,0.5-1.9,0.9-2.9,1.4c-3.7,1.8-8,3.2-12.7,4.3c-5.4,1.3-11.3,2.1-17,2.5
	c-2.2,0.2-4.3,0.3-6.4,0.3c6.3-1.8,12.9-4.2,18.8-7.2c4.4-2.2,8.4-4.6,11.6-7.4c0.9-0.8,1.7-1.6,2.5-2.5c0.5-0.6,0.9-1.1,1.3-1.7
	c1-1.5,1.8-2.9,2.2-4.5c0.5-1.6,0.7-3,0.6-4.6c-0.7,1.2-1.5,2.1-2.5,3.2c-0.9,0.9-1.8,1.7-2.9,2.6c-0.8,0.6-1.6,1.2-2.5,1.8
	c-0.5,0.4-1.1,0.8-1.7,1.2c-1.5,1.1-3.1,2.1-4.9,3.2c-3.8,2.2-8.1,4.2-12.5,6c-1.4,0.5-2.8,1.1-4.2,1.6c3-1.8,5.8-3.8,8.2-6.1
	c0.3-0.3,0.6-0.5,0.9-0.8c0.7,0.5,1.4,0.9,2.1,1.4c-0.5-0.6-1-1.3-1.6-1.9c2.5-2.5,4.7-5.2,6.2-8.4c0.4-0.9,0.8-1.9,1.1-2.9
	c0.2-0.6,0.3-1.2,0.4-1.8c0.2-1.4,0.4-2.8,0.3-4.3c-0.1-1.4-0.3-2.6-0.7-4c-0.5,1.3-1.1,2.3-1.7,3.5c-0.9,1.7-1.8,3.1-2.8,4.7
	c-0.5,0.7-1,1.5-1.4,2.2c-1.6,2.5-3.5,4.7-5.7,6.7c-1.1-0.9-2.2-1.8-3.4-2.7c-1.6-1.1-3.2-2.2-4.8-3.1c-0.6-0.4-1.3-0.7-1.9-1.1
	c0.4-0.8,0.7-1.6,1.1-2.5c0.6-1.6,1.2-3.1,1.7-4.7c0.2-0.6,0.3-1.1,0.5-1.7c0-0.1,0-0.1,0-0.2c1.5,0.4,3,0.8,4.4,1.5
	c-1.1-1-2.2-1.8-3.5-2.6c-0.2-0.1-0.4-0.3-0.7-0.4c0-0.3,0.1-0.6,0.1-1c0.1-1.2,0.2-2.2,0.2-3.4c0-1.2-0.1-2.2-0.1-3.5
	c-0.9,1.2-1.6,2.2-2.5,3.4c-0.6,0.9-1.1,1.7-1.7,2.6c-0.2-0.1-0.3-0.1-0.5-0.2c-0.8-0.3-1.7-0.7-2.5-0.9c-1.7-0.6-3.4-1-5.1-1.5
	c-2.7-0.8-5.8-1.6-9.2-2.5c1.6-2,3.3-4.1,5-6c1.7,0,3.4,0,5.1,0.1c0.8,0,1.6,0,2.4,0.1c1,0,1.9,0.1,2.9,0.1c1.5,0,2.9,0.1,4.4,0.2
	c1.7,0.1,3.3,0.1,5,0.3c-1.5-0.7-3-1.3-4.7-1.8c-1.6-0.5-3.2-0.9-4.9-1.3c-1.6-0.3-3.3-0.6-5-0.7c-0.8-0.1-1.5-0.1-2.3-0.2
	c0.2-0.2,0.3-0.4,0.5-0.5c1.2-1.2,2.4-2.5,3.6-3.6c0.8,0,1.7-0.1,2.5-0.1c1.8-0.1,3.4-0.1,4.9,0c-1.2-0.5-2.5-1-3.9-1.4
	c-0.5-0.1-1-0.3-1.5-0.4c3.7-3.4,7.7-6.4,11.9-8.9c0.2,0,0.4,0,0.5,0c0.4,0.1,0.8,0.2,1.2,0.2c2,1,3.2,2.6,4,4.5
	c1,2.5,1.4,5.4,1.6,8.3c0.1,1.3,0.1,2.7,0.3,3.9c0.1,0.5,0.2,0.9,0.3,1.4c0.2,0.8,0.4,1.4,0.7,2.1c0.4,1,0.7,1.6,1.1,2.5
	c0.6-0.8,1-1.3,1.6-2.2c0.4-0.7,0.7-1.3,1.1-2.1c0.2-0.5,0.3-0.9,0.5-1.4c0.1-0.4,0.2-0.7,0.2-1.1c0.2-1.5,0.3-3.1,0.2-4.6
	c0-3.2-0.6-6.3-1.6-9.1c-0.1-0.1-0.1-0.3-0.2-0.4c3.4,1.1,6.9,2.6,10.2,4.4c7.7,3.9,14.8,9,18.5,13.8c0.8,1,1.6,2.3,2.5,3.7
	c0.7,1.3,1.4,2.7,2.2,4.2c0.7,1.4,1.5,2.9,2.2,4.3c0.8,1.5,1.6,2.9,2.4,4.3c0.9,1.7,1.8,3.1,2.4,4.4c0.1-1.5,0.2-3.2,0-5.1
	c-0.1-1.5-0.3-3-0.6-4.6c-0.2-1-0.4-2-0.7-3c-0.4-1.2-0.8-2.4-1.3-3.6c-1.3-3.2-2.9-6.1-4.4-8.2c-2.3-3-5.7-6.2-9.8-9.2
	c1.9,0.8,3.8,1.7,5.7,2.6c4.4,2.2,8.7,4.6,12.5,7.2c1.7,1.2,3.4,2.4,5,3.6c0.6,0.4,1.2,0.9,1.7,1.3c0.9,0.7,1.8,1.3,2.6,1.9
	c1.2,0.9,2.2,1.7,3.3,2.6c1.2,1,2.2,1.9,3.2,2.9c-0.3-1.5-0.7-2.9-1.4-4.5c-0.6-1.5-1.5-2.9-2.5-4.3c-0.4-0.6-0.8-1.1-1.3-1.7
	c-0.7-0.9-1.6-1.7-2.4-2.6c-3.2-3-7.2-5.7-11.4-8.2c-3.8-2.3-7.9-4.4-12.1-6.2c3.7,0.8,7.3,1.6,10.9,2.6c7.4,2,14.7,4.6,21.7,7.6
	c1.9,0.8,3.9,1.6,5.9,2.4c1.2,0.5,2.3,0.9,3.5,1.4c0.8,0.3,1.5,0.6,2.3,1c1,0.5,2,1,2.9,1.5c1.5,0.9,2.9,1.8,4.2,3
	c-0.7-1.8-1.6-3.3-2.8-4.9c-1.2-1.5-2.5-2.8-4.1-4c-1.2-0.9-2.4-1.8-3.7-2.6c-1.9-1.1-3.9-2.1-5.8-3c-6.5-3-13.3-5.7-20.2-7.8
	c6,1.2,11.9,2.6,17.6,4.3c3.5,1,6.9,2.2,10.2,3.2c1.2,0.4,2.4,0.7,3.5,1.1c1.9,0.5,3.6,1,5.4,1.5c2.2,0.6,4.1,1.1,6.1,1.8
	c-1.3-1.2-2.5-2.3-4-3.5c-1.4-1.1-2.8-2-4.4-3c-1.2-0.7-2.4-1.4-3.7-2.1c-0.8-0.4-1.7-0.8-2.6-1.2c-2.4-1-4.9-2-7.4-2.8
	c-5.7-2-11.7-3.6-17.9-4.9c-0.1,0-0.2,0-0.3-0.1c5.9,0.2,11.2,0.8,16.2,2c3.9,1,7.7,2.4,11.5,4.3c1.6,0.8,3.1,1.6,4.7,2.4
	c2.1,1.1,4.2,2.2,6.4,3.5c1.4,0.8,2.9,1.6,4.4,2.5c-1.2-1.9-2.4-3.5-3.7-5.1c-1.4-1.7-2.9-3.2-4.4-4.6c-1.3-1.2-2.7-2.2-4.1-3.1
	c-2.3-1.5-4.6-2.6-7-3.6c-4-1.7-8.1-2.8-12.5-3.5c2.8-0.4,5.9-0.9,9-1.2C171.8,159.7,174.7,159.6,177,160.2z M4.9,250.5
	c-0.3,2.6-0.6,5-1,7.3c-0.1-0.4-0.2-0.7-0.2-1.1c-0.5-2.3-1.3-4.5-2.2-6.7c1.4-5.4,2.7-10.8,4.1-16.2c0,1.5,0,3.1,0,4.8
	C5.5,242.4,5.3,246.5,4.9,250.5z M100.3,258.8c3.1,0.5,6.1,1.2,9.1,1.8c-1.6-0.3-3.3-0.6-4.9-0.9c-1.9-0.4-3.8-0.7-5.6-1.1
	C99.4,258.6,99.9,258.7,100.3,258.8z M28,214.5c2.6,4.8,4.9,9.8,7,14.9c-2.4,3.3-4.9,6.6-7.3,10c-0.4-2.1-0.8-4.2-1.1-6.3
	c-0.9-6.4-1.8-12.9-2.5-19.4c-0.3-2.3-0.5-4.6-0.8-6.9C25,209.2,26.5,211.8,28,214.5z M37.7,236.2c0.3,0.8,0.6,1.6,0.9,2.4
	c0.7,1.9,1.4,3.8,2.2,5.8c-0.8,0.3-1.5,0.6-2.3,0.8c-2.3,0.8-4.6,1.1-7,1.2c-0.4,0-0.8,0-1.3,0.1C32.7,243,35.2,239.6,37.7,236.2z
	 M36.1,216.5c1.2,1.3,2.5,2.7,3.7,4.1c0,0.1,0.1,0.2,0.1,0.3c0.2,0.4,0.2,0.7,0.4,1.1c-0.4,0.5-0.7,1-1.1,1.5
	C38.3,221.2,37.3,218.8,36.1,216.5z M23.2,243.4c0.1,0.2,0.2,0.5,0.3,0.7c0.1,0.2,0.2,0.5,0.3,0.7c-0.8,1.1-1.6,2.3-2.4,3.4
	C22,246.7,22.6,245.1,23.2,243.4z M21.7,175.8c0-0.4,0.1-0.7,0.1-1.1c0.3-4.3,0.9-9.1,1.5-13.6c0.4-3.2,0.9-6.3,1.3-9
	c0.1-0.7,0.2-1.3,0.3-1.9c0.1-0.7,0.1-1.3,0.2-2c0.1-0.9,0.1-1.6,0.2-2.4c1.8,1.6,3.6,3.3,5.2,5.1c0.4,0.5,0.9,1,1.3,1.5
	c-1.5,2.6-2.8,5.4-4.2,8.3C25.3,165.6,23.3,170.8,21.7,175.8z M32.2,168c-2.7,3.4-5.2,7-7.3,10.4c0.7-2.3,1.5-4.7,2.4-7
	c1.7-4.6,3.6-9.2,5.6-13.6c0.4-0.9,0.8-1.8,1.2-2.7l0.1,0.1c0.5,0.6,1.1,1.1,1.6,1.7c0.7,0.7,1.4,1.4,2.2,2.2
	c0.3,0.3,0.6,0.5,0.8,0.8C36.6,162.4,34.4,165.2,32.2,168z M40.4,145.3c1.2,0.8,2.2,1.8,3.3,2.7c0.6,0.5,1.2,1,1.8,1.5
	c0.7,0.5,1.3,1,2,1.5c0.2,0.2,0.5,0.3,0.7,0.5c-0.2,0.1-0.4,0.3-0.6,0.4c-0.8,0.6-1.6,1.2-2.4,1.9c-0.6,0.5-1.2,1-1.8,1.6
	c-0.4,0.4-0.8,0.7-1.2,1.1c-0.6,0.6-1.2,1.3-1.8,2c0-0.2,0-0.4-0.1-0.5c-0.2-1.2-0.5-2.3-0.9-3.5c-0.2-0.5-0.4-0.9-0.6-1.4
	c-0.3-0.8-0.7-1.5-1.2-2.3c-0.3-0.5-0.6-0.9-0.9-1.4c0.3-0.8,0.6-1.6,0.9-2.4c0.4-1.1,0.7-2,1-3C39.2,144.4,39.8,144.8,40.4,145.3z
	 M24.6,137.2c5.1,1.8,10,4.1,13.8,6.6c-0.7,0.6-1.3,1.3-2,2c-0.4,0.5-0.8,1-1.2,1.5c-1.3-1.6-2.6-3.1-4.1-4.5
	c-2.2-2.2-4.6-4.1-7.1-5.8C24.2,137.1,24.4,137.2,24.6,137.2z M23.2,144.1c0.3,0.2,0.5,0.4,0.8,0.6c0,0-0.1,0.1-0.1,0.1
	c-0.5,0.9-0.9,1.9-1.4,3c-0.2,0.4-0.3,0.9-0.5,1.3c-0.2,0.7-0.5,1.4-0.6,2.2c-0.7,2.7-1.2,5.8-1.7,9c-0.7,4.7-1.3,9.6-1.6,14.1
	c-0.3,3.4-0.4,6.6-0.4,9.3c-0.6-0.2-1.3-0.3-1.9-0.5c0.7-6.2,1-12.5,0.8-18.7c-0.1-4-0.5-7.9-1.1-11.8c0-0.2,0.1-0.3,0.1-0.5
	c0.1-0.4,0.1-0.7,0.1-1c0-0.6,0-1.1,0-1.7c-0.2-2.3-0.9-4.4-1.7-6.5c-0.7-2-1.6-3.9-2.7-5.7l-0.1-0.2l-0.1-0.2
	C15.4,138.9,19.5,141.3,23.2,144.1z M11.1,209.8c1.4-2.5,2.9-5,4.5-7.4c-1.6,3.3-3.3,6.6-5,9.9C10.7,211.5,10.9,210.6,11.1,209.8z
	 M10.7,255.1c0.6-4,0.9-8.5,0.8-12.7c0-3-0.1-5.8-0.6-8.3c-0.1-0.7-0.3-1.4-0.6-2.1c-0.2-0.4-0.3-0.8-0.5-1.2
	c-0.5-0.9-0.9-1.7-1.4-2.4c2.4-4,4.7-8,7-12.1c0.7-1.3,1.4-2.6,2.1-3.9c0.3,2.5,0.6,5,1,7.5c0.7,4.6,1.4,9.3,2.1,13.9l0,0.1l0,0
	c-0.3,0.6-0.6,1.2-0.9,1.9c-0.2,0.4-0.4,0.8-0.5,1.2c-0.4,1.2-0.9,2.4-1.3,3.5c-1.1,2.8-2.3,5.4-3.6,8.1
	C13.2,250.8,12,253,10.7,255.1z M22.4,299.4c0.3-2,0.2-4,0.1-5.9c-0.4-5.8-2.4-11.4-5.7-16.4c1.8,0.8,3.7,1.7,5.6,2.7
	c2.4,1.3,4.8,2.7,6.8,4.1c0.7,0.5,1.4,1,2.1,1.6C28.3,290,25.4,294.7,22.4,299.4z M38.3,267.7c-1.4,2.4-3,4.7-4.6,7
	c-0.4,0.6-0.8,1.2-1.1,1.8c-0.2,0.4-0.4,0.7-0.7,1.1c-0.1,0.2-0.3,0.5-0.4,0.7c-2.7-2-5.9-3.9-9.1-5.5c-2.4-1.2-4.8-2.2-7-3.1
	c1.3,0,2.7,0.1,4,0.3c1.4,0.2,2.8,0.5,4.2,0.7c0.3,0.1,0.6,0.1,0.9,0.1c0.4,0,0.7,0,1-0.1c0.7,0,1-0.1,1.6-0.2
	c0.8-0.1,1.1-0.3,1.9-0.4c-0.3-0.7-0.4-1-0.8-1.7c-0.1-0.1-0.1-0.2-0.2-0.3l0,0c0.4,0,0.7-0.1,1-0.1c0.6-0.1,1.1-0.2,1.7-0.4
	c2.1-0.6,4.2-1.7,6.2-2.8c1.5-0.8,2.9-1.8,4.3-2.8C40.4,264,39.4,265.9,38.3,267.7z M38.9,256.2c-2.3,1.9-4.9,3.6-7.5,5.1
	c-1.2,0.7-2.3,1.3-3.4,2c-0.4,0.3-0.8,0.5-1.1,0.8c-0.6,0.5-1.1,0.9-1.6,1.4c-0.6-0.3-1.2-0.5-1.8-0.7c-1.7-0.6-3.5-0.9-5.3-1.2
	c2.9-4.2,5.8-8.3,8.7-12.5l0.1,0c0.1,0,0.1,0.1,0.2,0.1c0.4,0.7,0.8,1.4,1.3,2.2c0.1-0.6,0.1-1.2,0.2-1.8c0.3,0.1,0.7,0.1,1,0.2
	c1.4,0.2,2.8,0.2,4.2,0.2c2.2,0,4.4-0.4,6.6-1.1c0.9-0.3,1.8-0.6,2.7-0.9l0,0.1c0.2,0.5,0.4,0.9,0.6,1.3
	C42.3,253.2,40.7,254.8,38.9,256.2z M42.7,229.5l0.2-0.3l0.7-0.9c0.1,0.3,0.2,0.6,0.4,0.9c0.5,1.3,1,2.6,1.5,3.9
	C44.6,231.8,43.7,230.6,42.7,229.5z M44.5,216.5c-3-3.4-6-6.6-8.7-9.6c-0.3-0.3-0.6-0.6-0.9-1c3.4,2.3,6.7,4.9,9.9,7.5
	c0.4,0.3,0.8,0.7,1.2,1C45.5,215.2,45,215.9,44.5,216.5z M48.2,211.5c-0.3-0.3-0.6-0.5-0.9-0.8c-0.2-0.2-0.5-0.4-0.7-0.6
	c0.6,0.3,1.2,0.7,1.9,1L48.2,211.5z M49.9,222.8c-0.4-0.5-0.8-1-1.2-1.4c0.5-0.7,1-1.3,1.5-2c0.1,0.5,0.2,1,0.3,1.5
	c0.2,1.2,0.5,2.3,0.7,3.5C50.7,223.9,50.3,223.4,49.9,222.8z M50.7,208.1c-2.2-1.2-4.3-2.3-6.5-3.4c-3-1.5-6.1-3.3-9.3-4.9
	c4.3,0.9,8.5,2,12.6,3.2c1.8,0.6,3.7,1.1,5.5,1.8C52.3,205.9,51.5,207,50.7,208.1z M44.3,192.7c6.2-0.7,12.7-1.3,19.2-1.7
	c-1.1,1.4-2.3,2.8-3.4,4.2C55.1,194.1,49.6,193.2,44.3,192.7z M63.8,208.8c-0.2,0.8-0.4,1.7-0.6,2.5c-0.3,1.2-0.6,2.4-0.9,3.6
	c-1-0.6-1.9-1.2-2.9-1.8c-1.1-0.7-2.2-1.3-3.4-2c1-1.4,2-2.8,3-4.2C60.7,207.6,62.3,208.2,63.8,208.8z M57.7,198.5
	c-0.8,1.1-1.6,2.1-2.4,3.2c-2.2-0.8-4.4-1.5-6.7-2.2c-4.4-1.3-8.9-2.5-13.4-3.4c2.7-0.1,5.6,0.1,8.5,0.3
	C48.4,196.8,53.2,197.6,57.7,198.5z M58,228.5c0-0.1,0-0.2,0-0.3c-0.1-0.7-0.2-1.5-0.3-2.2c0.3,0.3,0.6,0.7,0.9,1
	C58.4,227.5,58.2,228,58,228.5z M60,223.1c-1.3-1.4-2.6-2.8-3.9-4.2c-0.3-0.8-0.6-1.7-1-2.5c-0.3-0.6-0.6-1.2-1.1-1.7
	c-0.1-0.1-0.1-0.2-0.2-0.3l0.2-0.2c2.5,1.4,5,2.9,7.4,4.5C60.9,220.1,60.5,221.6,60,223.1z M61.6,236.4c0.6-1.2,1.1-2.5,1.7-3.9
	c0.3,0.4,0.6,0.8,1,1.2C63.4,234.6,62.5,235.5,61.6,236.4z M61.4,203.9c1-1.3,2-2.7,3-4c0.6,0.1,1.2,0.3,1.8,0.4
	c-0.1,0.4-0.3,0.9-0.5,1.5c-0.2,0.7-0.5,1.4-0.7,2.2c-0.1,0.4-0.3,0.8-0.4,1.2C63.6,204.8,62.5,204.4,61.4,203.9z M71.5,235
	c1.7-2,3.3-4,4.8-6.1c1,0.7,2,1.5,3,2.2c0.1,0.1,0.2,0.2,0.3,0.2C77,232.7,74.2,233.9,71.5,235z M84.9,218.5c1.7,0.9,3.3,1.7,5,2.6
	c1.1,0.6,2.2,1.2,3.3,1.8c-3.2,2.7-6.8,5-10.6,7c-1-0.9-1.9-1.8-2.9-2.6c-0.4-0.4-0.9-0.7-1.3-1.1c0.7-1.1,1.5-2.3,2.2-3.5
	c1-1.7,1.9-3.4,2.8-5.1C83.7,217.9,84.3,218.2,84.9,218.5z M75.2,202.5c1,0.2,2,0.5,3,0.7c1,0.2,2,0.4,3,0.6
	c0.6,0.1,1.1,0.2,1.7,0.3c0,0.1-0.1,0.2-0.1,0.2c-1,2-1.9,4.1-2.9,6.1c-0.2,0.4-0.4,0.8-0.6,1.3c-1.6-0.8-3.1-1.5-4.7-2.2
	c-1.6-0.8-3.3-1.5-4.9-2.2c0-0.5,0-1.1-0.1-1.6c0-0.5-0.1-0.9-0.2-1.4c-0.3-1.2-0.5-2.2-1-3.1c-0.1-0.2-0.2-0.4-0.3-0.5
	C70.7,201.4,73.1,202,75.2,202.5z M68.3,216.6c0.4-1.9,0.8-3.7,1-5.5c1.2,0.5,2.4,1.1,3.7,1.6c1.5,0.7,3.1,1.4,4.6,2.1
	c-1.4,2.5-2.8,5-4.4,7.4c-1.8-1.3-3.6-2.6-5.4-3.8C68,217.9,68.1,217.3,68.3,216.6z M71.2,225.2c-1.5,2-3,4-4.6,5.9
	c-0.6-0.8-1.2-1.6-1.9-2.4c0.8-2.1,1.5-4.3,2.1-6.5C68.3,223.2,69.8,224.2,71.2,225.2z M66.6,187.3c-3.2,0.1-6.3,0.2-9.5,0.4
	c-5,0.4-10,0.9-14.8,1.4c-2.3,0.2-4.8,0.4-7.2,0.7c3.5-1.1,7.2-2.1,11.1-2.9c6.4-1.4,13.2-2.3,19.5-2.8c1.4-0.1,2.7-0.2,4.1-0.3
	C68.8,184.9,67.7,186.1,66.6,187.3z M73.2,180.3l-0.1,0.1l-0.1,0C73,180.4,73.1,180.3,73.2,180.3L73.2,180.3z M77.4,168.8
	c-1.8,1.3-3.5,2.9-4.9,4.6c-0.6,0.7-1.2,1.5-1.7,2.3c-0.2,0.3-0.4,0.6-0.5,0.9c-0.2,0.5-0.4,1-0.5,1.5c-0.2,0.7-0.3,1.3-0.3,2
	c0,0.2,0,0.3,0,0.4c-1,0-2,0-3,0.1c-4.5,0.2-9.2,0.7-13.9,1.4c0.8-0.4,1.5-0.7,2.3-1.1c3.1-1.5,6.3-2.9,9.4-4.3c1-0.5,2-1,3-1.5
	c1-0.5,2-1.1,2.9-1.6c1.3-0.7,2.6-1.5,3.9-2.2c-1.5,0.2-3,0.4-4.5,0.7c-1.1,0.2-2.2,0.5-3.3,0.8c-0.1,0-0.3,0.1-0.4,0.1
	c0.1,0,0.2-0.1,0.3-0.1c1.3-0.7,2.7-1.5,4.1-2.3c3.2-1.7,6.6-3.1,10-3.9c0.4-0.1,0.8-0.2,1.2-0.2C80.2,166.9,78.8,167.8,77.4,168.8z
	 M3.4,178c-0.8-0.4-1.3-0.8-2.3-1.2c-0.4-0.2-0.7-0.3-1.1-0.5v3c0.3-0.1,0.6-0.2,0.9-0.3C1.9,178.7,2.6,178.3,3.4,178z"/>
<path class="st10" d="M86.2,562c-2.1,1.8-2.7,9.3-3.5,12c-2.4,7.8-5.3,12.8-11.3,16.9l-0.4,0.3c7.8-16.4,4.6-60.3,6.4-76.8
	c1.7-16.1,7.7-29.1,5-45.8c-0.2-1.2-3.3-13.6-3.7-13.5c-8.8,2.9-6.3,36.6-6.4,45.2c-0.1,8.3-3.2,15.8-3.9,24
	c-1.7,19.7-9.7,42.5-21.8,60.3c5-13.6,7.6-30.2,8.5-38c1.2-9.8,4.2-18.8,4.4-28.8c0.2-6.3-2.1-12.3-2-18.5c0-1.1,2.2-10.8,1.5-11.2
	c-6.2-3.7-8.2,29.6-8.8,33.1c-1.6,9.4-0.7,18.1-3.3,27.3c-3.5,12.4-11.8,20.1-11.1,14c2.6-22.3,9.5-43,13.3-64.8
	c2.6-14.7,1-29.2,4.7-43.9c2.4-9.4,11-34,1-40.9c-3.2-2.2-3.8,13.2-5,16.7c-4,11.7-9.6,22.4-12.8,34.5c-3.5,13.2-1,26.9-3.2,40.4
	c-3.7,21.9-7.4,40.4-7.1,63.1l0,2.1c-1.8-13.1-1.8-26.8-1.2-39.4c0.2-4.7,0.3-19.9-5.2-20.9c-0.3-0.1-0.9,3.7-0.9,3.9
	c-1.6,9.9-1.2,20.1-2.6,30c-1.1,7.6-2.4,14.8-1.9,22.4c-0.8-4-1.8-8.3-2.8-12.2l0.8-7.9c-5.5-47,7.1-93.7,8-140
	c0.2-8.2,3.7-42.2-3.1-45.2c-4.4-2-6.5,7.6-6.8,10.9c-1.5,19.3,2.4,26.1-3,47.7c-5.5,22.2-5.1,43.1-8,65.5c-0.2,1.5-0.5,3-0.8,4.5
	v83.3c2.2,7.1,4.7,13.6,7.4,18.2c-2.4-1.7-4.9-3.6-7.4-5.8v9.1c3.8,1.1,7.4,2.2,10.4,4c0,0,1.2,0.8,3.2,1.8h62.7
	c4.9-2.7,9.5-6.3,11.5-10.8c2.3-5.2,3-15.2,2.7-20.9C89.5,566.6,88.3,560.1,86.2,562z"/>
<path class="st9" d="M470.7,565.1c-1.8-3.3-3.5-6.6-5.5-9.7c-0.6-0.9-1.2-1.9-1.8-2.8c-0.6-0.8-2.2-3.3-1.7-2.4
	c7.6,13.6,14.7,26.6,21.5,40.9c1.6,3.4,4.2,6.7,5.8,10.4h7.1c-1.1-1.3-6.2-8.5-6.5-8.8C483,583.9,476,575.1,470.7,565.1z
	 M448.2,595.6c-1.4,0-5.1-1.3-4.3,0.1c1.6,2.8,8.9,3.7,11.4,4.7c0.8,0.3,1.6,0.6,2.5,0.9h22.5c-8.1-3.3-16.5-4.7-25-5.4
	C452.9,595.7,450.5,595.6,448.2,595.6z M587.1,574.6c-0.9-0.7-4.6,1.2-5.4,1.4c-6.5,2.4-12.8,5.8-18.7,9.9c-4.6,3.1-9,7.7-14,9.8
	c-0.7,0.3,0.8-1.5,1.2-2.1c0.8-1.3,1.4-2.1,2.2-3.4c2-3.2,4-6.3,6.1-9.4c5.8-8.5,19.3-20.2,21.2-31.6c0.1-0.8-1.3,0.6-1.9,1
	c-1.1,0.6-2.2,1.3-3.3,2.1c-3.5,2.4-6.8,5.4-10,8.2c-9.3,8.1-16.5,20.4-26.2,27.7c-0.5,0.4,0.3-1.3,0.5-2c0.4-1.5,0.6-3,0.9-4.5
	c1-4.4,2.2-8.7,3.5-12.9c4.2-13.6,9.7-26.3,14.4-39.6c0.3-0.8-0.9,1.2-1.3,1.8c-0.8,1.1-1.6,2.3-2.4,3.4c-2.5,3.5-4.5,7.4-6.6,11.3
	c-6.4,12.1-11.1,27.6-18.6,38.5c-0.6,0.8,0.3-2.2,0.4-3.3c0.3-2.1,0.5-4.2,0.8-6.2c0.8-5.7,1.7-11.3,2.6-17
	c2.9-16.5,11-50.8,8.6-47.6c-3.4,4.7-5.2,15.2-7.4,20.8c-4.7,11.8-7.5,23.8-11.5,36.1c-1.3,3.9-2.8,13.8-5.7,16.5
	c-0.7,0.7-0.4-2.2-0.6-3.3c-0.4-2.7-0.8-5.3-1-8c-0.6-7.3-0.9-14.7-1.1-22c-0.6-15.3-0.7-30.6-1.4-45.9c-0.4-7.3,0-17.3-2.1-24.1
	c-0.4-1.4-0.8,2.7-1.2,4.1c-0.4,1.7-0.9,3.6-1.2,5.3c-1.1,5.3-1.8,10.7-2.3,16.2c-1.9,20.7,0.7,41.6,0.3,62.3
	c-0.1,4.8-0.5,9.9-1.6,14.5c-0.3,1.3-0.3,3.8-1.3,3.6c-1.6-0.2-4.2-13.8-4.5-14.9c-3.6-13.8-6.2-27.8-9.8-41.6
	c-0.9-3.4-2.6-12.3-5.9-13.2c-1.3-0.4,0,3.4,0.1,5c0.5,6.5,1.6,12.8,2.7,19.2c2.6,15.4,6,30.5,9.4,45.7c0.5,2.3,3.6,12.4,1.6,15
	h60.6c0.3-0.3,0.7-0.6,1.3-1.2c7.4-7,15.7-12.3,23.4-18.8C581.8,581.4,588.2,575.5,587.1,574.6z M580.1,598.8
	c-3.1,0.8-6.2,1.7-9.3,2.6h16c2.3-1,4.9-2.5,5.4-4.2C592.2,597.1,580.7,598.6,580.1,598.8z"/>
</svg>
