<svg xmlns="http://www.w3.org/2000/svg" viewBox="0 0 400 400"><defs><style>.cls-1{fill:#eed7a4}.cls-2{fill:#fff}.cls-3{fill:#e2bd68}.cls-4{fill:#bc6935}.cls-5{fill:#ad4325}.cls-5,.cls-6,.cls-7,.cls-8{fill-rule:evenodd}.cls-6{fill:#572213}.cls-7{fill:#f8efdb}.cls-8{fill:#2b1109}</style></defs><g id="Layer_2" data-name="Layer 2"><g id="_ÎÓÈ_1" data-name="—ÎÓÈ_1"><g id="pre-made_18" data-name="pre-made 18"><rect width="400" height="400" class="cls-1"/><circle cx="267.71" cy="166.26" r="73.26" class="cls-2" transform="translate(-21.75 41.66) rotate(-8.55)"/><path d="M400,183.05a438.14,438.14,0,0,1-54.21,9.14c-12.85,1.35-26,2.17-38.07,6.67-6.69,2.49-13.21,6.13-20.36,6.3-6.54.16-12.82-2.65-19.36-2.95-18.25-.86-31.12,16.64-45.77,27.56-4.25,3.16-9.3,6-14.56,5.3-11.45-1.42-18.76-18.17-29.84-15-2.58.75-4.81,2.57-7.47,2.91a12.17,12.17,0,0,1-6-1.16c-12.87-5.16-23.79-16-37.62-16.93-3-.19-6,.09-8.81-.67a24.78,24.78,0,0,1-6-2.8l-36.33-21a19.58,19.58,0,0,0-18,6C53.07,191.47,51,199.07,44.88,202c-7.1,3.41-15.25-1.39-21.65-6-2.74-2-5.64-4.15-6.72-7.35L0,179.5V400H400Z" class="cls-3"/><path d="M400,213.14a39.68,39.68,0,0,1-9.23-1.2c-15-3.88-27.89-17.89-43.12-15.1C336,199,328.3,210.33,317.46,215.17c-14.23,6.36-31.37.54-46.1,5.65-3.6,1.25-7.07,3.16-10.87,3.42-5.34.37-10.3-2.53-14.86-5.33l-34-20.82c-14.51,11.47-23.08,33.18-41.5,34.84-10.35.93-20.55-5.33-30.78-3.48-6.42,1.16-12.82,5.46-19,3.27-4.72-1.69-7.31-6.6-10.61-10.38-9.07-10.37-26.29-12.28-37.41-4.15-5.38,3.94-9.63,9.94-16.1,11.51-13.79,3.34-27.78-15.39-40.13-8.42-2.14,1.2-4,3.14-6.41,3.49-4.19.6-7.2-3.56-9.73-7.06V400H400Z" class="cls-4"/><path d="M376,243.3c-12.06,3-24.29-4.76-36.41-3.07-8.84,1.23-16.29,8.73-25.46,8.24-9.44-.51-14-15.66-24.87-14-8.3,1.28-12.9,12.07-21.52,13.42-10.27,1.61-22.32-8.3-31.79-3.2-10.67,5.74-15.73,20.69-27.85,23-13.41,2.5-22.14-8.85-34.71-9.62-11.2-.69-21.41,8.05-32.62,9.1-13.54,1.28-26.5-4.63-39.93-4.56-24.71.13-31.3,38.57-68.49,35.24C22,296.9,10.42,296,0,292.73V400H400V225.41C392.57,233.79,384.69,241.18,376,243.3Z" class="cls-5"/><path d="M400,340.14c-11.42-5.85-22.27-14.49-34.55-17.31s-24.44,4.87-37.24.78c-12-3.85-20.17-19.64-33-19.82-11.74-.17-23,6.1-35,6-9.09-.06-18.63-6.28-27.5-4.32-12.9,2.83-23.2,12.54-36.92,12-17.59-.7-29.81-23-47-20.75-13,1.68-22.38,15.71-35.44,17C98,315.17,81,304.31,66.48,308.3s-23.05,21.18-39.55,19C16.79,325.89,8.49,318.81,0,311.88V400H400Z" class="cls-6"/><path d="M225.07,108.26c-3.71-1.42-8.54-.61-12.4-.72a370,370,0,0,0-50.33,2c-4.27.45-8.19,2.55-12.48,2.86-11.09.79-22.4,0-33.44,1.12-10.41,1-20.65,3.46-31,4.44-15.13,1.44-26.32,1-41.65,4.46l-9.34-1c-7.7.73-14.41,1.38-12.35,10,.31,1.32-.44,3.92.84,4.78,8.06,5.45,15.48-2.58,23.27-3.56,4.7-.59,13.38.6,18.13,1.42,8.5,1.47-5.86,6.43-1.74,9.6,9,6.94,22.63,5.8,33.35,6.75,11.17,1,20.45-4.85,31-7.2,4.87-1.08,9.81,0,14.72-.73,15.62-2.24,41.44-7.22,56.53-5,8,1.19,16.69,2.91,24.75,2.95,7,0,44.15-7.29,44.55-12.86.65-9-30.57-2.69-37.46-8.12C226,116.31,231.06,110.56,225.07,108.26Z" class="cls-7"/><path d="M400,81.54A212.77,212.77,0,0,0,375.77,80l-10,.69c-5.66.57-11.14,3-16.78,3.34-7.1.39-14.29-1.08-21.37-1.35-8.82-.34-57.14,8.42-50.25,16,4.45,4.93,12.08,2.53,17.6,1.53,18.71-3.41,36.39,5.56,54.76,5.66,7,0,15.19-3.35,22.15-4.57,3.94-.68,16.63-.7,28.14-1.61Z" class="cls-7"/><path d="M0,20.79V61.87a14.33,14.33,0,0,0,2.29.27C16.2,62.6,29.84,52,44.16,50.6c41.78-4,87.57,3.14,128.6-4.38,19.34-3.55,36-15.06,55.55-18.65,44.55-8.17,99.08,5,139.44-18.15,2.17-1.24,6.5-3.19,5.65-6.29A6.39,6.39,0,0,0,371.09,0h-253C75.39,5.64,32.28,12.7,0,20.79Z" class="cls-7"/><path d="M400,389.88a43.8,43.8,0,0,0-4.42-1.86c-23.5-8.3-51.31-7.07-74.82-14.25-16.7-5.1-50.53-20.92-65.87-30.1-7.22-4.32-9.75-12-15.91-17.29-4.95-4.27-12.71-4-18.28-7.37-8.57-5.2-14.66-17.72-25.51-18.36-13.07-.77-16.74,11-27.33,14.79-11.63,4.18-25.87,1.55-37.37,6.39-8,3.38-14.51,10.55-23.39,11.93-17.93,2.79-35.23,0-53.16,1.71-11,1.08-20.42,7.41-32.31,7.78-6.94.21-14.29-.69-21.63-1.48V400H400Z" class="cls-8"/><path d="M78.77,219.71a23.54,23.54,0,0,0-3.94.62,25.42,25.42,0,0,0-3.76,1.24,31.23,31.23,0,0,0-5.16,2.75,43.41,43.41,0,0,0-4.53,3.51,44.42,44.42,0,0,1,8.72-3.26,37,37,0,0,1,5.31-.95c1.2-.13,2.37-.2,3.53-.21a34.57,34.57,0,0,1,5.29.34,48.18,48.18,0,0,1,5.3,1.05c1,.24,1.9.51,2.87.8-.65.07-1.31.16-2,.28A30.47,30.47,0,0,0,81.56,229a29.92,29.92,0,0,0-4.69,3.09,26.51,26.51,0,0,0-6,7.05,22.51,22.51,0,0,0-2.79,7.7A22.63,22.63,0,0,1,71,242.22a32.08,32.08,0,0,1,3.71-3.86,41.74,41.74,0,0,1,4.18-3.22c1.13-.77,2.3-1.5,3.51-2.16a1.07,1.07,0,0,0-.14.16,12.37,12.37,0,0,0-1.7,2.63A17,17,0,0,0,79.16,240a32.36,32.36,0,0,0-.44,6.43c.52-1.51,1.08-2.81,1.64-4.05a29.7,29.7,0,0,1,2-3.68,15.64,15.64,0,0,1,2.45-3,12.19,12.19,0,0,1,3-2.16,19.17,19.17,0,0,1,6-1.77l.42-.06-1.11.68a25.87,25.87,0,0,0-5.75,4.89,19,19,0,0,0-2.58,3.82A16.93,16.93,0,0,0,83.66,244a20.39,20.39,0,0,0-.78,4.42,30.35,30.35,0,0,0,.4,6.51,41,41,0,0,1,1.09-4.28,34.76,34.76,0,0,1,1.52-4,26.61,26.61,0,0,1,2-3.58,23.72,23.72,0,0,1,2.41-3.18A25.24,25.24,0,0,1,94.84,236a19.4,19.4,0,0,0-1.44,2.45A17.07,17.07,0,0,0,92.06,242a14.58,14.58,0,0,0-.4,2.48,17.78,17.78,0,0,0,.08,3.71,24.08,24.08,0,0,0,1.35,5.24,31.45,31.45,0,0,1,.47-3.61,34.68,34.68,0,0,1,.82-3.41,32.4,32.4,0,0,1,1.11-3.19,25.9,25.9,0,0,1,1.36-3A20.19,20.19,0,0,1,99.9,236c.48-.5,1-1,1.52-1.45a39.45,39.45,0,0,0-1.9,4.69A33.63,33.63,0,0,0,97.93,246a15.89,15.89,0,0,0-.1,2.37,14.25,14.25,0,0,0,.24,2.4,11.56,11.56,0,0,0,.85,2.81,8.74,8.74,0,0,0,.87,1.48,154.14,154.14,0,0,0-2.68,24.13,126.94,126.94,0,0,0,5.22,40.23,6.88,6.88,0,0,0-.43.7c-.17-.25-.33-.5-.48-.74a14,14,0,0,0-2.18-2.76,9,9,0,0,0-1.95-1.13,2,2,0,0,0-1.84.4,2,2,0,0,0-.63,1.78,15.21,15.21,0,0,0,.57,2.07c1.27,4.24,3,6.69,4.1,10.29a22.07,22.07,0,0,1,.83,4.29,1.83,1.83,0,0,0,2,1.65l.3-.05.13.26,0,.1a1.83,1.83,0,0,0,1.09,2.35,22.81,22.81,0,0,0,7.4,1,20.74,20.74,0,0,0,7.44-1.23c1.87-.82,5.14-4.2,6.86-7.63a10.57,10.57,0,0,0,1.25-4.24,4.72,4.72,0,0,0-1.31-3.59,2.54,2.54,0,0,0-3.12-.39l-.06,0a4.7,4.7,0,0,0-.76-1.22,4.06,4.06,0,0,0-2-1.25l-.43-.11c1.33-2.52,2.6-5.05,3.79-7.63a99.4,99.4,0,0,0,5.47-14.46c2.15-7.47,3-15.3,4.63-22.92.07-.34.15-.68.22-1v0c.09.44.17.89.27,1.33s.17.86.27,1.29.15.57.24.85c.14.48.32.85.47,1.31a10.59,10.59,0,0,1,.67,2.46,7.35,7.35,0,0,0,1.3-1.57,6.6,6.6,0,0,0,.58-1.23,6.42,6.42,0,0,0,.32-1.08,5.57,5.57,0,0,0,.11-1.08,13.9,13.9,0,0,0-.39-3.13c-.07-.35-.16-.69-.25-1l1.45.68a28.73,28.73,0,0,1,2.78,1.59c.55.36,1.08.74,1.61,1.12s1.1.73,1.66,1.16,1.12.8,1.7,1.3,1.12.93,1.71,1.53a15.79,15.79,0,0,0-.49-2.7,11.11,11.11,0,0,0-.67-1.75,9.64,9.64,0,0,0-.79-1.36,9,9,0,0,0-1-1.21,13.23,13.23,0,0,0-1.61-1.37,19.87,19.87,0,0,1,4.23.78,18.7,18.7,0,0,1,2.67,1.05c.87.41,1.75.84,2.69,1.38s1.77,1,2.76,1.64,1.79,1.11,2.8,1.8a40.5,40.5,0,0,0-2.57-4.13,18.76,18.76,0,0,0-2.2-2.49,13,13,0,0,0-1.79-1.42,11.56,11.56,0,0,0-1.75-1c.59,0,1.17.1,1.75.17,1.32.17,2.62.4,3.89.69a31.9,31.9,0,0,1,3.81,1,22.33,22.33,0,0,1,3.67,1.64,18.19,18.19,0,0,1,3.4,2.45,16.28,16.28,0,0,0-5.51-6.39,18.45,18.45,0,0,0-2.51-1.46,18.06,18.06,0,0,0-2.71-1,30.6,30.6,0,0,0-8.47-1.16q-.48,0-1,0l.86-.25q2-.57,4.11-1c1.38-.28,2.76-.5,4.13-.67.93-.11,1.84-.21,2.75-.28a30.59,30.59,0,0,1,4.16-.07,15.55,15.55,0,0,1,6.84,1.83,14.1,14.1,0,0,0-4.35-3.29,17.35,17.35,0,0,0-3.52-1.27,19.43,19.43,0,0,0-3.08-.53,21.15,21.15,0,0,0-3.09-.09,30.72,30.72,0,0,0-3.55.36c.51-.19,1-.37,1.55-.54,1.73-.59,3.48-1.1,5.21-1.52,1.18-.29,2.35-.55,3.51-.76s2.38-.41,3.54-.51a20.55,20.55,0,0,1,5.35.17,12,12,0,0,1,5.06,2.07,12.71,12.71,0,0,0-5.72-3.94,19.09,19.09,0,0,0-4.66-1,25.77,25.77,0,0,0-4-.1,29.52,29.52,0,0,0-3.9.45,46.36,46.36,0,0,0-7,1.88c.81-.48,1.63-.92,2.46-1.33a33.79,33.79,0,0,1,5.23-2.05A34.78,34.78,0,0,1,163.8,251a42.57,42.57,0,0,1,5.82-.4,53,53,0,0,1,6,.34,42.74,42.74,0,0,0-5.56-1.82,31.82,31.82,0,0,0-5.88-.9,24.52,24.52,0,0,0-4,.07,22.77,22.77,0,0,0-4,.72c-.51.14-1,.29-1.51.45l.71-.32a33.14,33.14,0,0,1,4.71-1.71,27.87,27.87,0,0,1,5-.94,25.82,25.82,0,0,1,5.27,0,23.7,23.7,0,0,0-7.62-1.87,22.45,22.45,0,0,0-5.37.29,21.35,21.35,0,0,0-3.5.88,26.79,26.79,0,0,0-4.9,2.26,36,36,0,0,0-7.1,5.41l-.51.51c.34-.88.7-1.76,1.07-2.62q.78-1.77,1.65-3.42c.4-.74.78-1.47,1.21-2.18a17.86,17.86,0,0,1,2.68-3.56,13.24,13.24,0,0,1,3.79-2.75,12.6,12.6,0,0,0-4.66,1.17,13.55,13.55,0,0,0-2.81,1.77,15.72,15.72,0,0,0-2,1.92,17.12,17.12,0,0,0-1.64,2.19,37.62,37.62,0,0,0-3.4,7.22c-.25.68-.48,1.35-.71,2a1.5,1.5,0,0,0,0-.2c.13-1.11.28-2.22.45-3.32s.37-2.19.58-3.27c.14-.72.27-1.44.42-2.15.23-1.11.45-2.17.76-3.21a16.59,16.59,0,0,1,2.3-5.17,14,14,0,0,0-3.34,2.78,16.27,16.27,0,0,0-1.74,2.39,17.34,17.34,0,0,0-1.15,2.18,18.76,18.76,0,0,0-.85,2.28,39.54,39.54,0,0,0-1.34,7c-.08.69-.14,1.37-.19,2.05-.07-.25-.14-.51-.2-.76-.19-.76-.36-1.51-.52-2.25-.11-.5-.24-1-.35-1.47a14.67,14.67,0,0,1-.45-2.69,7.57,7.57,0,0,1,.3-2.89,7.2,7.2,0,0,0-2,2.36,9.3,9.3,0,0,0-.77,2,10.71,10.71,0,0,0-.31,1.74,10,10,0,0,0,0,1.73,22.84,22.84,0,0,0,1,4.92c.12.41.25.82.38,1.22l-.61-.66a28.48,28.48,0,0,1-2-2.4c-.27-.35-.56-.65-.81-1a12.24,12.24,0,0,1-1-1.43c-.18-.37-.38-.68-.54-1.09a11.53,11.53,0,0,1-.7-2.08v0c.75-5.29,1.3-10.6,1.74-15.91.59-7,1-14.07,1.4-21.12.26-.36.51-.72.74-1.11a11.84,11.84,0,0,0,1-2.08,11.09,11.09,0,0,0,.69-3.78,19,19,0,0,0-.53-4.47c.65,1.18,1.24,2.33,1.76,3.49.36.82.69,1.64,1,2.5s.64,1.66.91,2.58.54,1.75.76,2.76.43,1.85.59,2.95a25.78,25.78,0,0,0,1.08-3.39,16.11,16.11,0,0,0,.34-2.4,12.63,12.63,0,0,0,0-2,11.42,11.42,0,0,0-.32-2,23.22,23.22,0,0,0-2.27-5.58l-.07-.12c.36.29.7.59,1,.89a20.09,20.09,0,0,1,3.67,4.47,28.42,28.42,0,0,1,1.65,3.26c.49,1.13,1,2.28,1.38,3.53s.8,2.42,1.16,3.76.69,2.53,1,3.93a42.63,42.63,0,0,0,.66-5.89,25.16,25.16,0,0,0-.24-4,17.7,17.7,0,0,0-.59-2.68,19,19,0,0,0-1.65-3.84,20.89,20.89,0,0,0-4.4-5.42,27,27,0,0,0-4.25-3.08c1.55.11,3.11.15,4.67.14.93,0,1.87,0,2.8,0,.28.22.56.46.84.7.9.78,1.77,1.67,2.66,2.59s1.78,1.84,2.63,2.78,1.8,2,2.6,2.94a37.57,37.57,0,0,1,2.45,3.16,27.26,27.26,0,0,0-1.11-4.06,30.46,30.46,0,0,0-1.7-3.87,25.52,25.52,0,0,0-1.79-2.91c-.37-.54-.78-1-1.19-1.53l2-.11c.84,0,1.67-.13,2.51-.2l2.53-.19a44.36,44.36,0,0,1,5.17-.12,31.13,31.13,0,0,0-5.08-2,29,29,0,0,0-3.56-.79c-.84-.13-1.67-.23-2.52-.29-1.25-.09-2.5-.09-3.75-.09l-1.5,0a11.39,11.39,0,0,0-3.77-1.71c2.38-1.33,4.74-2.68,7.11-4l3.59-2,2.37-1.39c1.32-.79,2.61-1.57,3.94-2.34,2-1.18,4-2.32,6.16-3.3a42.61,42.61,0,0,0-8.73,1.68c-1,.29-1.89.6-2.82.95s-1.83.74-2.72,1.16c-2.65,1.24-5.21,2.69-7.75,4.14-1.77,1-3.53,2-5.28,3.06a71.08,71.08,0,0,1,6.43-6.61c1.66-1.51,3.4-3,5.16-4.37,1.18-.95,2.36-1.89,3.53-2.8,1.55-1.2,3-2.35,4.57-3.4a48.62,48.62,0,0,1,4.91-3.07,35.36,35.36,0,0,0-4.6,1.07,39.17,39.17,0,0,0-4.46,1.67c-1,.43-1.9.9-2.84,1.41s-1.83,1.06-2.71,1.66a57.38,57.38,0,0,0-7.37,6l-.34.32c1.19-2.24,2.36-4.48,3.37-6.8.38-.86.73-1.74,1-2.63s.6-1.79.86-2.71c.38-1.38.71-2.74,1-4.16s.42-2.78.55-4.22c-.76,1.61-1.6,3.08-2.47,4.63s-1.72,3-2.59,4.48c-.69,1.19-1.35,2.38-2,3.59-1,1.81-1.95,3.64-2.93,5.47q-1.06,2-2.12,4c.19-.82.39-1.65.6-2.48.67-2.66,1.46-5.35,2.33-8,.55-1.66,1.14-3.28,1.73-4.9s1.2-3.27,1.84-4.85,1.37-3.25,2.15-4.77a34.29,34.29,0,0,1,2.71-4.56,28.64,28.64,0,0,0-3.84,3.52,36.54,36.54,0,0,0-3.25,4.13c-.65,1-1.26,2-1.84,3s-1.09,2.06-1.56,3.13a70,70,0,0,0-3.43,9.85q-.29,1-.54,2.07c0-.78.06-1.56.11-2.34.11-1.77.26-3.54.48-5.29s.49-3.48.84-5.19c.23-1.15.48-2.28.76-3.41a48.82,48.82,0,0,1,1.5-5.05,32.73,32.73,0,0,1,4.08-8,28.66,28.66,0,0,0-4,3.9,29.37,29.37,0,0,0-3.18,4.67,30.68,30.68,0,0,0-1.62,3.43,31.45,31.45,0,0,0-1.19,3.59,54.77,54.77,0,0,0-1.64,11.1c-.1,1.65-.14,3.29-.14,4.93-.38-2.51-.56-6.54-1-10.83-.1-1-.23-2-.39-3-.25-1.53-.56-3-.93-4.5a34.76,34.76,0,0,0-1.6-4.9c-1.25-2.94-2.76-5.15-4.65-6.07a9.22,9.22,0,0,1,2.37,4.85,34.4,34.4,0,0,1,.6,3.59c.17,1.36.27,2.78.38,4.25s.19,2.86.29,4.29c.12,1.77.25,3.52.36,5.18l.09,1.3a22.12,22.12,0,0,0-1.7-2.41,17.91,17.91,0,0,0-2.49-2.51,14.21,14.21,0,0,0-3-1.92,12.93,12.93,0,0,0-4.07-1.18,15.05,15.05,0,0,0-6,.61,14.14,14.14,0,0,1,7.47,2.06,15,15,0,0,1,3.35,2.86,24.83,24.83,0,0,1,1.82,2.32,31.14,31.14,0,0,1,2.3,3.91c.68,1.37,1.3,2.8,1.86,4.26.1.25.19.49.28.74a20.83,20.83,0,0,0-3.33-3,16.69,16.69,0,0,0-3.75-2.05,14.6,14.6,0,0,0-2.76-.74,14.26,14.26,0,0,0-4.23-.06,16.22,16.22,0,0,0-5.72,2,18.09,18.09,0,0,1,4-.09,17.89,17.89,0,0,1,3.72.73,19.23,19.23,0,0,1,3.37,1.42,20.27,20.27,0,0,1,3,1.92,20.52,20.52,0,0,1,3.34,3.19l-1.05-.29a26.28,26.28,0,0,0-6.44-.78,20.19,20.19,0,0,0-3.89.37,15.32,15.32,0,0,0-2.51.71,16.42,16.42,0,0,0-7.63,5.64,18,18,0,0,1,3.47-1.49,24.73,24.73,0,0,1,3.52-.85,31.4,31.4,0,0,1,3.51-.39,34,34,0,0,1,3.5-.1,27.21,27.21,0,0,1,5.55.71,24.27,24.27,0,0,1,5.33,1.9l0,0a30.12,30.12,0,0,0-5.35-1.16,23.08,23.08,0,0,0-6.16,0,18,18,0,0,0-3.63.9,14.82,14.82,0,0,0-2.24,1.07,16.35,16.35,0,0,0-3,2.2,20.45,20.45,0,0,0-3.34,4.19,26.88,26.88,0,0,1,6.3-3.06,28.38,28.38,0,0,1,3.18-.88,28.77,28.77,0,0,1,3.19-.56,24,24,0,0,1,5.22,0c.79.08,1.58.2,2.38.35a31,31,0,0,0-4.44,2.27,23.51,23.51,0,0,0-2.59,1.81,21.54,21.54,0,0,0-4,4.36l-.07-.07a18,18,0,0,0-2.11-2.08,21,21,0,0,0-3.64-2.38,25.42,25.42,0,0,1,2,3,30.44,30.44,0,0,1,1.55,3.14c.2.46.38.93.55,1.39l0,.11.06,0c.21.57.41,1.15.6,1.73.35,1.07.67,2.14.93,3.24a36.68,36.68,0,0,1,.84,5.39c.05.6.09,1.21.12,1.82a23.37,23.37,0,0,0-3.8-5.69,22.79,22.79,0,0,0-6.7-5.06,22.09,22.09,0,0,0-4.7-1.74,21,21,0,0,0-3.27-.5,23.7,23.7,0,0,0-4.9.15,28.29,28.29,0,0,0-6.9,1.94,32.56,32.56,0,0,1,4.84,0,34.11,34.11,0,0,1,9,1.85,26.6,26.6,0,0,1,4.1,1.75,21,21,0,0,1,5.59,4.25,20.7,20.7,0,0,1,3.66,5.5,46.72,46.72,0,0,0-7-4.2,45.79,45.79,0,0,0-7.67-2.93,36.14,36.14,0,0,0-5-1.06,31.64,31.64,0,0,0-5.14-.22,30.42,30.42,0,0,0-5.07.63,29.08,29.08,0,0,0-4.83,1.49,33.89,33.89,0,0,1,4.93.07c1.61.11,3.18.34,4.8.61s3.1.62,4.66,1,3.06.76,4.58,1.23,3.18,1.06,4.73,1.69l-.85-.22A36,36,0,0,0,78.77,219.71Zm45.07,40.54a18.17,18.17,0,0,0,2.85,3.66c.89.95,1.87,1.86,2.78,2.85-.9.65-1.78,1.33-2.62,2-.32.28-.64.55-.94.85a10.54,10.54,0,0,0-.87.9,5.63,5.63,0,0,0-.51.67,10,10,0,0,0-.62,1.17c-.39.82-.54,1.36-.93,2.19a14.71,14.71,0,0,0,1.47-.17,10.66,10.66,0,0,0,1.38-.33,6.41,6.41,0,0,0,.87-.31,7.15,7.15,0,0,0,.77-.42c.36-.24.7-.51,1-.78-.07.14-.14.27-.2.41-.2.39-.39.78-.56,1.17s-.22.54-.32.82c-.15.47-.23.87-.36,1.35-.24.9-.31,1.54-.63,2.45a12.31,12.31,0,0,0,1.82-.66l.42-.21c-1.17,6.35-2.07,12.78-3.85,19a95.72,95.72,0,0,1-5.27,13.94c-.63,1.36-1.28,2.7-2,4a5.23,5.23,0,0,0-.66-1.23,1.84,1.84,0,0,0-2.07-.78,2.12,2.12,0,0,0-1.19.82c-.24.34-.49,1.25-.71,1.65l-1.39,2.89-.31-.1c.58-4.55,1.29-9,2.09-13.38,2.68-14.65,6.32-28.78,9.19-44.48l.42-2.39c.06.3.13.59.22.89A7.11,7.11,0,0,0,123.84,260.25Zm-4.26-56.59,2.29-1.84c-.24,1.2-.46,2.41-.59,3.64,0,.47-.07.95-.08,1.43s0,1,0,1.45c0,.76.12,1.44.21,2.2v0l-.22.13a20.41,20.41,0,0,0-2.54,1.92,21,21,0,0,0-1.53,1.46c-.47.51-.92,1-1.35,1.61l-.14.19.27-.69,1.16-3c.4-1,.76-2,1.18-3a21.36,21.36,0,0,1,2.69-4.86,16.49,16.49,0,0,0-3.46,2.4,18.25,18.25,0,0,0-2,2.06,22.19,22.19,0,0,0-1.42,1.89q-.39.6-.75,1.23c.14-.57.28-1.13.41-1.68.28-1.19.51-2.32.77-3.38l.84-.4c.43-.22.82-.37,1.25-.62a7.54,7.54,0,0,0,.77-.47c.36-.25.71-.52,1.07-.79S119.23,204,119.58,203.66Zm-13.07,2.4c.6-.34,1.19-.65,1.83-1s1.19-.64,1.8-1l2.11-1.2a47.23,47.23,0,0,1,5-2.57l.58-.24-.66.5-.63.5a13.57,13.57,0,0,0-3.09,3.2,26.72,26.72,0,0,0-1.63,2.58c-.41.71-.79,1.45-1.16,2.24s-.66,1.51-1,2.31c-.35,1-.67,2-1,3a23.07,23.07,0,0,0-1.51-5.06,15.62,15.62,0,0,0-1.16-2.22l-.39-.58Zm-2.34,31.84,0,0V238l-.08.06Zm1.09,9.12s0,0,0,.06a11.23,11.23,0,0,0,.93,1.79,11.54,11.54,0,0,0,1.47,1.91,9.87,9.87,0,0,0,2.86,2,10.22,10.22,0,0,1-1.22-2.56,16.45,16.45,0,0,1-.62-2.6c-.16-.85-.23-1.7-.33-2.6s-.18-1.72-.24-2.61-.08-1.88-.07-2.82a15.62,15.62,0,0,0,2.25,3.61,8.62,8.62,0,0,0,1.13,1.13,11,11,0,0,0,1.29.95,12.39,12.39,0,0,0,1.69.9,17.52,17.52,0,0,0,2.68.88c-.64-.79-1.07-1.51-1.61-2.32s-.9-1.5-1.35-2.27c-.26-.45-.48-.88-.75-1.32a30.45,30.45,0,0,1-1.66-3,22.78,22.78,0,0,1-1.07-2.71,13.7,13.7,0,0,0,1.06,1,12.15,12.15,0,0,0,3,1.85,6.86,6.86,0,0,0,1.11.36,8.86,8.86,0,0,0,1.15.17,11.06,11.06,0,0,0,1.41,0,16.7,16.7,0,0,0,2.09-.3c-.71-.58-1.17-1.06-1.83-1.66-.3-.27-.54-.51-.85-.77s-.53-.48-.83-.71-.65-.5-1-.74a26.14,26.14,0,0,1-2.25-1.71l-.55-.5c.69-.4,1.37-.81,2.05-1.22l1-.63,1-.65c.22-.16.42-.32.63-.5s.58-.57.91-.89a20.37,20.37,0,0,1,1.71-1.63,9.5,9.5,0,0,0-1.76-.51,7,7,0,0,0-1.21-.09,2.94,2.94,0,0,0-.42,0l.45-.51c.38-.43.73-.86,1.08-1.29s.68-.93,1-1.38a12.12,12.12,0,0,1,2.15-2.25,8.77,8.77,0,0,0-2.45,0,9.67,9.67,0,0,0-2.85,1c.7-1.25,1.44-2.49,2.16-3.73.49-.86,1-1.7,1.43-2.54.58-1,1.09-2,1.66-3a.5.5,0,0,1,0,.12c.41-.69.77-1.25,1.15-2l.11-.2c.18-.27.37-.54.56-.8-.55,8.82-1,17.63-1.71,26.42-.65,7.8-1.53,15.58-3,23.32-2.86,15.71-6.51,29.83-9.18,44.48-.79,4.35-1.5,8.75-2.08,13.24a7.72,7.72,0,0,0-2.13.11,123.29,123.29,0,0,1-4.78-38.08A159.14,159.14,0,0,1,105.26,247Zm-3.67-.42c.22-1,.47-2,.75-3.07l0-.1c-.28,1.11-.55,2.21-.81,3.32Z" class="cls-8"/></g></g></g></svg>