<svg xmlns="http://www.w3.org/2000/svg" xmlns:xlink="http://www.w3.org/1999/xlink" id="Layer_1" x="0" y="0" version="1.1" viewBox="0 0 280.1 266.2" xml:space="preserve" style="enable-background:new 0 0 280.1 266.2"><style type="text/css">.st0{fill:#eed7a4}.st1{fill:#e2bd68}.st1,.st2,.st3{fill-rule:evenodd;clip-rule:evenodd}.st2{fill:#e6efec}.st3{fill:#ce954c}.st4{fill:#c6dde5}.st4,.st5{fill-rule:evenodd;clip-rule:evenodd}.st5,.st6{fill:#bc6935}.st7{fill:#90b9cb}.st7,.st8,.st9{fill-rule:evenodd;clip-rule:evenodd}.st8{fill:#fff}.st9{fill:#3e1919}.st10,.st11{fill:#572213}.st11{fill-rule:evenodd;clip-rule:evenodd}</style><g><g><g><rect width="280" height="400" x=".1" y="-96.4" class="st0"/></g></g></g><g><g><g><path d="M269.5,72.8c-5-0.4-7.6-8-13.5-6.2c-2.2,0.7-3.9,3.4-5.4,5.1c-1.8,2-4.8,3.1-6.3,5.1 c-5.7,7.4-2.9,13.1-14.8,15.2c-3.6,0.6-6.8-1.9-10.3-2.4c-2.7-0.4-5.4,0.9-8.1,0.9c-5.2-0.1-9.7-3.3-15-1.3 c-7.6,2.9-9.5,13.6-14.4,19.4c-4.9,5.8-11.5,3.1-17,7c-5.1,3.7-5.5,12.4-11.2,15.9c-4.9,3.1-10.4-0.8-15.5-0.6 c-4.7,0.2-6.4,4.4-10.6,5.3c-6,1.4-12.3-1.1-18.5,0.5c-6.8,1.8-7.6,8.8-12.7,12.4c-3,2.1-7,0.1-10.4,1.1c-4.3,1.2-8,5.8-13.9,7.4 c-2.7,0.7-20.4,0-23.4-1.2c-4.1-1.7-9.2-5.5-13.7-5.4c-4.8,0.1-8.6,3.6-13.2,4.5c-6.8,1.3-13.7-0.7-20.6,0.6 c-0.4,0.1-0.8,0.2-1.2,0.2v76.2h279.3V72.2C276.2,71.5,272.8,73,269.5,72.8z" class="st1"/></g></g></g><g><g><g><path d="M146.9,201.7c-2.1-0.4-4.3-0.4-6.4-0.6c-0.8-0.1-1.6-0.5-2.4-0.6c-1-0.1-2.1,0.1-3-0.4 c-2.2-1.2-2.8-2.6-4.6-4.1c-1-0.8-2.2-1.5-3.1-2.4c-0.9-0.9-1.6-2.1-2.7-3c-1-0.9-2.2-1.1-3.1-2c-1.2-1.3-2-3-3.3-4.3 c-0.8-0.8-1.7-1.4-2.5-2.2c-1.1-1.3-2.3-2.6-3.6-3.8c-1-0.8-2.4-1-3.3-1.9c-2-2.2-1.9-5.3-3-8c-0.5-1.3-1.3-2.4-1.7-3.7 c-0.5-2-1.4-3.9-2.4-5.7c-1-1.5-2.4-2.5-3.5-4c-1.5-2-1-4.7-4.2-5.1c-0.4,1.9-0.3,4.7,0.7,6.5c0.4,0.7,1.1,1.2,1.5,2 c0.8,1.9,1.4,3.8,1.9,5.7c0.3,1,1.1,1.5,1.4,2.5c0.6,2,0.8,4,1.2,6c0.4,0.9,0.6,1.8,0.9,2.7c0.2,2.6-0.4,5.6,0.7,8.1 c1,2.1,4.5,2.5,5.5,5.2c0.9,2.3,0.2,5.1,0.2,7.4c0,1.1,0.6,2,0.7,3s-1.6,2.8-0.1,3.6c1.5,0.8,5.5,0,7.1,0.1 c1.2,0.1,2.4,1.5,3.6,1.5c2.4,0.1,5.7,0.1,8.1,0c2.9-0.1,5.4,0.6,8.2,0.7c3.9,0.1,7.1-1.5,11-1.4c0.4,0,3.7,0.2,3.5-0.6 C150.4,202.3,147.3,201.8,146.9,201.7z" class="st2"/></g></g></g><g><g><g><path d="M263.5,183.5c-6.3-0.7-9.6,4.8-15.2,6.1c-5.6,1.3-12.1-2.2-18-1.7c-5,0.4-8.6,4.9-13.6,5.5 c-6.6,0.7-11.3-6.5-18-6.7c-5.3-0.2-9.2,3-14.2,3.9c-3.4,0.6-7.1-1.4-10.6-1.4c-4.6,0-8.9,2-13.5,1.9c-4.9-0.1-8.1-5.1-12.7-6.4 c-4.9-1.3-9.6,1.2-14.3,0.2c-5.2-1-9.7-4.2-14.6-6.1c-4.6-1.7-10.1-2.1-15-2.5c-14.3-1.1-16.8,11.3-26.3,11.3 c-5.2,0-10.1-1.9-15.3-1.5c-4.3,0.3-8.2,3.2-12.5,2.9c-4.8-0.2-8.2-3.9-13.3-3.1c-4.7,0.7-6.6,5.5-10.7,7.4 c-3.6,1.6-8.3-1.5-12.2-1c-3.3,0.4-5.1,3.9-8.3,4.3c-2.2,0.3-3.7-0.9-5.2-2.2v99.8h280V192C274.2,189.6,269.8,184.2,263.5,183.5z" class="st3"/></g></g></g><g><g><g><path d="M78.8,192.9c0.4-1.2,6.5-7.1,1.5-6.8c-7.4,1.5-9.3,6.8-12.1,13c-2.4,5.2-3.4,10.7-5.1,16.1 c-1.2,3.7-2.9,7.2-3.9,11c-1,3.8-0.8,7.8-2.9,11.4c-2.3,4-6,7.1-10.4,8.6c-1.7,0.5-4.3,0.4-5.7,1.9c0,0,3.8,0.7,4.1,0.7 c2.7,0.1,5.3,0,8-0.2c5.2-0.4,17.8,1.7,21.7-1.2c2.8-2.1,0.6-7.6,0-10.2s-1.4-5.6-1.1-8.2c0.2-1.4,1-2.6,1-4.1 c-0.1-4-0.3-8-0.2-12C73.9,207,77,198.7,78.8,192.9z" class="st4"/></g></g></g><g><g><g><path d="M278,221.5c-15.5-1.9-21.8,21.3-35.9,25.6c-9.5,2.9-17.1-6.9-26.9-6.2c-3.2,0.2-5.1,3-8.1,3.4 c-4.5,0.7-9.5-1-13.8,1.1c-2.4,1.1-2.6,4.6-5.3,5.4c-4.9,1.5-12.1-1.4-17.2-0.9c-4.1,0.4-7.8,3.1-11.9,3.1 c-5.4,0-12.9-6.4-20-6.7c-5.2-0.2-8.6,5-13.7,5c-4.9,0.1-9.7-1.7-14.5-1.9c-5.7-0.2-11,2.2-16.8,0.6c-9.1-2.5-17.3-8.2-26.7-10.5 c-4.8-1.2-9.5,0.6-14.3-0.9c-6.3-2-4.5-7.4-8.2-10.7c-4.1-3.5-8.6-3.4-12.9-6.1c-5.8-3.6-7-11.4-15.1-11.1 c-3.8,0.1-11,6.4-16.7,11v81.8h243.8c5-0.5,10-1,15.1-1.7c7-0.9,14.1-2.5,21.1-3.6V222C279.4,221.7,278.7,221.6,278,221.5z" class="st5"/></g></g></g><g><g><g><rect width="80" height="14.9" x="200.1" y="288.7" class="st6"/></g></g></g><g><g><g><path d="M141.5,283.7c-1.7-0.9-6.7-2-7.2-3.9c-0.2-0.8,0.7-1.7,0.2-2.4c-1.3-2.4-8-3.5-10.3-4.5 c-2-0.9-0.9-2-2.1-2.5c-2.4-1.1-5-1.9-7.5-2.8c-0.8-0.3-1.6-0.9-2.4-1.2c-1.1-0.3-2.1-0.7-3.2-1.1c-2.7-1.7,4.1-3,2.8-5 c-0.7-1-2.2-1.4-3.2-1.8c-3-1.1-6.3-1.3-9.2-2.7c-1.9-0.9-0.3-2.2-1-3.6c-0.5-1-2-1.2-2.8-1.8v0.6c0.1,1.2-0.9,2.2-0.8,3.2 c0.1,1,1.1,1.7,0.9,2.8c-0.2,0.8-1.6,3.1-1.5,4c0.3,2,4,1,4.3,3.3c0.2,1.3-1.5,2.3-1.8,3.4c-0.1,0.5,0.5,1,0.6,1.4 c0,0.3,0.2,3,0.2,3.3c-0.2,0.9-1.6,1.6-1.4,2.5c0.1,0.5,2.6,2.7,2.9,4.5c0.3,1.5-3,3.7-3.9,5.1c-0.3,0.5-1,1.8-0.5,2.3 c1.1,1,6.4,0.7,7.8,0.6c3.3-0.2,6.7,0,10-0.3c3.6-0.3,7.1-0.9,10.8-1c5.1-0.1,10.6-1.4,15.7-0.3c0.9,0.2,4.4,1.3,4.6-0.2 C143.8,284.7,142.1,284,141.5,283.7z" class="st7"/></g></g></g><g><g><g><path d="M208.3-9.6c-0.8-1.4-1.8-2.7-3-3.9c-1.1-1.5-2.4-2.8-3.9-4c-4.9-3.3-11.1-4.2-16.7-2.4l-2.1,0.4 c-0.9,0.5-1.8,1.1-2.6,1.8c-1.2,0.7-2.4,1.5-3.5,2.4c-0.8,0.8-1.4,1.7-2.2,2.5c-0.5,0.4-0.9,0.9-1.3,1.4c-0.9,1.8-1.6,3.8-2,5.8 c-0.6,1.9-0.8,4-0.8,6c0.2,1,0.6,2,1,3c0.3,0.9,0.4,1.9,0.7,2.8c0.8,2.3,2.1,4.3,3.8,6.1c1,1.2,1.7,2.5,3,3.4 c1.6,1.2,3.8,1.5,5.7,2c1.5,0.3,2.9,1.1,4.4,1.1c1.3-0.1,2.6-0.4,3.8-0.8c2.3-0.4,4.6-1,6.8-1.7c1.9-0.9,3.6-2,5.2-3.3 c0.6-0.7,1-1.5,1.4-2.3c0.4-0.8,1-1.4,1.5-2.2c1.5-3.4,2.5-7.1,2.8-10.8C210-4.8,209.3-7.3,208.3-9.6z" class="st8"/></g></g></g><g><g><g><path d="M267.2,275.2c-4.3,0.4-8.1-1.4-12.2-1.3c-3.9,0.1-7.6,1.7-11.4,1.9c-4.1,0.3-8.4-0.8-12.5-0.2 c-2.8,0.5-5.2,1.7-8.1,1.8c-20.1,0.8-40.4-0.2-60.4,1.6c-15.9,1.5-31.9,5.1-47.9,6.1c-11.4,0.7-23,0.4-34.4,0.9 c-3.4,0.1-6.8,1.4-10.2,1.4c-5.8,0.1-11.8-1-17.7-1.1c-5.3-0.1-10.8,0.7-16,0.3c-3.3-0.2-6.4-1.6-9.7-1.6 c-2.8-0.1-5.6,0.7-8.4,0.5c-5-0.4-11.8-1.7-18.2-2.5v20.7h280v-30.7C275.7,273.6,271.2,274.8,267.2,275.2z" class="st7"/></g></g></g><g><g><g><g><path d="M190.2,181.6c-1.6-1.4-3.2-2.7-5-4.1c-1.4-1.1-2.9-2.1-4.3-3.1l-1.4-1h-0.2c-1.1-0.1-2.2-0.1-3.3-0.1 c1.2,0.7,2.4,1.5,3.6,2.3c1.2,0.9,2.3,1.8,3.3,2.8c2.3,2.2,4.5,4.5,6.5,7c1.3,0.2,2.6,0.4,3.9,0.6c0.2-0.1,0.4-0.1,0.6-0.1h0 c0.3,0,0.5,0,0.8,0C193.2,184.4,191.7,183,190.2,181.6z" class="st9"/><path d="M197.8,181.4c-1.8-1.6-3.7-2.9-5.8-4c-1.3-0.7-2.5-1.2-3.9-1.7l-0.5-0.2c0.4,0.4,0.8,0.7,1.2,1.1 c1.1,1,2.2,2,3.1,3c2.1,2.2,4,4.6,5.5,7.3c1.7,0.4,3.4,0.9,5.1,1.4l0.5,0.1C201.9,185.8,200.1,183.4,197.8,181.4z" class="st9"/><path d="M181,180.6c-1.1-0.8-2.2-1.6-3.3-2.3c-1.5-1-3-1.8-4.6-2.6c-0.4-0.2-0.9-0.4-1.3-0.6 c0.8,0.9,1.6,1.9,2.3,2.9c1.4,2,2.6,4.1,3.6,6.3h0c1.5-1.3,3.4-2,5.4-1.9C182.4,181.7,181.7,181.1,181,180.6z" class="st9"/><path d="M232.1,199.7c-0.3-0.2-0.7-0.4-1.1-0.6c0.1,1,0.2,1.9,0.3,2.9h0c0.8-0.3,1.6-0.5,2.4-0.6 C233.3,200.8,232.7,200.2,232.1,199.7z" class="st9"/><path d="M182.1,184.9L182.1,184.9c1,0,1.9,0.1,2.8,0.1c-0.5-0.2-1-0.3-1.5-0.3C182.9,184.7,182.5,184.8,182.1,184.9 z" class="st9"/><path d="M238.9,185.8c0.1,0.6,0.1,1.1,0.2,1.7c0.1-0.3,0.1-0.6,0.2-0.8c-0.1-0.5-0.2-1.7-0.5-3 c-0.2-1.7-0.6-3.4-1.1-5c-0.1-0.4-0.3-0.8-0.5-1.1c0-0.1-0.1-0.1-0.1-0.2c-0.2,0.2-0.4,0.5-0.6,0.8l-0.1,0.1 c0.6,0.9,1,1.9,1.3,2.9C238.4,182.7,238.7,184.2,238.9,185.8z" class="st9"/><path d="M167.8,175.7c-0.6-0.5-1.2-1-1.8-1.5c-0.4-0.3-0.8-0.6-1.2-0.9c-0.7,0-1.4,0-2.1,0 c-2.3,0.2-4.5,0.9-6.5,2.1c0.7,0,1.5,0,2.2,0.2c0.6,0.1,1.2,0.3,1.8,0.5c1.9,0.7,3.8,1.7,5.4,2.9c2.3,1.8,4.1,4.1,5.1,6.8 c1.5-0.3,2.9-0.4,4.4-0.6c0.1-0.1,0.3-0.1,0.5-0.2l0.2,0c-1.2-1.8-2.6-3.5-4.1-5.2C170.6,178.3,169.2,176.9,167.8,175.7z" class="st9"/><path d="M237.4,177.3L237.4,177.3l0.2-0.1C237.5,177.3,237.4,177.3,237.4,177.3z" class="st9"/><path d="M234.4,184.7L234.4,184.7c-0.1,0.1-0.1,0.4-0.2,0.6c0.1-0.5,0.2-1.1,0.1-1.7c-0.1-0.5-0.1-1-0.2-1.5 c-0.1-0.8-0.3-1.6-0.6-2.3c-0.1-0.4-0.4-0.8-0.6-1.1c-0.4-0.4-1-0.6-1.5-0.3c-1.1,0.6-2,1.6-2.6,2.8c0.1,0.7,0.2,1.5,0.3,2.2 c0.2,1.6,0.3,3.2,0.5,4.8c0.2,1.9,0.5,3.9,0.8,5.8c0,0.3,0.1,0.6,0.1,0.8c1.4,0.4,2.8,1.1,3.9,2h0c0.3,0.2,0.6,0.5,0.8,0.7 c0-0.6,0-1.3,0-1.9c0-2.8-0.2-5.5-0.4-8.1C234.6,186.5,234.5,185.6,234.4,184.7z" class="st9"/><path d="M234.8,206.4L234.8,206.4c0.1-0.3,0.1-0.6,0.1-0.9c-0.3,0-0.7,0-1,0.1L234.8,206.4z" class="st9"/><path d="M239.3,189.6h0.4c0-0.5-0.1-1-0.1-1.5c-0.1,0.2-0.2,0.3-0.3,0.5C239.3,188.9,239.3,189.2,239.3,189.6z" class="st9"/><path d="M252.9,126.7c-1.7,0-3.6,0.1-5.5,0.2l-3.7,0.2c-1.4,0-2.9,0.1-4.2,0.1c-0.4,0.7-0.8,1.5-1.1,2.3 c-0.6,1.4-1.1,2.7-1.5,4.2l0.5-0.3c1.1-0.6,2.3-1.1,3.4-1.6c1.2-0.4,2.4-0.8,3.6-1.1c2.5-0.5,5-0.8,7.5-0.8v0 c3.3,0,6.6,0.5,9.7,1.5c-0.4-1.5-0.7-3-1.1-4.5C257.9,126.7,255.4,126.6,252.9,126.7z" class="st9"/><path d="M244.6,124.3c2.2-0.1,4.5-0.1,6.8,0c2.9,0.1,5.8,0.6,8.6,1.3c-0.4-1.5-0.8-2.9-1.2-4.4 c-0.3-1-0.6-1.9-0.9-2.9c-1.9-0.4-4.4,0.1-6.9,1.1c-1.2,0.5-2.3,1-3.5,1.6c-1.2,0.6-2.3,1.2-3.3,1.9c-0.9,0.5-1.7,1.1-2.5,1.7 h0.2C242.8,124.4,243.7,124.3,244.6,124.3z" class="st9"/><path d="M255.8,104.1l0.2-1.4c-0.1,0.2-0.4,0.3-0.6,0.4L255.8,104.1z" class="st9"/><path d="M162.6,180.5c-1.1-0.6-2.3-1.1-3.4-1.5c-0.8-0.3-1.6-0.5-2.4-0.7c-1.6-0.4-3.4-0.5-5-0.1 c-1.1,0.3-2.1,0.8-2.9,1.5c1.6-0.4,3.2-0.4,4.8,0c1.9,0.5,3.8,1.4,5.4,2.6c2,1.4,4,3.1,6.1,4.6h0c1.3-0.4,2.6-0.7,3.8-1 c-0.5-0.8-1.1-1.5-1.8-2.2C165.9,182.5,164.3,181.4,162.6,180.5z" class="st9"/><path d="M146.1,199.8c0.4-0.5,0.8-0.9,1.1-1.4c-0.2,0.2-0.4,0.4-0.6,0.7C146.4,199.3,146.2,199.5,146.1,199.8z" class="st9"/><path d="M156.1,175.3c1.7-1.7,3.8-3,6.2-3.7c-0.6-0.2-1.2-0.4-1.8-0.3c-0.9,0.1-1.8,0.6-2.4,1.2h0 c-1.2,0.9-2.4,2.1-3.3,3l0.9-0.1H156.1z" class="st9"/><path d="M267.1,159.9c-2.8,0.1-5.6,0.7-8.1,1.8l-1.1,0.4l1.9,0.7c3,1.1,5.9,2.2,8.2,2.9l0-0.1 c-0.2-1.6-0.5-3.1-0.7-4.7L267.1,159.9z" class="st9"/><path d="M240.7,163.4c-1.1,0.6-2.1,1.3-3,2.1c-1.1,0.9-2.1,1.8-3.1,2.8c1.1-0.2,2.2-0.5,3.2-0.9 c2.1-0.8,4.1-1.7,6.1-2.8c1.1-0.5,2.1-1,3.1-1.5v0c-0.9-0.1-1.8-0.2-2.7-0.2C243.1,162.7,241.9,162.9,240.7,163.4z" class="st9"/><path d="M246.5,232.6c-0.2,0.4-0.3,0.8-0.5,1.2h-0.1c0.2,0.5,0.5,1.1,0.8,1.6c0,0,0-0.1,0-0.1 c-0.1-0.7-0.2-1.3-0.2-2C246.5,233.1,246.5,232.8,246.5,232.6z" class="st9"/><path d="M269.5,228.9l1,0c-1.5-0.6-3.2-0.6-4.8,0c-0.8,0.3-1.6,0.6-2.4,1c-0.3,0.2-0.6,0.4-1,0.6 C264.6,229.4,267.1,228.9,269.5,228.9z" class="st9"/><path d="M257,245.8c-1.5,1-2.7,2.4-3.5,4c-0.5,1.2-0.9,2.4-1,3.7c1.2-2.4,3.1-4.5,5.4-6c-0.2-0.3-0.3-0.6-0.5-0.9 L257,245.8z" class="st9"/><path d="M256,244.3c-0.5-0.7-1.1-1.4-1.7-2c-0.1,0.1-0.2,0.2-0.4,0.3c-2.2,1-4,2.8-4.9,5.1c-0.6,1.5-1,3.1-1.1,4.8 c-0.1,1.2-0.1,2.5-0.1,3.8c0,1.3,0,2.6,0.1,3.9c0.1,2,0.2,4,0.5,5.9c0.1,0.2,0.1,0.4,0.1,0.5c0.2-0.8,0.4-1.6,0.4-2.4 c0.1-1,0.1-2,0.1-3c0-1.5,0-3.2,0.2-4.8c0.1-1.7,0.4-3.4,0.9-5l0,0C250.9,248.2,253.1,245.7,256,244.3z" class="st9"/><path d="M259.5,225.5c-0.8,0.6-1.4,1.4-2,2.2c-0.6,0.8-1.2,1.7-1.8,2.6c-0.3,0.5-0.7,1.1-1,1.6l0.6,1 c0.1-0.2,0.3-0.5,0.5-0.7c0.7-1,1.5-1.8,2.4-2.6c1.2-1.1,2.5-2,3.9-2.7v0c0.9-0.4,1.8-0.8,2.8-1 C262.6,224.4,261,224.5,259.5,225.5z" class="st9"/><path d="M253.1,237.7l-0.8-1.4c-0.3,0.6-0.6,1.2-0.8,1.7c0.5,0.1,0.9,0.3,1.4,0.5C253,238.2,253.1,238,253.1,237.7z" class="st9"/><path d="M260.6,231.8c-0.2,0.1-0.4,0.2-0.6,0.4c-1.3,1-2.5,2.1-3.5,3.4l0.7,1.4l0,0 C257.8,234.9,258.9,233,260.6,231.8z" class="st9"/><path d="M272.8,240.7c-2.2-0.4-4.4-0.4-6.6,0c-2.4,0.4-4.6,1.3-5.4,3.2c0.7,1.5,1.4,2.9,2,4.4 c4.3,10,7.7,20.4,10.2,31l0,0c0.5-0.1,1.1,6,1.4,5.5l-0.2-6.7c0.1-5.9,0.1-11.9,0-17.8c0-6.4-0.1-12.8-0.3-19.3v-0.1 C273.5,240.8,273.2,240.8,272.8,240.7z" class="st9"/><path d="M271.1,191.1c-1.1-0.4-2.2-0.7-3.4-0.7c-1.1,0-2.2,0.3-3.2,0.7c-1.1,0.5-2.2,1.1-3.4,1.6 c-1.5,0.8-3.2,1.4-4.9,1.8c-1.2,0.3-2.4,0.4-3.6,0.4c-1.5-0.1-2.9-0.4-4.3-0.8c-0.2,0.5-0.4,0.9-0.5,1.4c-0.5,2.3,0,4.8,2,7.7 c-1.3-1-2.4-2.2-3.2-3.6c-0.5,2.8-1.1,5.5-1.6,8.1c-0.6,2.8-1.2,5.4-1.6,7.8c0.7,0.9,1.5,1.8,2.2,2.7c0.9-1,1.9-1.9,3-2.7 c2.9-1.9,6.2-2.4,8.9,0c-2.8-1.5-5.4-0.4-7.5,1.7c-0.7,0.7-1.4,1.5-1.9,2.4c-0.2,0.3-0.4,0.7-0.6,1c0.9,1.3,1.8,2.7,2.7,4 c1-0.4,2.2-0.4,3.2,0.1c-0.9,0-1.8,0.4-2.4,1.1c0.6,0.9,1.2,1.9,1.8,2.9c0.4-0.7,0.8-1.4,1.3-2c0.6-0.7,1.2-1.4,1.9-2 c0.6-0.5,1.2-1,1.9-1.3c0.6-0.3,1.2-0.5,1.9-0.6c0.8-0.1,1.6-0.1,2.4,0.2c1.3,0.6,2.3,1.6,3,2.8c0.9-0.2,1.9-0.2,2.8-0.1 c1.2,0.1,2.3,0.5,3.2,1.2c0.8,0.6,1.4,1.4,1.8,2.2l0.3,0.1l0.3,0.1v-0.1c-0.2-5.6-0.5-11.2-0.8-16.7c-0.3-5-0.7-10-1.1-15 C271.5,195.5,271.3,193.3,271.1,191.1z" class="st9"/><path d="M272.5,232.4c-1-0.1-2-0.2-3.1-0.2c-2-0.1-4,0.3-5.9,1c-2.8,1.2-4.8,3.3-4.7,6.7v0c0.4,0.7,0.7,1.3,1,2l0,0 c1.4-2.3,4.5-3.8,7.8-4.4c2-0.3,4.1-0.3,6.1,0v-0.2l-0.1-4.6c0,0.3,0,0.7,0,1c-0.1-0.4-0.2-0.8-0.4-1.2L272.5,232.4z" class="st9"/><path d="M253,241c-0.3-0.2-0.6-0.4-0.9-0.6c-0.2,0.1-0.4,0.1-0.6,0.1h-0.4c-0.1,0.2-0.2,0.3-0.4,0.4 c-1.8,1-3.2,2.6-3.7,4.6C248.4,243.4,250.5,241.8,253,241z" class="st9"/><path d="M249.6,231.8c0,0.2,0,0.3,0,0.5c-0.1,1-0.2,1.9-0.2,2.8c0,1.2,0,2.2,0,3l0.2,0c0.3-1.5,0.7-3,1.1-4.4 C250.4,233,250.1,232.5,249.6,231.8z" class="st9"/><path d="M260.2,182.3c-0.7,0.3-1.3,0.7-1.9,1.2c-1.1,1-2.1,2.1-3.2,3.1c-0.8,0.6-1.5,1.3-2.3,2s-1.5,1.4-2.1,2.1 l-0.1,0.1c0.6,0,1.3,0,1.9-0.1c0.8-0.1,1.6-0.2,2.3-0.4c1.2-0.3,2.4-0.6,3.5-1.1c2.4-0.9,4.5-2,6.8-2.3c1.9-0.3,3.8-0.1,5.6,0.7 c-0.2-2.1-0.4-4.2-0.7-6.3c-1.4-0.2-2.8-0.2-4.1-0.2C264,181.3,262,181.7,260.2,182.3z" class="st9"/><path d="M243.8,183.6c0-0.4,0-0.7,0-1.1c-0.3,0.3-0.5,0.6-0.8,0.9c0.3,1.2,0.5,2.2,0.7,2.7 C243.8,185.3,243.8,184.4,243.8,183.6z" class="st9"/><path d="M239.7,190.5l-0.4-0.2c0,0.8,0,1.6,0,2.4c-0.1,2.9-0.3,5.7-0.7,8.6c0,0.3-0.1,0.6-0.1,0.9 c0.4,0.2,0.8,0.5,1.2,0.7c0.1-0.9,0.2-1.9,0.2-2.8l0,0c0.1-2.2,0.1-4.5,0-6.7C239.8,192.5,239.8,191.5,239.7,190.5z" class="st9"/><path d="M247.7,188.2v0.1c0.4-0.6,0.9-1.2,1.4-1.8c1-1.2,2.1-2.2,3.3-3.2c1.4-1.1,2.6-2.5,4-3.5 c0.8-0.5,1.6-1,2.5-1.2c2.3-0.7,4.7-0.9,7.1-0.7c1.2,0.1,2.5,0.3,3.7,0.6c-0.2-1.8-0.4-3.6-0.7-5.3c-2.6-0.2-5.1-0.1-7.7,0.2 c-1.3,0.1-2.5,0.4-3.8,0.7c-1.8,0.4-3.6,1.1-5.2,1.9c-1.1,0.5-2.2,1.2-3.2,1.9l0,0c-0.9,0.6-1.8,1.3-2.7,2.1l0.2,0.6 C247.3,183,247.6,185.6,247.7,188.2z" class="st9"/><path d="M242.1,239.5c-0.5,0.6-1,1.1-1.5,1.6c0.4-0.1,0.7-0.2,1.1-0.2h0c0.7-0.6,1.5-1.2,2.3-1.6h-0.1 C243.3,239.4,242.7,239.4,242.1,239.5z" class="st9"/><path d="M238.3,206.8c-0.1,0.8-0.3,1.7-0.5,2.5l0.7,0.7h0.4l0,0c0.1-0.7,0.2-1.4,0.3-2.2c-0.1-0.2-0.3-0.4-0.4-0.5 C238.6,207.1,238.4,206.9,238.3,206.8z" class="st9"/><path d="M244.6,236.3c-0.2,0.3-0.4,0.6-0.6,0.8c0.5,0,1,0.1,1.5,0.2c-0.3-0.4-0.6-0.8-0.9-1.2L244.6,236.3z" class="st9"/><path d="M277.2,157.9c0.9-1.2,1.9-2.4,2.9-3.5V148c-2.5,2.2-4.7,4.6-6.6,7.2c-0.8,1.1-1.5,2.2-2.2,3.4 c-0.1-0.5-0.2-1-0.3-1.5c2.4-4.4,5.4-8.5,9-12V139l-0.2,0.1c-4,3.2-7.4,7.1-10.1,11.5c-0.1-0.7-0.3-1.4-0.4-2.1 c0.2-0.3,0.4-0.6,0.5-1c0.8-4.5,3.2-8.4,6.8-11.2c1.1-0.9,2.2-1.6,3.4-2.3v-5.3c-2.2,1.1-4.4,2.5-6.3,4.1 c-2.6,2.1-4.7,4.7-6.2,7.8c0-0.2-0.1-0.3-0.1-0.5c-0.1-0.4-0.2-0.9-0.3-1.3c0.4-0.1,0.7-0.4,0.8-0.7c2.4-4,5.6-7.4,9.4-10.1 c0.9-0.7,1.8-1.3,2.8-1.9v-5.2c-0.8,0.4-1.5,0.9-2.3,1.4c-2.1,1.4-4.1,3.1-5.9,4.9c-2.3,2.3-4.2,4.9-5.7,7.7 c-0.2-0.8-0.4-1.6-0.6-2.4c0.1-0.1,0.1-0.1,0.1-0.2c1.4-2.5,3.2-4.8,5.2-6.8c2.1-2,4.4-3.9,6.7-5.6l2.4-1.9v-5.7 c-1.9,1.6-3.9,3.1-5.8,4.7c-2.4,1.8-4.5,3.9-6.5,6.2c-1.3,1.6-2.5,3.2-3.5,5c-0.1-0.5-0.3-1.1-0.5-1.6c0.3-0.2,0.4-0.4,0.5-0.7 c1.6-3.5,3.9-6.7,6.8-9.2c1.3-1.1,2.7-2.1,4.1-2.9c0.6-0.3,1.2-0.7,1.8-1l1.2-0.7l1.8-1v-3.2c-0.6,0.1-1.1,0.2-1.7,0.3 c-1.3,0.3-2.7,0.7-3.9,1.2c-1.3,0.6-2.5,1.2-3.6,2.1c-1.8,1.3-3.5,2.9-4.8,4.7c-1.4,1.9-2.6,4.1-3.5,6.3l-0.7-2.1 c-0.2-0.7-0.5-1.5-0.7-2.2c0.6-0.9,1.2-1.8,1.9-2.6c1.9-2.3,4-4.3,5.8-6.7c0.9-1.1,1.7-2.3,2.4-3.6c0.7-1.2,1.3-2.5,1.9-3.9 c0.6-1.6,1.1-3.2,1.5-4.9c0.6-2.4,1-4.9,1.4-7.4c-0.7,1.6-1.5,3.2-2.2,4.7s-1.5,3.1-2.3,4.6c-0.6,1.2-1.3,2.3-2,3.5 c-1,1.8-2,3.5-3.2,5.1c-1.7,2.5-3.6,4.6-5.3,7.1c-0.3,0.4-0.6,0.9-0.9,1.3c-0.4-1-0.7-2-1.1-3c2.6-2.3,4.8-5,6.7-7.9 c1.3-2,2.4-4,3.3-6.2c0.4-0.9,0.7-1.8,1-2.6c0.4-1.3,0.7-2.7,0.9-4.1c0.2-1.4,0.3-2.8,0.4-4.2c0-2.1-0.1-4.2-0.6-6.2 c-0.1,1.7-0.4,3.4-0.8,5c-0.4,1.6-0.9,3.2-1.4,4.8c-0.4,1.2-0.9,2.5-1.4,3.7c-0.3,0.8-0.7,1.6-1,2.4c-0.9,2-1.8,4-2.9,5.9 c-1.4,2.6-3.1,5-5,7.2c-0.2-0.6-0.5-1.3-0.7-1.9c0.4-1.6,0.8-3.5,1.3-5.6c0.4-1.5,0.8-3,1.2-4.5c0.4-1.2,0.8-2.4,1.2-3.6 c0.4-1.2,0.9-2.3,1.5-3.4c1.4-2.4,3.2-4.2,6.2-4.4c-2.4-0.6-4.9,0.1-6.8,1.7c-1.3,1.1-2.3,2.3-3.1,3.8c-0.4,0.8-0.8,1.5-1.1,2.4 c0.1-0.5,0.2-1,0.4-1.6c0.2-1,0.5-1.9,0.8-2.9s0.5-1.9,0.8-2.8c0.8-2.2,1.8-3.9,3.9-4.7c-2,0.1-3.8,0.9-5.1,2.5 c-0.9,1-1.6,2-2.1,3.2c-0.4,0.9-0.7,1.7-1,2.7c-0.2,0.9-0.4,1.8-0.6,2.7c-0.4,2.4-0.5,4.8-0.6,6.7c-0.8-1.7-1.6-3.4-2.4-5.1 c0.3-1.3,0.6-2.8,0.9-4.4c0.2-1.3,0.5-2.6,0.8-3.9c0.2-1.1,0.5-2.1,0.8-3.1c0.3-1,0.7-2,1.1-2.9c1-2.1,3-3.6,5.3-3.9 c-2.4-0.3-4.8,0.7-6.3,2.5c-0.7,0.8-1.3,1.6-1.7,2.6c-0.4,0.7-0.7,1.5-0.9,2.2c-0.3,1.1-0.6,2.3-0.8,3.5 c-0.2,1.7-0.4,3.3-0.4,4.8L250,92l-0.8-1.4c0.3,0,0.5-0.2,0.5-0.5c0.3-1.5,0.7-3.3,1-5.3c0.2-1.1,0.5-2.3,0.7-3.4 c0.2-0.9,0.4-1.9,0.7-2.8c0.2-0.9,0.5-1.8,0.9-2.6c0.7-1.9,2.3-3.5,4.2-4.2c-1.8,0.1-3.5,1-4.7,2.3c-0.8,0.9-1.5,1.9-2,3 c-0.3,0.6-0.6,1.3-0.8,2c-0.3,1-0.5,2.1-0.7,3.1c-0.4,2.6-0.3,5.2-0.4,7.2c-0.5-0.9-1-1.8-1.5-2.7c0.1-0.1,0.2-0.3,0.2-0.4 c0.1-1.8,0.6-4.7,0.8-8c0.1-1.1,0.1-2.1,0.1-3.2c0-0.7,0-1.5-0.1-2.2c-0.1-1.2-0.2-2.4-0.5-3.6c-0.2-1.8-0.8-3.6-1.8-5.2 c0.2,0.7,0.4,1.4,0.4,2.2c0.1,2,0,4-0.2,6c-0.1,1.3-0.2,2.6-0.2,4c0,1.4,0,2.7,0,4c0,1.8,0.1,3.4,0.2,4.8 c-0.3-0.5-0.6-1-0.9-1.5c0.2-2,0.3-4,0.3-6c0-1.4-0.2-2.9-0.5-4.3c-0.3-1.4-0.8-2.8-1.5-4.1c-0.9-2-2.3-3.7-3.9-5.2 c1.1,1.8,1.9,3.7,2.4,5.7c0.2,0.9,0.4,1.9,0.6,2.8c0.2,0.9,0.4,1.9,0.5,2.8c0.2,1.1,0.4,2.3,0.5,3.4c0.1,0.9,0.2,1.8,0.3,2.7 c-0.8-1.2-1.6-2.4-2.4-3.6c-0.1-2.2-0.6-4.4-1.4-6.4c-0.5-1.4-1.2-2.7-2-3.9c-0.8-1.2-1.8-2.3-2.8-3.3c-1.5-1.5-3.1-2.8-4.8-4.2 c1,1.5,2,3,3,4.4c0.6,1,1.3,2,1.9,2.9c0.5,0.8,1,1.6,1.5,2.4c0.5,0.8,1,1.6,1.4,2.5c0.3,0.7,0.7,1.3,1,2 c-0.2-0.5-0.5-0.9-0.8-1.4c-0.5-0.9-1.2-1.7-1.9-2.5c-0.5-0.6-1-1.2-1.6-1.7c-0.6-0.5-1.1-1-1.8-1.5l-0.2-0.1l-0.2-0.2 c0,0.1,0.1,0.1,0.1,0.2c-1.7-1.3-3.5-2.5-5.3-3.9c1.1,1.5,2.1,3,3.3,4.4c0.8,0.9,1.5,1.9,2.3,2.7c0.5,0.6,1.1,1.1,1.6,1.7 c0.8,0.8,1.6,1.7,2.3,2.6c0.4,0.5,0.8,1,1.2,1.6c-1.9-1.7-4-3-6.4-3.9c-2-0.7-4.1-1.1-6.2-1.1c-2.2,0-4.3,0.5-6.2,1.5 c-2.8,1.4-5,3.8-6.2,6.8c1.1-1.7,2.5-3.1,4.2-4.1c1.6-1,3.5-1.6,5.3-1.8c0.9-0.1,1.8-0.2,2.7-0.1c1.4,0,2.7,0.2,4,0.4 c3,0.6,5.8,1.8,8.3,3.6c-1.7-0.4-3.5-0.6-5.3-0.4c-1.6,0.1-3.2,0.5-4.7,1c-1.5,0.6-2.9,1.3-4.2,2.3c-2,1.4-3.4,3.4-4.2,5.7 c0.8-1.3,1.9-2.3,3.2-3.2c1.2-0.8,2.6-1.4,3.9-1.9c0.6-0.2,1.3-0.5,2-0.7c1-0.3,2-0.6,3-0.8c2.5-0.7,5.2-0.8,7.8-0.2 c0.3,0.1,0.6,0,0.7-0.3s0-0.6-0.3-0.7c0.1-0.1,0.1-0.3,0.1-0.5c0.1,0,0.1-0.1,0.2-0.1c0,0.1,0,0.1,0,0.2c0,0.3,0.3,0.5,0.6,0.5 c0.9,1.5,1.8,3,2.6,4.5c-1.6-0.4-3.2-0.3-4.8,0.2c-1.2,0.3-2.4,0.8-3.5,1.5c-1,0.7-2,1.5-2.8,2.4c-1.3,1.3-2.3,2.8-3.1,4.5 c1.5-1.5,3.2-2.7,5-3.7c0.6-0.3,1.2-0.7,1.8-1c0.6-0.3,1.2-0.6,1.8-1c0.8-0.4,1.6-0.7,2.4-1c1.2-0.5,2.5-0.6,3.8-0.4h0.1 c0,0.1,0.1,0.1,0.2,0.2c1.4,2.5,2.7,5.1,3.9,7.8c-2.5-0.5-5.1-0.1-7.4,0.9c-1.1,0.4-2.1,1-3.1,1.5c-0.9,0.6-1.9,1.2-2.8,1.8 c-1.1,0.7-2.2,1.5-3.3,2.1c-1.7,1-3.6,1.6-5.5,1.8c2.4,0.4,4.9,0.1,7.2-0.8c1.3-0.5,2.5-1.1,3.7-1.7c0.8-0.4,1.5-0.9,2.3-1.3 c1.1-0.7,2.2-1.3,3.4-1.9c1.7-0.9,3.5-1.3,5.4-1.2c0.2,0,0.4-0.1,0.5-0.2c0.3,0.7,0.6,1.4,0.9,2.1c-2.5-0.4-5.1-0.2-7.6,0.6 c-1.8,0.6-3.4,1.4-4.9,2.5c-1.4,1.1-2.7,2.4-3.9,3.8c-1.7,2.1-3.1,4.4-4.2,6.8c2-2.4,4.2-4.6,6.6-6.6c0.8-0.6,1.6-1.2,2.4-1.8 c0.8-0.6,1.6-1.1,2.5-1.6c1.1-0.7,2.3-1.2,3.6-1.6c1.9-0.7,3.9-0.9,5.9-0.8h0.1c0.1,0.2,0.2,0.4,0.2,0.6c0,0.2,0.1,0.3,0.2,0.4 c0.3,0.6,0.5,1.2,0.8,1.8c-2.3,0-4.7,0.4-6.9,1.2c-1.5,0.6-2.9,1.4-4.1,2.5c-1.2,1.1-2.1,2.3-2.9,3.7c-1.1,2-2,4.1-2.7,6.3 c1.2-1.9,2.6-3.6,4.1-5.3c0.9-1.1,2-2.1,3.1-3c1.1-0.9,2.2-1.7,3.5-2.3c1.9-1,4-1.6,6.2-2c0.1,0,0.2,0,0.3-0.1 c0.8,2,1.6,4,2.3,6.1c-1.7-0.4-3.5-0.4-5.2-0.1c-1.8,0.4-3.5,1.1-5.1,2c-1.5,0.9-3,1.8-4.3,2.9c-1.6,1.2-3.2,2.5-4.8,3.5 c-2.4,1.7-5.4,2.3-8.4,1.8c2,1,4.3,1.2,6.5,0.8c2.5-0.5,4.8-1.5,6.9-2.9c0.9-0.5,1.8-1.1,2.6-1.7c1.6-1.2,3.3-2.3,5-3.3 c2.2-1.4,4.9-2,7.5-1.6c0.2,0.6,0.4,1.2,0.6,1.8c0,0.1,0,0.2,0.1,0.3c0.2,0.4,0.3,0.9,0.5,1.3c-2.5-0.3-5,0.2-7.3,1.3 c-1.3,0.6-2.5,1.3-3.7,2.1c-1.1,0.8-2.2,1.7-3.2,2.6c-1.2,1.1-2.4,2.3-3.6,3.4c-1.7,1.7-3.7,3.2-5.8,4.4 c2.8-0.7,5.4-1.9,7.8-3.6c1.6-1,3.1-2.1,4.6-3.2c1.2-0.9,2.4-1.8,3.7-2.7c1.2-0.8,2.5-1.5,3.8-2.1c1.3-0.5,2.7-0.8,4.2-0.9 c0.4,1.3,0.9,2.7,1.3,4.1c-2-0.4-4-0.3-6,0.1c-1.1,0.2-2.2,0.6-3.3,0.9c-1.8,0.7-3.5,1.5-5.2,2.5c-1.7,1.1-3.2,2.5-4.3,4.1 c-0.1,0.2-0.3,0.5-0.4,0.7l-0.3,0.1c-4.5,1-8.1,2.5-9.2,4.1c1.3-1.2,4.6-1.7,8.7-2c-0.2,0.6-0.3,1.1-0.5,1.7 c-0.3,1.6-0.6,3.3-0.7,4.9c-1,0.6-1.9,1.2-2.7,1.9c-1.8,1.4-3.2,3.2-4.2,5.2c1.9-2.1,4.4-3.6,7.1-4.5c1.7-0.6,3.5-1.2,5.3-1.5 c1.1-0.2,2.1-0.5,3.2-0.7c1.6-0.3,3.3-0.6,4.9-0.8c1.6-0.2,3.4-0.4,5-0.4c2.4-0.1,4.8,0.1,7.1,0.6c0.3,1.1,0.5,2.2,0.8,3.3 c-2.8-0.5-5.7-0.7-8.5-0.6c-2.5,0.1-4.9,0.6-7.3,1.3c-1.2,0.4-2.3,0.9-3.4,1.4c-1.1,0.6-2.2,1.2-3.2,1.9 c-1.2,0.8-2.4,1.7-3.5,2.7c-1.6,1.4-3.2,3-4.6,4.7c1.8-1.2,3.6-2.3,5.5-3.2c1.2-0.6,2.5-1.2,3.8-1.7c1.1-0.4,2.1-0.8,3.2-1.2 c1.1-0.4,2.1-0.7,3.2-1c1.1-0.3,2.1-0.6,3.2-0.9c1.6-0.4,3.3-0.7,5-0.9c2.3-0.3,4.7-0.4,7-0.2l0.3,1.5c0.4,1.8,0.7,3.5,1.1,5.3 c-2.4-0.7-5-1.2-7.5-1.4c-2.3-0.3-4.6-0.3-6.9-0.2c-1.6,0.1-3.1,0.3-4.6,0.6c-2.4,0.5-4.7,1.5-6.6,2.9c-0.5,0.4-0.9,0.9-1.3,1.4 c-1.4,1.9-2.1,4.2-3.8,5.9c2-1.2,3.4-3.2,5.1-4.6c0.4-0.3,0.8-0.6,1.3-0.9c1-0.5,2-0.8,3-0.9c1-0.2,2.1-0.3,3.2-0.5 c0.9-0.1,1.8-0.2,2.7-0.2c1.3-0.1,2.7-0.2,4-0.3c1.8-0.1,3.7-0.1,5.4-0.1c2.2,0,4.3,0.2,6.5,0.5l0.7,4c-2.4-1.1-4.9-1.8-7.6-2.1 c-2.5-0.3-5.1-0.1-7.6,0.4c-1.8,0.4-3.6,1-5.3,1.8c-1.6,0.8-3.2,1.6-4.8,2.6c-2.2,1.4-4.4,2.9-6.7,4.4c-2.2,1.5-4.5,2.9-6.8,4.1 c2.6-0.7,5.1-1.5,7.6-2.5c2.5-1,5-2.1,7.3-3.2c1.6-0.7,3.2-1.4,4.8-2.1c1.5-0.7,3.1-1.2,4.7-1.7c2.1-0.6,4.3-0.9,6.5-0.8 c2.8,0.1,5.6,0.6,8.2,1.5c0.2,0.9,0.3,1.8,0.5,2.8c-2.2-0.2-4.4-0.1-6.5,0.4c-1.8,0.3-3.6,0.8-5.3,1.4c-0.8,0.3-1.5,0.6-2.3,0.9 c-1.2-0.3-2.4-0.6-3.5-0.8c-1.6-0.3-3.3-0.4-4.9-0.3c-1.8,0.1-3.6,0.6-5.1,1.7c-1.1,0.9-2,1.9-2.9,3c-1.1,1.4-2.1,2.9-3.1,4.4 c-1.8,0.1-3.5-0.1-5.2-0.8c1.3,0.9,2.8,1.6,4.4,1.9c-0.5,0.7-1,1.4-1.5,2.1c0.7-0.6,1.5-1.3,2.2-2c0.8,0.1,1.7,0.2,2.5,0.2 c1.8-0.1,3.6-0.3,5.4-0.8c2-0.5,4-1.2,5.9-2c1.9-0.8,3.7-1.7,5.5-2.6l0.6-0.3c1.9,0.4,3.9,0.9,5.8,1.4c3.5,0.9,6.7,1.7,9.2,2 c0.1,0.1,0.1,0.2,0.2,0.3l0.3,2.1v0.2c-3.2-0.6-6.5-0.8-9.7-0.6c-3,0.2-5.9,1-8.5,2.4c-1.3,0.7-2.6,1.5-3.7,2.5 c-0.5,0.5-1.1,1-1.6,1.5c-0.9-2.1-2.2-4.1-3.8-5.8c1,2.1,1.7,4.3,2,6.6c0.1,0.4,0.1,0.8,0.2,1.1c-0.5,0.8-1.1,1.6-1.5,2.4 c-0.5-1.4-1.2-2.8-2-4c-0.5-0.9-1.4-1.5-2.4-1.6c-1.1,0.1-2.1,0.8-2.4,1.9c-0.8-0.7-1.9-1.1-3-1.1c-1.3,0.1-2.5,0.9-3.2,2 c-0.2,0.3-0.3,0.5-0.5,0.8c-0.1-1.2-0.2-2.4-0.1-3.7c0-0.8,0.1-1.6,0.4-2.4c0.3-0.8,1.2-1.3,2.1-1c-0.9-0.7-2.3-0.5-3,0.4 c-1.6,1.6-2.3,5.3-2.6,6.7l-0.2,1c-0.2-0.8-0.4-1.7-0.5-2.5c-0.2-1.1-0.5-2.2-0.6-3.3c-0.5-2.3-0.6-4.7-0.5-7.1 c-1.1,2.7-1.8,5.6-2.1,8.6c-0.2,2-0.2,3.9-0.1,5.9c0.1,1.2,0.2,2.3,0.4,3.5c0.3,1.7,0.6,3.4,1,5.1c0.3,1.3,0.6,2.6,1,3.9 c-0.7-0.6-1.5-1.1-2.3-1.6c-0.3-1-0.5-2.1-0.8-3.2c-0.5-2.1-0.9-4.4-1.2-6.5c-0.2-1.5-0.4-3-0.6-4.4s-0.3-2.5-0.5-3.6 c-0.2-1.4-0.3-2.6-0.4-3.6c0-0.7-0.2-2.8-0.2-5c-0.1-1.6,0.1-3.2,0.5-4.8c0.5-1.3,1.4-1.7,3-0.6c-1.7-2.1-3-1.5-4.1,0 c-1.1,1.9-1.8,4-2.2,6.1c-0.4,1.9-0.5,3.5-0.6,4.1c-0.1,1.3-0.2,2.7-0.2,4c0,0.8,0.1,1.7,0.1,2.6c0.1,1.8,0.4,3.8,0.8,5.8 c0.2,1.3,0.5,2.5,0.8,3.8s0.7,2.6,1.1,3.9c-1-0.2-2.1-0.3-3.2-0.4c-0.9-3.3-1.6-6.6-2.2-10c-0.3-2.1-0.6-4.2-0.8-6.2 c-0.1-1-0.2-2.1-0.3-3.1c-0.1-1-0.2-2.1-0.2-3.1c-0.1-1.2-0.7-5.7-0.4-8.3c0.2-1.5,0.6-2.2,1.8-1.2c-0.5-0.7-0.9-0.9-1.2-0.9 c-0.6,0-1.1,0.7-1.5,1.8c-0.9,2.5-1.2,7.2-1.4,8.4c-0.2,1.8-0.3,3.6-0.3,5.3c0.1,1.8,0.3,3.5,0.6,5.3c0.4,2.1,0.9,4.1,1.5,6.2 c0.6,2,1.3,3.9,2.1,5.8c-0.8,0-1.6,0.1-2.4,0.1c-0.7-3.8-1.9-7.6-3.7-11c-1.3-2.6-2.8-5-4.6-7.3c-1.2-1.5-2.6-2.9-4.2-4.1 c-2.8-2.2-5.7-3.4-8.3-3.3c-1.1,0.1-2.2,0.4-3.1,1c-1.3,0.8-2.5,1.7-3.7,2.7c1.3-0.7,2.7-1.3,4.1-1.8c0.9-0.3,1.8-0.4,2.7-0.3 c2.1,0.4,4,1.5,5.5,3c0.8,0.7,1.6,1.5,2.3,2.3c0.7,0.8,1.4,1.7,2.2,2.5c0.7,0.9,1.6,2.1,2.4,3.2c1.2,1.7,2.3,3.4,3.2,5.2 c1.4,2.4,2.5,4.9,3.4,7.6c-0.8-0.3-1.6-0.6-2.4-0.8c-1-3.6-2.8-6.9-5.4-9.7c-1.8-1.9-3.9-3.6-6.2-4.9c-1.4-0.8-2.8-1.4-4.3-2 c-1-0.3-2-0.6-3-0.8c-1.5-0.3-3-0.5-4.5-0.5l-0.6-0.3c-1.9-1-4-1.8-6.1-2.3c-3.8-0.9-7.1-0.7-9.4,1.3c3-1.6,6.8-0.5,10.8,1.7 l0.2,0.1c-0.6,0.1-1.3,0.2-1.9,0.4l-0.8,0.2c-1-0.4-2-0.8-3.1-1c-1.2-0.3-2.4-0.4-3.6-0.5c-0.4-0.3-0.9-0.5-1.4-0.8 c-1.7-1-3.7-1.3-5.7-0.9c-0.9,0.3-1.8,0.9-2.4,1.6c-1.1,1.5-2.1,3-3,4.6c-0.8,0.1-1.5,0.3-2.2,0.6c-1.9,0.8-3.5,2.2-4.5,4 l-0.4,0.2c-1.3,0.6-2.5,1.4-3.5,2.4c-0.7,0.6-1.5,1.4-2.2,2.3c-0.5,0.5-0.9,1.1-1.2,1.8c0.5-0.5,1-0.9,1.6-1.3 c0.9-0.6,1.9-1.1,2.7-1.5c1.2-0.7,2.6-1.2,4-1.4c0.6-0.1,1.3-0.1,1.9,0c0.6,0,1.3,0.2,1.9,0.3c0.8,0.2,1.6,0.5,2.3,0.8 c1.2,0.5,2.4,1.1,3.6,1.8c1,0.5,2,1.1,3,1.6c-0.4,0.1-0.7,0.3-1,0.5c-0.6,0.4-1.1,1-1.5,1.6c-0.5,0.2-0.9,0.5-1.4,0.7 c-2.5-1.1-5.1-1.8-7.8-2.2c-2-0.3-4.1-0.2-6.1,0.4c-1,0.3-1.9,0.7-2.8,1.3c-0.9,0.5-1.7,1.1-2.4,1.8c-0.9,0.8-1.7,1.6-2.4,2.5 c-1,1.2-2,2.5-3.1,4.1c2.2-1.7,4.5-3.2,6.9-4.6c0.8-0.4,1.6-0.8,2.4-1.1c0.8-0.3,1.6-0.6,2.3-0.8c0.8-0.2,1.6-0.4,2.4-0.5 c1.3-0.1,2.6-0.2,3.8-0.1l0.6,0c-1.1,0.8-2,1.8-2.7,2.9c-0.3,0.5-0.6,1-0.8,1.5c-2.5,0.1-4.9,0.6-7.3,1.2 c-2.1,0.6-4,1.5-5.8,2.7c-0.9,0.6-1.7,1.4-2.4,2.1c-0.7,0.8-1.4,1.7-1.9,2.6c-0.7,1.1-1.2,2.2-1.7,3.4c-0.6,1.7-1.1,3.5-1.4,5.3 c1.3-2.7,2.9-5.1,5-7.2c0.7-0.7,1.3-1.3,2.1-1.9c0.7-0.6,1.5-1.1,2.2-1.7c0.8-0.5,1.5-1,2.4-1.5c1.2-0.7,2.5-1.3,3.9-1.8 l0.2-0.1c-0.7,0.9-1.2,1.9-1.6,2.9c-0.3,0.9-0.5,1.7-0.5,2.6c-2.8,1.1-5.3,2.6-7.5,4.6c-1.7,1.5-3.2,3.3-4.5,5.2 c-0.6,1-1.1,2-1.6,3c-0.5,1-0.9,2.1-1.3,3.1c-0.4,1.2-0.8,2.5-1.2,3.8c-0.5,1.9-1,3.8-1.5,5.8c1-1.8,2-3.4,3-5.1 c1-1.7,2-3.4,3-5c0.7-1.1,1.4-2.2,2-3.2s1.4-2.1,2.1-3.1c1-1.3,2.1-2.6,3.3-3.7c1.2-1.1,2.5-2.2,3.9-3.1l-0.4,0.5 c-0.2,0.1-0.4,0.2-0.5,0.4c-1.3,2.2-2.5,4.5-3.5,6.9c-0.6,1.6-1.2,3.2-1.8,4.8c-0.4,1.2-0.8,2.4-1.1,3.6 c-0.3,1.2-0.6,2.4-0.9,3.6c-0.4,1.9-0.8,3.7-1.3,5.5c-0.5,1.8-1,3.6-1.7,5.4c1.6-2,2.9-4.2,4.1-6.5c0.8-1.5,1.5-3.1,2.1-4.7 c0.4-1,0.7-1.9,1-2.9c0.4-1.4,0.8-2.8,1.1-4.3c0,0.4,0.1,0.8,0.2,1.2c0.2,1.5,0.5,2.9,0.7,4.4c0.2,1.5,0.3,3,0.3,4.5 c0.8-1.9,1.3-3.9,1.6-6c0.2-1.4,0.3-2.7,0.4-4c0-0.8,0.1-1.6,0.1-2.5c0-0.8,0-1.6,0-2.4c0-1.5,0.2-2.9,0.5-4.4 c0.2,0.5,0.3,1,0.5,1.5c0.4,1,0.8,2.1,1.3,3.1c0.7,1.5,1.3,3,1.8,4.6l0.5,1.8l0.1-1.9c0-1.6-0.2-3.3-0.5-4.9 c-0.2-1.6-0.5-3.1-0.8-4.7c-0.2-1-0.3-2-0.4-3c-0.1-0.9-0.1-1.9,0-2.8v0c0.7-1,1.4-1.9,2.2-2.8c0,0.5-0.1,1.1-0.1,1.7 c0,1.3,0.1,2.7,0.3,4c0.2,2,0.9,3.9,2,5.6c-0.5-1.3-0.4-3.7,0-6.5c0.2-1.4,0.5-2.8,0.9-4.2c0.2-0.9,0.4-1.8,0.7-2.7 c0.1-0.2,0.1-0.5,0.2-0.7c0.4-0.1,0.7-0.6,0.5-1c0-0.1-0.1-0.2-0.1-0.2c1.8-1.5,3.7-2.7,5.8-3.8c0.1,0.1,0.3,0.1,0.5,0.1 c0,0,0,0.1,0,0.1c-0.7,2.2-1.3,4.3-1.8,6.6c-0.2,1-0.4,2.1-0.5,3.1c-0.1,1-0.3,2.1-0.4,3.1c-0.1,1.2-0.3,2.5-0.4,3.7 c-0.2,1.9-0.5,3.7-0.9,5.6c1.4-2.7,2.6-5.4,3.6-8.3c0.4-1.3,0.8-2.6,1.2-3.9c0.2-0.9,0.5-1.7,0.6-2.6c0.5-2.1,0.8-4.3,1.4-6.4 c0.2-1,0.5-2,0.9-2.9c1.1-0.4,2.2-0.8,3.2-1.1c0.1,0,0.3,0,0.4,0c-0.7,0.9-1.2,2-1.7,3c-0.4,0.9-0.8,1.9-1.1,2.9 c-0.3,1-0.5,1.9-0.7,2.9c-0.3,1.5-0.4,3-0.5,4.5c-0.1,1.9-0.1,3.4-0.2,4.5c0.5-1.3,1.4-3.3,2.4-5.7c0.5-1.2,1-2.5,1.6-3.8 c0.3-0.8,0.6-1.7,0.9-2.5c0.5-1.3,0.9-2.5,1.4-3.6c0.5-1.2,1.2-2.3,2.1-3.2l0.1-0.1l1.8-0.3l0.8-0.1c-0.4,0.5-0.7,1-1.1,1.5 c-0.9,1.7-1.7,3.4-2.5,5.1c-0.5,1.2-0.9,2.4-1.3,3.6c-0.5,1.8-0.9,3.7-1.2,5.5c-0.5,2.8-0.8,5.6-1,8.4c1-2.6,2-5.2,3.1-7.8 c0.7-1.7,1.4-3.4,2.1-5.1c0.5-1.1,0.9-2.3,1.3-3.4c0.3-0.7,0.5-1.4,0.8-2.1c-0.1,0.3-0.2,0.6-0.2,0.9c-0.5,2-0.9,4-1.1,6.1 c-0.4,3.1-0.5,6.1-0.7,9.2c0.8-2.9,1.7-5.8,2.7-8.7c0.6-1.9,1.3-3.8,2-5.6c0.5-1.2,1-2.4,1.5-3.6c0.7-1.5,1.5-3,2.3-4.4 c3.4,0,6.8,0.3,10.1,0.9c-0.7,0.6-1.3,1.2-1.9,1.9c-1.4,1.8-2.6,3.7-3.7,5.6c-0.7,1.3-1.4,2.6-2,4c-0.9,2-1.7,4.1-2.4,6.2 c-1.1,3.2-2,6.4-3,9.5c1.5-2.5,3-5.1,4.5-7.7c1-1.7,2-3.4,2.9-5.1c0.6-1.1,1.3-2.3,1.9-3.4c0.9-1.7,1.9-3.4,2.8-5 c0.5-0.8,0.9-1.5,1.4-2.3c0.8-1.1,1.7-2.1,2.7-3c1.2,0.3,2.5,0.5,3.7,0.9c-0.8,0.5-1.5,1.2-2.2,1.9c-1.6,1.7-3.1,3.5-4.5,5.5 c-0.9,1.3-1.7,2.6-2.5,4c-1.1,2-2.1,4.2-2.9,6.3c-1.4,3.3-2.4,6.6-3.5,9.8c1.2-2,2.5-4,3.8-6.1c0.8-1.3,1.7-2.7,2.6-4 c0.7-1.1,1.4-2.2,2.2-3.3c0.7-1.1,1.4-2.2,2.1-3.3c1.5-2.4,3.1-4.6,4.8-6.8c0.9-1.2,2-2.1,3.3-2.9c0.9,0.3,1.8,0.6,2.7,0.9h0.1 l-0.6,0.3c-2.3,1.1-4.3,2.5-6.1,4.3c-1.7,1.8-3.1,3.7-4.2,5.9c-1.6,3.1-2.8,6.4-3.5,9.9c-0.7,3.4-1,6.8-0.8,10.2 c0.6-3.3,1.5-6.5,2.8-9.6c0.8-2,1.8-4,2.9-5.8c1.3-2.3,2.9-4.4,4.7-6.3c1.7-1.9,3.7-3.4,6-4.5c1.7-0.8,3.5-1.4,5.4-1.7 c1.2,0.5,2.3,1,3.4,1.5c-1.1,0.6-2.2,1.3-3.2,2c-2.4,1.9-4.4,4.2-5.9,6.7c-1.5,2.5-2.7,5.1-3.7,7.8c-0.8,2.1-1.4,4.3-1.9,6.5 c-0.8,3.3-1,6.7-0.7,10c0.3-2.7,1.1-5.4,2.1-7.9c1-2.5,2.2-5,3.5-7.3c1.3-2.3,2.7-4.6,4.2-6.8c1.4-2.1,3.1-4,5-5.6 c1.6-1.3,3.3-2.3,5.2-3.2l0.9,0.5c-0.9,0.9-1.6,1.9-2.2,3c-1.2,2.2-2.1,4.6-2.7,7c-0.8,2.9-1.4,5.9-1.8,8.8 c-0.5,3.4-0.8,6.6-1,8.9c0.7-2.2,1.7-5.2,2.9-8.4c1-2.7,2-5.5,3.2-8.1c0.8-1.7,1.6-3.4,2.5-5c0.8-1.5,1.8-2.8,3.1-3.8 c1.9,1.2,3.7,2.5,5.5,3.8c-0.7,0.6-1.4,1.2-2,1.9c-1.4,1.5-2.5,3.1-3.5,4.8c-1.4,2.5-2.6,5.2-3.5,7.9c-1,2.8-1.7,5.5-2.4,8.2 c1.3-2.4,2.8-4.8,4.3-7.3c1.4-2.3,3-4.6,4.7-6.7c1.1-1.4,2.3-2.7,3.5-3.9c0.8-0.7,1.5-1.4,2.4-2.1c1.4,1.3,2.8,2.6,4.2,4 c-1.2,0.9-2.3,1.9-3.2,3.2c-1.6,2.5-3,5.1-4.2,7.8c-0.4,0.9-0.8,1.8-1.1,2.7c-0.3,0.9-0.6,1.8-0.9,2.8c-0.7,2.3-1.2,4.7-1.7,7.1 c-0.4,2.5-0.7,4.9-0.9,7.2c1.1-2.6,2.3-5.2,3.6-7.9c0.9-1.8,1.8-3.6,2.7-5.4c0.6-1.2,1.2-2.4,1.7-3.5c0.7-1.5,1.4-3,2.1-4.4 s1.4-3,2.2-4.4c0.6-1,1.3-1.9,2.2-2.6c2.3,2.5,4.4,5.1,6.5,7.9c-0.2,0.5-0.4,1-0.6,1.5c-0.5,1.4-0.8,3-0.8,4.5 c0.1,1.6,0.4,3.2,1.1,4.6c-0.5,1-1,1.9-1.6,2.9c-0.4,0.6-0.7,1.1-1.1,1.7c-1.6,0.3-3.2,0.8-4.8,1.5c-2.5,1.1-4.7,2.6-6.5,4.6 c-1.2,1.3-2.2,2.8-3,4.4c-1.2,2.3-1.9,4.8-2.4,7.4c-0.6,3.7-0.7,7.5-0.3,11.3c0.3-2.6,0.7-5.1,1.4-7.6c0.6-2.4,1.5-4.8,2.6-7 c0.8-1.7,1.9-3.4,3.1-4.9c1.7-2.3,3.9-4.2,6.5-5.5l0.9-0.4c-1,1.4-2,2.7-3,4.1c-1.4,1.9-2.6,4-3.6,6.2c1.2-1.6,2.5-3.1,4-4.5 c-0.5,1-0.9,2.1-1.2,3.2c-0.4,1.3-0.7,2.6-0.8,4c-0.1,1.4-0.2,2.7-0.2,4.1c0.1,2,0.3,4,0.7,6c0.3,2,0.9,3.9,1.6,5.8 c-0.2-2.7-0.2-5.5,0.2-8.2c0.2-1.7,0.4-3.5,0.7-5.3c0.2-1.2,0.4-2.3,0.6-3.5c0.3-1.7,0.7-3.4,1.3-5c0.3-0.8,0.6-1.5,1.1-2.2 l-0.1,0.2c-0.5,1.2-0.9,2.5-1.1,3.8c-0.2,1.3-0.3,2.6-0.3,3.9c0,1.2,0.1,2.4,0.2,3.6c-0.1,1.2-0.1,2.3-0.1,3.4 c0,2.1,0.1,4.2,0.4,6.2c0.1-1.1,0.4-2.5,0.8-4.1c0.2,0.8,0.4,1.5,0.6,2.2c0-1.9,0-3.7,0.2-5.6c0-0.1,0-0.1,0-0.2l0.1-0.6 c0.5-1.8,1-3.6,1.6-5.4c0.4-1.2,0.8-2.3,1.2-3.5c0.6-1.7,1.3-3.3,2.2-4.9c-0.4,1-0.7,2.1-0.9,3.2c0,0.4-0.1,0.8-0.1,1.2 c-0.8,3.7-1.1,7.3-1.5,9.2c0.4-1.4,0.9-3.8,1.5-6.4c0.1,0.8,0.3,1.7,0.5,2.5c0.2,0.9,0.5,1.8,0.8,2.7c0.1,1.1,0.2,2.1,0.5,3.2 c0.4,2,1,4,1.7,6c0.2,0.7,0.5,1.4,0.8,2l-0.2,0.3c-1.8,2.6-4.6,4.4-5.9,7.3c1.2-1.4,2.7-2.6,4.3-3.5c0.9-0.6,1.8-1.3,2.7-2 c0.2,0.5,0.5,1,0.7,1.5c-0.1-0.6-0.2-1.2-0.3-1.9l0.1-0.1l0.3-0.3v0.4c0.1,1.5,0.3,2.9,0.5,4.4c0.4,2.2,1,4.3,1.9,6.3 c-0.3-2.1-0.4-4.3-0.3-6.4c0.1-2,0.3-4.1,0.6-6.3c0.2-1.4,0.4-2.7,0.7-4.1s0.5-2.7,0.8-4c0.3-1.8,0.8-3.5,1.5-5.2 c0.8-2.1,2-4,3.6-5.5c0.6,1.3,1,2.7,1.3,4c0.8,3.1,1.5,6.3,2.2,9.5l2.2,9.5c2.2,9.5,4.2,19.1,6.4,28.6l0.7,2.8h8.6v-20.9 c-0.3,1.9-0.6,4-0.7,4.2c-0.6-0.6-0.1-7.5-0.7-8.2c0.1-11.3,0.1-23.3-0.2-35.5c0.5,0.4,1.1,0.9,1.5,1.4v-3.5 c-0.5-0.6-1-1.1-1.6-1.6v-0.1c0-1.7-0.1-3.3-0.1-5v-0.1c0.6,0.4,1.2,0.8,1.8,1.2v-2l-0.1-0.1c-0.5-0.6-1.1-1.1-1.8-1.6v-0.1 c-0.1-2.3-0.2-4.7-0.3-7c-0.1-3.5-0.3-6.9-0.5-10.4c-0.3-5.2-0.7-10.4-1.1-15.6c-0.2-2.3-0.4-4.7-0.6-7v-0.1 c1.4-1.1,2.9-2.2,4.4-3.3v-4c-1.6,1.3-3.2,2.7-4.7,4.1c-0.2-2-0.4-3.9-0.6-5.9c0.5,0,0.9-0.2,1.3-0.5c1.5-1.2,2.8-2.3,4.1-3.4 v-5.9c-1.8,1.6-3.7,3.3-5.9,5.2c-0.2-1.6-0.4-3.2-0.6-4.8c2.4-1.9,4.5-4.1,6.5-6.4v-6.9c-2.3,2.9-4.7,5.6-7.2,8.3v0 c-0.1-0.7-0.2-1.5-0.3-2.2v0C273.8,163,275.3,160.4,277.2,157.9z M255.8,104.1l-0.4-1c0.2-0.1,0.5-0.2,0.6-0.4L255.8,104.1z M244.3,122.9c1-0.6,2.1-1.3,3.3-1.9c1.2-0.6,2.3-1.1,3.5-1.6c2.5-1,5-1.6,6.9-1.1c0.3,1,0.6,2,0.9,2.9c0.4,1.4,0.8,2.9,1.2,4.4 c-2.8-0.8-5.7-1.2-8.6-1.3c-2.2-0.1-4.5-0.1-6.8,0c-0.9,0.1-1.8,0.2-2.7,0.3h-0.2C242.6,123.9,243.4,123.4,244.3,122.9z M251.8,130L251.8,130c-2.5,0-5,0.2-7.5,0.8c-1.2,0.3-2.4,0.6-3.6,1.1c-1.2,0.4-2.3,1-3.4,1.6l-0.5,0.3c0.4-1.4,0.9-2.8,1.5-4.2 c0.3-0.8,0.7-1.6,1.1-2.3c1.4-0.1,2.8-0.1,4.2-0.1l3.7-0.2c1.9-0.1,3.8-0.2,5.5-0.2c2.5-0.2,5-0.1,7.5,0.3 c0.4,1.5,0.8,3,1.1,4.5C258.4,130.5,255.1,130,251.8,130z M247.1,163.1c-1,0.5-2,1-3.1,1.5c-2,1.1-4,2-6.1,2.8 c-1.1,0.4-2.1,0.7-3.2,0.9c1-1,2-1.9,3.1-2.8c0.9-0.8,1.9-1.5,3-2.1c1.1-0.5,2.4-0.7,3.7-0.6C245.3,162.9,246.2,163,247.1,163.1 L247.1,163.1z M267.9,165.6c-2.3-0.7-5.1-1.8-8.2-2.9l-1.9-0.7l1.1-0.4c2.6-1.1,5.3-1.7,8.1-1.8l0.2,0.9 C267.5,162.4,267.7,163.9,267.9,165.6L267.9,165.6z M146.1,199.8c0.2-0.2,0.3-0.5,0.5-0.7c0.2-0.2,0.4-0.5,0.6-0.7 C146.8,198.9,146.4,199.3,146.1,199.8z M158.1,172.5L158.1,172.5c0.6-0.6,1.5-1,2.4-1.2c0.6,0,1.2,0.1,1.8,0.3 c-2.3,0.8-4.4,2.1-6.2,3.7h-0.4l-0.9,0.1C155.7,174.6,156.9,173.4,158.1,172.5z M165.2,187L165.2,187c-2.2-1.5-4.1-3.2-6.2-4.6 c-1.6-1.2-3.5-2.1-5.4-2.6c-1.6-0.4-3.2-0.4-4.8,0c0.9-0.7,1.9-1.2,2.9-1.5c1.6-0.4,3.4-0.4,5,0.1c0.8,0.2,1.6,0.4,2.4,0.7 c1.2,0.4,2.3,0.9,3.4,1.5c1.7,0.9,3.2,2,4.6,3.3c0.7,0.7,1.3,1.4,1.8,2.2C167.8,186.3,166.5,186.6,165.2,187z M175.7,184.9 c-0.2,0-0.3,0.1-0.5,0.2c-1.5,0.1-3,0.3-4.4,0.6c-1.1-2.7-2.9-5-5.1-6.8c-1.6-1.3-3.4-2.3-5.4-2.9c-0.6-0.2-1.2-0.3-1.8-0.5 c-0.7-0.1-1.5-0.2-2.2-0.2c2-1.2,4.2-1.9,6.5-2.1c0.7,0,1.4,0,2.1,0c0.4,0.3,0.8,0.6,1.2,0.9c0.6,0.5,1.2,1,1.8,1.5 c1.4,1.3,2.7,2.6,4,4.1c1.5,1.6,2.8,3.3,4.1,5.2L175.7,184.9z M177.8,184.2L177.8,184.2c-1-2.2-2.3-4.3-3.7-6.3 c-0.7-1-1.5-2-2.3-2.9c0.4,0.2,0.9,0.4,1.3,0.6c1.6,0.8,3.1,1.6,4.6,2.6c1.1,0.7,2.2,1.5,3.3,2.3c0.7,0.5,1.5,1.1,2.2,1.7 C181.2,182.2,179.3,182.9,177.8,184.2z M182.2,184.9L182.2,184.9c0.4-0.1,0.8-0.2,1.2-0.2c0.5,0,1,0.1,1.5,0.3 C184,184.9,183.1,184.9,182.2,184.9z M193.8,185.9L193.8,185.9c-0.2,0-0.4,0.1-0.6,0.1c-1.3-0.2-2.6-0.4-3.9-0.6 c-2-2.5-4.2-4.8-6.5-7c-1.1-1-2.2-1.9-3.3-2.8c-1.1-0.8-2.3-1.6-3.6-2.3c1.1,0,2.2,0,3.3,0.1h0.2l1.4,1c1.5,1,2.9,2,4.3,3.1 c1.8,1.3,3.4,2.7,5,4.1c1.5,1.4,3,2.8,4.4,4.3C194.3,185.9,194.1,185.9,193.8,185.9z M202.6,188.3c-1.7-0.5-3.4-1-5.1-1.4 c-1.5-2.7-3.4-5.1-5.5-7.3c-1-1-2-2-3.1-3c-0.4-0.4-0.8-0.7-1.2-1.1l0.5,0.2c1.3,0.5,2.6,1.1,3.9,1.7c2.1,1.1,4,2.4,5.8,4 c2.2,2,4,4.3,5.3,7L202.6,188.3z M231.3,202L231.3,202c-0.1-1-0.2-1.9-0.4-2.9c0.4,0.2,0.7,0.4,1.1,0.6c0.7,0.5,1.2,1,1.7,1.7 C232.9,201.5,232.1,201.7,231.3,202z M234.9,206.4L234.9,206.4l-0.9-0.8c0.3-0.1,0.7-0.1,1-0.1 C234.9,205.8,234.9,206.1,234.9,206.4z M235.2,197.5c-0.2-0.2-0.5-0.5-0.8-0.7h0c-1.2-0.9-2.5-1.6-3.9-2c0-0.3-0.1-0.5-0.1-0.8 c-0.3-1.9-0.5-3.9-0.8-5.8c-0.2-1.6-0.4-3.2-0.5-4.8c-0.1-0.7-0.2-1.5-0.3-2.2c0.5-1.2,1.4-2.2,2.6-2.8c0.5-0.2,1.2-0.1,1.5,0.3 c0.3,0.3,0.5,0.7,0.6,1.1c0.3,0.7,0.5,1.5,0.6,2.3c0.1,0.5,0.1,1,0.2,1.5c0.1,0.5,0,1.1-0.1,1.7c0.1-0.2,0.1-0.4,0.2-0.6v0.1 c0.1,0.9,0.2,1.8,0.3,2.7c0.3,2.6,0.4,5.4,0.4,8.1C235.2,196.2,235.2,196.8,235.2,197.5z M239.5,188.1c0,0.5,0.1,1,0.1,1.5h-0.4 c0-0.3,0-0.7,0-1C239.3,188.4,239.4,188.3,239.5,188.1z M237.4,177.3c0.1,0,0.1-0.1,0.2-0.1L237.4,177.3L237.4,177.3z M236.6,178.3l0.1-0.1c0.2-0.3,0.4-0.6,0.6-0.8c0,0.1,0,0.1,0.1,0.2c0.2,0.4,0.3,0.7,0.5,1.1c0.5,1.6,0.9,3.3,1.1,5 c0.2,1.3,0.4,2.5,0.5,3c-0.1,0.3-0.2,0.6-0.2,0.8c-0.1-0.6-0.1-1.2-0.2-1.7c-0.2-1.6-0.6-3.1-1-4.6 C237.6,180.2,237.2,179.2,236.6,178.3z M238.8,210L238.8,210l-0.4,0l-0.7-0.7c0.3-0.8,0.4-1.6,0.5-2.5c0.2,0.1,0.3,0.3,0.5,0.5 c0.2,0.2,0.3,0.4,0.4,0.5C239.1,208.6,239,209.3,238.8,210z M239.8,200.2L239.8,200.2c0,0.9-0.1,1.9-0.2,2.8 c-0.4-0.3-0.8-0.5-1.2-0.7c0-0.3,0.1-0.6,0.1-0.9c0.4-2.8,0.6-5.7,0.7-8.6c0-0.8,0-1.6,0-2.4l0.4,0.2c0.1,1,0.1,2,0.1,3.1 C239.9,195.7,239.9,198,239.8,200.2z M270.1,181.5c0.2,2.1,0.5,4.2,0.7,6.3c-1.8-0.7-3.7-1-5.6-0.7c-2.3,0.3-4.4,1.4-6.8,2.3 c-1.1,0.5-2.3,0.8-3.5,1.1c-0.8,0.2-1.6,0.3-2.3,0.4c-0.6,0.1-1.3,0.1-1.9,0.1l0.1-0.1c0.7-0.7,1.4-1.4,2.1-2.1s1.5-1.4,2.3-2 c1.1-1,2.1-2.1,3.2-3.1c0.5-0.5,1.2-0.9,1.9-1.2c1.8-0.7,3.7-1.1,5.7-1.1C267.3,181.2,268.7,181.3,270.1,181.5z M249.2,177.8 L249.2,177.8c1-0.7,2.1-1.3,3.2-1.9c1.7-0.9,3.4-1.5,5.2-1.9c1.2-0.3,2.5-0.5,3.8-0.7c2.6-0.3,5.1-0.4,7.7-0.2 c0.2,1.8,0.5,3.5,0.7,5.3c-1.2-0.3-2.4-0.5-3.7-0.6c-2.4-0.2-4.8,0-7.1,0.7c-0.9,0.3-1.7,0.7-2.5,1.2c-1.4,1-2.6,2.4-4,3.5 c-1.2,1-2.3,2-3.3,3.2c-0.5,0.6-1,1.2-1.4,1.8v-0.1c-0.1-2.6-0.4-5.2-1.1-7.7l-0.2-0.6C247.3,179.2,248.2,178.5,249.2,177.8z M243.1,183.4c0.2-0.3,0.5-0.6,0.8-0.9c0,0.3,0,0.7,0,1.1c0,0.8,0,1.7-0.1,2.5C243.5,185.6,243.3,184.6,243.1,183.4z M241.7,240.9L241.7,240.9c-0.3,0-0.7,0.1-1.1,0.2c0.5-0.5,1-1.1,1.5-1.6c0.6-0.1,1.2-0.2,1.8-0.2h0.1 C243.2,239.8,242.4,240.3,241.7,240.9z M244.1,237.1c0.2-0.3,0.4-0.6,0.6-0.8l0.1-0.1c0.3,0.4,0.6,0.8,0.9,1.2 C245.1,237.2,244.6,237.2,244.1,237.1z M246.7,235.4c-0.3-0.5-0.5-1.1-0.8-1.6h0.1c0.2-0.4,0.3-0.8,0.5-1.2c0,0.2,0,0.5,0,0.7 C246.5,234,246.6,234.7,246.7,235.4C246.7,235.3,246.7,235.4,246.7,235.4z M247.1,245.6c0.5-2,1.8-3.7,3.7-4.6 c0.2-0.1,0.3-0.2,0.4-0.4h0.4c0.2,0,0.4,0,0.6-0.1c0.3,0.2,0.6,0.4,0.9,0.6C250.5,241.8,248.4,243.4,247.1,245.6z M249.4,238.1 c0-0.8,0-1.8,0-3c0-0.9,0.1-1.9,0.2-2.8c0-0.2,0-0.3,0-0.5c0.4,0.7,0.8,1.3,1.1,1.9c-0.5,1.4-0.8,2.9-1.1,4.4L249.4,238.1z M251.6,238c0.2-0.5,0.5-1.1,0.8-1.7l0.8,1.4c-0.1,0.3-0.1,0.5-0.2,0.8C252.5,238.3,252,238.2,251.6,238z M250,251.3L250,251.3 c-0.5,1.6-0.8,3.3-0.9,5c-0.1,1.6-0.1,3.2-0.2,4.8c0,1,0,2-0.1,3c-0.1,0.8-0.2,1.6-0.4,2.4c0-0.2,0-0.4-0.1-0.5 c-0.2-1.9-0.4-3.9-0.5-5.9c-0.1-1.3-0.1-2.6-0.1-3.9c0-1.3,0-2.5,0.1-3.8c0.1-1.6,0.5-3.2,1.1-4.8c0.9-2.3,2.6-4.1,4.9-5.1 c0.1,0,0.3-0.1,0.4-0.3c0.6,0.6,1.2,1.3,1.7,2C253.1,245.7,250.9,248.2,250,251.3z M262,227.1L262,227.1 c-1.4,0.7-2.7,1.6-3.9,2.7c-0.9,0.8-1.7,1.7-2.4,2.6c-0.1,0.2-0.3,0.4-0.5,0.7l-0.6-1c0.3-0.5,0.7-1.1,1-1.6 c0.6-1,1.2-1.8,1.8-2.6c0.6-0.8,1.2-1.6,2-2.2c1.5-1.1,3.2-1.2,5.3,0.5C263.8,226.3,262.8,226.6,262,227.1z M265.8,229 c1.5-0.6,3.2-0.6,4.8,0l-1,0c-2.5-0.1-4.9,0.5-7.1,1.6c0.3-0.2,0.6-0.4,1-0.6C264.2,229.6,264.9,229.2,265.8,229z M252.5,253.5 c0.1-1.3,0.5-2.5,1-3.7c0.8-1.6,2-3,3.5-4l0.5,0.8c0.2,0.3,0.3,0.6,0.5,0.9C255.6,249,253.7,251.1,252.5,253.5z M257.3,236.9 L257.3,236.9l-0.7-1.3c1-1.3,2.2-2.4,3.5-3.4c0.2-0.1,0.4-0.3,0.6-0.4C258.9,233,257.8,234.9,257.3,236.9z M274.2,260.3 c0.1,5.9,0.1,11.9,0,17.8l0.2,6.7c-0.3,0.5-0.9-5.6-1.4-5.5l0,0c-2.5-10.6-5.9-21-10.2-31c-0.6-1.5-1.3-2.9-2-4.4 c0.8-1.8,3-2.7,5.4-3.2c2.2-0.4,4.4-0.4,6.6,0c0.4,0.1,0.7,0.1,1.1,0.2v0.1C274,247.5,274.1,253.9,274.2,260.3z M273.6,233.8 c0-0.3,0-0.7,0-1l0.1,4.6v0.2c-2-0.3-4.1-0.3-6.1,0c-3.3,0.6-6.4,2.1-7.8,4.4l0,0c-0.3-0.7-0.6-1.3-1-2v0 c-0.1-3.4,1.9-5.5,4.7-6.7c1.9-0.7,3.9-1.1,5.9-1c1,0,2,0.1,3.1,0.2l0.7,0.1C273.4,232.9,273.5,233.3,273.6,233.8z M272.7,212.8 c0.3,5.6,0.6,11.2,0.8,16.7v0.1l-0.3-0.1l-0.3-0.1c-0.4-0.9-1-1.6-1.8-2.2c-0.9-0.7-2.1-1.1-3.2-1.2c-0.9-0.1-1.9-0.1-2.8,0.1 c-0.7-1.2-1.7-2.2-3-2.8c-0.8-0.3-1.6-0.4-2.4-0.2c-0.6,0.1-1.3,0.3-1.9,0.6c-0.7,0.3-1.3,0.8-1.9,1.3c-0.7,0.6-1.3,1.2-1.9,2 c-0.5,0.6-0.9,1.3-1.3,2c-0.6-1-1.2-1.9-1.8-2.9c0.6-0.7,1.5-1.1,2.4-1.1c-1-0.5-2.2-0.6-3.2-0.1c-0.9-1.3-1.8-2.7-2.7-4 c0.2-0.3,0.4-0.7,0.6-1c0.6-0.9,1.2-1.7,1.9-2.4c2.1-2.1,4.7-3.2,7.5-1.7c-2.8-2.5-6-1.9-8.9,0c-1.1,0.8-2.1,1.7-3,2.7 c-0.7-0.9-1.4-1.9-2.2-2.7c0.4-2.4,1-5,1.6-7.8c0.5-2.6,1.1-5.3,1.6-8.1c0.9,1.4,2,2.6,3.2,3.6c-2-2.9-2.5-5.4-2-7.7 c0.1-0.5,0.3-1,0.5-1.4c1.4,0.4,2.8,0.7,4.3,0.8c1.2,0,2.4-0.1,3.6-0.4c1.7-0.4,3.3-1,4.9-1.8c1.2-0.6,2.3-1.2,3.4-1.6 c1-0.4,2.1-0.7,3.2-0.7c1.2,0,2.3,0.2,3.4,0.7c0.2,2.2,0.4,4.4,0.6,6.7C272.1,202.8,272.4,207.8,272.7,212.8z" class="st9"/></g></g></g></g><g><g><g><g><path d="M12.6,53.4c0.1-0.3,0.2-0.6,0.3-0.8c0.2-0.4,0.4-0.8,0.6-1.2v-0.1c-0.5-3.1-1-6.1-1.4-9.2 c-0.2-1.7-0.4-3.3-0.6-5c-0.5,0.9-0.9,1.8-1.4,2.6c-1.5,2.7-3,5.3-4.5,8c0.3,0.5,0.6,1,0.9,1.6c0.1,0.3,0.2,0.5,0.3,0.8 C7,50.5,7.1,51,7.2,51.4c0.3,1.8,0.4,3.7,0.4,5.5c0,2.8-0.2,5.6-0.5,8.5c0.8-1.5,1.5-2.9,2.3-4.3c0.9-1.7,1.7-3.5,2.4-5.4 C12,54.9,12.3,54.2,12.6,53.4z" class="st10"/><path d="M25-8.5c-0.2,0.6-0.4,1.3-0.7,2C24.2-6,24-5.5,23.8-5C24-4.7,24.2-4.3,24.4-4c0.3,0.5,0.5,1,0.8,1.5 c0.1,0.3,0.3,0.6,0.4,0.9c0.2,0.8,0.4,1.5,0.6,2.3c0.1,0.1,0.1,0.2,0.1,0.4c0.4-0.5,0.8-0.9,1.2-1.3C27.5-0.5,27.6-0.6,28-1 c0.4-0.4,0.6-0.6,1.2-1.1c0.6-0.5,1.1-0.9,1.6-1.2l0.4-0.3l-0.5-0.3c-0.4-0.3-0.9-0.7-1.3-1c-0.4-0.3-0.8-0.6-1.2-1 c-0.7-0.7-1.4-1.3-2.1-1.8l0,0C25.9-8,25.5-8.3,25-8.5z" class="st10"/><path d="M7.3,35.2c-0.1,0.6-0.2,1.1-0.4,1.7c1.2-2.2,2.3-4.3,3.3-6.6C9.2,31.9,8.2,33.6,7.3,35.2z" class="st10"/><path d="M23-6.3c0.3-0.4,0.5-0.7,0.8-1c0.4-0.5,0.9-0.9,1.3-1.4c-2.8-1.8-5.8-3.3-9-4.4l-0.4-0.1 c1.7,1.2,3.2,2.5,4.6,3.9C21.3-8.3,22.1-7.3,23-6.3z" class="st10"/><path d="M7.3-12.9c0.7,1.2,1.3,2.5,1.7,3.8c0.5,1.4,0.9,2.8,1.1,4.3c0,0.4,0,0.8,0,1.1c0,0.2-0.1,0.4-0.1,0.7 c0,0.1,0,0.2,0,0.3c0.4,2.6,0.6,5.2,0.7,7.8c0.1,4.1-0.1,8.3-0.5,12.4l1.2,0.4c0-1.8,0.1-3.9,0.2-6.2c0.2-3,0.6-6.3,1.1-9.4 c0.3-2.2,0.7-4.2,1.1-6c0.1-0.5,0.3-1,0.4-1.5c0.1-0.3,0.2-0.6,0.3-0.9c0.3-0.8,0.6-1.4,0.9-2L15.6-8l-0.5-0.4 c-2.4-1.9-5.1-3.5-7.9-4.8l0.1,0.2L7.3-12.9z" class="st10"/><path d="M28.4,47.5l-0.4,0.6l-0.1,0.2h0c0.7,0.7,1.3,1.5,1.9,2.4c-0.3-0.9-0.7-1.7-1-2.6L28.4,47.5z" class="st10"/><path d="M26.4,62.7c-1.4,0.4-2.8,0.7-4.3,0.7c-0.9,0-1.8,0-2.8-0.1l-0.7-0.1c0,0.4-0.1,0.8-0.1,1.2 c-0.3-0.5-0.5-1-0.8-1.4l-0.1-0.1h-0.1c-1.9,2.8-3.8,5.5-5.7,8.3c1.2,0.1,2.3,0.4,3.5,0.8c0.4,0.1,0.8,0.3,1.1,0.5 c0.3-0.3,0.6-0.6,1-1c0.2-0.2,0.5-0.4,0.7-0.5c0.7-0.5,1.5-0.9,2.2-1.3c1.7-1,3.4-2.2,4.9-3.4h0c1.2-1,2.2-2,3.2-3.2l-0.4-0.9 C27.6,62.3,27,62.5,26.4,62.7z" class="st10"/><path d="M20.2,73.9c-0.4,0.1-0.7,0.2-1.1,0.2c-0.2,0-0.5,0.1-0.7,0.1c0,0.1,0.1,0.1,0.1,0.2 c0.2,0.4,0.4,0.7,0.5,1.1c-0.5,0.1-0.8,0.2-1.2,0.2c-0.4,0.1-0.6,0.2-1.1,0.2c-0.2,0-0.4,0-0.7,0c-0.2,0-0.4,0-0.6-0.1 c-0.9-0.2-1.8-0.4-2.7-0.5c-0.9-0.1-1.7-0.2-2.6-0.2c1.5,0.6,3.1,1.3,4.6,2c2.1,1,4.1,2.3,5.9,3.6c0.1-0.1,0.1-0.2,0.3-0.5 s0.3-0.5,0.4-0.7c0.2-0.4,0.5-0.8,0.7-1.2c1-1.5,2.1-3.1,3-4.7h0c0.7-1.2,1.4-2.4,2-3.6c-0.9,0.7-1.8,1.3-2.8,1.9 C22.9,72.8,21.6,73.4,20.2,73.9z" class="st10"/><path d="M14.6,81.7c-1.2-0.6-2.4-1.2-3.6-1.8c2.1,3.3,3.3,7,3.7,10.9c0.1,1.3,0.1,2.6-0.1,3.9 c2-3.1,3.8-6.2,5.7-9.3c-0.4-0.3-0.9-0.6-1.3-1C17.6,83.5,16.2,82.6,14.6,81.7z" class="st10"/><path d="M20.5,59.5c1.5,0,3.1-0.3,4.5-0.8l1.5-0.5c-0.5-1.3-0.9-2.6-1.4-3.9c-0.2-0.5-0.4-1.1-0.6-1.6v0 c-1.7,2.3-3.3,4.5-4.8,6.8H20.5z" class="st10"/><path d="M2.4,66.4c0.1,0.2,0.2,0.5,0.2,0.7C2.8,65.6,3,64,3.2,62.3v0c0.3-2.6,0.4-5.4,0.4-7.9c0-1.1,0-2.2,0-3.2 C2.7,54.8,1.9,58.4,1,62C1.6,63.4,2,64.9,2.4,66.4z" class="st10"/><path d="M15.7,37.8c0.5,4.3,1.1,8.6,1.6,12.9c0.2,1.4,0.4,2.8,0.7,4.2c1.6-2.2,3.1-4.4,4.7-6.7 c-1.3-3.4-2.9-6.7-4.6-9.9v0c-0.9-1.8-1.9-3.5-3-5.2C15.4,34.7,15.5,36.2,15.7,37.8z" class="st10"/><path d="M71.1,69c-2-0.4-3.9-0.9-5.9-1.2l-0.9-0.2c1.2,0.2,2.4,0.5,3.7,0.8L71.1,69z" class="st10"/><path d="M26.3,43.3c-0.1-0.2-0.2-0.5-0.3-0.7l-0.1-0.2c-0.8-0.9-1.6-1.8-2.4-2.7l0,0c0.7,1.5,1.4,3.1,2,4.6 C25.8,44,26.1,43.7,26.3,43.3z" class="st10"/><path d="M15.4,58.5c-0.1-0.2-0.1-0.3-0.2-0.5l-0.2-0.5c-0.3,1.1-0.7,2.2-1.2,3.2C14.4,60,14.9,59.3,15.4,58.5z" class="st10"/><path d="M22.8,32.7l0.6,0.6c1.8,2,3.8,4.1,5.7,6.4l1-1.3l-0.8-0.7C27.1,35.9,25,34.2,22.8,32.7z" class="st10"/><path d="M20.6-3l-0.8-1c-1-1.2-2.2-2.3-3.4-3.4c0,0.5-0.1,1-0.1,1.6c0,0.4-0.1,0.9-0.1,1.3c0,0.4-0.1,0.8-0.2,1.3 c-0.3,1.8-0.6,3.9-0.9,6c-0.4,3.1-0.7,6.2-0.9,9.1c0,0.2,0,0.5,0,0.7h0c1.1-3.4,2.3-6.8,3.8-10C18.8,0.6,19.6-1.3,20.6-3z" class="st10"/><path d="M23.3,0.1c-0.4-0.4-0.7-0.7-1.1-1.1l-0.1-0.1c-0.3,0.6-0.5,1.2-0.8,1.8c-1.3,2.9-2.6,5.9-3.7,9 c-0.5,1.6-1.1,3.2-1.5,4.7c1.4-2.3,3-4.6,4.8-6.9l0,0c1.4-1.8,2.9-3.7,4.3-5.3l-0.5-0.5L23.3,0.1z" class="st10"/><path d="M45.2,31.7c0.1,0.3,0.1,0.6,0.1,0.9c0,0.3,0.1,0.7,0.1,1c1.1,0.5,2.2,1,3.2,1.5c1,0.5,2,1,3,1.5l0.4-0.8 c0.6-1.3,1.2-2.7,1.9-4c0.1,0,0.1-0.2,0.1-0.2l-1.1-0.2l-2-0.4c-0.7-0.1-1.4-0.3-2-0.5l0,0c-1.4-0.4-2.9-0.8-4.5-1.2l0.2,0.4 C44.9,30.3,45.1,30.9,45.2,31.7z" class="st10"/><path d="M42.8,30c0.1-0.4,0.2-0.7,0.3-1L42,28.7c-0.7,0.9-1.4,1.8-2,2.7l2.2,0.9l0.2-0.8 C42.5,30.9,42.7,30.3,42.8,30z" class="st10"/><path d="M50.5,38.6c-1-0.5-2-1-3-1.4c-0.8-0.4-1.6-0.7-2.4-1.1c-0.2,1.2-0.4,2.4-0.7,3.6l0,0 c-0.1,0.4-0.2,0.8-0.3,1.3c1.2,0.8,2.3,1.7,3.5,2.5C48.6,42,49.6,40.3,50.5,38.6z" class="st10"/><path d="M50.8,46.1l0.9,0.7c0.6,0.6,1.3,1.1,1.9,1.8c2.5-1.3,4.8-2.9,6.9-4.6c-0.7-0.4-1.4-0.8-2.1-1.2 c-1.1-0.6-2.1-1.2-3.2-1.7L54,40.4c-0.6,1.1-1.2,2.3-1.8,3.4C51.8,44.6,51.3,45.3,50.8,46.1z" class="st10"/><polygon points="30.8 35.8 31.4 36.4 31.6 36.1 30.4 35.5" class="st10"/><path d="M43.3,49.4c1.1-1.3,2.1-2.6,3-3.9c-0.9-0.7-1.9-1.3-2.8-2c-0.4,1.5-0.9,3-1.4,4.3 C42.5,48.3,42.9,48.9,43.3,49.4z" class="st10"/><path d="M45.7,9.1c-0.9,0.5-1.7,1-2.5,1.4c0.7-0.2,1.4-0.3,2.1-0.5c0.9-0.2,1.9-0.3,2.9-0.5 c-0.9,0.5-1.7,1-2.6,1.5c-0.6,0.4-1.3,0.7-1.9,1.1s-1.3,0.7-1.9,1c-2,1-4.1,1.9-6.1,2.9l-1.5,0.7c3-0.5,6-0.8,9-0.9l1.9-0.1 c0-0.1,0-0.2,0-0.3c0-0.4,0.1-0.9,0.2-1.3c0.1-0.3,0.2-0.7,0.3-1c0.1-0.2,0.2-0.4,0.3-0.6c0.3-0.5,0.7-1,1.1-1.5 c1-1.1,2-2.1,3.2-3l0,0c0.8-0.6,1.7-1.2,2.7-1.7l-0.8,0.2C50,7,47.8,7.9,45.7,9.1z" class="st10"/><path d="M30.1,19.9c-2.4,0.5-4.8,1.2-7.2,2c1.6-0.2,3.2-0.3,4.7-0.4c3.1-0.3,6.3-0.7,9.6-0.9 c2-0.2,4.1-0.3,6.2-0.3l0,0c0.7-0.8,1.4-1.6,2.1-2.5c-0.9,0.1-1.8,0.1-2.7,0.2C38.5,18.4,34.3,19,30.1,19.9z" class="st10"/><polygon points="47.5 15.7 47.6 15.6 47.6 15.6 47.4 15.7" class="st10"/><path d="M49.6,47.9c-1,1.4-2,2.7-3.1,4.1c1.8-0.7,3.5-1.5,5.3-2.4l-0.2-0.2L49.6,47.9z" class="st10"/><path d="M23,26.1c3,0.6,5.8,1.4,8.7,2.3c1.4,0.5,2.9,0.9,4.3,1.5c0.5-0.7,1-1.4,1.5-2.1c-3-0.6-6-1.1-9-1.4 C26.7,26.1,24.8,26,23,26.1z" class="st10"/><path d="M22.8,28.6c2.1,1,4.1,2.2,6,3.2c1.4,0.7,2.8,1.5,4.2,2.3l1.6-2.2c-1.2-0.4-2.4-0.8-3.6-1.2 C28.3,29.9,25.6,29.2,22.8,28.6z" class="st10"/><path d="M41.3,22.8c-4.2,0.2-8.5,0.7-12.5,1.1c3.5,0.4,6.9,0.9,10.3,1.7C39.8,24.6,40.6,23.7,41.3,22.8z" class="st10"/><path d="M32.7,41.6l-1,1.3c0.3,0.4,0.5,0.7,0.8,1l0.9,1c-0.1-0.8-0.3-1.6-0.4-2.3C32.9,42.3,32.8,41.9,32.7,41.6z" class="st10"/><path d="M40.1,52.9c0.6-0.6,1.2-1.2,1.7-1.8l-0.6-0.8C40.8,51.3,40.4,52.1,40.1,52.9z" class="st10"/><path d="M37.7,47.5v0.2l0.4-1L37.5,46C37.6,46.5,37.7,47,37.7,47.5z" class="st10"/><path d="M41.2,36.3c0.1-0.6,0.2-1.1,0.4-1.7c-1-0.4-2-0.8-3-1.2c-0.7,0.9-1.4,1.9-2,2.8l2.2,1.3l1.9,1.2 C40.8,37.8,41,37,41.2,36.3z" class="st10"/><path d="M35,38.3l0.1,0.2c0.3,0.4,0.5,0.7,0.7,1.2c0.3,0.5,0.5,1.1,0.6,1.6c0.9,0.9,1.7,1.9,2.5,2.8h0 c0.3-1,0.6-2,0.9-2.9c-1.6-1.1-3.2-2-4.8-3L35,38.3z" class="st10"/><path d="M115,2.3c0.8,0.2,1.6,0.5,2.4,0.8c0.8,0.4,1.6,0.8,2.4,1.2c1.3,0.7,2.5,1.5,3.7,2.2 c1.2,0.8,2.6,1.6,3.8,2.3c-0.9-1.1-1.7-2.3-2.7-3.5c-1-1.2-2-2.3-3.1-3.3c-0.8-0.7-1.6-1.3-2.5-1.9c-0.9-0.6-2-1-3-1.4 c-1.6-0.4-3.3-0.6-5-0.6c-3.6,0.1-7.7,0.9-10.6,1.1c-5,0.5-10,1.2-15,2.1c5-1.1,10.2-1.9,15.2-2.8c3.6-0.5,7.1-0.8,10.7-0.9 c2.2,0,4.4,0,6.4,0.2c1.3,0.1,2.7,0.3,4,0.6c0.8,0.2,1.6,0.5,2.4,0.9c0.6,0.3,1.1,0.6,1.7,0.9c1.4,0.7,2.7,1.5,4,2.2 c-1.2-1.3-2.4-2.8-3.8-4.1c-1-0.9-2-1.7-3.2-2.3c-1.2-0.6-2.4-1-3.7-1.2c-1.8-0.4-3.7-0.6-5.5-0.7c-4.6-0.2-9.1,0-13.7,0.6 c-3.4,0.5-6.7,1.1-10.1,1.7c2.3-0.8,4.4-1.6,6.5-2.3c3.4-1.3,6.9-2.5,10.4-3.4c2.2-0.6,4.5-0.9,6.8-0.8c1.1,0.1,2.1,0.2,3.1,0.6 c0.5,0.1,0.9,0.3,1.4,0.4c1,0.4,1.9,0.8,2.8,1.2c1.5,0.7,2.9,1.3,4.4,1.8c-1.1-1-2.2-2.1-3.5-3.2c-0.8-0.7-1.7-1.4-2.5-2 c-1.1-0.8-2.3-1.4-3.5-1.8c-0.6-0.2-1.2-0.3-1.8-0.4c-2.7-0.3-5.4-0.1-8,0.5c-3.7,0.9-7.3,2-10.8,3.3c-5.3,1.8-11.8,4.1-18,6.7 c3.1-2.2,8.4-5.9,13.6-8.9c3.5-2,6.8-3.7,9.3-4.1c0.7-0.1,1.5-0.2,2.2-0.2c0.9,0,1.9,0,2.9,0h3c1.5,0,2.8,0,4.1-0.1 c-1.1-0.4-2.3-1-3.6-1.5c-1.2-0.5-2.4-0.9-3.7-1.3c-0.7-0.2-1.4-0.3-2.1-0.4c-1.1-0.2-2.3-0.2-3.4-0.1c-2.9,0.3-6.8,2-10.8,4.2 c-5.3,2.9-10.8,6.8-14,9l-0.3,0.2c1.7-2.5,3.5-4.9,5.1-7.4c0.8-1.3,1.6-2.7,2.4-4c0.6-1.1,1.2-2.2,1.7-3.3 c0.4-0.9,0.5-1.8,0.5-2.8c0-0.7-0.2-1.4-0.5-2c-0.5-0.8-1.2-1.5-2-1.9c0.4,0.9,0.4,1.8,0.2,2.7c-0.1,0.3-0.3,0.7-0.5,1 c-0.2,0.3-0.4,0.7-0.6,1c-0.2,0.3-0.4,0.6-0.6,0.9c-0.5,0.8-1,1.6-1.5,2.4c-1.1,1.8-2.3,3.5-3.5,5.2l-0.5,0.7 c0.5-2.2,1-4.4,1.4-6.5c0.2-1.5,0.7-3.1,0.9-4.5c0-0.5,0-0.9,0-1.4c0-0.8-0.1-1.7-0.5-2.4c-0.6-1.1-1.7-1.8-2.9-1.8 c-0.9,0-1.9,0.1-2.7,0.5c0.7,0.2,1.3,0.5,1.9,0.8c0.5,0.2,0.9,0.6,1.1,1.1c0.1,0.2,0,0.3,0.1,0.5c0,0.3,0,0.7-0.1,1 c0,0.4-0.2,0.8-0.3,1.2c-0.3,1.4-0.8,2.9-1.2,4.3c-0.7,3.2-1.5,6.7-2.6,10c1-5.8,1-11.7-0.2-16.2c-0.3-1.1-0.8-2.1-1.5-3 c-0.6-0.9-1.3-1.7-2-2.4c-0.8-0.7-1.6-1.4-2.5-2c-0.9-0.6-1.8-1-2.8-1.3c0.6,0.7,1.1,1.5,1.6,2.3c0.3,0.5,0.6,1,0.9,1.6 c0.5,0.8,0.8,1.6,1.2,2.4c0.6,1,1.1,2.2,1.4,3.3c0.4,1.9,0.6,3.8,0.6,5.7c0,3-0.3,5.9-0.8,8.9c-0.1,0.7-0.2,1.3-0.4,2 c-0.2-2-0.5-3.9-0.7-6c-0.3-2.5-0.5-4.5-0.8-6.3c-0.3-1.5-0.8-3-1.6-4.4c-0.3-0.5-0.7-1-1.2-1.5c-0.7-0.7-1.4-1.2-2.2-1.7 c-0.9-0.5-1.8-0.8-2.7-1.1c0.6,0.8,1,1.5,1.4,2.3c0.4,0.7,0.8,1.4,1.1,2.2c0.2,0.4,0.3,0.8,0.5,1.1c0.2,0.6,0.4,1.1,0.5,1.7 c0.6,2.7,0.9,5.4,1,8.2c0.3,2.7,0.6,5.3,0.8,7.8c-0.5-1.3-1.2-2.6-1.9-3.8c-1.2-2-2.5-3.9-4.1-5.6c-0.7-0.7-1.4-1.4-2.2-2.1 c-0.3-0.2-0.6-0.4-0.9-0.6c-0.5-0.3-0.9-0.6-1.4-0.8c-0.6-0.3-1.3-0.5-1.9-0.7c-0.7-0.1-1.4-0.2-2.1-0.2c0.5,0.6,1,1.2,1.5,1.8 c0.3,0.4,0.6,0.9,1,1.3c0.4,0.5,0.6,0.8,1,1.3c0.8,0.9,1.6,1.8,2.4,2.8c1.3,1.7,2.4,3.4,3.4,5.3c-0.9-0.7-1.8-1.3-2.7-1.8 c-0.7-0.5-1.5-0.9-2.3-1.2c-0.3-0.1-0.6-0.2-0.9-0.3c-1-0.3-2.1-0.4-3.2-0.4c-0.6,0-1.2,0.1-1.8,0.3c0.6,0.4,1.1,0.8,1.6,1.3 c0.4,0.3,0.7,0.6,1.1,1c0.4,0.4,0.7,0.6,1.1,0.9c0.8,0.6,1.7,1.2,2.6,1.9c2,1.5,3.9,3.1,5.7,4.9C58-1.4,58.5-0.8,59-0.2 c0.1,0.9,0.1,1.7-0.1,2.6c-2.5-0.7-5.1-0.7-7.6,0C49,3,46.8,3.9,44.8,5.1c-1.1,0.6-2.1,1.3-3.1,2.1c-0.2,0.2-0.5,0.4-0.7,0.6 c-0.3,0.3-0.5,0.6-0.8,0.9c-0.4,0.5-0.7,1-0.9,1.6c-0.2,0.6-0.4,1.1-0.5,1.7c-1.3,0.5-2.7,1.1-4,1.8c-3.1,1.4-6.2,2.9-9.2,4.2 c-2.3,1-4.8,1.8-7.2,2.8c1.2-1,2.6-2,4-3c2.6-1.9,5.5-3.9,8.4-5.7c2-1.3,4-2.5,5.7-3.6c0.4-0.3,0.8-0.5,1.2-0.8l1.2-0.8l1.8-1.3 c0.7-0.5,1.3-1,1.8-1.3c-0.8,0.1-1.5,0.3-2.2,0.5c-0.7,0.2-1.4,0.5-2.2,0.8c-0.3,0.1-0.6,0.2-0.9,0.4c-0.5,0.2-1,0.5-1.5,0.7 c-1.8,1-3.8,2.1-5.8,3.4c-3,1.8-6,3.9-8.7,5.8c-1.7,1.2-3.3,2.4-4.7,3.5c0.9-1.8,1.9-3.5,2.9-5.1c1.7-2.6,3.6-5.2,5.5-7.8 c1.3-1.8,2.7-3.4,4-5c0.3-0.4,0.6-0.7,0.8-1.1c0.3-0.4,0.5-0.8,0.8-1.1c0.4-0.6,0.8-1.2,1.1-1.8l0.4-0.6 c0.5,0.3,0.9,0.6,1.4,0.9C33-3,32.8-3.7,32.6-4.5c-0.3-0.7-0.5-1.5-0.9-2.2c-0.1-0.3-0.3-0.6-0.5-0.9C31-8,30.7-8.4,30.3-8.8 c-0.5-0.6-1.1-1.2-1.7-1.7c-3.4-2.7-7.2-4.8-11.2-6.3c-1.3-0.5-2.6-0.9-4-1.2c2.5,0.1,4.9,0.5,7.4,1c2.4,0.6,4.7,1.3,6.9,2.3 c1,0.4,1.9,0.9,2.8,1.4l1,0.5c0.5,0.2,1,0.5,1.5,0.7l2,1c0.7,0.4,1.3,0.6,2.1,1c-0.3-0.8-0.7-1.5-1.1-2.2 c-0.5-0.8-1-1.5-1.6-2.1c-0.2-0.3-0.5-0.5-0.8-0.8c-0.5-0.4-0.9-0.8-1.5-1.2c-2.1-1.4-4.3-2.5-6.7-3.3c-3.5-1.2-7.2-2-10.9-2.3 c4.3-1.2,8.8-1.7,13.3-1.6c1.1,0,2.1,0.1,3.1,0.2l1.1,0.1c0.6,0,1.1,0,1.7,0.1c0.8,0,1.4,0.1,2.2,0.1c0.7,0.1,1.5,0.1,2.3,0.2 c-1.1-1.3-2.5-2.4-4.1-3.1c-0.3-0.2-0.7-0.3-1-0.4c-0.6-0.2-1.2-0.4-1.8-0.5c-2.4-0.5-4.9-0.7-7.4-0.6c-3.1,0.1-6.1,0.5-9.1,1.2 h-0.1c2.6-1.3,5.3-2.3,8-3.2c2.1-0.7,4.3-1.2,6.4-1.8c0.5-0.1,0.9-0.3,1.4-0.4c0.4-0.2,0.9-0.4,1.4-0.5c0.7-0.3,1.4-0.6,2-0.9 c0.6-0.3,1.3-0.7,2-1.1c-0.9-0.2-1.6-0.4-2.6-0.5c-0.8-0.1-1.5-0.2-2.3-0.2c-0.5,0-1,0-1.5,0.1c-1.5,0.2-2.9,0.4-4.4,0.7 c-2.6,0.6-5.2,1.3-7.7,2.2c0.1-0.1,0.2-0.3,0.3-0.4c1.7-2.3,3.4-4.6,5.1-6.7c0.8-1,1.5-1.9,2.3-2.8c0.3-0.3,0.5-0.7,0.8-1 c0.4-0.5,0.8-1,1.1-1.5c0.5-0.7,1-1.3,1.5-1.9c0.5-0.7,1-1.3,1.6-1.9c-0.9,0.1-1.7,0.4-2.5,0.7c-1.2,0.5-2.3,1.1-3.3,1.9 c-0.7,0.5-1.4,1-2,1.6c-0.9,0.8-1.7,1.8-2.6,2.7c-2.5,2.9-4.9,6-7.2,9.1l-1.5,2c0.5-1.4,0.8-2.7,1-3.6c0.8-4.2,1.1-8.4,1-12.6 c0-1.2-0.1-2.5-0.2-3.7c-0.1-0.8-0.2-1.6-0.3-2.4c-0.2-1-0.4-2-0.6-3c-0.2-1-0.5-2-0.8-3.1c-0.4,1-0.7,1.9-1,2.9 c-0.3,1-0.4,1.8-0.6,2.7c-0.1,0.6-0.2,1.2-0.2,1.8c-0.1,0.6-0.1,1-0.1,1.5c0,1.2,0,2.4,0,3.5c-0.1,2.5-0.2,5-0.5,7.5 c-0.1-3.5-0.6-7-1.7-10.3c-0.4-1.2-0.8-2.4-1.2-3.5c-0.3-0.8-0.7-1.5-1.1-2.2c-0.5-0.9-1-1.8-1.6-2.6c-0.6-0.9-1.2-1.7-1.9-2.5 c0.1,1,0.1,1.8,0.2,2.8c0.1,1,0.2,1.9,0.4,2.9c0.1,0.4,0.1,0.8,0.2,1.2C2-52.3,2.2-51.6,2.4-51c0.7,2.5,1.3,5,1.8,7.6 c0.3,1.7,0.4,3.3,0.3,5c-0.9-2.3-1.9-4.5-3.1-6.6c-0.4-0.8-0.9-1.6-1.3-2.3v43.2c0.2-0.1,0.4-0.2,0.5-0.4C1-4.7,1.4-5,1.7-5.4 c0.2-0.3,0.4-0.6,0.6-0.9c0.2-0.5,0.4-1,0.5-1.5C3-9,3.3-10.2,3.3-11.6c0,0.1,0.1,0.2,0.2,0.2s0.1,0.2,0.1,0.2 c1.9,5.2,2.9,10.7,3,16.3c0.1,3.8-0.1,7.7-0.5,11.5c-2-0.3-4.1-0.4-6.1-0.5v4.1v4.2h0.4l-0.4,0.2v4.7l0.1-0.1l-0.1,0.1v5.6 c0.6-0.6,1.3-1.2,1.9-1.8c0.7-0.6,1.3-1.1,1.9-1.7c-0.2,0.7-0.3,1.4-0.4,2.1c-1.2,2.1-2.3,4.3-3.4,6.6v59.1 c0.8-3.8,1.3-7.7,1.5-11.6c0.2,1.7,0.4,3.4,0.6,5.1c0.2,1.7,0.3,3.4,0.4,5c0,0.4,0.1,0.7,0.1,1c0,0.3,0.1,0.7,0.2,1.1 c0.1,0.6,0.2,1.1,0.3,1.6s0.2,1.1,0.3,1.8c0.4-0.4,0.8-0.9,1.2-1.4c0.3-0.5,0.6-1,0.8-1.5c0.2-0.4,0.3-0.9,0.5-1.3 C6,99,6.1,98.7,6.1,98.4c0.1-1.5,0.2-3,0.1-4.4c-0.1-2.2-0.4-4.3-0.5-6.3c-0.2-1.7-0.2-3.3-0.1-5c0-0.6,0.1-1.2,0.3-1.8 c0.2,0,0.4-0.1,0.6-0.2c1.8,2.5,3.1,5.3,3.8,8.3c0.4,1.6,0.6,3.3,0.6,4.9c0,0.7,0,1.4-0.1,2.1c0,0.3,0,0.5,0,0.8 c0,0.4,0,0.8,0.1,1.2c0.1,0.4,0.1,1,0.1,1.6c0,0.2,0,0.4,0.1,0.6c-1.1,1.5-2.2,3-3.4,4.5c-2.5,3.1-5,6.2-7.5,9.3v6.4 c3.6-4.3,7.2-8.7,10.7-13.1c4.8-6,8.6-12.5,12.5-18.8c-0.1,0.5-0.2,0.9-0.3,1.4c-0.2,0.7-0.3,1.3-0.4,2.1 c-0.1,0.7-0.1,1.4-0.2,2.1c0.6-0.6,1.1-1,1.7-1.6c0.5-0.6,1.1-1.2,1.5-1.8c0.2-0.3,0.4-0.5,0.6-0.8c0.3-0.5,0.6-0.9,0.9-1.4 c1.1-1.9,2-3.9,2.8-5.9c1.2-2.7,2.2-5.4,3.2-8.2l0.4-0.5c0,0.3,0,0.6,0.1,0.9c0.2,3.4,0.3,7.1,0.2,10.7c0,2.5-0.1,5-0.1,7.2 c0,0.5,0,1,0,1.5c0,0.5,0,1,0.1,1.5c0.1,0.9,0.1,1.6,0.2,2.3c0.1,1,0.2,1.7,0.2,2.4c0.5-0.7,1-1.4,1.3-2.2 c0.4-0.8,0.7-1.6,1-2.4c0.1-0.3,0.2-0.7,0.3-1.1c0.1-0.6,0.3-1.2,0.4-1.8c0.3-2.4,0.5-4.8,0.6-7.2c0.1-2.2,0.1-4.5,0.1-6.7 c0.5,2.7,0.9,5.4,1.3,8c0.2,1.5,0.3,2.9,0.5,4.3c0.1,0.5,0.2,1,0.3,1.5c0.2,0.8,0.4,1.5,0.5,2.2c0.2,0.9,0.5,1.7,0.7,2.6 c0.3-0.7,0.6-1.4,0.9-2.1c0.4-1.1,0.6-2.1,0.8-3.2c0.1-0.7,0.1-1.4,0.1-2.1c0-1.1,0-2.1-0.1-3.2c-0.2-3-0.6-6-1.2-9 c1,2.4,2,4.8,2.9,7.2c0.4,1,0.7,2.1,1.1,3.2c0.1,0.4,0.3,0.8,0.4,1.1c0.2,0.6,0.5,1.1,0.7,1.7c0.2,0.6,0.6,1.4,1,2.1 c0.4,0.7,0.7,1.4,1.1,2.1c0.2-0.8,0.3-1.6,0.4-2.4c0.1-1.2,0.2-2.4,0.1-3.6c-0.1-0.8-0.2-1.6-0.3-2.3c-0.2-1.2-0.5-2.3-0.9-3.4 c-0.5-1.5-1-3.1-1.6-4.6c0.1,0.1,0.1,0.1,0.2,0.2c1.5,1.7,3,3.4,4.5,5c1.5,1.6,3.1,3.2,4.7,4.8c0.4,0.4,0.8,0.8,1.3,1.2 c0.4,0.4,0.9,0.8,1.4,1.1c0.7,0.6,1.4,1.1,2.2,1.6c0.8,0.5,1.5,1,2.3,1.5c-0.4-0.9-0.7-1.7-1.1-2.6c-0.4-0.9-0.9-1.7-1.4-2.5 c-0.2-0.4-0.4-0.7-0.7-1c-0.4-0.5-0.7-1-1.1-1.5c-0.6-0.7-1.2-1.4-1.8-2.1c-2.4-2.7-4.8-5.3-7.1-8.1c-0.3-0.4-0.7-0.8-1-1.2 c2,1.4,4,2.7,6.1,3.9c2.9,1.7,5.9,3.3,9,4.7c1.3,0.6,2.6,1.2,4,1.7c0.5,0.2,1,0.4,1.5,0.5c0.8,0.2,1.5,0.4,2.2,0.6 c1,0.2,1.9,0.4,2.9,0.5c1,0.1,1.9,0.2,2.9,0.3c-1-0.7-1.9-1.4-2.9-2c-1-0.7-1.7-1.1-2.6-1.7c-0.6-0.4-1.2-0.7-1.8-1 c-1.7-0.9-3.5-1.8-5.2-2.7c-4-2.1-8-4.4-11.8-6.9c-2.1-1.4-4.1-2.8-6-4.3c3.8,1.7,7.7,3.2,11.4,4.8c4.6,2,9.2,4.2,13.8,6 c2,0.8,4,1.6,6.1,2.2c0.7,0.2,1.4,0.4,2.2,0.5c1.1,0.2,2.2,0.4,3.4,0.6c1.1,0.1,2.5,0.2,3.8,0.3c-1.1-0.6-2.1-1.2-3.3-1.9 s-1.9-1.1-2.9-1.6c-0.7-0.3-1.3-0.7-2-1L78,78.4l-4.1-1.8c-3.6-1.6-7.1-3.3-10.7-5c3.3,0.7,6.7,1.2,10,1.7 c1.6,0.2,3.1,0.4,4.6,0.6c0.5,0.1,1.1,0.1,1.7,0.1c0.8,0.1,1.7,0.1,2.5,0.1c1.1,0,2.1,0,3.1-0.1c1.1-0.1,2.1-0.2,3.2-0.3 c-1.1-0.4-2-0.9-3.1-1.3c-1.1-0.4-2.1-0.7-3.1-1.1l-0.8-0.2c0.6,0.1,1.2,0.2,1.8,0.2c1.3,0.1,2.5,0.2,3.8,0.2 c1.5,0,2.8,0,4.3-0.1c-1.4-0.5-2.6-1.1-4-1.6c-1.2-0.5-2.3-0.9-3.5-1.4c-0.8-0.3-1.6-0.5-2.4-0.8c-2-0.6-4-1.2-6.1-1.7 c-3.1-0.8-6.2-1.6-9.3-2.2l-1.6-0.3c2.2,0.1,4.4,0.2,6.6,0.4c3,0.2,6,0.4,9,0.6c1.2,0.1,2.4,0.1,3.6,0.2c0.8,0,1.6,0,2.5,0 s1.6-0.1,2.5-0.2c1.2-0.1,2.4-0.3,3.7-0.5s2.7-0.6,4-1c-1.4-0.2-2.7-0.4-4-0.7c-1.2-0.2-2.4-0.4-3.6-0.6 c-0.8-0.1-1.6-0.2-2.4-0.3s-1.6-0.2-2.4-0.3c-1.2-0.1-2.4-0.2-3.6-0.3l-2.9-0.3c1.5-0.3,2.9-0.8,4.3-1.4c1-0.4,1.9-1,2.8-1.6 c1.1-0.7,2.1-1.7,3-2.7c0.8-1,1.5-2.2,1.9-3.5c-0.8,0.7-1.7,1.3-2.6,1.8c-0.9,0.5-1.9,0.9-2.9,1.3L82.6,55 c-0.7,0.2-1.4,0.5-2.1,0.7c-2,0.6-4.1,1.1-6.2,1.4c1.8-0.6,3.5-1.4,5.1-2.4c0.7-0.4,1.4-0.9,2-1.5c0.4-0.3,0.7-0.6,1.1-1 c0.8-0.9,1.5-1.9,2-2.9c0.5-1,0.7-2.1,0.8-3.2c-0.6,0.8-1.3,1.6-2.1,2.2c-0.8,0.6-1.6,1.2-2.5,1.7c-0.4,0.2-0.7,0.4-1.1,0.6 c-0.6,0.3-1.2,0.6-1.9,1c-2.6,1.2-5.4,2.2-8.2,2.9c-3.6,0.8-7.3,1.4-11,1.7c-1.4,0.1-2.8,0.2-4.2,0.2c4.2-1.2,8.3-2.8,12.3-4.8 c2.7-1.3,5.2-3,7.5-4.9c0.6-0.5,1.1-1.1,1.6-1.7c0.3-0.4,0.6-0.7,0.8-1.1c0.6-0.9,1.1-1.9,1.4-3c0.3-1,0.4-2,0.4-3.1 c-0.4,0.8-1,1.5-1.6,2.1c-0.6,0.6-1.2,1.2-1.9,1.7c-0.5,0.4-1,0.8-1.6,1.2l-1.1,0.8c-1,0.7-2,1.4-3.2,2.1 c-2.6,1.5-5.3,2.9-8.1,4c-0.9,0.4-1.8,0.7-2.7,1c1.9-1.2,3.7-2.5,5.3-4.1c0.2-0.2,0.4-0.4,0.6-0.5c0.5,0.3,0.9,0.6,1.3,1 c-0.3-0.4-0.7-0.9-1-1.3c1.6-1.6,3-3.5,4-5.6c0.3-0.6,0.5-1.3,0.7-1.9c0.1-0.4,0.2-0.8,0.3-1.2c0.2-0.9,0.2-1.9,0.2-2.8 c-0.1-0.9-0.2-1.8-0.4-2.6c-0.3,0.9-0.7,1.5-1.1,2.3c-0.6,1.1-1.2,2.1-1.8,3.1l-0.9,1.5c-1,1.6-2.3,3.1-3.7,4.5 c-0.7-0.6-1.4-1.2-2.2-1.8c-1-0.8-2.1-1.4-3.1-2.1c-0.4-0.2-0.8-0.5-1.2-0.7c0.2-0.6,0.5-1.1,0.7-1.7c0.4-1,0.8-2.1,1.1-3.2 c0.1-0.4,0.2-0.8,0.3-1.2v-0.1c1,0.3,1.9,0.6,2.8,1c-0.7-0.7-1.4-1.3-2.2-1.8l-0.4-0.3c0-0.2,0.1-0.4,0.1-0.6 c0.1-0.8,0.1-1.5,0.2-2.3c0-0.8,0-1.5-0.1-2.3c-0.5,0.8-1.1,1.4-1.6,2.2c-0.4,0.6-0.8,1.1-1.1,1.7l-0.3-0.1 c-0.5-0.2-1.1-0.4-1.6-0.6c-1.1-0.4-2.2-0.7-3.3-1c-1.8-0.5-3.8-1.1-6-1.7c1.1-1.4,2.1-2.7,3.3-4c1.1,0,2.2,0,3.3,0h1.6l1.9,0.1 c1,0,1.9,0,2.9,0.1c1,0.1,2.1,0.1,3.2,0.2c-1-0.5-2-0.9-3-1.2c-1-0.3-2.1-0.6-3.2-0.9c-1.1-0.2-2.1-0.4-3.2-0.5 c-0.5,0-1-0.1-1.5-0.1c0.1-0.1,0.2-0.2,0.3-0.3c0.8-0.8,1.5-1.6,2.3-2.4l1.6-0.1c1.1-0.1,2.1-0.1,3.2,0 c-0.8-0.4-1.7-0.7-2.6-0.9l-1-0.2c2.4-2.2,5-4.2,7.7-5.9h0.3c0.2,0.1,0.5,0.1,0.8,0.1c1.2,0.6,2.1,1.7,2.6,3 c0.6,1.8,1,3.7,1,5.5c0.1,0.9,0.1,1.8,0.2,2.6c0,0.3,0.1,0.6,0.2,0.9c0.1,0.5,0.3,1,0.5,1.4c0.2,0.7,0.5,1.1,0.7,1.6 c0.4-0.5,0.7-0.9,1-1.5c0.3-0.4,0.5-0.9,0.7-1.4c0.1-0.3,0.2-0.6,0.3-1c0.1-0.2,0.1-0.5,0.1-0.8c0.1-1,0.2-2.1,0.1-3.1 c0-2-0.4-4.1-1.1-6c0-0.1-0.1-0.2-0.1-0.3c2.3,0.8,4.5,1.8,6.7,2.9c5,2.6,9.6,6,12,9.2c0.6,0.8,1.1,1.6,1.6,2.5 c0.5,0.9,0.9,1.8,1.4,2.8c0.5,1,1,1.9,1.5,2.8c0.5,0.9,1,1.9,1.5,2.9c0.6,1.1,1.2,2,1.6,2.9c0.1-1.1,0.1-2.3,0-3.4 c-0.1-1-0.2-2-0.4-3c-0.1-0.7-0.3-1.3-0.5-2c-0.2-0.8-0.5-1.6-0.8-2.4c-0.7-1.9-1.6-3.7-2.7-5.4c-1.8-2.3-4-4.4-6.3-6.1 c1.2,0.5,2.5,1.1,3.7,1.7c2.8,1.4,5.5,3,8.1,4.8c1.1,0.8,2.2,1.6,3.2,2.4l1.1,0.9c0.6,0.4,1.2,0.8,1.7,1.3 c0.8,0.6,1.4,1.1,2.1,1.7c0.7,0.6,1.4,1.2,2,1.9c-0.2-1-0.5-2-0.9-3c-0.4-1-1-2-1.6-2.9c-0.3-0.4-0.5-0.8-0.9-1.1 c-0.5-0.6-1-1.2-1.6-1.7c-2.3-2.1-4.7-3.9-7.4-5.5c-2.5-1.5-5.1-2.9-7.8-4.1c2.4,0.5,4.8,1.1,7.1,1.8c4.8,1.4,9.5,3,14.1,5.1 c1.2,0.5,2.5,1.1,3.8,1.6c0.8,0.3,1.5,0.6,2.2,0.9c0.5,0.2,1,0.4,1.5,0.6c0.7,0.3,1.3,0.7,1.9,1c1,0.6,1.9,1.2,2.7,2 c-0.4-1.2-1-2.3-1.8-3.2c-0.8-1-1.7-1.9-2.6-2.7c-0.8-0.6-1.6-1.2-2.4-1.7c-1.2-0.8-2.6-1.4-3.8-2c-4.2-2-8.6-3.8-13.1-5.2 c3.9,0.8,7.7,1.8,11.4,2.8c2.3,0.7,4.5,1.5,6.6,2.2c0.8,0.3,1.5,0.5,2.3,0.7l3.5,1c1.4,0.4,2.7,0.7,3.9,1.2 c-0.8-0.8-1.6-1.5-2.6-2.3c-0.9-0.7-1.9-1.4-2.8-2c-0.8-0.5-1.6-1-2.4-1.4c-0.5-0.3-1.1-0.5-1.7-0.8c-1.5-0.7-3.2-1.3-4.8-1.9 c-3.8-1.3-7.6-2.4-11.5-3.2c3.5,0.1,6.9,0.5,10.3,1.3c2.6,0.7,5.1,1.6,7.4,2.9c1,0.5,2,1,3.1,1.6c1.4,0.7,2.7,1.5,4.2,2.3 c0.9,0.5,1.9,1,2.8,1.7c-0.7-1.2-1.5-2.3-2.4-3.4c-0.9-1.1-1.8-2.1-2.9-3c-0.8-0.8-1.7-1.4-2.7-2.1c-1.4-0.9-2.9-1.7-4.5-2.4 c-2.6-1.1-5.3-1.9-8.1-2.3c1.8-0.3,3.9-0.6,5.8-0.8C111.4,1.9,113.2,1.9,115,2.3z M3.6,54.4c0,2.5-0.1,5.3-0.4,7.9v0 C3,64,2.8,65.6,2.6,67.1c0-0.2-0.1-0.5-0.2-0.7C2,64.9,1.6,63.4,1,62c0.9-3.6,1.8-7.2,2.6-10.7C3.6,52.2,3.6,53.3,3.6,54.4z M65.2,67.8c2,0.3,4,0.8,5.9,1.2L68,68.4c-1.2-0.2-2.4-0.5-3.7-0.8L65.2,67.8z M18.2,38.3L18.2,38.3c1.7,3.2,3.2,6.5,4.6,9.8 c-1.6,2.3-3.2,4.5-4.7,6.7c-0.3-1.4-0.5-2.8-0.7-4.2c-0.6-4.3-1.1-8.6-1.6-12.9c-0.2-1.5-0.4-3.1-0.5-4.6 C16.3,34.9,17.3,36.6,18.2,38.3z M24.5,52.8L24.5,52.8c0.2,0.5,0.4,1,0.6,1.6c0.5,1.3,0.9,2.6,1.4,3.9L25,58.8 c-1.5,0.5-3,0.8-4.5,0.8h-0.8C21.3,57.3,22.9,55.1,24.5,52.8z M23.5,39.7L23.5,39.7c0.8,0.9,1.6,1.8,2.4,2.7l0.1,0.2 c0.1,0.2,0.2,0.5,0.3,0.7c-0.2,0.3-0.5,0.7-0.7,1C24.9,42.8,24.2,41.3,23.5,39.7z M15.1,57.6l0.2,0.5c0.1,0.2,0.1,0.3,0.2,0.5 c-0.5,0.8-1.1,1.5-1.6,2.3C14.3,59.8,14.7,58.7,15.1,57.6z M14.1,12.6c0-0.2,0-0.5,0-0.7c0.2-2.9,0.6-6,0.9-9.1 c0.3-2.1,0.6-4.2,0.9-6c0.1-0.4,0.1-0.9,0.2-1.3c0-0.4,0.1-0.9,0.1-1.3c0-0.6,0.1-1.1,0.1-1.6c1.2,1,2.3,2.2,3.4,3.4l0.8,1 c-1,1.7-1.9,3.6-2.7,5.5C16.5,5.8,15.2,9.2,14.1,12.6L14.1,12.6z M21,7.4L21,7.4c-1.8,2.3-3.4,4.6-4.8,6.9 c0.5-1.5,1-3.1,1.5-4.7c1.1-3.1,2.4-6.1,3.7-9c0.3-0.6,0.5-1.2,0.8-1.8L22.2-1c0.4,0.4,0.7,0.7,1.1,1.1l1.4,1.5l0.5,0.5 C23.8,3.7,22.4,5.6,21,7.4z M28.3-5.9c0.4,0.4,0.8,0.7,1.2,1c0.4,0.3,0.8,0.7,1.3,1l0.5,0.3l-0.4,0.3c-0.5,0.4-1,0.8-1.6,1.2 C28.7-1.6,28.4-1.4,28-1c-0.4,0.4-0.5,0.5-0.8,0.8c-0.4,0.4-0.8,0.9-1.2,1.3c0-0.1,0-0.2-0.1-0.4c-0.1-0.8-0.3-1.5-0.6-2.3 c-0.1-0.3-0.2-0.6-0.4-0.9c-0.2-0.5-0.5-1-0.8-1.5C24.2-4.3,24-4.7,23.8-5C24-5.5,24.2-6,24.4-6.5c0.2-0.7,0.5-1.4,0.7-2 c0.5,0.3,0.8,0.6,1.2,0.9l0,0C27-7.2,27.7-6.5,28.3-5.9z M16.1-13c3.2,1.1,6.2,2.6,9,4.4c-0.4,0.4-0.8,0.9-1.3,1.4 c-0.3,0.3-0.5,0.6-0.8,1c-0.8-1.1-1.7-2.1-2.6-3c-1.4-1.4-3-2.7-4.6-3.9L16.1-13z M15.1-8.4L15.6-8l-0.1,0.1 c-0.3,0.6-0.6,1.2-0.9,2c-0.1,0.3-0.2,0.6-0.3,0.9c-0.2,0.5-0.3,1-0.4,1.5c-0.5,1.8-0.8,3.8-1.1,6c-0.5,3.1-0.8,6.4-1.1,9.4 c-0.2,2.3-0.3,4.4-0.2,6.2l-1.2-0.4c0.5-4.1,0.6-8.3,0.5-12.4c-0.1-2.6-0.3-5.2-0.7-7.8c0-0.1,0-0.2,0-0.3c0-0.2,0-0.4,0.1-0.7 c0-0.4,0-0.8,0-1.1C10-6.3,9.6-7.8,9.1-9.2c-0.5-1.3-1.1-2.6-1.7-3.8l0-0.1l-0.1-0.2C10-11.9,12.6-10.3,15.1-8.4z M7.3,35.2 c0.9-1.7,1.9-3.3,2.9-4.9c-1,2.2-2.1,4.4-3.3,6.6C7.1,36.4,7.2,35.8,7.3,35.2z M7.1,65.4c0.4-2.8,0.6-5.6,0.5-8.5 c0-1.9-0.1-3.7-0.4-5.5C7.1,51,7,50.5,6.8,50c-0.1-0.3-0.2-0.6-0.3-0.8c-0.2-0.6-0.5-1.1-0.9-1.6c1.5-2.7,3.1-5.3,4.5-8 c0.5-0.9,0.9-1.8,1.4-2.6c0.2,1.7,0.4,3.3,0.6,5c0.4,3.1,0.9,6.2,1.4,9.2v0.1c-0.2,0.4-0.4,0.8-0.6,1.2 c-0.1,0.3-0.2,0.6-0.3,0.8c-0.3,0.8-0.6,1.6-0.9,2.3c-0.7,1.8-1.5,3.6-2.4,5.4C8.6,62.5,7.8,64,7.1,65.4z M14.6,94.7 c0.1-1.3,0.2-2.6,0.1-3.9C14.4,87,13.1,83.3,11,80c1.2,0.5,2.4,1.1,3.6,1.8c1.5,0.8,3,1.7,4.4,2.8c0.5,0.4,0.9,0.7,1.3,1 C18.5,88.6,16.6,91.7,14.6,94.7z M24.9,73.7L24.9,73.7c-0.9,1.6-1.9,3.1-3,4.7c-0.3,0.4-0.5,0.8-0.7,1.2 c-0.2,0.2-0.3,0.5-0.4,0.7s-0.2,0.3-0.3,0.5c-1.8-1.4-3.8-2.6-5.9-3.6c-1.5-0.7-3-1.4-4.6-2c0.9,0,1.7,0.1,2.6,0.2 c0.9,0.1,1.8,0.3,2.7,0.5c0.2,0,0.4,0.1,0.6,0.1c0.2,0,0.4,0,0.7,0c0.4,0,0.7-0.1,1.1-0.2c0.4-0.1,0.7-0.2,1.2-0.2 c-0.1-0.4-0.3-0.8-0.5-1.1c0-0.1-0.1-0.1-0.1-0.2c0.2,0,0.5,0,0.7-0.1c0.4-0.1,0.7-0.1,1.1-0.2c1.4-0.5,2.7-1.1,4-1.9 c1-0.6,1.9-1.2,2.8-1.9C26.3,71.3,25.6,72.6,24.9,73.7z M25.3,66.1L25.3,66.1c-1.5,1.3-3.2,2.4-4.9,3.4 c-0.8,0.5-1.5,0.8-2.2,1.3c-0.3,0.2-0.5,0.3-0.7,0.5c-0.4,0.3-0.7,0.6-1,1c-0.4-0.2-0.8-0.3-1.1-0.5c-1.1-0.4-2.3-0.6-3.5-0.8 c1.9-2.8,3.7-5.5,5.7-8.3h0.1l0.1,0.1c0.3,0.5,0.5,0.9,0.8,1.4c0-0.4,0.1-0.8,0.1-1.2l0.7,0.1c0.9,0.1,1.8,0.2,2.8,0.1 c1.5,0,2.9-0.3,4.3-0.7c0.6-0.2,1.2-0.4,1.7-0.6l0.4,0.9C27.6,64.1,26.5,65.2,25.3,66.1z M27.8,48.3L27.8,48.3l0.2-0.2l0.4-0.6 l0.2,0.6c0.3,0.9,0.7,1.7,1,2.6C29.1,49.9,28.4,49.1,27.8,48.3z M29,39.7c-1.9-2.2-3.9-4.4-5.7-6.4l-0.6-0.6 c2.2,1.5,4.4,3.2,6.4,5l0.8,0.7L29,39.7z M31.4,36.4l-0.6-0.5l-0.5-0.4l1.2,0.7L31.4,36.4z M32.5,43.9c-0.2-0.3-0.5-0.6-0.8-1 l1-1.3c0.1,0.3,0.1,0.7,0.2,1c0.2,0.8,0.3,1.5,0.4,2.3L32.5,43.9z M33,34.1c-1.4-0.8-2.8-1.5-4.2-2.3c-1.9-1-3.9-2.2-6-3.2 c2.8,0.6,5.5,1.3,8.2,2.1c1.2,0.4,2.4,0.8,3.6,1.2L33,34.1z M28.8,23.9c4-0.5,8.2-0.9,12.5-1.1c-0.7,0.9-1.5,1.9-2.2,2.8 C35.7,24.8,32.3,24.2,28.8,23.9z M37.5,27.7c-0.5,0.7-1,1.4-1.5,2.1c-1.4-0.5-2.9-1-4.3-1.5c-2.9-0.9-5.8-1.7-8.7-2.3 c1.9,0,3.7,0,5.5,0.2C31.5,26.6,34.5,27.1,37.5,27.7z M37.7,47.7v-0.2c0-0.5-0.1-1-0.2-1.5l0.6,0.7L37.7,47.7z M39,44.1L39,44.1 c-0.8-0.9-1.7-1.9-2.6-2.8c-0.2-0.6-0.4-1.1-0.6-1.6c-0.2-0.4-0.4-0.8-0.7-1.2L35,38.3l0.1-0.2c1.6,1,3.2,1.9,4.8,3 C39.6,42.1,39.3,43.1,39,44.1z M38.7,37.5l-2.2-1.3c0.6-0.9,1.3-1.9,2-2.8c1,0.4,2,0.8,3,1.2c-0.1,0.5-0.2,1.1-0.4,1.7 c-0.2,0.8-0.4,1.6-0.6,2.4L38.7,37.5z M40.1,52.9c0.4-0.8,0.7-1.7,1.1-2.6l0.6,0.8C41.2,51.7,40.6,52.3,40.1,52.9z M40,31.3 c0.6-0.9,1.3-1.8,2-2.7l1.2,0.3c-0.1,0.3-0.2,0.6-0.3,1c-0.1,0.4-0.3,0.9-0.5,1.5l-0.2,0.8L40,31.3z M46.5,52 c1.1-1.3,2.1-2.7,3.1-4.1l2,1.5l0.2,0.2C50.1,50.4,48.3,51.2,46.5,52z M55.2,41c1.1,0.6,2.2,1.2,3.2,1.7 c0.7,0.4,1.4,0.8,2.1,1.2c-2.1,1.8-4.4,3.3-6.9,4.6c-0.6-0.6-1.3-1.2-1.9-1.8l-0.9-0.7c0.5-0.8,1-1.5,1.4-2.3 c0.6-1.1,1.2-2.2,1.8-3.4L55.2,41z M48.9,30.4L48.9,30.4c0.7,0.1,1.3,0.3,2,0.5l2,0.4l1.1,0.2c0,0,0,0.1-0.1,0.2 c-0.7,1.3-1.2,2.7-1.9,4l-0.4,0.8c-1-0.5-2-1-3-1.5c-1-0.5-2.1-1-3.2-1.5c0-0.3,0-0.7-0.1-1c0-0.3-0.1-0.6-0.1-0.9 c-0.1-0.7-0.4-1.4-0.6-2.1l-0.2-0.4C46,29.6,47.5,30,48.9,30.4z M44.4,39.8L44.4,39.8c0.3-1.3,0.5-2.5,0.7-3.7 c0.8,0.3,1.6,0.7,2.4,1.1c1,0.5,2,0.9,3,1.4c-0.9,1.7-1.8,3.3-2.9,4.9c-1.1-0.9-2.3-1.7-3.5-2.5C44.2,40.6,44.3,40.2,44.4,39.8z M43.5,43.5c0.9,0.7,1.9,1.3,2.8,2c-0.9,1.3-1.9,2.6-3,3.9c-0.4-0.5-0.8-1-1.2-1.6C42.6,46.4,43.1,45,43.5,43.5z M43.3,20.3 L43.3,20.3c-2.1,0-4.1,0.1-6.2,0.3c-3.3,0.2-6.5,0.6-9.6,0.9c-1.5,0.2-3.1,0.3-4.7,0.4c2.4-0.8,4.8-1.5,7.2-2 c4.2-0.9,8.4-1.5,12.7-1.9c0.9-0.1,1.8-0.1,2.7-0.2C44.7,18.7,44.1,19.5,43.3,20.3z M47.6,15.6l-0.1,0.1h-0.1L47.6,15.6 L47.6,15.6z M50.3,7.9L50.3,7.9c-1.2,0.9-2.3,1.9-3.2,3c-0.4,0.5-0.8,1-1.1,1.5c-0.1,0.2-0.2,0.4-0.3,0.6 c-0.1,0.3-0.2,0.7-0.3,1c-0.1,0.4-0.2,0.9-0.2,1.3c0,0.1,0,0.2,0,0.3l-1.9,0.1c-3,0.1-6,0.5-9,0.9l1.5-0.7c2-1,4.1-1.9,6.1-2.9 c0.7-0.3,1.3-0.6,1.9-1s1.3-0.7,1.9-1.1c0.9-0.5,1.7-1,2.6-1.5c-1,0.1-2,0.3-2.9,0.5c-0.7,0.1-1.4,0.3-2.1,0.5 c0.8-0.4,1.6-0.9,2.5-1.4c2.1-1.2,4.2-2,6.5-2.6L53,6.3C52.1,6.8,51.2,7.3,50.3,7.9z" class="st10"/><path d="M2.1-1c-0.7,0-1.3-0.1-2,0V1l0.7-0.6C1.3-0.1,1.6-0.5,2.1-1z" class="st10"/><path d="M2.2,14.1c-0.5-0.3-0.9-0.5-1.5-0.8l-0.7-0.3v2l0.6-0.2C1.2,14.6,1.7,14.3,2.2,14.1z" class="st10"/></g></g></g></g><g><g><g><path d="M58.8,282.4c0-0.8-0.8-5.1-2.2-3.9c-1.3,1.2-1.7,6.2-2.3,8c-1.5,5.2-3.4,8.5-7.3,11.3l-0.3,0.2 c5.1-10.9,3-40.1,4.1-51.1c1.1-10.7,5-19.3,3.2-30.5c-0.1-0.8-2.1-9.1-2.4-9c-5.7,2-4.1,24.3-4.2,30.1c-0.1,5.5-2.1,10.5-2.5,16 c-1.4,14.3-6.3,28-14.2,40c3.2-9,4.9-20.1,5.5-25.3c0.8-6.5,2.7-12.5,2.9-19.2c0.1-4.2-1.4-8.2-1.3-12.3c0-0.7,1.4-7.2,1-7.5 c-4-2.4-5.3,19.7-5.7,22c-1.1,6.3-0.5,12.1-2.2,18.3c-2.3,8.3-7.7,13.4-7.2,9.3c1.7-14.8,6.2-28.6,8.6-43.1 c1.7-9.8,0.6-19.4,3-29.2c1.5-6.3,7.1-22.6,0.6-27.2c-2.1-1.5-2.5,8.8-3.3,11.1c-2.6,7.8-6.2,14.9-8.3,22.9 c-2.2,8.8-0.6,17.9-2.1,26.9c-2.4,14.5-4.8,26.9-4.6,42v1.4c-1-8.7-1.3-17.5-0.8-26.2c0.1-3.1,0.2-13.2-3.4-13.9 c-0.2,0-0.6,2.4-0.6,2.6c-1.1,6.6-0.8,13.3-1.7,19.9c-0.7,5-1.5,9.8-1.2,14.9c-0.5-2.7-1.1-5.5-1.8-8.1l0.5-5.2 c-3.5-31.2,4.6-62.3,5.2-93.1c0.1-5.5,2.4-28-2-30.1c-2.9-1.3-4.2,5-4.4,7.2c-0.9,12.8,1.6,17.3-1.9,31.7 c-3.6,14.8-3.3,28.7-5.2,43.6c-0.1,1-0.3,2-0.5,3v55.4c1.2,4.2,2.8,8.2,4.8,12.1c-1.7-1.2-3.3-2.5-4.8-3.8v6.1 c2.4,0.6,4.6,1.5,6.8,2.6c0,0,0.8,0.5,2.1,1.2h40.7c3.2-1.8,6.2-4.2,7.5-7.2C58.5,292.9,59.1,286.3,58.8,282.4z" class="st11"/></g></g></g><g><g><g><g><path d="M180.7,299.7c-0.9,0-3.3-0.9-2.8,0.1c1,1.9,5.8,2.5,7.4,3.1l1.6,0.6h14.6c-5.2-2-10.7-3.3-16.2-3.6 C183.8,299.8,182.2,299.7,180.7,299.7z" class="st10"/><path d="M270.9,285.8L270.9,285.8c-0.6-0.5-3,0.8-3.5,1c-4.3,1.7-8.4,3.9-12.2,6.6c-3,2.1-5.9,5.1-9.1,6.5 c-0.4,0.2,0.5-1,0.8-1.4c0.5-0.8,0.9-1.4,1.4-2.2c1.3-2.1,2.6-4.2,4-6.2c3.7-5.7,12.6-13.5,13.8-21c0.1-0.6-0.9,0.4-1.3,0.7 c-0.7,0.4-1.4,0.9-2.1,1.4c-2.3,1.7-4.5,3.5-6.5,5.5c-6.1,5.4-10.7,13.6-17,18.4c-0.3,0.2,0.2-0.9,0.3-1.3c0.2-1,0.4-2,0.6-3 c0.7-2.9,1.4-5.8,2.2-8.6c2.7-9,6.3-17.5,9.3-26.4c0.2-0.5-0.6,0.8-0.9,1.2c-0.5,0.7-1,1.5-1.6,2.3c-1.6,2.4-3,4.9-4.3,7.5 c-4.2,8.1-7.2,18.4-12.1,25.6c-0.4,0.6,0.2-1.5,0.3-2.2c0.2-1.4,0.3-2.8,0.5-4.1c0.5-3.8,1.1-7.5,1.7-11.3 c1.9-11,7.1-33.8,5.6-31.6c-2.2,3.1-3.4,10.1-4.8,13.8c-3.1,7.9-4.9,15.9-7.5,24c-0.8,2.6-1.8,9.2-3.7,11 c-0.5,0.5-0.2-1.5-0.4-2.2c-0.2-1.8-0.5-3.6-0.6-5.3c-0.4-4.8-0.6-9.8-0.7-14.6c-0.4-10.2-0.4-20.3-0.9-30.5 c-0.2-4.9,0-11.5-1.4-16c-0.3-0.9-0.5,1.8-0.8,2.7c-0.3,1.1-0.6,2.4-0.8,3.5c-0.7,3.6-1.2,7.1-1.5,10.8 c-1.2,13.8,0.5,27.7,0.2,41.4c0,3.2-0.3,6.5-1,9.7c-0.2,0.8-0.2,2.5-0.9,2.4c-1-0.1-2.7-9.1-2.9-9.9c-2.3-9.1-4-18.5-6.3-27.6 c-0.6-2.3-1.7-8.2-3.8-8.8c-0.9-0.2,0,2.2,0.1,3.3c0.4,4.3,0.9,8.5,1.7,12.8c1.7,10.2,3.9,20.3,6.1,30.4c0.3,1.5,2.3,8.2,1,10 h39.3c0.2-0.2,0.4-0.4,0.8-0.8c4.8-4.7,10.2-8.2,15.2-12.5C267.4,290.2,271.6,286.4,270.9,285.8z" class="st10"/><path d="M266.3,301.9L266.3,301.9c-2,0.5-4,1.1-6,1.7h10.4c1.5-0.7,3.2-1.6,3.5-2.8 C274.2,300.7,266.8,301.7,266.3,301.9z" class="st10"/><path d="M195.3,279.4c-1.1-2.2-2.3-4.4-3.6-6.5c-0.4-0.6-0.8-1.2-1.2-1.9s-1.4-2.2-1.1-1.6c4.9,9,9.5,17.7,14,27.2 c1,2.2,2.7,4.5,3.8,6.9h4.6c-0.7-0.9-4-5.7-4.2-5.9C203.3,292,198.8,286.1,195.3,279.4z" class="st10"/></g></g></g></g></svg>