<svg xmlns="http://www.w3.org/2000/svg" viewBox="0 0 400 400"><defs><style>.cls-1{fill:#39556b;}.cls-2{fill:#fff;}.cls-3{fill:#c6dde5;}.cls-3,.cls-4,.cls-5{fill-rule:evenodd;}.cls-4{fill:#90b9cb;}.cls-5{fill:#1d2b36;}</style></defs><g id="Layer_2" data-name="Layer 2"><g id="_ÎÓÈ_1" data-name="—ÎÓÈ_1"><g id="pre-made_17" data-name="pre-made 17"><rect class="cls-1" width="400" height="400"/><path class="cls-2" d="M175.11,8.85c.47-.16,5-1.73,5.54-3.44a4.79,4.79,0,0,0-.44-4.17,5.25,5.25,0,0,0-1-1.24h-6.79a4.94,4.94,0,0,0,2.68,8.85Zm-4.08-4a4.55,4.55,0,0,1-.13-.75,5.05,5.05,0,0,0,.45,1.59A4.45,4.45,0,0,1,171,4.89ZM25.13,278.58a1.65,1.65,0,0,0-3.2.57,2.52,2.52,0,0,0,.32,1.42,2.42,2.42,0,0,0,1.31.9,1.65,1.65,0,0,0,1.57-2.89ZM91.37,15.86a3.31,3.31,0,0,0,4.12-2.22c.21-.7.74-1.1,1.07-1.78a3.31,3.31,0,1,0-5.92-3,18.92,18.92,0,0,0-1.5,2.84A3.32,3.32,0,0,0,91.37,15.86ZM153.26,43a3.51,3.51,0,0,0,1.74.26A1.66,1.66,0,0,0,155,40a2,2,0,0,1-.94-.14,1.65,1.65,0,1,0-.8,3.2ZM23.58,20.12a4.06,4.06,0,0,0,2.08-.42,1.66,1.66,0,0,0-1-3.15c-.59.2-.44.26-1,.26a1.66,1.66,0,0,0,0,3.31Zm54.83,39.7a1.72,1.72,0,0,0,.71.18,3.54,3.54,0,0,0,.52,0A1.75,1.75,0,1,0,78,57.06a1.61,1.61,0,0,0-.22,2.18A1.67,1.67,0,0,0,78.41,59.82ZM9,55.42a4.94,4.94,0,0,0-3.16-1.49A3.32,3.32,0,0,0,4.5,60.29a6.23,6.23,0,0,0,1.27.93A3.31,3.31,0,0,0,9,55.42ZM159.41,332.74a14.72,14.72,0,0,0-.25-1.87,5,5,0,0,0-4.16-7.68,5.85,5.85,0,0,0-3.92,1.41,6,6,0,0,0-1.92,3.22,18.89,18.89,0,0,0,.33,5.13,5,5,0,0,0,9.92-.21Zm1,30.18a3.17,3.17,0,0,1-.48-.38,1.65,1.65,0,0,0-2.34,2.34l.16.15a1.65,1.65,0,0,0,1.79.86A1.67,1.67,0,0,0,161,364.7a1.59,1.59,0,0,0-.26-1.47A1.33,1.33,0,0,0,160.42,362.92Zm-61.1-29.24a5.24,5.24,0,0,0-1.8,1.36,3.48,3.48,0,0,0-.72,1.79c-.07.6,0,1.32,0,2.29a1.66,1.66,0,0,0,3.31,0c0-.44,0-.82,0-1.17a1.9,1.9,0,0,1,0-.84c.1-.2.34-.29.69-.47a1.65,1.65,0,1,0-1.48-3ZM38,114a2.4,2.4,0,0,0-1.46-.22,1.66,1.66,0,1,0,0,3.32h.27l.18.06A1.65,1.65,0,1,0,38,114Zm-9.33,80.11a1.68,1.68,0,0,0-1.29-.61,3,3,0,0,0-1.51.28,1.59,1.59,0,0,0-.72,1,1.67,1.67,0,0,0,1,1.89c.09,0,.53.13,1.05.32a1.66,1.66,0,0,0,1.5-2.92ZM48.8,261.82l-.08.08a1.66,1.66,0,0,0,.24,3.24,2,2,0,0,0,1.2-.1,1.77,1.77,0,0,0,.58-.41,4.65,4.65,0,0,1,.4-.47,1.65,1.65,0,0,0-2.34-2.34ZM193.07,361.6a3.31,3.31,0,0,0-4.33,5,4.82,4.82,0,0,0,1.9,1.33,5.79,5.79,0,0,0,1.53.22,3.31,3.31,0,0,0,.9-6.54Zm48.65-241.8a3.31,3.31,0,0,0,3.31-3.31,4.91,4.91,0,0,0-.47-1.89,3.31,3.31,0,0,0-6.58-.69,5.35,5.35,0,0,0,.51,3.32A3.31,3.31,0,0,0,241.72,119.8Zm2.59-5.73a1.71,1.71,0,0,1,.13.27,3.72,3.72,0,0,0-.2-.37Zm-9.06,59.55a1.66,1.66,0,0,0,1.23-2.77v0a1.65,1.65,0,0,0-3.13-1.07,5.45,5.45,0,0,0-.36,1.62,2.15,2.15,0,0,0,.57,1.55A2.19,2.19,0,0,0,235.25,173.62ZM204.2,156.3a5.16,5.16,0,1,0,2.81-9.74,14.35,14.35,0,0,0-3.45.7,4.35,4.35,0,0,0-2.07,2.56A5,5,0,0,0,204.2,156.3Zm2.51-9.77.3,0h0ZM224.5,13.58a3.31,3.31,0,0,0,4.44-1.48,4.28,4.28,0,0,0,.37-.89,4.69,4.69,0,0,0,.1-1.37,3.31,3.31,0,0,0-6.62-.11A3.31,3.31,0,0,0,224.5,13.58ZM388.09,41.69A5,5,0,1,0,397,37.24c-.05-.08-.09-.17-.13-.25A5,5,0,1,0,388,41.44C388,41.52,388,41.61,388.09,41.69ZM222.45,248.47a8.22,8.22,0,0,0,1,0,1.66,1.66,0,0,0,.4-3.27,1.81,1.81,0,0,0-.4-.18,1.66,1.66,0,0,0-2.06,1.12,1.69,1.69,0,0,0,.31,1.83A1.8,1.8,0,0,0,222.45,248.47ZM216.31,70.26a1.65,1.65,0,1,0,2.34-2.34h0a1.65,1.65,0,0,0-1-1.71,2.07,2.07,0,0,0-2.42.2,1.76,1.76,0,0,0-.32,2.17A10.41,10.41,0,0,0,216.31,70.26ZM193.24,202.75a3.26,3.26,0,0,0,2.15-.8,3.47,3.47,0,0,0,.87-.8,3.33,3.33,0,0,0-.67-4.64c-2.64-2-4.47-.19-4.76.11a3.78,3.78,0,0,0-.9,2.81A3.32,3.32,0,0,0,193.24,202.75ZM183,130.53a5.73,5.73,0,0,1,.59.05,1.52,1.52,0,0,0,1.44-1,1.79,1.79,0,0,0,.16-.92,1.66,1.66,0,0,0-1.71-1.6,1.81,1.81,0,0,0-.57.12,1.66,1.66,0,0,0,.09,3.31Zm71,75.59a1.92,1.92,0,0,1,0-.22,1.87,1.87,0,0,0,0,.24ZM175.47,8.89c-.12,0-.24,0-.36,0l0,0Zm83.48,202a5.24,5.24,0,1,0-.6-10.44,4.7,4.7,0,0,0-2.7,1.22c-.7.62-1.59,4.24-1.64,4.48A5,5,0,0,0,259,210.86ZM273.49,76.13a1.65,1.65,0,0,0,1.66-1.65,1.53,1.53,0,0,0,0-.38,1.72,1.72,0,0,0-.07-.95,1.65,1.65,0,0,0-2.14-1,2.57,2.57,0,0,0-1.58,1.52,1.83,1.83,0,0,0,0,1.16A2.06,2.06,0,0,0,273.49,76.13ZM320.38,253a4.77,4.77,0,0,0-1.41-.78,5,5,0,0,0-6.15,7.56c.39.28,3.24,2.3,4.41,2.26a4.8,4.8,0,0,0,4-2.06A5,5,0,0,0,320.38,253Zm-7,.81.08-.1.08-.09Zm.19-.22.12-.13,0,0Zm.2-.22.07-.07h0ZM332.13,0h-8.84a4.9,4.9,0,0,0-.9,2.84,5,5,0,0,0,1.8,3.83,3.18,3.18,0,0,0,.47.49,5.17,5.17,0,0,0,1.73.91,5.15,5.15,0,0,0,4-.36,5,5,0,0,0,2.49-6.57A4.66,4.66,0,0,0,332.13,0Zm-5.86,7.69h0l.11,0Zm.57.09a3.17,3.17,0,0,1-.46-.07,4.43,4.43,0,0,0,1,.1A4.12,4.12,0,0,1,326.84,7.78Zm11.83,51a3.07,3.07,0,0,0-1.67.31,1.84,1.84,0,0,0-.58.53,1.66,1.66,0,0,1-.31.51,1.66,1.66,0,0,0,2.43,2.26l.25-.31a1.65,1.65,0,0,0-.12-3.3ZM347,327a3.31,3.31,0,0,0-4.68-.11,6.14,6.14,0,0,0-1.35,1.81,3.8,3.8,0,0,0-.27,1.66,3.45,3.45,0,0,0,1,2.22,3.79,3.79,0,0,0,2.87,1.08,3.32,3.32,0,0,0,3.31-3.32,2.92,2.92,0,0,0,0-.51A3.28,3.28,0,0,0,347,327Zm-29.66,44.32a1.65,1.65,0,0,0-2.11,1,7.65,7.65,0,0,1-.44.69,1.66,1.66,0,0,0,.73,3.15,2.14,2.14,0,0,0,1.31-.5,7.12,7.12,0,0,0,1.52-2.24A1.66,1.66,0,0,0,317.33,371.29ZM351.4,245.17a4.17,4.17,0,0,0-4.74,4.35,4,4,0,1,0,4.74-4.35ZM313.07,260a3.4,3.4,0,0,1-.25-.31l-.05,0S313,259.92,313.07,260Zm13.75-120.47a3.64,3.64,0,0,0-1.8,6.63,3.39,3.39,0,0,0,1.56.53,3.33,3.33,0,0,0,3.58-3c0-.08,0-.33,0-.84A3.31,3.31,0,0,0,326.82,139.57Zm51.7,140.61c-.78,0-1.57,0-2.35,0a1.66,1.66,0,0,0,.08,3.31h2.27a1.66,1.66,0,1,0,0-3.32Zm-172.1,46a1.67,1.67,0,0,0-2.16.91c-.17.42-.56.62-.88.94a1.67,1.67,0,0,0,0,2.34,1.65,1.65,0,0,0,2.34,0,6.29,6.29,0,0,0,1.61-2A1.67,1.67,0,0,0,206.42,326.22ZM382.05,70.16a3.32,3.32,0,0,0-4.62.79c0,.07-.1.14-.15.21A3.31,3.31,0,0,0,382.69,75l.15-.22A3.29,3.29,0,0,0,382.05,70.16Zm14.33,277.61a1.13,1.13,0,0,0,0,.18l0,.07S396.4,347.87,396.38,347.77ZM371.26,188.38a5.85,5.85,0,1,0,2,5.3,7.31,7.31,0,0,0-.37-2.89A6.39,6.39,0,0,0,371.26,188.38Zm2.63-49.7a3.8,3.8,0,0,0-1.13-.2,1.77,1.77,0,0,0-1.2.51,2.23,2.23,0,0,0-.62,1.74,1.66,1.66,0,0,0,1.66,1.65,1.69,1.69,0,0,0,1.18-.49,1.66,1.66,0,0,0,.11-3.21ZM310.61,294.59a3.09,3.09,0,0,0-.39.59c-.08.17-.14.31-.14,1.2a1.66,1.66,0,1,0,3.31,0h0a1.66,1.66,0,0,0-2.78-1.78Zm71.14-90a1.66,1.66,0,0,0-2.72,1.89,6.73,6.73,0,0,1,.08.8c0,.68-.09,1.38-.09,1.88a1.66,1.66,0,0,0,3.31,0,22,22,0,0,0,0-2.85A3.67,3.67,0,0,0,381.75,204.56ZM394,344.45a5.43,5.43,0,0,0-3.11-.79,5.31,5.31,0,1,0,5.5,4.29C396.22,347.52,395.13,345.13,394,344.45ZM276.67,354.1a5.51,5.51,0,0,0-2.1-.21,5,5,0,0,0,0,9.94h.06l.13,0a5,5,0,0,0,1.91-9.75Zm7.6-107.85a9.47,9.47,0,0,0-1,0,1.6,1.6,0,0,0-.91.61,1.75,1.75,0,0,0,.61,2.51,1.62,1.62,0,0,0,1.32.16,1.66,1.66,0,0,0,0-3.31Zm-104.39-.84v.06c0,.1,0,.19,0,.28C179.9,245.65,179.88,245.41,179.88,245.41Zm36.4,12.29a95.71,95.71,0,0,1-38-7.83,4.36,4.36,0,0,0,.43-.43c.51-.58,1.11-3.53,1.2-4a5.08,5.08,0,0,0-10.11.23,96.21,96.21,0,0,1,9.31-172.93,114.29,114.29,0,0,0-75.44,31.84,5,5,0,0,0-2.3-4,5,5,0,0,0-8.93,3,5.83,5.83,0,0,0,1.37,4,6.29,6.29,0,0,0,4.14,2.12,4.35,4.35,0,0,0,.72,0,114.24,114.24,0,0,0-30.27,73.56,5,5,0,0,0,0,9.73,114.72,114.72,0,0,0,224.78,26.28A96.09,96.09,0,0,1,216.28,257.7Zm-38.42-15.47a3.79,3.79,0,0,0-.4-.3,5.09,5.09,0,0,1,.77.63C178.11,242.45,178,242.33,177.86,242.23Zm96.31,76.87a3.22,3.22,0,0,0,.84-1.92,3.3,3.3,0,0,0-3-3.59,3.26,3.26,0,0,0-3.23,1.25,7.71,7.71,0,0,0-.73,2.71,3.3,3.3,0,0,0,6.12,1.55ZM243,385.27a3.31,3.31,0,0,0-3,3.59,3.94,3.94,0,0,1-.27,1.16,7.46,7.46,0,0,0-.2,1.69,3.32,3.32,0,1,0,6.63,0,4.2,4.2,0,0,1,.25-1.11,7.51,7.51,0,0,0,.19-2.32A3.32,3.32,0,0,0,243,385.27ZM268,317.61v-.06a.88.88,0,0,1,0-.16C268,317.47,268,317.61,268,317.61ZM151.46,153.68a3.3,3.3,0,0,0-2.82-3.74,15.59,15.59,0,0,0-2.26-.14,3.31,3.31,0,0,0,0,6.62,10,10,0,0,1,1.34.07A3.31,3.31,0,0,0,151.46,153.68ZM289.91,24.29c-.26.07-3.83.94-4.27,1.36s-2.42,2-1.1,5.52a5,5,0,0,0,6.4,2.9l.3-.13a5,5,0,0,0-1.33-9.65Zm-141,195.48a1.67,1.67,0,0,0,2.23-.75,5.46,5.46,0,0,0,.26-.6,1.66,1.66,0,0,0-1.73-2.82c-1,.6-.8.54-1.49,1.94A1.66,1.66,0,0,0,148.87,219.77Zm162.9-37h0v0Zm-4.68-56.42a10.79,10.79,0,0,1-1.38-.81l0,0a1.69,1.69,0,0,0-.26-1,1.66,1.66,0,0,0-2.29-.51,2.07,2.07,0,0,0-.89,1.15,2.13,2.13,0,0,0,.3,1.85,9.94,9.94,0,0,0,3.07,2.27,1.65,1.65,0,1,0,1.48-3Zm4.68,56.43a4.56,4.56,0,0,0-.13-1.13,1.69,1.69,0,0,0-.91-.87,1.9,1.9,0,0,0-1.43,0,1.89,1.89,0,1,0,2.47,2ZM289.65,24.27l.26,0h0Z"/><path class="cls-3" d="M400,269.2c-3-1.22-6-2.44-9.11-3.67-2.68-1.07-3.6-3.8-5.92-5.13a85.31,85.31,0,0,0-11.05-4.71c-3.52-1.35-7.54.55-11.12-1.1-2.34-1.07-2.54-3.74-4.52-5.17-5.51-3.95-12.94-8.27-19.57-9.6-4-.79-9.1,3.63-16.11,2.24-2.87-.57-6.36-6-9.33-5.21-3.54,1-6.22,7.84-10.66,9.07-1.91.54-3.25-1.06-5.14-.93-8.32.61-20.07,3.38-25.67,10.51l-.91.44c-3.42-3.17-2.3-9.3-4.45-13.35-1.12-2.09-14.69-15.1-16.76-15.18-4.18-.15-4.61,4.47-7.65,6-2.35,1.19-4.85-.47-7.13.58-2.52,1.16-2.79,4-4.85,5.58-4.75,3.52-10.7,5.82-15.34,9.38-1.94,1.48-2.08,4-3.75,5.36-2,1.61-5.25,1.38-7.3,3-1.14.89-2.47,2.85-4.08,2.79-1.4-.05-13.08-1.88-14.26-2.36-1.88-.76-2.35-2.63-3.93-3.71-2.27-1.56-10.37-4.18-12.9-4.34-2.69-.18-5,3-7.44,2.76-.86-.09-1.42-1.36-2.21-1.69a71.17,71.17,0,0,0-11.73-3.55c-1.39-.31-3,3.09-4.31,2.21-4.16-2.8-9.28-8.77-12.77-10.76-3.18-1.83-7.47-2.22-10.84-3.76-2.47-1.13-5.9-4.86-8.86-4.39-1.42.23-2.77,3.16-4.13,3.94-3.94,2.28-9.2,2.25-13.13,5.22C91,241.22,90.33,244,88,245.34c-1.42.8-3,.46-4.45,1.12-1.75.79-2.66,2.72-4.57,3.4-2.14.76-4.83.45-6.73,1.88s-1.29,3.87-2.42,5.69-7.95,6.42-10.07,6.33c-13-.55-11.8-6-19.91-12.1-1.89-1.43-4.59-1.25-6.31-2.86-1.2-1.12-.6-3.21-1.95-4.27-3.06-2.39-6.69-.27-9.42-2.09-4.39-2.92-6.91-9.49-11.88-11.24-2-.72-7.38.27-10.26-.22V335.86c6.7.67,13.27,1.47,20.17,1.24,10.13-.33,24-7.4,33.27-7.18,6.34.15,14.64-.47,20.83,1.07,2.7.67,4,3.17,6.55,4,6,1.88,13.42,2.14,19.68,3.13a73.83,73.83,0,0,0,13.4,1.37c4.15-.11,7.95-1,12.12-.39l7.08.68c8.71.76,7.82-14.14,17-13.72,7.35.33,15.06,2.94,22.33,2.73,3.06-.09,5.81-1.87,8.85-2.2,6.73-.73,15-.92,21.83-1,9-.09,17.89,1.21,26.95.63,8.74-.57,17.73-4.42,26.39-4.61,10.28-.22,21.45,3.37,32.05,3.48,7.83.08,14.55-4.57,22.22-5.33,4.11-.41,7.92,1.2,12,1,8.87-.4,36.28-3.05,45.05-5.33,3.34-.87,17.54-5.33,32.26-10.48Z"/><path class="cls-4" d="M290.47,315.51c-1.62-1.48-1.67-3.92-3.31-5.22-2.71-2.15-19.41-7.46-22.84-7-3,.44-6.33,2.6-9.37,1-2.06-1.05-2.09-3.2-3.5-4.75C245.44,293,233.05,288,224,289c-3.37.39-25,19.89-29.85,22.23-1.81.86-9.34,1.5-11.46,1.68-4.49.37-15.3-3.32-18.75-5.63-2.23-1.5-3.3-4-5.75-5.28s-5.63-.86-8.1-2.45c-1.48-.95-1.49-3.13-2.86-3.89-2.15-1.19-4.87-.94-7.11-2.05-2.89-1.42-5.71-7.39-9.55-7-8.72.94-9.54,11.27-15.92,15-2.51,1.45-5.74.95-8.12,2.4-4.42,2.7-5.38,7.28-11.41,8-2.68.31-11.51-2.72-11.91-2.56-2.63,1-3.29,4.19-5.75,5.48-1.91,1-4.27.06-6,1.32-2.57,1.9-3.06,5.81-6.51,6.73-5.07,1.36-15.81-2.36-20.33-5.21-1.77-1.12-2.7-3.25-4.85-3.78-6.51-1.58-13.08.82-19.79-1.21-3.42-1-5-4.42-8.78-4.65S4.22,319,.9,321.38a7.66,7.66,0,0,1-.9.56v51.85a26.26,26.26,0,0,1,4.65-.27c6,.2,11.45,2.25,17.34,2.69,3.43.25,6.58-1.23,10-1.2,7.48.05,14.58,1.63,22.26,1.06,3.16-.24,6-1.9,9.24-1.89,4.74,0,9.46,1.67,14.07,1.52,9.33-.3,18.81-2.83,28-3.68,3.28-.31,6.57.88,9.83.22,5.79-1.16,11.41-3.89,17.36-4.6,4.56-.54,8,2.67,12.33,3,6.32.51,13.88-.71,20.16-1.49,4.12-.52,6.59-4.29,10.45-5,2.56-.47,5.12.81,7.73.63,3.62-.24,7.16-1.86,10.79-2.24,9-.93,17.38-.14,26.32.54,9.52.73,18.84-2.61,28.17-3.31,2.32-.17,4.52,1.47,6.77.93,5.19-1.23,9.54-5.15,14.83-6.16,8.88-1.7,16.21,1.05,24.17-5.12,3.36-2.61,2.89-8.2,5.53-11.46,1.52-1.89,12.91-17.36,12.84-18.37C312.3,313.28,295.42,320.05,290.47,315.51Z"/><path class="cls-4" d="M400,300.39a4.88,4.88,0,0,0-2.26-1.36c-6.5-1.59-13.08.81-19.78-1.22-3.42-1-5-4.41-8.79-4.65s-7,10.92-10.29,13.27c-6.13,4.33-7.79-3.8-12.52-3-3.62.61-4.65,6-8.89,7-5.3,1.28-10.11-2.72-14.68-2.56-3.33.11-2.79,5.84-7.31,4.72-3-.74-6.51-5.91-9-6.17-3.29-.34-2.67,5-5.45,5.59-2.37.46-8.15,1.66-10.48,1.31-2.16-.32-3.33-2.3-5.74-2.25-2.19.05-4.11,1.49-6.31,1.34-2.4-.16-3.71-2.95-5.82-3.77-9.88-3.85-25-4.69-30.46,6.67l-.9,1.94c-2.67,2.68-4.67,5.65-8.09,7.53C231,326.09,228,326.28,226,328c-4.57,3.95-6.76,10.6-11.42,14.62-1.94,1.68-5.44,2.71-6,5.49a2.13,2.13,0,0,0,0,1.32c1,2.29,18.26,3.19,20.69,2.13,11.34-5,23.26-3.72,34.78-.14,3.28,1,6.18,3.22,9.62,3.69,9.14,1.23,19.13-3.36,28.24-3.52s21.15,8.16,29.68,8.63c4.18.24,9.74,1.44,13.81,1,5.94-.61,11-2.89,17.25-2.68,6,.2,11.45,2.26,17.34,2.69,3.43.25,6.59-1.23,9.95-1.2s6.74.36,10.08.67Z"/><path class="cls-5" d="M374.66,356c-4.81-.3-8.94-2.61-13.62-3.37s-9.34-.49-13.93-1.4c-4.16-.83-8-2.73-12.25-3.29-5.34-.73-10.71-.51-16-1.54-7.06-1.37-13.86-4.28-20.94-5.34-3.91-.58-7.69.76-11.58.8-12.81.1-27.05.13-39.51-2.95-5.42-1.35-9.47-5.73-14.77-7.46-6.58-2.15-12.66.09-19-1.25-7.07-1.48-12.76-6.6-20.22-7.79-8-1.29-16.66,2.57-24.88,1.71-9.13-.94-16.94-4.18-26.46-3-7.39.9-14.09,5.74-21,7.95-4.19,1.34-8.27.65-12.11,3.24L107,333.54c-3.09-2.21-4.88-4.49-12.38-2.24-5,1.49-6.11,6.81-10.64,8.76a173.64,173.64,0,0,1-19.94,7.61c-4.29,1.23-8.33.46-12.45,2.66C37,358.15,24.55,369.68,7.82,373.48a30.75,30.75,0,0,1-7.82.45V400H400V352.55C391.8,354.84,383.49,356.59,374.66,356Z"/></g></g></g></svg>