<?xml version="1.0" encoding="utf-8"?>
<!-- Generator: Adobe Illustrator 24.1.2, SVG Export Plug-In . SVG Version: 6.00 Build 0)  -->
<svg version="1.1" id="Layer_1" xmlns="http://www.w3.org/2000/svg" xmlns:xlink="http://www.w3.org/1999/xlink" x="0px" y="0px"
	 viewBox="0 0 280 263.6" style="enable-background:new 0 0 280 263.6;" xml:space="preserve">
<style type="text/css">
	.st0{fill:#EED7A4;}
	.st1{fill-rule:evenodd;clip-rule:evenodd;fill:#E2BD68;}
	.st2{fill-rule:evenodd;clip-rule:evenodd;fill:#E6EFEC;}
	.st3{fill-rule:evenodd;clip-rule:evenodd;fill:#CE954C;}
	.st4{fill-rule:evenodd;clip-rule:evenodd;fill:#C6DDE5;}
	.st5{fill-rule:evenodd;clip-rule:evenodd;fill:#BC6935;}
	.st6{fill:#BC6935;}
	.st7{fill-rule:evenodd;clip-rule:evenodd;fill:#90B9CB;}
	.st8{fill-rule:evenodd;clip-rule:evenodd;fill:#FFFFFF;}
	.st9{fill-rule:evenodd;clip-rule:evenodd;fill:#3E1919;}
	.st10{fill:#572213;}
	.st11{fill-rule:evenodd;clip-rule:evenodd;fill:#572213;}
</style>
<g id="Layer_2_1_">
	<g id="_ÎÓÈ_1">
		<g id="pre-made_16">
			<rect y="-95.3" class="st0" width="280" height="400"/>
			<path class="st1" d="M269.5,73.9c-5-0.4-7.6-8-13.5-6.2c-2.2,0.7-3.9,3.4-5.4,5.1c-1.8,1.9-4.8,3.1-6.3,5.1
				c-5.7,7.4-2.9,13.1-14.8,15.2c-3.6,0.6-6.8-1.9-10.3-2.4c-2.7-0.4-5.4,0.9-8.1,0.9c-5.1-0.1-9.7-3.3-15-1.3
				c-7.6,2.9-9.5,13.6-14.4,19.4s-11.5,3.1-17,7c-5.1,3.7-5.6,12.4-11.2,15.9c-4.9,3.1-10.4-0.8-15.5-0.6c-4.7,0.1-6.4,4.4-10.6,5.3
				c-6,1.4-12.3-1.1-18.5,0.5c-6.8,1.8-7.6,8.8-12.7,12.4c-3,2.1-7,0.1-10.4,1.1c-4.3,1.2-8,5.8-13.9,7.4c-2.7,0.7-20.4,0-23.4-1.2
				c-4.1-1.7-9.2-5.6-13.7-5.4c-4.8,0.1-8.6,3.6-13.2,4.5c-6.8,1.3-13.7-0.7-20.6,0.6c-0.4,0.1-0.8,0.1-1.1,0.2v76.2h279.3V73.3
				C276.1,72.6,272.7,74.2,269.5,73.9z"/>
			<path class="st2" d="M108.8,203.6c1.5,0.8,5.4,0,7.1,0.1c1.2,0.1,2.4,1.5,3.6,1.5c2.3,0.1,5.7,0.1,8.1,0c2.9-0.1,5.4,0.6,8.2,0.7
				c3.9,0.1,7.1-1.5,11-1.4c0.4,0,3.7,0.2,3.5-0.6c-0.1-0.4-3.1-0.8-3.6-0.9c-2.1-0.4-4.3-0.4-6.4-0.6c-0.8-0.1-1.6-0.5-2.4-0.6
				c-1-0.1-2.1,0.1-3-0.4c-2.2-1.2-2.8-2.6-4.6-4.1c-1-0.8-2.1-1.5-3.1-2.4s-1.6-2.1-2.7-3s-2.2-1.1-3.1-2c-1.2-1.3-2-3-3.3-4.3
				c-0.8-0.8-1.7-1.4-2.5-2.2c-1.1-1.3-2.3-2.6-3.6-3.8c-1-0.8-2.4-1-3.3-1.9c-2-2.2-1.9-5.3-3-8c-0.5-1.3-1.3-2.4-1.7-3.7
				c-0.5-2-1.4-3.9-2.4-5.7c-1-1.5-2.4-2.6-3.5-4c-1.5-2-1-4.7-4.2-5.1c-0.4,1.9-0.3,4.7,0.7,6.5c0.4,0.7,1.1,1.2,1.5,2
				c0.8,1.9,1.4,3.8,1.9,5.7c0.3,1,1.2,1.5,1.4,2.5c0.6,2,0.8,4,1.2,6c0.4,0.9,0.6,1.8,0.9,2.7c0.2,2.6-0.4,5.6,0.7,8.1
				c1,2.1,4.5,2.5,5.5,5.2c0.9,2.3,0.2,5.1,0.2,7.4c0,1.1,0.6,2,0.7,3S107.3,202.7,108.8,203.6z"/>
			<path class="st3" d="M280,193.1c-5.8-2.4-10.3-7.8-16.5-8.5s-9.6,4.8-15.2,6.1s-12.1-2.2-18-1.7c-5,0.4-8.6,4.9-13.6,5.5
				c-6.6,0.7-11.3-6.5-18-6.7c-5.3-0.2-9.2,3-14.2,3.9c-3.4,0.6-7.1-1.4-10.6-1.4c-4.6,0-8.9,2-13.4,1.9c-4.9-0.1-8.1-5.1-12.7-6.4
				c-4.9-1.3-9.6,1.1-14.3,0.2c-5.2-1-9.7-4.2-14.6-6.1c-4.6-1.7-10.1-2.1-15-2.5c-14.3-1.1-16.8,11.3-26.3,11.3
				c-5.2,0-10.1-1.9-15.3-1.5c-4.3,0.3-8.2,3.1-12.5,2.9c-4.8-0.2-8.2-3.9-13.3-3.1c-4.7,0.7-6.6,5.5-10.7,7.4
				c-3.6,1.6-8.3-1.5-12.2-1c-3.3,0.4-5.1,3.9-8.3,4.3C3,198.2,1.5,197,0,195.7v99.8h280V193.1z"/>
			<path class="st4" d="M78.7,194.1c0.4-1.2,6.5-7.1,1.5-6.8c-7.4,1.5-9.3,6.8-12.1,13c-2.4,5.2-3.4,10.7-5.1,16.1
				c-1.2,3.7-2.9,7.2-3.9,11s-0.8,7.8-2.9,11.4c-2.3,4-6,7.1-10.3,8.6c-1.7,0.5-4.3,0.4-5.7,1.9c0,0,3.8,0.7,4.1,0.7
				c2.7,0.1,5.3,0,8-0.2c5.2-0.4,17.7,1.7,21.7-1.2c2.8-2.1,0.6-7.6,0-10.2s-1.4-5.6-1.1-8.2c0.2-1.4,1-2.6,1-4.1
				c-0.1-4-0.3-8-0.2-12C73.8,208.1,76.9,199.9,78.7,194.1z"/>
			<path class="st5" d="M280,223.1c-0.7-0.3-1.4-0.4-2.1-0.5c-15.5-1.9-21.8,21.3-35.9,25.6c-9.5,2.9-17.1-6.9-26.9-6.2
				c-3.2,0.2-5.1,3-8.1,3.4c-4.6,0.7-9.5-1-13.8,1.1c-2.4,1.1-2.6,4.6-5.3,5.4c-4.9,1.5-12.1-1.4-17.2-0.9
				c-4.1,0.4-7.8,3.1-11.9,3.1c-5.4,0-12.9-6.4-20-6.7c-5.2-0.2-8.6,5-13.7,5c-4.9,0.1-9.7-1.7-14.5-1.9c-5.7-0.2-11,2.2-16.8,0.6
				c-9.1-2.5-17.3-8.2-26.7-10.5c-4.8-1.2-9.5,0.6-14.3-0.9c-6.3-2-4.5-7.4-8.2-10.7c-4.1-3.5-8.6-3.4-12.9-6.1
				c-5.8-3.6-7-11.4-15.1-11.1c-3.8,0.1-11,6.4-16.7,11v81.8h243.8c5-0.5,10-1,15.1-1.7c7-0.9,14.1-2.5,21.1-3.6V223.1z"/>
			<path class="st7" d="M94.2,262.1c0.3,2,4,1,4.3,3.3c0.2,1.3-1.5,2.3-1.8,3.4c-0.1,0.5,0.5,1,0.6,1.4c0.1,0.3,0.2,3,0.2,3.3
				c-0.2,0.9-1.6,1.6-1.4,2.5c0.1,0.5,2.6,2.7,2.9,4.5c0.3,1.5-3,3.6-3.9,5.1c-0.3,0.5-1,1.8-0.5,2.3c1.1,1,6.4,0.7,7.8,0.6
				c3.3-0.2,6.7,0,10-0.3c3.6-0.3,7.1-0.9,10.8-1c5.1-0.1,10.6-1.4,15.7-0.3c0.9,0.2,4.4,1.3,4.6-0.1c0.1-0.8-1.6-1.5-2.1-1.8
				c-1.7-0.9-6.7-2-7.2-3.9c-0.2-0.8,0.6-1.7,0.2-2.4c-1.3-2.4-8-3.5-10.3-4.5c-2-0.9-0.9-2-2.1-2.5c-2.4-1.1-5-1.9-7.5-2.8
				c-0.8-0.3-1.6-0.9-2.4-1.2c-1.1-0.3-2.1-0.7-3.2-1.1c-2.7-1.7,4.1-3,2.8-5c-0.7-1-2.2-1.4-3.2-1.8c-3-1.1-6.3-1.3-9.2-2.7
				c-1.9-0.9-0.3-2.2-1-3.6c-0.5-1-2-1.2-2.8-1.8v0.6c0.1,1.2-0.9,2.2-0.8,3.2s1.2,1.7,0.9,2.8C95.5,258.9,94.1,261.2,94.2,262.1z"
				/>
			<path class="st8" d="M172,7.3c0.8,2.3,2.1,4.3,3.8,6.1c1,1.2,1.7,2.5,3,3.4c1.6,1.2,3.8,1.6,5.7,2c1.4,0.3,2.9,1.1,4.4,1.1
				c1.3-0.1,2.6-0.4,3.8-0.8c2.3-0.4,4.6-1,6.8-1.7c1.9-0.9,3.6-2,5.1-3.3c0.6-0.7,1-1.5,1.4-2.3c0.4-0.8,1-1.4,1.4-2.2
				c1.5-3.4,2.5-7.1,2.8-10.8c-0.4-2.5-1.1-4.9-2-7.3c-0.8-1.4-1.8-2.7-3-3.9c-1.1-1.5-2.4-2.8-3.9-4c-4.9-3.3-11.1-4.2-16.7-2.4
				l-2.1,0.4c-0.9,0.5-1.8,1.1-2.6,1.8c-1.2,0.7-2.4,1.5-3.5,2.4c-0.8,0.8-1.4,1.7-2.2,2.5c-0.5,0.4-0.9,0.9-1.3,1.4
				c-0.9,1.8-1.6,3.8-2,5.8c-0.6,1.9-0.8,4-0.8,6c0.2,1,0.6,2,1,3C171.6,5.4,171.7,6.4,172,7.3z"/>
			<path class="st9" d="M280,283.8c-0.3,1.9-0.6,4-0.7,4.2c-0.6-0.6-0.1-7.5-0.7-8.2c0.1-11.3,0.1-23.3-0.2-35.5
				c0.5,0.4,1.1,0.9,1.5,1.4v-3.5c-0.5-0.6-1-1.1-1.6-1.6v-0.1c0-1.7-0.1-3.4-0.1-5v-0.1c0.6,0.4,1.2,0.8,1.8,1.2v-2l-0.1-0.1
				c-0.5-0.6-1.1-1.1-1.8-1.6V233c-0.1-2.3-0.2-4.7-0.3-7c-0.1-3.5-0.3-6.9-0.5-10.4c-0.3-5.2-0.7-10.4-1.1-15.6
				c-0.2-2.3-0.4-4.7-0.6-7v-0.1c1.4-1.1,2.9-2.2,4.4-3.3v-4c-1.6,1.3-3.2,2.7-4.7,4.1c-0.2-2-0.4-3.9-0.6-5.9
				c0.5,0,0.9-0.2,1.3-0.5c1.5-1.2,2.8-2.3,4.1-3.4v-5.9c-1.8,1.6-3.7,3.3-5.9,5.2c-0.2-1.6-0.4-3.2-0.6-4.8
				c2.4-1.9,4.5-4.1,6.5-6.4v-6.9c-2.3,2.9-4.7,5.6-7.2,8.3v0c-0.1-0.7-0.2-1.5-0.3-2.2v0c1.3-2.8,2.8-5.5,4.7-8
				c0.9-1.2,1.9-2.4,2.9-3.5v-6.4c-2.5,2.2-4.7,4.6-6.6,7.2c-0.8,1.1-1.5,2.2-2.2,3.4c-0.1-0.5-0.2-1-0.3-1.5l0,0
				c2.4-4.4,5.4-8.5,9-12v-6.1l-0.2,0.1c-4,3.2-7.4,7.1-10.1,11.5c-0.1-0.7-0.3-1.4-0.4-2.1c0.2-0.3,0.4-0.6,0.5-1
				c0.8-4.5,3.2-8.4,6.8-11.2c1.1-0.9,2.2-1.6,3.4-2.4v-5.3c-2.2,1.1-4.4,2.5-6.3,4.1c-2.6,2.1-4.7,4.7-6.2,7.8
				c0-0.2-0.1-0.4-0.1-0.5c-0.1-0.4-0.2-0.9-0.3-1.3c0.4-0.1,0.7-0.4,0.8-0.7c2.4-4,5.6-7.4,9.4-10.1c0.9-0.7,1.8-1.3,2.8-1.9v-5.2
				c-0.8,0.4-1.5,0.9-2.3,1.4c-2.1,1.4-4.1,3.1-5.9,4.9c-2.3,2.3-4.2,4.9-5.7,7.7c-0.2-0.8-0.4-1.6-0.6-2.4c0.1-0.1,0.1-0.1,0.1-0.2
				c1.4-2.5,3.2-4.8,5.2-6.8c2.1-2,4.4-3.9,6.7-5.6l2.4-1.9v-5.7c-1.9,1.6-3.9,3.1-5.8,4.7c-2.4,1.8-4.5,3.9-6.5,6.2
				c-1.3,1.6-2.5,3.2-3.5,5c-0.1-0.5-0.3-1.1-0.5-1.6c0.3-0.2,0.4-0.4,0.5-0.7c1.6-3.5,3.9-6.7,6.8-9.2c1.3-1.1,2.7-2.1,4.1-2.9
				c0.6-0.3,1.2-0.7,1.8-1l1.2-0.7l1.8-1V109c-0.6,0.1-1.1,0.2-1.7,0.3c-1.3,0.3-2.7,0.7-3.9,1.2c-1.3,0.6-2.5,1.2-3.6,2.1
				c-1.8,1.3-3.5,2.9-4.8,4.7c-1.4,1.9-2.6,4.1-3.5,6.3l-0.7-2.1c-0.2-0.7-0.5-1.5-0.7-2.2c0.6-0.9,1.2-1.8,1.9-2.6
				c1.9-2.3,4-4.3,5.8-6.7c0.9-1.1,1.7-2.3,2.4-3.6c0.7-1.2,1.3-2.5,1.9-3.9c0.6-1.6,1.1-3.2,1.5-4.9c0.6-2.4,1-4.9,1.4-7.4
				c-0.7,1.6-1.5,3.2-2.2,4.7s-1.5,3.1-2.4,4.6c-0.6,1.2-1.3,2.3-2,3.5c-1,1.8-2,3.5-3.2,5.1c-1.7,2.5-3.6,4.6-5.3,7.1
				c-0.3,0.4-0.6,0.9-0.9,1.4c-0.4-1-0.7-2-1.1-3c2.6-2.3,4.8-5,6.7-7.9c1.3-2,2.4-4,3.3-6.2c0.4-0.9,0.7-1.8,1-2.6
				c0.4-1.3,0.7-2.7,0.9-4.1c0.2-1.4,0.3-2.8,0.4-4.2c0-2.1-0.1-4.2-0.6-6.2c-0.1,1.7-0.4,3.4-0.8,5c-0.4,1.6-0.9,3.2-1.4,4.8
				c-0.4,1.2-0.9,2.4-1.4,3.7c-0.3,0.8-0.7,1.6-1,2.4c-0.9,2-1.8,4-2.9,5.9c-1.4,2.6-3.1,5-5,7.2c-0.2-0.6-0.5-1.3-0.7-1.9
				c0.4-1.6,0.8-3.5,1.3-5.6c0.4-1.5,0.8-3,1.2-4.5c0.4-1.2,0.8-2.4,1.2-3.6c0.4-1.2,0.9-2.3,1.5-3.4c1.4-2.4,3.2-4.2,6.2-4.4
				c-2.4-0.6-4.9,0.1-6.8,1.7c-1.3,1.1-2.3,2.3-3.1,3.8c-0.4,0.8-0.8,1.5-1.1,2.4c0.1-0.5,0.2-1,0.4-1.6c0.2-1,0.5-1.9,0.8-2.9
				s0.5-1.9,0.8-2.8c0.8-2.2,1.8-3.9,3.9-4.7c-2,0.1-3.8,0.9-5.1,2.4c-0.9,1-1.6,2-2.1,3.2c-0.4,0.9-0.7,1.7-0.9,2.7
				c-0.2,0.9-0.4,1.8-0.6,2.7c-0.4,2.4-0.5,4.8-0.6,6.7c-0.8-1.7-1.6-3.4-2.4-5.1c0.3-1.3,0.6-2.8,0.9-4.4c0.2-1.3,0.5-2.6,0.8-3.9
				c0.2-1.1,0.5-2.1,0.8-3.1c0.3-1,0.7-2,1.1-2.9c1-2.1,3-3.6,5.3-3.9c-2.4-0.3-4.8,0.7-6.4,2.5c-0.7,0.8-1.3,1.6-1.7,2.6
				c-0.4,0.7-0.7,1.5-0.9,2.2c-0.3,1.1-0.6,2.3-0.8,3.5c-0.2,1.7-0.4,3.3-0.4,4.8l-0.6-1.2l-0.8-1.4c0.3,0,0.5-0.2,0.5-0.5
				c0.3-1.5,0.6-3.3,1-5.3c0.2-1.1,0.5-2.3,0.7-3.4c0.2-0.9,0.4-1.9,0.7-2.8c0.2-0.9,0.5-1.8,0.9-2.6c0.7-1.9,2.3-3.5,4.2-4.2
				c-1.8,0.1-3.5,1-4.7,2.3c-0.8,0.9-1.5,1.9-2,3c-0.3,0.6-0.6,1.3-0.8,2c-0.3,1-0.5,2.1-0.7,3.1c-0.4,2.6-0.3,5.2-0.4,7.2
				c-0.5-0.9-1-1.8-1.5-2.7c0.1-0.1,0.2-0.3,0.2-0.4c0.1-1.8,0.6-4.7,0.8-8c0.1-1.1,0.1-2.1,0.1-3.2c0-0.7-0.1-1.4-0.1-2.2
				c-0.1-1.2-0.2-2.4-0.5-3.6c-0.2-1.8-0.8-3.6-1.8-5.2c0.2,0.7,0.4,1.4,0.4,2.2c0.1,2,0,4-0.2,6c-0.1,1.3-0.2,2.6-0.2,4s0,2.7,0,4
				c0,1.8,0.1,3.4,0.2,4.8c-0.3-0.5-0.6-1-0.9-1.5c0.2-2,0.3-4,0.3-6c0-1.4-0.2-2.9-0.5-4.3c-0.3-1.4-0.8-2.8-1.5-4.1
				c-0.9-2-2.3-3.7-3.9-5.2c1.1,1.8,1.9,3.7,2.4,5.7c0.2,0.9,0.4,1.9,0.6,2.8s0.4,1.9,0.5,2.8c0.2,1.1,0.4,2.3,0.5,3.4
				c0.1,0.9,0.2,1.8,0.3,2.7c-0.8-1.2-1.6-2.4-2.4-3.6l0,0c-0.1-2.2-0.6-4.4-1.4-6.4c-0.5-1.4-1.2-2.7-2-3.9
				c-0.8-1.2-1.8-2.3-2.8-3.3c-1.5-1.5-3.1-2.8-4.8-4.2c1.1,1.5,2,3,3,4.4c0.6,1,1.3,2,1.9,2.9c0.5,0.8,1,1.6,1.5,2.4s1,1.6,1.4,2.5
				c0.3,0.7,0.7,1.4,1,2.1c-0.2-0.5-0.5-0.9-0.8-1.4c-0.5-0.9-1.2-1.7-1.9-2.5c-0.5-0.6-1-1.2-1.6-1.7c-0.6-0.5-1.1-1-1.8-1.5
				l-0.2-0.1l-0.2-0.2c0,0.1,0.1,0.1,0.1,0.2c-1.7-1.3-3.5-2.5-5.3-3.9c1.1,1.6,2.1,3,3.3,4.4c0.8,0.9,1.5,1.9,2.3,2.7
				c0.5,0.6,1.1,1.1,1.6,1.7c0.8,0.8,1.6,1.7,2.3,2.6c0.4,0.5,0.8,1,1.2,1.6c-1.9-1.7-4-3-6.4-3.9c-2-0.7-4.1-1.1-6.2-1.1
				c-2.2,0-4.3,0.5-6.2,1.5c-2.8,1.4-5,3.8-6.2,6.8c1.1-1.7,2.5-3.1,4.2-4.1c1.6-1,3.5-1.6,5.4-1.8c0.9-0.1,1.8-0.2,2.7-0.1
				c1.4,0,2.7,0.2,4.1,0.4c3,0.6,5.8,1.8,8.3,3.6c-1.7-0.4-3.5-0.6-5.3-0.4c-1.6,0.1-3.2,0.5-4.7,1c-1.5,0.6-2.9,1.3-4.2,2.3
				c-2,1.4-3.4,3.4-4.2,5.6c0.8-1.3,1.9-2.3,3.2-3.1c1.2-0.8,2.6-1.4,3.9-1.9c0.6-0.2,1.3-0.5,2-0.7c1-0.3,2-0.6,3-0.8
				c2.5-0.7,5.2-0.8,7.8-0.2c0.3,0.1,0.6,0,0.7-0.3c0.1-0.3,0-0.6-0.3-0.7l0,0c0.1-0.1,0.1-0.3,0.1-0.5c0.1,0,0.1-0.1,0.2-0.1
				c0,0.1,0,0.1,0,0.2c0,0.3,0.3,0.5,0.6,0.5c0.9,1.5,1.8,3,2.6,4.5c-1.6-0.4-3.2-0.3-4.8,0.2c-1.2,0.3-2.4,0.8-3.4,1.5
				c-1,0.7-2,1.5-2.9,2.4c-1.3,1.3-2.3,2.8-3.1,4.5c1.5-1.5,3.2-2.7,5-3.7c0.6-0.3,1.2-0.7,1.8-1s1.2-0.6,1.8-1
				c0.8-0.4,1.6-0.7,2.4-1c1.2-0.5,2.5-0.6,3.8-0.4h0.1c0,0.1,0.1,0.1,0.2,0.2c1.4,2.5,2.7,5.1,3.9,7.8c-2.5-0.5-5.1-0.1-7.4,0.9
				c-1.1,0.4-2.1,1-3.1,1.5c-0.9,0.6-1.9,1.2-2.8,1.8c-1.1,0.7-2.2,1.4-3.3,2.1c-1.7,1-3.6,1.6-5.6,1.8c2.4,0.4,4.9,0.1,7.2-0.8
				c1.3-0.5,2.5-1.1,3.7-1.7c0.8-0.4,1.5-0.9,2.3-1.3c1.1-0.7,2.2-1.3,3.4-1.9c1.7-0.9,3.5-1.3,5.4-1.2c0.2,0,0.4-0.1,0.5-0.2
				c0.3,0.7,0.6,1.4,0.9,2.1c-2.5-0.4-5.1-0.2-7.6,0.6c-1.8,0.6-3.4,1.4-4.9,2.5c-1.4,1.1-2.7,2.4-3.9,3.8c-1.7,2.1-3.1,4.4-4.2,6.8
				c2-2.4,4.2-4.6,6.6-6.6c0.8-0.6,1.6-1.2,2.4-1.8s1.6-1.1,2.5-1.6c1.1-0.7,2.3-1.2,3.6-1.6c1.9-0.7,3.9-0.9,5.9-0.8h0.1
				c0.1,0.2,0.2,0.4,0.2,0.6c0,0.2,0.1,0.3,0.2,0.4c0.3,0.6,0.5,1.2,0.8,1.8l0,0c-2.3,0-4.7,0.4-6.9,1.2c-1.5,0.6-2.9,1.4-4.1,2.5
				c-1.2,1.1-2.1,2.3-2.9,3.7c-1.1,2-2,4.1-2.7,6.3c1.2-1.9,2.6-3.6,4.1-5.3c0.9-1.1,2-2.1,3.1-3c1.1-0.9,2.2-1.7,3.5-2.3
				c1.9-1,4-1.6,6.1-2c0.1,0,0.2,0,0.3-0.1c0.8,2,1.6,4,2.3,6.1c-1.7-0.4-3.5-0.4-5.2-0.1c-1.8,0.4-3.5,1.1-5.1,2
				c-1.5,0.9-3,1.8-4.4,2.9c-1.6,1.2-3.2,2.5-4.8,3.5c-2.4,1.7-5.4,2.3-8.4,1.8c2,1,4.3,1.2,6.5,0.8c2.5-0.5,4.8-1.5,6.9-2.9
				c0.9-0.5,1.8-1.1,2.6-1.7c1.6-1.2,3.3-2.3,5-3.3c2.2-1.4,4.9-2,7.5-1.6c0.2,0.6,0.4,1.2,0.6,1.8c0,0.1,0,0.2,0.1,0.3
				c0.2,0.4,0.3,0.9,0.4,1.3c-2.5-0.3-5,0.2-7.3,1.3c-1.3,0.6-2.5,1.3-3.7,2.1c-1.1,0.8-2.2,1.7-3.2,2.6c-1.2,1.1-2.4,2.3-3.6,3.4
				c-1.7,1.7-3.7,3.2-5.8,4.4c2.8-0.7,5.4-1.9,7.8-3.6c1.6-1,3.1-2.1,4.6-3.2c1.2-0.9,2.4-1.9,3.7-2.7c1.2-0.8,2.5-1.5,3.8-2.1
				c1.3-0.5,2.7-0.8,4.2-0.9c0.4,1.3,0.9,2.7,1.3,4.1c-2-0.4-4-0.3-6,0.1c-1.1,0.2-2.2,0.6-3.3,0.9c-1.8,0.7-3.5,1.5-5.2,2.5
				c-1.7,1.1-3.2,2.5-4.3,4.1c-0.1,0.2-0.3,0.5-0.4,0.7l-0.3,0.1c-4.5,1-8.1,2.5-9.2,4.1c1.3-1.2,4.6-1.7,8.7-2
				c-0.2,0.6-0.3,1.1-0.5,1.7c-0.3,1.6-0.6,3.3-0.7,4.9c-1,0.6-1.9,1.2-2.7,1.9c-1.8,1.4-3.2,3.2-4.2,5.2c1.9-2.1,4.4-3.6,7.1-4.5
				c1.7-0.6,3.5-1.2,5.3-1.5c1.1-0.2,2.1-0.5,3.2-0.7c1.6-0.3,3.3-0.6,4.9-0.9s3.4-0.4,5-0.4c2.4-0.1,4.8,0.1,7.1,0.6
				c0.3,1.1,0.5,2.2,0.8,3.3c-2.8-0.5-5.7-0.7-8.5-0.6c-2.5,0.1-4.9,0.6-7.3,1.4c-1.2,0.4-2.3,0.9-3.4,1.4c-1.1,0.6-2.2,1.2-3.2,1.9
				c-1.2,0.8-2.4,1.7-3.5,2.7c-1.6,1.4-3.2,3-4.6,4.7c1.8-1.2,3.6-2.3,5.5-3.2c1.2-0.6,2.5-1.2,3.8-1.7c1.1-0.4,2.1-0.8,3.2-1.2
				c1.1-0.4,2.1-0.7,3.2-1c1.1-0.3,2.1-0.6,3.2-0.9c1.6-0.4,3.3-0.7,5-0.9c2.3-0.3,4.7-0.4,7-0.2l0.3,1.5c0.4,1.8,0.7,3.5,1.1,5.3
				c-2.4-0.7-5-1.2-7.5-1.4c-2.3-0.3-4.6-0.3-6.9-0.2c-1.6,0.1-3.1,0.3-4.6,0.6c-2.4,0.5-4.7,1.5-6.6,2.9c-0.5,0.4-0.9,0.9-1.3,1.4
				c-1.4,1.9-2.1,4.2-3.8,5.9c2-1.2,3.4-3.2,5.1-4.6c0.4-0.3,0.8-0.6,1.3-0.9c1-0.5,2-0.8,3-0.9c1-0.2,2.1-0.3,3.2-0.5
				c0.9-0.1,1.8-0.2,2.6-0.2c1.3-0.1,2.7-0.2,4-0.3c1.9-0.1,3.7-0.1,5.4-0.1c2.2,0,4.3,0.2,6.5,0.5l0.7,4c-2.4-1.1-4.9-1.8-7.6-2.1
				c-2.5-0.3-5.1-0.1-7.6,0.4c-1.8,0.4-3.6,1-5.3,1.8c-1.6,0.8-3.2,1.6-4.8,2.6c-2.2,1.4-4.4,2.9-6.7,4.4c-2.2,1.5-4.5,2.9-6.8,4.1
				c2.6-0.7,5.1-1.5,7.6-2.5c2.6-1,5-2.1,7.3-3.2c1.6-0.7,3.2-1.4,4.8-2.1c1.5-0.7,3.1-1.2,4.7-1.7c2.1-0.6,4.3-0.9,6.5-0.8
				c2.8,0.1,5.6,0.6,8.2,1.5c0.2,0.9,0.3,1.8,0.5,2.8c-2.2-0.2-4.4-0.1-6.5,0.4c-1.8,0.3-3.6,0.8-5.3,1.4c-0.8,0.3-1.5,0.6-2.3,0.9
				c-1.2-0.3-2.4-0.6-3.5-0.8c-1.6-0.3-3.3-0.4-4.9-0.3c-1.8,0.1-3.6,0.6-5.1,1.7c-1.1,0.9-2,1.9-2.9,3c-1.1,1.4-2.1,2.9-3.1,4.4
				c-1.8,0.1-3.5-0.1-5.2-0.8c1.3,0.9,2.8,1.6,4.4,1.9c-0.5,0.7-1,1.4-1.5,2.1c0.7-0.6,1.5-1.3,2.2-2c0.8,0.1,1.7,0.2,2.6,0.2
				c1.8-0.1,3.6-0.3,5.4-0.8c2-0.5,4-1.2,5.9-2c1.9-0.8,3.7-1.7,5.5-2.6l0.6-0.3c1.9,0.4,3.9,0.9,5.8,1.4c3.5,0.9,6.7,1.7,9.2,2
				c0.1,0.1,0.1,0.2,0.2,0.3l0,0l0.3,2.1v0.2c-3.2-0.6-6.5-0.8-9.7-0.6c-3,0.2-5.9,1-8.5,2.4c-1.3,0.7-2.6,1.5-3.7,2.5
				c-0.5,0.5-1.1,1-1.6,1.5c-0.9-2.1-2.2-4.1-3.8-5.8c1,2.1,1.7,4.3,2,6.6c0.1,0.4,0.1,0.8,0.2,1.1c-0.5,0.8-1.1,1.6-1.5,2.4
				c-0.5-1.4-1.2-2.8-2-4c-0.5-0.9-1.4-1.5-2.4-1.6c-1.1,0.1-2.1,0.8-2.4,1.9c-0.8-0.7-1.9-1.1-2.9-1.1c-1.3,0.1-2.5,0.9-3.2,2
				c-0.2,0.3-0.3,0.5-0.5,0.8c-0.1-1.2-0.2-2.4-0.1-3.7c0-0.8,0.1-1.6,0.4-2.4c0.3-0.8,1.2-1.3,2.1-1c-0.9-0.7-2.3-0.5-2.9,0.4
				c-1.6,1.6-2.3,5.3-2.6,6.7l-0.1,1c-0.2-0.8-0.4-1.7-0.5-2.5c-0.2-1.1-0.5-2.2-0.6-3.3c-0.5-2.3-0.6-4.7-0.5-7.1
				c-1.1,2.7-1.8,5.6-2.1,8.6c-0.2,2-0.2,3.9-0.1,5.9c0.1,1.2,0.2,2.3,0.4,3.5c0.3,1.7,0.6,3.4,1,5.1c0.3,1.3,0.6,2.6,1,3.9
				c-0.7-0.6-1.5-1.1-2.3-1.6c-0.3-1-0.5-2.1-0.8-3.2c-0.5-2.1-0.9-4.4-1.2-6.5c-0.2-1.5-0.4-3-0.6-4.4s-0.3-2.5-0.5-3.6
				c-0.2-1.4-0.3-2.6-0.4-3.6c-0.1-0.7-0.2-2.8-0.2-5c-0.1-1.6,0.1-3.2,0.5-4.8c0.5-1.3,1.4-1.7,3-0.6c-1.7-2.1-3-1.5-4.1,0
				c-1.1,1.9-1.8,4-2.1,6.1c-0.4,1.9-0.5,3.5-0.6,4.1c-0.1,1.3-0.2,2.7-0.2,4c0,0.8,0.1,1.7,0.1,2.6c0.1,1.8,0.4,3.8,0.8,5.8
				c0.2,1.3,0.5,2.5,0.9,3.8s0.7,2.6,1.1,3.9c-1-0.2-2.1-0.3-3.2-0.4c-0.9-3.3-1.6-6.6-2.2-10c-0.3-2.1-0.6-4.2-0.8-6.2
				c-0.1-1-0.2-2.1-0.3-3.1s-0.2-2.1-0.2-3.1c-0.1-1.2-0.7-5.7-0.4-8.3c0.2-1.5,0.6-2.2,1.8-1.2c-0.4-0.7-0.9-0.9-1.2-0.9
				c-0.6,0-1.1,0.7-1.4,1.8c-0.9,2.5-1.2,7.2-1.4,8.4c-0.2,1.8-0.3,3.6-0.3,5.3c0.1,1.8,0.3,3.5,0.6,5.3c0.4,2.1,0.9,4.1,1.5,6.2
				c0.6,2,1.3,3.9,2.1,5.8c-0.8,0-1.6,0.1-2.4,0.1c-0.7-3.8-1.9-7.6-3.7-11c-1.3-2.6-2.8-5-4.6-7.3c-1.2-1.5-2.6-2.9-4.1-4.1
				c-2.8-2.2-5.7-3.4-8.3-3.3c-1.1,0.1-2.2,0.4-3.1,1c-1.3,0.8-2.5,1.7-3.7,2.7c1.3-0.7,2.7-1.3,4.1-1.8c0.9-0.3,1.8-0.4,2.7-0.3
				c2.1,0.4,4,1.5,5.5,3c0.8,0.7,1.6,1.5,2.3,2.4c0.7,0.8,1.4,1.6,2.1,2.5s1.6,2.1,2.4,3.2c1.2,1.7,2.3,3.4,3.2,5.2
				c1.4,2.4,2.5,4.9,3.4,7.6c-0.8-0.3-1.6-0.6-2.4-0.9c-1-3.6-2.8-6.9-5.4-9.7c-1.8-1.9-3.9-3.6-6.2-4.9c-1.4-0.8-2.8-1.4-4.3-2
				c-1-0.3-2-0.6-3.1-0.8c-1.5-0.3-3-0.5-4.5-0.5L181,172c-1.9-1-4-1.8-6.1-2.4c-3.8-0.9-7.1-0.7-9.4,1.3c3-1.6,6.8-0.5,10.8,1.7
				l0.2,0.1c-0.6,0.1-1.3,0.2-1.9,0.4l-0.8,0.2c-1-0.4-2-0.8-3.1-1c-1.2-0.3-2.4-0.4-3.6-0.5c-0.4-0.3-0.9-0.5-1.4-0.8
				c-1.7-1-3.7-1.3-5.7-0.9c-0.9,0.3-1.8,0.9-2.4,1.6c-1.1,1.5-2.1,3-3,4.6c-0.8,0.1-1.5,0.3-2.2,0.6c-1.9,0.8-3.5,2.2-4.5,4
				l-0.4,0.2c-1.3,0.6-2.5,1.4-3.5,2.4c-0.6,0.6-1.5,1.4-2.2,2.3c-0.5,0.5-0.9,1.1-1.2,1.8c0.5-0.5,1-0.9,1.6-1.3
				c0.9-0.6,1.9-1.1,2.7-1.5c1.2-0.7,2.6-1.2,4-1.4c0.6-0.1,1.3-0.1,1.9,0c0.6,0,1.3,0.2,1.9,0.3c0.8,0.2,1.6,0.5,2.3,0.8
				c1.2,0.5,2.4,1.1,3.6,1.8c1,0.5,2,1.1,3,1.6c-0.4,0.1-0.7,0.3-1,0.5c-0.6,0.4-1.1,1-1.5,1.6c-0.5,0.2-0.9,0.5-1.4,0.7
				c-2.5-1.1-5.1-1.8-7.8-2.2c-2-0.3-4.1-0.2-6.1,0.4c-1,0.3-1.9,0.7-2.8,1.3c-0.9,0.5-1.7,1.1-2.4,1.8c-0.9,0.8-1.7,1.6-2.4,2.5
				c-1,1.2-2,2.5-3.1,4.1c2.2-1.7,4.5-3.2,6.9-4.6c0.8-0.4,1.6-0.8,2.4-1.1c0.8-0.3,1.6-0.6,2.4-0.8c0.8-0.2,1.6-0.4,2.4-0.5
				c1.3-0.1,2.6-0.2,3.9-0.1l0.6,0c-1.1,0.8-2,1.8-2.7,2.9c-0.3,0.5-0.6,1-0.8,1.5c-2.5,0.1-4.9,0.6-7.3,1.2c-2.1,0.6-4,1.5-5.8,2.7
				c-0.9,0.6-1.7,1.4-2.4,2.1c-0.7,0.8-1.4,1.7-1.9,2.6c-0.7,1.1-1.2,2.2-1.7,3.4c-0.6,1.7-1.1,3.5-1.4,5.4c1.3-2.7,2.9-5.1,5-7.2
				c0.7-0.7,1.3-1.3,2.1-1.9c0.7-0.6,1.4-1.1,2.2-1.6c0.8-0.5,1.5-1,2.4-1.5c1.2-0.7,2.5-1.3,3.9-1.8l0.2-0.1
				c-0.7,0.9-1.2,1.9-1.6,2.9c-0.3,0.9-0.5,1.7-0.5,2.6c-2.8,1.1-5.3,2.6-7.5,4.6c-1.7,1.5-3.2,3.3-4.5,5.2c-0.6,1-1.1,2-1.6,3
				c-0.5,1-0.9,2.1-1.3,3.1c-0.4,1.2-0.8,2.5-1.2,3.8c-0.5,1.9-1,3.8-1.5,5.8c1-1.8,2-3.4,3-5.1s2-3.4,3-5c0.7-1.1,1.4-2.1,2-3.2
				s1.4-2.1,2.1-3.1c1-1.3,2.1-2.6,3.3-3.7c1.2-1.1,2.5-2.2,3.9-3.1l-0.4,0.5c-0.2,0.1-0.4,0.2-0.5,0.4c-1.3,2.2-2.5,4.5-3.5,6.9
				c-0.6,1.6-1.2,3.2-1.8,4.8c-0.4,1.2-0.8,2.4-1.1,3.6s-0.6,2.4-0.9,3.6c-0.4,1.9-0.8,3.7-1.3,5.5c-0.5,1.8-1,3.6-1.7,5.4
				c1.6-2,2.9-4.2,4.1-6.5c0.8-1.5,1.5-3.1,2.1-4.7c0.4-1,0.7-1.9,1-2.9c0.4-1.4,0.8-2.8,1.1-4.3c0,0.4,0.1,0.8,0.1,1.2
				c0.2,1.5,0.5,2.9,0.7,4.4c0.2,1.5,0.3,3,0.3,4.5c0.8-1.9,1.3-3.9,1.6-6c0.2-1.4,0.3-2.7,0.4-4c0-0.8,0.1-1.6,0.1-2.5s0-1.6,0-2.4
				c0-1.5,0.2-2.9,0.6-4.4c0.2,0.5,0.3,1,0.5,1.5c0.4,1,0.8,2.1,1.3,3.1c0.7,1.5,1.3,3,1.8,4.6l0.5,1.8l0.1-1.9
				c0-1.6-0.2-3.3-0.5-4.9c-0.2-1.6-0.5-3.1-0.8-4.7c-0.2-1-0.3-2-0.4-3c-0.1-0.9-0.1-1.9,0-2.8v0c0.7-1,1.4-1.9,2.2-2.8
				c-0.1,0.5-0.1,1.1-0.1,1.7c0,1.3,0.1,2.7,0.3,4c0.2,2,0.9,3.9,2,5.6c-0.5-1.3-0.4-3.7,0-6.5c0.2-1.4,0.5-2.8,0.9-4.2
				c0.2-0.9,0.4-1.9,0.7-2.7c0.1-0.2,0.1-0.5,0.2-0.7c0.4-0.1,0.7-0.6,0.5-1c0-0.1-0.1-0.2-0.1-0.2c1.8-1.5,3.7-2.7,5.8-3.8
				c0.1,0.1,0.3,0.1,0.5,0.1c0,0,0,0.1,0,0.1c-0.7,2.2-1.3,4.3-1.8,6.6c-0.2,1-0.4,2.1-0.5,3.1s-0.3,2.1-0.4,3.1
				c-0.1,1.2-0.3,2.5-0.4,3.7c-0.2,1.9-0.5,3.7-0.9,5.6c1.4-2.7,2.6-5.4,3.6-8.3c0.4-1.3,0.8-2.6,1.2-3.9c0.2-0.9,0.4-1.7,0.6-2.6
				c0.5-2.1,0.8-4.3,1.4-6.4c0.2-1,0.5-2,0.9-2.9c1.1-0.4,2.1-0.8,3.2-1.1c0.1,0,0.3,0,0.4,0c-0.7,0.9-1.2,2-1.7,3
				c-0.4,0.9-0.8,1.9-1.1,2.9c-0.3,1-0.5,1.9-0.7,2.9c-0.3,1.5-0.4,3-0.5,4.5c-0.1,1.9-0.1,3.4-0.2,4.5c0.5-1.3,1.4-3.3,2.4-5.7
				c0.5-1.2,1.1-2.5,1.6-3.8c0.3-0.8,0.6-1.7,0.9-2.5c0.5-1.3,0.9-2.5,1.4-3.6c0.5-1.2,1.2-2.3,2.1-3.2l0.1-0.1l1.8-0.3l0.9-0.1
				c-0.4,0.5-0.7,1-1.1,1.5c-0.9,1.7-1.7,3.4-2.5,5.1c-0.5,1.2-0.9,2.4-1.3,3.6c-0.5,1.8-0.9,3.7-1.2,5.5c-0.5,2.8-0.8,5.6-1,8.4
				c1-2.6,2-5.2,3.1-7.8c0.7-1.7,1.4-3.4,2.1-5.1c0.5-1.1,0.9-2.3,1.3-3.4c0.3-0.7,0.5-1.4,0.8-2.1c-0.1,0.3-0.2,0.6-0.2,0.9
				c-0.5,2-0.9,4-1.1,6.1c-0.4,3.1-0.5,6.1-0.7,9.2c0.8-2.9,1.7-5.8,2.7-8.7c0.6-1.9,1.3-3.8,2-5.6c0.5-1.2,1-2.4,1.5-3.6
				c0.7-1.5,1.5-3,2.3-4.4c3.4,0,6.8,0.3,10.1,0.9c-0.7,0.6-1.3,1.2-1.9,1.9c-1.4,1.8-2.6,3.7-3.7,5.6c-0.7,1.3-1.4,2.6-2,4
				c-0.9,2-1.7,4.1-2.4,6.2c-1.1,3.2-2,6.4-3,9.5c1.5-2.5,3-5.1,4.5-7.7c1-1.7,2-3.4,2.9-5.1c0.6-1.1,1.3-2.3,1.9-3.4
				c0.9-1.7,1.9-3.4,2.8-5c0.5-0.8,0.9-1.5,1.4-2.3c0.8-1.1,1.7-2.1,2.7-3c1.2,0.3,2.5,0.5,3.7,0.9c-0.8,0.5-1.5,1.2-2.2,1.9
				c-1.6,1.7-3.1,3.5-4.5,5.5c-0.9,1.3-1.7,2.6-2.5,4c-1.1,2-2.1,4.2-2.9,6.3c-1.4,3.3-2.4,6.6-3.5,9.8c1.2-2,2.5-4,3.8-6.1
				c0.8-1.4,1.7-2.7,2.6-4c0.7-1.1,1.4-2.2,2.2-3.3s1.4-2.2,2.1-3.3c1.5-2.4,3.1-4.6,4.8-6.8c0.9-1.2,2-2.1,3.3-2.9
				c0.9,0.3,1.8,0.6,2.7,0.9h0.1l-0.6,0.3c-2.3,1.1-4.3,2.5-6.1,4.3c-1.7,1.8-3.1,3.7-4.2,5.9c-1.6,3.1-2.8,6.4-3.5,9.9
				c-0.7,3.4-1,6.8-0.8,10.2c0.6-3.3,1.5-6.5,2.8-9.6c0.8-2,1.8-4,2.9-5.9c1.3-2.3,2.9-4.4,4.7-6.3c1.7-1.9,3.7-3.4,5.9-4.5
				c1.7-0.8,3.5-1.4,5.4-1.7c1.2,0.5,2.3,1,3.4,1.5c-1.1,0.6-2.2,1.3-3.2,2c-2.4,1.9-4.4,4.2-5.9,6.7c-1.5,2.5-2.7,5.1-3.7,7.8
				c-0.8,2.1-1.4,4.3-1.9,6.5c-0.8,3.3-1,6.7-0.7,10c0.3-2.7,1.1-5.4,2.1-7.9c1-2.5,2.2-5,3.5-7.3c1.3-2.3,2.7-4.6,4.2-6.8
				c1.4-2.1,3.1-4,5-5.6c1.6-1.3,3.3-2.3,5.2-3.2l0.9,0.5c-0.9,0.9-1.6,1.9-2.2,3c-1.2,2.2-2.1,4.6-2.7,7c-0.8,2.9-1.4,5.9-1.8,8.8
				c-0.5,3.4-0.8,6.6-1,8.9c0.7-2.2,1.7-5.1,2.9-8.4c1-2.7,2-5.5,3.2-8.1c0.8-1.7,1.6-3.4,2.5-5c0.8-1.5,1.8-2.8,3.1-3.8
				c1.9,1.2,3.7,2.5,5.5,3.8c-0.7,0.6-1.4,1.2-2,1.9c-1.4,1.5-2.5,3.1-3.5,4.8c-1.4,2.5-2.6,5.2-3.6,7.9c-1,2.8-1.7,5.5-2.4,8.2
				c1.3-2.4,2.8-4.8,4.3-7.3c1.4-2.3,3-4.6,4.7-6.7c1.1-1.4,2.3-2.7,3.6-3.9c0.8-0.7,1.5-1.4,2.4-2.1c1.4,1.3,2.8,2.6,4.2,4
				c-1.2,0.9-2.3,1.9-3.2,3.2c-1.6,2.5-3,5.1-4.2,7.8c-0.4,0.9-0.8,1.8-1.1,2.7s-0.6,1.8-0.9,2.8c-0.7,2.3-1.2,4.7-1.7,7.1
				c-0.4,2.5-0.7,4.9-0.9,7.2c1.1-2.6,2.3-5.2,3.6-7.9c0.9-1.8,1.8-3.6,2.6-5.4c0.6-1.2,1.2-2.4,1.7-3.5c0.7-1.5,1.4-3,2.1-4.4
				s1.4-3,2.2-4.4c0.6-1,1.3-1.9,2.2-2.6c2.3,2.5,4.4,5.1,6.5,7.9c-0.2,0.5-0.4,1-0.6,1.5c-0.5,1.4-0.8,3-0.8,4.5
				c0.1,1.6,0.4,3.2,1.1,4.6c-0.5,1-1,1.9-1.6,2.9c-0.4,0.6-0.7,1.1-1.1,1.7c-1.6,0.3-3.2,0.8-4.8,1.5c-2.5,1.1-4.7,2.6-6.5,4.6
				c-1.2,1.3-2.2,2.8-3,4.4c-1.2,2.3-1.9,4.8-2.4,7.4c-0.6,3.7-0.7,7.5-0.3,11.3c0.3-2.6,0.7-5.1,1.4-7.6c0.6-2.4,1.5-4.8,2.6-7
				c0.8-1.7,1.9-3.4,3.1-4.9c1.7-2.3,3.9-4.2,6.5-5.5l0.9-0.4c-1,1.4-2,2.7-3,4.1c-1.4,1.9-2.6,4-3.6,6.2c1.2-1.6,2.5-3.1,4-4.5
				c-0.5,1-0.9,2.1-1.2,3.2c-0.4,1.3-0.7,2.6-0.8,4c-0.1,1.4-0.2,2.7-0.1,4.1c0.1,2,0.3,4,0.6,6c0.3,2,0.9,3.9,1.6,5.8
				c-0.2-2.7-0.2-5.5,0.2-8.2c0.2-1.7,0.4-3.5,0.7-5.4c0.2-1.2,0.4-2.3,0.6-3.5c0.3-1.7,0.7-3.4,1.3-5c0.3-0.8,0.6-1.5,1.1-2.2
				l-0.1,0.2c-0.5,1.2-0.9,2.5-1.1,3.8c-0.2,1.3-0.3,2.6-0.3,3.9c0,1.2,0.1,2.4,0.2,3.6c-0.1,1.2-0.1,2.3-0.1,3.4
				c0,2.1,0.1,4.2,0.4,6.2c0.1-1.1,0.4-2.5,0.8-4.1c0.2,0.8,0.4,1.5,0.6,2.2c0-1.9,0-3.7,0.2-5.6c0-0.1,0-0.1,0-0.2l0.1-0.6
				c0.5-1.8,1-3.6,1.6-5.4c0.4-1.2,0.8-2.3,1.2-3.5c0.6-1.7,1.3-3.3,2.2-4.9c-0.4,1-0.7,2.1-0.9,3.1c-0.1,0.4-0.1,0.8-0.1,1.2
				c-0.8,3.7-1.1,7.3-1.5,9.2c0.4-1.4,0.9-3.8,1.5-6.4c0.1,0.8,0.3,1.7,0.5,2.5c0.2,0.9,0.5,1.8,0.8,2.7c0.1,1.1,0.2,2.1,0.5,3.2
				c0.4,2,1,4,1.7,6c0.2,0.7,0.5,1.4,0.8,2l-0.2,0.3c-1.8,2.6-4.6,4.4-5.9,7.3c1.2-1.4,2.7-2.6,4.3-3.5c0.9-0.6,1.8-1.3,2.7-2
				c0.2,0.5,0.5,1,0.7,1.5c-0.1-0.6-0.2-1.2-0.4-1.9l0.1-0.1l0.3-0.3v0.4c0.1,1.5,0.3,2.9,0.5,4.4c0.4,2.2,1,4.3,1.9,6.3
				c-0.3-2.1-0.4-4.3-0.3-6.4c0.1-2,0.3-4.1,0.6-6.3c0.2-1.4,0.4-2.7,0.6-4.1s0.5-2.7,0.8-4c0.3-1.8,0.8-3.5,1.5-5.2
				c0.8-2.1,2-4,3.6-5.5c0.6,1.3,1,2.7,1.3,4c0.8,3.1,1.5,6.3,2.2,9.5l2.2,9.5c2.1,9.5,4.2,19.1,6.4,28.6l0.7,2.8h8.6V283.8z
				 M255.7,105.2l-0.4-1c0.2-0.1,0.5-0.2,0.6-0.4L255.7,105.2z M244.2,124c1-0.6,2.1-1.3,3.3-1.9s2.3-1.1,3.5-1.6
				c2.5-1,5-1.6,6.9-1.1c0.3,1,0.6,1.9,0.9,2.9c0.4,1.4,0.8,2.9,1.2,4.4c-2.8-0.8-5.7-1.2-8.6-1.3c-2.2-0.1-4.5-0.1-6.8,0
				c-0.9,0.1-1.8,0.2-2.7,0.3h-0.2C242.5,125.1,243.4,124.5,244.2,124z M251.8,131.2c-2.5,0-5,0.2-7.5,0.8c-1.2,0.3-2.4,0.6-3.6,1.1
				c-1.2,0.4-2.3,1-3.4,1.6l-0.5,0.3c0.4-1.4,0.9-2.8,1.5-4.1c0.3-0.8,0.7-1.6,1.1-2.3c1.4-0.1,2.8-0.1,4.2-0.1l3.7-0.2
				c1.9-0.1,3.8-0.2,5.5-0.2c2.5-0.2,5-0.1,7.5,0.3c0.4,1.5,0.8,3,1.1,4.5C258.3,131.6,255.1,131.1,251.8,131.2L251.8,131.2z
				 M247,164.2c-1,0.5-2,1-3.1,1.5c-2,1.1-4,2-6.1,2.8c-1.1,0.4-2.1,0.7-3.2,0.9c1-1,2-1.9,3.1-2.8c0.9-0.8,1.9-1.5,3-2.1
				c1.1-0.5,2.4-0.7,3.7-0.6C245.2,164,246.1,164.1,247,164.2L247,164.2z M267.9,166.7c-2.3-0.7-5.1-1.8-8.2-2.9l-1.9-0.6l1.1-0.4
				c2.6-1.1,5.3-1.7,8.1-1.8l0.1,0.9C267.4,163.5,267.7,165.1,267.9,166.7L267.9,166.7z M146,200.9c0.2-0.2,0.3-0.5,0.5-0.7
				c0.2-0.2,0.4-0.5,0.6-0.7C146.8,200,146.4,200.4,146,200.9z M158,173.6c0.7-0.6,1.5-1,2.4-1.2c0.6,0,1.2,0.1,1.8,0.3
				c-2.3,0.8-4.4,2.1-6.1,3.7h-0.4l-0.9,0.1C155.7,175.7,156.8,174.5,158,173.6L158,173.6z M165.1,188.1c-2.1-1.5-4.1-3.2-6.1-4.6
				c-1.6-1.2-3.5-2.1-5.4-2.6c-1.6-0.4-3.2-0.4-4.8,0c0.9-0.7,1.9-1.2,2.9-1.5c1.6-0.4,3.4-0.4,5,0.1c0.8,0.2,1.6,0.4,2.4,0.7
				c1.2,0.4,2.3,0.9,3.4,1.5c1.7,0.9,3.2,2,4.6,3.3c0.7,0.7,1.3,1.4,1.8,2.2C167.8,187.4,166.5,187.7,165.1,188.1L165.1,188.1z
				 M175.7,186c-0.2,0-0.3,0.1-0.5,0.2c-1.5,0.1-3,0.3-4.4,0.6c-1.1-2.7-2.9-5-5.1-6.8c-1.6-1.3-3.4-2.3-5.4-2.9
				c-0.6-0.2-1.2-0.3-1.8-0.5c-0.7-0.1-1.5-0.2-2.2-0.2c2-1.2,4.2-1.9,6.5-2.1c0.7,0,1.4,0,2.1,0c0.4,0.3,0.8,0.6,1.1,0.9
				c0.6,0.5,1.2,1,1.8,1.5c1.4,1.3,2.7,2.6,4,4.1c1.5,1.6,2.8,3.3,4.1,5.2L175.7,186z M177.7,185.3c-1-2.2-2.2-4.3-3.6-6.3
				c-0.7-1-1.5-2-2.3-2.9c0.4,0.2,0.9,0.4,1.3,0.6c1.6,0.8,3.1,1.6,4.6,2.6c1.1,0.7,2.2,1.5,3.3,2.3c0.7,0.5,1.5,1.1,2.2,1.7
				C181.1,183.3,179.2,184,177.7,185.3L177.7,185.3z M182.1,186c0.4-0.1,0.8-0.2,1.2-0.2c0.5,0,1,0.1,1.5,0.3
				C183.9,186.1,183,186,182.1,186L182.1,186z M193.7,187.1c-0.2,0-0.4,0.1-0.6,0.1c-1.3-0.2-2.6-0.4-3.9-0.6c-2-2.5-4.2-4.8-6.5-7
				c-1.1-1-2.2-1.9-3.3-2.8c-1.1-0.8-2.3-1.6-3.6-2.3c1.1,0,2.2,0,3.3,0.1h0.2l1.4,1c1.4,1,2.9,2,4.3,3.1c1.8,1.3,3.4,2.7,5,4.1
				c1.5,1.4,3,2.8,4.4,4.3C194.3,187,194,187,193.7,187.1L193.7,187.1z M202.6,189.4c-1.7-0.5-3.4-1-5.1-1.4
				c-1.5-2.7-3.4-5.1-5.5-7.3c-0.9-1-2-2-3.1-3c-0.4-0.4-0.8-0.7-1.2-1.1l0.4,0.2c1.3,0.5,2.6,1.1,3.9,1.7c2.1,1.1,4,2.4,5.8,4
				c2.2,2,4,4.3,5.3,7L202.6,189.4z M231.2,203.1c-0.1-1-0.2-1.9-0.3-2.9c0.4,0.2,0.7,0.4,1.1,0.6c0.7,0.5,1.2,1,1.7,1.7
				C232.9,202.6,232.1,202.8,231.2,203.1L231.2,203.1z M234.8,207.5l-0.9-0.8c0.3-0.1,0.7-0.1,1-0.1
				C234.9,206.9,234.8,207.2,234.8,207.5L234.8,207.5z M234.3,197.9c-1.2-0.9-2.5-1.6-3.9-2c0-0.3-0.1-0.5-0.1-0.8
				c-0.3-1.9-0.5-3.9-0.8-5.8c-0.2-1.6-0.4-3.2-0.5-4.8c-0.1-0.7-0.2-1.5-0.3-2.2c0.5-1.2,1.4-2.2,2.6-2.8c0.5-0.2,1.2-0.1,1.5,0.3
				c0.3,0.3,0.5,0.7,0.6,1.1c0.3,0.7,0.5,1.5,0.6,2.3c0.1,0.5,0.1,1,0.2,1.5s0,1.1-0.1,1.7c0.1-0.2,0.1-0.4,0.2-0.6v0.1
				c0.1,0.9,0.2,1.8,0.3,2.7c0.3,2.6,0.4,5.4,0.4,8.1c0,0.6,0,1.3,0,1.9C234.9,198.4,234.6,198.1,234.3,197.9L234.3,197.9z
				 M239.5,189.2c0.1,0.5,0.1,1,0.1,1.5h-0.4c0-0.3,0-0.7-0.1-1C239.3,189.5,239.4,189.4,239.5,189.2L239.5,189.2z M237.3,178.5
				c0.1,0,0.1-0.1,0.2-0.1L237.3,178.5L237.3,178.5z M237.2,178.5L237.2,178.5L237.2,178.5C237.2,178.5,237.2,178.5,237.2,178.5
				L237.2,178.5z M236.6,179.3c0.2-0.3,0.4-0.6,0.6-0.8c0,0.1,0,0.1,0.1,0.2c0.2,0.4,0.3,0.7,0.5,1.1c0.5,1.6,0.9,3.3,1.1,5
				c0.2,1.3,0.4,2.5,0.5,3c-0.1,0.3-0.2,0.6-0.2,0.8c-0.1-0.6-0.1-1.1-0.2-1.7c-0.2-1.6-0.6-3.1-1-4.6c-0.3-1-0.8-2-1.3-2.9
				L236.6,179.3z M238.8,211.1h-0.4l-0.7-0.7c0.3-0.8,0.4-1.6,0.5-2.5c0.2,0.1,0.3,0.3,0.5,0.5c0.2,0.2,0.3,0.4,0.4,0.5
				C239,209.7,238.9,210.4,238.8,211.1L238.8,211.1z M239.8,201.3c0,0.9-0.1,1.9-0.2,2.8c-0.4-0.3-0.8-0.5-1.2-0.7
				c0-0.3,0.1-0.6,0.1-0.9c0.4-2.8,0.6-5.7,0.7-8.6c0-0.8,0-1.6,0-2.4l0.4,0.2c0.1,1,0.1,2,0.1,3.1
				C239.9,196.9,239.9,199.1,239.8,201.3L239.8,201.3z M270,182.6c0.2,2.1,0.5,4.2,0.7,6.3c-1.8-0.7-3.7-1-5.6-0.7
				c-2.3,0.3-4.4,1.4-6.8,2.3c-1.1,0.5-2.3,0.8-3.5,1.1c-0.8,0.2-1.6,0.3-2.4,0.4c-0.6,0.1-1.3,0.1-1.9,0.1l0.1-0.1
				c0.6-0.7,1.4-1.4,2.1-2.1s1.5-1.4,2.3-2c1.1-1,2.1-2.1,3.2-3.1c0.5-0.5,1.2-0.9,1.9-1.2c1.8-0.7,3.7-1.1,5.7-1.1
				C267.2,182.4,268.6,182.4,270,182.6z M249.2,179c1-0.7,2.1-1.3,3.2-1.9c1.7-0.9,3.4-1.5,5.2-1.9c1.2-0.3,2.5-0.5,3.8-0.7
				c2.6-0.3,5.1-0.4,7.7-0.2c0.2,1.8,0.5,3.5,0.7,5.3c-1.2-0.3-2.4-0.5-3.7-0.6c-2.4-0.2-4.8,0-7.1,0.6c-0.9,0.3-1.7,0.7-2.5,1.2
				c-1.4,1-2.6,2.4-4,3.5c-1.2,1-2.3,2-3.3,3.2c-0.5,0.6-1,1.2-1.4,1.8v-0.1c-0.1-2.6-0.4-5.2-1.1-7.7l-0.1-0.6
				C247.3,180.3,248.2,179.6,249.2,179L249.2,179z M243,184.5c0.2-0.3,0.5-0.6,0.8-0.9c0,0.4,0,0.7,0,1.1c0,0.8,0,1.7-0.1,2.5
				C243.5,186.7,243.3,185.7,243,184.5z M241.7,242.1c-0.4,0-0.8,0.1-1.1,0.2c0.5-0.5,1-1.1,1.5-1.6c0.6-0.1,1.2-0.2,1.8-0.2h0.1
				C243.1,240.9,242.3,241.4,241.7,242.1L241.7,242.1z M244,238.3c0.2-0.3,0.4-0.6,0.6-0.8l0.1-0.1c0.3,0.4,0.6,0.8,0.9,1.2
				C245,238.4,244.5,238.3,244,238.3L244,238.3z M245.9,234.9c0.2-0.4,0.4-0.8,0.5-1.2c0,0.2,0,0.5,0,0.7c0,0.7,0.1,1.3,0.2,2
				c0,0,0,0.1,0,0.1C246.4,236,246.1,235.5,245.9,234.9L245.9,234.9z M245.6,219.5c-0.7-0.9-1.4-1.9-2.2-2.8c0.4-2.4,1-5,1.6-7.8
				c0.6-2.6,1.1-5.3,1.6-8.1c0.9,1.4,2,2.6,3.2,3.6c-2-2.9-2.5-5.4-2-7.7c0.1-0.5,0.3-1,0.5-1.4c1.4,0.4,2.8,0.7,4.3,0.8
				c1.2,0,2.4-0.1,3.6-0.4c1.7-0.4,3.3-1,4.9-1.8c1.2-0.6,2.3-1.2,3.4-1.6c1-0.4,2.1-0.7,3.2-0.7c1.2,0,2.3,0.2,3.4,0.7l0,0
				c0.2,2.2,0.4,4.4,0.6,6.7c0.4,5,0.8,10,1.1,15c0.3,5.6,0.6,11.2,0.8,16.7v0.1l-0.3-0.1l-0.3-0.1c-0.4-0.9-1-1.6-1.8-2.2
				c-0.9-0.7-2.1-1.1-3.2-1.2c-0.9-0.1-1.9-0.1-2.8,0.1l0,0c-0.7-1.2-1.7-2.2-3-2.8c-0.8-0.3-1.6-0.4-2.4-0.2
				c-0.6,0.1-1.3,0.3-1.9,0.6c-0.7,0.3-1.3,0.8-1.9,1.3c-0.7,0.6-1.3,1.2-1.9,2c-0.5,0.6-0.9,1.3-1.3,2c-0.6-1-1.2-1.9-1.8-2.9
				c0.6-0.7,1.5-1.1,2.4-1.1c-1-0.5-2.2-0.6-3.2-0.1c-0.9-1.3-1.8-2.7-2.7-4c0.2-0.3,0.4-0.6,0.6-1c0.6-0.9,1.2-1.7,1.9-2.4
				c2.1-2.1,4.7-3.2,7.5-1.7c-2.8-2.5-6-1.9-8.9,0C247.4,217.6,246.4,218.5,245.6,219.5L245.6,219.5z M262.3,231.7L262.3,231.7
				c0.4-0.2,0.7-0.4,1.1-0.6c0.8-0.4,1.5-0.7,2.4-1c1.5-0.6,3.2-0.6,4.8,0l-1,0C267,230,264.5,230.6,262.3,231.7L262.3,231.7
				L262.3,231.7z M261.9,228.2c-1.4,0.7-2.7,1.6-3.9,2.7c-0.9,0.8-1.7,1.7-2.4,2.6c-0.1,0.2-0.3,0.4-0.4,0.7l-0.6-1
				c0.3-0.5,0.7-1.1,1-1.6c0.6-1,1.2-1.8,1.8-2.6c0.6-0.8,1.2-1.6,2-2.2c1.5-1.1,3.2-1.1,5.3,0.5
				C263.7,227.4,262.8,227.8,261.9,228.2L261.9,228.2z M253.1,238.8c-0.1,0.3-0.1,0.5-0.2,0.8c-0.4-0.2-0.9-0.4-1.4-0.5
				c0.2-0.5,0.5-1.1,0.8-1.7L253.1,238.8z M250.7,234.7c-0.5,1.4-0.8,2.9-1.1,4.4l-0.2,0c0-0.8,0-1.8,0-3c0-0.9,0.1-1.9,0.2-2.8
				c0-0.1,0-0.3,0-0.5C250,233.6,250.4,234.2,250.7,234.7L250.7,234.7z M247,246.7c0.5-2,1.8-3.7,3.6-4.6c0.2-0.1,0.3-0.2,0.4-0.4
				h0.4c0.2,0,0.4,0,0.6-0.1c0.3,0.2,0.6,0.4,0.9,0.6C250.5,242.9,248.4,244.5,247,246.7z M249.9,252.4c-0.5,1.6-0.8,3.3-0.9,5
				c-0.1,1.6-0.1,3.2-0.2,4.8c0,1,0,2-0.1,3c-0.1,0.8-0.2,1.6-0.4,2.4c0-0.2,0-0.4-0.1-0.5c-0.2-1.9-0.4-3.9-0.5-5.9
				c-0.1-1.3-0.1-2.6-0.1-3.9s0-2.5,0.1-3.8c0.1-1.6,0.5-3.2,1.1-4.8c0.9-2.3,2.6-4.1,4.9-5.1c0.1,0,0.3-0.1,0.4-0.3
				c0.6,0.6,1.2,1.3,1.7,2C253,246.8,250.9,249.4,249.9,252.4L249.9,252.4z M252.4,254.8c0.1-1.3,0.5-2.6,1-3.8c0.8-1.6,2-3,3.5-4
				l0.5,0.8c0.2,0.3,0.3,0.6,0.5,0.9C255.5,250.2,253.6,252.2,252.4,254.8L252.4,254.8z M257.3,238.1l-0.7-1.4
				c1-1.3,2.2-2.4,3.5-3.4c0.2-0.1,0.4-0.3,0.6-0.4C258.9,234.2,257.7,236,257.3,238.1L257.3,238.1z M259.8,243.1
				c-0.3-0.7-0.6-1.3-1-2v0c-0.1-3.4,1.9-5.5,4.7-6.7c1.9-0.7,3.9-1.1,5.9-1c1,0,2,0.1,3.1,0.2l0.7,0.1c0.2,0.4,0.3,0.8,0.4,1.2
				c0-0.4,0-0.8,0-1.2l0,0v0.2l0.1,4.6v0.2c-2-0.3-4.1-0.3-6.1,0C264.3,239.3,261.2,240.8,259.8,243.1L259.8,243.1z M272.9,280.4
				c-2.5-10.6-5.9-21-10.2-31c-0.6-1.5-1.3-2.9-2-4.4c0.8-1.8,3-2.7,5.4-3.2c2.2-0.4,4.4-0.4,6.6,0c0.4,0.1,0.7,0.1,1.1,0.2v0.1
				c0.2,6.4,0.3,12.8,0.3,19.3c0.1,5.9,0.1,11.9,0,17.8l0.2,6.7C274,286.4,273.4,280.3,272.9,280.4L272.9,280.4z"/>
			<path class="st10" d="M2,0.1c-0.7,0-1.3-0.1-2,0l0,0v2.1l0.7-0.6C1.2,1,1.5,0.6,2,0.1z M114.9,3.4c0.8,0.2,1.6,0.5,2.4,0.8
				c0.8,0.4,1.6,0.8,2.4,1.2c1.3,0.7,2.5,1.5,3.7,2.2s2.6,1.6,3.8,2.3c-0.9-1.1-1.7-2.3-2.7-3.5c-1-1.2-2-2.3-3.1-3.3
				c-0.8-0.7-1.6-1.3-2.5-1.9c-0.9-0.6-2-1-3-1.4c-1.6-0.4-3.3-0.6-5-0.6c-3.6,0.1-7.7,0.9-10.6,1.1c-5,0.5-10,1.2-15,2.1
				c5-1.1,10.2-1.9,15.2-2.8c3.6-0.5,7.1-0.8,10.7-0.9c2.2,0,4.4,0,6.4,0.2c1.3,0.1,2.7,0.3,4,0.6c0.8,0.2,1.6,0.5,2.4,0.8
				c0.6,0.3,1.1,0.6,1.7,0.9c1.4,0.7,2.7,1.5,4,2.2c-1.2-1.3-2.4-2.8-3.8-4.1c-1-0.9-2-1.7-3.2-2.3c-1.2-0.6-2.4-1-3.7-1.2
				c-1.8-0.4-3.7-0.6-5.5-0.7c-4.6-0.2-9.1,0-13.7,0.6c-3.4,0.5-6.7,1.1-10.1,1.7C92-3.3,94.2-4,96.2-4.7c3.4-1.3,6.9-2.5,10.4-3.4
				c2.2-0.6,4.5-0.9,6.8-0.8c1.1,0.1,2.1,0.2,3.1,0.6c0.5,0.1,0.9,0.3,1.4,0.4c1,0.3,1.9,0.8,2.8,1.2c1.5,0.7,2.9,1.3,4.4,1.8
				c-1.1-1-2.2-2.1-3.5-3.2c-0.8-0.7-1.7-1.4-2.5-2c-1.1-0.8-2.3-1.4-3.5-1.8c-0.6-0.2-1.2-0.3-1.8-0.4c-2.7-0.3-5.4-0.1-8,0.5
				c-3.7,0.9-7.3,2-10.8,3.4c-5.3,1.8-11.8,4.1-18,6.7l0,0c3.1-2.2,8.4-5.9,13.6-8.9c3.5-2,6.8-3.7,9.3-4.1c0.7-0.1,1.5-0.2,2.2-0.2
				c0.9,0,1.9,0,2.9,0h3c1.5,0,2.8,0,4.1-0.1c-1.1-0.4-2.3-1-3.6-1.5c-1.2-0.5-2.4-0.9-3.7-1.3c-0.7-0.2-1.4-0.3-2.1-0.4
				c-1.1-0.2-2.3-0.2-3.4-0.1c-2.9,0.3-6.8,2-10.8,4.2c-5.3,2.9-10.8,6.8-14,9L74.3-5c1.7-2.4,3.5-4.9,5.1-7.4
				c0.8-1.3,1.6-2.7,2.4-4c0.6-1.1,1.2-2.2,1.7-3.3c0.4-0.9,0.5-1.8,0.5-2.8c0-0.7-0.2-1.4-0.5-2c-0.5-0.8-1.2-1.5-2-1.9
				c0.4,0.9,0.4,1.8,0.2,2.7c-0.1,0.3-0.3,0.7-0.5,1c-0.2,0.3-0.4,0.7-0.6,1c-0.2,0.3-0.4,0.6-0.6,0.9c-0.5,0.8-1,1.6-1.6,2.4
				c-1.1,1.8-2.3,3.5-3.5,5.2l-0.5,0.7c0.5-2.2,1-4.4,1.4-6.5c0.2-1.5,0.7-3.1,0.9-4.5c0-0.5,0-0.9,0-1.4c0-0.8-0.1-1.7-0.5-2.4
				c-0.6-1.1-1.7-1.8-2.9-1.8c-0.9,0-1.9,0.1-2.7,0.5c0.7,0.2,1.3,0.5,1.9,0.8c0.5,0.2,0.9,0.6,1.1,1.1c0.1,0.2,0,0.3,0.1,0.5
				c0,0.3,0,0.7-0.1,1c0,0.4-0.2,0.8-0.3,1.2c-0.3,1.4-0.8,2.9-1.2,4.3c-0.7,3.2-1.5,6.7-2.6,10c1-5.8,1-11.7-0.2-16.2
				c-0.3-1.1-0.8-2.1-1.5-3c-0.6-0.9-1.3-1.7-2-2.4c-0.8-0.7-1.6-1.4-2.5-2c-0.9-0.6-1.8-1-2.8-1.3c0.6,0.7,1.1,1.5,1.6,2.3
				c0.3,0.5,0.6,1,0.9,1.6c0.5,0.8,0.8,1.6,1.2,2.4c0.6,1,1.1,2.2,1.4,3.3c0.4,1.9,0.6,3.8,0.6,5.7c0,3-0.3,5.9-0.8,8.9
				c-0.1,0.7-0.2,1.3-0.4,2c-0.2-1.9-0.5-3.9-0.7-6c-0.3-2.5-0.5-4.5-0.8-6.3c-0.3-1.5-0.8-3-1.6-4.4c-0.3-0.5-0.7-1-1.2-1.5
				c-0.7-0.7-1.4-1.2-2.2-1.7c-0.9-0.5-1.8-0.8-2.7-1.1c0.6,0.8,1,1.5,1.4,2.3c0.4,0.7,0.8,1.4,1.1,2.2c0.2,0.4,0.3,0.8,0.5,1.1
				c0.2,0.6,0.4,1.1,0.5,1.7c0.6,2.7,0.9,5.4,1,8.2c0.3,2.7,0.6,5.3,0.8,7.8c-0.5-1.3-1.2-2.6-1.9-3.8c-1.2-2-2.5-3.9-4.1-5.6
				c-0.7-0.7-1.4-1.4-2.2-2.1c-0.3-0.2-0.6-0.4-0.9-0.6c-0.5-0.3-0.9-0.6-1.4-0.8c-0.6-0.3-1.3-0.5-1.9-0.7
				c-0.7-0.1-1.4-0.2-2.1-0.2c0.5,0.6,1,1.2,1.5,1.8c0.3,0.4,0.6,0.9,1,1.3s0.6,0.8,1,1.3c0.8,0.9,1.6,1.8,2.4,2.8
				c1.3,1.7,2.4,3.4,3.4,5.3c-0.9-0.7-1.8-1.3-2.7-1.8c-0.7-0.5-1.5-0.9-2.3-1.2c-0.3-0.1-0.6-0.2-0.9-0.3c-1-0.3-2.1-0.4-3.2-0.4
				c-0.6,0-1.2,0.1-1.8,0.3c0.6,0.4,1.1,0.8,1.6,1.3c0.4,0.3,0.7,0.6,1.1,1S48.6-8,49-7.7c0.8,0.6,1.7,1.2,2.6,1.9
				c2,1.5,3.9,3.1,5.7,4.9c0.6,0.6,1.1,1.2,1.6,1.8C59,1.8,59,2.7,58.9,3.5c-2.5-0.7-5.1-0.7-7.6,0c-2.3,0.6-4.5,1.5-6.5,2.7
				c-1.1,0.6-2.1,1.3-3.1,2.1C41.4,8.6,41.2,8.8,41,9c-0.3,0.3-0.5,0.6-0.8,0.9c-0.4,0.5-0.7,1-0.9,1.6c-0.2,0.6-0.4,1.1-0.5,1.7
				c-1.3,0.6-2.7,1.2-4,1.8c-3.1,1.4-6.2,2.9-9.2,4.2c-2.3,1-4.8,1.8-7.2,2.8c1.2-0.9,2.6-2,4-3c2.6-1.9,5.6-3.8,8.4-5.7
				c2-1.3,4-2.5,5.7-3.6c0.4-0.3,0.8-0.5,1.2-0.8L38.8,8l1.8-1.3c0.7-0.5,1.3-1,1.8-1.3c-0.8,0.1-1.5,0.3-2.2,0.5
				c-0.7,0.2-1.4,0.4-2.2,0.8c-0.3,0.1-0.6,0.2-0.9,0.4c-0.5,0.2-1,0.5-1.5,0.7c-1.8,0.9-3.8,2.1-5.8,3.4c-3,1.8-6,3.9-8.7,5.8
				c-1.7,1.2-3.3,2.4-4.7,3.6c0.9-1.8,1.9-3.5,2.9-5.1c1.7-2.6,3.6-5.2,5.5-7.8c1.3-1.8,2.7-3.4,4-5c0.3-0.4,0.6-0.7,0.8-1.1
				s0.5-0.8,0.8-1.1c0.4-0.6,0.8-1.2,1.1-1.8L31.8-2c0.5,0.3,0.9,0.6,1.4,0.8c-0.3-0.8-0.4-1.4-0.7-2.2c-0.3-0.7-0.5-1.5-0.9-2.2
				c-0.1-0.3-0.3-0.6-0.5-0.9c-0.3-0.4-0.6-0.9-0.9-1.3c-0.5-0.6-1.1-1.2-1.7-1.7c-3.4-2.7-7.2-4.8-11.2-6.3c-1.3-0.5-2.6-0.9-4-1.2
				c2.5,0.1,4.9,0.5,7.4,1c2.4,0.6,4.7,1.3,6.9,2.3c1,0.4,1.9,0.9,2.8,1.4l1,0.5c0.5,0.2,1,0.5,1.5,0.7l2,0.9c0.7,0.4,1.3,0.6,2.1,1
				c-0.3-0.8-0.7-1.5-1.1-2.2c-0.5-0.8-1-1.5-1.6-2.1c-0.2-0.3-0.5-0.5-0.8-0.8c-0.5-0.4-0.9-0.8-1.5-1.2c-2.1-1.4-4.3-2.5-6.7-3.3
				c-3.5-1.2-7.2-2-10.9-2.3c4.3-1.2,8.8-1.7,13.3-1.6c1.1,0,2.1,0.1,3.1,0.2l1.1,0.1c0.6,0,1.1,0,1.7,0.1c0.8,0,1.4,0.1,2.2,0.1
				s1.5,0.1,2.3,0.2C37-23.2,35.6-24.2,34-25c-0.3-0.2-0.7-0.3-1-0.4c-0.6-0.2-1.2-0.4-1.8-0.5c-2.4-0.5-4.9-0.7-7.4-0.6
				c-3.1,0.1-6.1,0.5-9.1,1.2h-0.1c2.6-1.3,5.3-2.3,8-3.2c2.1-0.7,4.3-1.2,6.4-1.8c0.5-0.1,0.9-0.3,1.4-0.4s0.9-0.3,1.4-0.5
				c0.7-0.3,1.4-0.6,2-0.9s1.3-0.7,2-1.1c-0.9-0.2-1.6-0.4-2.6-0.5c-0.8-0.1-1.5-0.2-2.3-0.2c-0.5,0-1,0-1.5,0.1
				c-1.5,0.2-2.9,0.4-4.4,0.7c-2.6,0.6-5.2,1.3-7.7,2.2c0.1-0.1,0.2-0.3,0.3-0.4c1.7-2.3,3.4-4.6,5.1-6.7c0.8-1,1.5-1.9,2.3-2.8
				c0.3-0.3,0.5-0.7,0.8-1c0.4-0.5,0.8-1,1.1-1.5c0.5-0.7,1-1.3,1.5-1.9c0.5-0.7,1-1.3,1.6-1.9c-0.9,0.1-1.7,0.4-2.5,0.7
				c-1.2,0.5-2.3,1.1-3.3,1.9c-0.7,0.5-1.4,1-2,1.6c-0.9,0.8-1.7,1.8-2.6,2.7c-2.5,2.9-4.9,6-7.2,9.1L10.8-29c0.5-1.4,0.8-2.7,1-3.6
				c0.8-4.2,1.1-8.4,1-12.6c0-1.2-0.1-2.5-0.2-3.7c-0.1-0.8-0.2-1.6-0.3-2.4c-0.2-1-0.4-2-0.6-3s-0.5-2-0.8-3.1
				c-0.4,1-0.7,1.9-1,2.9s-0.4,1.8-0.6,2.7c-0.1,0.6-0.2,1.2-0.2,1.8S9-49.1,9-48.6c0,1.2,0,2.4,0,3.6c-0.1,2.5-0.1,5-0.4,7.5
				c-0.1-3.5-0.6-7-1.7-10.3c-0.4-1.2-0.8-2.4-1.2-3.5c-0.3-0.8-0.7-1.5-1.1-2.2c-0.5-0.9-1-1.8-1.6-2.6C2.3-57,1.6-57.8,1-58.7
				c0.1,1,0.1,1.8,0.2,2.8S1.4-54,1.6-53c0.1,0.4,0.1,0.8,0.2,1.2c0.1,0.7,0.3,1.3,0.5,1.9c0.7,2.5,1.3,5,1.8,7.6
				c0.3,1.7,0.4,3.3,0.3,5c-0.9-2.3-1.9-4.5-3.1-6.6c-0.4-0.8-0.9-1.6-1.4-2.3v43.2C0.2-3,0.4-3.2,0.6-3.3c0.4-0.3,0.7-0.6,1-0.9
				C1.8-4.5,2-4.8,2.2-5.1c0.2-0.5,0.4-1,0.5-1.4C3-7.8,3.2-9.1,3.3-10.4c0,0.1,0.1,0.2,0.2,0.2S3.5-10,3.6-9.9
				c1.9,5.2,2.9,10.7,3,16.3c0.1,3.8-0.1,7.7-0.5,11.5c-2-0.3-4.1-0.4-6.1-0.5v4.1l0,0v4.2h0.4L0,25.9v4.7l0.1-0.1L0,30.7v5.6
				c0.6-0.6,1.3-1.2,1.9-1.8s1.3-1.1,1.9-1.6c-0.2,0.7-0.3,1.4-0.4,2.1C2.2,37,1,39.2,0,41.5v59.1c0.8-3.8,1.3-7.7,1.5-11.6
				c0.1,1.7,0.4,3.4,0.6,5.1s0.3,3.4,0.4,5c0,0.4,0.1,0.7,0.1,1s0.1,0.7,0.2,1.1c0.1,0.6,0.2,1.1,0.3,1.6s0.2,1.1,0.3,1.8
				c0.4-0.4,0.8-0.9,1.2-1.4c0.3-0.5,0.6-1,0.8-1.5c0.2-0.4,0.3-0.9,0.4-1.3C6,100.1,6,99.8,6,99.5c0.1-1.5,0.2-3,0.1-4.4
				c-0.1-2.2-0.4-4.3-0.5-6.3c-0.2-1.7-0.2-3.3-0.1-5c0-0.6,0.1-1.2,0.3-1.8c0.2,0,0.4-0.1,0.6-0.2c1.8,2.5,3.1,5.3,3.8,8.3
				c0.4,1.6,0.6,3.3,0.6,4.9c0,0.7,0,1.4-0.1,2.1c0,0.3,0,0.5,0,0.8c0,0.4,0,0.8,0.1,1.2s0.1,1,0.1,1.6c0,0.2,0,0.4,0.1,0.6
				c-1.1,1.5-2.2,3-3.4,4.5c-2.5,3.1-5,6.2-7.5,9.3v6.4c3.6-4.3,7.2-8.7,10.7-13.1c4.8-5.9,8.6-12.4,12.5-18.8
				c-0.1,0.5-0.2,0.9-0.3,1.4c-0.1,0.7-0.3,1.3-0.4,2.1s-0.1,1.4-0.2,2.1c0.6-0.6,1.1-1,1.7-1.6c0.5-0.6,1.1-1.2,1.5-1.8
				c0.2-0.3,0.4-0.5,0.6-0.8c0.3-0.5,0.6-0.9,0.9-1.4c1.1-1.9,2-3.9,2.8-5.9c1.2-2.7,2.2-5.4,3.2-8.2l0.4-0.5c0,0.3,0,0.6,0.1,0.9
				c0.2,3.4,0.3,7.1,0.2,10.7c0,2.5-0.1,5-0.2,7.2c0,0.5,0,1,0,1.5s0,1,0.1,1.5c0.1,0.9,0.1,1.6,0.2,2.3c0.1,1,0.2,1.7,0.2,2.4
				c0.5-0.7,1-1.4,1.3-2.2c0.4-0.8,0.7-1.6,1-2.4c0.1-0.3,0.2-0.7,0.3-1.1c0.1-0.6,0.3-1.2,0.4-1.8c0.3-2.4,0.5-4.8,0.6-7.2
				c0.1-2.2,0.1-4.5,0.1-6.7c0.5,2.7,0.9,5.4,1.3,8c0.2,1.5,0.3,2.9,0.5,4.3c0.1,0.5,0.2,1,0.3,1.5c0.2,0.8,0.4,1.5,0.5,2.2
				c0.2,0.9,0.5,1.7,0.7,2.6c0.3-0.7,0.6-1.4,0.9-2.1c0.4-1.1,0.6-2.1,0.8-3.2c0.1-0.7,0.1-1.4,0.1-2.1c0-1.1,0-2.1-0.1-3.2
				c-0.2-3.1-0.6-6.1-1.2-9.1v0.1c1,2.4,2,4.8,2.9,7.3c0.4,1.1,0.7,2.1,1.1,3.2c0.1,0.4,0.3,0.8,0.4,1.1c0.2,0.6,0.5,1.1,0.7,1.7
				s0.6,1.4,1,2.1s0.7,1.4,1,2.1c0.2-0.8,0.3-1.6,0.4-2.4c0.1-1.2,0.2-2.4,0.1-3.6c-0.1-0.8-0.2-1.6-0.3-2.4
				c-0.2-1.2-0.5-2.3-0.9-3.4c-0.5-1.6-1-3.1-1.6-4.6c0.1,0.1,0.1,0.1,0.2,0.2c1.5,1.7,3,3.4,4.5,5s3.1,3.2,4.7,4.8
				c0.4,0.4,0.8,0.8,1.3,1.2s0.9,0.8,1.4,1.1c0.7,0.6,1.4,1.1,2.2,1.6s1.5,1,2.3,1.6c-0.4-0.9-0.7-1.7-1.1-2.6s-0.9-1.7-1.4-2.5
				c-0.2-0.4-0.4-0.7-0.7-1c-0.4-0.5-0.7-1-1.1-1.5c-0.6-0.7-1.2-1.4-1.8-2.1c-2.4-2.7-4.8-5.3-7.1-8.1c-0.3-0.4-0.7-0.8-1-1.2
				c2,1.4,4,2.7,6.1,3.9c2.9,1.7,5.9,3.3,9,4.7c1.3,0.6,2.6,1.2,4,1.7c0.5,0.2,1,0.4,1.4,0.5c0.8,0.2,1.5,0.4,2.2,0.6
				c1,0.2,1.9,0.4,2.9,0.5s1.9,0.2,2.9,0.3c-1-0.7-1.9-1.4-2.9-2s-1.7-1.1-2.6-1.7c-0.6-0.4-1.2-0.7-1.8-1c-1.7-0.9-3.5-1.8-5.2-2.7
				c-4-2.1-8-4.4-11.8-6.9c-2.1-1.4-4.1-2.8-6-4.3c3.8,1.7,7.7,3.2,11.4,4.8c4.6,2,9.2,4.2,13.8,6.1c2,0.8,4,1.6,6.1,2.2
				c0.7,0.2,1.4,0.4,2.2,0.6c1.1,0.2,2.2,0.4,3.3,0.6s2.5,0.2,3.8,0.3c-1.1-0.6-2.1-1.2-3.3-1.9s-1.9-1.1-2.9-1.6
				c-0.7-0.3-1.3-0.7-2-1l-1.7-0.8l-4.1-1.8c-3.6-1.6-7.1-3.3-10.7-5c3.3,0.7,6.7,1.2,10.1,1.7c1.6,0.2,3.1,0.4,4.6,0.6
				c0.6,0.1,1.1,0.1,1.7,0.1c0.8,0.1,1.7,0.1,2.5,0.1c1.1,0,2.1,0,3.2-0.1s2.1-0.2,3.2-0.3c-1.1-0.4-2-0.9-3.1-1.3s-2.1-0.7-3.1-1.1
				l-0.8-0.2c0.6,0.1,1.2,0.2,1.8,0.2c1.3,0.1,2.6,0.2,3.8,0.2c1.5,0,2.8,0,4.3-0.1c-1.4-0.5-2.6-1.1-4-1.6
				c-1.2-0.5-2.3-0.9-3.6-1.4c-0.8-0.3-1.6-0.6-2.4-0.8c-2-0.6-4-1.2-6.1-1.7c-3.1-0.8-6.2-1.6-9.3-2.2l-1.6-0.3
				c2.2,0.1,4.4,0.2,6.6,0.4c3,0.2,6,0.4,9,0.6c1.2,0.1,2.4,0.1,3.7,0.2c0.8,0,1.6,0,2.4,0s1.6-0.1,2.5-0.2c1.2-0.1,2.4-0.3,3.7-0.5
				s2.7-0.6,4-1c-1.4-0.2-2.7-0.4-4-0.6c-1.2-0.2-2.4-0.4-3.6-0.6c-0.8-0.1-1.6-0.2-2.4-0.4s-1.6-0.2-2.4-0.3
				c-1.2-0.1-2.4-0.2-3.6-0.4l-2.9-0.3c1.5-0.3,2.9-0.8,4.3-1.4c1-0.4,1.9-1,2.8-1.6c1.1-0.7,2.1-1.7,3-2.7c0.8-1,1.5-2.2,1.9-3.5
				c-0.8,0.7-1.7,1.3-2.6,1.8c-0.9,0.5-1.9,0.9-2.9,1.3l-1.3,0.5c-0.7,0.2-1.4,0.4-2.1,0.7c-2,0.6-4.1,1.1-6.2,1.4
				c1.8-0.6,3.5-1.4,5.1-2.4c0.7-0.4,1.4-0.9,2-1.5c0.4-0.3,0.7-0.6,1.1-1c0.8-0.9,1.5-1.9,2-2.9c0.5-1,0.7-2.1,0.8-3.2
				c-0.6,0.8-1.3,1.6-2.1,2.2c-0.8,0.6-1.6,1.2-2.5,1.7c-0.4,0.2-0.7,0.4-1.1,0.6c-0.6,0.3-1.2,0.6-1.9,0.9
				c-2.6,1.2-5.4,2.2-8.2,2.9c-3.6,0.8-7.3,1.4-11,1.7c-1.4,0.1-2.8,0.2-4.2,0.2c4.2-1.2,8.3-2.8,12.2-4.8c2.7-1.3,5.2-3,7.5-4.9
				c0.6-0.5,1.1-1.1,1.6-1.7c0.3-0.4,0.6-0.7,0.8-1.1c0.6-0.9,1.1-1.9,1.4-3c0.3-1,0.4-2,0.4-3.1c-0.4,0.8-1,1.5-1.6,2.1
				c-0.6,0.6-1.2,1.2-1.9,1.7c-0.5,0.4-1.1,0.8-1.6,1.2L72,44.7c-1,0.7-2,1.4-3.2,2.1c-2.6,1.5-5.3,2.9-8.1,4
				c-0.9,0.4-1.8,0.7-2.7,1c1.9-1.2,3.7-2.5,5.3-4.1c0.2-0.2,0.4-0.4,0.6-0.6c0.5,0.3,0.9,0.6,1.3,1c-0.3-0.4-0.7-0.9-1-1.3
				c1.6-1.6,3-3.5,4-5.6c0.3-0.6,0.5-1.3,0.7-1.9c0.1-0.4,0.2-0.8,0.3-1.2c0.2-0.9,0.2-1.9,0.2-2.8c-0.1-0.9-0.2-1.8-0.4-2.6
				c-0.3,0.9-0.7,1.5-1.1,2.3c-0.6,1.1-1.2,2.1-1.8,3.1l-0.9,1.5c-1,1.6-2.3,3.1-3.7,4.5c-0.7-0.6-1.4-1.2-2.2-1.8
				c-1-0.8-2.1-1.4-3.2-2.1c-0.4-0.2-0.8-0.5-1.2-0.7c0.2-0.6,0.5-1.1,0.7-1.6c0.4-1,0.8-2.1,1.1-3.2c0.1-0.4,0.2-0.8,0.3-1.1v-0.1
				c1,0.3,1.9,0.6,2.8,1c-0.7-0.7-1.4-1.3-2.2-1.8l-0.4-0.3c0-0.2,0.1-0.4,0.1-0.6c0.1-0.8,0.1-1.5,0.2-2.3c0-0.8,0-1.5-0.1-2.3
				c-0.5,0.8-1.1,1.4-1.6,2.2c-0.4,0.6-0.8,1.1-1.1,1.7L54.4,31c-0.5-0.2-1.1-0.4-1.7-0.6c-1.1-0.4-2.2-0.7-3.3-1
				c-1.8-0.5-3.8-1.1-6-1.7c1.1-1.4,2.1-2.7,3.3-4c1.1,0,2.2,0,3.3,0h1.6l1.9,0.1c1,0,1.9,0,2.9,0.1s2.1,0.1,3.2,0.2
				c-1-0.5-2-0.9-3-1.2c-1-0.3-2.1-0.6-3.2-0.8c-1.1-0.2-2.1-0.4-3.2-0.5c-0.5,0-1-0.1-1.5-0.1c0.1-0.1,0.2-0.2,0.3-0.3
				c0.8-0.8,1.5-1.6,2.3-2.4l1.6-0.1c1.1-0.1,2.1-0.1,3.2,0c-0.8-0.4-1.7-0.7-2.5-0.9l-1-0.2c2.4-2.2,5-4.2,7.7-5.9h0.3
				c0.2,0.1,0.5,0.1,0.8,0.1c1.2,0.6,2.1,1.7,2.6,3c0.6,1.8,1,3.7,1,5.6c0.1,0.9,0.1,1.8,0.2,2.6c0,0.3,0.1,0.6,0.2,0.9
				c0.1,0.5,0.3,1,0.5,1.4c0.2,0.7,0.5,1.1,0.7,1.6c0.4-0.5,0.7-0.9,1-1.5c0.3-0.4,0.5-0.9,0.7-1.4c0.1-0.3,0.2-0.6,0.3-0.9
				c0.1-0.2,0.1-0.5,0.1-0.8c0.1-1,0.2-2.1,0.2-3.1c0-2-0.4-4.1-1.1-6c0-0.1-0.1-0.2-0.1-0.3c2.3,0.8,4.5,1.8,6.7,2.9
				c5,2.6,9.6,6,12,9.2c0.6,0.8,1.1,1.6,1.6,2.5c0.5,0.9,0.9,1.8,1.4,2.8s1,1.9,1.4,2.8c0.4,0.9,1,1.9,1.6,2.9
				c0.6,1.1,1.2,2,1.6,2.9c0.1-1.1,0.1-2.3,0-3.4c-0.1-1-0.2-2-0.4-3c-0.1-0.7-0.3-1.3-0.4-2c-0.2-0.8-0.5-1.6-0.8-2.4
				c-0.7-1.9-1.6-3.7-2.7-5.4c-1.8-2.3-4-4.4-6.3-6.1c1.2,0.5,2.5,1.1,3.7,1.7c2.8,1.4,5.5,3,8.1,4.8c1.1,0.8,2.2,1.6,3.2,2.4
				l1.1,0.9c0.6,0.4,1.2,0.8,1.7,1.3c0.8,0.6,1.4,1.1,2.1,1.7c0.7,0.6,1.4,1.2,2,1.9c-0.2-1-0.5-2-0.9-3c-0.4-1-1-2-1.6-2.9
				c-0.3-0.4-0.5-0.8-0.8-1.1c-0.5-0.6-1-1.2-1.6-1.7c-2.3-2.1-4.7-3.9-7.4-5.5c-2.5-1.5-5.1-2.9-7.8-4.1c2.4,0.5,4.8,1.1,7.1,1.8
				c4.8,1.4,9.5,3,14.1,5.1c1.2,0.5,2.5,1.1,3.8,1.6c0.8,0.3,1.5,0.6,2.2,0.9c0.5,0.2,1,0.4,1.5,0.6c0.7,0.3,1.3,0.7,1.9,1
				c1,0.6,1.9,1.2,2.7,2c-0.4-1.2-1-2.3-1.8-3.2c-0.8-1-1.7-1.9-2.6-2.7c-0.8-0.6-1.6-1.2-2.4-1.7c-1.2-0.8-2.6-1.4-3.8-2
				c-4.2-2-8.6-3.8-13.1-5.2c3.9,0.8,7.7,1.8,11.4,2.8c2.3,0.7,4.5,1.4,6.6,2.2c0.8,0.3,1.5,0.5,2.3,0.7l3.5,1
				c1.4,0.4,2.7,0.7,3.9,1.2c-0.8-0.8-1.6-1.6-2.6-2.3c-0.9-0.7-1.9-1.4-2.8-2c-0.8-0.5-1.6-1-2.4-1.4c-0.5-0.3-1.1-0.5-1.7-0.8
				c-1.5-0.7-3.2-1.3-4.8-1.9c-3.8-1.3-7.7-2.4-11.6-3.3h-0.2c3.6,0.1,7.1,0.5,10.5,1.3c2.6,0.7,5.1,1.6,7.4,2.9c1,0.5,2,1,3.1,1.6
				c1.3,0.7,2.7,1.5,4.2,2.3c0.9,0.6,1.8,1,2.8,1.7c-0.7-1.2-1.5-2.3-2.4-3.4c-0.9-1.1-1.8-2.1-2.9-3c-0.8-0.8-1.7-1.4-2.7-2.1
				c-1.4-0.9-2.9-1.7-4.5-2.4c-2.6-1.1-5.3-1.9-8.1-2.3c1.8-0.3,3.9-0.6,5.8-0.8C111.4,3.1,113.1,3.1,114.9,3.4z M3.2,63.4
				c-0.2,1.7-0.4,3.4-0.7,4.8c0-0.2-0.1-0.5-0.2-0.7c-0.4-1.5-0.8-3-1.4-4.4c0.9-3.6,1.8-7.2,2.6-10.7c0,1,0,2.1,0,3.2
				C3.5,58,3.4,60.8,3.2,63.4L3.2,63.4z M65.2,68.9c2,0.3,3.9,0.8,5.9,1.2l-3.2-0.6c-1.2-0.2-2.4-0.5-3.7-0.8L65.2,68.9z M18.2,39.4
				c1.7,3.2,3.2,6.5,4.6,9.9c-1.6,2.3-3.2,4.5-4.7,6.7c-0.3-1.4-0.5-2.8-0.7-4.2c-0.6-4.3-1.1-8.6-1.6-12.9
				c-0.2-1.5-0.4-3.1-0.5-4.6C16.2,36,17.2,37.7,18.2,39.4L18.2,39.4z M24.5,53.9c0.2,0.5,0.4,1.1,0.6,1.6c0.5,1.3,0.9,2.6,1.4,3.9
				L25,59.9c-1.5,0.5-3,0.8-4.5,0.8h-0.8C21.2,58.5,22.8,56.2,24.5,53.9L24.5,53.9z M23.5,40.8c0.8,0.9,1.6,1.8,2.4,2.7l0.1,0.2
				c0.1,0.2,0.2,0.5,0.3,0.7c-0.2,0.3-0.5,0.7-0.7,1C24.9,44,24.2,42.4,23.5,40.8L23.5,40.8z M15,58.7l0.2,0.5
				c0.1,0.2,0.1,0.3,0.2,0.5c-0.5,0.8-1.1,1.5-1.6,2.3C14.3,60.9,14.7,59.8,15,58.7z M14.1,13.7c0-0.2,0-0.5,0.1-0.7
				c0.2-2.9,0.6-6,0.9-9.1c0.3-2.1,0.6-4.2,0.9-6C16-2.5,16-2.9,16.1-3.3s0.1-0.9,0.1-1.3c0-0.6,0.1-1.1,0.1-1.6
				c1.2,1,2.3,2.2,3.4,3.4l0.8,1c-1,1.7-1.9,3.6-2.7,5.5C16.4,6.9,15.2,10.3,14.1,13.7L14.1,13.7z M20.9,8.5
				c-1.7,2.3-3.4,4.7-4.8,6.9c0.5-1.5,1-3.1,1.5-4.7c1.1-3.1,2.4-6.1,3.7-9c0.3-0.6,0.5-1.2,0.8-1.8l0.1,0.1
				c0.4,0.4,0.7,0.8,1.1,1.1l1.4,1.5l0.5,0.5C23.8,4.9,22.3,6.7,20.9,8.5L20.9,8.5z M26.2-6.6c0.7,0.6,1.5,1.2,2.1,1.8
				c0.4,0.3,0.8,0.7,1.2,1s0.8,0.7,1.3,1l0.5,0.3l-0.4,0.3c-0.5,0.4-1,0.8-1.6,1.2S28.4-0.2,28,0.1s-0.5,0.5-0.8,0.8
				c-0.4,0.4-0.8,0.9-1.2,1.3c0-0.1,0-0.2,0-0.4c-0.1-0.8-0.3-1.5-0.6-2.3c-0.1-0.3-0.2-0.6-0.4-0.9c-0.2-0.5-0.5-1-0.8-1.5
				c-0.2-0.3-0.4-0.6-0.6-0.9c0.2-0.5,0.4-1.1,0.6-1.6c0.2-0.7,0.5-1.4,0.7-2C25.4-7.1,25.8-6.8,26.2-6.6L26.2-6.6z M16-11.9
				c3.2,1.1,6.2,2.6,9,4.4c-0.4,0.4-0.9,0.9-1.3,1.3c-0.3,0.3-0.5,0.6-0.8,1c-0.8-1.1-1.7-2.1-2.6-3c-1.4-1.4-3-2.7-4.6-3.9L16-11.9
				z M15-7.3l0.5,0.4l-0.1,0.1c-0.3,0.6-0.6,1.2-0.9,2c-0.1,0.3-0.2,0.6-0.3,0.9c-0.1,0.5-0.3,1-0.4,1.5c-0.4,1.8-0.8,3.8-1.1,6
				c-0.5,3.1-0.8,6.4-1.1,9.4c-0.2,2.3-0.3,4.4-0.2,6.2l-1.2-0.4c0.5-4.1,0.6-8.3,0.5-12.4C10.6,3.7,10.4,1,10-1.6
				c0-0.1,0-0.2,0-0.3c0-0.2,0.1-0.4,0.1-0.7c0-0.4,0-0.8,0-1.1C9.9-5.2,9.5-6.6,9-8c-0.5-1.3-1.1-2.6-1.8-3.8l-0.1-0.1l-0.1-0.2
				C9.9-10.8,12.6-9.2,15-7.3z M7.2,36.4c0.9-1.7,1.9-3.3,2.9-4.9c-1,2.2-2.1,4.4-3.3,6.6C7,37.5,7.1,36.9,7.2,36.4z M7,66.5
				c0.4-2.8,0.6-5.6,0.5-8.4c0-1.9-0.1-3.7-0.4-5.5c-0.1-0.5-0.2-0.9-0.4-1.4c-0.1-0.3-0.2-0.6-0.3-0.8c-0.2-0.6-0.5-1.1-0.9-1.6
				c1.6-2.6,3.1-5.3,4.5-8c0.5-0.9,0.9-1.8,1.4-2.6c0.2,1.7,0.4,3.3,0.6,5c0.4,3.1,0.9,6.2,1.4,9.2v0.1l0,0
				c-0.2,0.4-0.4,0.8-0.6,1.2c-0.1,0.3-0.2,0.6-0.3,0.8c-0.3,0.8-0.6,1.6-0.9,2.3c-0.7,1.8-1.5,3.6-2.4,5.4
				C8.5,63.7,7.8,65.1,7,66.5z M14.6,96c0.1-1.3,0.2-2.6,0.1-3.9c-0.3-3.9-1.6-7.6-3.7-10.9c1.2,0.5,2.4,1.1,3.6,1.8
				c1.5,0.8,3,1.7,4.4,2.8c0.5,0.4,0.9,0.7,1.3,1C18.4,89.7,16.5,92.9,14.6,96L14.6,96z M24.9,74.9c-0.9,1.6-2,3.1-3,4.7
				c-0.3,0.4-0.5,0.8-0.7,1.2c-0.2,0.2-0.3,0.5-0.4,0.7s-0.2,0.3-0.3,0.5c-1.8-1.4-3.8-2.6-5.9-3.6c-1.5-0.7-3-1.4-4.6-2
				c0.9,0,1.7,0.1,2.6,0.2c0.9,0.1,1.9,0.3,2.7,0.5c0.2,0,0.4,0.1,0.6,0.1c0.2,0,0.4,0,0.7,0c0.4,0,0.7-0.1,1.1-0.1s0.7-0.2,1.2-0.2
				c-0.1-0.4-0.3-0.8-0.5-1.1c0-0.1-0.1-0.1-0.1-0.2l0,0c0.2,0,0.5,0,0.7-0.1c0.4-0.1,0.7-0.1,1.1-0.2c1.4-0.5,2.7-1.1,4-1.9
				c1-0.6,1.9-1.2,2.8-1.9C26.2,72.5,25.6,73.7,24.9,74.9L24.9,74.9z M25.3,67.3c-1.5,1.3-3.2,2.4-4.9,3.4c-0.8,0.4-1.5,0.9-2.2,1.3
				c-0.3,0.2-0.5,0.3-0.7,0.5c-0.4,0.3-0.7,0.6-1,0.9c-0.4-0.2-0.8-0.3-1.1-0.4c-1.1-0.4-2.3-0.6-3.4-0.8c1.9-2.8,3.7-5.5,5.7-8.3
				h0.1l0.1,0.1c0.3,0.5,0.5,0.9,0.8,1.4c0-0.4,0.1-0.8,0.1-1.2l0.7,0.1c0.9,0.1,1.8,0.2,2.8,0.1c1.5,0,2.9-0.3,4.3-0.7
				c0.6-0.2,1.2-0.4,1.7-0.6l0,0l0.4,0.9C27.5,65.2,26.4,66.3,25.3,67.3L25.3,67.3z M27.7,49.4l0.1-0.2l0.4-0.6l0.2,0.6
				c0.4,0.9,0.7,1.7,1,2.6C29,51,28.4,50.2,27.7,49.4L27.7,49.4z M29,40.8c-1.9-2.2-3.9-4.4-5.7-6.4l-0.6-0.6c2.2,1.5,4.4,3.2,6.4,5
				l0.8,0.7L29,40.8z M31.3,37.5L30.8,37l-0.5-0.4l1.2,0.7L31.3,37.5z M32.4,45c-0.2-0.3-0.5-0.6-0.8-1l1-1.3c0.1,0.3,0.2,0.7,0.2,1
				c0.2,0.8,0.3,1.6,0.4,2.3L32.4,45z M32.9,35.2c-1.4-0.8-2.8-1.5-4.2-2.3c-1.9-1-3.9-2.2-6-3.2c2.8,0.6,5.5,1.3,8.2,2.2
				c1.2,0.4,2.4,0.8,3.6,1.2L32.9,35.2z M28.8,25c4-0.4,8.2-0.9,12.5-1.1c-0.7,0.9-1.5,1.9-2.2,2.8C35.7,25.9,32.2,25.4,28.8,25z
				 M41.5,35.7c-0.1,0.6-0.2,1.1-0.4,1.7c-0.2,0.8-0.4,1.6-0.6,2.4l-1.9-1.2l-2.2-1.3c0.7-0.9,1.3-1.9,2-2.8
				C39.4,34.9,40.4,35.3,41.5,35.7z M37.5,28.8c-0.5,0.7-1,1.4-1.5,2.1c-1.4-0.5-2.9-1-4.3-1.5c-2.9-0.9-5.8-1.7-8.7-2.3
				c1.9,0,3.7,0,5.5,0.2C31.5,27.8,34.5,28.2,37.5,28.8L37.5,28.8z M37.7,48.8v-0.2c0-0.5-0.1-1-0.2-1.5l0.6,0.7L37.7,48.8z
				 M38.9,45.2c-0.8-0.9-1.7-1.9-2.5-2.8c-0.2-0.6-0.4-1.1-0.6-1.6c-0.2-0.4-0.4-0.8-0.7-1.2l-0.1-0.2l0.1-0.2c1.6,1,3.2,1.9,4.8,3
				C39.6,43.3,39.3,44.3,38.9,45.2L38.9,45.2z M40,54c0.4-0.8,0.7-1.7,1.1-2.6l0.6,0.8C41.2,52.9,40.6,53.5,40,54z M39.9,32.5
				c0.7-0.9,1.3-1.8,2-2.7l1.2,0.3c-0.1,0.3-0.2,0.6-0.3,1s-0.3,0.9-0.5,1.5L42,33.4L39.9,32.5z M46.5,53.1c1.1-1.3,2.1-2.7,3.1-4.1
				l2,1.5l0.2,0.2C50,51.6,48.2,52.4,46.5,53.1L46.5,53.1z M55.1,42.1c1.1,0.6,2.2,1.1,3.2,1.7c0.7,0.4,1.4,0.8,2.1,1.2
				c-2.1,1.8-4.4,3.3-6.9,4.6c-0.6-0.6-1.3-1.2-1.9-1.8l-0.9-0.7c0.5-0.8,1-1.5,1.4-2.3c0.6-1.1,1.2-2.2,1.8-3.4L55.1,42.1z
				 M48.8,31.5c0.7,0.2,1.3,0.3,2,0.5l2,0.4l1.1,0.2c0,0,0,0.1-0.1,0.2c-0.7,1.3-1.2,2.7-1.9,4l-0.4,0.8c-1-0.5-2-1-3-1.5
				s-2.1-1-3.2-1.5c0-0.3,0-0.7-0.1-1c0-0.3-0.1-0.6-0.1-0.9c-0.1-0.7-0.4-1.4-0.6-2.1l-0.2-0.4C45.9,30.8,47.4,31.2,48.8,31.5
				L48.8,31.5z M44.3,40.9c0.3-1.2,0.5-2.5,0.7-3.6c0.8,0.4,1.6,0.7,2.4,1.1c1,0.4,2,0.9,3,1.4c-0.9,1.7-1.8,3.3-2.9,4.9
				c-1.1-0.9-2.3-1.7-3.5-2.5C44.2,41.8,44.2,41.3,44.3,40.9L44.3,40.9z M46.3,46.6c-0.9,1.3-1.9,2.6-3,3.9
				c-0.4-0.5-0.8-1.1-1.2-1.6c0.5-1.4,1-2.9,1.4-4.3C44.4,45.3,45.3,46,46.3,46.6L46.3,46.6z M43.3,21.4c-2,0-4.1,0.1-6.2,0.3
				c-3.3,0.2-6.5,0.6-9.6,0.9c-1.5,0.2-3.1,0.3-4.7,0.4c2.4-0.8,4.8-1.5,7.2-2c4.2-0.9,8.4-1.5,12.7-1.9c0.9-0.1,1.8-0.1,2.7-0.2
				C44.6,19.8,44,20.6,43.3,21.4L43.3,21.4z M47.5,16.7L47.5,16.7l-0.2,0.1L47.5,16.7L47.5,16.7z M50.3,9.1c-1.2,0.9-2.2,1.9-3.2,3
				c-0.4,0.5-0.8,1-1.1,1.5c-0.1,0.2-0.2,0.4-0.3,0.6c-0.1,0.3-0.2,0.7-0.3,1c-0.1,0.4-0.2,0.9-0.2,1.3c0,0.1,0,0.2,0,0.3l-1.9,0.1
				c-3,0.1-6,0.5-9,0.9l1.5-0.7c2-1,4.1-1.9,6.1-2.9c0.7-0.3,1.3-0.6,1.9-1s1.3-0.7,1.9-1.1c0.9-0.5,1.7-1,2.6-1.5
				c-1,0.1-2,0.3-2.9,0.5c-0.7,0.1-1.4,0.3-2.2,0.5l-0.2,0.1l0.1,0c0.9-0.5,1.7-1,2.7-1.5c2.1-1.2,4.2-2,6.5-2.6L53,7.4
				C52,7.9,51.1,8.4,50.3,9.1L50.3,9.1z M2.2,15.2c-0.5-0.3-0.9-0.5-1.5-0.8L0,14.1v2l0.6-0.2C1.1,15.7,1.7,15.5,2.2,15.2z"/>
			<path class="st11" d="M56.6,279.7c-1.3,1.2-1.7,6.2-2.3,8c-1.5,5.2-3.4,8.5-7.3,11.3l-0.3,0.2c5.1-10.9,3-40.1,4.1-51.1
				c1.1-10.7,5-19.4,3.2-30.5c-0.1-0.8-2.1-9.1-2.4-9c-5.7,2-4.1,24.3-4.2,30.1c-0.1,5.5-2.1,10.5-2.5,16c-1.4,14.3-6.3,28-14.2,40
				c3.2-9,4.9-20.1,5.5-25.3c0.8-6.5,2.7-12.5,2.9-19.2c0.1-4.2-1.4-8.2-1.3-12.3c0-0.7,1.4-7.2,1-7.5c-4-2.4-5.3,19.7-5.7,22
				c-1.1,6.3-0.5,12.1-2.2,18.3c-2.3,8.3-7.7,13.4-7.2,9.3c1.7-14.8,6.2-28.6,8.6-43.1c1.7-9.8,0.6-19.4,3-29.2
				c1.5-6.3,7.1-22.6,0.6-27.2c-2.1-1.5-2.5,8.8-3.3,11.1c-2.6,7.8-6.2,14.9-8.3,22.9c-2.2,8.8-0.6,17.9-2.1,26.9
				c-2.4,14.5-4.8,26.9-4.6,42v1.4c-1-8.7-1.3-17.5-0.8-26.2c0.1-3.1,0.2-13.2-3.4-13.9c-0.2,0-0.6,2.4-0.6,2.6
				c-1.1,6.6-0.8,13.3-1.7,19.9c-0.7,5-1.6,9.8-1.2,14.9c-0.5-2.7-1.1-5.5-1.8-8.1l0.5-5.2c-3.5-31.2,4.6-62.3,5.2-93.1
				c0.1-5.5,2.4-28-2-30.1c-2.9-1.3-4.2,5-4.4,7.2c-0.9,12.8,1.6,17.3-1.9,31.7c-3.6,14.8-3.3,28.7-5.2,43.6c-0.1,1-0.3,2-0.5,3
				v55.4c1.2,4.2,2.8,8.2,4.8,12.1c-1.7-1.2-3.3-2.5-4.8-3.8v6.1c2.4,0.6,4.6,1.5,6.8,2.6c0,0,0.8,0.5,2.1,1.2h40.7
				c3.2-1.8,6.2-4.2,7.5-7.2c1.5-3.4,2-10.1,1.8-13.9C58.7,282.8,58,278.5,56.6,279.7z"/>
			<path class="st10" d="M195.2,280.6c-1.1-2.2-2.3-4.4-3.6-6.5c-0.4-0.6-0.8-1.2-1.1-1.9s-1.4-2.2-1.1-1.6c4.9,9,9.5,17.7,14,27.2
				c1.1,2.2,2.7,4.5,3.8,6.9h4.6c-0.7-0.9-4.1-5.7-4.2-5.9C203.2,293.1,198.7,287.2,195.2,280.6z M180.6,300.9
				c-0.9,0-3.3-0.9-2.8,0.1c1,1.9,5.8,2.5,7.4,3.1l1.6,0.6h14.6c-5.2-2-10.7-3.3-16.2-3.6C183.7,300.9,182.2,300.9,180.6,300.9
				L180.6,300.9z M270.9,286.9c-0.6-0.5-3,0.8-3.5,1c-4.3,1.7-8.4,3.9-12.1,6.6c-3,2.1-5.9,5.1-9.1,6.5c-0.4,0.2,0.5-1,0.8-1.4
				c0.5-0.8,0.9-1.4,1.4-2.2c1.3-2.1,2.6-4.2,4-6.2c3.7-5.7,12.5-13.5,13.8-21c0.1-0.6-0.9,0.4-1.3,0.7c-0.7,0.4-1.4,0.9-2.1,1.4
				c-2.3,1.7-4.5,3.5-6.5,5.5c-6.1,5.4-10.7,13.6-17,18.4c-0.3,0.2,0.2-0.9,0.3-1.3c0.2-1,0.4-2,0.6-3c0.7-2.9,1.4-5.8,2.2-8.6
				c2.7-9,6.3-17.5,9.3-26.4c0.2-0.5-0.6,0.8-0.9,1.2c-0.5,0.7-1,1.5-1.6,2.3c-1.6,2.4-3,4.9-4.3,7.5c-4.2,8.1-7.2,18.4-12.1,25.6
				c-0.4,0.6,0.2-1.5,0.3-2.2c0.2-1.4,0.4-2.8,0.5-4.1c0.5-3.8,1.1-7.5,1.7-11.3c1.9-11,7.1-33.8,5.6-31.6
				c-2.2,3.1-3.4,10.1-4.8,13.9c-3.1,7.9-4.9,15.9-7.5,24c-0.8,2.6-1.8,9.2-3.7,11c-0.5,0.5-0.2-1.5-0.4-2.2
				c-0.2-1.8-0.5-3.6-0.6-5.3c-0.4-4.8-0.6-9.8-0.7-14.6c-0.4-10.2-0.4-20.3-0.9-30.5c-0.2-4.9,0-11.5-1.4-16
				c-0.3-0.9-0.5,1.8-0.8,2.7c-0.3,1.1-0.6,2.4-0.8,3.5c-0.7,3.6-1.2,7.1-1.5,10.8c-1.2,13.8,0.5,27.6,0.2,41.4c0,3.2-0.3,6.5-1,9.7
				c-0.2,0.8-0.2,2.5-0.9,2.4c-1-0.1-2.7-9.1-2.9-9.9c-2.3-9.1-4-18.5-6.4-27.6c-0.6-2.3-1.7-8.2-3.8-8.8c-0.9-0.2,0,2.2,0.1,3.3
				c0.4,4.3,0.9,8.5,1.7,12.8c1.7,10.2,3.9,20.3,6.1,30.4c0.3,1.5,2.3,8.2,1,10h39.3c0.2-0.2,0.4-0.4,0.8-0.8
				c4.8-4.7,10.2-8.2,15.2-12.5C267.4,291.4,271.5,287.5,270.9,286.9L270.9,286.9z M266.3,303c-2,0.6-4,1.1-6,1.7h10.4
				c1.5-0.7,3.1-1.6,3.5-2.8C274.1,301.9,266.7,302.9,266.3,303L266.3,303z"/>
		</g>
	</g>
</g>
</svg>
