<?xml version="1.0" standalone="no"?>
<!DOCTYPE svg PUBLIC "-//W3C//DTD SVG 1.1//EN" "http://www.w3.org/Graphics/SVG/1.1/DTD/svg11.dtd" >
<svg xmlns="http://www.w3.org/2000/svg" xmlns:xlink="http://www.w3.org/1999/xlink" version="1.1">
<metadata></metadata>
<defs>
<font id="analogueregular" horiz-adv-x="1107" >
<font-face units-per-em="2048" ascent="1638" descent="-410" />
<missing-glyph horiz-adv-x="544" />
<glyph unicode="&#xfb02;" horiz-adv-x="980" d="M20 904v40h128q-27 174 56 316.5t250 209.5q206 81 383 -4v-1v-1v-678l-1 3v-629q0 -15 2 -31q9 -72 64 4l21 34h25q-4 -12 -12 -32t-36.5 -62.5t-61.5 -62.5q-29 -18 -60 -19q-1 0 -3.5 -0.5t-3.5 -0.5q-3 0 -7.5 0.5t-6.5 0.5q-77 7 -89 93q-2 10 -2 26v1190v33.5 t-1 41.5q-6 3 -11 8q-44 37 -83 54h-1q-61 27 -116 5q-118 -47 -151 -182t29 -316h304l-25 -40h-279v-904h-172v904h-140z" />
<glyph horiz-adv-x="0" />
<glyph horiz-adv-x="0" />
<glyph horiz-adv-x="682" />
<glyph unicode="&#xa;" horiz-adv-x="0" />
<glyph unicode="&#xd;" horiz-adv-x="0" />
<glyph unicode=" "  horiz-adv-x="544" />
<glyph unicode="&#x09;" horiz-adv-x="544" />
<glyph unicode="&#xa0;" horiz-adv-x="544" />
<glyph unicode="!" horiz-adv-x="344" d="M80 98.5q0 36.5 26 62.5l3 3q25 26 62 26t63 -26l4 -3q26 -26 25.5 -62.5t-26.5 -62.5l-4 -4q-25 -26 -61 -26t-62 26l-4 4q-26 26 -26 62.5zM84 1232q-3 38 23 67t65 29t64.5 -28.5t22.5 -67.5l-73 -844h-29z" />
<glyph unicode="#" horiz-adv-x="989" d="M47 413v55h195l55 402h-179v54h188l56 415h58l-56 -415h331l56 415h59l-57 -415h187v-54h-195l-55 -402h180v-55h-188l-57 -415h-58l56 415h-331l-56 -415h-58l56 415h-187zM301 468h331l55 402h-331z" />
<glyph unicode="$" horiz-adv-x="991" d="M59 100l1 3q16 49 59.5 72.5t91 12.5t75.5 -54q65 -102 132 -112l53 583l-53 24q-42 19 -66.5 31t-64.5 35t-64.5 42t-54 48.5t-46 60t-28 71t-11.5 85.5q0 151 115.5 249.5t302.5 98.5q25 0 38 -2l15 163h36l-14 -165q164 -17 293 -92v-1q-11 -42 -46.5 -63t-76 -13.5 t-64.5 43.5q-54 81 -110 92l-49 -529l64 -29q53 -24 85 -40.5t77.5 -44t72.5 -55t53.5 -64.5t39 -84t12.5 -102q0 -172 -126.5 -274t-319.5 -102h-30l-15 -162h-36l14 165q-101 8 -198.5 39t-156.5 70zM219 1082q0 -44 16.5 -83t39.5 -65.5t63 -53.5t71 -43t80 -38l47 518 q-32 4 -49 4q-122 0 -195 -69t-73 -170zM454 18q6 -1 35 -1q133 0 218.5 75t85.5 189q0 41 -11.5 77.5t-35.5 66.5t-47.5 52.5t-61 44.5t-63 35t-65.5 32l-4 2z" />
<glyph unicode="%" horiz-adv-x="1388" d="M49 1013q0 148 83 237t218 89q131 0 214 -86t83 -229q0 -148 -82.5 -237t-216.5 -89q-133 0 -216 85t-83 230zM161 1022q0 -140 51 -221.5t140 -81.5q86 0 134.5 79.5t48.5 216.5q0 139 -50.5 220.5t-138.5 81.5t-136.5 -79t-48.5 -216zM274 9l797 1319h42l-798 -1319 h-41zM739 314q0 148 82.5 237t216.5 89q131 0 214 -85.5t83 -230.5q0 -148 -82.5 -237t-217.5 -89q-130 0 -213 86.5t-83 229.5zM850 323q0 -140 50 -221.5t138 -81.5t136.5 79t48.5 216q0 140 -49.5 221.5t-138.5 81.5q-87 0 -136 -79.5t-49 -215.5z" />
<glyph unicode="&#x26;" horiz-adv-x="1312" d="M55 291q0 129 84 236q14 17 33.5 35.5t37 32.5t50 36t51 34t61.5 39t63 40q-97 95 -151 186.5t-54 162.5q0 121 86 196q87 76 197 76q97 0 176 -64q77 -62 77 -164q0 -138 -188 -298q245 -201 388 -477q67 77 140 77q69 0 118 -62t49 -150q0 -29 -6 -56l-1 -1v-3t-1 -3.5 t-1 -3.5q-10 -42 -34.5 -83.5t-55.5 -62.5q-34 -24 -70 -28.5t-78 16.5t-78 70q-1 2 -4.5 6t-5.5 6q-32 46 -72 117q-238 -230 -456 -230q-149 0 -252 91t-103 229zM225 381q0 -132 85 -221t197 -89q188 0 345 158q-94 170 -163 258t-232 239q-107 -70 -170 -151 q-62 -80 -62 -194zM353 1152q0 -61 56 -139t152 -155q116 102 116 263q0 77 -53 135t-124 58q-67 0 -107 -49t-40 -113zM980 338l1 -2q69 -133 118 -194q22 -25 41 -39q33 -21 50 -14.5t34 36.5q23 48 23 102q0 77 -41.5 131.5t-99.5 54.5q-64 0 -126 -75z" />
<glyph unicode="(" horiz-adv-x="399" d="M84 560q0 251 72.5 473.5t212.5 399.5l6 8l42 -29l-7 -9q-224 -295 -224 -832q0 -546 224 -840l7 -9l-42 -28l-6 8q-285 362 -285 858z" />
<glyph unicode=")" horiz-adv-x="399" d="M-18 -278l6 9q225 296 225 833q0 544 -225 839l-6 9l41 29l6 -8q285 -362 285 -859q0 -510 -285 -872l-6 -8z" />
<glyph unicode="*" horiz-adv-x="741" d="M59 852q6 19 24 26l184 77q26 11 26 39.5t-26 39.5l-184 78q-18 7 -24 26t4 35t29 19.5t34 -7.5l158 -120q22 -17 47 -3t21 42l-25 198q-2 19 11 33.5t32 14.5h1q19 0 31.5 -14.5t10.5 -33.5l-25 -198q-4 -28 21 -42t47 3l158 120q15 11 34 7.5t29 -19.5t4 -35t-24 -26 l-183 -78q-26 -11 -26 -39.5t26 -39.5l183 -77q18 -7 24 -26t-4 -35t-29 -19.5t-34 7.5l-158 120q-22 17 -47 2.5t-21 -42.5l25 -197q2 -19 -10.5 -33.5t-31.5 -14.5h-1q-19 0 -32 14.5t-11 33.5l25 197q4 28 -21 42.5t-47 -2.5l-158 -120q-15 -11 -34 -7.5t-29 19.5t-4 35z " />
<glyph unicode="+" horiz-adv-x="823" d="M31 640v58h349v362h62v-362h350v-58h-350v-363h-62v363h-349z" />
<glyph unicode="," horiz-adv-x="290" d="M27 -237q106 64 106 163q0 75 -69 139q-23 22 -26 53.5t17 56.5v1q21 26 54 29t59 -17q85 -66 85 -168q0 -81 -62 -153t-155 -117z" />
<glyph unicode="-" horiz-adv-x="460" d="M25 477v81h411v-81h-411z" />
<glyph unicode="." horiz-adv-x="251" d="M34.5 98q-0.5 38 26.5 65q26 26 64.5 26t64.5 -26q27 -27 26.5 -65t-27.5 -64q-26 -26 -63.5 -26t-63.5 26q-27 26 -27.5 64z" />
<glyph unicode="/" horiz-adv-x="563" d="M-20 -118l536 1555h68l-536 -1555h-68z" />
<glyph unicode="0" horiz-adv-x="1193" d="M76 659q0 320 140.5 506t380.5 186q231 0 375.5 -178t144.5 -492q0 -320 -141.5 -506t-381.5 -186q-231 0 -374.5 178t-143.5 492zM264 679q0 -199 37.5 -347t114.5 -233t185 -85t182.5 84t110 228t35.5 337q0 198 -37.5 345.5t-114.5 232.5t-185 85t-182.5 -83.5 t-110 -227t-35.5 -336.5z" />
<glyph unicode="1" horiz-adv-x="512" d="M33 1043v22q94 35 197.5 113.5t171.5 172.5h8v-1340h-167v1119q-83 -50 -210 -87z" />
<glyph unicode="2" horiz-adv-x="958" d="M39 11v7l105 109q276 286 402.5 483.5t126.5 362.5q0 133 -74 211.5t-194 78.5q-213 0 -339 -221l-23 10q151 299 438 299q166 0 274 -94t108 -259q0 -164 -148.5 -351.5t-512.5 -499.5l-13 -11h133q314 0 573 36q2 0 2 -3l-47 -158h-811z" />
<glyph unicode="3" horiz-adv-x="929" d="M39 71l1 3q14 43 51 63.5t78.5 11.5t68.5 -45q63 -86 138 -86q133 0 224 88.5t91 237.5q0 128 -88 220t-234 110l-69 7l-7 20l63 20q115 37 194 122t79 200q0 106 -66 165.5t-169 59.5q-106 0 -188.5 -52t-124.5 -113l-24 11q158 237 413 237q143 0 239 -73t96 -197 q0 -106 -82 -194t-195 -126v-4q136 -24 231 -122t95 -236q0 -184 -135 -297t-343 -113q-160 0 -337 82z" />
<glyph unicode="4" horiz-adv-x="1003" d="M20 426l714 913h36v-857h198l-31 -112h-167v-359h-166v359h-562zM111 482h493v638z" />
<glyph unicode="5" horiz-adv-x="915" d="M51 71l6 18q20 60 82.5 68.5t97.5 -43.5q64 -96 137 -96q140 0 232 93.5t92 239.5q0 162 -126 259.5t-378 97.5h-61l54 622h638q-19 -58 -69 -93.5t-111 -35.5h-433l-29 -337h73q149 0 264 -34.5t185.5 -95.5t106.5 -141t36 -176q0 -189 -135 -308.5t-334 -119.5 q-172 0 -328 82z" />
<glyph unicode="6" horiz-adv-x="1032" d="M70 514q0 299 188 529t489 308l9 -27q-241 -79 -369.5 -295.5t-128.5 -519.5q0 -235 76.5 -365t206.5 -130q116 0 181 99.5t65 268.5q0 172 -69 269t-186 97q-100 0 -185 -69l-18 22q117 111 273 111t264 -109t108 -285q0 -192 -126 -310.5t-318 -118.5 q-207 0 -333.5 141t-126.5 384z" />
<glyph unicode="7" horiz-adv-x="909" d="M72 1328v2h824v-8l-483 -1311h-163l567 1190h-227q-219 0 -384 -17q-62 -7 -103.5 38t-30.5 106z" />
<glyph unicode="8" horiz-adv-x="1021" d="M72 306q0 130 79 220t223 139q-244 126 -244 339q0 145 109.5 246t285.5 101q152 0 260.5 -82t108.5 -207q0 -117 -75.5 -198.5t-194.5 -128.5q154 -67 239 -157t85 -219q0 -157 -129 -263.5t-322 -106.5q-112 0 -207.5 36t-156.5 109.5t-61 171.5zM206 313 q0 -133 89.5 -216t216.5 -83q126 0 212.5 80.5t86.5 198.5q0 104 -72.5 174t-203.5 125l-88 38q-14 5 -44 20q-99 -59 -148 -147.5t-49 -189.5zM267 1067q0 -102 65.5 -169t190.5 -119l67 -29q83 57 127.5 136.5t44.5 171.5q0 117 -68.5 192.5t-179.5 75.5q-115 0 -181 -74 t-66 -185z" />
<glyph unicode="9" horiz-adv-x="1030" d="M55 922q0 192 126 310.5t318 118.5q207 0 333.5 -141t126.5 -384q0 -299 -188 -529t-489 -308l-9 27q241 79 369.5 295.5t128.5 519.5q0 235 -76.5 365t-206.5 130q-116 0 -181 -99.5t-65 -268.5q0 -172 69 -269t186 -97q100 0 185 69l18 -22q-116 -110 -268 -110 q-158 0 -267.5 108.5t-109.5 284.5z" />
<glyph unicode=":" horiz-adv-x="284" d="M52 98q0 38 26 64t64 26.5t64 -26.5q26 -26 26 -63.5t-26 -63.5t-63.5 -26.5t-63.5 25.5q-27 26 -27 64zM52 810q0 38 26 64t64 26.5t64 -26.5l1 -1q26 -26 26 -63t-26 -63l-1 -1q-26 -27 -64 -26.5t-64 26.5t-26 64z" />
<glyph unicode=";" horiz-adv-x="317" d="M43 -237q105 65 105 163q0 74 -70 139q-23 22 -26 53.5t17 56.5l1 1q21 26 53.5 29.5t58.5 -16.5q86 -67 86 -169q0 -81 -62 -153t-154 -117zM52 810q0 34 23 57l14 15q23 23 57 23t57 -23l15 -15q23 -23 23 -57t-23 -57l-15 -15q-23 -23 -57 -23t-57 23l-14 15 q-23 23 -23 57z" />
<glyph unicode="&#x3c;" horiz-adv-x="841" d="M35 645v47l6 3l730 347l29 -52l-676 -321l676 -322l-29 -51z" />
<glyph unicode="=" horiz-adv-x="819" d="M29 509v58h761v-58h-761zM29 770v58h761v-58h-761z" />
<glyph unicode="&#x3e;" horiz-adv-x="841" d="M41 347l676 322l-676 321l29 52l736 -350v-47l-6 -2l-730 -347z" />
<glyph unicode="?" horiz-adv-x="890" d="M70 1138q164 212 414 212q157 0 258 -80.5t101 -213.5q0 -60 -25 -115t-65 -97t-88 -81.5t-96.5 -73.5t-88.5 -65.5t-65 -65.5t-25 -67q0 -38 26 -58t70 -20q22 0 49 6l6 -26q-22 -5 -57 -5q-67 0 -109.5 30t-42.5 88q0 47 33 96t79.5 94.5t93.5 94.5t80 114t33 135 q0 105 -68.5 170.5t-185.5 65.5q-173 0 -306 -153zM374 98q0 38 26 64t64 26.5t64 -26.5q26 -26 26 -63.5t-26 -63.5t-63.5 -26.5t-63.5 25.5q-27 26 -27 64z" />
<glyph unicode="@" horiz-adv-x="1597" d="M70 567q0 162 61 307.5t165.5 249.5t250 165t307.5 61q192 0 348 -82t243.5 -225t87.5 -318q0 -127 -45.5 -233t-131.5 -169.5t-196 -63.5q-167 0 -186 125q-119 -143 -259 -143q-103 0 -173 69t-70 199q0 119 51.5 224t148 171.5t216.5 66.5q133 0 207 -74l85 67h11 l-91 -435q-14 -73 -14 -119q0 -116 101 -116q114 0 199.5 125.5t85.5 303.5q0 125 -47.5 235.5t-130 190t-199 126t-248.5 46.5q-147 0 -277.5 -57t-224.5 -156t-148.5 -237.5t-54.5 -294.5q0 -152 51.5 -284t142 -225.5t218.5 -147t276 -53.5q255 0 446 143l18 -21 q-200 -151 -471 -151q-213 0 -384.5 92.5t-270 260t-98.5 377.5zM599 522q0 -116 46 -172t118 -56q116 0 207 130q0 53 14 109l64 311q-25 46 -67 72t-91 26q-82 0 -150 -60.5t-104.5 -156.5t-36.5 -203z" />
<glyph unicode="A" d="M-2 2l238 574l316 770h7l549 -1348h-201l-174 433h-515l-177 -429h-43zM231 464h489l-244 605l-205 -505z" />
<glyph unicode="B" horiz-adv-x="1120" d="M102 -2v1319h437q223 0 339.5 -81.5t116.5 -226.5q0 -124 -91.5 -205t-226.5 -108v-4q174 -11 286 -98t112 -233q0 -169 -143.5 -266t-403.5 -97h-426zM287 40q55 -13 187 -13q398 0 398 308q0 148 -86 238t-234 90h-265v-623zM287 692h234q130 0 204.5 84t74.5 213 q0 131 -77.5 215t-228.5 84h-207v-596z" />
<glyph unicode="C" horiz-adv-x="1253" d="M49 627q0 155 51 285.5t140.5 219t213 138t265.5 49.5q153 0 283 -59t212 -153q-57 -59 -134 -59q-13 0 -27 2q-95 12 -142 93q-40 70 -87.5 108.5t-113.5 38.5q-136 0 -241 -81t-161 -221t-56 -316q0 -294 143.5 -465t367.5 -171q128 0 245.5 60.5t201.5 188.5l22 -13 q-93 -150 -232 -232.5t-319 -82.5q-135 0 -251.5 48t-200.5 134t-132 212t-48 276z" />
<glyph unicode="D" horiz-adv-x="1312" d="M102 -2v1319h462q157 0 286 -42.5t221 -123t142.5 -203t50.5 -276.5q0 -317 -196 -495.5t-534 -178.5h-432zM287 44q73 -17 277 -17q237 0 367 166t130 470q0 281 -140 453t-373 172h-261v-1244z" />
<glyph unicode="E" horiz-adv-x="882" d="M102 -2v1319h737l2 -231h-40q-20 54 -55.5 92t-73 58.5t-90.5 32t-93.5 14t-96.5 2.5h-105v-584h345v-32h-345v-638h105q57 0 97 2.5t93 14t90.5 31.5t73 58t55.5 92l40 1l-2 -232h-737z" />
<glyph unicode="F" horiz-adv-x="849" d="M102 -2v1319h737l2 -232l-40 1q-20 54 -55.5 92t-73 58.5t-90.5 32t-93.5 14t-96.5 2.5h-105v-605h349v-33h-349v-649h-185z" />
<glyph unicode="G" horiz-adv-x="1327" d="M49 649q0 206 91 364t248.5 242t354.5 84q153 0 282.5 -58.5t213.5 -153.5l-2 -2q-59 -57 -136 -57q-18 0 -36 3q-99 16 -148 105q-35 64 -79.5 99t-110.5 35q-217 0 -346 -177t-129 -472q0 -191 63 -339t179.5 -230.5t268.5 -82.5q96 0 184.5 30t150.5 79v446h-303 l-19 32h492v-454q-225 -165 -514 -165q-321 0 -513 179t-192 493z" />
<glyph unicode="H" horiz-adv-x="1220" d="M102 -2v1319h185v-616h645v616h185v-1319h-185v671h-645v-671h-185z" />
<glyph unicode="I" horiz-adv-x="391" d="M102 -2v1319h185v-1319h-185z" />
<glyph unicode="J" horiz-adv-x="395" d="M-158 -252q60 37 103.5 76t73.5 85.5t48.5 93.5t28 112t13 128t3.5 154v920h185v-906q0 -93 -11 -170.5t-29 -136t-50 -108.5t-64.5 -85.5t-83 -70t-95 -58.5t-109.5 -55z" />
<glyph unicode="K" horiz-adv-x="1089" d="M102 -2v1319h185v-1319h-185zM345 674l259 246q73 69 166.5 157t152.5 143t103 98h68v-3q-157 -130 -466 -422l-131 -125l545 -770h-244z" />
<glyph unicode="L" horiz-adv-x="847" d="M102 -2v1319h185v-1286h105q57 0 97 2.5t93 14t90.5 31.5t73 58t55.5 92l40 1l-2 -232h-737z" />
<glyph unicode="M" horiz-adv-x="1501" d="M57 2l117 1225l-40 85v5h199l437 -969l382 969h167l123 -1319h-185l-112 1205l-444 -1121h-7l-491 1076l-111 -1156h-35z" />
<glyph unicode="N" horiz-adv-x="1124" d="M41 1312v5h219l725 -1022v446v577h36v-1341h-16l-839 1161v-1136h-36v1187z" />
<glyph unicode="O" horiz-adv-x="1468" d="M49 645q0 156 54 287t147.5 219.5t221.5 138t275 49.5q189 0 341 -79t242 -233t90 -357q0 -156 -54 -286.5t-147.5 -219.5t-221 -138t-274.5 -49q-141 0 -264 46.5t-214 130.5t-143.5 211t-52.5 280zM252 665q0 -295 136.5 -477t354.5 -182q215 0 345 176.5t130 468.5 q0 295 -136 477t-350 182q-218 0 -349 -176.5t-131 -468.5z" />
<glyph unicode="P" horiz-adv-x="983" d="M102 -2v1319h343q252 0 381.5 -93t129.5 -269q0 -185 -138 -295.5t-373 -110.5q-70 0 -158 11v-562h-185zM287 591q61 -13 127 -13q170 0 258 93t88 262q0 163 -85.5 259t-256.5 96h-131v-697z" />
<glyph unicode="Q" horiz-adv-x="1470" d="M49 645q0 156 54 287t147.5 219.5t221.5 138t275 49.5q189 0 341 -79t242 -233t90 -357q0 -225 -107 -390t-289 -244q45 -163 137 -248q76 -69 168 -69q20 0 40 3q134 21 197 167q19 46 70 49h5q46 0 70 -41q-109 -165 -327 -199q-45 -7 -88 -7q-124 0 -230 58 q-143 78 -210 238q-61 -10 -133 -10q-141 0 -264 46.5t-214 130.5t-143.5 211t-52.5 280zM252 665q0 -295 136.5 -477t354.5 -182q215 0 345 176.5t130 468.5q0 295 -136 477t-350 182q-218 0 -349 -176.5t-131 -468.5z" />
<glyph unicode="R" horiz-adv-x="1087" d="M102 -2v1319h325q534 0 534 -333q0 -68 -24.5 -123.5t-70 -96.5t-99.5 -70.5t-123 -53.5l434 -642h-218l-357 558q-19 22 -38 30t-57 8h-121v-596h-185zM287 634q66 -11 167 -11q144 0 232 101t88 247q0 148 -90 232.5t-265 84.5h-132v-654z" />
<glyph unicode="S" horiz-adv-x="940" d="M37 73q15 59 65 91q38 24 82 24q13 0 26 -2q58 -10 95 -59q91 -121 170 -121q131 0 213.5 72.5t82.5 184.5q0 36 -9.5 69t-24 58t-39 50t-46.5 41.5t-55.5 36t-56.5 30.5t-59 28l-91 40q-45 20 -75 35.5t-73.5 42t-72.5 54t-56.5 64t-41.5 82t-14 97.5q0 151 114.5 249.5 t301.5 98.5q103 0 204 -29t166 -67v-1q-25 -58 -80 -80q-30 -12 -60 -13q-25 0 -51 9q-56 19 -89 73q-45 79 -109 79q-122 0 -193.5 -66.5t-71.5 -165.5q0 -38 10 -70.5t32 -60t44.5 -48.5t59.5 -43t64.5 -35.5t72.5 -34.5l90 -41q44 -21 71 -34t67 -36.5t64.5 -43.5 t53.5 -50.5t45 -62t27 -73t11 -88.5q0 -168 -124.5 -274t-317.5 -106q-110 0 -231 30t-191 66z" />
<glyph unicode="T" horiz-adv-x="974" d="M-2 1140l18 177h939l20 -179h-3q-40 19 -122.5 64.5t-131.5 64t-98 18.5h-42v-1287h-185v1287h-43q-49 0 -97.5 -18t-129.5 -63t-121 -64h-4z" />
<glyph unicode="U" horiz-adv-x="1124" d="M90 451v866h185v-862q0 -211 91.5 -317.5t268.5 -106.5q172 0 267.5 105t95.5 310v871h36v-862q0 -478 -466 -478q-237 0 -357.5 122t-120.5 352z" />
<glyph unicode="V" horiz-adv-x="1093" d="M-2 1317h201l431 -1070l425 1070h39l-540 -1348h-7z" />
<glyph unicode="W" horiz-adv-x="1681" d="M2 1317h197l352 -1029l362 1029h7l354 -1029l159 462q125 352 194 568l56 -1q-66 -160 -215 -578l-267 -770h-7l-355 1033l-362 -1033h-8z" />
<glyph unicode="X" horiz-adv-x="1132" d="M2 1299v10h246l20 -37l341 -503l353 503l26 37h48l-404 -574l501 -737h-245l-381 559l-393 -559h-47l417 593z" />
<glyph unicode="Y" horiz-adv-x="1015" d="M-10 1317h212l387 -688l95 166l298 523l46 -1q-148 -243 -312 -538l-110 -194v-587h-185v566z" />
<glyph unicode="Z" horiz-adv-x="1030" d="M20 -2v8l732 1279h-249q-56 0 -96.5 -2.5t-93.5 -14t-90.5 -32t-73 -58.5t-55.5 -92l-40 -1l3 232h920v-7l-734 -1279h315q57 0 97 2.5t93 14t90.5 31.5t73 58t55.5 92l40 1l-2 -232h-985z" />
<glyph unicode="[" horiz-adv-x="303" d="M102 -302v1739h348v-44h-281q35 -428 35 -826t-35 -826h281v-43h-348z" />
<glyph unicode="\" horiz-adv-x="563" d="M-23 1437h69l536 -1555h-68z" />
<glyph unicode="]" horiz-adv-x="303" d="M-147 -259h281q-35 428 -35 826t35 826h-281v44h347v-1739h-347v43z" />
<glyph unicode="^" horiz-adv-x="870" d="M31 654l394 707h20l394 -707l-51 -29l-353 634l-353 -634z" />
<glyph unicode="_" horiz-adv-x="0" d="M-354 -96h710v-61h-710v61z" />
<glyph unicode="`" horiz-adv-x="268" d="M-16.5 1401.5q12.5 29.5 44.5 29.5h44q32 0 45 -30l118 -285l-12 -9l-230 242q-22 23 -9.5 52.5z" />
<glyph unicode="a" horiz-adv-x="972" d="M35 204q0 108 118 205.5t366 194.5l158 62q-5 123 -31.5 190.5t-66 89.5t-104.5 22q-75 0 -126 -39q-17 -13 -26 -55q-7 -38 -37 -58q-25 -18 -56 -17q-4 1 -10 1q-36 4 -62 31l-30 33q74 48 179.5 90t197.5 42q49 0 92 -8.5t88 -32.5t77 -62t52 -102.5t20 -149.5v-494 q0 -3 0.5 -7.5t0.5 -6.5q4 -35 20 -35t45 40l21 33h24q-4 -12 -12 -32t-36.5 -62.5t-61.5 -62.5h-1l-1 -1q-25 -17 -57 -18q-1 0 -4 -0.5t-4 -0.5q-3 0 -7 0.5t-6 0.5q-44 4 -65.5 32t-24.5 61q-1 6 -2 22t-1 22q0 1 -0.5 3t-0.5 3v4v4v203q-17 -63 -42 -118 q-110 -244 -329 -247q-1 0 -2.5 -0.5t-2.5 -0.5q-116 0 -188 70q-62 62 -62 151zM180 260q0 -76 59.5 -128.5t144.5 -52.5q168 0 246 257q45 143 48 303l-151 -65q-111 -47 -175 -80.5t-104.5 -70t-54 -73t-13.5 -90.5z" />
<glyph unicode="b" horiz-adv-x="1054" d="M-6 1395v25l100 20l116 23l54 10v-635q144 152 322 152t295.5 -137t117.5 -350q0 -114 -37.5 -211.5t-101 -164.5t-148.5 -105t-180 -38q-200 0 -329 127l-102 -112h-7v1286q0 52 -20 75t-80 35zM264 196q36 -84 102.5 -133.5t149.5 -49.5q134 0 216.5 128t82.5 345 q0 214 -78 329t-205 115q-149 0 -268 -140v-594z" />
<glyph unicode="c" horiz-adv-x="931" d="M53 465q0 227 137 370t338 143q233 0 364 -165q-48 -43 -107 -43q-22 0 -46 6q-86 23 -118 107q-25 68 -84 68q-132 0 -214.5 -122t-82.5 -324q0 -215 91.5 -335t238.5 -120q84 0 168 44t143 130l22 -12q-158 -239 -404 -239q-194 0 -320 135.5t-126 356.5z" />
<glyph unicode="d" horiz-adv-x="1103" d="M53 467q0 114 37.5 212t101 165t149 105t180.5 38q154 0 266 -99v420q-4 38 -25 57.5t-74 29.5v25l99 20l171 33h1v-1309q0 -15 2 -31q4 -35 20 -35t44 39l21 34h25q-4 -12 -12 -31.5t-36.5 -62t-61.5 -62.5q-1 0 -1 -1t-1 -1q-25 -17 -57 -18q-1 0 -4 -0.5t-4 -0.5 q-3 0 -7 0.5t-6 0.5q-44 4 -65.5 32t-24.5 61q-1 7 -2.5 22.5t-1.5 22.5q-141 -151 -321 -151q-178 0 -295.5 136.5t-117.5 348.5zM238 485q0 -215 78 -329t206 -114q145 0 265 136v596q-34 84 -100.5 133.5t-149.5 49.5q-135 0 -217 -127.5t-82 -344.5z" />
<glyph unicode="e" horiz-adv-x="997" d="M49 434q0 106 44 207t114.5 174t163 117.5t185.5 44.5q165 0 251 -86l5.5 -5.5t13.5 -15.5t18 -25.5t18.5 -36t15.5 -46.5q4 -24 8 -56q1 -12 1 -24q0 -21 -4 -42h-89h-1h-559q-13 -53 -13 -134q1 -209 97.5 -317t281.5 -108q143 0 245.5 78.5t179.5 228.5l14 -7 q-103 -212 -256 -321q-130 -91 -276 -91q-207 0 -332.5 130.5t-125.5 334.5zM241 671h489q6 38 6 71q0 48 -12 82q-20 60 -58 89l-3 3q-14 12 -30 19l-13 5q-26 8 -58 8q-115 0 -188 -65.5t-133 -211.5zM857 671h1h-1z" />
<glyph unicode="f" horiz-adv-x="636" d="M20 898v40h128q-7 43 -7 84q0 125 63 232q83 143 250 210q101 40 194 40q98 0 189 -44v-1q0 -34 -18.5 -61t-45.5 -39t-60 -8t-59 26q-82 69 -151 69q-25 0 -49 -9q-118 -47 -151 -183q-11 -47 -11 -99q0 -99 40 -217h304l-25 -40h-279v-904h-172v904h-140z" />
<glyph unicode="g" horiz-adv-x="950" d="M59 642q0 147 110.5 241t277.5 94q144 0 244 -69q3 -3 7 1q89 123 233 126q6 0 6 -7l-1 -12q-5 -46 -39 -76t-80 -30q-55 0 -92 -20q-2 -2 -2 -5t2 -4q104 -93 104 -237q0 -146 -110 -240t-277 -94q-87 0 -166 30q-2 1 -5 0l-38 -26q-52 -33 -52 -82q0 -64 127 -70 l298 -18q154 -8 236 -68.5t82 -171.5q0 -151 -128 -248t-338 -97q-176 0 -282.5 70t-106.5 190v8q0 18 5 41v3q11 41 44 61q16 10 40 13l2 1h2h35h8l7 -1q5 0 7 -1q-20 -60 -20 -110q0 -20 3 -40q15 -101 74 -155.5t182 -54.5q324 0 324 252q0 77 -46 117t-162 46l-285 18 q-99 5 -155 42.5t-56 105.5q0 50 31 88.5t97 78.5l36 22q-85 42 -134 117t-49 171zM222 644q0 -137 61 -221t162 -84q103 0 162 83t59 220t-61 221.5t-162 84.5q-102 0 -161.5 -83.5t-59.5 -220.5z" />
<glyph unicode="h" horiz-adv-x="1067" d="M-6 1395v25l100 20l170 33v-654q81 79 164.5 119.5t188.5 40.5q308 0 308 -342v-472q0 -14 2 -30q4 -35 20 -35t45 40l21 33l24 -1q-4 -12 -12 -31.5t-36.5 -62t-61.5 -62.5q-1 0 -1 -0.5t-1 -0.5q-27 -18 -57 -19h-7h-14q-78 7 -90 93q-2 10 -2 26v525q0 23 -0.5 39 t-5 47t-12 53.5t-23 49.5t-37.5 44t-56.5 29t-77.5 12q-146 0 -279 -129v-773h-170v1272v1q0 52 -20 75t-80 35z" />
<glyph unicode="i" horiz-adv-x="516" d="M61 800q4 12 12.5 32t37.5 62.5t62 62.5q31 19 60 20h1h4h9q6 0 14 -2q76 -13 82 -107v-22v-682q0 -15 2 -31q4 -35 20 -35t44 39l21 34h25q-4 -12 -12 -31.5t-36.5 -62t-61.5 -62.5q-31 -19 -59 -20q-1 0 -4 -0.5t-4 -0.5q-3 0 -7 0.5t-6 0.5q-78 7 -90 93q-2 10 -2 26 v697q-1 62 -21 62q-13 0 -33 -24q-17 -21 -33 -49h-25zM171 1252q0 35 26 61q25 25 61 25t62 -25q25 -25 25 -61q0 -37 -25 -62q-26 -26 -62 -26q-35 0 -61 26t-26 62z" />
<glyph unicode="j" horiz-adv-x="409" d="M-84 -329q107 23 167.5 118.5t60.5 241.5v782q-1 62 -21 62q-13 0 -33 -24q-17 -21 -33 -49h-24q9 27 28 61q38 68 83 96q29 18 60 19h1h1h4h8q10 0 15 -1q75 -12 81 -107q0 -3 0.5 -7t0.5 -5l-1 -11v-681l2 -131q0 -12 -1 -19q-5 -79 -39.5 -145t-89.5 -110.5 t-121.5 -72.5t-141.5 -39zM142 1253q0 36 26 62q26 25 62 25t61 -25t25 -62q0 -36 -25 -61q-26 -26 -62 -26q-35 0 -61 26t-26 61z" />
<glyph unicode="k" horiz-adv-x="993" d="M-6 1397v26l100 19l170 33v-891l274 271l4 4l11.5 11.5l13.5 13.5l11 11q6 6 18 16q75 63 177 66q5 0 5 -6l-1 -13q-5 -46 -39 -76t-80 -30q-73 0 -99 -14l-115 -113q46 16 108 16q308 0 308 -342v-232q0 -14 2 -30q4 -35 20 -35t44 39l21 34h25q-4 -12 -12 -32 t-36.5 -62.5t-61.5 -62.5h-1l-1 -1q-25 -16 -58 -18q-1 0 -3.5 -0.5t-3.5 -0.5q-3 0 -7.5 0.5t-6.5 0.5q-77 7 -89 92q-2 10 -2 26v286q0 23 -0.5 39t-5 47t-12 53t-23 49t-37.5 44t-56.5 29t-77.5 12q-58 0 -90.5 -19.5t-90.5 -77.5l-33 -32v-535h-170v1275q0 52 -20 75 t-80 35z" />
<glyph unicode="l" horiz-adv-x="407" d="M-6 1395v25l71 14l147 29l52 10v-679l-1 3v-629q0 -15 2 -31q4 -35 20 -35t44 39l21 34h25q-4 -12 -12 -31.5t-36.5 -62t-61.5 -62.5q-31 -19 -60 -20h-7h-14q-77 7 -89 93q-2 10 -2 26v1190q-3 41 -29 61q-13 10 -38 18q-16 5 -32 8z" />
<glyph unicode="m" horiz-adv-x="1746" d="M31 802q4 12 12 32t36.5 62.5t61.5 62.5q1 0 1 0.5t1 0.5q25 16 58 18q1 0 4 0.5t4 0.5q3 0 7 -0.5t6 -0.5q27 -3 44 -13q36 -21 46 -71l1 -2q2 -10 2 -33v-38q79 79 157.5 118.5t181.5 39.5q218 0 282 -178q88 90 170.5 134t192.5 44q306 0 306 -342v-474q0 -4 0.5 -10 t0.5 -9q0 -2 0.5 -6t0.5 -5q4 -35 20 -35q17 0 46 40l21 33h24q-4 -12 -12 -32t-36.5 -62.5t-61.5 -62.5h-1l-1 -1h-1q-26 -15 -49 -18h-8q-1 0 -3.5 -0.5t-3.5 -0.5q-3 0 -7.5 0.5t-6.5 0.5h-3q-26 3 -41 13q-35 21 -45 71l-1 2q0 1 -0.5 3.5t-0.5 3.5q-2 10 -2 26v526 q0 24 -0.5 40t-4.5 49t-11.5 56.5t-23 53t-37 47.5t-56 31t-77.5 13q-70 0 -135.5 -39.5t-143.5 -121.5q15 -63 15 -132v-625h-172v628q0 290 -212 290q-66 0 -126.5 -35t-134.5 -108v-775h-172v811v6q0 2 -1 6t-1 5q-4 35 -20 35t-44 -39l-21 -34h-25z" />
<glyph unicode="n" horiz-adv-x="1103" d="M33 802q4 12 12 32t36.5 62.5t61.5 62.5q1 0 1 0.5t1 0.5q25 16 58 18q1 0 4 0.5t4 0.5q3 0 7 -0.5t6 -0.5q27 -3 44 -13q35 -21 45 -71v-2l1 -1v-1v-3l1 -2q1 -5 1 -13q0 -3 0.5 -7.5t0.5 -5.5v-38q80 80 157.5 119t180.5 39q219 0 283 -178l9 -32q15 -63 15 -132v-492 q0 -2 0.5 -6t0.5 -5q4 -35 20 -35q17 0 46 40l21 33h25q-1 -4 -4 -12t-13.5 -29.5t-22 -40t-31 -40t-40.5 -34.5l-1 -1l-1 -1h-1q-25 -15 -50 -18h-8q-1 0 -3.5 -0.5t-3.5 -0.5q-3 0 -7.5 0.5t-6.5 0.5h-3q-26 3 -41 13q-35 21 -45 71l-1 2q0 1 -0.5 3.5t-0.5 3.5 q-2 10 -2 26v525q0 25 -0.5 40.5t-4.5 49t-11 57t-22.5 53t-37 48t-56 31.5t-77.5 13q-66 0 -127 -36t-136 -109v-775h-172v817q0 2 -1 6t-1 5q-4 35 -20 35t-45 -40l-21 -33h-24z" />
<glyph unicode="o" horiz-adv-x="1077" d="M51 464q0 227 140 368t355 141q210 0 344 -135.5t134 -362.5t-140 -367t-355 -140q-210 0 -344 134.5t-134 361.5zM236 475q0 -216 84.5 -349t219.5 -133q136 0 217.5 129t81.5 342q0 217 -84.5 350.5t-219.5 133.5q-136 0 -217.5 -129t-81.5 -344z" />
<glyph unicode="p" horiz-adv-x="1101" d="M31 799q4 12 12 31.5t36.5 62t61.5 62.5q1 0 1 0.5t1 0.5q27 18 58 19q1 0 4 0.5t4 0.5q3 0 7 -0.5t6 -0.5q22 -1 40 -11q2 0 4 -2q35 -21 45 -72v-1q0 -1 1 -3.5t1 -3.5q1 -5 1 -13v-13v-29q144 152 321 152q178 0 295.5 -137t117.5 -350q0 -114 -37.5 -211.5 t-101 -164.5t-148.5 -105t-180 -38q-156 0 -267 100v-491h-172v1243q0 2 -0.5 6.5t-0.5 5.5q-4 35 -20 35t-45 -40l-21 -33h-24zM314 187q34 -85 100.5 -135t149.5 -50q135 0 217 128t82 345q0 215 -76.5 329.5t-203.5 114.5q-70 0 -140 -35t-129 -102v-595z" />
<glyph unicode="q" horiz-adv-x="1052" d="M53 459q0 114 37.5 212t101 165t149 105t180.5 38q188 0 318 -111l111 109h9v-1242v-3q0 -2 0.5 -6t0.5 -5q4 -35 20 -35q17 0 46 40l21 33h26q-2 -4 -4.5 -12t-13 -29.5t-22.5 -40t-31.5 -40t-40.5 -34.5q-1 0 -1 -0.5t-1 -0.5v-1h-1q-26 -15 -49 -18h-8q-1 0 -3.5 -0.5 t-3.5 -0.5q-3 0 -7.5 0.5t-6.5 0.5h-3q-26 3 -41 13q-36 22 -46 71v2q0 1 -0.5 3.5t-0.5 3.5q-2 10 -2 26v422q-146 -151 -321 -151q-178 0 -295.5 137t-117.5 349zM238 477q0 -215 78 -329.5t206 -114.5q145 0 265 136v596q-34 84 -100.5 133.5t-149.5 49.5 q-134 0 -216.5 -127t-82.5 -344z" />
<glyph unicode="r" horiz-adv-x="694" d="M31 783q4 12 12 31.5t36.5 62t61.5 62.5l1 1q29 18 61 19q1 0 2.5 0.5t2.5 0.5t3 -0.5t3 -0.5q83 -4 97 -90v-149q51 113 126.5 175t168.5 62q37 0 85 -11l-7 -17q-16 -44 -55 -69.5t-87 -25.5h-1q-19 0 -34.5 -1t-29 -4.5t-22.5 -5.5t-19.5 -9t-16 -9.5t-15 -13 t-12.5 -13.5t-14 -16.5t-14 -17.5q-2 -2 -5 -5.5t-5 -5.5q-6 -8 -21 -31q-9 -15 -10 -17t-3.5 -7.5t-4.5 -8.5l-1 -2v-660v-12h-172v804q0 16 -1 22q-4 35 -20 35t-45 -40l-21 -33h-24z" />
<glyph unicode="s" horiz-adv-x="802" d="M45 60q4 52 43 82q32 25 71 26q8 0 17 -2q49 -6 78 -49q80 -119 152 -119q106 0 170.5 51.5t64.5 133.5q0 41 -17 73.5t-55 58.5t-67.5 40.5t-85.5 37.5l-74 31q-37 16 -53.5 23.5t-52.5 26t-54.5 32.5t-45 37.5t-40 47t-23.5 55.5t-10 68q0 116 92 190t245 74 q90 0 175.5 -22t138.5 -54q-4 -48 -40 -76q-30 -23 -65 -22h-15q-45 6 -73 45q-74 104 -137 104q-95 0 -150 -47.5t-55 -117.5q0 -38 16 -68t55.5 -56t61 -37t76.5 -34q12 -5 18 -8l72 -31q33 -14 52 -22t52.5 -25.5t54 -32.5t46 -38.5t40 -48t24.5 -58t10 -70.5 q0 -126 -99.5 -206t-270.5 -80q-92 0 -186.5 24t-155.5 63z" />
<glyph unicode="t" horiz-adv-x="661" d="M16 917v31l133 9l172 308h7v-308h310l-24 -40h-286v-692q0 -25 1 -41.5t8.5 -47.5t22 -50.5t44 -35t71.5 -15.5q76 0 155 45l15 -21q-128 -86 -254 -86q-235 0 -235 249v695h-140z" />
<glyph unicode="u" horiz-adv-x="1114" d="M29 801q2 4 4.5 12t13 29.5t22.5 40t31 40t40 34.5q1 1 2 1q29 18 61 19h1h4h5h1q84 -4 98 -91v-576q0 -24 0.5 -39t4.5 -46.5t11.5 -53.5t23 -49.5t37.5 -44t56.5 -28.5t78.5 -12q68 0 141 39t133 106v795h164h8v-813q0 -15 2 -31q4 -35 20 -35t44 39l21 34h25 q-4 -12 -12 -31.5t-36.5 -62t-61.5 -62.5l-1 -1l-1 -1q-25 -16 -58 -18q-1 0 -3.5 -0.5t-3.5 -0.5q-3 0 -7.5 0.5t-6.5 0.5q-44 4 -65 31.5t-24 61.5q-1 8 -2.5 26t-1.5 23v-1v4q-155 -167 -348 -167q-310 0 -310 341v525q-4 35 -20 35t-45 -40l-21 -33h-25z" />
<glyph unicode="v" horiz-adv-x="954" d="M10 801q27 80 81 132q15 15 29 24l1 1h1q27 18 58 19q1 0 3.5 0.5t3.5 0.5q3 0 7.5 -0.5t6.5 -0.5q55 -5 77 -52h1l298 -696l94 216q5 11 13.5 32t11.5 29l2 4l203 468h45q-71 -142 -244 -544l-192 -446h-13l-350 815l-3 5l-5 12l-5 13l-4 10l-3 4q-11 23 -24.5 26.5 t-25 -7.5t-21.5 -25.5t-16 -26.5l-5 -13h-25z" />
<glyph unicode="w" horiz-adv-x="1462" d="M10 801q27 80 81 132q15 15 29 24l1 1h1q27 18 58 19q1 0 3.5 0.5t3.5 0.5q3 0 7.5 -0.5t6.5 -0.5q75 -7 88 -87q-2 16 -5 23l293 -684l94 216q5 11 13.5 32t11.5 29l2 4l42 97l-84 196l-3 5l-5 12l-5 13l-4 9l-3 5q-11 23 -24.5 26.5t-25 -7.5t-21.5 -25.5t-15 -26.5 l-6 -13h-25q27 80 81 132q15 15 29 24q1 0 1 0.5t1 0.5q27 18 58 19q1 0 3.5 0.5t3.5 0.5q3 0 7.5 -0.5t6.5 -0.5q14 -2 21 -4q1 0 3 -1q10 -3 16 -7l1 -1q5 -3 13 -9l2 -2q6 -5 11 -11l1 -1v-1q4 -6 7 -11q0 -1 0.5 -1t0.5 -1t0.5 -1t0.5 -1q7 -15 11 -35q-2 16 -5 23 l39 -93l19 -43l235 -548l94 216q5 11 13.5 32t11.5 29l2 4l203 468h45q-71 -142 -244 -544l-192 -446h-13l-248 577q-9 -20 -27.5 -63.5t-28.5 -67.5l-192 -446h-13l-350 815l-3 5l-5 12l-5 13l-4 9l-3 5q-11 23 -24.5 26.5t-25 -7.5t-21.5 -25.5t-16 -26.5l-5 -13h-25z" />
<glyph unicode="x" horiz-adv-x="782" d="M25 801q26 81 80 133q13 14 30 24q1 0 1 0.5t1 0.5q27 18 57 19h7h1h-1h14q14 -2 21 -4h1q1 -1 2 -1q12 -4 17 -7v-1q5 -3 13 -9q1 0 1 -1l2 -1q4 -3 10 -11q0 -1 1 -2l2 -2t2 -3t2 -3t2.5 -3.5t1.5 -3.5l149 -349l260 370l19 28h36l-301 -429l165 -383l2 -5l5 -12l6 -13 l4 -10l2 -4q11 -23 24.5 -26.5t25 7.5t21.5 25.5t16 26.5l6 13h24q-26 -80 -80 -132q-13 -13 -30 -24q-1 0 -1 -0.5t-1 -0.5q-27 -18 -57 -19q-1 0 -3.5 -0.5t-3.5 -0.5h-1h1q-3 0 -7.5 0.5t-6.5 0.5q-14 2 -21 4l-1 1h-2q-12 4 -17 7t-13 9l-3 3q-6 4 -10 10q0 1 -1 2.5 t-2 2.5t-2.5 3t-1.5 3q-1 1 -2 3.5t-2 3.5l-147 343l-277 -393h-34l297 424l-167 389l-2 5l-5 11l-6 13l-4 10l-2 5q-11 23 -24.5 26.5t-25 -7.5t-21.5 -25.5t-16 -27.5l-6 -13h-24zM305 885q2 -10 2 -26q0 16 -2 26v1v-1zM475 108q0 -16 2 -26v-2v2q-2 10 -2 26z" />
<glyph unicode="y" horiz-adv-x="954" d="M10 801q27 80 81 132q15 15 29 24l1 1h1q27 18 58 19q1 0 3.5 0.5t3.5 0.5q3 0 7.5 -0.5t6.5 -0.5q55 -5 77 -52h1l298 -696l50 116l8 18l36 82q5 11 13.5 32t11.5 29l2 4l203 468h45q-71 -142 -244 -544l-41 -95l-234 -565q-62 -147 -160 -209t-230 -62l3 39q4 52 44 84 q33 27 74 27q9 0 18 -1q18 -3 35 -3q26 0 49 7q39 10 62 29.5t40 40t24 35.5l6 15l60 145l36 89l-341 793l-3 5l-5 12l-5 13l-4 9l-3 5q-11 23 -24.5 26.5t-25 -7.5t-21.5 -25.5t-16 -26.5l-5 -13h-25z" />
<glyph unicode="z" horiz-adv-x="821" d="M25 2l536 948h-94q-18 -1 -48 -4.5t-111 -24t-148 -52.5q-21 -10 -42 -10q-30 1 -58 23q-36 30 -35 70q0 12 3 26h732v-8l-540 -948h89q71 0 172 26.5t164 60.5q26 14 51 14q32 -1 62 -23q43 -32 43 -80q0 -13 -3 -26h-773v8z" />
<glyph unicode="{" horiz-adv-x="442" d="M55 556v22q84 4 132 59t48 133q0 51 -24.5 119.5t-49 142.5t-24.5 140q0 136 90 195t288 59v-22q-124 0 -186 -47.5t-62 -149.5q0 -76 45.5 -205t45.5 -190q0 -97 -68.5 -162t-165.5 -83q97 -18 165.5 -82.5t68.5 -161.5q0 -61 -45.5 -190t-45.5 -205q0 -102 62 -150 t186 -48v-21q-198 0 -288 58.5t-90 194.5q0 66 24.5 140t49 142.5t24.5 119.5q0 78 -48 133t-132 59z" />
<glyph unicode="|" horiz-adv-x="270" d="M102 -118v1555h66v-1555h-66z" />
<glyph unicode="}" horiz-adv-x="440" d="M-76 -270q126 0 188 48t62 150q0 76 -45 205t-45 190q0 98 67.5 162t165.5 82q-97 18 -165 82.5t-68 162.5q0 61 45 190t45 205q0 102 -62 149.5t-188 47.5v22q199 0 290 -59t91 -195q0 -66 -25 -140t-50 -142.5t-25 -119.5q0 -79 47.5 -133.5t131.5 -58.5v-22 q-84 -4 -131.5 -58.5t-47.5 -133.5q0 -51 25 -119.5t50 -142.5t25 -140q0 -136 -90.5 -194.5t-290.5 -58.5v21z" />
<glyph unicode="~" horiz-adv-x="839" d="M35 574q17 106 62 160t126 54q49 0 110 -22.5t109.5 -49t104.5 -49t96 -22.5q54 0 88 35.5t52 109.5l22 -5q-31 -214 -187 -214q-49 0 -110 22.5t-109.5 49t-104.5 49t-96 22.5q-54 0 -88 -35.5t-53 -109.5z" />
<glyph unicode="&#xa3;" horiz-adv-x="1024" d="M55 18q41 29 62.5 45.5t56.5 51t53 66t32.5 79t14.5 101.5q0 100 -57 264h-151v33h140q-22 65 -33 101t-22 92.5t-11 103.5q0 164 101.5 265t263.5 101q74 0 139 -22t112.5 -59.5t79.5 -74.5t58 -80l-27 -15q-59 -34 -123.5 -10t-87.5 88q-30 83 -50 108q-21 25 -47 25 q-104 0 -172.5 -89t-68.5 -223q0 -21 2 -42.5t6.5 -46.5t8.5 -43t12.5 -47.5t12 -42.5t14 -46.5t13.5 -42.5h275v-33h-266q32 -110 32 -177q0 -159 -155 -281q84 -3 238 -42.5t222 -39.5q50 0 86 12t58 35.5t34 45t23 52.5l23 66h19l-10 -69q-4 -28 -7 -46.5t-11.5 -49 t-19.5 -51.5t-31 -46t-44.5 -40t-61.5 -25t-82 -10q-71 0 -169 24.5t-181.5 49.5t-118.5 25q-80 0 -161 -81z" />
<glyph unicode="&#xad;" horiz-adv-x="0" />
<glyph unicode="&#xc0;" d="M0 7l239 575l315 770h7l549 -1348h-201l-174 433h-515l-177 -430h-43zM223 1836h242l144 -339l-15 -10zM233 470h489l-244 605l-205 -506z" />
<glyph unicode="&#xc1;" d="M0 7l239 575l315 770h7l549 -1348h-201l-174 433h-515l-177 -430h-43zM233 470h489l-244 605l-205 -506zM421 1497l144 339h242l-371 -349z" />
<glyph unicode="&#xc2;" d="M0 7l239 575l315 770h7l549 -1348h-201l-174 433h-515l-177 -430h-43zM226 1497l338 339h13l336 -339l-12 -10l-330 189l-333 -189zM233 470h489l-244 605l-205 -506z" />
<glyph unicode="&#xc3;" d="M0 7l239 575l315 770h7l549 -1348h-201l-174 433h-515l-177 -430h-43zM196 1528q33 228 180 228q55 0 131.5 -30t148 -59.5t112.5 -29.5q90 0 126 119l20 -4q-33 -230 -181 -230q-55 0 -131.5 30t-147.5 59.5t-112 29.5q-48 0 -78 -29.5t-48 -89.5zM233 470h489l-244 605 l-205 -506z" />
<glyph unicode="&#xc4;" d="M0 7l239 575l315 770h7l549 -1348h-201l-174 433h-515l-177 -430h-43zM233 470h489l-244 605l-205 -506zM268 1639q0 37 26 62t62 25t61 -25t25 -62t-25 -62t-61 -25t-62 25t-26 62zM670 1639q0 37 26 62t62 25t61 -25t25 -62t-25 -62t-61 -25t-62 25t-26 62z" />
<glyph unicode="&#xc5;" d="M0 7l239 575l315 770h7l549 -1348h-201l-174 433h-515l-177 -430h-43zM233 470h489l-244 605l-205 -506zM331 1622q0 90 64 148t160 58q95 0 159.5 -58t64.5 -148t-64.5 -147.5t-159.5 -57.5q-96 0 -160 57.5t-64 147.5zM421 1622q0 -83 35 -130.5t99 -47.5 q62 0 96.5 47.5t34.5 130.5t-34.5 131t-96.5 48q-64 0 -99 -48t-35 -131z" />
<glyph unicode="&#xc6;" horiz-adv-x="1355" d="M-4 -7l238 574l316 770h761l2 -231h-40q-20 54 -55.5 92t-73 58.5t-90.5 32t-93.5 14t-96.5 2.5h-105v-584h345v-32h-345v-638h105q56 0 96.5 2.5t93.5 14t90.5 32t73 58.5t55.5 92h40l-2 -232h-737v676h-249l-56 -139l-40 -100l23 64l-36 -97l-177 -429h-43zM336 721 h238v569l-100 -230z" />
<glyph unicode="&#xc7;" horiz-adv-x="1253" d="M49 633q0 155 51 285.5t140.5 219t213 138t265.5 49.5q153 0 283 -59t212 -153q-66 -69 -161 -58t-142 93q-41 70 -88.5 109t-112.5 39q-136 0 -241 -81t-161 -221t-56 -316q0 -294 143.5 -465t367.5 -171q128 0 245.5 60t201.5 188l22 -12q-93 -150 -232.5 -233 t-318.5 -83q-135 0 -251.5 48t-200.5 134t-132 212.5t-48 276.5zM513 -431l7 19q17 -6 58 -12.5t71 -6.5q70 0 110 30t40 75q0 42 -42 71t-114 29h-51l83 188h41l-36 -79q111 -7 173.5 -56t62.5 -119q0 -78 -65.5 -127t-168.5 -49q-105 0 -169 37z" />
<glyph unicode="&#xc8;" horiz-adv-x="880" d="M102 4v1319h737l2 -232l-40 1q-20 54 -55.5 92t-73 58t-90.5 31.5t-93 14t-97 2.5h-105v-583h346v-33h-346v-637h105q57 0 97 2.5t93 14t90.5 31.5t73 58t55.5 92l40 1l-2 -232h-737zM194 1836h242l144 -339l-14 -10z" />
<glyph unicode="&#xc9;" horiz-adv-x="880" d="M102 4v1319h737l2 -232l-40 1q-20 54 -55.5 92t-73 58t-90.5 31.5t-93 14t-97 2.5h-105v-583h346v-33h-346v-637h105q57 0 97 2.5t93 14t90.5 31.5t73 58t55.5 92l40 1l-2 -232h-737zM435 1497l144 339h242l-372 -349z" />
<glyph unicode="&#xca;" horiz-adv-x="880" d="M102 4v1319h737l2 -232l-40 1q-20 54 -55.5 92t-73 58t-90.5 31.5t-93 14t-97 2.5h-105v-583h345v-33h-345v-637h105q57 0 97 2.5t93 14t90.5 31.5t73 58t55.5 92l40 1l-2 -232h-737zM142 1497l338 339h13l336 -339l-12 -10l-330 189l-333 -189z" />
<glyph unicode="&#xcb;" horiz-adv-x="880" d="M102 4v1319h737l2 -232l-40 1q-20 54 -55.5 92t-73 58t-90.5 31.5t-93 14t-97 2.5h-105v-583h345v-33h-345v-637h105q57 0 97 2.5t93 14t90.5 31.5t73 58t55.5 92l40 1l-2 -232h-737zM208 1639q0 37 25 62t61 25t62 -25t26 -62t-26 -62t-62 -25t-61 25t-25 62zM610 1639 q0 37 25 62t61 25t62 -25t26 -62t-26 -62t-62 -25t-61 25t-25 62z" />
<glyph unicode="&#xcc;" horiz-adv-x="389" d="M-160 1836h242l142 -339l-14 -10zM101 4v1319h185v-1319h-185z" />
<glyph unicode="&#xcd;" horiz-adv-x="389" d="M102 4v1319h185v-1319h-185zM171 1497l141 339h242l-369 -349z" />
<glyph unicode="&#xce;" horiz-adv-x="389" d="M-125 1497l339 339h12l338 -339l-12 -10l-332 189l-333 -189zM102 4v1319h185v-1319h-185z" />
<glyph unicode="&#xcf;" horiz-adv-x="391" d="M-82 1638q0 36 26 62t62 26t61 -26t25 -62t-25 -61t-61 -25t-62 25t-26 61zM102 4v1319h185v-1319h-185zM320 1638q0 36 26 62t62 26t61 -26t25 -62t-25 -61t-61 -25t-62 25t-26 61z" />
<glyph unicode="&#xd1;" horiz-adv-x="1122" d="M39 1317v6h219l725 -1022v446v577h36v-1342h-16l-839 1162v-1137h-36v1187zM194 1518q33 228 181 228q55 0 131.5 -30t148 -59.5t112.5 -29.5q48 0 77.5 30t47.5 89l20 -4q-35 -230 -180 -230q-55 0 -131.5 30t-148 59.5t-112.5 29.5q-48 0 -77.5 -29.5t-47.5 -89.5z" />
<glyph unicode="&#xd2;" horiz-adv-x="1468" d="M49 651q0 156 54 287t147.5 219.5t221.5 138t275 49.5q141 0 264 -46.5t214 -131t143.5 -211.5t52.5 -280q0 -156 -54 -287t-147.5 -219.5t-221.5 -138t-275 -49.5q-141 0 -264 46.5t-214 131t-143.5 211.5t-52.5 280zM252 671q0 -295 136.5 -477.5t354.5 -182.5 q215 0 345 176.5t130 468.5q0 295 -136 477.5t-350 182.5q-218 0 -349 -176.5t-131 -468.5zM525 1836h242l144 -339l-14 -10z" />
<glyph unicode="&#xd3;" horiz-adv-x="1468" d="M49 651q0 156 54 287t147.5 219.5t221.5 138t275 49.5q141 0 264 -46.5t214 -131t143.5 -211.5t52.5 -280q0 -156 -54 -287t-147.5 -219.5t-221.5 -138t-275 -49.5q-141 0 -264 46.5t-214 131t-143.5 211.5t-52.5 280zM252 671q0 -295 136.5 -477.5t354.5 -182.5 q215 0 345 176.5t130 468.5q0 295 -136 477.5t-350 182.5q-218 0 -349 -176.5t-131 -468.5zM696 1497l143 339h242l-371 -349z" />
<glyph unicode="&#xd4;" horiz-adv-x="1468" d="M49 651q0 156 54 287t147.5 219.5t221.5 138t275 49.5q141 0 264 -46.5t214 -131t143.5 -211.5t52.5 -280q0 -156 -54 -287t-147.5 -219.5t-221.5 -138t-275 -49.5q-141 0 -264 46.5t-214 131t-143.5 211.5t-52.5 280zM252 671q0 -295 136.5 -477.5t354.5 -182.5 q215 0 345 176.5t130 468.5q0 295 -136 477.5t-350 182.5q-218 0 -349 -176.5t-131 -468.5zM416 1497l339 339h12l336 -339l-12 -10l-330 189l-333 -189z" />
<glyph unicode="&#xd5;" horiz-adv-x="1468" d="M49 651q0 156 54 287t147.5 219.5t221.5 138t275 49.5q141 0 264 -46.5t214 -131t143.5 -211.5t52.5 -280q0 -156 -54 -287t-147.5 -219.5t-221.5 -138t-275 -49.5q-141 0 -264 46.5t-214 131t-143.5 211.5t-52.5 280zM252 671q0 -295 136.5 -477.5t354.5 -182.5 q215 0 345 176.5t130 468.5q0 295 -136 477.5t-350 182.5q-218 0 -349 -176.5t-131 -468.5zM346 1518q34 228 181 228q55 0 131.5 -30t148 -59.5t112.5 -29.5q48 0 77.5 30t47.5 89l20 -4q-35 -230 -180 -230q-55 0 -131.5 30t-148 59.5t-112.5 29.5q-48 0 -77.5 -29.5 t-47.5 -89.5z" />
<glyph unicode="&#xd6;" horiz-adv-x="1468" d="M49 651q0 156 54 287t147.5 219.5t221.5 138t275 49.5q141 0 264 -46.5t214 -131t143.5 -211.5t52.5 -280q0 -156 -54 -287t-147.5 -219.5t-221.5 -138t-275 -49.5q-141 0 -264 46.5t-214 131t-143.5 211.5t-52.5 280zM252 671q0 -295 136.5 -477.5t354.5 -182.5 q215 0 345 176.5t130 468.5q0 295 -136 477.5t-350 182.5q-218 0 -349 -176.5t-131 -468.5zM442 1639q0 37 26 62t62 25t61 -25t25 -62t-25 -62t-61 -25t-62 25t-26 62zM844 1639q0 37 26 62t62 25t62 -25t26 -62t-26 -62t-62 -25t-62 25t-26 62z" />
<glyph unicode="&#xd8;" horiz-adv-x="1474" d="M53 651q0 156 54 287t147.5 219.5t221.5 138t275 49.5q230 0 405 -120l114 134l33 -29l-112 -131q110 -89 172 -222.5t62 -300.5q0 -156 -54 -287t-147.5 -219.5t-221.5 -138t-275 -49.5q-265 0 -447 151l-126 -147l-33 28l126 148q-194 186 -194 489zM256 671 q0 -228 87 -397l739 865q-135 177 -346 177q-218 0 -349 -176.5t-131 -468.5zM366 233q66 -106 164 -164t217 -58q215 0 345 176.5t130 468.5q0 267 -114 446z" />
<glyph unicode="&#xd9;" horiz-adv-x="1124" d="M90 457v866h185v-862q0 -211 91.5 -317.5t268.5 -106.5q172 0 267.5 104.5t95.5 309.5v872h36v-862q0 -479 -466 -479q-237 0 -357.5 122.5t-120.5 352.5zM355 1836h242l144 -339l-15 -10z" />
<glyph unicode="&#xda;" horiz-adv-x="1124" d="M90 457v866h185v-862q0 -211 91.5 -317.5t268.5 -106.5q172 0 267.5 104.5t95.5 309.5v872h36v-862q0 -479 -466 -479q-237 0 -357.5 122.5t-120.5 352.5zM499 1497l144 339h242l-372 -349z" />
<glyph unicode="&#xdb;" horiz-adv-x="1124" d="M90 457v866h185v-862q0 -211 91.5 -317.5t268.5 -106.5q172 0 267.5 104.5t95.5 309.5v872h36v-862q0 -479 -466 -479q-237 0 -357.5 122.5t-120.5 352.5zM211 1497l338 339h13l336 -339l-12 -10l-331 189l-332 -189z" />
<glyph unicode="&#xdc;" horiz-adv-x="1124" d="M90 457v866h185v-862q0 -211 91.5 -317.5t268.5 -106.5q172 0 267.5 104.5t95.5 309.5v872h36v-862q0 -479 -466 -479q-237 0 -357.5 122.5t-120.5 352.5zM308 1639q0 37 25 62t61 25t62 -25t26 -62t-26 -62t-62 -25t-61 25t-25 62zM710 1639q0 37 25 62t61 25t62 -25 t26 -62t-26 -62t-62 -25t-61 25t-25 62z" />
<glyph unicode="&#xdd;" horiz-adv-x="1009" d="M-14 1323h212l387 -689l95 167l298 523l46 -1q-148 -243 -312 -538l-110 -194v-587h-185v565zM447 1497l141 339h242l-369 -349z" />
<glyph unicode="&#xdf;" horiz-adv-x="1165" d="M-63 1047v45h157v112q0 118 36 209t100.5 146.5t148.5 83.5t184 28q172 0 290 -82t118 -217q0 -61 -27 -113t-67 -86t-87.5 -69t-87.5 -62t-67 -64.5t-27 -78.5q0 -56 44.5 -95.5t134.5 -88.5l77 -45q48 -27 79.5 -47.5t69.5 -54t60.5 -67t38 -81t15.5 -102.5 q0 -154 -105.5 -246t-275.5 -92q-92 0 -184 27t-152 71q15 52 67.5 63.5t88.5 -29.5q93 -104 192 -104q116 0 182 63t66 156q0 40 -14.5 75t-33.5 60t-55.5 52.5t-62 43.5t-72.5 42l-78 43q-44 24 -75.5 46t-62 52.5t-46.5 70t-16 85.5q0 48 19.5 90.5t49.5 75.5t66.5 66 t71.5 69.5t62.5 78t42 100.5t7.5 128q-10 101 -84.5 170t-174.5 68q-129 -2 -195 -95t-66 -241v-1303h-195v1043h-157z" />
<glyph unicode="&#xe0;" horiz-adv-x="972" d="M35 221q0 108 118 205t366 194l158 62q-5 123 -31.5 190.5t-66 89.5t-104.5 22q-75 0 -126 -39q-17 -12 -26 -54q-8 -37 -37.5 -57.5t-66 -17.5t-61.5 31l-30 34q74 48 179.5 90t197.5 42q49 0 92 -8.5t88 -32.5t77 -62.5t52 -103t20 -149.5v-494q0 -3 0.5 -7t0.5 -6 q9 -73 65 5l21 33l24 -1q-4 -12 -12 -31.5t-36.5 -62t-61.5 -62.5l-1 -1h-1q-27 -18 -57 -19h-7h-14q-44 4 -65.5 32t-24.5 61q-1 6 -2 21.5t-1 22.5v1q0 1 -0.5 3t-0.5 3v3v5v202q-16 -60 -42 -117q-110 -245 -329 -248h-5q-116 0 -188 70q-62 62 -62 151zM180 277 q0 -76 59.5 -128.5t144.5 -52.5q168 0 246 257q45 144 48 302l-151 -64q-111 -47 -175 -80.5t-104.5 -70t-54 -73t-13.5 -90.5zM226 1534h215l150 -357l-14 -10z" />
<glyph unicode="&#xe1;" horiz-adv-x="972" d="M35 221q0 108 118 205t366 194l158 62q-5 123 -31.5 190.5t-66 89.5t-104.5 22q-75 0 -126 -39q-17 -12 -26 -54q-8 -37 -37.5 -57.5t-66 -17.5t-61.5 31l-30 34q74 48 179.5 90t197.5 42q49 0 92 -8.5t88 -32.5t77 -62.5t52 -103t20 -149.5v-494q0 -3 0.5 -7t0.5 -6 q9 -73 65 5l21 33l24 -1q-4 -12 -12 -31.5t-36.5 -62t-61.5 -62.5l-1 -1h-1q-27 -18 -57 -19h-7h-14q-44 4 -65.5 32t-24.5 61q-1 6 -2 21.5t-1 22.5v1q0 1 -0.5 3t-0.5 3v3v5v202q-16 -60 -42 -117q-110 -245 -329 -248h-5q-116 0 -188 70q-62 62 -62 151zM180 277 q0 -76 59.5 -128.5t144.5 -52.5q168 0 246 257q45 144 48 302l-151 -64q-111 -47 -175 -80.5t-104.5 -70t-54 -73t-13.5 -90.5zM390 1177l148 357h215l-349 -367z" />
<glyph unicode="&#xe2;" horiz-adv-x="972" d="M35 221q0 108 118 205t366 194l158 62q-5 123 -31.5 190.5t-66 89.5t-104.5 22q-75 0 -126 -39q-17 -12 -26 -54q-8 -37 -37.5 -57.5t-66 -17.5t-61.5 31l-30 34q74 48 179.5 90t197.5 42q49 0 92 -8.5t88 -32.5t77 -62.5t52 -103t20 -149.5v-494q0 -3 0.5 -7t0.5 -6 q9 -73 65 5l21 33l24 -1q-4 -12 -12 -31.5t-36.5 -62t-61.5 -62.5l-1 -1h-1q-27 -18 -57 -19h-7h-14q-44 4 -65.5 32t-24.5 61q-1 6 -2 21.5t-1 22.5v1q0 1 -0.5 3t-0.5 3v3v5v202q-16 -60 -42 -117q-110 -245 -329 -248h-5q-116 0 -188 70q-62 62 -62 151zM180 277 q0 -76 59.5 -128.5t144.5 -52.5q168 0 246 257q45 144 48 302l-151 -64q-111 -47 -175 -80.5t-104.5 -70t-54 -73t-13.5 -90.5zM194 1177l310 357h12l312 -357l-12 -10l-306 205l-303 -205z" />
<glyph unicode="&#xe3;" horiz-adv-x="972" d="M35 221q0 108 118 205t366 194l158 62q-5 123 -31.5 190.5t-66 89.5t-104.5 22q-75 0 -126 -39q-17 -12 -26 -54q-8 -37 -37.5 -57.5t-66 -17.5t-61.5 31l-30 34q74 48 179.5 90t197.5 42q49 0 92 -8.5t88 -32.5t77 -62.5t52 -103t20 -149.5v-494q0 -3 0.5 -7t0.5 -6 q9 -73 65 5l21 33l24 -1q-4 -12 -12 -31.5t-36.5 -62t-61.5 -62.5l-1 -1h-1q-27 -18 -57 -19h-7h-14q-44 4 -65.5 32t-24.5 61q-1 6 -2 21.5t-1 22.5v1q0 1 -0.5 3t-0.5 3v3v5v202q-16 -60 -42 -117q-110 -245 -329 -248h-5q-116 0 -188 70q-62 62 -62 151zM145 1160 q14 108 59 169t120 61q55 0 125 -30t134.5 -59.5t105.5 -29.5q48 0 77.5 30t47.5 89l21 -4q-35 -230 -181 -230q-54 0 -124 30t-134.5 59.5t-106.5 29.5q-48 0 -77.5 -29.5t-47.5 -89.5zM180 277q0 -76 59.5 -128.5t144.5 -52.5q168 0 246 257q45 144 48 302l-151 -64 q-111 -47 -175 -80.5t-104.5 -70t-54 -73t-13.5 -90.5z" />
<glyph unicode="&#xe4;" horiz-adv-x="972" d="M35 221q0 108 118 205t366 194l158 62q-5 123 -31.5 190.5t-66 89.5t-104.5 22q-75 0 -126 -39q-17 -12 -26 -54q-8 -37 -37.5 -57.5t-66 -17.5t-61.5 31l-30 34q74 48 179.5 90t197.5 42q49 0 92 -8.5t88 -32.5t77 -62.5t52 -103t20 -149.5v-494q0 -3 0.5 -7t0.5 -6 q9 -73 65 5l21 33l24 -1q-4 -12 -12 -31.5t-36.5 -62t-61.5 -62.5l-1 -1h-1q-27 -18 -57 -19h-7h-14q-44 4 -65.5 32t-24.5 61q-1 6 -2 21.5t-1 22.5v1q0 1 -0.5 3t-0.5 3v3v5v202q-16 -60 -42 -117q-110 -245 -329 -248h-5q-116 0 -188 70q-62 62 -62 151zM180 277 q0 -76 59.5 -128.5t144.5 -52.5q168 0 246 257q45 144 48 302l-151 -64q-111 -47 -175 -80.5t-104.5 -70t-54 -73t-13.5 -90.5zM195.5 1275q0.5 37 26.5 62q25 25 61 24.5t61 -25.5t25.5 -61t-24.5 -61q-25 -26 -62 -26.5t-62 25.5q-26 25 -25.5 62zM586 1274.5 q0 35.5 26 61.5q26 25 61.5 25t60.5 -25q26 -26 26 -61.5t-25 -61.5t-61.5 -26t-62.5 26q-25 26 -25 61.5z" />
<glyph unicode="&#xe5;" horiz-adv-x="972" d="M35 221q0 108 118 205t366 194l158 62q-5 123 -31.5 190.5t-66 89.5t-104.5 22q-75 0 -126 -39q-17 -12 -26 -54q-8 -37 -37.5 -57.5t-66 -17.5t-61.5 31l-30 34q74 48 179.5 90t197.5 42q49 0 92 -8.5t88 -32.5t77 -62.5t52 -103t20 -149.5v-494q0 -3 0.5 -7t0.5 -6 q9 -73 65 5l21 33l24 -1q-4 -12 -12 -31.5t-36.5 -62t-61.5 -62.5l-1 -1h-1q-27 -18 -57 -19h-7h-14q-44 4 -65.5 32t-24.5 61q-1 6 -2 21.5t-1 22.5v1q0 1 -0.5 3t-0.5 3v3v5v202q-16 -60 -42 -117q-110 -245 -329 -248h-5q-116 0 -188 70q-62 62 -62 151zM180 277 q0 -76 59.5 -128.5t144.5 -52.5q168 0 246 257q45 144 48 302l-151 -64q-111 -47 -175 -80.5t-104.5 -70t-54 -73t-13.5 -90.5zM269 1307q0 89 64 146t159 57q96 0 160 -56.5t64 -146.5q0 -91 -64 -148.5t-160 -57.5q-95 0 -159 57.5t-64 148.5zM361 1307q0 -83 34.5 -131 t96.5 -48q64 0 99 48t35 131q0 82 -35 130t-99 48q-62 0 -96.5 -48t-34.5 -130z" />
<glyph unicode="&#xe6;" horiz-adv-x="1667" d="M35 221q0 108 118 205t366 194l158 62q-5 123 -31.5 190.5t-66 89.5t-104.5 22q-75 0 -126 -39q-17 -12 -26 -54q-8 -37 -37.5 -57.5t-66 -17.5t-61.5 31l-30 34q74 48 179.5 90t197.5 42q47 0 89.5 -9t85.5 -29t77 -59.5t53 -94.5q73 80 167 126.5t190 46.5 q164 0 251 -87v1l5.5 -5.5t13.5 -15.5t18 -25.5t18.5 -36t15 -46t8 -56t-2.5 -66.5h-89h-1h-559q-8 -30 -11 -65v-120q13 -184 108.5 -279t268.5 -95q143 0 246 78t179 228l13 -7q-103 -212 -255 -320q-131 -92 -276 -92q-182 0 -303 104t-148 273l-6 3q-16 -60 -42 -117 q-110 -245 -329 -248h-5q-116 0 -188 70q-62 62 -62 151zM180 277q0 -76 59.5 -128.5t144.5 -52.5q168 0 246 257q21 72 32 140q4 38 8 59q8 72 8 103l-151 -64q-111 -47 -175 -80.5t-104.5 -70t-54 -73t-13.5 -90.5zM852 688h489q14 93 -6.5 152.5t-57.5 89.5q-1 0 -1 1 l-2 1q-13 11 -31 19l-12 5q-26 8 -58 8q-115 0 -188 -65t-133 -211zM1468 688h1h-1z" />
<glyph unicode="&#xe7;" horiz-adv-x="931" d="M53 482q0 227 137 370t338 143q233 0 364 -165q-67 -60 -153 -37.5t-118 106.5q-25 68 -84 68q-132 0 -214.5 -121.5t-82.5 -323.5q0 -215 91.5 -335t238.5 -120q84 0 168 44t143 130l22 -13q-149 -224 -375 -238l-32 -69q111 -7 173.5 -56t62.5 -119q0 -78 -65.5 -127 t-168.5 -49q-105 0 -169 37l7 18q16 -6 57.5 -12t71.5 -6q70 0 110 29.5t40 74.5q0 42 -42 71.5t-114 29.5h-52l80 178q-188 5 -311 140t-123 352z" />
<glyph unicode="&#xe8;" horiz-adv-x="997" d="M49 451q0 106 44 207t114.5 174t163 117.5t185.5 44.5q165 0 252 -87l-1 1l5.5 -5.5t13.5 -15.5t18 -25.5t18.5 -36t15 -46t8 -56t-2.5 -66.5h-89h-560q-13 -53 -13 -134q1 -209 97.5 -317t281.5 -108q144 0 247 78t179 228l13 -7q-102 -211 -256 -320q-131 -92 -276 -92 q-207 0 -332.5 131t-125.5 335zM241 688h489q14 93 -6.5 152.5t-57.5 89.5l-1 1q-1 1 -2 1q-14 12 -30 19l-13 5q-26 8 -58 8q-115 0 -188 -65t-133 -211zM326 1505h215l148 -357l-14 -10z" />
<glyph unicode="&#xe9;" horiz-adv-x="997" d="M49 451q0 106 44 207t114.5 174t163 117.5t185.5 44.5q165 0 252 -87l-1 1l5.5 -5.5t13.5 -15.5t18 -25.5t18.5 -36t15 -46t8 -56t-2.5 -66.5h-89h-560q-13 -53 -13 -134q1 -209 97.5 -317t281.5 -108q144 0 247 78t179 228l13 -7q-102 -211 -256 -320q-131 -92 -276 -92 q-207 0 -332.5 131t-125.5 335zM242 688h488q14 94 -6.5 153.5t-57.5 88.5l-1 1q-1 1 -2 1q-14 12 -30 19l-13 5q-26 8 -58 8q-115 0 -187.5 -65t-132.5 -211zM471 1148l150 357h215l-350 -367z" />
<glyph unicode="&#xea;" horiz-adv-x="997" d="M49 451q0 106 44 207t114.5 174t163 117.5t185.5 44.5q165 0 252 -87l-1 1l5.5 -5.5t13.5 -15.5t18 -25.5t18.5 -36t15 -46t8 -56t-2.5 -66.5h-89h-560q-13 -53 -13 -134q1 -209 97.5 -317t281.5 -108q144 0 247 78t179 228l13 -7q-102 -211 -256 -320q-131 -92 -276 -92 q-207 0 -332.5 131t-125.5 335zM241 688h489q14 93 -6.5 152.5t-57.5 89.5l-1 1q-1 1 -2 1q-14 12 -30 19l-13 5q-26 8 -58 8q-115 0 -188 -65t-133 -211zM253 1148l310 357h12l310 -357l-12 -10l-304 205l-303 -205z" />
<glyph unicode="&#xeb;" horiz-adv-x="997" d="M49 451q0 106 44 207t114.5 174t163 117.5t185.5 44.5q165 0 252 -87l-1 1l5.5 -5.5t13.5 -15.5t18 -25.5t18.5 -36t15 -46t8 -56t-2.5 -66.5h-89h-560q-13 -53 -13 -134q1 -209 97.5 -317t281.5 -108q144 0 247 78t179 228l13 -7q-102 -211 -256 -320q-131 -92 -276 -92 q-207 0 -332.5 131t-125.5 335zM241 688h489q14 93 -6.5 152.5t-57.5 89.5l-1 1q-1 1 -2 1q-14 12 -30 19l-13 5q-26 8 -58 8q-115 0 -188 -65t-133 -211zM291 1289.5q0 35.5 26 61.5q26 25 61 25t61 -25q26 -26 26 -61.5t-25 -61.5q-26 -26 -62 -26t-62 26q-25 26 -25 61.5 zM683 1289.5q0 35.5 26 61.5q25 25 61 25t61 -25q26 -26 26 -61.5t-25 -61.5q-26 -26 -62 -26t-62 26q-25 26 -25 61.5z" />
<glyph unicode="&#xec;" horiz-adv-x="454" d="M-23 1499h216l148 -357l-15 -10zM31 816q2 5 4.5 12.5t13 29.5t22.5 41t31 40.5t40 34.5q29 18 60 19h1h1h4h8h1q10 0 14 -1q76 -13 82 -107v-23v-682q0 -14 2 -30q9 -72 64 4l21 34h25q-4 -12 -12 -32t-36.5 -62.5t-61.5 -62.5q-31 -19 -60 -20h-7q-3 0 -7.5 0.5 t-6.5 0.5q-78 7 -90 92q-2 10 -2 26v698q-1 99 -53 38q-17 -21 -33 -50h-25z" />
<glyph unicode="&#xed;" horiz-adv-x="454" d="M31 816q2 5 4.5 12.5t13 29.5t22.5 41t31 40.5t40 34.5q29 18 60 19h1h1h4h8q11 0 15 -1q76 -13 82 -107v-23h-1v-682q0 -14 2 -30q9 -73 65 5l21 33h24q-4 -12 -12 -32t-36.5 -62.5t-61.5 -62.5q-31 -19 -59 -20h-7q-3 0 -7.5 0.5t-6.5 0.5q-78 7 -90 92q-2 10 -2 26 v698q-1 99 -53 38q-17 -21 -33 -50h-25zM173 1142l150 357h215l-351 -367z" />
<glyph unicode="&#xee;" horiz-adv-x="454" d="M-70 1142l310 357h12l310 -357l-12 -10l-304 205l-303 -205zM31 816q4 13 12.5 32.5t37.5 62.5t62 63q29 18 60 19h1h4h9q10 0 14 -1q76 -13 82 -107v-23v-682q0 -14 2 -30q9 -72 64 4l21 34h25q-4 -12 -12 -32t-36.5 -62.5t-61.5 -62.5q-31 -19 -60 -20h-7 q-3 0 -7.5 0.5t-6.5 0.5q-77 7 -89 92q-2 10 -2 26v698q-1 100 -54 37q-17 -21 -33 -49h-25z" />
<glyph unicode="&#xef;" horiz-adv-x="454" d="M-82 1283.5q0 35.5 26 61.5q26 25 61 25t61 -25q26 -26 26 -61.5t-25 -61.5t-62 -26t-62 26t-25 61.5zM31 816q4 13 12.5 32.5t37.5 62.5t62 63q29 18 60 19h1h4h8h1q10 0 14 -1q76 -13 82 -107v-23v-682q0 -14 2 -30q9 -72 64 4l21 34h25q-4 -12 -12 -32t-36.5 -62.5 t-61.5 -62.5q-31 -19 -60 -20h-7q-3 0 -7.5 0.5t-6.5 0.5q-77 7 -89 92q-2 10 -2 26v698q-1 100 -54 37q-17 -21 -33 -49h-25zM310 1283.5q0 35.5 26 61.5q26 25 61 25t61 -25q26 -26 26 -61.5t-25 -61.5t-62 -26t-62 26t-25 61.5z" />
<glyph unicode="&#xf1;" horiz-adv-x="1103" d="M31 819q4 12 12 31.5t36.5 62t61.5 62.5q1 0 1 0.5t1 0.5q27 18 58 19h8h13q25 -3 44 -14q35 -21 45 -71v-1q0 -1 1 -3v-2l1 -2q1 -5 1 -13q0 -3 0.5 -7.5t0.5 -5.5v-38q79 79 157 118t181 39q220 0 283 -177l9 -33q15 -63 15 -132v-491q0 -2 0.5 -6.5t0.5 -5.5 q9 -73 66 6l21 33h25q-1 -4 -4 -12t-13.5 -29.5t-22 -40.5t-31 -40.5t-40.5 -34.5h-1l-1 -1l-1 -1q-23 -14 -50 -17l-8 -1h-7h-14h-1q-1 1 -2 1q-24 3 -40 13q-36 22 -46 71l-1 1q0 1 -0.5 3.5t-0.5 3.5q-2 10 -2 26v526q0 25 -0.5 40.5t-4.5 49t-11 57t-22.5 53t-37 48 t-56 31.5t-77.5 13q-66 0 -127 -36t-136 -109v-775h-172v816q0 2 -1 6.5t-1 5.5q-9 73 -65 -5l-21 -33h-24zM250 1181q33 230 181 230q55 0 125 -30t134.5 -59.5t105.5 -29.5q89 0 125 119l19 -4q-14 -109 -59.5 -169.5t-121.5 -60.5q-54 0 -123.5 30t-134 59.5t-105.5 29.5 q-48 0 -77.5 -29.5t-47.5 -89.5z" />
<glyph unicode="&#xf2;" horiz-adv-x="1077" d="M52 506q13 227 160.5 360t361.5 122q210 -11 336.5 -154t113.5 -370t-160 -358.5t-361 -120.5q-138 8 -242.5 72.5t-160.5 181t-48 267.5zM237 507q-12 -216 65.5 -353t212.5 -145q136 -7 224.5 117.5t99.5 337.5q12 216 -65.5 353.5t-212.5 145.5q-136 7 -224 -117 t-100 -339zM332 1461h218l148 -357l-15 -10z" />
<glyph unicode="&#xf3;" horiz-adv-x="1077" d="M52 506q13 227 160.5 360t361.5 122q210 -11 336.5 -154t113.5 -370t-160 -358.5t-361 -120.5q-138 8 -242.5 72.5t-160.5 181t-48 267.5zM237 507q-12 -216 65.5 -353t212.5 -145q136 -7 224.5 117.5t99.5 337.5q12 216 -65.5 353.5t-212.5 145.5q-136 7 -224 -117 t-100 -339zM439 1104l147 357h218l-351 -367z" />
<glyph unicode="&#xf4;" horiz-adv-x="1077" d="M52 506q13 227 160.5 360t361.5 122q210 -11 336.5 -154t113.5 -370t-160 -358.5t-361 -120.5q-138 8 -242.5 72.5t-160.5 181t-48 267.5zM236 1129l312 357h12l310 -357l-12 -11l-304 205l-306 -205zM237 507q-12 -216 65.5 -353t212.5 -145q136 -7 224.5 117.5 t99.5 337.5q12 216 -65.5 353.5t-212.5 145.5q-136 7 -224 -117t-100 -339z" />
<glyph unicode="&#xf5;" horiz-adv-x="1077" d="M52 506q13 227 160.5 360t361.5 122q210 -11 336.5 -154t113.5 -370t-160 -358.5t-361 -120.5q-138 8 -242.5 72.5t-160.5 181t-48 267.5zM194 1181q33 230 180 230q54 0 123.5 -30t134.5 -59.5t107 -29.5q87 0 123 119l21 -4q-35 -230 -181 -230q-54 0 -123.5 30 t-134.5 59.5t-107 29.5q-47 0 -76 -29.5t-47 -89.5zM237 507q-12 -216 65.5 -353t212.5 -145q136 -7 224.5 117.5t99.5 337.5q12 216 -65.5 353.5t-212.5 145.5q-136 7 -224 -117t-100 -339z" />
<glyph unicode="&#xf6;" horiz-adv-x="1077" d="M52 506q13 227 160.5 360t361.5 122q210 -11 336.5 -154t113.5 -370t-160 -358.5t-361 -120.5q-138 8 -242.5 72.5t-160.5 181t-48 267.5zM237 507q-12 -216 65.5 -353t212.5 -145q136 -7 224.5 117.5t99.5 337.5q12 216 -65.5 353.5t-212.5 145.5q-136 7 -224 -117 t-100 -339zM271 1303.5q0 35.5 26 61.5q25 25 61 25t61 -25q26 -26 26 -61.5t-25 -61.5q-26 -26 -62 -26t-62 26q-25 26 -25 61.5zM662.5 1303q0.5 37 26.5 62q25 25 61 24.5t61 -25.5t25.5 -61t-24.5 -61q-25 -26 -62 -26.5t-62 25.5q-26 25 -25.5 62z" />
<glyph unicode="&#xf8;" horiz-adv-x="1081" d="M54 506q13 227 160.5 360t361.5 122q157 -9 268 -91l53 73l18 -13l-55 -74q85 -70 129 -177.5t37 -241.5q-13 -227 -160 -358.5t-361 -120.5q-138 7 -246 76l-49 -67l-18 12l49 67q-96 69 -145.5 180t-41.5 253zM239 507q-12 -209 64 -349l477 651q-77 146 -216 154 q-136 7 -224.5 -117t-100.5 -339zM315 137q77 -121 202 -128q136 -7 224.5 117.5t99.5 337.5q10 192 -50 324z" />
<glyph unicode="&#xf9;" horiz-adv-x="1114" d="M29 817q2 5 4.5 12.5t13 29t22.5 40.5t31 40.5t40 34.5h2v1q29 18 61 19h1h4h5h1q84 -4 98 -91v-576q0 -24 0.5 -39t4.5 -47t11.5 -53.5t23 -49t37.5 -44.5t56.5 -29t78.5 -12q68 0 141 39t133 106v796h165h7v-814q0 -14 2 -30q9 -72 64 4l21 34h25q-4 -12 -12 -31.5 t-36.5 -62t-61.5 -63.5l-1 -1h-1q-27 -18 -58 -19h-7h-14q-44 4 -65 31.5t-24 61.5q-1 8 -2.5 26t-1.5 23v4q-155 -167 -348 -167q-310 0 -310 340v525q-9 73 -65 -5l-21 -33h-25zM323 1472h217l148 -357l-14 -11z" />
<glyph unicode="&#xfa;" horiz-adv-x="1114" d="M29 817q2 5 4.5 12.5t13 29t22.5 40.5t31 40.5t40 34.5h2v1q29 18 61 19h1h4h5h1q84 -4 98 -91v-576q0 -24 0.5 -39t4.5 -47t11.5 -53.5t23 -49t37.5 -44.5t56.5 -29t78.5 -12q68 0 141 39t133 106v796h165h7v-814q0 -14 2 -30q9 -72 64 4l21 34h25q-4 -12 -12 -31.5 t-36.5 -62t-61.5 -63.5l-1 -1h-1q-27 -18 -58 -19h-7h-14q-44 4 -65 31.5t-24 61.5q-1 8 -2.5 26t-1.5 23v4q-155 -167 -348 -167q-310 0 -310 340v525q-9 73 -65 -5l-21 -33h-25zM416 1115l148 357h217l-350 -368z" />
<glyph unicode="&#xfb;" horiz-adv-x="1114" d="M29 817q2 5 4.5 12.5t13 29t22.5 40.5t31 40.5t40 34.5h2v1q29 18 61 19h1h4h5h1q84 -4 98 -91v-576q0 -24 0.5 -39t4.5 -47t11.5 -53.5t23 -49t37.5 -44.5t56.5 -29t78.5 -12q68 0 141 39t133 106v796h165h7v-814q0 -14 2 -30q9 -72 64 4l21 34h25q-4 -12 -12 -31.5 t-36.5 -62t-61.5 -63.5l-1 -1h-1q-27 -18 -58 -19h-7h-14q-44 4 -65 31.5t-24 61.5q-1 8 -2.5 26t-1.5 23v4q-155 -167 -348 -167q-310 0 -310 340v525q-9 73 -65 -5l-21 -33h-25zM238 1115l312 357h13l309 -357l-12 -11l-304 205l-305 -205z" />
<glyph unicode="&#xfc;" horiz-adv-x="1114" d="M29 817q2 5 4.5 12.5t13 29t22.5 40.5t31 40.5t40 34.5h2v1q29 18 61 19h1h4h5h1q84 -4 98 -91v-576q0 -24 0.5 -39t4.5 -47t11.5 -53.5t23 -49t37.5 -44.5t56.5 -29t78.5 -12q68 0 141 39t133 106v796h165h7v-814q0 -14 2 -30q9 -72 64 4l21 34h25q-4 -12 -12 -31.5 t-36.5 -62t-61.5 -63.5l-1 -1h-1q-27 -18 -58 -19h-7h-14q-44 4 -65 31.5t-24 61.5q-1 8 -2.5 26t-1.5 23v4q-155 -167 -348 -167q-310 0 -310 340v525q-9 73 -65 -5l-21 -33h-25zM273 1311.5q0 35.5 26 61.5q26 25 61 25t61 -25h1q26 -26 26 -61.5t-25 -61.5h-1 q-26 -26 -62 -26t-62 26q-25 26 -25 61.5zM664.5 1311q0.5 37 26.5 62q25 25 61 24.5t61 -25.5t25.5 -61t-24.5 -61q-25 -26 -62 -26.5t-62 25.5q-26 25 -25.5 62z" />
<glyph unicode="&#xfd;" horiz-adv-x="946" d="M8 817q27 81 81 133q15 15 29 24h1l1 1q27 18 58 19h7q3 0 7.5 -0.5t6.5 -0.5q55 -5 77 -51h1l298 -696l50 116l8 18v-1l36 83q4 9 13 29.5t13 30.5l1 5l203 467h46q-81 -163 -245 -543l-41 -96l-234 -564q-62 -148 -160 -210t-230 -62l3 39q3 52 43.5 84.5t92.5 25.5 q45 -7 84 3.5t62 30t40 40.5t24 36l6 15l60 144l36 89l-341 794l-3 5l-5 11l-5 13l-4 10l-3 5q-11 23 -24.5 26.5t-25 -7.5t-21.5 -25.5t-16 -27.5l-5 -13h-25zM476 1084l148 357h218l-351 -367z" />
<glyph unicode="&#xff;" horiz-adv-x="946" d="M8 817q27 81 81 133q15 15 29 24h1l1 1q27 18 58 19h7q3 0 7.5 -0.5t6.5 -0.5q55 -5 77 -51h1l298 -696l50 116l8 18v-1l36 83q5 12 13.5 32.5t11.5 27.5l2 5l203 467h45q-74 -148 -244 -543l-41 -96l-234 -564q-62 -148 -160 -210t-230 -62l3 39q3 52 43.5 84.5 t92.5 25.5q45 -7 84 3.5t62 30t40 40.5t24 36l6 15l60 144l36 89l-341 794l-3 5l-5 11l-5 13l-4 10l-3 5q-11 23 -24.5 26.5t-25 -7.5t-21.5 -25.5t-16 -27.5l-5 -13h-25zM256 1302.5q0 35.5 26 61.5q26 25 61.5 25t61.5 -25q26 -26 26 -61.5t-25 -61.5q-26 -26 -63 -26 t-62 26t-25 61.5zM647.5 1302q0.5 37 26.5 62q25 25 61 24.5t61 -25.5t25.5 -61t-24.5 -61q-25 -26 -62 -26.5t-62 25.5q-26 25 -25.5 62z" />
<glyph unicode="&#x152;" horiz-adv-x="1851" d="M49 650q0 317 195 495t534 178h1003l23 -114h-3q-240 81 -492 81h-100v-582h411v-33h-411v-637h103q285 0 523 89h4l-35 -121h-1056q-210 0 -366.5 73t-244.5 219.5t-88 351.5zM252 659q0 -281 140 -452.5t372 -171.5q192 0 260 16v1227q-71 16 -276 16q-236 0 -366 -166 t-130 -469z" />
<glyph unicode="&#x153;" horiz-adv-x="1906" d="M52 502q13 227 160.5 359.5t361.5 121.5q139 -7 244 -74.5t159 -183.5q72 119 189 192.5t239 73.5q164 0 251 -87l5.5 -5.5t13.5 -15.5t18 -25.5t18.5 -36t15 -46t8 -56t-2.5 -66.5h-90h-560q-12 -49 -12 -134q1 -209 97.5 -317t281.5 -108q143 0 245.5 78.5t179.5 228.5 l13 -7q-103 -212 -256 -321q-130 -91 -275 -91q-138 0 -242.5 61t-160.5 168q-68 -117 -186.5 -178t-263.5 -53q-138 8 -242.5 72.5t-160.5 181.5t-48 268zM237 503q-12 -216 65.5 -353t212.5 -145q136 -7 224.5 117t99.5 337q12 216 -65 354t-212 146q-136 7 -224.5 -117 t-100.5 -339zM1090 684h489q14 93 -6.5 152.5t-57.5 89.5l-3 3q-13 11 -31 19l-12 5q-26 8 -59 8q-115 0 -187.5 -65.5t-132.5 -211.5zM1706 684h1l-1 1v-1z" />
<glyph unicode="&#x178;" horiz-adv-x="1009" d="M-14 1323h212l387 -689l95 167l298 523l46 -1q-148 -243 -312 -538l-110 -194v-587h-185v565z" />
<glyph unicode="&#x2000;" horiz-adv-x="918" />
<glyph unicode="&#x2001;" horiz-adv-x="1836" />
<glyph unicode="&#x2002;" horiz-adv-x="918" />
<glyph unicode="&#x2003;" horiz-adv-x="1836" />
<glyph unicode="&#x2004;" horiz-adv-x="612" />
<glyph unicode="&#x2005;" horiz-adv-x="459" />
<glyph unicode="&#x2006;" horiz-adv-x="306" />
<glyph unicode="&#x2007;" horiz-adv-x="306" />
<glyph unicode="&#x2008;" horiz-adv-x="229" />
<glyph unicode="&#x2009;" horiz-adv-x="367" />
<glyph unicode="&#x200a;" horiz-adv-x="102" />
<glyph unicode="&#x2010;" horiz-adv-x="460" d="M25 477v81h411v-81h-411z" />
<glyph unicode="&#x2011;" horiz-adv-x="460" d="M25 477v81h411v-81h-411z" />
<glyph unicode="&#x2012;" horiz-adv-x="460" d="M25 477v81h411v-81h-411z" />
<glyph unicode="&#x2013;" horiz-adv-x="1073" d="M25 477v81h1024v-81h-1024z" />
<glyph unicode="&#x2014;" horiz-adv-x="2097" d="M25 477v81h2048v-81h-2048z" />
<glyph unicode="&#x2019;" horiz-adv-x="325" d="M47 884q107 65 107 165q0 72 -70 139q-23 23 -25.5 54t17.5 56q21 26 53.5 29.5t58.5 -16.5q86 -65 86 -170q0 -81 -62 -152.5t-156 -116.5z" />
<glyph unicode="&#x201c;" horiz-adv-x="638" d="M51 1080q0 81 62 153t154 117l9 -13q-105 -65 -105 -165q0 -71 69 -138q23 -23 25.5 -54t-17.5 -56l-1 -1q-21 -25 -54 -28.5t-58 16.5q-84 65 -84 169zM377 1080q0 81 62 153t154 117l9 -13q-105 -65 -105 -165q0 -71 69 -138q23 -23 25.5 -54t-17.5 -56l-1 -1 q-21 -25 -54 -28.5t-58 16.5q-84 65 -84 169z" />
<glyph unicode="&#x201d;" horiz-adv-x="651" d="M47 884q107 65 107 165q0 72 -70 139q-23 23 -25.5 54t17.5 56q21 26 53.5 29.5t58.5 -16.5q86 -65 86 -170q0 -81 -62 -152.5t-156 -116.5zM373 884q107 65 107 165q0 72 -70 139q-23 23 -25.5 54t17.5 56q21 26 53.5 29.5t58.5 -16.5q86 -65 86 -170q0 -81 -62 -152.5 t-156 -116.5z" />
<glyph unicode="&#x202f;" horiz-adv-x="367" />
<glyph unicode="&#x205f;" horiz-adv-x="459" />
<glyph unicode="&#x20ac;" horiz-adv-x="1206" d="M43 520v33h114q-3 38 -3 76q0 60 5 101h-116v33h120q37 257 200 407.5t399 150.5q115 0 215 -44t176 -114l-11 -11q-46 -43 -107 -49t-113.5 26t-76.5 91q-28 72 -92 72q-166 0 -273 -146.5t-125 -382.5h462l-10 -33h-454q-2 -18 -2 -56q0 -74 5 -121h394l-11 -33h-377 q31 -227 148 -354.5t288 -127.5q94 0 185 39t161 124l20 -18q-79 -107 -190.5 -165.5t-245.5 -58.5q-223 0 -380.5 152.5t-188.5 408.5h-116z" />
<glyph unicode="&#x25fc;" horiz-adv-x="983" d="M0 0v983h983v-983h-983z" />
</font>
</defs>
</svg>
